%FSTAX23Y23*%
%MOIN*%
%SFA1B1*%

%IPPOS*%
%ADD11C,0.005000*%
%ADD37C,0.134000*%
%ADD38C,0.068000*%
%ADD39R,0.038000X0.038000*%
%ADD40R,0.043000X0.024000*%
%ADD41R,0.051000X0.034000*%
%ADD42R,0.069000X0.034000*%
%ADD43R,0.051000X0.020000*%
%ADD44R,0.069000X0.020000*%
%ADD45R,0.113000X0.087000*%
%ADD46R,0.038000X0.058000*%
%ADD47R,0.067000X0.087000*%
%ADD48R,0.067000X0.087000*%
%ADD49R,0.058000X0.108000*%
%ADD50R,0.036000X0.020000*%
%ADD51R,0.067000X0.099000*%
%ADD52R,0.058000X0.068000*%
%LNmb785a-1*%
%LPD*%
G54D11*
X-03851Y-00852D02*
D01*
X-03851Y-00848*
X-03851Y-00845*
X-03852Y-00841*
X-03852Y-00838*
X-03854Y-00834*
X-03855Y-00831*
X-03856Y-00828*
X-03858Y-00825*
X-0386Y-00822*
X-03862Y-00819*
X-03865Y-00817*
X-03867Y-00814*
X-0387Y-00812*
X-03873Y-0081*
X-03876Y-00808*
X-03879Y-00807*
X-03882Y-00805*
X-03885Y-00804*
X-03888Y-00803*
X-03892Y-00802*
X-03895Y-00802*
X-03899Y-00802*
X-03901Y-00802*
Y-01552D02*
D01*
X-03897Y-01551*
X-03894Y-01551*
X-0389Y-0155*
X-03887Y-0155*
X-03883Y-01548*
X-0388Y-01547*
X-03877Y-01546*
X-03874Y-01544*
X-03871Y-01542*
X-03868Y-0154*
X-03866Y-01537*
X-03863Y-01535*
X-03861Y-01532*
X-03859Y-01529*
X-03857Y-01527*
X-03856Y-01523*
X-03854Y-0152*
X-03853Y-01517*
X-03852Y-01514*
X-03851Y-0151*
X-03851Y-01507*
X-03851Y-01503*
X-03851Y-01502*
X-04676Y-00802D02*
D01*
X-04679Y-00802*
X-04682Y-00802*
X-04686Y-00803*
X-04689Y-00803*
X-04693Y-00805*
X-04696Y-00806*
X-04699Y-00807*
X-04702Y-00809*
X-04705Y-00811*
X-04708Y-00813*
X-0471Y-00816*
X-04713Y-00818*
X-04715Y-00821*
X-04717Y-00824*
X-04719Y-00827*
X-0472Y-0083*
X-04722Y-00833*
X-04723Y-00836*
X-04724Y-00839*
X-04725Y-00843*
X-04725Y-00846*
X-04725Y-0085*
X-04726Y-00852*
Y-01502D02*
D01*
X-04725Y-01505*
X-04725Y-01508*
X-04724Y-01512*
X-04724Y-01515*
X-04722Y-01519*
X-04721Y-01522*
X-0472Y-01525*
X-04718Y-01528*
X-04716Y-01531*
X-04714Y-01534*
X-04711Y-01536*
X-04709Y-01539*
X-04706Y-01541*
X-04703Y-01543*
X-04701Y-01545*
X-04697Y-01546*
X-04694Y-01548*
X-04691Y-01549*
X-04688Y-0155*
X-04684Y-01551*
X-04681Y-01551*
X-04677Y-01551*
X-04676Y-01552*
X-03056Y-01752D02*
Y01748D01*
X-05246D02*
X-03056D01*
X-03055Y-01552D02*
Y01492D01*
X-03056Y-01752D02*
Y01748D01*
X-05246D02*
X-03056D01*
X-05246Y-01752D02*
X-03056D01*
X-04786D02*
X-03056D01*
Y01553D01*
X-05246Y-01752D02*
Y01748D01*
X-04676Y-01552D02*
X-03901D01*
X-04676Y-00802D02*
X-03901D01*
X-03851Y-01502D02*
Y-00852D01*
X-04726Y-01502D02*
Y-00852D01*
G54D37*
X-0463Y-01664D03*
X-03212D03*
G54D38*
X-05076Y01548D03*
X-03476Y01648D03*
Y01548D03*
X-03576Y01648D03*
Y01548D03*
X-03676Y01648D03*
Y01548D03*
X-03776Y01648D03*
Y01548D03*
X-03876Y01648D03*
Y01548D03*
X-03976Y01648D03*
Y01548D03*
X-04076Y01648D03*
Y01548D03*
X-04176Y01648D03*
Y01548D03*
X-04276Y01648D03*
Y01548D03*
X-04376Y01648D03*
Y01548D03*
X-04476Y01648D03*
Y01548D03*
X-04576Y01648D03*
Y01548D03*
X-04676Y01648D03*
Y01548D03*
X-04776Y01648D03*
Y01548D03*
X-04876Y01648D03*
Y01548D03*
X-04976Y01648D03*
Y01548D03*
X-05076Y01648D03*
G54D39*
X-03953Y00848D03*
X-03898D03*
X-04423Y00623D03*
X-04478D03*
X-04278Y00698D03*
X-04223D03*
X-03898Y00948D03*
X-03953D03*
X-03498Y00848D03*
X-03553D03*
Y00948D03*
X-03498D03*
X-04478Y00698D03*
X-04423D03*
X-04223Y00623D03*
X-04278D03*
G54D40*
X-04217Y0012D03*
Y00026D03*
Y00089D03*
X-04284Y0012D03*
Y00026D03*
Y00089D03*
Y00057D03*
X-04217D03*
X-04284Y0032D03*
Y00226D03*
Y00289D03*
X-04217Y0032D03*
Y00226D03*
Y00289D03*
Y00257D03*
X-04284D03*
X-04417Y00457D03*
X-04484D03*
Y00489D03*
Y00426D03*
Y0052D03*
X-04417Y00489D03*
Y00426D03*
Y0052D03*
Y00089D03*
X-04484D03*
Y00057D03*
Y0012D03*
Y00026D03*
X-04417Y00057D03*
Y0012D03*
Y00026D03*
Y00289D03*
X-04484D03*
Y00257D03*
Y0032D03*
Y00226D03*
X-04417Y00257D03*
Y0032D03*
Y00226D03*
X-04284Y00457D03*
X-04217D03*
Y00489D03*
Y00426D03*
Y0052D03*
X-04284Y00489D03*
Y00426D03*
Y0052D03*
G54D41*
X-0463Y00077D03*
Y00658D03*
G54D42*
X-04755Y00089D03*
Y00646D03*
G54D43*
X-0463Y00108D03*
Y00131D03*
Y00155D03*
Y00179D03*
Y00202D03*
Y00226D03*
Y00249D03*
Y00273D03*
Y00297D03*
Y0032D03*
Y00344D03*
Y00368D03*
Y00391D03*
Y00415D03*
Y00438D03*
Y00462D03*
Y00486D03*
Y00509D03*
Y00533D03*
Y00556D03*
Y0058D03*
Y00604D03*
Y00627D03*
G54D44*
X-04755Y00119D03*
Y00143D03*
Y00167D03*
Y0019D03*
Y00214D03*
Y00238D03*
Y00261D03*
Y00285D03*
Y00308D03*
Y00332D03*
Y00356D03*
Y00379D03*
Y00403D03*
Y00427D03*
Y0045D03*
Y00474D03*
Y00497D03*
Y00521D03*
Y00545D03*
Y00568D03*
Y00592D03*
Y00616D03*
G54D45*
X-03811Y00648D03*
G54D46*
X-03903Y00648D03*
G54D47*
X-03811Y01073D03*
G54D48*
X-03691Y01073D03*
G54D49*
X-03516Y00648D03*
X-03636D03*
X-04411Y-00102D03*
X-04291D03*
G54D50*
X-03783Y00937D03*
Y00911D03*
Y00885D03*
Y0086D03*
X-03669Y00937D03*
Y00911D03*
Y00885D03*
Y0086D03*
G54D51*
X-03726Y00898D03*
G54D52*
X-03471Y01073D03*
X-03581D03*
M02*