%FSTAX23Y23*%
%MOIN*%
%SFA1B1*%

%IPPOS*%
%ADD17C,0.005000*%
%ADD23R,0.030000X0.030000*%
%ADD24R,0.020000X0.020000*%
%ADD25R,0.059000X0.079000*%
%ADD26R,0.059000X0.079000*%
%ADD27R,0.031000X0.012000*%
%ADD28R,0.020000X0.080000*%
%ADD29R,0.039000X0.016000*%
%ADD30R,0.050000X0.030000*%
%ADD31R,0.079000X0.105000*%
%ADD32R,0.060000X0.050000*%
%ADD33R,0.100000X0.050000*%
%LNmb542b-1*%
%LPD*%
G54D17*
X-02525Y-01325D02*
D01*
X-02524Y-01331*
X-02524Y-01338*
X-02522Y-01345*
X-02521Y-01352*
X-02518Y-01359*
X-02516Y-01365*
X-02513Y-01371*
X-02509Y-01377*
X-02505Y-01383*
X-02501Y-01389*
X-02496Y-01394*
X-02491Y-01399*
X-02486Y-01403*
X-0248Y-01407*
X-02475Y-01411*
X-02468Y-01414*
X-02462Y-01417*
X-02455Y-0142*
X-02449Y-01422*
X-02442Y-01423*
X-02435Y-01424*
X-02428Y-01424*
X-02421*
X-02414Y-01424*
X-02407Y-01423*
X-024Y-01422*
X-02394Y-0142*
X-02387Y-01417*
X-02381Y-01414*
X-02374Y-01411*
X-02369Y-01407*
X-02363Y-01403*
X-02358Y-01399*
X-02353Y-01394*
X-02348Y-01389*
X-02344Y-01383*
X-0234Y-01377*
X-02336Y-01371*
X-02333Y-01365*
X-02331Y-01359*
X-02328Y-01352*
X-02327Y-01345*
X-02325Y-01338*
X-02325Y-01331*
X-02325Y-01325*
Y-002D02*
D01*
X-02325Y-00193*
X-02325Y-00186*
X-02327Y-00179*
X-02328Y-00172*
X-02331Y-00165*
X-02333Y-00159*
X-02336Y-00153*
X-0234Y-00147*
X-02344Y-00141*
X-02348Y-00135*
X-02353Y-0013*
X-02358Y-00125*
X-02363Y-00121*
X-02369Y-00117*
X-02375Y-00113*
X-02381Y-0011*
X-02387Y-00107*
X-02394Y-00104*
X-024Y-00102*
X-02407Y-00101*
X-02414Y-001*
X-02421Y-001*
X-02428*
X-02435Y-001*
X-02442Y-00101*
X-02449Y-00102*
X-02455Y-00104*
X-02462Y-00107*
X-02468Y-0011*
X-02475Y-00113*
X-0248Y-00117*
X-02486Y-00121*
X-02491Y-00125*
X-02496Y-0013*
X-02501Y-00135*
X-02505Y-00141*
X-02509Y-00147*
X-02513Y-00153*
X-02516Y-00159*
X-02518Y-00165*
X-02521Y-00172*
X-02522Y-00179*
X-02524Y-00186*
X-02524Y-00193*
X-02525Y-002*
X-02938Y-0162D02*
X0037D01*
X-02935D02*
Y0011D01*
X-02325Y-01325D02*
Y-00205D01*
X-02525Y-01325D02*
Y-002D01*
X0037Y-0162D02*
Y00112D01*
Y-0162D03*
X-02935Y0011D02*
X0037Y00112D01*
G54D23*
X-01622Y-00875D03*
X-01678D03*
X-01303Y-011D03*
X-01247D03*
X-01375Y-00447D03*
Y-00502D03*
X-0145Y-00447D03*
Y-00502D03*
X-01375Y-00572D03*
Y-00627D03*
X-0145Y-00572D03*
Y-00627D03*
X-011Y-01278D03*
Y-01222D03*
Y-01372D03*
Y-01428D03*
X-01303Y-014D03*
X-01247D03*
X-01151Y-01102D03*
X-01096D03*
X-01678Y-008D03*
X-01622D03*
G54D24*
X-0095Y-00603D03*
X-0105D03*
X-00983D03*
X-0095Y-00548D03*
X-0105D03*
X-01017Y-00603D03*
X-00983Y-00548D03*
X-01017D03*
X-00775Y-00603D03*
X-00875D03*
X-00808D03*
X-00775Y-00548D03*
X-00875D03*
X-00842Y-00603D03*
X-00808Y-00548D03*
X-00842D03*
X-01678Y-01017D03*
Y-00983D03*
X-01622Y-01017D03*
X-01678Y-0105D03*
Y-0095D03*
X-01622Y-00983D03*
Y-0105D03*
Y-0095D03*
X-01678Y-01192D03*
Y-01158D03*
X-01622Y-01192D03*
X-01678Y-01225D03*
Y-01125D03*
X-01622Y-01158D03*
Y-01225D03*
Y-01125D03*
Y-013D03*
Y-014D03*
Y-01333D03*
X-01678Y-013D03*
Y-014D03*
X-01622Y-01367D03*
X-01678Y-01333D03*
Y-01367D03*
G54D25*
X-0141Y-00975D03*
G54D26*
X-0129Y-00975D03*
G54D27*
X-0159Y-00229D03*
Y-00252D03*
Y-00276D03*
Y-003D03*
Y-00323D03*
Y-00347D03*
Y-00371D03*
Y-00394D03*
Y-00418D03*
Y-00134D03*
Y-00111D03*
X-017Y-00241D03*
Y-00264D03*
Y-00288D03*
Y-00312D03*
Y-00335D03*
Y-00359D03*
Y-00382D03*
Y-00406D03*
Y-0043D03*
Y-00123D03*
X-0159Y-0063D03*
X-017Y-00548D03*
X-0159Y-00536D03*
X-017Y-00217D03*
X-0159Y-00205D03*
X-017Y-00193D03*
X-0159Y-00182D03*
X-017Y-0017D03*
X-0159Y-00158D03*
X-017Y-00146D03*
Y-00099D03*
Y-00453D03*
Y-00477D03*
Y-005D03*
Y-00524D03*
X-0159Y-00441D03*
Y-00465D03*
Y-00489D03*
Y-00512D03*
Y-0056D03*
X-017Y-00571D03*
X-0159Y-00583D03*
X-017Y-00595D03*
X-0159Y-00607D03*
X-017Y-00619D03*
Y-00642D03*
X-0159Y-00654D03*
X-017Y-00666D03*
X-0159Y-00678D03*
X-017Y-00689D03*
X-01332Y-01209D03*
Y-01235D03*
Y-01261D03*
Y-01286D03*
X-01221D03*
Y-01235D03*
Y-01261D03*
Y-01209D03*
G54D28*
X-02206Y-00059D03*
X-02253D03*
G54D29*
X-01688Y-00717D03*
Y-00071D03*
G54D30*
X-01475Y-01138D03*
G54D31*
X-01475Y-0123D03*
G54D32*
X-00975Y-01305D03*
Y-01195D03*
G54D33*
X-012Y-00685D03*
Y-00565D03*
M02*