%FSTAX23Y23*%
%MOIN*%
%SFA1B1*%

%IPPOS*%
%ADD17C,0.005000*%
%ADD40C,0.068000*%
%ADD41C,0.134000*%
%ADD42C,0.008000*%
%ADD43C,0.027000*%
%ADD44C,0.017000*%
%ADD45R,0.038000X0.038000*%
%ADD46R,0.028000X0.028000*%
%ADD47R,0.067000X0.087000*%
%ADD48R,0.067000X0.087000*%
%ADD49R,0.039000X0.020000*%
%ADD50R,0.028000X0.088000*%
%ADD51R,0.047000X0.024000*%
%ADD52R,0.058000X0.038000*%
%ADD53R,0.087000X0.113000*%
%ADD54R,0.068000X0.058000*%
%ADD55R,0.108000X0.058000*%
%LNmb542b-1*%
%LPD*%
G54D17*
X-02525Y-01325D02*
D01*
X-02524Y-01331*
X-02524Y-01338*
X-02522Y-01345*
X-02521Y-01352*
X-02518Y-01359*
X-02516Y-01365*
X-02513Y-01371*
X-02509Y-01377*
X-02505Y-01383*
X-02501Y-01389*
X-02496Y-01394*
X-02491Y-01399*
X-02486Y-01403*
X-0248Y-01407*
X-02475Y-01411*
X-02468Y-01414*
X-02462Y-01417*
X-02455Y-0142*
X-02449Y-01422*
X-02442Y-01423*
X-02435Y-01424*
X-02428Y-01424*
X-02421*
X-02414Y-01424*
X-02407Y-01423*
X-024Y-01422*
X-02394Y-0142*
X-02387Y-01417*
X-02381Y-01414*
X-02374Y-01411*
X-02369Y-01407*
X-02363Y-01403*
X-02358Y-01399*
X-02353Y-01394*
X-02348Y-01389*
X-02344Y-01383*
X-0234Y-01377*
X-02336Y-01371*
X-02333Y-01365*
X-02331Y-01359*
X-02328Y-01352*
X-02327Y-01345*
X-02325Y-01338*
X-02325Y-01331*
X-02325Y-01325*
Y-002D02*
D01*
X-02325Y-00193*
X-02325Y-00186*
X-02327Y-00179*
X-02328Y-00172*
X-02331Y-00165*
X-02333Y-00159*
X-02336Y-00153*
X-0234Y-00147*
X-02344Y-00141*
X-02348Y-00135*
X-02353Y-0013*
X-02358Y-00125*
X-02363Y-00121*
X-02369Y-00117*
X-02375Y-00113*
X-02381Y-0011*
X-02387Y-00107*
X-02394Y-00104*
X-024Y-00102*
X-02407Y-00101*
X-02414Y-001*
X-02421Y-001*
X-02428*
X-02435Y-001*
X-02442Y-00101*
X-02449Y-00102*
X-02455Y-00104*
X-02462Y-00107*
X-02468Y-0011*
X-02475Y-00113*
X-0248Y-00117*
X-02486Y-00121*
X-02491Y-00125*
X-02496Y-0013*
X-02501Y-00135*
X-02505Y-00141*
X-02509Y-00147*
X-02513Y-00153*
X-02516Y-00159*
X-02518Y-00165*
X-02521Y-00172*
X-02522Y-00179*
X-02524Y-00186*
X-02524Y-00193*
X-02525Y-002*
X-02938Y-0162D02*
X0037D01*
X-02935D02*
Y0011D01*
X-02325Y-01325D02*
Y-00205D01*
X-02525Y-01325D02*
Y-002D01*
X0037Y-0162D02*
Y00112D01*
Y-0162D03*
X-02935Y0011D02*
X0037Y00112D01*
G54D40*
X0Y-002D03*
Y-003D03*
Y-004D03*
Y-005D03*
Y-006D03*
Y-007D03*
Y-008D03*
Y-009D03*
Y-01D03*
X001Y-002D03*
Y-003D03*
Y-004D03*
Y-005D03*
Y-006D03*
Y-007D03*
Y-008D03*
Y-009D03*
Y-01D03*
X0Y-001D03*
X001Y0D03*
Y-001D03*
X0Y0D03*
X003Y-013D03*
X002D03*
X003Y-012D03*
X002D03*
X003Y-011D03*
X002D03*
X003Y-01D03*
X002D03*
X003Y-003D03*
X002D03*
X003Y-002D03*
X002D03*
X003Y-001D03*
X002D03*
X003Y0D03*
X002D03*
G54D41*
X-02849Y-00045D03*
Y-01463D03*
D03*
X00281D03*
G54D42*
X-021Y-01055D03*
X-02255Y-0105D03*
X-015Y-0134D03*
X-01325Y-0069D03*
Y-00595D03*
X-0164Y-005D03*
X-01452Y-0038D03*
X-01655Y-00225D03*
X-0165Y-002D03*
X-01542Y-00584D03*
X-0154Y-00505D03*
X-01535Y-001D03*
X-01825D03*
X-0181Y-00125D03*
X-01625D03*
X-0165Y-00145D03*
Y-0017D03*
Y-00545D03*
X-01545Y-0063D03*
X-0185Y-0026D03*
Y-0029D03*
Y-0032D03*
X-01825Y-00325D03*
X-01815Y-0035D03*
X-018Y-0037D03*
X-01795Y-004D03*
X-01785Y-00425D03*
X-01755D03*
X-01751Y-00451D03*
X-01325Y-00525D03*
X-01525Y-01025D03*
X-0275Y00025D03*
X-0265D03*
X-01525Y-0092D03*
X-01565Y-01125D03*
X-026Y-00175D03*
Y-00276D03*
Y-00376D03*
Y-01075D03*
Y-01175D03*
Y-01276D03*
Y-01376D03*
X-0285Y-00175D03*
Y-00276D03*
Y-00376D03*
Y-01075D03*
Y-01175D03*
Y-01276D03*
Y-01375D03*
X-0155Y00025D03*
X-0165D03*
X-0175D03*
X-0185D03*
X-0195D03*
X-0205D03*
X-0215D03*
X-0225D03*
X-0235D03*
X-0245D03*
X-0255D03*
X-00225D03*
X-00325D03*
X-00425D03*
X-00525D03*
X-00625D03*
X-00725D03*
X-00825D03*
X-00925D03*
X-01025D03*
X-01125D03*
X-01225D03*
X-01325D03*
X-01425D03*
X-0225Y-0155D03*
Y-0145D03*
Y-0135D03*
X-0285Y-00975D03*
Y-00875D03*
Y-00775D03*
Y-00675D03*
Y-00575D03*
Y-00475D03*
Y-00375D03*
Y-00275D03*
Y-00175D03*
X-0195Y-0145D03*
Y-0155D03*
X-018Y-0145D03*
Y-0155D03*
X-0135D03*
X-012D03*
X-0105D03*
X-009D03*
X-00725D03*
X-00125D03*
X-00575D03*
X-00425D03*
X-00275D03*
X00025D03*
X00175D03*
X-00775Y-01125D03*
X-0025D03*
X-00425D03*
X-006D03*
X-009Y-01025D03*
X-021Y-0155D03*
Y-0145D03*
Y-0135D03*
X-026Y-00975D03*
Y-00875D03*
Y-00775D03*
Y-00675D03*
Y-00575D03*
Y-00475D03*
Y-00375D03*
Y-00275D03*
Y-00175D03*
Y-00075D03*
X-015Y-0155D03*
Y-0145D03*
X-0165Y-0155D03*
Y-0145D03*
X-0112Y-008D03*
X-01265D03*
X-01525Y-007D03*
X-014Y-008D03*
Y-00885D03*
X-01525Y-008D03*
X-01635Y-0065D03*
X-0163Y-00607D03*
X-0175Y-00725D03*
X-01749Y-0065D03*
X-0175Y-00575D03*
X-01749Y-005D03*
X-0105Y-00495D03*
X-01017Y-00497D03*
X-00983Y-00517D03*
X-0095Y-00495D03*
X-00875Y-00515D03*
X-00842Y-00497D03*
X-00808Y-00517D03*
X-00775Y-00495D03*
X-0105Y-00285D03*
X-01017Y-00307D03*
X-00983Y-00332D03*
X-0095Y-00355D03*
X-01455Y-00115D03*
X-00073Y-0022D03*
X-0011Y-00223D03*
X-00875Y-0019D03*
X-0084Y-0021D03*
X-00808Y-00237D03*
X-00775Y-0026D03*
X-01653Y-00453D03*
X-01375Y-00535D03*
X-0165Y-00915D03*
G54D43*
X-014Y-01235D03*
X-01385Y-01285D03*
G54D44*
X-0225Y-0015D03*
X-022Y-00225D03*
G54D45*
X-01622Y-00875D03*
X-01678D03*
X-01303Y-011D03*
X-01247D03*
X-01375Y-00447D03*
Y-00502D03*
X-0145Y-00447D03*
Y-00502D03*
X-01375Y-00572D03*
Y-00627D03*
X-0145Y-00572D03*
Y-00627D03*
X-011Y-01278D03*
Y-01222D03*
Y-01372D03*
Y-01428D03*
X-01303Y-014D03*
X-01247D03*
X-01151Y-01102D03*
X-01096D03*
X-01678Y-008D03*
X-01622D03*
G54D46*
X-0095Y-00603D03*
X-0105D03*
X-00983D03*
X-0095Y-00548D03*
X-0105D03*
X-01017Y-00603D03*
X-00983Y-00548D03*
X-01017D03*
X-00775Y-00603D03*
X-00875D03*
X-00808D03*
X-00775Y-00548D03*
X-00875D03*
X-00842Y-00603D03*
X-00808Y-00548D03*
X-00842D03*
X-01678Y-01017D03*
Y-00983D03*
X-01622Y-01017D03*
X-01678Y-0105D03*
Y-0095D03*
X-01622Y-00983D03*
Y-0105D03*
Y-0095D03*
X-01678Y-01192D03*
Y-01158D03*
X-01622Y-01192D03*
X-01678Y-01225D03*
Y-01125D03*
X-01622Y-01158D03*
Y-01225D03*
Y-01125D03*
Y-013D03*
Y-014D03*
Y-01333D03*
X-01678Y-013D03*
Y-014D03*
X-01622Y-01367D03*
X-01678Y-01333D03*
Y-01367D03*
G54D47*
X-0141Y-00975D03*
G54D48*
X-0129Y-00975D03*
G54D49*
X-0159Y-00229D03*
Y-00252D03*
Y-00276D03*
Y-003D03*
Y-00323D03*
Y-00347D03*
Y-00371D03*
Y-00394D03*
Y-00418D03*
Y-00134D03*
Y-00111D03*
X-017Y-00241D03*
Y-00264D03*
Y-00288D03*
Y-00312D03*
Y-00335D03*
Y-00359D03*
Y-00382D03*
Y-00406D03*
Y-0043D03*
Y-00123D03*
X-0159Y-0063D03*
X-017Y-00548D03*
X-0159Y-00536D03*
X-017Y-00217D03*
X-0159Y-00205D03*
X-017Y-00193D03*
X-0159Y-00182D03*
X-017Y-0017D03*
X-0159Y-00158D03*
X-017Y-00146D03*
Y-00099D03*
Y-00453D03*
Y-00477D03*
Y-005D03*
Y-00524D03*
X-0159Y-00441D03*
Y-00465D03*
Y-00489D03*
Y-00512D03*
Y-0056D03*
X-017Y-00571D03*
X-0159Y-00583D03*
X-017Y-00595D03*
X-0159Y-00607D03*
X-017Y-00619D03*
Y-00642D03*
X-0159Y-00654D03*
X-017Y-00666D03*
X-0159Y-00678D03*
X-017Y-00689D03*
X-01332Y-01209D03*
Y-01235D03*
Y-01261D03*
Y-01286D03*
X-01221D03*
Y-01235D03*
Y-01261D03*
Y-01209D03*
G54D50*
X-02206Y-00059D03*
X-02253D03*
G54D51*
X-01688Y-00717D03*
Y-00071D03*
G54D52*
X-01475Y-01138D03*
G54D53*
X-01475Y-0123D03*
G54D54*
X-00975Y-01305D03*
Y-01195D03*
G54D55*
X-012Y-00685D03*
Y-00565D03*
M02*