M48
;Layer_Color=9474304
;FILE_FORMAT=2:3
INCH,LZ
;TYPE=PLATED
T1F00S00C0.008
T2F00S00C0.015
T3F00S00C0.025
T4F00S00C0.040
;TYPE=NON_PLATED
T5F00S00C0.126
%
T01
X-01825Y-001
X-0181Y-00125
X-0185Y-0026
Y-0029
Y-0032
X-01825Y-00325
X-01815Y-0035
X-026Y-00375
X-026Y-00376
X-026Y-00475
X-026Y-00575
Y-00675
X-026Y-00775
X-026Y-00875
Y-00975
X-026Y-01075
Y-01175
X-026Y-01276
Y-01376
X-0285Y-01375
X-0285Y-01276
X-0285Y-01175
Y-01075
X-0285Y-00975
Y-00875
X-0285Y-00775
X-0285Y-00675
Y-00575
X-0285Y-00475
X-0285Y-00376
X-0285Y-00375
X-0285Y-00276
X-0285Y-00275
Y-00175
X-0285Y-00175
X-026
X-026Y-00175
Y-00275
X-026Y-00276
X-026Y-00075
X-02255Y-0105
X-021Y-01055
X-021Y-0135
Y-0145
X-021Y-0155
X-0195
X-0195Y-0145
X-0225Y-0145
Y-0135
X-0225Y-0155
X-018
X-018Y-0145
X-0165Y-0145
Y-0155
X-015
Y-0145
X-015Y-0134
X-01565Y-01125
X-01525Y-01025
Y-0092
Y-008
Y-007
X-01545Y-0063
X-01542Y-00584
X-0154Y-00505
X-0164Y-005
X-0165Y-00545
X-0163Y-00607
X-01635Y-0065
X-01749
X-0175Y-00725
X-0175Y-00575
X-01749Y-005
X-01751Y-00451
X-01755Y-00425
X-01785
X-01795Y-004
X-018Y-0037
X-01653Y-00453
X-01655Y-00225
X-0165Y-002
X-0165Y-0017
X-0165Y-00145
X-01625Y-00125
X-01535Y-001
X-01455Y-00115
X-01452Y-0038
X-01375Y-00535
X-01325Y-00525
Y-00595
X-01325Y-0069
X-01265Y-008
X-014
Y-00885
X-0165Y-00915
X-0112Y-008
X-0105Y-00495
X-01017Y-00497
X-00983Y-00517
X-0095Y-00495
X-00875Y-00515
X-00842Y-00497
X-00808Y-00517
X-00775Y-00495
Y-0026
X-00808Y-00237
X-0084Y-0021
X-00875Y-0019
X-0095Y-00355
X-00983Y-00332
X-01017Y-00307
X-0105Y-00285
X-009Y-01025
X-00775Y-01125
X-006Y-01125
X-00425
X-0025
X-00275Y-0155
X-00425
X-00575
X-00725Y-0155
X-009
X-0105
X-012
X-0135
X-00125Y-0155
X00025
X00175Y-0155
X-00073Y-0022
X-0011Y-00223
X-00225Y00025
X-00325Y00025
X-00425
X-00525Y00025
X-00625
X-00725Y00025
X-00825Y00025
X-00925Y00025
X-01025Y00025
X-01125
X-01225
X-01325Y00025
X-01425Y00025
X-0155Y00025
X-0165Y00025
X-0175
X-0185Y00025
X-0195
X-0205Y00025
X-0215Y00025
X-0225Y00025
X-0235Y00025
X-0245
X-0255
X-0265Y00025
X-0275
T02
X-0225Y-0015
X-022Y-00225
T03
X-014Y-01235
X-01385Y-01285
T04
X0Y-001
Y-002
Y-003
Y-004
Y-005
Y-006
Y-007
Y-008
Y-009
Y-01
X001
Y-009
Y-008
Y-007
Y-006
Y-005
Y-004
Y-003
Y-002
Y-001
X002
Y-002
Y-003
X003
Y-002
Y-001
Y-01
Y-011
Y-012
Y-013
X002
Y-012
Y-011
Y-01
Y0
X001
X0
X003
T05
X-02849Y-01463
X00281
X-02849Y-00045
M30
