M48
;Layer_Color=9474304
;FILE_FORMAT=2:3
INCH,LZ
;TYPE=PLATED
T1F00S00C0.008
T2F00S00C0.028
T3F00S00C0.030
T4F00S00C0.038
T5F00S00C0.040
T6F00S00C0.047
T7F00S00C0.050
T8F00S00C0.051
T9F00S00C0.053
T10F00S00C0.055
T11F00S00C0.095
T12F00S00C0.100
;TYPE=NON_PLATED
T13F00S00C0.028
T14F00S00C0.039
T15F00S00C0.043
T16F00S00C0.047
T17F00S00C0.059
T18F00S00C0.087
T19F00S00C0.126
T20F00S00C0.138
%
T01
X3853Y5035
X38745
X3847Y509
X385Y5147
X39Y51555
X38975Y5125
X39275
X39475
X3965Y513
Y514
X39625Y515
X398
X39845Y5145
Y51325
X3995Y514
Y51475
X4005Y51325
X40075Y51175
X402Y512
Y51075
Y5095
X40055
X39925Y5092
X398Y50875
X3975Y50885
X39685Y5065
X39825Y5052
X398Y50412
X39525Y5052
X394Y5068
Y50875
X391Y5087
Y50675
X392Y5052
Y50412
X39925Y5071
X4018Y5065
X40275Y5075
X4035Y50625
X404Y5065
X4052Y5075
X4062
X4054Y50974
X4045Y50976
X40375Y51075
Y512
Y513
X40475
X40525Y5145
Y515
Y51075
X40275Y513
X40325Y5047
X40425Y5045
X40575Y50475
X394Y5143
X39479Y51533
X39225Y51525
X40675Y5155
X4085
Y51475
Y514
Y51325
Y51245
X40675
Y5135
X40725Y51075
X40636Y50962
X40625Y5065
X4085Y5038
X41425
X418Y50412
X417Y5065
X41545Y50725
X4147Y50825
X41225Y5083
X41275Y50725
X40982Y509
X4111Y5125
X411Y51325
X4111Y514
X411Y51475
Y5155
X414
Y51475
Y514
Y51325
Y5125
X41475Y5129
X41575Y512
X41675Y514
X41572Y51507
X4125Y51175
X417Y5091
X42075Y50925
Y5065
X42425
Y50945
X4248Y51525
X42495Y52525
X42205
X423Y52745
Y5285
X421Y528
Y527
X41925Y52705
X41765Y527
X4175Y5255
X41775Y5293
X41925
X421Y529
Y53
Y531
X414Y5305
X4125
X412Y5275
X4099Y528
X40975Y52875
X40899Y52876
X40775Y529
Y5305
X4086
X4099Y5295
X415Y529
Y5285
Y528
X413Y52435
X4115Y52475
X4125Y5225
X4104
X40715Y52275
X40825Y5239
X40885Y52
X4085Y51925
Y5185
X40885Y51775
X40675
X407Y51675
X40675Y516
X40625Y52025
X41125Y51925
X4132
X41525Y5193
Y5225
X41875Y5223
X4187Y52025
X41925
X41875Y51895
Y517
X4175Y5179
X41625Y51605
X4142Y516
X4132Y517
X41125Y51705
X40525Y517
Y5165
Y518
Y5185
Y519
X40425Y5185
X40325Y518
X40275Y5185
Y5175
X40396Y51725
X401Y517
Y51625
X3995
Y517
X39815Y5175
X39875Y51825
X398Y51875
X39625
X39577Y51765
X3965Y51725
Y5165
X39575Y51615
X3935Y51675
X39175Y517
Y51755
X39075Y51775
X3907Y52
X39245
X39275Y5185
X39225Y51575
X39175
X3949Y52
X39675Y52125
Y523
Y524
X3944Y52425
X3932
X39175
Y5255
X39215Y5275
X39475
X39675Y52675
X39775Y5278
X39882Y52675
Y525
Y52255
X40125Y52175
X40175Y52375
Y52475
X4025Y5245
X40325Y525
X4049
X405Y52425
X406Y524
X4055Y5235
X40545Y52325
X40575Y52275
X40502Y52225
X40385Y52222
Y52365
X40325Y52675
X4049
X40495Y52025
X40275
X40125Y51825
X3995Y5195
X3907Y5225
X39725Y52975
X397Y5305
X4005Y53075
X387Y5305
X38685Y52903
X38615Y52875
X38535Y529
X3845
X3839Y52925
X38395Y52725
X385Y52675
X382Y52725
X38193Y529
Y53025
X38825Y52825
X38975Y52665
X3905Y52375
X38875
Y5225
Y52175
Y52
X39Y51925
Y5175
X39025Y5165
X387Y5172
X38675Y51925
X38725Y52375
X38675Y532
X38575Y5315
Y533
Y53375
Y5345
Y53525
X3865Y53455
X38745Y5355
X3888Y5365
X38575Y537
X38225Y53655
Y5375
Y53875
Y53975
Y54075
Y54175
Y54275
Y54375
Y54525
Y54625
X38875Y54375
X38425Y53375
Y533
X38325
Y5315
X38193Y53175
Y5335
Y53525
X39225Y5362
Y5365
X392Y537
X39175Y53775
X392Y5395
X39225Y54
X39125Y5405
Y5415
X392Y5425
X39225Y54225
X39325Y54375
X3935Y5445
X39325Y545
X394Y5455
X39375Y546
X3945Y5465
X3965Y54625
X39775Y545
X39825Y54362
X398Y54303
X39875Y54283
X39875Y54249
X399Y54323
X40054Y54254
X40025Y54125
Y541
Y54075
Y5405
X3998Y54115
X4Y53925
X39925Y539
Y53875
X3995Y5385
X4Y538
X40025Y53775
X401Y538
X403Y53825
X40325
X4035
X403Y5385
Y53875
X40275
Y539
X4025
Y53925
X40475
X405
X40475Y53825
X40487Y53788
X405Y5375
X4045
Y537
X404Y54
X40418Y54025
X40517Y5405
X40577
X40615Y539
X40475Y54335
X4051Y54425
X40535Y54405
X4054Y5445
X4052Y5456
X4042Y54625
X4028Y54525
X40375Y544
X40345Y54295
X401Y54575
X39926Y54599
X3995Y5452
X39675Y5425
X39575Y54225
X39475Y54375
X3975Y5415
X39875Y53882
X39815Y5378
X39675Y53675
X3965Y536
X395Y537
X394Y53675
X39225Y53425
X4
X401Y5335
Y5315
X4
X40833Y53339
X409Y5335
X4095
X40975Y53375
X411Y5335
X41125Y53421
Y5351
X41048
X40833Y53507
X408Y53525
X407
X4065Y53523
X40715Y53815
X40835
X41025Y5382
X4108Y538
X41345Y53807
X41355Y53981
X41247Y54132
X4115Y541
X4112Y54175
X40885
X4065Y54125
X40717Y54
X407Y54303
Y54343
X40725Y54323
X408Y54579
X40825Y54598
X4085Y54559
X40775Y54638
X41152Y54618
X411Y54402
X419Y54475
X42123Y54213
Y54057
X42075Y54
X41975Y538
X41925Y53825
X4185Y53755
X41815Y5395
X4185Y535
X42057Y53525
X421Y535
Y534
Y533
Y532
X41982Y5313
X4216Y537
X414Y5335
X412
X423Y53245
Y53145
Y55022
X4183Y5505
X4185Y5475
X414Y54875
X41201Y54701
X41175Y547
X40725Y54725
Y54778
X40625Y54925
X40647Y55228
X40746Y55331
X4095Y5532
X4115Y55325
X41215Y553
X413
X41425Y55585
Y5582
X41475Y55875
X4144Y56025
X41565Y5605
Y561
X415Y5615
X4174Y561
X42
Y56
X4185Y5593
X419Y55575
X41975Y5523
X4115Y55605
Y5582
Y56025
X41025
X40975Y56175
X40695Y56025
X40825Y5585
X4071Y55615
X406Y55375
X40502Y55322
X4032Y5535
X402Y55325
X401Y5535
X4012Y555
X40125Y5519
X40167Y5505
X4028Y549
X4035Y5495
X40386Y54948
X40485Y54925
X40505Y54945
X4051Y54715
X40425Y54725
X4036Y54695
X40182Y54707
X39825Y5471
X39822Y54778
X39725Y54745
Y5488
X3954Y54925
X39499Y55026
X39591Y55132
X39675Y55225
X3977Y55175
X39875Y5525
X39925Y552
Y5535
X39775Y55575
X39725Y5565
X39712Y55793
X39625Y5574
X3965Y55925
X39775Y559
X399Y5585
Y558
X403
Y5585
Y559
Y5595
X40275Y5605
X40125
X39515Y56085
X3939Y561
X3935Y56
X39425Y5595
X39475Y55925
X39293Y55872
X3925Y559
X39205Y55775
X39265Y55643
Y55568
X39295Y55482
X39325Y55425
X39312Y55313
X39275Y553
X3935Y55325
X3949Y55375
X39625Y55425
X39675Y555
X3985Y55025
X3929Y55175
X39175Y55285
X39425Y547
X38225Y54725
Y54825
Y54925
Y55025
Y551
Y55225
Y5535
Y5545
Y5555
Y5565
Y5575
Y55875
Y56
Y56125
X38765Y56025
X3887
X38768Y558
X3885Y556
X3887Y5625
X38765
X38768Y5645
X3887
X388Y56955
X39025
X385Y5684
Y567
X384Y566
X38225Y56575
Y564
Y56275
Y569
X39125Y568
X393Y567
Y56575
Y56275
X39118Y56343
X39705Y564
X39975Y5635
X4005
X40125Y565
X4035Y56496
X40245Y563
X403Y5694
X401
X39925Y56945
X39725Y5695
X395
X39275Y5696
X39649Y56689
X405Y5689
X407
X409
X411
X413
X415
X4185Y56745
X41925Y5625
X41575
X415Y56325
X41295Y5625
X41225Y56375
X4105Y56408
X40903
T02
X39275Y5255
X39375Y525
X39495Y52495
X39575Y564
X39278
T03
X38713Y50564
X38787
X38487Y51128
X38467
X38447
X38427
X38407
X38325Y51285
Y51305
Y51325
Y51345
Y51365
X38569
Y51345
X38569Y51325
X38569Y51305
Y51285
X4075Y52625
X4085
X4095
X4105
X4115
X4125
X4135
X4145
X386Y52398
X3852
Y523
X386
T04
X3844Y54287
Y54396
Y54505
Y54614
X3855Y54668
Y54559
Y5445
Y54341
Y54232
X4225Y55582
Y55691
Y558
Y55909
Y56018
X4236Y55963
Y55854
Y55745
Y55636
X3855Y55582
Y55691
Y558
Y55909
Y56018
X3844Y55964
Y55855
Y55746
Y55637
T05
X384Y50725
X38675Y5075
X3885
X41824Y51313
X41924
Y51413
X41824
Y51513
X41924
X42375Y527
Y528
X42475
Y529
Y53
Y531
X42375
Y53
Y529
X42475Y527
X41924Y52613
Y52513
Y52413
Y52313
X41824
Y52413
Y52513
Y52613
X41475Y52075
X41175
X41824Y51613
X41924
X406Y52875
Y53025
X4045Y53
Y529
X403Y52875
Y53025
X39575Y529
X39425
Y53
X39275
X383
Y529
Y528
X39Y5315
X3895Y533
Y534
Y535
Y536
Y537
Y538
Y539
Y54
Y541
Y542
Y543
Y544
Y545
Y546
X3905
Y545
Y544
Y543
Y542
Y541
Y54
Y539
Y538
Y537
Y536
Y535
Y534
Y533
X38675Y5355
Y5365
X39375Y53275
Y53175
X39475
Y53275
X39575
Y53175
X39875
Y53275
X415Y53225
X4165Y533
X4175
Y534
Y535
Y536
Y537
Y538
X4165
Y539
X4175
Y54
Y541
Y542
Y543
Y544
Y545
Y546
X4165
Y545
Y544
Y543
Y542
Y541
Y54
Y537
Y536
Y535
Y534
X417Y5315
X42025Y532
Y533
X421Y54525
Y54625
X41125Y54025
X41025
X40925
X40925Y539
X41025
X41125
X42375Y54025
X42475
Y54125
Y54225
X42375
Y54325
Y54425
Y54525
Y54625
X42475
Y54525
Y54425
Y54325
X42375Y54125
Y536
X42475
Y535
Y534
Y533
Y532
X42375
Y533
Y534
Y535
X422Y54525
Y54625
Y54725
Y54825
Y54925
X42375
Y54825
Y54725
X42475
Y54825
Y54925
X421
Y54825
Y54725
X4175Y547
Y548
X4165
Y549
Y55
Y551
Y552
Y553
X4175
Y554
Y555
Y556
X4165
Y557
X4175
X417Y55875
X4165Y555
Y554
X4175Y552
Y551
Y55
Y549
X4165Y547
X42025Y55625
Y55725
X40925
X40825
X40725
X40375Y562
X40275
X40125
X40025
Y5525
X3905Y553
Y554
Y555
Y556
Y557
X3895
Y556
Y555
Y554
Y553
Y552
X3905
Y551
X3895
Y55
X3905
Y549
X3895
Y548
X3905
Y547
X3895
X39Y55875
X4Y56625
X401
X402
X403
X404
X405
X406
Y56725
X405
X404
X403
X402
X401
X4
X407
X408
X409
X41
X411
X412
X413
X414
X415
Y56625
X416
Y56725
X414Y56625
X413
X412
X411
X41
X409
X408
X407
X4165Y56375
X4175
X4185
T06
X42485Y52175
X42178
T07
X4205Y51425
Y51525
Y51625
X38495Y53912
Y53927
Y53942
Y53957
Y53972
Y53987
Y54002
X42305Y55262
Y55277
Y55292
Y55307
Y55322
Y55337
Y55352
Y56248
X38495
Y55352
Y55337
Y55322
Y55307
Y55292
Y55277
Y55262
Y54988
Y54973
Y54958
Y54943
Y54928
Y54913
Y54898
Y56263
Y56278
Y56293
Y56308
Y56323
Y56338
X388Y56675
X42305Y56338
Y56323
Y56308
Y56293
Y56278
Y56263
T08
X38677Y56552
X38923
X38923Y56798
X38677Y56798
T09
X4025Y5545
X4045
T10
X42217Y52332
X38473Y51898
X38277
Y51702
X38375Y51603
X38473Y51702
X38375Y518
T11
X38415Y52111
Y52591
T12
X42325Y51325
Y51725
T13
X41097Y50553
T14
X41203Y50447
T15
X41098Y5615
T16
X42355Y52096
Y52332
T17
X40103Y545
X40497
X40802Y56149
T18
X39375Y51275
X41125Y50475
T19
X38774Y5115
X38775Y5115
X41904Y5115
X41905Y5115
X38775Y52568
T20
X38375Y50425
X42425
X38375Y56775
X42425
M30
