%FSTAX23Y23*%
%MOIN*%
%SFA1B1*%

%IPPOS*%
%AMD164*
1,1,0.110000,0.000000,0.000000*
1,0,0.090000,0.000000,0.000000*
4,0,4,-0.038800,0.046000,-0.045900,0.038900,0.038900,-0.045900,0.046000,-0.038800,-0.038800,0.046000,0.0*
4,0,4,0.038900,0.046000,-0.045900,-0.038800,-0.038800,-0.045900,0.046000,0.038900,0.038900,0.046000,0.0*
%
%AMD165*
1,1,0.100000,0.000000,0.000000*
1,0,0.080000,0.000000,0.000000*
4,0,4,-0.035300,0.042500,-0.042400,0.035400,0.035400,-0.042400,0.042500,-0.035300,-0.035300,0.042500,0.0*
4,0,4,0.035400,0.042500,-0.042400,-0.035300,-0.035300,-0.042400,0.042500,0.035400,0.035400,0.042500,0.0*
%
%AMD166*
1,1,0.098000,0.000000,0.000000*
1,0,0.078000,0.000000,0.000000*
4,0,4,-0.034600,0.041800,-0.041700,0.034700,0.034700,-0.041700,0.041800,-0.034600,-0.034600,0.041800,0.0*
4,0,4,0.034700,0.041800,-0.041700,-0.034600,-0.034600,-0.041700,0.041800,0.034700,0.034700,0.041800,0.0*
%
%AMD171*
1,1,0.111000,0.000000,0.000000*
1,0,0.091000,0.000000,0.000000*
4,0,4,-0.039200,0.046400,-0.046300,0.039300,0.039300,-0.046300,0.046400,-0.039200,-0.039200,0.046400,0.0*
4,0,4,0.039300,0.046400,-0.046300,-0.039200,-0.039200,-0.046300,0.046400,0.039300,0.039300,0.046400,0.0*
%
%AMD172*
1,1,0.111000,0.000000,0.000000*
1,0,0.091000,0.000000,0.000000*
4,0,4,-0.039200,0.046400,-0.046300,0.039300,0.039300,-0.046300,0.046400,-0.039200,-0.039200,0.046400,0.0*
4,0,4,0.039300,0.046400,-0.046300,-0.039200,-0.039200,-0.046300,0.046400,0.039300,0.039300,0.046400,0.0*
%
%AMD173*
1,1,0.160000,0.000000,0.000000*
1,0,0.140000,0.000000,0.000000*
4,0,4,-0.056500,0.063700,-0.063600,0.056600,0.056600,-0.063600,0.063700,-0.056500,-0.056500,0.063700,0.0*
4,0,4,0.056600,0.063700,-0.063600,-0.056500,-0.056500,-0.063600,0.063700,0.056600,0.056600,0.063700,0.0*
%
%AMD175*
1,1,0.090000,0.000000,0.000000*
1,0,0.070000,0.000000,0.000000*
4,0,4,-0.031800,0.038900,-0.038800,0.031900,0.031900,-0.038800,0.038900,-0.031800,-0.031800,0.038900,0.0*
4,0,4,0.031900,0.038900,-0.038800,-0.031800,-0.031800,-0.038800,0.038900,0.031900,0.031900,0.038900,0.0*
%
%AMD177*
1,1,0.115000,0.000000,0.000000*
1,0,0.095000,0.000000,0.000000*
4,0,4,-0.040600,0.047800,-0.047700,0.040700,0.040700,-0.047700,0.047800,-0.040600,-0.040600,0.047800,0.0*
4,0,4,0.040700,0.047800,-0.047700,-0.040600,-0.040600,-0.047700,0.047800,0.040700,0.040700,0.047800,0.0*
%
%AMD185*
1,1,0.068000,0.000000,0.000000*
1,0,0.048000,0.000000,0.000000*
4,0,4,-0.024000,0.031200,-0.031100,0.024100,0.024100,-0.031100,0.031200,-0.024000,-0.024000,0.031200,0.0*
4,0,4,0.024100,0.031200,-0.031100,-0.024000,-0.024000,-0.031100,0.031200,0.024100,0.024100,0.031200,0.0*
%
%ADD21C,0.010000*%
%ADD56C,0.008000*%
%ADD57C,0.005000*%
%ADD66C,0.070000*%
%ADD68C,0.080000*%
%ADD90C,0.004000*%
%ADD133C,0.068000*%
%ADD139C,0.078000*%
%ADD161C,0.040000*%
%ADD162R,0.270000X0.300000*%
%ADD163R,0.125000X0.025000*%
%ADD164D164*%
%ADD165D165*%
%ADD166D166*%
%ADD167C,0.068000*%
%ADD168C,0.079000*%
%ADD169C,0.093000*%
%ADD170C,0.090000*%
%ADD171D171*%
%ADD172D172*%
%ADD173D173*%
%ADD174C,0.135000*%
%ADD175D175*%
%ADD176C,0.127000*%
%ADD177D177*%
%ADD178C,0.095000*%
%ADD179C,0.099000*%
%ADD180C,0.087000*%
%ADD181C,0.178000*%
%ADD182C,0.166000*%
%ADD183C,0.166000*%
%ADD184C,0.083000*%
%ADD185D185*%
%ADD186C,0.048000*%
%LNmb525b-1*%
%LPD*%
G54D21*
X42985Y5052D02*
Y5058D01*
X43005Y5056*
X43025Y5058*
Y5052*
X43045Y5058D02*
Y5052D01*
X43075*
X43085Y5053*
Y5054*
X43075Y5055*
X43045*
X43075*
X43085Y5056*
Y5057*
X43075Y5058*
X43045*
X43145D02*
X43105D01*
Y5055*
X43125Y5056*
X43135*
X43145Y5055*
Y5053*
X43135Y5052*
X43115*
X43105Y5053*
X43205Y5052D02*
X43165D01*
X43205Y5056*
Y5057*
X43195Y5058*
X43175*
X43165Y5057*
X43265Y5058D02*
X43225D01*
Y5055*
X43245Y5056*
X43255*
X43265Y5055*
Y5053*
X43255Y5052*
X43235*
X43225Y5053*
X43285Y5058D02*
Y5052D01*
X43315*
X43325Y5053*
Y5054*
X43315Y5055*
X43285*
X43315*
X43325Y5056*
Y5057*
X43315Y5058*
X43285*
G54D56*
X3952Y5104D02*
Y5099D01*
Y5104D02*
X39541D01*
X39549Y51038*
X39551Y51035*
X39553Y5103*
Y51026*
X39551Y51021*
X39549Y51019*
X39541Y51016*
X3952D02*
X39541D01*
X39549Y51014*
X39551Y51011*
X39553Y51007*
Y51*
X39551Y50995*
X39549Y50992*
X39541Y5099*
X3952*
X39522Y51138D02*
Y5114D01*
X39525Y51145*
X39527Y51148*
X39532Y5115*
X39541*
X39546Y51148*
X39549Y51145*
X39551Y5114*
Y51136*
X39549Y51131*
X39544Y51124*
X3952Y511*
X39553*
G54D57*
X4265Y502D02*
Y57D01*
X3815Y502D02*
X4265D01*
X3815Y57D02*
X4265D01*
X3815Y502D02*
Y57D01*
G54D66*
X386Y52398D03*
X3852D03*
X386Y523D03*
X38325Y51345D03*
Y51305D03*
Y51365D03*
Y51285D03*
Y51325D03*
X38467Y51128D03*
X38427D03*
X38487D03*
X38407D03*
X38447D03*
X38569Y51345D03*
Y51305D03*
Y51365D03*
Y51285D03*
Y51325D03*
X38713Y50564D03*
X38787D03*
X4105Y52625D03*
X4125D03*
X4085D03*
X4095D03*
X4115D03*
X4135D03*
G54D68*
X42475Y54025D03*
X42375Y54925D03*
X42475D03*
Y54225D03*
Y54325D03*
Y54425D03*
Y54525D03*
Y54625D03*
Y54725D03*
Y54825D03*
Y54125D03*
X42375Y528D03*
X42475Y536D03*
X42375Y534D03*
Y533D03*
Y536D03*
Y535D03*
Y532D03*
Y531D03*
Y53D03*
Y529D03*
Y527D03*
X415Y53225D03*
X40925Y55725D03*
X40725D03*
X40825D03*
X421Y54925D03*
X422D03*
Y54825D03*
Y54725D03*
Y54625D03*
Y54525D03*
X41475Y52075D03*
X41175D03*
X39375Y53175D03*
X39475D03*
Y53275D03*
X39375D03*
X39575Y53175D03*
Y53275D03*
X383Y529D03*
Y528D03*
X3905Y557D03*
X3895Y556D03*
X3905D03*
X3895Y555D03*
X3905D03*
X3895Y554D03*
X3905D03*
X3895Y553D03*
Y552D03*
X3905D03*
X3895Y551D03*
X3905D03*
X3895Y55D03*
X3905D03*
X3895Y549D03*
X3905D03*
Y548D03*
X3895Y547D03*
X3905D03*
X3895Y546D03*
X3905D03*
X3895Y545D03*
X3905D03*
X3895Y544D03*
Y543D03*
Y542D03*
X3905D03*
X3895Y541D03*
Y54D03*
Y539D03*
Y537D03*
Y536D03*
Y535D03*
Y534D03*
Y533D03*
X3905Y534D03*
Y544D03*
Y541D03*
Y54D03*
Y539D03*
Y538D03*
Y537D03*
Y536D03*
Y535D03*
X40025Y562D03*
X40125D03*
X4165Y556D03*
X4175Y557D03*
X42025Y55625D03*
Y55725D03*
X3885Y5075D03*
X38675D03*
X39275Y53D03*
X42025Y533D03*
Y532D03*
X40275Y562D03*
X40375D03*
X39425Y529D03*
X41025Y539D03*
X40925D03*
X38675Y5355D03*
X41025Y54025D03*
X40925D03*
X4165Y553D03*
Y552D03*
Y548D03*
Y546D03*
X4175D03*
X4045Y529D03*
X39575D03*
X4165Y539D03*
X4175Y538D03*
Y542D03*
Y539D03*
Y556D03*
X4165Y555D03*
X4175D03*
X4165Y554D03*
X4175D03*
Y552D03*
X4165Y551D03*
X4175D03*
Y545D03*
X4165D03*
X4175Y544D03*
X4165D03*
Y543D03*
Y542D03*
X4175Y541D03*
X4165Y533D03*
Y541D03*
X4175Y54D03*
X4165D03*
Y55D03*
X4175D03*
X4165Y549D03*
X4175D03*
Y548D03*
Y547D03*
X4165D03*
X4175Y535D03*
X4165Y534D03*
X4175D03*
Y536D03*
X4165Y535D03*
Y537D03*
X4175D03*
X4165Y536D03*
X4175Y56375D03*
X4185D03*
X406Y52875D03*
X403Y53025D03*
X39875Y53275D03*
Y53175D03*
X403Y52875D03*
X406Y53025D03*
X41924Y51413D03*
X41824D03*
X41924Y51613D03*
X41824D03*
X41924Y52313D03*
X41824D03*
Y52413D03*
X41924Y52513D03*
X41824D03*
X41924Y52613D03*
X41824D03*
X40025Y5525D03*
X415Y56725D03*
X414D03*
X413D03*
X412D03*
X411D03*
X41D03*
Y56625D03*
X409Y56725D03*
X408D03*
X407D03*
X406D03*
X405D03*
X404D03*
Y56625D03*
X403D03*
X402Y56725D03*
X401D03*
X4D03*
Y56625D03*
X416Y56725D03*
X403D03*
G54D90*
X3935Y51075D02*
Y5108D01*
X39475Y5095D02*
Y51075D01*
X396Y5095D02*
Y51075D01*
X39725Y5095D02*
Y51075D01*
X3985Y5095D02*
Y51075D01*
X3935Y5095D02*
X3985D01*
X3935D02*
Y51075D01*
Y512D02*
X3985D01*
Y51075D02*
Y512D01*
X3935Y51075D02*
X3985D01*
X3935D02*
Y512D01*
X39475Y5108D02*
Y512D01*
X396Y51075D02*
Y512D01*
X39725Y51075D02*
Y512D01*
X39225Y51075D02*
X3935D01*
X39225Y512D02*
X3935D01*
X39225Y5095D02*
X3935D01*
G54D133*
X39495Y52495D03*
X39375Y525D03*
X39275Y5255D03*
G54D139*
X4236Y55854D03*
X4225Y55909D03*
Y55582D03*
Y56018D03*
X4236Y55963D03*
Y55745D03*
X4225Y55691D03*
X3844Y55746D03*
Y55855D03*
X3855Y558D03*
Y55909D03*
X3844Y55964D03*
Y55637D03*
X3855Y56018D03*
Y55691D03*
Y54341D03*
Y54668D03*
X3844Y54287D03*
Y54614D03*
X3855Y54559D03*
Y5445D03*
X3844Y54505D03*
Y54396D03*
G54D161*
X38147Y50197D02*
Y57002D01*
X42653*
Y50197D02*
Y57002D01*
X38147Y50197D02*
X42653D01*
X38147D02*
X42653D01*
Y57002*
X38147D02*
X42653D01*
X38147Y50197D02*
Y57002D01*
G54D162*
X39735Y51075D03*
X3934D03*
G54D163*
X39537Y50938D03*
Y51213D03*
G54D164*
X38495Y56293D03*
Y56263D03*
Y56338D03*
Y56293D03*
Y56278D03*
Y56248D03*
Y56323D03*
Y56308D03*
Y55307D03*
Y55277D03*
Y55352D03*
Y55307D03*
Y55292D03*
Y55262D03*
Y55337D03*
Y55322D03*
Y53972D03*
Y53987D03*
Y53912D03*
Y53942D03*
Y53957D03*
Y54002D03*
Y53927D03*
Y53957D03*
Y54958D03*
Y54973D03*
Y54898D03*
Y54928D03*
Y54943D03*
Y54988D03*
Y54913D03*
Y54943D03*
X42305Y55307D03*
Y55337D03*
Y55262D03*
Y55307D03*
Y55322D03*
Y55352D03*
Y55277D03*
Y55292D03*
Y56293D03*
Y56323D03*
Y56248D03*
Y56293D03*
Y56308D03*
Y56338D03*
Y56263D03*
Y56278D03*
X4205Y51625D03*
G54D165*
X42375Y54025D03*
Y54225D03*
Y54325D03*
Y54425D03*
Y54525D03*
Y54825D03*
Y54625D03*
Y54725D03*
Y54125D03*
X42475Y528D03*
Y535D03*
Y534D03*
Y533D03*
Y532D03*
Y531D03*
Y53D03*
Y529D03*
Y527D03*
X421Y54825D03*
Y54725D03*
Y54525D03*
Y54625D03*
X383Y53D03*
X3895Y538D03*
X3905Y553D03*
X3895Y548D03*
X3905Y543D03*
X3895Y557D03*
X3905Y533D03*
X39Y5315D03*
X39425Y53D03*
X384Y50725D03*
X41125Y539D03*
X38675Y5365D03*
X41125Y54025D03*
X4165Y538D03*
X4175Y553D03*
Y543D03*
X4165Y557D03*
X4175Y533D03*
X4045Y53D03*
X4165Y56375D03*
X417Y5315D03*
Y55875D03*
X41924Y51313D03*
X41824D03*
X41924Y51513D03*
X41824D03*
X41924Y52413D03*
X39Y55875D03*
X416Y56625D03*
X415D03*
X414D03*
X413D03*
X412D03*
X411D03*
X409D03*
X408D03*
X407D03*
X406D03*
X405D03*
X402D03*
X401D03*
G54D166*
X4225Y558D03*
X4236Y55636D03*
X3855Y55582D03*
Y54232D03*
G54D167*
X39575Y564D03*
X39278D03*
X41097Y50553D03*
G54D168*
X41203Y50447D03*
G54D169*
X4045Y5545D03*
X4025D03*
G54D170*
X388Y56675D03*
X4205Y51425D03*
Y51525D03*
G54D171*
X38923Y56552D03*
X38677D03*
Y56798D03*
G54D172*
X38923Y56798D03*
G54D173*
X42325Y51325D03*
Y51725D03*
G54D174*
X38415Y52591D03*
Y52111D03*
G54D175*
X3852Y523D03*
X4075Y52625D03*
X4145D03*
G54D176*
X39375Y51275D03*
X41125Y50475D03*
G54D177*
X38375Y51603D03*
X38277Y51898D03*
X38375Y518D03*
G54D178*
X38277Y51702D03*
X38473D03*
Y51898D03*
X42217Y52332D03*
G54D179*
X40103Y545D03*
X40497D03*
X40802Y56149D03*
G54D180*
X42178Y52175D03*
X42485D03*
X42355Y52096D03*
Y52332D03*
G54D181*
X38375Y56775D03*
X42425D03*
Y50425D03*
X38375D03*
G54D182*
X38775Y52568D03*
Y5115D03*
G54D183*
X38775Y5115D03*
X41905D03*
X38774D03*
X41904D03*
G54D184*
X41098Y5615D03*
G54D185*
X4045Y50976D03*
X4054Y50974D03*
X40636Y50962D03*
X393Y567D03*
X39515Y56085D03*
X4185Y5593D03*
X3865Y53455D03*
X38745Y5355D03*
X4185Y56745D03*
X419Y55575D03*
X4174Y561D03*
X4115Y55605D03*
Y55325D03*
X41425Y55585D03*
Y5582D03*
X4144Y56025D03*
X4115Y5582D03*
Y56025D03*
X41025D03*
X40825Y5585D03*
X40695Y56025D03*
X4071Y55615D03*
X4012Y555D03*
X4032Y5535D03*
X4095Y5532D03*
X41355Y53981D03*
X3853Y5035D03*
X38745D03*
X39725Y5488D03*
Y54745D03*
X3954Y54925D03*
X3929Y55175D03*
X3949Y55375D03*
X3885Y556D03*
X3998Y54115D03*
X39875Y54283D03*
X38875Y54375D03*
X3887Y5645D03*
Y5625D03*
Y56025D03*
X39205Y55775D03*
X39293Y55872D03*
X39712Y55793D03*
X39625Y5574D03*
X39175Y55285D03*
X388Y56955D03*
X39025D03*
X39275Y5696D03*
X395Y5695D03*
X39725D03*
X39925Y56945D03*
X401Y5694D03*
X403D03*
X415Y5689D03*
X413D03*
X411D03*
X409D03*
X407D03*
X405D03*
X4105Y56408D03*
X40903D03*
X41975Y5523D03*
X41815Y5395D03*
X4185Y5475D03*
X423Y55022D03*
X4183Y5505D03*
X42075Y54D03*
X4216Y537D03*
X41982Y5313D03*
X42205Y52525D03*
X42495D03*
X4248Y51525D03*
X42075Y50925D03*
X42425Y50945D03*
X417Y5091D03*
X385Y5147D03*
X40425Y5185D03*
X40396Y51725D03*
X40325Y525D03*
X4049D03*
Y52675D03*
X40325D03*
X3907Y52D03*
Y5225D03*
X3847Y509D03*
X4085Y5038D03*
X41425D03*
X39525Y5052D03*
X39825D03*
X392D03*
X39275Y5125D03*
X39475D03*
X394Y5143D03*
X38975Y5125D03*
X39Y51555D03*
X39815Y5175D03*
X39845Y5145D03*
Y51325D03*
X39479Y51533D03*
X391Y50675D03*
Y5087D03*
X394Y50875D03*
Y5068D03*
X3975Y50885D03*
X38875Y52D03*
X387Y5172D03*
X39Y5175D03*
X39175Y51755D03*
X3949Y52D03*
X39245D03*
X3944Y52425D03*
X3932D03*
X39175D03*
Y5255D03*
X39215Y5275D03*
X39882Y52255D03*
Y525D03*
Y52675D03*
X39775Y5278D03*
X40125Y52175D03*
X40675Y51775D03*
X40885Y52D03*
X40715Y52275D03*
X406Y524D03*
X40385Y52365D03*
Y52222D03*
X40495Y52025D03*
X40275D03*
X40375Y512D03*
X402Y51075D03*
X40375D03*
X40525D03*
X40725D03*
X4085Y51245D03*
X40675D03*
X402Y5095D03*
X40625Y5065D03*
X40325Y5047D03*
X404Y5065D03*
X39925Y5071D03*
X4018Y5065D03*
X39685D03*
X39925Y5092D03*
X40055Y5095D03*
X42425Y5065D03*
X42075D03*
X417D03*
X41275Y50725D03*
X4147Y50825D03*
X41225Y5083D03*
X40982Y509D03*
X41545Y50725D03*
X41475Y5129D03*
X4132Y517D03*
X41125Y51705D03*
Y51925D03*
X4132D03*
X41525Y5193D03*
X4104Y5225D03*
X4125D03*
X41525D03*
X40825Y5239D03*
X4142Y516D03*
X41875Y517D03*
X41625Y51605D03*
X4175Y5179D03*
X41875Y51895D03*
X4187Y52025D03*
X41875Y5223D03*
X40833Y53507D03*
Y53339D03*
X423Y52745D03*
Y5285D03*
X41925Y52705D03*
Y5293D03*
X41775D03*
X41765Y527D03*
X423Y53145D03*
Y53245D03*
X42057Y53525D03*
X4185Y535D03*
Y53755D03*
X41345Y53807D03*
X41048Y5351D03*
X41125D03*
Y53421D03*
X40615Y539D03*
X40715Y53815D03*
X40835D03*
X41025Y5382D03*
X40885Y54175D03*
X4112D03*
X41247Y54132D03*
X4065Y54125D03*
X40717Y54D03*
X4028Y54525D03*
X4052Y5456D03*
X40054Y54254D03*
X401Y54575D03*
X38975Y52665D03*
X38685Y52903D03*
X3839Y52925D03*
X38395Y52725D03*
X382D03*
X38193Y529D03*
Y53025D03*
Y53175D03*
Y5335D03*
Y53525D03*
X38225Y53655D03*
Y5375D03*
Y53875D03*
Y53975D03*
Y54075D03*
Y54175D03*
Y54275D03*
Y54375D03*
Y54525D03*
Y54625D03*
Y54725D03*
Y54825D03*
Y54925D03*
Y55025D03*
Y551D03*
Y55225D03*
Y5535D03*
Y5545D03*
Y5555D03*
Y5565D03*
Y5575D03*
Y55875D03*
Y56D03*
Y56125D03*
Y56275D03*
Y564D03*
Y56575D03*
Y569D03*
X3888Y5365D03*
X385Y5684D03*
X384Y566D03*
X385Y567D03*
X38768Y5645D03*
X38765Y5625D03*
Y56025D03*
X38768Y558D03*
X39822Y54778D03*
X40182Y54707D03*
X4042Y54625D03*
X4051Y54715D03*
X4036Y54695D03*
X40345Y54295D03*
X40475Y54335D03*
X39591Y55132D03*
X3977Y55175D03*
X40275Y5605D03*
X399Y558D03*
X39705Y564D03*
X39118Y56343D03*
X393Y56575D03*
X39649Y56689D03*
X39125Y568D03*
X38825Y52825D03*
X41295Y5625D03*
X4005Y5635D03*
X39975D03*
X40647Y55228D03*
X406Y55375D03*
X40517Y5405D03*
X39225Y5362D03*
X4115Y52475D03*
X411Y5155D03*
X402Y512D03*
X398Y51875D03*
X40502Y55322D03*
X402Y55325D03*
X39275Y5185D03*
X38575Y533D03*
X3975Y5415D03*
X39575Y54225D03*
X39875Y5525D03*
X411Y51475D03*
X4111Y514D03*
X411Y51325D03*
X4111Y5125D03*
X3995Y51625D03*
X40075Y51175D03*
X4125Y5305D03*
X415Y528D03*
Y5285D03*
Y529D03*
X412Y5275D03*
X41575Y512D03*
X4125Y51175D03*
X421Y527D03*
Y528D03*
Y53D03*
Y532D03*
X392Y50412D03*
X40425Y5045D03*
X40575Y50475D03*
X4052Y5075D03*
X4062D03*
X418Y50412D03*
X3965Y5165D03*
X39175Y51575D03*
X39225Y51525D03*
X3935Y51675D03*
X39625Y51875D03*
X3965Y514D03*
X3995Y51475D03*
Y517D03*
X39875Y51825D03*
X40275Y5185D03*
Y5175D03*
X40885Y51775D03*
X4085Y5155D03*
Y51475D03*
Y51325D03*
X38875Y52175D03*
Y5225D03*
Y52375D03*
X38535Y529D03*
X4025Y5245D03*
X40175Y52375D03*
Y52475D03*
X40386Y54948D03*
X40725Y54725D03*
X393Y56275D03*
X39925Y5535D03*
Y552D03*
X40125Y5519D03*
X40167Y5505D03*
X39265Y55643D03*
Y55568D03*
X39295Y55482D03*
X39325Y55425D03*
X42Y561D03*
X41565D03*
X41575Y5625D03*
X40545Y52325D03*
X40625Y52025D03*
X40675Y516D03*
X38325Y533D03*
X38575Y5315D03*
X38675Y532D03*
X38575Y53375D03*
X395Y537D03*
X39225Y53425D03*
Y54D03*
Y54225D03*
X39325Y54375D03*
X3965Y536D03*
X387Y5305D03*
X39675Y52675D03*
Y52125D03*
X39475Y5275D03*
X397Y5305D03*
X39Y51925D03*
X40125Y565D03*
X40746Y55331D03*
X4035Y56496D03*
X40245Y563D03*
G54D186*
X3985Y55025D03*
X39815Y5378D03*
X3965Y54625D03*
X39875Y54249D03*
X39825Y54362D03*
X39875Y53882D03*
X407Y54343D03*
X40025Y53775D03*
X4Y538D03*
X3995Y5385D03*
X4Y53925D03*
X39925Y53875D03*
Y539D03*
X4065Y53523D03*
X4115Y541D03*
X4108Y538D03*
X40487Y53788D03*
X4045Y5375D03*
X4035Y53825D03*
X405Y53925D03*
X401Y538D03*
X39825Y5471D03*
X39499Y55026D03*
X39275Y553D03*
X39312Y55313D03*
X3935Y55325D03*
X403Y5595D03*
Y559D03*
Y5585D03*
Y558D03*
X40125Y5605D03*
X399Y5585D03*
X3965Y55925D03*
X39775Y559D03*
X40485Y54925D03*
X38575Y537D03*
X3965Y51725D03*
X38425Y53375D03*
X40899Y52876D03*
X413Y52435D03*
X40505Y54945D03*
X415Y56325D03*
X385Y52675D03*
X411Y54402D03*
X40975Y56175D03*
X401Y5535D03*
X41475Y55875D03*
X415Y5615D03*
X408Y53525D03*
X4085Y54559D03*
X40825Y54598D03*
X407Y53525D03*
X408Y54579D03*
X4045Y537D03*
X405Y5375D03*
X40475Y53825D03*
X40775Y54638D03*
X40325Y53825D03*
X41175Y547D03*
X41201Y54701D03*
X414Y54875D03*
X41152Y54618D03*
X403Y53825D03*
Y5385D03*
X40475Y53925D03*
X403Y53875D03*
X40275D03*
Y539D03*
X404Y54D03*
X4025Y539D03*
X40418Y54025D03*
X4025Y53925D03*
X40535Y54405D03*
X4051Y54425D03*
X4054Y5445D03*
X40025Y54125D03*
Y541D03*
Y54075D03*
X40375Y544D03*
X40025Y5405D03*
X39926Y54599D03*
X3995Y5452D03*
X40577Y5405D03*
X40325Y518D03*
X407Y54303D03*
X40725Y54323D03*
X4175Y5255D03*
X4Y53425D03*
X399Y54323D03*
X4005Y53075D03*
X398Y54303D03*
X39775Y545D03*
X39175Y53775D03*
X39225Y5365D03*
X394Y53675D03*
X392Y537D03*
Y5425D03*
X39125Y5415D03*
X40975Y53375D03*
X411Y5335D03*
X40425Y54725D03*
X4095Y5335D03*
X40275Y5075D03*
X4035Y50625D03*
X398Y50875D03*
X401Y5335D03*
X409D03*
X412D03*
X414D03*
X419Y54475D03*
X41925Y53825D03*
X41975Y538D03*
X41925Y52025D03*
X39725Y52975D03*
X39675Y55225D03*
X39725Y5565D03*
X39675Y555D03*
X39775Y55575D03*
X40525Y518D03*
Y5185D03*
Y519D03*
X405Y52425D03*
X401Y5315D03*
X40525Y517D03*
X4Y5315D03*
X40525Y5165D03*
Y515D03*
Y5145D03*
X39175Y517D03*
X39025Y5165D03*
X40675Y5135D03*
X4028Y549D03*
X39125Y5405D03*
X392Y5395D03*
X41225Y56375D03*
X39325Y545D03*
X3935Y5445D03*
X39375Y546D03*
X394Y5455D03*
X39425Y547D03*
X3945Y5465D03*
X39475Y54375D03*
X39625Y55425D03*
X414Y5125D03*
Y51325D03*
Y514D03*
Y51475D03*
Y5155D03*
X40475Y513D03*
X40375D03*
X40275D03*
X40975Y52875D03*
X4099Y5295D03*
X40775Y529D03*
Y5305D03*
X4086D03*
X4099Y528D03*
X414Y5305D03*
X41675Y514D03*
X41572Y51507D03*
X421Y529D03*
Y531D03*
Y533D03*
Y534D03*
Y535D03*
X398Y50412D03*
X4005Y51325D03*
X398Y515D03*
X39075Y51775D03*
X39225Y51575D03*
X39625Y515D03*
X39577Y51765D03*
X39575Y51615D03*
X3965Y513D03*
X3995Y514D03*
X40125Y51825D03*
X401Y517D03*
Y51625D03*
X4085Y514D03*
X3995Y5195D03*
X38725Y52375D03*
X3905D03*
X3845Y529D03*
X38615Y52875D03*
X4035Y5495D03*
X40725Y54778D03*
X413Y553D03*
X41215D03*
X42Y56D03*
X41565Y5605D03*
X41925Y5625D03*
X4055Y5235D03*
X40575Y52275D03*
X40502Y52225D03*
X4085Y51925D03*
Y5185D03*
X407Y51675D03*
X40675Y5155D03*
X38425Y533D03*
X38325Y5315D03*
X38575Y5345D03*
Y53525D03*
X39675Y5425D03*
Y53675D03*
Y524D03*
Y523D03*
X38675Y51925D03*
X42123Y54057D03*
Y54213D03*
X39475Y55925D03*
X39425Y5595D03*
X3935Y56D03*
X3925Y559D03*
X3939Y561D03*
X40625Y54925D03*
M02*