%FSTAX23Y23*%
%MOIN*%
%SFA1B1*%

%IPPOS*%
%ADD11C,0.010000*%
%ADD17C,0.005000*%
%ADD18C,0.006000*%
%ADD37C,0.001000*%
%LNmb542b-1*%
%LPD*%
G54D11*
X0075Y-01584D02*
Y-01524D01*
X0077Y-01544*
X0079Y-01524*
Y-01584*
X0081Y-01524D02*
Y-01584D01*
X0084*
X0085Y-01574*
Y-01564*
X0084Y-01554*
X0081*
X0084*
X0085Y-01544*
Y-01534*
X0084Y-01524*
X0081*
X0091D02*
X0087D01*
Y-01554*
X0089Y-01544*
X009*
X0091Y-01554*
Y-01574*
X009Y-01584*
X0088*
X0087Y-01574*
X0096Y-01584D02*
Y-01524D01*
X0093Y-01554*
X0097*
X0103Y-01584D02*
X0099D01*
X0103Y-01544*
Y-01534*
X0102Y-01524*
X01*
X0099Y-01534*
X0105Y-01524D02*
Y-01584D01*
X0108*
X0109Y-01574*
Y-01564*
X0108Y-01554*
X0105*
X0108*
X0109Y-01544*
Y-01534*
X0108Y-01524*
X0105*
X011Y-0054D02*
X0112D01*
X0111*
Y-0048*
X011Y-0049*
X0119Y-0048D02*
X0115D01*
Y-0051*
X0117Y-005*
X0118*
X0119Y-0051*
Y-0053*
X0118Y-0054*
X0116*
X0115Y-0053*
X0125Y-0048D02*
X0123Y-0049D01*
X0121Y-0051*
Y-0053*
X0122Y-0054*
X0124*
X0125Y-0053*
Y-0052*
X0124Y-0051*
X0121*
X0159Y-0049D02*
X016Y-0048D01*
X0162*
X0163Y-0049*
Y-005*
X0162Y-0051*
X0163Y-0052*
Y-0053*
X0162Y-0054*
X016*
X0159Y-0053*
Y-0052*
X016Y-0051*
X0159Y-005*
Y-0049*
X016Y-0051D02*
X0162D01*
X0165Y-0054D02*
Y-005D01*
X0166*
X0167Y-0051*
Y-0054*
Y-0051*
X0168Y-005*
X0169Y-0051*
Y-0054*
X0171D02*
X0173D01*
X0172*
Y-005*
X0171*
X0176Y-0054D02*
X0178D01*
X0177*
Y-0048*
X0176*
X0229Y-0049D02*
X023Y-0048D01*
X0232*
X0233Y-0049*
Y-0053*
X0232Y-0054*
X023*
X0229Y-0053*
Y-0049*
X0235Y-0054D02*
Y-0053D01*
X0236*
Y-0054*
X0235*
X0244D02*
X024D01*
X0244Y-005*
Y-0049*
X0243Y-0048*
X0241*
X024Y-0049*
X0246D02*
X0247Y-0048D01*
X0249*
X025Y-0049*
Y-0053*
X0249Y-0054*
X0247*
X0246Y-0053*
Y-0049*
X0252D02*
X0253Y-0048D01*
X0255*
X0256Y-0049*
Y-005*
X0255Y-0051*
X0254*
X0255*
X0256Y-0052*
Y-0053*
X0255Y-0054*
X0253*
X0252Y-0053*
X0262Y-0054D02*
X0258D01*
X0262Y-005*
Y-0049*
X0261Y-0048*
X0259*
X0258Y-0049*
X0264Y-0054D02*
Y-005D01*
X0265*
X0266Y-0051*
Y-0054*
Y-0051*
X0267Y-005*
X0268Y-0051*
Y-0054*
X027D02*
Y-005D01*
X0271*
X0272Y-0051*
Y-0054*
Y-0051*
X0273Y-005*
X0274Y-0051*
Y-0054*
X0299D02*
Y-0048D01*
X0302*
X0303Y-0049*
Y-0051*
X0302Y-0052*
X0299*
X0305Y-0048D02*
X0309D01*
X0307*
Y-0054*
X0311Y-0048D02*
Y-0054D01*
Y-0051*
X0315*
Y-0048*
Y-0054*
X0114Y-0066D02*
X011D01*
X0114Y-0062*
Y-0061*
X0113Y-006*
X0111*
X011Y-0061*
X0159Y-0066D02*
X0161D01*
X016*
Y-006*
X0159Y-0061*
X0168Y-006D02*
X0164D01*
Y-0063*
X0166Y-0062*
X0167*
X0168Y-0063*
Y-0065*
X0167Y-0066*
X0165*
X0164Y-0065*
X017Y-0066D02*
Y-0062D01*
X0171*
X0172Y-0063*
Y-0066*
Y-0063*
X0173Y-0062*
X0174Y-0063*
Y-0066*
X0176D02*
X0178D01*
X0177*
Y-0062*
X0176*
X0181Y-0066D02*
X0183D01*
X0182*
Y-006*
X0181*
X0229Y-0061D02*
X023Y-006D01*
X0232*
X0233Y-0061*
Y-0065*
X0232Y-0066*
X023*
X0229Y-0065*
Y-0061*
X0235Y-0066D02*
Y-0065D01*
X0236*
Y-0066*
X0235*
X024Y-0061D02*
X0241Y-006D01*
X0243*
X0244Y-0061*
Y-0062*
X0243Y-0063*
X0242*
X0243*
X0244Y-0064*
Y-0065*
X0243Y-0066*
X0241*
X024Y-0065*
X0246Y-0061D02*
X0247Y-006D01*
X0249*
X025Y-0061*
Y-0062*
X0249Y-0063*
X025Y-0064*
Y-0065*
X0249Y-0066*
X0247*
X0246Y-0065*
Y-0064*
X0247Y-0063*
X0246Y-0062*
Y-0061*
X0247Y-0063D02*
X0249D01*
X0252Y-0066D02*
X0254D01*
X0253*
Y-006*
X0252Y-0061*
X0257Y-0066D02*
Y-0062D01*
X0258*
X0259Y-0063*
Y-0066*
Y-0063*
X026Y-0062*
X0261Y-0063*
Y-0066*
X0263D02*
Y-0062D01*
X0264*
X0265Y-0063*
Y-0066*
Y-0063*
X0266Y-0062*
X0267Y-0063*
Y-0066*
X0299D02*
Y-006D01*
X0302*
X0303Y-0061*
Y-0063*
X0302Y-0064*
X0299*
X0305Y-006D02*
X0309D01*
X0307*
Y-0066*
X0311Y-006D02*
Y-0066D01*
Y-0063*
X0315*
Y-006*
Y-0066*
X0114Y-0078D02*
X011D01*
X0114Y-0074*
Y-0073*
X0113Y-0072*
X0111*
X011Y-0073*
X0163Y-0078D02*
X0159D01*
X0163Y-0074*
Y-0073*
X0162Y-0072*
X016*
X0159Y-0073*
X0169Y-0072D02*
X0165D01*
Y-0075*
X0167Y-0074*
X0168*
X0169Y-0075*
Y-0077*
X0168Y-0078*
X0166*
X0165Y-0077*
X0171Y-0078D02*
Y-0074D01*
X0172*
X0173Y-0075*
Y-0078*
Y-0075*
X0174Y-0074*
X0175Y-0075*
Y-0078*
X0177D02*
X0179D01*
X0178*
Y-0074*
X0177*
X0182Y-0078D02*
X0184D01*
X0183*
Y-0072*
X0182*
X0229Y-0073D02*
X023Y-0072D01*
X0232*
X0233Y-0073*
Y-0077*
X0232Y-0078*
X023*
X0229Y-0077*
Y-0073*
X0235Y-0078D02*
Y-0077D01*
X0236*
Y-0078*
X0235*
X0244Y-0072D02*
X0242Y-0073D01*
X024Y-0075*
Y-0077*
X0241Y-0078*
X0243*
X0244Y-0077*
Y-0076*
X0243Y-0075*
X024*
X0246Y-0073D02*
X0247Y-0072D01*
X0249*
X025Y-0073*
Y-0074*
X0249Y-0075*
X0248*
X0249*
X025Y-0076*
Y-0077*
X0249Y-0078*
X0247*
X0246Y-0077*
X0256Y-0072D02*
X0252D01*
Y-0075*
X0254Y-0074*
X0255*
X0256Y-0075*
Y-0077*
X0255Y-0078*
X0253*
X0252Y-0077*
X0258Y-0078D02*
Y-0074D01*
X0259*
X026Y-0075*
Y-0078*
Y-0075*
X0261Y-0074*
X0262Y-0075*
Y-0078*
X0264D02*
Y-0074D01*
X0265*
X0266Y-0075*
Y-0078*
Y-0075*
X0267Y-0074*
X0268Y-0075*
Y-0078*
X0299D02*
Y-0072D01*
X0302*
X0303Y-0073*
Y-0075*
X0302Y-0076*
X0299*
X0305Y-0072D02*
X0309D01*
X0307*
Y-0078*
X0311Y-0072D02*
Y-0078D01*
Y-0075*
X0315*
Y-0072*
Y-0078*
X011Y-0085D02*
X0111Y-0084D01*
X0113*
X0114Y-0085*
Y-0086*
X0113Y-0087*
X0112*
X0113*
X0114Y-0088*
Y-0089*
X0113Y-009*
X0111*
X011Y-0089*
X0116Y-0085D02*
X0117Y-0084D01*
X0119*
X012Y-0085*
Y-0086*
X0119Y-0087*
X012Y-0088*
Y-0089*
X0119Y-009*
X0117*
X0116Y-0089*
Y-0088*
X0117Y-0087*
X0116Y-0086*
Y-0085*
X0117Y-0087D02*
X0119D01*
X0162Y-009D02*
Y-0084D01*
X0159Y-0087*
X0163*
X0165Y-0085D02*
X0166Y-0084D01*
X0168*
X0169Y-0085*
Y-0089*
X0168Y-009*
X0166*
X0165Y-0089*
Y-0085*
X0171Y-009D02*
Y-0086D01*
X0172*
X0173Y-0087*
Y-009*
Y-0087*
X0174Y-0086*
X0175Y-0087*
Y-009*
X0177D02*
X0179D01*
X0178*
Y-0086*
X0177*
X0182Y-009D02*
X0184D01*
X0183*
Y-0084*
X0182*
X0229Y-009D02*
X0231D01*
X023*
Y-0084*
X0229Y-0085*
X0234Y-009D02*
Y-0089D01*
X0235*
Y-009*
X0234*
X0239Y-0085D02*
X024Y-0084D01*
X0242*
X0243Y-0085*
Y-0089*
X0242Y-009*
X024*
X0239Y-0089*
Y-0085*
X0245Y-009D02*
X0247D01*
X0246*
Y-0084*
X0245Y-0085*
X0254Y-0084D02*
X0252Y-0085D01*
X025Y-0087*
Y-0089*
X0251Y-009*
X0253*
X0254Y-0089*
Y-0088*
X0253Y-0087*
X025*
X0256Y-009D02*
Y-0086D01*
X0257*
X0258Y-0087*
Y-009*
Y-0087*
X0259Y-0086*
X026Y-0087*
Y-009*
X0262D02*
Y-0086D01*
X0263*
X0264Y-0087*
Y-009*
Y-0087*
X0265Y-0086*
X0266Y-0087*
Y-009*
X0299D02*
Y-0084D01*
X0302*
X0303Y-0085*
Y-0087*
X0302Y-0088*
X0299*
X0305Y-0084D02*
X0309D01*
X0307*
Y-009*
X0311Y-0084D02*
Y-009D01*
Y-0087*
X0315*
Y-0084*
Y-009*
X0113Y-0102D02*
Y-0096D01*
X011Y-0099*
X0114*
X0159Y-0102D02*
X0161D01*
X016*
Y-0096*
X0159Y-0097*
X0168Y-0102D02*
X0164D01*
X0168Y-0098*
Y-0097*
X0167Y-0096*
X0165*
X0164Y-0097*
X0174Y-0096D02*
X017D01*
Y-0099*
X0172Y-0098*
X0173*
X0174Y-0099*
Y-0101*
X0173Y-0102*
X0171*
X017Y-0101*
X0176Y-0102D02*
Y-0101D01*
X0177*
Y-0102*
X0176*
X0181Y-0101D02*
X0182Y-0102D01*
X0184*
X0185Y-0101*
Y-0097*
X0184Y-0096*
X0182*
X0181Y-0097*
Y-0098*
X0182Y-0099*
X0185*
X0187Y-0097D02*
X0188Y-0096D01*
X019*
X0191Y-0097*
Y-0098*
X019Y-0099*
X0191Y-01*
Y-0101*
X019Y-0102*
X0188*
X0187Y-0101*
Y-01*
X0188Y-0099*
X0187Y-0098*
Y-0097*
X0188Y-0099D02*
X019D01*
X0196Y-0102D02*
Y-0096D01*
X0193Y-0099*
X0197*
X0199Y-0102D02*
Y-0098D01*
X02*
X0201Y-0099*
Y-0102*
Y-0099*
X0202Y-0098*
X0203Y-0099*
Y-0102*
X0205D02*
X0207D01*
X0206*
Y-0098*
X0205*
X021Y-0102D02*
X0212D01*
X0211*
Y-0096*
X021*
X0229Y-0097D02*
X023Y-0096D01*
X0232*
X0233Y-0097*
Y-0098*
X0232Y-0099*
X0231*
X0232*
X0233Y-01*
Y-0101*
X0232Y-0102*
X023*
X0229Y-0101*
X0235Y-0102D02*
Y-0101D01*
X0236*
Y-0102*
X0235*
X024D02*
X0242D01*
X0241*
Y-0096*
X024Y-0097*
X0245Y-0101D02*
X0246Y-0102D01*
X0248*
X0249Y-0101*
Y-0097*
X0248Y-0096*
X0246*
X0245Y-0097*
Y-0098*
X0246Y-0099*
X0249*
X0251Y-0101D02*
X0252Y-0102D01*
X0254*
X0255Y-0101*
Y-0097*
X0254Y-0096*
X0252*
X0251Y-0097*
Y-0098*
X0252Y-0099*
X0255*
X0257Y-0101D02*
X0258Y-0102D01*
X026*
X0261Y-0101*
Y-0097*
X026Y-0096*
X0258*
X0257Y-0097*
Y-0098*
X0258Y-0099*
X0261*
X0263Y-0101D02*
X0264Y-0102D01*
X0266*
X0267Y-0101*
Y-0097*
X0266Y-0096*
X0264*
X0263Y-0097*
Y-0098*
X0264Y-0099*
X0267*
X0269Y-0102D02*
Y-0098D01*
X027*
X0271Y-0099*
Y-0102*
Y-0099*
X0272Y-0098*
X0273Y-0099*
Y-0102*
X0275D02*
Y-0098D01*
X0276*
X0277Y-0099*
Y-0102*
Y-0099*
X0278Y-0098*
X0279Y-0099*
Y-0102*
X0299D02*
Y-0096D01*
X0303Y-0102*
Y-0096*
X0305Y-0102D02*
Y-0096D01*
X0308*
X0309Y-0097*
Y-0099*
X0308Y-01*
X0305*
X0311Y-0096D02*
X0315D01*
X0313*
Y-0102*
X0317Y-0096D02*
Y-0102D01*
Y-0099*
X0321*
Y-0096*
Y-0102*
X0114Y-0114D02*
X011D01*
X0114Y-011*
Y-0109*
X0113Y-0108*
X0111*
X011Y-0109*
X0116D02*
X0117Y-0108D01*
X0119*
X012Y-0109*
Y-0113*
X0119Y-0114*
X0117*
X0116Y-0113*
Y-0109*
X0126Y-0114D02*
X0122D01*
X0126Y-011*
Y-0109*
X0125Y-0108*
X0123*
X0122Y-0109*
X0159Y-0108D02*
X0163D01*
X0161*
Y-0114*
X0166D02*
X0168D01*
X0169Y-0113*
Y-0111*
X0168Y-011*
X0166*
X0165Y-0111*
Y-0113*
X0166Y-0114*
X0172Y-0109D02*
Y-011D01*
X0171*
X0173*
X0172*
Y-0113*
X0173Y-0114*
X0177Y-011D02*
X0179D01*
X018Y-0111*
Y-0114*
X0177*
X0176Y-0113*
X0177Y-0112*
X018*
X0182Y-0114D02*
X0184D01*
X0183*
Y-0108*
X0182*
G54D17*
X-02325Y-002D02*
D01*
X-02325Y-00193*
X-02325Y-00186*
X-02327Y-00179*
X-02328Y-00172*
X-02331Y-00165*
X-02333Y-00159*
X-02336Y-00153*
X-0234Y-00147*
X-02344Y-00141*
X-02348Y-00135*
X-02353Y-0013*
X-02358Y-00125*
X-02363Y-00121*
X-02369Y-00117*
X-02375Y-00113*
X-02381Y-0011*
X-02387Y-00107*
X-02394Y-00104*
X-024Y-00102*
X-02407Y-00101*
X-02414Y-001*
X-02421Y-001*
X-02428*
X-02435Y-001*
X-02442Y-00101*
X-02449Y-00102*
X-02455Y-00104*
X-02462Y-00107*
X-02468Y-0011*
X-02475Y-00113*
X-0248Y-00117*
X-02486Y-00121*
X-02491Y-00125*
X-02496Y-0013*
X-02501Y-00135*
X-02505Y-00141*
X-02509Y-00147*
X-02513Y-00153*
X-02516Y-00159*
X-02518Y-00165*
X-02521Y-00172*
X-02522Y-00179*
X-02524Y-00186*
X-02524Y-00193*
X-02525Y-002*
Y-01325D02*
D01*
X-02524Y-01331*
X-02524Y-01338*
X-02522Y-01345*
X-02521Y-01352*
X-02518Y-01359*
X-02516Y-01365*
X-02513Y-01371*
X-02509Y-01377*
X-02505Y-01383*
X-02501Y-01389*
X-02496Y-01394*
X-02491Y-01399*
X-02486Y-01403*
X-0248Y-01407*
X-02475Y-01411*
X-02468Y-01414*
X-02462Y-01417*
X-02455Y-0142*
X-02449Y-01422*
X-02442Y-01423*
X-02435Y-01424*
X-02428Y-01424*
X-02421*
X-02414Y-01424*
X-02407Y-01423*
X-024Y-01422*
X-02394Y-0142*
X-02387Y-01417*
X-02381Y-01414*
X-02374Y-01411*
X-02369Y-01407*
X-02363Y-01403*
X-02358Y-01399*
X-02353Y-01394*
X-02348Y-01389*
X-02344Y-01383*
X-0234Y-01377*
X-02336Y-01371*
X-02333Y-01365*
X-02331Y-01359*
X-02328Y-01352*
X-02327Y-01345*
X-02325Y-01338*
X-02325Y-01331*
X-02325Y-01325*
X-02525Y-01752D02*
Y-01337D01*
X-02325Y-01752D02*
Y-01337D01*
X-02525Y-01702D02*
X-02425D01*
X-02325*
X-02525D02*
X-02465Y-01722D01*
X-02525Y-01702D02*
X-02465Y-01682D01*
X-02385D02*
X-02325Y-01702D01*
X-02385Y-01722D02*
X-02325Y-01702D01*
X-02938Y-0175D02*
Y-01633D01*
X-02525Y-0175D02*
Y-01337D01*
X-02938Y-017D02*
X-02731D01*
X-02525*
X-02938D02*
X-02878Y-0172D01*
X-02938Y-017D02*
X-02878Y-0168D01*
X-02585D02*
X-02525Y-017D01*
X-02585Y-0172D02*
X-02525Y-017D01*
X-02938Y-01895D02*
Y-01633D01*
X-02849Y-01895D02*
Y-01556D01*
Y-01845D02*
X-02749D01*
X-03038D02*
X-02938D01*
X-02849D02*
X-02789Y-01865D01*
X-02849Y-01845D02*
X-02789Y-01825D01*
X-02998D02*
X-02938Y-01845D01*
X-02998Y-01865D02*
X-02938Y-01845D01*
X-03072Y-0162D02*
X-0295D01*
X-03072Y-01463D02*
X-02942D01*
X-03022D02*
Y-01363D01*
Y-0172D02*
Y-0162D01*
Y-01463D02*
X-03002Y-01403D01*
X-03042D02*
X-03022Y-01463D01*
X-03042Y-0168D02*
X-03022Y-0162D01*
X-03002Y-0168*
X-03232Y-0162D02*
X-0295D01*
X-03232Y-01325D02*
X-02513D01*
X-03182D02*
Y-01225D01*
Y-0172D02*
Y-0162D01*
Y-01325D02*
X-03162Y-01265D01*
X-03202D02*
X-03182Y-01325D01*
X-03202Y-0168D02*
X-03182Y-0162D01*
X-03162Y-0168*
X-02513Y-01325D02*
X-02375D01*
X-02513Y-002D02*
X-02375D01*
X-02425Y-01325D02*
Y-00943D01*
Y-00612D02*
Y-002D01*
Y-01325D02*
X-02405Y-01265D01*
X-02445D02*
X-02425Y-01325D01*
X-02445Y-0026D02*
X-02425Y-002D01*
X-02405Y-0026*
X-02027Y-01723D02*
X-01593D01*
X-02425Y-01325D02*
X-02027Y-01723D01*
X-02383Y-01339D02*
X-02354Y-01396D01*
X-02411Y-01367D02*
X-02354Y-01396D01*
X-02068Y00157D02*
X-01632D01*
X-02425Y-002D02*
X-02068Y00157D01*
X-02411Y-00158D02*
X-02354Y-00129D01*
X-02383Y-00186D02*
X-02354Y-00129D01*
X0037Y-01996D02*
Y-01633D01*
X-02938Y-01996D02*
Y-01633D01*
X-01125Y-01946D02*
X0037D01*
X-02938D02*
X-01475D01*
X0031Y-01926D02*
X0037Y-01946D01*
X0031Y-01966D02*
X0037Y-01946D01*
X-02938D02*
X-02878Y-01966D01*
X-02938Y-01946D02*
X-02878Y-01926D01*
X00281Y-01895D02*
Y-01556D01*
X-02849Y-01895D02*
Y-01556D01*
X-0113Y-01845D02*
X00281D01*
X-02849D02*
X-0147D01*
X00221Y-01825D02*
X00281Y-01845D01*
X00221Y-01865D02*
X00281Y-01845D01*
X-02849D02*
X-02789Y-01865D01*
X-02849Y-01845D02*
X-02789Y-01825D01*
X-0336Y0011D02*
X-02948D01*
X-0336Y-0162D02*
X-0295D01*
X-0331Y-00601D02*
Y0011D01*
Y-0162D02*
Y-00941D01*
X-0333Y0005D02*
X-0331Y0011D01*
X-0329Y0005*
X-0331Y-0162D02*
X-0329Y-0156D01*
X-0333D02*
X-0331Y-0162D01*
X-03072Y-01463D02*
X-02942D01*
X-03072Y-00045D02*
X-02942D01*
X-03022Y-01463D02*
Y-00935D01*
Y-00605D02*
Y-00045D01*
Y-01463D02*
X-03002Y-01403D01*
X-03042D02*
X-03022Y-01463D01*
X-03042Y-00105D02*
X-03022Y-00045D01*
X-03002Y-00105*
X-02935Y0011D02*
X0037Y00112D01*
Y-0162D02*
D01*
Y00112*
X-02525Y-01325D02*
Y-002D01*
X-02325Y-01325D02*
Y-00205D01*
X-02935Y-0162D02*
Y0011D01*
X-02938Y-0162D02*
X0037D01*
G54D18*
X-02516Y-01766D02*
Y-01763D01*
X-02513Y-01758*
X-0251Y-01755*
X-02505Y-01752*
X-02493*
X-02488Y-01755*
X-02485Y-01758*
X-02482Y-01763*
Y-01769*
X-02485Y-01775*
X-0249Y-01783*
X-02519Y-01812*
X-02479*
X-02448Y-01752D02*
X-02457Y-01755D01*
X-02463Y-01763*
X-02466Y-01778*
Y-01786*
X-02463Y-01801*
X-02457Y-01809*
X-02448Y-01812*
X-02443*
X-02434Y-01809*
X-02428Y-01801*
X-02426Y-01786*
Y-01778*
X-02428Y-01763*
X-02434Y-01755*
X-02443Y-01752*
X-02448*
X-02395D02*
X-02404Y-01755D01*
X-02409Y-01763*
X-02412Y-01778*
Y-01786*
X-02409Y-01801*
X-02404Y-01809*
X-02395Y-01812*
X-02389*
X-02381Y-01809*
X-02375Y-01801*
X-02372Y-01786*
Y-01778*
X-02375Y-01763*
X-02381Y-01755*
X-02389Y-01752*
X-02395*
X-02359Y-01772D02*
Y-01812D01*
Y-01783D02*
X-0235Y-01775D01*
X-02344Y-01772*
X-02336*
X-0233Y-01775*
X-02327Y-01783*
Y-01812*
Y-01783D02*
X-02319Y-01775D01*
X-02313Y-01772*
X-02304*
X-02299Y-01775*
X-02296Y-01783*
Y-01812*
X-02271Y-01752D02*
X-02268Y-01755D01*
X-02266Y-01752*
X-02268Y-01749*
X-02271Y-01752*
X-02268Y-01772D02*
Y-01812D01*
X-02255Y-01752D02*
Y-01812D01*
X-02806Y-01752D02*
X-02835Y-01792D01*
X-02792*
X-02806Y-01752D02*
Y-01812D01*
X-02782Y-01763D02*
X-02776Y-01761D01*
X-02767Y-01752*
Y-01812*
X-02732Y-01752D02*
X-027D01*
X-02718Y-01775*
X-02709*
X-02703Y-01778*
X-027Y-01781*
X-02698Y-01789*
Y-01795*
X-027Y-01803*
X-02706Y-01809*
X-02715Y-01812*
X-02723*
X-02732Y-01809*
X-02735Y-01806*
X-02738Y-01801*
X-02684Y-01772D02*
Y-01812D01*
Y-01783D02*
X-02676Y-01775D01*
X-0267Y-01772*
X-02661*
X-02656Y-01775*
X-02653Y-01783*
Y-01812*
Y-01783D02*
X-02644Y-01775D01*
X-02638Y-01772*
X-0263*
X-02624Y-01775*
X-02621Y-01783*
Y-01812*
X-02597Y-01752D02*
X-02594Y-01755D01*
X-02591Y-01752*
X-02594Y-01749*
X-02597Y-01752*
X-02594Y-01772D02*
Y-01812D01*
X-0258Y-01752D02*
Y-01812D01*
X-03214Y-0178D02*
X-03222Y-01783D01*
X-03225Y-01789*
Y-01794*
X-03222Y-018*
X-03217Y-01803*
X-03205Y-01806*
X-03197Y-01809*
X-03191Y-01814*
X-03188Y-0182*
Y-01829*
X-03191Y-01834*
X-03194Y-01837*
X-03202Y-0184*
X-03214*
X-03222Y-01837*
X-03225Y-01834*
X-03228Y-01829*
Y-0182*
X-03225Y-01814*
X-03219Y-01809*
X-03211Y-01806*
X-03199Y-01803*
X-03194Y-018*
X-03191Y-01794*
Y-01789*
X-03194Y-01783*
X-03202Y-0178*
X-03214*
X-03137Y-018D02*
X-0314Y-01809D01*
X-03146Y-01814*
X-03155Y-01817*
X-03157*
X-03166Y-01814*
X-03172Y-01809*
X-03175Y-018*
Y-01797*
X-03172Y-01789*
X-03166Y-01783*
X-03157Y-0178*
X-03155*
X-03146Y-01783*
X-0314Y-01789*
X-03137Y-018*
Y-01814*
X-0314Y-01829*
X-03146Y-01837*
X-03155Y-0184*
X-0316*
X-03169Y-01837*
X-03172Y-01831*
X-03121Y-018D02*
Y-0184D01*
Y-01811D02*
X-03113Y-01803D01*
X-03107Y-018*
X-03098*
X-03093Y-01803*
X-0309Y-01811*
Y-0184*
Y-01811D02*
X-03081Y-01803D01*
X-03075Y-018*
X-03067*
X-03061Y-01803*
X-03058Y-01811*
Y-0184*
X-03034Y-0178D02*
X-03031Y-01783D01*
X-03028Y-0178*
X-03031Y-01777*
X-03034Y-0178*
X-03031Y-018D02*
Y-0184D01*
X-03017Y-0178D02*
Y-0184D01*
X-03131Y-01607D02*
X-03133Y-01601D01*
X-03142Y-01593*
X-03082*
X-03142Y-01529D02*
Y-01557D01*
X-03116Y-0156*
X-03119Y-01557*
X-03122Y-01549*
Y-0154*
X-03119Y-01532*
X-03113Y-01526*
X-03105Y-01523*
X-03099*
X-03091Y-01526*
X-03085Y-01532*
X-03082Y-0154*
Y-01549*
X-03085Y-01557*
X-03088Y-0156*
X-03093Y-01563*
X-03142Y-01495D02*
X-03139Y-01504D01*
X-03133Y-01507*
X-03128*
X-03122Y-01504*
X-03119Y-01498*
X-03116Y-01487*
X-03113Y-01478*
X-03108Y-01472*
X-03102Y-0147*
X-03093*
X-03088Y-01472*
X-03085Y-01475*
X-03082Y-01484*
Y-01495*
X-03085Y-01504*
X-03088Y-01507*
X-03093Y-0151*
X-03102*
X-03108Y-01507*
X-03113Y-01501*
X-03116Y-01492*
X-03119Y-01481*
X-03122Y-01475*
X-03128Y-01472*
X-03133*
X-03139Y-01475*
X-03142Y-01484*
Y-01495*
X-03122Y-01456D02*
X-03082D01*
X-03111D02*
X-03119Y-01448D01*
X-03122Y-01442*
Y-01433*
X-03119Y-01428*
X-03111Y-01425*
X-03082*
X-03111D02*
X-03119Y-01416D01*
X-03122Y-0141*
Y-01402*
X-03119Y-01396*
X-03111Y-01393*
X-03082*
X-03142Y-01369D02*
X-03139Y-01366D01*
X-03142Y-01363*
X-03145Y-01366*
X-03142Y-01369*
X-03122Y-01366D02*
X-03082D01*
X-03142Y-01352D02*
X-03082D01*
X-03249Y-01605D02*
X-03252D01*
X-03257Y-01602*
X-0326Y-01599*
X-03263Y-01594*
Y-01582*
X-0326Y-01577*
X-03257Y-01574*
X-03252Y-01571*
X-03246*
X-0324Y-01574*
X-03232Y-01579*
X-03203Y-01608*
Y-01568*
X-03243Y-01517D02*
X-03234Y-0152D01*
X-03229Y-01526*
X-03226Y-01535*
Y-01537*
X-03229Y-01546*
X-03234Y-01552*
X-03243Y-01555*
X-03246*
X-03254Y-01552*
X-0326Y-01546*
X-03263Y-01537*
Y-01535*
X-0326Y-01526*
X-03254Y-0152*
X-03243Y-01517*
X-03229*
X-03214Y-0152*
X-03206Y-01526*
X-03203Y-01535*
Y-0154*
X-03206Y-01549*
X-03212Y-01552*
X-03263Y-01467D02*
Y-01495D01*
X-03237Y-01498*
X-0324Y-01495*
X-03243Y-01487*
Y-01478*
X-0324Y-0147*
X-03234Y-01464*
X-03226Y-01461*
X-0322*
X-03212Y-01464*
X-03206Y-0147*
X-03203Y-01478*
Y-01487*
X-03206Y-01495*
X-03209Y-01498*
X-03214Y-01501*
X-03243Y-01448D02*
X-03203D01*
X-03232D02*
X-0324Y-01439D01*
X-03243Y-01433*
Y-01425*
X-0324Y-01419*
X-03232Y-01416*
X-03203*
X-03232D02*
X-0324Y-01408D01*
X-03243Y-01402*
Y-01393*
X-0324Y-01388*
X-03232Y-01385*
X-03203*
X-03263Y-0136D02*
X-0326Y-01357D01*
X-03263Y-01355*
X-03266Y-01357*
X-03263Y-0136*
X-03243Y-01357D02*
X-03203D01*
X-03263Y-01344D02*
X-03203D01*
X-02467Y-00927D02*
X-02469Y-00921D01*
X-02478Y-00913*
X-02418*
X-02467Y-00883D02*
X-02469Y-00877D01*
X-02478Y-00869*
X-02418*
X-02464Y-00836D02*
X-02467D01*
X-02472Y-00833*
X-02475Y-0083*
X-02478Y-00825*
Y-00813*
X-02475Y-00808*
X-02472Y-00805*
X-02467Y-00802*
X-02461*
X-02455Y-00805*
X-02447Y-0081*
X-02418Y-00839*
Y-00799*
X-02478Y-00751D02*
Y-0078D01*
X-02452Y-00783*
X-02455Y-0078*
X-02458Y-00771*
Y-00763*
X-02455Y-00754*
X-02449Y-00748*
X-02441Y-00746*
X-02435*
X-02427Y-00748*
X-02421Y-00754*
X-02418Y-00763*
Y-00771*
X-02421Y-0078*
X-02424Y-00783*
X-02429Y-00786*
X-02458Y-00732D02*
X-02418D01*
X-02447D02*
X-02455Y-00724D01*
X-02458Y-00718*
Y-00709*
X-02455Y-00704*
X-02447Y-00701*
X-02418*
X-02447D02*
X-02455Y-00692D01*
X-02458Y-00686*
Y-00678*
X-02455Y-00672*
X-02447Y-00669*
X-02418*
X-02478Y-00645D02*
X-02475Y-00642D01*
X-02478Y-00639*
X-02481Y-00642*
X-02478Y-00645*
X-02458Y-00642D02*
X-02418D01*
X-02478Y-00628D02*
X-02418D01*
X-02029Y-01701D02*
Y-01641D01*
X-01999*
X-01989Y-01651*
Y-01671*
X-01999Y-01681*
X-02029*
X-02009D02*
X-01989Y-01701D01*
X-01909D02*
X-01889D01*
X-01899*
Y-01641*
X-01909Y-01651*
X-01859D02*
X-01849Y-01641D01*
X-01829*
X-01819Y-01651*
Y-01691*
X-01829Y-01701*
X-01849*
X-01859Y-01691*
Y-01651*
X-01799D02*
X-01789Y-01641D01*
X-01769*
X-01759Y-01651*
Y-01691*
X-01769Y-01701*
X-01789*
X-01799Y-01691*
Y-01651*
X-01739Y-01701D02*
Y-01661D01*
X-01729*
X-01719Y-01671*
Y-01701*
Y-01671*
X-01709Y-01661*
X-01699Y-01671*
Y-01701*
X-01679D02*
X-01659D01*
X-01669*
Y-01661*
X-01679*
X-01629Y-01701D02*
X-01609D01*
X-01619*
Y-01641*
X-01629*
X-02066Y00167D02*
Y00227D01*
X-02036*
X-02026Y00217*
Y00197*
X-02036Y00187*
X-02066*
X-02046D02*
X-02026Y00167D01*
X-01946D02*
X-01926D01*
X-01936*
Y00227*
X-01946Y00217*
X-01896D02*
X-01886Y00227D01*
X-01866*
X-01856Y00217*
Y00177*
X-01866Y00167*
X-01886*
X-01896Y00177*
Y00217*
X-01836D02*
X-01826Y00227D01*
X-01806*
X-01796Y00217*
Y00177*
X-01806Y00167*
X-01826*
X-01836Y00177*
Y00217*
X-01776Y00167D02*
Y00207D01*
X-01766*
X-01756Y00197*
Y00167*
Y00197*
X-01746Y00207*
X-01736Y00197*
Y00167*
X-01716D02*
X-01696D01*
X-01706*
Y00207*
X-01716*
X-01666Y00167D02*
X-01646D01*
X-01656*
Y00227*
X-01666*
X-01453Y-01923D02*
X-01422D01*
X-01439Y-01946*
X-0143*
X-01424Y-01949*
X-01422Y-01952*
X-01419Y-01961*
Y-01966*
X-01422Y-01975*
X-01427Y-01981*
X-01436Y-01983*
X-01444*
X-01453Y-01981*
X-01456Y-01978*
X-01459Y-01972*
X-014Y-01923D02*
X-01368D01*
X-01385Y-01946*
X-01377*
X-01371Y-01949*
X-01368Y-01952*
X-01365Y-01961*
Y-01966*
X-01368Y-01975*
X-01374Y-01981*
X-01382Y-01983*
X-01391*
X-014Y-01981*
X-01402Y-01978*
X-01405Y-01972*
X-01335Y-01923D02*
X-01343Y-01926D01*
X-01349Y-01935*
X-01352Y-01949*
Y-01958*
X-01349Y-01972*
X-01343Y-01981*
X-01335Y-01983*
X-01329*
X-0132Y-01981*
X-01315Y-01972*
X-01312Y-01958*
Y-01949*
X-01315Y-01935*
X-0132Y-01926*
X-01329Y-01923*
X-01335*
X-01258D02*
X-01287Y-01983D01*
X-01298Y-01923D02*
X-01258D01*
X-01245Y-01943D02*
Y-01983D01*
Y-01955D02*
X-01236Y-01946D01*
X-01231Y-01943*
X-01222*
X-01216Y-01946*
X-01214Y-01955*
Y-01983*
Y-01955D02*
X-01205Y-01946D01*
X-01199Y-01943*
X-01191*
X-01185Y-01946*
X-01182Y-01955*
Y-01983*
X-01158Y-01923D02*
X-01155Y-01926D01*
X-01152Y-01923*
X-01155Y-01921*
X-01158Y-01923*
X-01155Y-01943D02*
Y-01983D01*
X-01141Y-01923D02*
Y-01983D01*
X-01448Y-01822D02*
X-01417D01*
X-01434Y-01845*
X-01425*
X-0142Y-01848*
X-01417Y-01851*
X-01414Y-0186*
Y-01865*
X-01417Y-01874*
X-01423Y-0188*
X-01431Y-01882*
X-0144*
X-01448Y-0188*
X-01451Y-01877*
X-01454Y-01871*
X-01401Y-01834D02*
X-01395Y-01831D01*
X-01386Y-01822*
Y-01882*
X-01351Y-01822D02*
X-01319D01*
X-01337Y-01845*
X-01328*
X-01322Y-01848*
X-01319Y-01851*
X-01317Y-0186*
Y-01865*
X-01319Y-01874*
X-01325Y-0188*
X-01334Y-01882*
X-01342*
X-01351Y-0188*
X-01354Y-01877*
X-01357Y-01871*
X-01286Y-01822D02*
X-01295Y-01825D01*
X-013Y-01834*
X-01303Y-01848*
Y-01857*
X-013Y-01871*
X-01295Y-0188*
X-01286Y-01882*
X-0128*
X-01272Y-0188*
X-01266Y-01871*
X-01263Y-01857*
Y-01848*
X-01266Y-01834*
X-01272Y-01825*
X-0128Y-01822*
X-01286*
X-0125Y-01842D02*
Y-01882D01*
Y-01854D02*
X-01241Y-01845D01*
X-01235Y-01842*
X-01227*
X-01221Y-01845*
X-01218Y-01854*
Y-01882*
Y-01854D02*
X-0121Y-01845D01*
X-01204Y-01842*
X-01195*
X-0119Y-01845*
X-01187Y-01854*
Y-01882*
X-01162Y-01822D02*
X-01159Y-01825D01*
X-01157Y-01822*
X-01159Y-0182*
X-01162Y-01822*
X-01159Y-01842D02*
Y-01882D01*
X-01146Y-01822D02*
Y-01882D01*
X-03321Y-00925D02*
X-03324Y-00919D01*
X-03333Y-00911*
X-03273*
X-03333Y-00841D02*
X-03273Y-0087D01*
X-03333Y-00881D02*
Y-00841D01*
Y-00822D02*
Y-00791D01*
X-0331Y-00808*
Y-00799*
X-03307Y-00793*
X-03304Y-00791*
X-03295Y-00788*
X-0329*
X-03281Y-00791*
X-03275Y-00796*
X-03273Y-00805*
Y-00813*
X-03275Y-00822*
X-03278Y-00825*
X-03284Y-00828*
X-03333Y-00757D02*
X-0333Y-00766D01*
X-03321Y-00771*
X-03307Y-00774*
X-03298*
X-03284Y-00771*
X-03275Y-00766*
X-03273Y-00757*
Y-00751*
X-03275Y-00743*
X-03284Y-00737*
X-03298Y-00734*
X-03307*
X-03321Y-00737*
X-0333Y-00743*
X-03333Y-00751*
Y-00757*
X-03313Y-00721D02*
X-03273D01*
X-03301D02*
X-0331Y-00712D01*
X-03313Y-00707*
Y-00698*
X-0331Y-00692*
X-03301Y-00689*
X-03273*
X-03301D02*
X-0331Y-00681D01*
X-03313Y-00675*
Y-00667*
X-0331Y-00661*
X-03301Y-00658*
X-03273*
X-03333Y-00633D02*
X-0333Y-00631D01*
X-03333Y-00628*
X-03335Y-00631*
X-03333Y-00633*
X-03313Y-00631D02*
X-03273D01*
X-03333Y-00617D02*
X-03273D01*
X-03033Y-00919D02*
X-03036Y-00913D01*
X-03045Y-00905*
X-02985*
X-03045Y-00847D02*
X-03005Y-00875D01*
Y-00832*
X-03045Y-00847D02*
X-02985D01*
X-03033Y-00822D02*
X-03036Y-00816D01*
X-03045Y-00807*
X-02985*
X-03045Y-00763D02*
X-03042Y-00772D01*
X-03036Y-00775*
X-0303*
X-03025Y-00772*
X-03022Y-00766*
X-03019Y-00755*
X-03016Y-00746*
X-0301Y-00741*
X-03005Y-00738*
X-02996*
X-0299Y-00741*
X-02987Y-00743*
X-02985Y-00752*
Y-00763*
X-02987Y-00772*
X-0299Y-00775*
X-02996Y-00778*
X-03005*
X-0301Y-00775*
X-03016Y-00769*
X-03019Y-00761*
X-03022Y-00749*
X-03025Y-00743*
X-0303Y-00741*
X-03036*
X-03042Y-00743*
X-03045Y-00752*
Y-00763*
X-03025Y-00724D02*
X-02985D01*
X-03013D02*
X-03022Y-00716D01*
X-03025Y-0071*
Y-00701*
X-03022Y-00696*
X-03013Y-00693*
X-02985*
X-03013D02*
X-03022Y-00684D01*
X-03025Y-00679*
Y-0067*
X-03022Y-00664*
X-03013Y-00661*
X-02985*
X-03045Y-00637D02*
X-03042Y-00634D01*
X-03045Y-00631*
X-03047Y-00634*
X-03045Y-00637*
X-03025Y-00634D02*
X-02985D01*
X-03045Y-00621D02*
X-02985D01*
G54D37*
X00281Y-01463D02*
Y-01429D01*
X00298Y-01413*
X00314Y-01429*
Y-01463*
Y-01438*
X00281*
X-02849Y-01463D02*
Y-01429D01*
X-02832Y-01413*
X-02816Y-01429*
Y-01463*
Y-01438*
X-02849*
Y-01463D02*
Y-01429D01*
X-02832Y-01413*
X-02816Y-01429*
Y-01463*
Y-01438*
X-02849*
X002Y0005D02*
Y0D01*
X00225*
X00233Y00008*
Y00017*
X00225Y00025*
X002*
X00225*
X00233Y00033*
Y00042*
X00225Y0005*
X002*
X-02849Y-00045D02*
Y-00012D01*
X-02832Y00005*
X-02816Y-00012*
Y-00045*
Y-0002*
X-02849*
X003Y0005D02*
Y0D01*
X00325*
X00333Y00008*
Y00017*
X00325Y00025*
X003*
X00325*
X00333Y00033*
Y00042*
X00325Y0005*
X003*
X002Y-0005D02*
Y-001D01*
X00225*
X00233Y-00092*
Y-00083*
X00225Y-00075*
X002*
X00225*
X00233Y-00067*
Y-00058*
X00225Y-0005*
X002*
X003D02*
Y-001D01*
X00325*
X00333Y-00092*
Y-00083*
X00325Y-00075*
X003*
X00325*
X00333Y-00067*
Y-00058*
X00325Y-0005*
X003*
X002Y-0015D02*
Y-002D01*
X00225*
X00233Y-00192*
Y-00183*
X00225Y-00175*
X002*
X00225*
X00233Y-00167*
Y-00158*
X00225Y-0015*
X002*
X003D02*
Y-002D01*
X00325*
X00333Y-00192*
Y-00183*
X00325Y-00175*
X003*
X00325*
X00333Y-00167*
Y-00158*
X00325Y-0015*
X003*
X002Y-0025D02*
Y-003D01*
X00225*
X00233Y-00292*
Y-00283*
X00225Y-00275*
X002*
X00225*
X00233Y-00267*
Y-00258*
X00225Y-0025*
X002*
X003D02*
Y-003D01*
X00325*
X00333Y-00292*
Y-00283*
X00325Y-00275*
X003*
X00325*
X00333Y-00267*
Y-00258*
X00325Y-0025*
X003*
X002Y-0095D02*
Y-01D01*
X00225*
X00233Y-00992*
Y-00983*
X00225Y-00975*
X002*
X00225*
X00233Y-00967*
Y-00958*
X00225Y-0095*
X002*
X003D02*
Y-01D01*
X00325*
X00333Y-00992*
Y-00983*
X00325Y-00975*
X003*
X00325*
X00333Y-00967*
Y-00958*
X00325Y-0095*
X003*
X002Y-0105D02*
Y-011D01*
X00225*
X00233Y-01092*
Y-01083*
X00225Y-01075*
X002*
X00225*
X00233Y-01067*
Y-01058*
X00225Y-0105*
X002*
X003D02*
Y-011D01*
X00325*
X00333Y-01092*
Y-01083*
X00325Y-01075*
X003*
X00325*
X00333Y-01067*
Y-01058*
X00325Y-0105*
X003*
X002Y-0115D02*
Y-012D01*
X00225*
X00233Y-01192*
Y-01183*
X00225Y-01175*
X002*
X00225*
X00233Y-01167*
Y-01158*
X00225Y-0115*
X002*
X003D02*
Y-012D01*
X00325*
X00333Y-01192*
Y-01183*
X00325Y-01175*
X003*
X00325*
X00333Y-01167*
Y-01158*
X00325Y-0115*
X003*
X002Y-0125D02*
Y-013D01*
X00225*
X00233Y-01292*
Y-01283*
X00225Y-01275*
X002*
X00225*
X00233Y-01267*
Y-01258*
X00225Y-0125*
X002*
X003D02*
Y-013D01*
X00325*
X00333Y-01292*
Y-01283*
X00325Y-01275*
X003*
X00325*
X00333Y-01267*
Y-01258*
X00325Y-0125*
X003*
X0Y0005D02*
Y0D01*
X00025*
X00033Y00008*
Y00017*
X00025Y00025*
X0*
X00025*
X00033Y00033*
Y00042*
X00025Y0005*
X0*
X001Y-0005D02*
Y-001D01*
X00125*
X00133Y-00092*
Y-00083*
X00125Y-00075*
X001*
X00125*
X00133Y-00067*
Y-00058*
X00125Y-0005*
X001*
Y0005D02*
Y0D01*
X00125*
X00133Y00008*
Y00017*
X00125Y00025*
X001*
X00125*
X00133Y00033*
Y00042*
X00125Y0005*
X001*
X0Y-0005D02*
Y-001D01*
X00025*
X00033Y-00092*
Y-00083*
X00025Y-00075*
X0*
X00025*
X00033Y-00067*
Y-00058*
X00025Y-0005*
X0*
X001Y-0095D02*
Y-01D01*
X00125*
X00133Y-00992*
Y-00983*
X00125Y-00975*
X001*
X00125*
X00133Y-00967*
Y-00958*
X00125Y-0095*
X001*
Y-0085D02*
Y-009D01*
X00125*
X00133Y-00892*
Y-00883*
X00125Y-00875*
X001*
X00125*
X00133Y-00867*
Y-00858*
X00125Y-0085*
X001*
Y-0075D02*
Y-008D01*
X00125*
X00133Y-00792*
Y-00783*
X00125Y-00775*
X001*
X00125*
X00133Y-00767*
Y-00758*
X00125Y-0075*
X001*
Y-0065D02*
Y-007D01*
X00125*
X00133Y-00692*
Y-00683*
X00125Y-00675*
X001*
X00125*
X00133Y-00667*
Y-00658*
X00125Y-0065*
X001*
Y-0055D02*
Y-006D01*
X00125*
X00133Y-00592*
Y-00583*
X00125Y-00575*
X001*
X00125*
X00133Y-00567*
Y-00558*
X00125Y-0055*
X001*
Y-0045D02*
Y-005D01*
X00125*
X00133Y-00492*
Y-00483*
X00125Y-00475*
X001*
X00125*
X00133Y-00467*
Y-00458*
X00125Y-0045*
X001*
Y-0035D02*
Y-004D01*
X00125*
X00133Y-00392*
Y-00383*
X00125Y-00375*
X001*
X00125*
X00133Y-00367*
Y-00358*
X00125Y-0035*
X001*
Y-0025D02*
Y-003D01*
X00125*
X00133Y-00292*
Y-00283*
X00125Y-00275*
X001*
X00125*
X00133Y-00267*
Y-00258*
X00125Y-0025*
X001*
Y-0015D02*
Y-002D01*
X00125*
X00133Y-00192*
Y-00183*
X00125Y-00175*
X001*
X00125*
X00133Y-00167*
Y-00158*
X00125Y-0015*
X001*
X0Y-0095D02*
Y-01D01*
X00025*
X00033Y-00992*
Y-00983*
X00025Y-00975*
X0*
X00025*
X00033Y-00967*
Y-00958*
X00025Y-0095*
X0*
Y-0085D02*
Y-009D01*
X00025*
X00033Y-00892*
Y-00883*
X00025Y-00875*
X0*
X00025*
X00033Y-00867*
Y-00858*
X00025Y-0085*
X0*
Y-0075D02*
Y-008D01*
X00025*
X00033Y-00792*
Y-00783*
X00025Y-00775*
X0*
X00025*
X00033Y-00767*
Y-00758*
X00025Y-0075*
X0*
Y-0065D02*
Y-007D01*
X00025*
X00033Y-00692*
Y-00683*
X00025Y-00675*
X0*
X00025*
X00033Y-00667*
Y-00658*
X00025Y-0065*
X0*
Y-0055D02*
Y-006D01*
X00025*
X00033Y-00592*
Y-00583*
X00025Y-00575*
X0*
X00025*
X00033Y-00567*
Y-00558*
X00025Y-0055*
X0*
Y-0045D02*
Y-005D01*
X00025*
X00033Y-00492*
Y-00483*
X00025Y-00475*
X0*
X00025*
X00033Y-00467*
Y-00458*
X00025Y-0045*
X0*
Y-0035D02*
Y-004D01*
X00025*
X00033Y-00392*
Y-00383*
X00025Y-00375*
X0*
X00025*
X00033Y-00367*
Y-00358*
X00025Y-0035*
X0*
Y-0025D02*
Y-003D01*
X00025*
X00033Y-00292*
Y-00283*
X00025Y-00275*
X0*
X00025*
X00033Y-00267*
Y-00258*
X00025Y-0025*
X0*
Y-0015D02*
Y-002D01*
X00025*
X00033Y-00192*
Y-00183*
X00025Y-00175*
X0*
X00025*
X00033Y-00167*
Y-00158*
X00025Y-0015*
X0*
X-01617Y-00873D02*
X-01625Y-00865D01*
X-01642*
X-0165Y-00873*
Y-00907*
X-01642Y-00915*
X-01625*
X-01617Y-00907*
X-022Y-00175D02*
Y-00225D01*
X-02175*
X-02167Y-00217*
Y-00183*
X-02175Y-00175*
X-022*
X-0225Y-001D02*
Y-0015D01*
X-02225*
X-02217Y-00142*
Y-00108*
X-02225Y-001*
X-0225*
X-01342Y-00493D02*
X-0135Y-00485D01*
X-01367*
X-01375Y-00493*
Y-00527*
X-01367Y-00535*
X-0135*
X-01342Y-00527*
X-0162Y-00412D02*
X-01628Y-00403D01*
X-01645*
X-01653Y-00412*
Y-00445*
X-01645Y-00453*
X-01628*
X-0162Y-00445*
X-01352Y-01235D02*
X-01385D01*
Y-01285*
X-01352*
X-01385Y-0126D02*
X-01368D01*
X-01367Y-01185D02*
X-014D01*
Y-01235*
X-01367*
X-014Y-0121D02*
X-01383D01*
X-00742Y-00218D02*
X-0075Y-0021D01*
X-00767*
X-00775Y-00218*
Y-00252*
X-00767Y-0026*
X-0075*
X-00742Y-00252*
X-00775Y-00195D02*
X-00783Y-00187D01*
X-008*
X-00808Y-00195*
Y-00229*
X-008Y-00237*
X-00783*
X-00775Y-00229*
X-00807Y-00168D02*
X-00815Y-0016D01*
X-00832*
X-0084Y-00168*
Y-00202*
X-00832Y-0021*
X-00815*
X-00807Y-00202*
X-00842Y-00148D02*
X-0085Y-0014D01*
X-00867*
X-00875Y-00148*
Y-00182*
X-00867Y-0019*
X-0085*
X-00842Y-00182*
X-00077Y-00181D02*
X-00085Y-00173D01*
X-00102*
X-0011Y-00181*
Y-00215*
X-00102Y-00223*
X-00085*
X-00077Y-00215*
X-0004Y-00178D02*
X-00048Y-0017D01*
X-00065*
X-00073Y-00178*
Y-00212*
X-00065Y-0022*
X-00048*
X-0004Y-00212*
X-01422Y-00073D02*
X-0143Y-00065D01*
X-01447*
X-01455Y-00073*
Y-00107*
X-01447Y-00115*
X-0143*
X-01422Y-00107*
X-00917Y-00313D02*
X-00925Y-00305D01*
X-00942*
X-0095Y-00313*
Y-00347*
X-00942Y-00355*
X-00925*
X-00917Y-00347*
X-0095Y-0029D02*
X-00958Y-00282D01*
X-00975*
X-00983Y-0029*
Y-00324*
X-00975Y-00332*
X-00958*
X-0095Y-00324*
X-00984Y-00265D02*
X-00992Y-00257D01*
X-01009*
X-01017Y-00265*
Y-00299*
X-01009Y-00307*
X-00992*
X-00984Y-00299*
X-01017Y-00243D02*
X-01025Y-00235D01*
X-01042*
X-0105Y-00243*
Y-00277*
X-01042Y-00285*
X-01025*
X-01017Y-00277*
X-00742Y-00453D02*
X-0075Y-00445D01*
X-00767*
X-00775Y-00453*
Y-00487*
X-00767Y-00495*
X-0075*
X-00742Y-00487*
X-00775Y-00475D02*
X-00783Y-00467D01*
X-008*
X-00808Y-00475*
Y-00509*
X-008Y-00517*
X-00783*
X-00775Y-00509*
X-00809Y-00455D02*
X-00817Y-00447D01*
X-00834*
X-00842Y-00455*
Y-00489*
X-00834Y-00497*
X-00817*
X-00809Y-00489*
X-00842Y-00473D02*
X-0085Y-00465D01*
X-00867*
X-00875Y-00473*
Y-00507*
X-00867Y-00515*
X-0085*
X-00842Y-00507*
X-00917Y-00453D02*
X-00925Y-00445D01*
X-00942*
X-0095Y-00453*
Y-00487*
X-00942Y-00495*
X-00925*
X-00917Y-00487*
X-0095Y-00475D02*
X-00958Y-00467D01*
X-00975*
X-00983Y-00475*
Y-00509*
X-00975Y-00517*
X-00958*
X-0095Y-00509*
X-00984Y-00455D02*
X-00992Y-00447D01*
X-01009*
X-01017Y-00455*
Y-00489*
X-01009Y-00497*
X-00992*
X-00984Y-00489*
X-01017Y-00453D02*
X-01025Y-00445D01*
X-01042*
X-0105Y-00453*
Y-00487*
X-01042Y-00495*
X-01025*
X-01017Y-00487*
X-01716Y-00458D02*
X-01724Y-0045D01*
X-01741*
X-01749Y-00458*
Y-00492*
X-01741Y-005*
X-01724*
X-01716Y-00492*
X-01717Y-00533D02*
X-01725Y-00525D01*
X-01742*
X-0175Y-00533*
Y-00567*
X-01742Y-00575*
X-01725*
X-01717Y-00567*
X-01716Y-00608D02*
X-01724Y-006D01*
X-01741*
X-01749Y-00608*
Y-00642*
X-01741Y-0065*
X-01724*
X-01716Y-00642*
X-01717Y-00684D02*
X-01725Y-00675D01*
X-01742*
X-0175Y-00684*
Y-00717*
X-01742Y-00725*
X-01725*
X-01717Y-00717*
X-01597Y-00565D02*
X-01605Y-00557D01*
X-01622*
X-0163Y-00565*
Y-00598*
X-01622Y-00607*
X-01605*
X-01597Y-00598*
X-01602Y-00608D02*
X-0161Y-006D01*
X-01627*
X-01635Y-00608*
Y-00642*
X-01627Y-0065*
X-0161*
X-01602Y-00642*
X-01492Y-00759D02*
X-015Y-0075D01*
X-01517*
X-01525Y-00759*
Y-00792*
X-01517Y-008*
X-015*
X-01492Y-00792*
X-01367Y-00843D02*
X-01375Y-00835D01*
X-01392*
X-014Y-00843*
Y-00877*
X-01392Y-00885*
X-01375*
X-01367Y-00877*
Y-00758D02*
X-01375Y-0075D01*
X-01392*
X-014Y-00758*
Y-00792*
X-01392Y-008*
X-01375*
X-01367Y-00792*
X-01492Y-00659D02*
X-015Y-0065D01*
X-01517*
X-01525Y-00659*
Y-00692*
X-01517Y-007*
X-015*
X-01492Y-00692*
X-01232Y-00758D02*
X-0124Y-0075D01*
X-01257*
X-01265Y-00758*
Y-00792*
X-01257Y-008*
X-0124*
X-01232Y-00792*
X-01087Y-00759D02*
X-01095Y-0075D01*
X-01112*
X-0112Y-00759*
Y-00792*
X-01112Y-008*
X-01095*
X-01087Y-00792*
X-01617Y-01408D02*
X-01625Y-014D01*
X-01642*
X-0165Y-01408*
Y-01442*
X-01642Y-0145*
X-01625*
X-01617Y-01442*
Y-01508D02*
X-01625Y-015D01*
X-01642*
X-0165Y-01508*
Y-01542*
X-01642Y-0155*
X-01625*
X-01617Y-01542*
X-01467Y-01408D02*
X-01475Y-014D01*
X-01492*
X-015Y-01408*
Y-01442*
X-01492Y-0145*
X-01475*
X-01467Y-01442*
Y-01508D02*
X-01475Y-015D01*
X-01492*
X-015Y-01508*
Y-01542*
X-01492Y-0155*
X-01475*
X-01467Y-01542*
X-02567Y-00033D02*
X-02575Y-00025D01*
X-02592*
X-026Y-00033*
Y-00067*
X-02592Y-00075*
X-02575*
X-02567Y-00067*
Y-00133D02*
X-02575Y-00125D01*
X-02592*
X-026Y-00133*
Y-00167*
X-02592Y-00175*
X-02575*
X-02567Y-00167*
Y-00234D02*
X-02575Y-00225D01*
X-02592*
X-026Y-00234*
Y-00267*
X-02592Y-00275*
X-02575*
X-02567Y-00267*
Y-00334D02*
X-02575Y-00325D01*
X-02592*
X-026Y-00334*
Y-00367*
X-02592Y-00375*
X-02575*
X-02567Y-00367*
Y-00434D02*
X-02575Y-00425D01*
X-02592*
X-026Y-00434*
Y-00467*
X-02592Y-00475*
X-02575*
X-02567Y-00467*
Y-00533D02*
X-02575Y-00525D01*
X-02592*
X-026Y-00533*
Y-00567*
X-02592Y-00575*
X-02575*
X-02567Y-00567*
Y-00633D02*
X-02575Y-00625D01*
X-02592*
X-026Y-00633*
Y-00667*
X-02592Y-00675*
X-02575*
X-02567Y-00667*
Y-00733D02*
X-02575Y-00725D01*
X-02592*
X-026Y-00733*
Y-00766*
X-02592Y-00775*
X-02575*
X-02567Y-00766*
Y-00833D02*
X-02575Y-00825D01*
X-02592*
X-026Y-00833*
Y-00867*
X-02592Y-00875*
X-02575*
X-02567Y-00867*
Y-00933D02*
X-02575Y-00925D01*
X-02592*
X-026Y-00933*
Y-00967*
X-02592Y-00975*
X-02575*
X-02567Y-00967*
X-02067Y-01308D02*
X-02075Y-013D01*
X-02092*
X-021Y-01308*
Y-01342*
X-02092Y-0135*
X-02075*
X-02067Y-01342*
Y-01408D02*
X-02075Y-014D01*
X-02092*
X-021Y-01408*
Y-01442*
X-02092Y-0145*
X-02075*
X-02067Y-01442*
Y-01509D02*
X-02075Y-015D01*
X-02092*
X-021Y-01509*
Y-01542*
X-02092Y-0155*
X-02075*
X-02067Y-01542*
X-00867Y-00983D02*
X-00875Y-00975D01*
X-00892*
X-009Y-00983*
Y-01017*
X-00892Y-01025*
X-00875*
X-00867Y-01017*
X-00567Y-01084D02*
X-00575Y-01075D01*
X-00592*
X-006Y-01084*
Y-01117*
X-00592Y-01125*
X-00575*
X-00567Y-01117*
X-00392Y-01084D02*
X-004Y-01075D01*
X-00417*
X-00425Y-01084*
Y-01117*
X-00417Y-01125*
X-004*
X-00392Y-01117*
X-00217Y-01084D02*
X-00225Y-01075D01*
X-00242*
X-0025Y-01084*
Y-01117*
X-00242Y-01125*
X-00225*
X-00217Y-01117*
X-00742Y-01083D02*
X-0075Y-01075D01*
X-00767*
X-00775Y-01083*
Y-01117*
X-00767Y-01125*
X-0075*
X-00742Y-01117*
X00208Y-01508D02*
X002Y-015D01*
X00183*
X00175Y-01508*
Y-01542*
X00183Y-0155*
X002*
X00208Y-01542*
X00058Y-01509D02*
X0005Y-015D01*
X00033*
X00025Y-01509*
Y-01542*
X00033Y-0155*
X0005*
X00058Y-01542*
X-00242Y-01509D02*
X-0025Y-015D01*
X-00267*
X-00275Y-01509*
Y-01542*
X-00267Y-0155*
X-0025*
X-00242Y-01542*
X-00392Y-01509D02*
X-004Y-015D01*
X-00417*
X-00425Y-01509*
Y-01542*
X-00417Y-0155*
X-004*
X-00392Y-01542*
X-00542Y-01509D02*
X-0055Y-015D01*
X-00567*
X-00575Y-01509*
Y-01542*
X-00567Y-0155*
X-0055*
X-00542Y-01542*
X-00092Y-01509D02*
X-001Y-015D01*
X-00117*
X-00125Y-01509*
Y-01542*
X-00117Y-0155*
X-001*
X-00092Y-01542*
X-00692Y-01508D02*
X-007Y-015D01*
X-00717*
X-00725Y-01508*
Y-01542*
X-00717Y-0155*
X-007*
X-00692Y-01542*
X-00867Y-01508D02*
X-00875Y-015D01*
X-00892*
X-009Y-01508*
Y-01542*
X-00892Y-0155*
X-00875*
X-00867Y-01542*
X-01017Y-01508D02*
X-01025Y-015D01*
X-01042*
X-0105Y-01508*
Y-01542*
X-01042Y-0155*
X-01025*
X-01017Y-01542*
X-01167Y-01508D02*
X-01175Y-015D01*
X-01192*
X-012Y-01508*
Y-01542*
X-01192Y-0155*
X-01175*
X-01167Y-01542*
X-01317Y-01508D02*
X-01325Y-015D01*
X-01342*
X-0135Y-01508*
Y-01542*
X-01342Y-0155*
X-01325*
X-01317Y-01542*
X-01767Y-01508D02*
X-01775Y-015D01*
X-01792*
X-018Y-01508*
Y-01542*
X-01792Y-0155*
X-01775*
X-01767Y-01542*
Y-01409D02*
X-01775Y-014D01*
X-01792*
X-018Y-01409*
Y-01442*
X-01792Y-0145*
X-01775*
X-01767Y-01442*
X-01917Y-01509D02*
X-01925Y-015D01*
X-01942*
X-0195Y-01509*
Y-01542*
X-01942Y-0155*
X-01925*
X-01917Y-01542*
Y-01408D02*
X-01925Y-014D01*
X-01942*
X-0195Y-01408*
Y-01442*
X-01942Y-0145*
X-01925*
X-01917Y-01442*
X-02817Y-00133D02*
X-02825Y-00125D01*
X-02842*
X-0285Y-00133*
Y-00167*
X-02842Y-00175*
X-02825*
X-02817Y-00167*
Y-00234D02*
X-02825Y-00225D01*
X-02842*
X-0285Y-00234*
Y-00267*
X-02842Y-00275*
X-02825*
X-02817Y-00267*
Y-00334D02*
X-02825Y-00325D01*
X-02842*
X-0285Y-00334*
Y-00367*
X-02842Y-00375*
X-02825*
X-02817Y-00367*
Y-00434D02*
X-02825Y-00425D01*
X-02842*
X-0285Y-00434*
Y-00467*
X-02842Y-00475*
X-02825*
X-02817Y-00467*
Y-00533D02*
X-02825Y-00525D01*
X-02842*
X-0285Y-00533*
Y-00567*
X-02842Y-00575*
X-02825*
X-02817Y-00567*
Y-00633D02*
X-02825Y-00625D01*
X-02842*
X-0285Y-00633*
Y-00667*
X-02842Y-00675*
X-02825*
X-02817Y-00667*
Y-00733D02*
X-02825Y-00725D01*
X-02842*
X-0285Y-00733*
Y-00766*
X-02842Y-00775*
X-02825*
X-02817Y-00766*
Y-00833D02*
X-02825Y-00825D01*
X-02842*
X-0285Y-00833*
Y-00867*
X-02842Y-00875*
X-02825*
X-02817Y-00867*
Y-00933D02*
X-02825Y-00925D01*
X-02842*
X-0285Y-00933*
Y-00967*
X-02842Y-00975*
X-02825*
X-02817Y-00967*
X-02217Y-01308D02*
X-02225Y-013D01*
X-02242*
X-0225Y-01308*
Y-01341*
X-02242Y-0135*
X-02225*
X-02217Y-01341*
Y-01408D02*
X-02225Y-014D01*
X-02242*
X-0225Y-01408*
Y-01441*
X-02242Y-0145*
X-02225*
X-02217Y-01441*
Y-01508D02*
X-02225Y-015D01*
X-02242*
X-0225Y-01508*
Y-01542*
X-02242Y-0155*
X-02225*
X-02217Y-01542*
X-01392Y00067D02*
X-014Y00075D01*
X-01417*
X-01425Y00067*
Y00033*
X-01417Y00025*
X-014*
X-01392Y00033*
X-01292Y00066D02*
X-013Y00075D01*
X-01317*
X-01325Y00066*
Y00033*
X-01317Y00025*
X-013*
X-01292Y00033*
X-01192Y00066D02*
X-012Y00075D01*
X-01217*
X-01225Y00066*
Y00033*
X-01217Y00025*
X-012*
X-01192Y00033*
X-01092Y00066D02*
X-011Y00075D01*
X-01117*
X-01125Y00066*
Y00033*
X-01117Y00025*
X-011*
X-01092Y00033*
X-00992Y00066D02*
X-01Y00075D01*
X-01017*
X-01025Y00066*
Y00033*
X-01017Y00025*
X-01*
X-00992Y00033*
X-00892Y00066D02*
X-009Y00075D01*
X-00917*
X-00925Y00066*
Y00033*
X-00917Y00025*
X-009*
X-00892Y00033*
X-00792Y00066D02*
X-008Y00075D01*
X-00817*
X-00825Y00066*
Y00033*
X-00817Y00025*
X-008*
X-00792Y00033*
X-00692Y00066D02*
X-007Y00075D01*
X-00717*
X-00725Y00066*
Y00033*
X-00717Y00025*
X-007*
X-00692Y00033*
X-00592Y00066D02*
X-006Y00075D01*
X-00617*
X-00625Y00066*
Y00033*
X-00617Y00025*
X-006*
X-00592Y00033*
X-00492Y00066D02*
X-005Y00075D01*
X-00517*
X-00525Y00066*
Y00033*
X-00517Y00025*
X-005*
X-00492Y00033*
X-00392Y00066D02*
X-004Y00075D01*
X-00417*
X-00425Y00066*
Y00033*
X-00417Y00025*
X-004*
X-00392Y00033*
X-00292Y00066D02*
X-003Y00075D01*
X-00317*
X-00325Y00066*
Y00033*
X-00317Y00025*
X-003*
X-00292Y00033*
X-00192Y00066D02*
X-002Y00075D01*
X-00217*
X-00225Y00066*
Y00033*
X-00217Y00025*
X-002*
X-00192Y00033*
X-02517Y00066D02*
X-02525Y00075D01*
X-02542*
X-0255Y00066*
Y00033*
X-02542Y00025*
X-02525*
X-02517Y00033*
X-02417Y00066D02*
X-02425Y00075D01*
X-02442*
X-0245Y00066*
Y00033*
X-02442Y00025*
X-02425*
X-02417Y00033*
X-02317Y00066D02*
X-02325Y00075D01*
X-02342*
X-0235Y00066*
Y00033*
X-02342Y00025*
X-02325*
X-02317Y00033*
X-02217Y00066D02*
X-02225Y00075D01*
X-02242*
X-0225Y00066*
Y00033*
X-02242Y00025*
X-02225*
X-02217Y00033*
X-02117Y00066D02*
X-02125Y00075D01*
X-02142*
X-0215Y00066*
Y00033*
X-02142Y00025*
X-02125*
X-02117Y00033*
X-02017Y00066D02*
X-02025Y00075D01*
X-02042*
X-0205Y00066*
Y00033*
X-02042Y00025*
X-02025*
X-02017Y00033*
X-01917Y00066D02*
X-01925Y00075D01*
X-01942*
X-0195Y00066*
Y00033*
X-01942Y00025*
X-01925*
X-01917Y00033*
X-01817Y00066D02*
X-01825Y00075D01*
X-01842*
X-0185Y00066*
Y00033*
X-01842Y00025*
X-01825*
X-01817Y00033*
X-01717Y00066D02*
X-01725Y00075D01*
X-01742*
X-0175Y00066*
Y00033*
X-01742Y00025*
X-01725*
X-01717Y00033*
X-01617Y00066D02*
X-01625Y00075D01*
X-01642*
X-0165Y00066*
Y00033*
X-01642Y00025*
X-01625*
X-01617Y00033*
X-01517Y00066D02*
X-01525Y00075D01*
X-01542*
X-0155Y00066*
Y00033*
X-01542Y00025*
X-01525*
X-01517Y00033*
X-02817Y-01333D02*
X-02825Y-01325D01*
X-02842*
X-0285Y-01333*
Y-01367*
X-02842Y-01375*
X-02825*
X-02817Y-01367*
Y-01234D02*
X-02825Y-01226D01*
X-02842*
X-0285Y-01234*
Y-01267*
X-02842Y-01276*
X-02825*
X-02817Y-01267*
Y-01134D02*
X-02825Y-01125D01*
X-02842*
X-0285Y-01134*
Y-01167*
X-02842Y-01175*
X-02825*
X-02817Y-01167*
Y-01034D02*
X-02825Y-01025D01*
X-02842*
X-0285Y-01034*
Y-01067*
X-02842Y-01075*
X-02825*
X-02817Y-01067*
Y-00334D02*
X-02825Y-00326D01*
X-02842*
X-0285Y-00334*
Y-00367*
X-02842Y-00376*
X-02825*
X-02817Y-00367*
Y-00234D02*
X-02825Y-00226D01*
X-02842*
X-0285Y-00234*
Y-00267*
X-02842Y-00276*
X-02825*
X-02817Y-00267*
Y-00134D02*
X-02825Y-00125D01*
X-02842*
X-0285Y-00134*
Y-00167*
X-02842Y-00175*
X-02825*
X-02817Y-00167*
X-02567Y-01334D02*
X-02575Y-01326D01*
X-02592*
X-026Y-01334*
Y-01367*
X-02592Y-01376*
X-02575*
X-02567Y-01367*
Y-01234D02*
X-02575Y-01226D01*
X-02592*
X-026Y-01234*
Y-01267*
X-02592Y-01276*
X-02575*
X-02567Y-01267*
Y-01134D02*
X-02575Y-01125D01*
X-02592*
X-026Y-01134*
Y-01167*
X-02592Y-01175*
X-02575*
X-02567Y-01167*
Y-01034D02*
X-02575Y-01025D01*
X-02592*
X-026Y-01034*
Y-01067*
X-02592Y-01075*
X-02575*
X-02567Y-01067*
Y-00334D02*
X-02575Y-00326D01*
X-02592*
X-026Y-00334*
Y-00367*
X-02592Y-00376*
X-02575*
X-02567Y-00367*
Y-00234D02*
X-02575Y-00226D01*
X-02592*
X-026Y-00234*
Y-00267*
X-02592Y-00276*
X-02575*
X-02567Y-00267*
Y-00134D02*
X-02575Y-00125D01*
X-02592*
X-026Y-00134*
Y-00167*
X-02592Y-00175*
X-02575*
X-02567Y-00167*
X-01532Y-01083D02*
X-0154Y-01075D01*
X-01557*
X-01565Y-01083*
Y-01117*
X-01557Y-01125*
X-0154*
X-01532Y-01117*
X-01492Y-00879D02*
X-015Y-0087D01*
X-01517*
X-01525Y-00879*
Y-00912*
X-01517Y-0092*
X-015*
X-01492Y-00912*
X-02617Y00066D02*
X-02625Y00075D01*
X-02642*
X-0265Y00066*
Y00033*
X-02642Y00025*
X-02625*
X-02617Y00033*
X-02717Y00066D02*
X-02725Y00075D01*
X-02742*
X-0275Y00066*
Y00033*
X-02742Y00025*
X-02725*
X-02717Y00033*
X-01492Y-00984D02*
X-015Y-00975D01*
X-01517*
X-01525Y-00984*
Y-01017*
X-01517Y-01025*
X-015*
X-01492Y-01017*
X-01291Y-00483D02*
X-013Y-00475D01*
X-01316*
X-01325Y-00483*
Y-00517*
X-01316Y-00525*
X-013*
X-01291Y-00517*
X-01718Y-0041D02*
X-01726Y-00401D01*
X-01743*
X-01751Y-0041*
Y-00443*
X-01743Y-00451*
X-01726*
X-01718Y-00443*
X-01722Y-00383D02*
X-0173Y-00375D01*
X-01747*
X-01755Y-00383*
Y-00417*
X-01747Y-00425*
X-0173*
X-01722Y-00417*
X-01752Y-00383D02*
X-0176Y-00375D01*
X-01777*
X-01785Y-00383*
Y-00417*
X-01777Y-00425*
X-0176*
X-01752Y-00417*
X-01762Y-00358D02*
X-0177Y-0035D01*
X-01787*
X-01795Y-00358*
Y-00392*
X-01787Y-004*
X-0177*
X-01762Y-00392*
X-01767Y-00328D02*
X-01775Y-0032D01*
X-01792*
X-018Y-00328*
Y-00362*
X-01792Y-0037*
X-01775*
X-01767Y-00362*
X-01782Y-00308D02*
X-0179Y-003D01*
X-01807*
X-01815Y-00308*
Y-00342*
X-01807Y-0035*
X-0179*
X-01782Y-00342*
X-01792Y-00283D02*
X-018Y-00275D01*
X-01817*
X-01825Y-00283*
Y-00317*
X-01817Y-00325*
X-018*
X-01792Y-00317*
X-01817Y-00279D02*
X-01825Y-0027D01*
X-01842*
X-0185Y-00279*
Y-00312*
X-01842Y-0032*
X-01825*
X-01817Y-00312*
Y-00249D02*
X-01825Y-0024D01*
X-01842*
X-0185Y-00249*
Y-00282*
X-01842Y-0029*
X-01825*
X-01817Y-00282*
Y-00218D02*
X-01825Y-0021D01*
X-01842*
X-0185Y-00218*
Y-00252*
X-01842Y-0026*
X-01825*
X-01817Y-00252*
X-01511Y-00589D02*
X-0152Y-0058D01*
X-01536*
X-01545Y-00589*
Y-00622*
X-01536Y-0063*
X-0152*
X-01511Y-00622*
X-01617Y-00503D02*
X-01625Y-00495D01*
X-01642*
X-0165Y-00503*
Y-00537*
X-01642Y-00545*
X-01625*
X-01617Y-00537*
Y-00128D02*
X-01625Y-0012D01*
X-01642*
X-0165Y-00128*
Y-00161*
X-01642Y-0017*
X-01625*
X-01617Y-00161*
Y-00103D02*
X-01625Y-00095D01*
X-01642*
X-0165Y-00103*
Y-00137*
X-01642Y-00145*
X-01625*
X-01617Y-00137*
X-01592Y-00083D02*
X-016Y-00075D01*
X-01617*
X-01625Y-00083*
Y-00117*
X-01617Y-00125*
X-016*
X-01592Y-00117*
X-01777Y-00083D02*
X-01785Y-00075D01*
X-01802*
X-0181Y-00083*
Y-00117*
X-01802Y-00125*
X-01785*
X-01777Y-00117*
X-01792Y-00058D02*
X-018Y-0005D01*
X-01817*
X-01825Y-00058*
Y-00092*
X-01817Y-001*
X-018*
X-01792Y-00092*
X-01502Y-00058D02*
X-0151Y-0005D01*
X-01527*
X-01535Y-00058*
Y-00092*
X-01527Y-001*
X-0151*
X-01502Y-00092*
X-01507Y-00463D02*
X-01515Y-00455D01*
X-01532*
X-0154Y-00463*
Y-00497*
X-01532Y-00505*
X-01515*
X-01507Y-00497*
X-01508Y-00543D02*
X-01517Y-00534D01*
X-01533*
X-01542Y-00543*
Y-00576*
X-01533Y-00584*
X-01517*
X-01508Y-00576*
X-01617Y-00158D02*
X-01625Y-0015D01*
X-01642*
X-0165Y-00158*
Y-00192*
X-01642Y-002*
X-01625*
X-01617Y-00192*
X-01622Y-00183D02*
X-0163Y-00175D01*
X-01647*
X-01655Y-00183*
Y-00217*
X-01647Y-00225*
X-0163*
X-01622Y-00217*
X-01418Y-00338D02*
X-01427Y-0033D01*
X-01443*
X-01452Y-00338*
Y-00372*
X-01443Y-0038*
X-01427*
X-01418Y-00372*
X-01607Y-00459D02*
X-01615Y-0045D01*
X-01632*
X-0164Y-00459*
Y-00492*
X-01632Y-005*
X-01615*
X-01607Y-00492*
X-01291Y-00554D02*
X-013Y-00545D01*
X-01316*
X-01325Y-00554*
Y-00587*
X-01316Y-00595*
X-013*
X-01291Y-00587*
X-01292Y-00648D02*
X-013Y-0064D01*
X-01317*
X-01325Y-00648*
Y-00682*
X-01317Y-0069*
X-013*
X-01292Y-00682*
X-01467Y-01299D02*
X-01475Y-0129D01*
X-01492*
X-015Y-01299*
Y-01332*
X-01492Y-0134*
X-01475*
X-01467Y-01332*
X-02222Y-01008D02*
X-0223Y-01D01*
X-02247*
X-02255Y-01008*
Y-01042*
X-02247Y-0105*
X-0223*
X-02222Y-01042*
X-02067Y-01014D02*
X-02075Y-01005D01*
X-02092*
X-021Y-01014*
Y-01047*
X-02092Y-01055*
X-02075*
X-02067Y-01047*
X00783Y-00498D02*
X00775Y-0049D01*
X00758*
X0075Y-00498*
Y-00532*
X00758Y-0054*
X00775*
X00783Y-00532*
X0075Y-0061D02*
Y-0066D01*
X00775*
X00783Y-00652*
Y-00618*
X00775Y-0061*
X0075*
X00783Y-0073D02*
X0075D01*
Y-0078*
X00783*
X0075Y-00755D02*
X00767D01*
X0075Y-0085D02*
Y-009D01*
X00775*
X00783Y-00892*
Y-00883*
X00775Y-00875*
X0075*
X00775*
X00783Y-00867*
Y-00858*
X00775Y-0085*
X0075*
Y-0102D02*
Y-00987D01*
X00767Y-0097*
X00783Y-00987*
Y-0102*
Y-00995*
X0075*
M02*