%FSTAX23Y23*%
%MOIN*%
%SFA1B1*%

%IPPOS*%
%ADD11C,0.007000*%
%ADD15C,0.010000*%
%ADD16C,0.008000*%
%ADD17C,0.005000*%
%ADD36C,0.006000*%
%ADD37C,0.001000*%
%ADD38C,0.004000*%
%LNmb542b-1*%
%LPD*%
G54D11*
X-0205Y-00975D02*
Y-00475D01*
X-023Y-00975D02*
X-0205D01*
X-023D02*
Y-00475D01*
X-0205*
X-023Y-006D02*
X-0205D01*
X-023Y-00725D02*
X-0205D01*
X-023Y-0085D02*
X-0205D01*
X-023Y-00975D02*
X-0205D01*
X-02175D02*
Y-00475D01*
G54D15*
X0075Y-01584D02*
Y-01524D01*
X0077Y-01544*
X0079Y-01524*
Y-01584*
X0081Y-01524D02*
Y-01584D01*
X0084*
X0085Y-01574*
Y-01564*
X0084Y-01554*
X0081*
X0084*
X0085Y-01544*
Y-01534*
X0084Y-01524*
X0081*
X0091D02*
X0087D01*
Y-01554*
X0089Y-01544*
X009*
X0091Y-01554*
Y-01574*
X009Y-01584*
X0088*
X0087Y-01574*
X0096Y-01584D02*
Y-01524D01*
X0093Y-01554*
X0097*
X0103Y-01584D02*
X0099D01*
X0103Y-01544*
Y-01534*
X0102Y-01524*
X01*
X0099Y-01534*
X0105Y-01524D02*
Y-01584D01*
X0108*
X0109Y-01574*
Y-01564*
X0108Y-01554*
X0105*
X0108*
X0109Y-01544*
Y-01534*
X0108Y-01524*
X0105*
G54D16*
X-02211Y-00521D02*
X-02261D01*
X-02211D02*
Y-00542D01*
X-02213Y-0055*
X-02216Y-00552*
X-02221Y-00554*
X-02225*
X-0223Y-00552*
X-02232Y-0055*
X-02235Y-00542*
Y-00521D02*
Y-00542D01*
X-02237Y-0055*
X-0224Y-00552*
X-02244Y-00554*
X-02251*
X-02256Y-00552*
X-02259Y-0055*
X-02261Y-00542*
Y-00521*
X-02093Y-00555D02*
X-02088Y-00551D01*
X-02086Y-00543*
Y-00534*
X-02088Y-00527*
X-02093Y-00522*
X-02098*
X-02103Y-00524*
X-02105Y-00527*
X-02107Y-00532*
X-02112Y-00546*
X-02115Y-00551*
X-02117Y-00553*
X-02122Y-00555*
X-02129*
X-02134Y-00551*
X-02136Y-00543*
Y-00534*
X-02134Y-00527*
X-02129Y-00522*
G54D17*
X-0005Y-0162D02*
Y00112D01*
X-0271Y-00885D02*
X-0275D01*
X-0271D02*
Y-00902D01*
X-02712Y-00908*
X-02714Y-0091*
X-02718Y-00912*
X-02721*
X-02725Y-0091*
X-02727Y-00908*
X-02729Y-00902*
Y-00885D02*
Y-00902D01*
X-02731Y-00908*
X-02733Y-0091*
X-02737Y-00912*
X-02742*
X-02746Y-0091*
X-02748Y-00908*
X-0275Y-00902*
Y-00885*
X00007Y0008D02*
X00009Y00076D01*
X00015Y0007*
X-00025*
X00207Y0008D02*
X00209Y00076D01*
X00215Y0007*
X00175*
X-02525Y-01325D02*
D01*
X-02524Y-01331*
X-02524Y-01338*
X-02522Y-01345*
X-02521Y-01352*
X-02518Y-01359*
X-02516Y-01365*
X-02513Y-01371*
X-02509Y-01377*
X-02505Y-01383*
X-02501Y-01389*
X-02496Y-01394*
X-02491Y-01399*
X-02486Y-01403*
X-0248Y-01407*
X-02475Y-01411*
X-02468Y-01414*
X-02462Y-01417*
X-02455Y-0142*
X-02449Y-01422*
X-02442Y-01423*
X-02435Y-01424*
X-02428Y-01424*
X-02421*
X-02414Y-01424*
X-02407Y-01423*
X-024Y-01422*
X-02394Y-0142*
X-02387Y-01417*
X-02381Y-01414*
X-02374Y-01411*
X-02369Y-01407*
X-02363Y-01403*
X-02358Y-01399*
X-02353Y-01394*
X-02348Y-01389*
X-02344Y-01383*
X-0234Y-01377*
X-02336Y-01371*
X-02333Y-01365*
X-02331Y-01359*
X-02328Y-01352*
X-02327Y-01345*
X-02325Y-01338*
X-02325Y-01331*
X-02325Y-01325*
Y-002D02*
D01*
X-02325Y-00193*
X-02325Y-00186*
X-02327Y-00179*
X-02328Y-00172*
X-02331Y-00165*
X-02333Y-00159*
X-02336Y-00153*
X-0234Y-00147*
X-02344Y-00141*
X-02348Y-00135*
X-02353Y-0013*
X-02358Y-00125*
X-02363Y-00121*
X-02369Y-00117*
X-02375Y-00113*
X-02381Y-0011*
X-02387Y-00107*
X-02394Y-00104*
X-024Y-00102*
X-02407Y-00101*
X-02414Y-001*
X-02421Y-001*
X-02428*
X-02435Y-001*
X-02442Y-00101*
X-02449Y-00102*
X-02455Y-00104*
X-02462Y-00107*
X-02468Y-0011*
X-02475Y-00113*
X-0248Y-00117*
X-02486Y-00121*
X-02491Y-00125*
X-02496Y-0013*
X-02501Y-00135*
X-02505Y-00141*
X-02509Y-00147*
X-02513Y-00153*
X-02516Y-00159*
X-02518Y-00165*
X-02521Y-00172*
X-02522Y-00179*
X-02524Y-00186*
X-02524Y-00193*
X-02525Y-002*
X-02938Y-0162D02*
X0037D01*
X-02935D02*
Y0011D01*
X-02325Y-01325D02*
Y-00205D01*
X-02525Y-01325D02*
Y-002D01*
X0037Y-0162D02*
Y00112D01*
Y-0162D03*
X-02935Y0011D02*
X0037Y00112D01*
G54D36*
X0015Y0005D02*
X0035D01*
Y-0035D02*
Y0005D01*
X0015Y-0035D02*
X0035D01*
X0015Y-0095D02*
X0035D01*
Y-0135D02*
Y-0095D01*
X0015Y-0135D02*
X0035D01*
X0015D02*
Y-0105D01*
Y0005*
X-0005Y-0105D02*
Y0005D01*
Y-0105D02*
X0015D01*
X-0005Y0005D02*
X0015D01*
X-0005Y-0005D02*
X0005D01*
Y0005*
G54D37*
X-02666Y-00671D02*
Y-00654D01*
Y-00469D02*
Y-00426D01*
Y-00406D02*
Y-00388D01*
Y-00343D02*
Y-00325D01*
X-02667Y-00674D02*
Y-00651D01*
Y-00614D02*
Y-00605D01*
Y-00553D02*
Y-0051D01*
Y-00473D02*
Y-00426D01*
Y-00406D02*
Y-00388D01*
Y-00343D02*
Y-00325D01*
X-02668Y-00676D02*
Y-00648D01*
Y-00614D02*
Y-00604D01*
Y-00553D02*
Y-0051D01*
Y-00475D02*
Y-00426D01*
Y-00406D02*
Y-00388D01*
Y-00344D02*
Y-00325D01*
X-02669Y-00678D02*
Y-00646D01*
Y-00614D02*
Y-00604D01*
Y-00553D02*
Y-0051D01*
Y-00477D02*
Y-00426D01*
Y-00406D02*
Y-00387D01*
Y-00344D02*
Y-00325D01*
X-0267Y-0068D02*
Y-00645D01*
Y-00614D02*
Y-00603D01*
Y-00553D02*
Y-0051D01*
Y-00478D02*
Y-00426D01*
Y-00406D02*
Y-00387D01*
Y-00344D02*
Y-00325D01*
X-02671Y-00681D02*
Y-00643D01*
Y-00614D02*
Y-00602D01*
Y-00553D02*
Y-0051D01*
Y-0048D02*
Y-00426D01*
Y-00406D02*
Y-00387D01*
Y-00344D02*
Y-00325D01*
X-02672Y-00682D02*
Y-00642D01*
Y-00614D02*
Y-00601D01*
Y-00553D02*
Y-00509D01*
Y-00481D02*
Y-00426D01*
Y-00406D02*
Y-00386D01*
Y-00345D02*
Y-00325D01*
X-02673Y-00683D02*
Y-00641D01*
Y-00614D02*
Y-006D01*
Y-00553D02*
Y-00509D01*
Y-00482D02*
Y-00426D01*
Y-00406D02*
Y-00386D01*
Y-00345D02*
Y-00325D01*
X-02674Y-00684D02*
Y-0064D01*
Y-00614D02*
Y-006D01*
Y-00553D02*
Y-00509D01*
Y-00483D02*
Y-00426D01*
Y-00406D02*
Y-00386D01*
Y-00345D02*
Y-00325D01*
X-02675Y-00685D02*
Y-0064D01*
Y-00614D02*
Y-00599D01*
Y-00553D02*
Y-00509D01*
Y-00483D02*
Y-00426D01*
Y-00406D02*
Y-00385D01*
Y-00346D02*
Y-00325D01*
X-02676Y-00685D02*
Y-00665D01*
Y-0066D02*
Y-00639D01*
Y-00614D02*
Y-00598D01*
Y-00553D02*
Y-00509D01*
Y-00484D02*
Y-0046D01*
Y-00437D02*
Y-00426D01*
Y-00406D02*
Y-00385D01*
Y-00346D02*
Y-00325D01*
X-02677Y-00686D02*
Y-00669D01*
Y-00655D02*
Y-00638D01*
Y-00614D02*
Y-00597D01*
Y-00553D02*
Y-00508D01*
Y-00485D02*
Y-00468D01*
Y-00437D02*
Y-00426D01*
Y-00406D02*
Y-00385D01*
Y-00346D02*
Y-00325D01*
X-02678Y-00687D02*
Y-00671D01*
Y-00653D02*
Y-00638D01*
Y-00614D02*
Y-00596D01*
Y-0052D02*
Y-00508D01*
Y-00485D02*
Y-0047D01*
Y-00437D02*
Y-00426D01*
Y-00406D02*
Y-00384D01*
Y-00347D02*
Y-00325D01*
X-02679Y-00687D02*
Y-00672D01*
Y-00652D02*
Y-00637D01*
Y-00614D02*
Y-00596D01*
Y-0052D02*
Y-00508D01*
Y-00486D02*
Y-00472D01*
Y-00437D02*
Y-00426D01*
Y-00406D02*
Y-00384D01*
Y-00347D02*
Y-00325D01*
X-0268Y-00688D02*
Y-00674D01*
Y-0065D02*
Y-00637D01*
Y-00614D02*
Y-00595D01*
Y-0052D02*
Y-00508D01*
Y-00486D02*
Y-00473D01*
Y-00437D02*
Y-00426D01*
Y-00406D02*
Y-00384D01*
Y-00347D02*
Y-00325D01*
X-02681Y-00688D02*
Y-00675D01*
Y-0065D02*
Y-00636D01*
Y-00614D02*
Y-00594D01*
Y-0052D02*
Y-00508D01*
Y-00486D02*
Y-00473D01*
Y-00437D02*
Y-00426D01*
Y-00406D02*
Y-00383D01*
Y-00348D02*
Y-00325D01*
X-02682Y-00688D02*
Y-00675D01*
Y-00649D02*
Y-00636D01*
Y-00614D02*
Y-00593D01*
Y-00519D02*
Y-00507D01*
Y-00487D02*
Y-00474D01*
Y-00437D02*
Y-00426D01*
Y-00406D02*
Y-00395D01*
Y-00394D02*
Y-00383D01*
Y-00348D02*
Y-00337D01*
Y-00336D02*
Y-00325D01*
X-02683Y-00689D02*
Y-00676D01*
Y-00648D02*
Y-00636D01*
Y-00614D02*
Y-00592D01*
Y-00519D02*
Y-00507D01*
Y-00487D02*
Y-00474D01*
Y-00437D02*
Y-00426D01*
Y-00406D02*
Y-00395D01*
Y-00394D02*
Y-00383D01*
Y-00348D02*
Y-00337D01*
Y-00336D02*
Y-00325D01*
X-02684Y-00689D02*
Y-00676D01*
Y-00648D02*
Y-00636D01*
Y-00614D02*
Y-00592D01*
Y-00519D02*
Y-00507D01*
Y-00487D02*
Y-00475D01*
Y-00437D02*
Y-00426D01*
Y-00406D02*
Y-00395D01*
Y-00394D02*
Y-00383D01*
Y-00349D02*
Y-00337D01*
Y-00336D02*
Y-00325D01*
X-02685Y-00689D02*
Y-00677D01*
Y-00647D02*
Y-00635D01*
Y-00614D02*
Y-00591D01*
Y-00519D02*
Y-00507D01*
Y-00487D02*
Y-00475D01*
Y-00437D02*
Y-00426D01*
Y-00406D02*
Y-00395D01*
Y-00393D02*
Y-00382D01*
Y-00349D02*
Y-00338D01*
Y-00336D02*
Y-00325D01*
X-02686Y-00689D02*
Y-00677D01*
Y-00647D02*
Y-00635D01*
Y-00614D02*
Y-0059D01*
Y-00519D02*
Y-00507D01*
Y-00487D02*
Y-00475D01*
Y-00437D02*
Y-00426D01*
Y-00406D02*
Y-00395D01*
Y-00393D02*
Y-00382D01*
Y-00349D02*
Y-00338D01*
Y-00336D02*
Y-00325D01*
X-02687Y-00689D02*
Y-00677D01*
Y-00647D02*
Y-00635D01*
Y-00614D02*
Y-00589D01*
Y-00518D02*
Y-00506D01*
Y-00487D02*
Y-00476D01*
Y-00437D02*
Y-00426D01*
Y-00406D02*
Y-00395D01*
Y-00393D02*
Y-00382D01*
Y-0035D02*
Y-00338D01*
Y-00336D02*
Y-00325D01*
X-02688Y-00689D02*
Y-00678D01*
Y-00647D02*
Y-00635D01*
Y-00614D02*
Y-00588D01*
Y-00518D02*
Y-00506D01*
Y-00487D02*
Y-00476D01*
Y-00437D02*
Y-00426D01*
Y-00406D02*
Y-00395D01*
Y-00392D02*
Y-00381D01*
Y-0035D02*
Y-00339D01*
Y-00336D02*
Y-00325D01*
X-02689Y-00689D02*
Y-00678D01*
Y-00646D02*
Y-00635D01*
Y-00614D02*
Y-00603D01*
Y-00602D02*
Y-00588D01*
Y-00518D02*
Y-00506D01*
Y-00487D02*
Y-00476D01*
Y-00437D02*
Y-00426D01*
Y-00406D02*
Y-00395D01*
Y-00392D02*
Y-00381D01*
Y-0035D02*
Y-00339D01*
Y-00336D02*
Y-00325D01*
X-0269Y-00689D02*
Y-00678D01*
Y-00646D02*
Y-00636D01*
Y-00614D02*
Y-00603D01*
Y-00602D02*
Y-00587D01*
Y-00518D02*
Y-00506D01*
Y-00487D02*
Y-00476D01*
Y-00437D02*
Y-00426D01*
Y-00406D02*
Y-00395D01*
Y-00392D02*
Y-00381D01*
Y-0035D02*
Y-00339D01*
Y-00336D02*
Y-00325D01*
X-02691Y-00689D02*
Y-00678D01*
Y-00614D02*
Y-00603D01*
Y-00601D02*
Y-00586D01*
Y-00518D02*
Y-00506D01*
Y-00487D02*
Y-00475D01*
Y-00437D02*
Y-00426D01*
Y-00406D02*
Y-00395D01*
Y-00391D02*
Y-0038D01*
Y-00351D02*
Y-0034D01*
Y-00336D02*
Y-00325D01*
X-02692Y-00689D02*
Y-00677D01*
Y-00614D02*
Y-00603D01*
Y-006D02*
Y-00585D01*
Y-00517D02*
Y-00505D01*
Y-00487D02*
Y-00475D01*
Y-00437D02*
Y-00426D01*
Y-00406D02*
Y-00395D01*
Y-00391D02*
Y-0038D01*
Y-00351D02*
Y-0034D01*
Y-00336D02*
Y-00325D01*
X-02693Y-00689D02*
Y-00677D01*
Y-00614D02*
Y-00603D01*
Y-00599D02*
Y-00585D01*
Y-00517D02*
Y-00505D01*
Y-00487D02*
Y-00475D01*
Y-00437D02*
Y-00426D01*
Y-00406D02*
Y-00395D01*
Y-00391D02*
Y-0038D01*
Y-00351D02*
Y-0034D01*
Y-00336D02*
Y-00325D01*
X-02694Y-00689D02*
Y-00677D01*
Y-00614D02*
Y-00603D01*
Y-00598D02*
Y-00584D01*
Y-00517D02*
Y-00505D01*
Y-00486D02*
Y-00475D01*
Y-00437D02*
Y-00426D01*
Y-00406D02*
Y-00395D01*
Y-00391D02*
Y-00379D01*
Y-00352D02*
Y-0034D01*
Y-00336D02*
Y-00325D01*
X-02695Y-00689D02*
Y-00677D01*
Y-00614D02*
Y-00603D01*
Y-00598D02*
Y-00583D01*
Y-00539D02*
Y-00525D01*
Y-00517D02*
Y-00505D01*
Y-00486D02*
Y-00474D01*
Y-00437D02*
Y-00426D01*
Y-00406D02*
Y-00395D01*
Y-0039D02*
Y-00379D01*
Y-00352D02*
Y-00341D01*
Y-00336D02*
Y-00325D01*
X-02696Y-00689D02*
Y-00676D01*
Y-00614D02*
Y-00603D01*
Y-00597D02*
Y-00582D01*
Y-00542D02*
Y-00522D01*
Y-00517D02*
Y-00505D01*
Y-00485D02*
Y-00473D01*
Y-00437D02*
Y-00426D01*
Y-00406D02*
Y-00395D01*
Y-0039D02*
Y-00379D01*
Y-00352D02*
Y-00341D01*
Y-00336D02*
Y-00325D01*
X-02697Y-00688D02*
Y-00676D01*
Y-00614D02*
Y-00603D01*
Y-00596D02*
Y-00581D01*
Y-00544D02*
Y-0052D01*
Y-00516D02*
Y-00504D01*
Y-00485D02*
Y-00473D01*
Y-00437D02*
Y-00426D01*
Y-00406D02*
Y-00395D01*
Y-0039D02*
Y-00378D01*
Y-00353D02*
Y-00341D01*
Y-00336D02*
Y-00325D01*
X-02698Y-00688D02*
Y-00675D01*
Y-00614D02*
Y-00603D01*
Y-00595D02*
Y-00581D01*
Y-00546D02*
Y-00518D01*
Y-00516D02*
Y-00504D01*
Y-00484D02*
Y-00471D01*
Y-00437D02*
Y-00426D01*
Y-00406D02*
Y-00395D01*
Y-00389D02*
Y-00378D01*
Y-00353D02*
Y-00342D01*
Y-00336D02*
Y-00325D01*
X-02699Y-00688D02*
Y-00675D01*
Y-00614D02*
Y-00603D01*
Y-00594D02*
Y-0058D01*
Y-00547D02*
Y-00517D01*
Y-00516D02*
Y-00504D01*
Y-00484D02*
Y-0047D01*
Y-00437D02*
Y-00426D01*
Y-00406D02*
Y-00395D01*
Y-00389D02*
Y-00378D01*
Y-00353D02*
Y-00342D01*
Y-00336D02*
Y-00325D01*
X-027Y-00687D02*
Y-00674D01*
Y-00614D02*
Y-00603D01*
Y-00594D02*
Y-00579D01*
Y-00548D02*
Y-00504D01*
Y-00483D02*
Y-00467D01*
Y-00437D02*
Y-00426D01*
Y-00406D02*
Y-00395D01*
Y-00389D02*
Y-00377D01*
Y-00354D02*
Y-00342D01*
Y-00336D02*
Y-00325D01*
X-02701Y-00687D02*
Y-00673D01*
Y-00614D02*
Y-00603D01*
Y-00593D02*
Y-00578D01*
Y-0055D02*
Y-00504D01*
Y-00482D02*
Y-00461D01*
Y-00437D02*
Y-00426D01*
Y-00406D02*
Y-00395D01*
Y-00388D02*
Y-00377D01*
Y-00354D02*
Y-00343D01*
Y-00336D02*
Y-00325D01*
X-0271Y-00791D02*
Y-00765D01*
X-02702Y-00686D02*
Y-00672D01*
Y-00614D02*
Y-00603D01*
Y-00592D02*
Y-00577D01*
Y-00551D02*
Y-00503D01*
Y-00481D02*
Y-00426D01*
Y-00406D02*
Y-00395D01*
Y-00388D02*
Y-00377D01*
Y-00354D02*
Y-00343D01*
Y-00336D02*
Y-00325D01*
X-02711Y-00793D02*
Y-00765D01*
X-02703Y-00686D02*
Y-00672D01*
Y-00614D02*
Y-00603D01*
Y-00591D02*
Y-00577D01*
Y-00552D02*
Y-00503D01*
Y-0048D02*
Y-00426D01*
Y-00406D02*
Y-00395D01*
Y-00388D02*
Y-00376D01*
Y-00355D02*
Y-00343D01*
Y-00336D02*
Y-00325D01*
X-02712Y-00795D02*
Y-00765D01*
X-02704Y-00685D02*
Y-00671D01*
Y-00614D02*
Y-00603D01*
Y-00591D02*
Y-00576D01*
Y-00552D02*
Y-00503D01*
Y-00478D02*
Y-00426D01*
Y-00406D02*
Y-00395D01*
Y-00387D02*
Y-00376D01*
Y-00355D02*
Y-00344D01*
Y-00336D02*
Y-00325D01*
X-02713Y-00795D02*
Y-00765D01*
X-02705Y-00685D02*
Y-0067D01*
Y-00614D02*
Y-00603D01*
Y-0059D02*
Y-00575D01*
Y-00553D02*
Y-00531D01*
Y-00526D02*
Y-00503D01*
Y-00477D02*
Y-00426D01*
Y-00406D02*
Y-00395D01*
Y-00387D02*
Y-00376D01*
Y-00355D02*
Y-00344D01*
Y-00336D02*
Y-00325D01*
X-02714Y-00796D02*
Y-00765D01*
X-02706Y-00684D02*
Y-00669D01*
Y-00614D02*
Y-00603D01*
Y-00589D02*
Y-00574D01*
Y-00554D02*
Y-00536D01*
Y-00521D02*
Y-00503D01*
Y-00478D02*
Y-00426D01*
Y-00406D02*
Y-00395D01*
Y-00387D02*
Y-00375D01*
Y-00356D02*
Y-00344D01*
Y-00336D02*
Y-00325D01*
X-02715Y-00797D02*
Y-00786D01*
Y-00771D02*
Y-00765D01*
X-02707Y-00683D02*
Y-00668D01*
Y-00614D02*
Y-00603D01*
Y-00588D02*
Y-00573D01*
Y-00555D02*
Y-00538D01*
Y-00519D02*
Y-00502D01*
Y-0048D02*
Y-00426D01*
Y-00406D02*
Y-00395D01*
Y-00386D02*
Y-00375D01*
Y-00356D02*
Y-00345D01*
Y-00336D02*
Y-00325D01*
X-02716Y-00797D02*
Y-00789D01*
Y-00771D02*
Y-00765D01*
X-02708Y-00682D02*
Y-00667D01*
Y-00614D02*
Y-00603D01*
Y-00587D02*
Y-00573D01*
Y-00555D02*
Y-0054D01*
Y-00517D02*
Y-00502D01*
Y-00481D02*
Y-00426D01*
Y-00406D02*
Y-00395D01*
Y-00386D02*
Y-00375D01*
Y-00356D02*
Y-00345D01*
Y-00336D02*
Y-00325D01*
X-02717Y-00798D02*
Y-0079D01*
Y-00771D02*
Y-00765D01*
X-02709Y-00682D02*
Y-00666D01*
Y-00614D02*
Y-00603D01*
Y-00587D02*
Y-00572D01*
Y-00556D02*
Y-00541D01*
Y-00516D02*
Y-00502D01*
Y-00483D02*
Y-00426D01*
Y-00406D02*
Y-00395D01*
Y-00386D02*
Y-00375D01*
Y-00357D02*
Y-00345D01*
Y-00336D02*
Y-00325D01*
X-02718Y-00798D02*
Y-00791D01*
Y-00771D02*
Y-00765D01*
X-0271Y-00681D02*
Y-00665D01*
Y-00614D02*
Y-00603D01*
Y-00586D02*
Y-00571D01*
Y-00556D02*
Y-00542D01*
Y-00515D02*
Y-00502D01*
Y-00484D02*
Y-00426D01*
Y-00406D02*
Y-00395D01*
Y-00385D02*
Y-00374D01*
Y-00357D02*
Y-00346D01*
Y-00336D02*
Y-00325D01*
X-02719Y-00798D02*
Y-00791D01*
Y-00771D02*
Y-00765D01*
X-02711Y-0068D02*
Y-00664D01*
Y-00614D02*
Y-00603D01*
Y-00585D02*
Y-0057D01*
Y-00556D02*
Y-00543D01*
Y-00514D02*
Y-00503D01*
Y-00485D02*
Y-00426D01*
Y-00406D02*
Y-00395D01*
Y-00385D02*
Y-00374D01*
Y-00357D02*
Y-00346D01*
Y-00336D02*
Y-00325D01*
X-0272Y-00798D02*
Y-00791D01*
Y-00771D02*
Y-00765D01*
X-02712Y-00679D02*
Y-00663D01*
Y-00614D02*
Y-00603D01*
Y-00584D02*
Y-00569D01*
Y-00557D02*
Y-00544D01*
Y-00486D02*
Y-00462D01*
Y-00437D02*
Y-00426D01*
Y-00406D02*
Y-00395D01*
Y-00385D02*
Y-00374D01*
Y-00357D02*
Y-00346D01*
Y-00336D02*
Y-00325D01*
X-02721Y-00825D02*
Y-00814D01*
Y-00798D02*
Y-00792D01*
Y-00771D02*
Y-00765D01*
X-02713Y-00678D02*
Y-00662D01*
Y-00614D02*
Y-00603D01*
Y-00583D02*
Y-00569D01*
Y-00557D02*
Y-00544D01*
Y-00486D02*
Y-00469D01*
Y-00437D02*
Y-00426D01*
Y-00406D02*
Y-00395D01*
Y-00384D02*
Y-00373D01*
Y-00358D02*
Y-00346D01*
Y-00336D02*
Y-00325D01*
X-02722Y-00866D02*
Y-0086D01*
Y-00843D02*
Y-00837D01*
Y-00827D02*
Y-00812D01*
Y-00798D02*
Y-00792D01*
Y-00771D02*
Y-00765D01*
X-02714Y-00677D02*
Y-00661D01*
Y-00614D02*
Y-00603D01*
Y-00583D02*
Y-00568D01*
Y-00557D02*
Y-00545D01*
Y-00487D02*
Y-00472D01*
Y-00437D02*
Y-00426D01*
Y-00406D02*
Y-00395D01*
Y-00384D02*
Y-00373D01*
Y-00358D02*
Y-00347D01*
Y-00336D02*
Y-00325D01*
X-02723Y-00866D02*
Y-0086D01*
Y-00843D02*
Y-00837D01*
Y-00829D02*
Y-00811D01*
Y-00798D02*
Y-00791D01*
Y-00771D02*
Y-00765D01*
X-02715Y-00676D02*
Y-00659D01*
Y-00614D02*
Y-00603D01*
Y-00582D02*
Y-00567D01*
Y-00558D02*
Y-00545D01*
Y-00488D02*
Y-00473D01*
Y-00437D02*
Y-00426D01*
Y-00406D02*
Y-00395D01*
Y-00384D02*
Y-00373D01*
Y-00358D02*
Y-00347D01*
Y-00336D02*
Y-00325D01*
X-02724Y-00865D02*
Y-00859D01*
Y-00844D02*
Y-00838D01*
Y-0083D02*
Y-00809D01*
Y-00798D02*
Y-00791D01*
Y-00771D02*
Y-00765D01*
X-02716Y-00675D02*
Y-00658D01*
Y-00614D02*
Y-00603D01*
Y-00581D02*
Y-00566D01*
Y-00558D02*
Y-00546D01*
Y-00488D02*
Y-00475D01*
Y-00437D02*
Y-00426D01*
Y-00406D02*
Y-00395D01*
Y-00384D02*
Y-00372D01*
Y-00359D02*
Y-00347D01*
Y-00336D02*
Y-00325D01*
X-02725Y-00865D02*
Y-00859D01*
Y-00844D02*
Y-00838D01*
Y-00831D02*
Y-00809D01*
Y-00798D02*
Y-00791D01*
Y-00771D02*
Y-00765D01*
X-02717Y-00674D02*
Y-00657D01*
Y-00614D02*
Y-00603D01*
Y-0058D02*
Y-00566D01*
Y-00558D02*
Y-00546D01*
Y-00489D02*
Y-00476D01*
Y-00437D02*
Y-00426D01*
Y-00406D02*
Y-00395D01*
Y-00383D02*
Y-00372D01*
Y-00359D02*
Y-00348D01*
Y-00336D02*
Y-00325D01*
X-02726Y-00865D02*
Y-00859D01*
Y-00844D02*
Y-00838D01*
Y-00831D02*
Y-00821D01*
Y-00818D02*
Y-00808D01*
Y-00798D02*
Y-0079D01*
Y-00771D02*
Y-00765D01*
X-02718Y-00673D02*
Y-00656D01*
Y-00614D02*
Y-00603D01*
Y-00579D02*
Y-00565D01*
Y-00558D02*
Y-00546D01*
Y-00489D02*
Y-00476D01*
Y-00437D02*
Y-00426D01*
Y-00406D02*
Y-00395D01*
Y-00383D02*
Y-00372D01*
Y-00359D02*
Y-00348D01*
Y-00336D02*
Y-00325D01*
X-02727Y-00864D02*
Y-00858D01*
Y-00845D02*
Y-00839D01*
Y-00832D02*
Y-00825D01*
Y-00815D02*
Y-00807D01*
Y-00797D02*
Y-00789D01*
Y-00771D02*
Y-00765D01*
X-02719Y-00672D02*
Y-00655D01*
Y-00614D02*
Y-00603D01*
Y-00579D02*
Y-00564D01*
Y-00558D02*
Y-00546D01*
Y-00489D02*
Y-00477D01*
Y-00437D02*
Y-00426D01*
Y-00406D02*
Y-00395D01*
Y-00383D02*
Y-00371D01*
Y-0036D02*
Y-00348D01*
Y-00336D02*
Y-00325D01*
X-02728Y-00864D02*
Y-00858D01*
Y-00845D02*
Y-00839D01*
Y-00833D02*
Y-00826D01*
Y-00813D02*
Y-00806D01*
Y-00797D02*
Y-00785D01*
Y-00771D02*
Y-00765D01*
X-0272Y-00671D02*
Y-00653D01*
Y-00625D02*
Y-00564D01*
Y-00558D02*
Y-00546D01*
Y-0049D02*
Y-00477D01*
Y-00437D02*
Y-00426D01*
Y-00406D02*
Y-00395D01*
Y-00382D02*
Y-00371D01*
Y-0036D02*
Y-00349D01*
Y-00336D02*
Y-00325D01*
X-02729Y-00864D02*
Y-00857D01*
Y-00846D02*
Y-00839D01*
Y-00833D02*
Y-00827D01*
Y-00812D02*
Y-00806D01*
Y-00796D02*
Y-00765D01*
X-02721Y-0067D02*
Y-00652D01*
Y-00625D02*
Y-00564D01*
Y-00558D02*
Y-00547D01*
Y-0049D02*
Y-00478D01*
Y-00437D02*
Y-00426D01*
Y-00406D02*
Y-00395D01*
Y-00382D02*
Y-00371D01*
Y-0036D02*
Y-00349D01*
Y-00336D02*
Y-00325D01*
X-0273Y-00863D02*
Y-00857D01*
Y-00846D02*
Y-0084D01*
Y-00833D02*
Y-00828D01*
Y-00811D02*
Y-00806D01*
Y-00795D02*
Y-00765D01*
X-02722Y-00669D02*
Y-00651D01*
Y-00625D02*
Y-00564D01*
Y-00558D02*
Y-00547D01*
Y-0049D02*
Y-00478D01*
Y-00437D02*
Y-00426D01*
Y-00406D02*
Y-00395D01*
Y-00382D02*
Y-0037D01*
Y-00361D02*
Y-00349D01*
Y-00336D02*
Y-00325D01*
X-02731Y-00863D02*
Y-00857D01*
Y-00846D02*
Y-0084D01*
Y-00834D02*
Y-00828D01*
Y-00811D02*
Y-00805D01*
Y-00794D02*
Y-00765D01*
X-02723Y-00668D02*
Y-0065D01*
Y-00625D02*
Y-00564D01*
Y-00558D02*
Y-00547D01*
Y-0049D02*
Y-00478D01*
Y-00437D02*
Y-00426D01*
Y-00406D02*
Y-00395D01*
Y-00381D02*
Y-0037D01*
Y-00361D02*
Y-0035D01*
Y-00336D02*
Y-00325D01*
X-02732Y-00862D02*
Y-00856D01*
Y-00847D02*
Y-00841D01*
Y-00834D02*
Y-00828D01*
Y-00811D02*
Y-00805D01*
Y-00793D02*
Y-00765D01*
X-02724Y-00666D02*
Y-00649D01*
Y-00625D02*
Y-00564D01*
Y-00558D02*
Y-00547D01*
Y-0049D02*
Y-00478D01*
Y-00437D02*
Y-00426D01*
Y-00406D02*
Y-00395D01*
Y-00381D02*
Y-0037D01*
Y-00361D02*
Y-0035D01*
Y-00336D02*
Y-00325D01*
X-02733Y-00862D02*
Y-00856D01*
Y-00847D02*
Y-00841D01*
Y-00834D02*
Y-00829D01*
Y-0081D02*
Y-00805D01*
Y-0079D02*
Y-00765D01*
X-02725Y-00665D02*
Y-00648D01*
Y-00625D02*
Y-00564D01*
Y-00558D02*
Y-00547D01*
Y-00437D02*
Y-00426D01*
Y-00406D02*
Y-00395D01*
Y-00381D02*
Y-00369D01*
Y-00362D02*
Y-0035D01*
Y-00336D02*
Y-00325D01*
X-02734Y-00862D02*
Y-00856D01*
Y-00848D02*
Y-00841D01*
Y-00834D02*
Y-00805D01*
Y-00788D02*
Y-00779D01*
Y-00771D02*
Y-00765D01*
X-02726Y-00664D02*
Y-00647D01*
Y-00625D02*
Y-00564D01*
Y-00558D02*
Y-00546D01*
Y-0049D02*
Y-00479D01*
Y-00437D02*
Y-00426D01*
Y-00406D02*
Y-00395D01*
Y-0038D02*
Y-00369D01*
Y-00362D02*
Y-00351D01*
Y-00336D02*
Y-00325D01*
X-02735Y-00861D02*
Y-00855D01*
Y-00848D02*
Y-00842D01*
Y-00834D02*
Y-00805D01*
Y-0079D02*
Y-00782D01*
Y-00771D02*
Y-00765D01*
X-02727Y-00663D02*
Y-00646D01*
Y-00625D02*
Y-00564D01*
Y-00558D02*
Y-00546D01*
Y-0049D02*
Y-00479D01*
Y-00437D02*
Y-00426D01*
Y-00406D02*
Y-00395D01*
Y-0038D02*
Y-00369D01*
Y-00362D02*
Y-00351D01*
Y-00336D02*
Y-00325D01*
X-02736Y-00861D02*
Y-00855D01*
Y-00848D02*
Y-00842D01*
Y-00834D02*
Y-00805D01*
Y-00791D02*
Y-00783D01*
Y-00771D02*
Y-00765D01*
X-02728Y-00662D02*
Y-00645D01*
Y-00625D02*
Y-00564D01*
Y-00558D02*
Y-00546D01*
Y-00512D02*
Y-00502D01*
Y-0049D02*
Y-00479D01*
Y-00437D02*
Y-00426D01*
Y-00406D02*
Y-00395D01*
Y-0038D02*
Y-00368D01*
Y-00363D02*
Y-00351D01*
Y-00336D02*
Y-00325D01*
X-02737Y-0086D02*
Y-00854D01*
Y-00849D02*
Y-00843D01*
Y-00834D02*
Y-00805D01*
Y-00792D02*
Y-00784D01*
Y-00771D02*
Y-00765D01*
X-02729Y-0066D02*
Y-00644D01*
Y-00625D02*
Y-00564D01*
Y-00558D02*
Y-00546D01*
Y-00513D02*
Y-00501D01*
Y-0049D02*
Y-00478D01*
Y-00437D02*
Y-00426D01*
Y-00406D02*
Y-00395D01*
Y-00379D02*
Y-00368D01*
Y-00363D02*
Y-00351D01*
Y-00336D02*
Y-00325D01*
X-02738Y-0086D02*
Y-00854D01*
Y-00849D02*
Y-00843D01*
Y-00834D02*
Y-00805D01*
Y-00793D02*
Y-00785D01*
Y-00771D02*
Y-00765D01*
X-0273Y-00659D02*
Y-00643D01*
Y-00625D02*
Y-00564D01*
Y-00558D02*
Y-00546D01*
Y-00513D02*
Y-00501D01*
Y-0049D02*
Y-00478D01*
Y-00437D02*
Y-00426D01*
Y-00406D02*
Y-00395D01*
Y-00379D02*
Y-00368D01*
Y-00363D02*
Y-00352D01*
Y-00336D02*
Y-00325D01*
X-02739Y-0086D02*
Y-00854D01*
Y-00849D02*
Y-00843D01*
Y-0081D02*
Y-00805D01*
Y-00793D02*
Y-00786D01*
Y-00771D02*
Y-00765D01*
X-02731Y-00658D02*
Y-00642D01*
Y-00614D02*
Y-00603D01*
Y-00557D02*
Y-00545D01*
Y-00513D02*
Y-00501D01*
Y-0049D02*
Y-00478D01*
Y-00437D02*
Y-00426D01*
Y-00406D02*
Y-00395D01*
Y-00379D02*
Y-00368D01*
Y-00363D02*
Y-00352D01*
Y-00336D02*
Y-00325D01*
X-0274Y-00859D02*
Y-00853D01*
Y-0085D02*
Y-00844D01*
Y-00811D02*
Y-00805D01*
Y-00794D02*
Y-00786D01*
Y-00771D02*
Y-00765D01*
X-02732Y-00657D02*
Y-00641D01*
Y-00614D02*
Y-00603D01*
Y-00557D02*
Y-00545D01*
Y-00514D02*
Y-00501D01*
Y-0049D02*
Y-00478D01*
Y-00437D02*
Y-00426D01*
Y-00406D02*
Y-00395D01*
Y-00378D02*
Y-00367D01*
Y-00364D02*
Y-00352D01*
Y-00336D02*
Y-00325D01*
X-02741Y-00859D02*
Y-00853D01*
Y-0085D02*
Y-00844D01*
Y-00811D02*
Y-00805D01*
Y-00795D02*
Y-00787D01*
Y-00771D02*
Y-00765D01*
X-02733Y-00656D02*
Y-0064D01*
Y-00614D02*
Y-00603D01*
Y-00557D02*
Y-00544D01*
Y-00514D02*
Y-00501D01*
Y-0049D02*
Y-00477D01*
Y-00437D02*
Y-00426D01*
Y-00406D02*
Y-00395D01*
Y-00378D02*
Y-00367D01*
Y-00364D02*
Y-00353D01*
Y-00336D02*
Y-00325D01*
X-02742Y-00859D02*
Y-00852D01*
Y-00851D02*
Y-00845D01*
Y-00811D02*
Y-00805D01*
Y-00795D02*
Y-00788D01*
Y-00771D02*
Y-00765D01*
X-02734Y-00654D02*
Y-0064D01*
Y-00614D02*
Y-00603D01*
Y-00556D02*
Y-00544D01*
Y-00514D02*
Y-00502D01*
Y-00489D02*
Y-00477D01*
Y-00437D02*
Y-00426D01*
Y-00406D02*
Y-00395D01*
Y-00378D02*
Y-00367D01*
Y-00364D02*
Y-00353D01*
Y-00336D02*
Y-00325D01*
X-02743Y-00858D02*
Y-00852D01*
Y-00851D02*
Y-00845D01*
Y-00833D02*
Y-00828D01*
Y-00811D02*
Y-00805D01*
Y-00796D02*
Y-00788D01*
Y-00771D02*
Y-00765D01*
X-02735Y-00653D02*
Y-00639D01*
Y-00614D02*
Y-00603D01*
Y-00556D02*
Y-00543D01*
Y-00515D02*
Y-00502D01*
Y-00489D02*
Y-00476D01*
Y-00437D02*
Y-00426D01*
Y-00406D02*
Y-00395D01*
Y-00378D02*
Y-00366D01*
Y-00365D02*
Y-00353D01*
Y-00336D02*
Y-00325D01*
X-02744Y-00858D02*
Y-00852D01*
Y-00851D02*
Y-00845D01*
Y-00834D02*
Y-00828D01*
Y-00812D02*
Y-00806D01*
Y-00797D02*
Y-00789D01*
Y-00771D02*
Y-00765D01*
X-02736Y-00652D02*
Y-00638D01*
Y-00614D02*
Y-00603D01*
Y-00555D02*
Y-00543D01*
Y-00516D02*
Y-00502D01*
Y-00489D02*
Y-00475D01*
Y-00437D02*
Y-00426D01*
Y-00406D02*
Y-00395D01*
Y-00377D02*
Y-00366D01*
Y-00365D02*
Y-00354D01*
Y-00336D02*
Y-00325D01*
X-02745Y-00857D02*
Y-00846D01*
Y-00834D02*
Y-00827D01*
Y-00813D02*
Y-00806D01*
Y-00797D02*
Y-00789D01*
Y-00771D02*
Y-00765D01*
X-02737Y-00651D02*
Y-00638D01*
Y-00614D02*
Y-00603D01*
Y-00555D02*
Y-00542D01*
Y-00516D02*
Y-00503D01*
Y-00488D02*
Y-00475D01*
Y-00437D02*
Y-00426D01*
Y-00406D02*
Y-00395D01*
Y-00377D02*
Y-00366D01*
Y-00365D02*
Y-00354D01*
Y-00336D02*
Y-00325D01*
X-02746Y-00857D02*
Y-00846D01*
Y-00833D02*
Y-00826D01*
Y-00814D02*
Y-00806D01*
Y-00798D02*
Y-0079D01*
Y-00771D02*
Y-00765D01*
X-02738Y-0065D02*
Y-00637D01*
Y-00614D02*
Y-00603D01*
Y-00554D02*
Y-00541D01*
Y-00517D02*
Y-00503D01*
Y-00488D02*
Y-00473D01*
Y-00437D02*
Y-00426D01*
Y-00406D02*
Y-00395D01*
Y-00377D02*
Y-00354D01*
Y-00336D02*
Y-00325D01*
X-02747Y-00857D02*
Y-00846D01*
Y-00833D02*
Y-00825D01*
Y-00815D02*
Y-00807D01*
Y-00799D02*
Y-00791D01*
Y-00771D02*
Y-00765D01*
X-02739Y-0065D02*
Y-00637D01*
Y-00614D02*
Y-00603D01*
Y-00554D02*
Y-00539D01*
Y-00518D02*
Y-00504D01*
Y-00487D02*
Y-00472D01*
Y-00437D02*
Y-00426D01*
Y-00406D02*
Y-00395D01*
Y-00376D02*
Y-00355D01*
Y-00336D02*
Y-00325D01*
X-02748Y-00877D02*
Y-00872D01*
Y-00856D02*
Y-00847D01*
Y-00832D02*
Y-00822D01*
Y-00818D02*
Y-00808D01*
Y-00799D02*
Y-00791D01*
Y-00771D02*
Y-00765D01*
X-0274Y-00649D02*
Y-00636D01*
Y-00614D02*
Y-00603D01*
Y-00553D02*
Y-00538D01*
Y-0052D02*
Y-00504D01*
Y-00487D02*
Y-00469D01*
Y-00437D02*
Y-00426D01*
Y-00406D02*
Y-00395D01*
Y-00376D02*
Y-00355D01*
Y-00336D02*
Y-00325D01*
X-02749Y-00877D02*
Y-00872D01*
Y-00856D02*
Y-00847D01*
Y-00832D02*
Y-00808D01*
Y-008D02*
Y-00792D01*
Y-00771D02*
Y-00765D01*
X-02741Y-0069D02*
Y-00636D01*
Y-00614D02*
Y-00603D01*
Y-00553D02*
Y-00536D01*
Y-00522D02*
Y-00505D01*
Y-00486D02*
Y-00463D01*
Y-00437D02*
Y-00426D01*
Y-00406D02*
Y-00395D01*
Y-00376D02*
Y-00355D01*
Y-00336D02*
Y-00325D01*
X-0275Y-00877D02*
Y-00872D01*
Y-00855D02*
Y-00848D01*
Y-00831D02*
Y-00809D01*
Y-008D02*
Y-00793D01*
Y-00771D02*
Y-00765D01*
X-02742Y-0069D02*
Y-00635D01*
Y-00614D02*
Y-00603D01*
Y-00552D02*
Y-00531D01*
Y-00526D02*
Y-00505D01*
Y-00485D02*
Y-00426D01*
Y-00406D02*
Y-00395D01*
Y-00375D02*
Y-00356D01*
Y-00336D02*
Y-00325D01*
X-02751Y-00877D02*
Y-00872D01*
Y-00855D02*
Y-00848D01*
Y-00829D02*
Y-0081D01*
Y-00801D02*
Y-00793D01*
Y-00771D02*
Y-00765D01*
X-02743Y-0069D02*
Y-00635D01*
Y-00614D02*
Y-00603D01*
Y-00551D02*
Y-00506D01*
Y-00485D02*
Y-00426D01*
Y-00406D02*
Y-00395D01*
Y-00375D02*
Y-00356D01*
Y-00336D02*
Y-00325D01*
X-02752Y-00877D02*
Y-00872D01*
Y-00855D02*
Y-00848D01*
Y-00828D02*
Y-00812D01*
Y-00802D02*
Y-00794D01*
Y-00771D02*
Y-00765D01*
X-02744Y-0069D02*
Y-00635D01*
Y-00614D02*
Y-00603D01*
Y-0055D02*
Y-00507D01*
Y-00484D02*
Y-00426D01*
Y-00406D02*
Y-00395D01*
Y-00375D02*
Y-00356D01*
Y-00336D02*
Y-00325D01*
X-02753Y-00826D02*
Y-00814D01*
X-02745Y-0069D02*
Y-00634D01*
Y-00614D02*
Y-00603D01*
Y-00549D02*
Y-00508D01*
Y-00483D02*
Y-00426D01*
Y-00406D02*
Y-00395D01*
Y-00374D02*
Y-00357D01*
Y-00336D02*
Y-00325D01*
X-02746Y-0069D02*
Y-00634D01*
Y-00614D02*
Y-00603D01*
Y-00548D02*
Y-00509D01*
Y-00482D02*
Y-00426D01*
Y-00406D02*
Y-00395D01*
Y-00374D02*
Y-00357D01*
Y-00336D02*
Y-00325D01*
X-02747Y-0069D02*
Y-00634D01*
Y-00614D02*
Y-00603D01*
Y-00547D02*
Y-0051D01*
Y-0048D02*
Y-00426D01*
Y-00406D02*
Y-00395D01*
Y-00374D02*
Y-00357D01*
Y-00336D02*
Y-00325D01*
X-02748Y-0069D02*
Y-00634D01*
Y-00614D02*
Y-00603D01*
Y-00546D02*
Y-00511D01*
Y-00479D02*
Y-00426D01*
Y-00406D02*
Y-00395D01*
Y-00373D02*
Y-00357D01*
Y-00336D02*
Y-00325D01*
X-02749Y-0069D02*
Y-00634D01*
Y-00614D02*
Y-00603D01*
Y-00544D02*
Y-00513D01*
Y-00476D02*
Y-00426D01*
Y-00406D02*
Y-00395D01*
Y-00373D02*
Y-00358D01*
Y-00336D02*
Y-00325D01*
X-0275Y-0069D02*
Y-00634D01*
Y-00614D02*
Y-00603D01*
Y-00542D02*
Y-00515D01*
Y-00474D02*
Y-00426D01*
Y-00406D02*
Y-00395D01*
Y-00373D02*
Y-00358D01*
Y-00336D02*
Y-00325D01*
X-02751Y-0069D02*
Y-00634D01*
Y-00614D02*
Y-00603D01*
Y-0054D02*
Y-00517D01*
Y-0047D02*
Y-00426D01*
Y-00406D02*
Y-00395D01*
Y-00372D02*
Y-00358D01*
Y-00336D02*
Y-00325D01*
X-02752Y-00537D02*
Y-00521D01*
X-02725Y-0049D02*
Y-00479D01*
G54D38*
X00063Y-01138D02*
X0007Y-01131D01*
Y-01118*
X00063Y-01111*
X00037*
X0003Y-01118*
Y-01131*
X00037Y-01138*
X0003Y-01151D02*
X0007D01*
X0003Y-01178*
X0007*
X0003Y-01218D02*
Y-01191D01*
X00057Y-01218*
X00063*
X0007Y-01211*
Y-01198*
X00063Y-01191*
X00268Y-00591D02*
X00275Y-00585D01*
Y-00571*
X00268Y-00565*
X00242*
X00235Y-00571*
Y-00585*
X00242Y-00591*
X00235Y-00605D02*
X00275D01*
X00235Y-00631*
X00275*
X00235Y-00645D02*
Y-00658D01*
Y-00651*
X00275*
X00268Y-00645*
M02*