%FSTAX23Y23*%
%MOIN*%
%SFA1B1*%

%IPPOS*%
%AMD12*
4,1,8,-0.008000,0.013200,-0.013200,0.008000,-0.013200,0.002600,0.002600,-0.013200,0.008000,-0.013200,0.013200,-0.008000,0.013200,-0.002600,-0.002600,0.013200,-0.008000,0.013200,0.0*
%
%AMD13*
4,1,8,-0.013200,-0.008000,-0.008000,-0.013200,-0.002600,-0.013200,0.013200,0.002600,0.013200,0.008000,0.008000,0.013200,0.002600,0.013200,-0.013200,-0.002600,-0.013200,-0.008000,0.0*
%
%AMD14*
4,1,4,-0.018400,0.000000,0.000000,-0.018400,0.018400,0.000000,0.000000,0.018400,-0.018400,0.000000,0.0*
%
%AMD15*
4,1,8,-0.013400,-0.007800,-0.007800,-0.013400,-0.002100,-0.013400,0.013400,0.002100,0.013400,0.007800,0.007800,0.013400,0.002100,0.013400,-0.013400,-0.002100,-0.013400,-0.007800,0.0*
%
%AMD16*
4,1,4,0.000000,-0.018400,0.018400,0.000000,0.000000,0.018400,-0.018400,0.000000,0.000000,-0.018400,0.0*
%
%AMD17*
4,1,8,0.007800,-0.013400,0.013400,-0.007800,0.013400,-0.002100,-0.002100,0.013400,-0.007800,0.013400,-0.013400,0.007800,-0.013400,0.002100,0.002100,-0.013400,0.007800,-0.013400,0.0*
%
%AMD18*
4,1,4,-0.055500,0.013800,0.013800,-0.055500,0.055500,-0.013800,-0.013800,0.055500,-0.055500,0.013800,0.0*
%
%AMD20*
4,1,4,-0.013800,-0.055500,0.055500,0.013800,0.013800,0.055500,-0.055500,-0.013800,-0.013800,-0.055500,0.0*
%
%AMD35*
4,1,4,0.010600,0.038900,-0.038900,-0.010600,-0.010600,-0.038900,0.038900,0.010600,0.010600,0.038900,0.0*
%
%AMD72*
4,1,8,0.078500,-0.024500,0.078500,0.024500,0.054000,0.049000,-0.054000,0.049000,-0.078500,0.024500,-0.078500,-0.024500,-0.054000,-0.049000,0.054000,-0.049000,0.078500,-0.024500,0.0*
%
%ADD11R,0.030000X0.030000*%
G04~CAMADD=12~4~0.0~0.0~150.0~300.0~0.0~37.5~0~0.0~0.0~0.0~0.0~0~0.0~0.0~0.0~0.0~0~0.0~0.0~0.0~45.0~264.0~264.0*
%ADD12D12*%
G04~CAMADD=13~4~0.0~0.0~150.0~300.0~0.0~37.5~0~0.0~0.0~0.0~0.0~0~0.0~0.0~0.0~0.0~0~0.0~0.0~0.0~135.0~264.0~264.0*
%ADD13D13*%
G04~CAMADD=14~10~0.0~261.6~0.0~0.0~0.0~0.0~0~0.0~0.0~0.0~0.0~0~0.0~0.0~0.0~0.0~0~0.0~0.0~0.0~135.0~261.6~0.0*
%ADD14D14*%
G04~CAMADD=15~4~0.0~0.0~160.0~300.0~0.0~40.0~0~0.0~0.0~0.0~0.0~0~0.0~0.0~0.0~0.0~0~0.0~0.0~0.0~135.0~268.0~268.0*
%ADD15D15*%
G04~CAMADD=16~10~0.0~261.6~0.0~0.0~0.0~0.0~0~0.0~0.0~0.0~0.0~0~0.0~0.0~0.0~0.0~0~0.0~0.0~0.0~225.0~261.6~0.0*
%ADD16D16*%
G04~CAMADD=17~4~0.0~0.0~160.0~300.0~0.0~40.0~0~0.0~0.0~0.0~0.0~0~0.0~0.0~0.0~0.0~0~0.0~0.0~0.0~225.0~268.0~268.0*
%ADD17D17*%
G04~CAMADD=18~9~0.0~0.0~980.0~590.0~0.0~0.0~0~0.0~0.0~0.0~0.0~0~0.0~0.0~0.0~0.0~0~0.0~0.0~0.0~135.0~1110.0~1109.0*
%ADD18D18*%
%ADD19R,0.008000X0.059000*%
G04~CAMADD=20~9~0.0~0.0~980.0~590.0~0.0~0.0~0~0.0~0.0~0.0~0.0~0~0.0~0.0~0.0~0.0~0~0.0~0.0~0.0~225.0~1110.0~1109.0*
%ADD20D20*%
%ADD21R,0.059000X0.008000*%
%ADD22R,0.012000X0.037000*%
%ADD23R,0.079000X0.110000*%
%ADD24R,0.053000X0.016000*%
%ADD25R,0.036000X0.050000*%
%ADD26R,0.036000X0.036000*%
%ADD27R,0.030000X0.030000*%
%ADD28R,0.016000X0.030000*%
%ADD29R,0.008000X0.024000*%
%ADD30R,0.024000X0.008000*%
%ADD31R,0.035000X0.016000*%
%ADD32R,0.075000X0.051000*%
%ADD33R,0.060000X0.050000*%
%ADD34R,0.040000X0.050000*%
G04~CAMADD=35~9~0.0~0.0~700.0~400.0~0.0~0.0~0~0.0~0.0~0.0~0.0~0~0.0~0.0~0.0~0.0~0~0.0~0.0~0.0~45.0~778.0~777.0*
%ADD35D35*%
%ADD36R,0.047000X0.047000*%
%ADD37C,0.030000*%
%ADD38R,0.039000X0.008000*%
%ADD39R,0.016000X0.035000*%
%ADD40R,0.069000X0.091000*%
%ADD41R,0.010000X0.028000*%
%ADD42R,0.028000X0.010000*%
%ADD43R,0.040000X0.080000*%
%ADD44R,0.120000X0.090000*%
%ADD45R,0.012000X0.045000*%
%ADD46R,0.012000X0.020000*%
%ADD47R,0.402000X0.315000*%
%ADD48R,0.039000X0.110000*%
%ADD49R,0.056000X0.110000*%
%ADD50R,0.037000X0.028000*%
%ADD51R,0.087000X0.031000*%
%ADD52R,0.020000X0.060000*%
%ADD53R,0.031000X0.020000*%
%ADD54R,0.020000X0.031000*%
%ADD55R,0.157000X0.157000*%
%ADD56R,0.079000X0.020000*%
%ADD57R,0.025000X0.075000*%
%ADD58R,0.008000X0.039000*%
%ADD59R,0.110000X0.029000*%
%ADD62R,0.060000X0.040000*%
%ADD63R,0.050000X0.060000*%
%ADD64C,0.010000*%
%ADD65R,0.138000X0.055000*%
%ADD66R,0.122000X0.047000*%
%ADD67R,0.122000X0.059000*%
%ADD68R,0.138000X0.063000*%
%ADD69R,0.063000X0.031000*%
%ADD70R,0.055000X0.077000*%
%ADD71R,0.063000X0.033000*%
G04~CAMADD=72~4~0.0~0.0~980.0~1570.0~0.0~245.0~0~0.0~0.0~0.0~0.0~0~0.0~0.0~0.0~0.0~0~0.0~0.0~0.0~270.0~1570.0~980.0*
%ADD72D72*%
%ADD73C,0.010000*%
%ADD79C,0.005000*%
%ADD81C,0.006000*%
%ADD152R,0.153000X0.073000*%
%ADD153R,0.041000X0.061000*%
%LNmb784b-1*%
%LPD*%
G54D11*
X03197Y04725D03*
X03253D03*
Y04625D03*
X04097Y01275D03*
X04153D03*
X04202Y039D03*
X04148D03*
Y03825D03*
X04202D03*
X03872Y0405D03*
X00779Y0137D03*
X04077Y0405D03*
Y03975D03*
X04023D03*
X04077Y039D03*
X04023D03*
X03148Y0545D03*
X03203D03*
X03148Y05525D03*
X03203D03*
X04352Y0635D03*
X04298D03*
X04128D03*
X04073D03*
X00723Y01575D03*
X00777D03*
X02898Y04525D03*
X02605Y03975D03*
X0255D03*
X01403Y05425D03*
X01347D03*
X02953Y04325D03*
X02898D03*
X02213Y043D03*
X02267D03*
X02098Y03975D03*
X02152D03*
X03928Y0445D03*
X03872D03*
X03928Y03725D03*
X03872D03*
X02977Y0155D03*
X02922D03*
X03102Y01875D03*
X03047D03*
X02898Y04425D03*
X02953D03*
X02003Y01525D03*
Y0145D03*
X02473Y043D03*
X02527D03*
X02033Y051D03*
X02088D03*
X01597Y028D03*
X01653D03*
X03047Y04525D03*
X03102D03*
X00877Y02775D03*
X00822D03*
X03102Y04925D03*
X03047D03*
X03102Y05025D03*
X03047D03*
X03102Y04725D03*
X03047D03*
X01347Y0145D03*
X01403D03*
X01347Y0155D03*
X01403D03*
X01347Y0185D03*
X01403D03*
X02003Y01675D03*
X01947D03*
X04097D03*
X04153D03*
X04097Y016D03*
X04153D03*
X01372Y0075D03*
X01428D03*
X01128D03*
X01072D03*
X02398Y03975D03*
X02453D03*
X02247D03*
X02303D03*
X01947D03*
X02003D03*
X01773Y05425D03*
X01827D03*
X03928Y0405D03*
X03372Y05575D03*
X03428D03*
X04097Y01525D03*
X04153D03*
X04298Y01325D03*
X04352D03*
X02003Y016D03*
X01947D03*
X01347Y0165D03*
X01403D03*
X01347Y0195D03*
X01403D03*
X01553Y0135D03*
X01497D03*
X01403D03*
X01347D03*
X00777Y01125D03*
X00723D03*
X00777Y01225D03*
X00723D03*
X01827Y05875D03*
X01773D03*
X01977D03*
X01923D03*
X04023Y03575D03*
X04077D03*
X04023Y0405D03*
X03872Y0435D03*
X03928D03*
X03203Y0145D03*
X03148D03*
X02953Y04925D03*
X02898D03*
X02803Y0145D03*
X02747D03*
X03072Y0155D03*
X03197Y04525D03*
X03253D03*
X02898Y05025D03*
X02953D03*
X00777Y01675D03*
X00723D03*
X00724Y0137D03*
X00777Y01775D03*
X00723D03*
Y01475D03*
X03628Y02975D03*
X03572D03*
X03422D03*
X03477D03*
X03422Y02775D03*
X03477D03*
X03572D03*
X03628D03*
X03477Y03375D03*
X03422D03*
X03477Y03275D03*
X03422D03*
X03572D03*
X03628D03*
X03572Y03175D03*
X03628D03*
X03572Y03375D03*
X03628D03*
Y03075D03*
X03572D03*
X03422D03*
X03477D03*
X03628Y02875D03*
X03572D03*
X00702Y06125D03*
X00647D03*
X01352D03*
X01298D03*
X02953Y04725D03*
X02898D03*
X01347Y0175D03*
X01403D03*
X01278Y0075D03*
X01222D03*
X03477Y02875D03*
X03422D03*
X01947Y01525D03*
Y0145D03*
X01253Y0135D03*
X01197D03*
X03128Y0155D03*
X03047Y04825D03*
X03102D03*
X03197Y04625D03*
X03253Y04425D03*
X03197D03*
X03047Y04325D03*
X03102D03*
X02953Y04525D03*
X02928Y0365D03*
X02872D03*
X04023Y0415D03*
X04077D03*
X03872D03*
X03928D03*
X03047Y04625D03*
X03102D03*
X02953D03*
X02898D03*
X03047Y04425D03*
X03102D03*
X03197Y04325D03*
X03253D03*
X03372Y05675D03*
X03428D03*
X01497Y05875D03*
X01553D03*
X01347D03*
X01403D03*
X00777Y01475D03*
X00978Y0075D03*
X00923D03*
X01648Y0135D03*
X01702D03*
X01628Y04425D03*
X01572D03*
X01628Y04575D03*
X01572D03*
X01923Y05425D03*
X01977D03*
X01553D03*
X01497D03*
X03928Y038D03*
X03872D03*
X01947Y0175D03*
X02003D03*
X02953Y04825D03*
X02898D03*
X03928Y0425D03*
X03872D03*
X03477Y03175D03*
X03422D03*
X02872Y0355D03*
X02928D03*
Y0375D03*
X02872D03*
G54D12*
X03368Y04632D03*
X03332Y04617D03*
X02082Y04218D03*
X00693Y06208D03*
X00657Y06193D03*
X01307D03*
X01343Y06208D03*
X01982Y04206D03*
G54D13*
X03368Y04618D03*
X02068Y04218D03*
X00657Y06207D03*
X01307D03*
X02083Y04182D03*
X01968Y04206D03*
X01983Y0417D03*
G54D14*
X03363Y04625D03*
X00662Y062D03*
X01312D03*
G54D15*
X03332Y04633D03*
X00693Y06192D03*
X01343D03*
G54D16*
X02075Y04213D03*
X01975Y04201D03*
G54D17*
X02067Y04182D03*
X01967Y0417D03*
G54D18*
X02617Y05017D03*
X01983Y04383D03*
G54D19*
X02083Y04396D03*
X02064D03*
X02103D03*
X02123D03*
X02143D03*
X02162D03*
X02182D03*
X02202D03*
X02221D03*
X02241D03*
X02261D03*
X0228D03*
X023D03*
X0232D03*
X02339D03*
X02359D03*
X02379D03*
X02398D03*
X02418D03*
X02438D03*
X02457D03*
X02477D03*
X02497D03*
X02517D03*
X02536D03*
Y05004D03*
X02517D03*
X02497D03*
X02477D03*
X02457D03*
X02438D03*
X02418D03*
X02398D03*
X02379D03*
X02359D03*
X0232D03*
X023D03*
X0228D03*
X02241D03*
X02221D03*
X02202D03*
X02182D03*
X02162D03*
X02143D03*
X02123D03*
X02103D03*
X02083D03*
X02064D03*
X02261D03*
X02339D03*
G54D20*
X02617Y04383D03*
X01983Y05017D03*
G54D21*
X02604Y04464D03*
Y04483D03*
Y04503D03*
Y04523D03*
Y04543D03*
Y04582D03*
Y04602D03*
Y04621D03*
Y04641D03*
Y04661D03*
Y0468D03*
Y047D03*
Y0472D03*
Y04739D03*
Y04759D03*
Y04779D03*
Y04798D03*
Y04818D03*
Y04838D03*
Y04857D03*
Y04877D03*
Y04917D03*
Y04936D03*
X01996D03*
Y04917D03*
Y04897D03*
Y04877D03*
Y04857D03*
Y04838D03*
Y04818D03*
Y04779D03*
Y04759D03*
Y04739D03*
Y0472D03*
Y047D03*
Y0468D03*
Y04661D03*
Y04641D03*
Y04621D03*
Y04602D03*
Y04582D03*
Y04562D03*
Y04543D03*
Y04503D03*
Y04483D03*
Y04464D03*
X02604Y04897D03*
Y04562D03*
X01996Y04523D03*
Y04798D03*
G54D22*
X03316Y0375D03*
X03239D03*
X03341D03*
X0329D03*
X03265D03*
X03213D03*
X03188D03*
X03162D03*
X03137D03*
X03111D03*
X03085D03*
X0306D03*
X03034D03*
X03009D03*
X03341Y0345D03*
X0329D03*
X03265D03*
X03239D03*
X03213D03*
X03188D03*
X03162D03*
X03137D03*
X03111D03*
X03085D03*
X0306D03*
X03034D03*
X03009D03*
X03316D03*
G54D23*
X04431Y03925D03*
G54D24*
X04305Y03976D03*
Y03951D03*
Y03925D03*
Y03899D03*
Y03874D03*
G54D25*
X04174Y0366D03*
G54D26*
X04137Y0374D03*
X04213D03*
G54D27*
X0265Y04128D03*
Y04073D03*
X03Y04227D03*
X0235Y06148D03*
X0185Y06202D03*
X0215D03*
X022Y00803D03*
X017Y02977D03*
X03Y03997D03*
X02775Y05773D03*
Y05827D03*
X02825Y05148D03*
Y05202D03*
X021Y05827D03*
Y05773D03*
X03025Y05827D03*
Y05773D03*
X02625D03*
Y05827D03*
X02225Y05472D03*
Y05528D03*
X027Y05827D03*
Y05773D03*
X02925Y05148D03*
Y05202D03*
X03275Y05948D03*
Y06003D03*
X0255Y05827D03*
Y05773D03*
X03025Y05503D03*
Y05448D03*
X02475Y05617D03*
Y05562D03*
X03025Y05653D03*
Y05597D03*
Y05352D03*
Y05298D03*
X031Y04227D03*
Y04173D03*
X02725Y06003D03*
Y05948D03*
X02475Y05378D03*
Y05323D03*
X019Y04492D03*
Y04438D03*
X022Y00548D03*
Y00603D03*
X03Y04052D03*
X02275Y04073D03*
Y04128D03*
X02175D03*
Y04073D03*
X02375D03*
Y04128D03*
X029Y02922D03*
X01725Y01447D03*
Y01503D03*
X02Y01148D03*
Y01202D03*
X0235Y02747D03*
Y02803D03*
X027Y04503D03*
Y04448D03*
Y04977D03*
Y04923D03*
X0235Y06202D03*
X0215Y06148D03*
X0205D03*
Y06202D03*
X0175D03*
Y06148D03*
X023Y00803D03*
Y00748D03*
X026Y00897D03*
Y00952D03*
X032D03*
Y00897D03*
X031Y00952D03*
Y00897D03*
X03Y00952D03*
Y00897D03*
X028Y00952D03*
Y00897D03*
X029Y00952D03*
Y00897D03*
X01575Y01898D03*
Y01952D03*
X015Y01597D03*
Y01653D03*
X01675Y01898D03*
Y01952D03*
X018D03*
Y01898D03*
X032Y03328D03*
Y03273D03*
X0095Y02947D03*
Y03003D03*
X01825Y00603D03*
Y00548D03*
X0195Y00603D03*
Y00548D03*
X02075Y00603D03*
Y00548D03*
X03Y01072D03*
X031D03*
X01825Y00803D03*
Y00748D03*
X02075Y00803D03*
Y00748D03*
X022D03*
X032D03*
Y00803D03*
X031Y00748D03*
Y00803D03*
X03Y00748D03*
Y00803D03*
X028Y00748D03*
Y00803D03*
X029D03*
Y00748D03*
X01825Y01503D03*
Y01447D03*
X00725Y02152D03*
Y02098D03*
X017Y00923D03*
Y00978D03*
X02075Y04128D03*
Y04073D03*
X03025Y01452D03*
Y01398D03*
X02925Y01452D03*
Y01398D03*
X006Y05477D03*
Y05423D03*
Y04128D03*
Y04073D03*
Y05628D03*
Y05573D03*
Y04278D03*
Y04222D03*
Y05327D03*
Y05273D03*
Y03977D03*
Y03922D03*
X017Y02922D03*
X01975Y04128D03*
Y04073D03*
X02975Y02922D03*
Y02977D03*
X0225Y02803D03*
Y02747D03*
X0205D03*
Y02803D03*
X01075Y03003D03*
Y02947D03*
X03275Y06148D03*
Y06202D03*
X0245D03*
Y06148D03*
X0255Y06202D03*
Y06148D03*
X0265D03*
Y06202D03*
X02675Y02922D03*
X0275Y02977D03*
Y02922D03*
X025Y00803D03*
Y00748D03*
X024Y00803D03*
Y00748D03*
X027Y00897D03*
Y00952D03*
X023Y00897D03*
Y00952D03*
X027Y00803D03*
Y00748D03*
X025Y00897D03*
Y00952D03*
X033Y00748D03*
Y00803D03*
X0215Y01447D03*
Y01503D03*
X032Y01072D03*
X01475Y01898D03*
Y01952D03*
X028Y01072D03*
X02625Y01303D03*
Y01247D03*
X01625Y01447D03*
Y01503D03*
X015Y01803D03*
Y01747D03*
X031Y01128D03*
X032D03*
X028D03*
X03D03*
X02825Y02922D03*
Y02977D03*
X014Y02922D03*
Y02977D03*
X016D03*
Y02922D03*
X0195Y06148D03*
Y06202D03*
X0185Y06148D03*
X0225Y06202D03*
Y06148D03*
X02475Y04128D03*
Y04073D03*
X02575D03*
Y04128D03*
X03025Y01303D03*
Y01247D03*
X02925Y01303D03*
Y01247D03*
X029Y01128D03*
Y01072D03*
X02875Y01753D03*
Y01697D03*
X02675Y02977D03*
X029D03*
X0195Y00748D03*
Y00803D03*
X026Y00748D03*
Y00803D03*
X024Y00952D03*
Y00897D03*
X02625Y01398D03*
Y01452D03*
X02225Y01503D03*
Y01447D03*
X017Y00748D03*
Y00803D03*
X02625Y01097D03*
Y01153D03*
X023Y01503D03*
Y01447D03*
X02Y02497D03*
Y02553D03*
X015Y02922D03*
Y02977D03*
X02575Y02922D03*
Y02977D03*
X031Y03273D03*
Y03328D03*
X03Y04173D03*
X025Y02977D03*
Y02922D03*
X0215Y02747D03*
Y02803D03*
G54D28*
X02912Y04078D03*
X02838Y04253D03*
X02875Y04147D03*
X02838D03*
X02875Y04253D03*
X02912Y03972D03*
X02838D03*
Y04078D03*
X02912Y04253D03*
Y04147D03*
X0325Y04253D03*
X03213Y04147D03*
X03287D03*
X0325D03*
X03287Y04253D03*
X03213D03*
X03937Y03653D03*
X03863D03*
X039D03*
X03863Y03547D03*
X03937D03*
X03213Y04078D03*
X03287D03*
X0325Y03972D03*
X03287D03*
X03213D03*
X02875D03*
G54D29*
X01656Y01813D03*
X01695D03*
X01715D03*
X01814D03*
X01794D03*
X01774D03*
X01755D03*
X01735D03*
X01676D03*
X01636D03*
Y01587D03*
X01656D03*
X01676D03*
X01695D03*
X01715D03*
X01735D03*
X01755D03*
X01774D03*
X01794D03*
X01814D03*
G54D30*
X01838Y0173D03*
X01612Y01789D03*
Y01769D03*
Y01749D03*
Y0173D03*
Y0171D03*
Y0169D03*
Y0167D03*
Y01651D03*
Y01631D03*
Y01611D03*
X01838D03*
Y01631D03*
Y01651D03*
Y0167D03*
Y0169D03*
Y0171D03*
Y01749D03*
Y01769D03*
Y01789D03*
G54D31*
X02316Y05334D03*
Y05566D03*
X02384D03*
Y05503D03*
X02316Y05597D03*
Y05503D03*
Y05534D03*
X02384Y05597D03*
Y05534D03*
X02316Y05366D03*
Y05397D03*
X03208Y05278D03*
Y05309D03*
Y05341D03*
Y05372D03*
X02316Y05303D03*
X03141Y05278D03*
Y05309D03*
Y05341D03*
Y05372D03*
X02384Y05303D03*
Y05366D03*
Y05334D03*
Y05397D03*
G54D32*
X01692Y03737D03*
X01908Y03863D03*
X01692D03*
X01908Y03737D03*
G54D33*
X03175Y05755D03*
Y05645D03*
X02225Y057D03*
X02425D03*
Y0587D03*
X02225D03*
X0405Y03805D03*
Y03695D03*
X00775Y0093D03*
Y0082D03*
X017Y01095D03*
Y01205D03*
X0125Y01655D03*
Y01545D03*
X01975Y0187D03*
Y0198D03*
X01825Y02755D03*
Y02645D03*
X02725Y0418D03*
Y0407D03*
G54D34*
X03175Y03035D03*
Y03165D03*
X03075Y03035D03*
Y03165D03*
G54D35*
X02901Y00449D03*
X03103Y00247D03*
X02914Y00264D03*
X03086Y00436D03*
X03125Y00397D03*
X03047Y00475D03*
X02953Y00225D03*
X02875Y00303D03*
G54D36*
X03175Y013D03*
X02775D03*
G54D37*
X00475Y00325D03*
X0275Y05D03*
X019Y0435D03*
X037Y06275D03*
G54D38*
X02558Y05445D03*
Y05544D03*
Y05465D03*
Y05564D03*
Y05505D03*
Y05485D03*
Y05524D03*
X02892Y05445D03*
Y05564D03*
Y05583D03*
Y05544D03*
Y05524D03*
Y05505D03*
Y05485D03*
Y05465D03*
Y05426D03*
Y05406D03*
Y05386D03*
Y05367D03*
X02558D03*
Y05386D03*
Y05406D03*
Y05426D03*
Y05583D03*
G54D39*
X02484Y05141D03*
Y05208D03*
X02516D03*
X02453D03*
X02547D03*
X02516Y05141D03*
X02453D03*
X02547D03*
X02884Y05766D03*
Y05833D03*
X02916D03*
X02853D03*
X02947D03*
X02916Y05766D03*
X02853D03*
X02947D03*
X02691Y05208D03*
X02722D03*
X02628D03*
Y05141D03*
X02691D03*
X02722D03*
X02659D03*
Y05208D03*
G54D40*
X01025Y02575D03*
Y02725D03*
G54D41*
X03205Y01241D03*
X03185D03*
X03145D03*
Y01359D03*
X03165D03*
X03185D03*
X03205D03*
X03165Y01241D03*
X02765D03*
X02805Y01359D03*
X02785D03*
X02765D03*
X02745D03*
Y01241D03*
X02785D03*
X02805D03*
G54D42*
X03234Y0133D03*
Y0131D03*
Y0129D03*
Y0127D03*
X03116Y0133D03*
Y0131D03*
Y0129D03*
Y0127D03*
X02716D03*
Y0129D03*
Y0131D03*
Y0133D03*
X02834Y0127D03*
Y0129D03*
Y0131D03*
Y0133D03*
G54D43*
X00907Y01675D03*
X01093D03*
X01D03*
G54D44*
X01Y01425D03*
G54D45*
X0229Y02626D03*
X02264D03*
X02238D03*
X02213D03*
X02187D03*
X02162D03*
X02136D03*
X0211D03*
X0229Y02374D03*
X02264D03*
X02238D03*
X02213D03*
X02187D03*
X02162D03*
X02136D03*
X0211D03*
G54D46*
X03074Y04062D03*
X03126Y03988D03*
X03074D03*
X031D03*
X03126Y04062D03*
G54D47*
X0155Y02225D03*
G54D48*
X0165Y02674D03*
X0155D03*
G54D49*
X0145Y02674D03*
G54D50*
X00825Y02685D03*
X00875D03*
G54D51*
X0085Y0255D03*
G54D52*
X022Y01312D03*
X0225D03*
X021Y01087D03*
X022D03*
X021Y01312D03*
X0215D03*
X0225Y01087D03*
X0215D03*
X019Y05762D03*
X0185Y05537D03*
X0195Y05762D03*
Y05537D03*
X0185Y05762D03*
X018D03*
X019Y05537D03*
X018D03*
X01375D03*
X01475D03*
X01375Y05762D03*
X01425D03*
X01525Y05537D03*
Y05762D03*
X01425Y05537D03*
X01475Y05762D03*
G54D53*
X03153Y01725D03*
X02997D03*
G54D54*
X03154Y01687D03*
X03028D03*
X02996D03*
X03122D03*
X03091D03*
X03059D03*
X02996Y01763D03*
X03028D03*
X03059D03*
X03091D03*
X03122D03*
X03154D03*
G54D55*
X01725Y017D03*
G54D56*
X043Y01494D03*
Y01644D03*
Y01606D03*
Y01419D03*
Y01531D03*
Y01569D03*
Y01456D03*
Y01681D03*
G54D57*
X00925Y0125D03*
X01575Y0085D03*
X01475D03*
X01275D03*
X01225D03*
X01025Y0125D03*
X01375D03*
X01225D03*
X01475D03*
X01275D03*
X01425D03*
X01075D03*
X01525D03*
X01575D03*
X01125D03*
X01325D03*
X01175D03*
X01525Y0085D03*
X01375D03*
X01325D03*
X00975Y0125D03*
X01425Y0085D03*
X00925D03*
X00975D03*
X01025D03*
X01125D03*
X01175D03*
X01075D03*
G54D58*
X02715Y05308D03*
X02695D03*
X02676D03*
X02656D03*
X02755Y05642D03*
X02617D03*
X02636D03*
X02656D03*
X02676D03*
X02695D03*
X02715D03*
X02735D03*
X02774D03*
X02794D03*
X02814D03*
X02833D03*
Y05308D03*
X02814D03*
X02794D03*
X02774D03*
X02755D03*
X02735D03*
X02636D03*
X02617D03*
G54D59*
X0382Y02975D03*
X0398D03*
X0382Y03025D03*
X0398D03*
X0382Y03075D03*
X0398D03*
X0382Y03125D03*
X0398D03*
X0382Y03175D03*
X0398D03*
X0382Y03375D03*
Y03425D03*
X0398D03*
X0382Y03325D03*
Y03275D03*
Y03225D03*
X0398Y03375D03*
Y03325D03*
Y03275D03*
Y03225D03*
G54D62*
X00773Y00438D03*
X01127D03*
Y00262D03*
X00773D03*
X02223D03*
X02577D03*
Y00438D03*
X02223D03*
X01448Y00262D03*
X01802D03*
Y00438D03*
X01448D03*
X03423Y00262D03*
X03777D03*
Y00438D03*
X03423D03*
G54D63*
X04045Y014D03*
X04155D03*
X04095Y018D03*
X04205D03*
G54D64*
X0387Y03905D03*
Y03925D03*
Y03945D03*
X0389Y03905D03*
Y03925D03*
Y03945D03*
X0391Y03905D03*
Y03925D03*
Y03945D03*
X0393Y03925D03*
Y03905D03*
G54D65*
X00086Y02013D03*
G54D66*
X00538Y01418D03*
G54D67*
X00086Y01424D03*
G54D68*
X00519Y02009D03*
G54D69*
X00603Y0173D03*
Y01644D03*
Y01687D03*
Y016D03*
Y01514D03*
Y01817D03*
Y01774D03*
Y01557D03*
G54D70*
X00202Y01433D03*
G54D71*
X00603Y01469D03*
G54D72*
X02675Y025D03*
X0332D03*
G54D73*
X0503Y0026D02*
Y002D01*
Y0026D02*
X05053Y002D01*
X05076Y0026D02*
X05053Y002D01*
X05076Y0026D02*
Y002D01*
X05093Y0026D02*
Y002D01*
Y0026D02*
X05119D01*
X05127Y00257*
X0513Y00254*
X05133Y00249*
Y00243*
X0513Y00237*
X05127Y00234*
X05119Y00231*
X05093D02*
X05119D01*
X05127Y00229*
X0513Y00226*
X05133Y0022*
Y00211*
X0513Y00206*
X05127Y00203*
X05119Y002*
X05093*
X05186Y0026D02*
X05158Y002D01*
X05146Y0026D02*
X05186D01*
X05214D02*
X05205Y00257D01*
X05203Y00251*
Y00246*
X05205Y0024*
X05211Y00237*
X05223Y00234*
X05231Y00231*
X05237Y00226*
X0524Y0022*
Y00211*
X05237Y00206*
X05234Y00203*
X05225Y002*
X05214*
X05205Y00203*
X05203Y00206*
X052Y00211*
Y0022*
X05203Y00226*
X05208Y00231*
X05217Y00234*
X05228Y00237*
X05234Y0024*
X05237Y00246*
Y00251*
X05234Y00257*
X05225Y0026*
X05214*
X05282D02*
X05253Y0022D01*
X05296*
X05282Y0026D02*
Y002D01*
X05349Y00246D02*
X05347Y00251D01*
X05341Y00257*
X05335Y0026*
X05324*
X05318Y00257*
X05312Y00251*
X05309Y00246*
X05307Y00237*
Y00223*
X05309Y00214*
X05312Y00209*
X05318Y00203*
X05324Y002*
X05335*
X05341Y00203*
X05347Y00209*
X05349Y00214*
G54D79*
X0Y01459D02*
D01*
X00014Y0154*
X00022Y01622*
X00025Y01704*
X00023Y01786*
X00014Y01868*
X0Y0195*
X04275Y06674D02*
Y0699D01*
X00225Y06674D02*
Y0699D01*
X02409Y0694D02*
X04275D01*
X00225D02*
X02059D01*
X04215Y0696D02*
X04275Y0694D01*
X04215Y0692D02*
X04275Y0694D01*
X00225D02*
X00285Y0692D01*
X00225Y0694D02*
X00285Y0696D01*
X00225Y06674D02*
Y0699D01*
X0Y06812D02*
Y0699D01*
X00112Y0694D02*
X00225D01*
X0D02*
X00112D01*
X00165Y0696D02*
X00225Y0694D01*
X00165Y0692D02*
X00225Y0694D01*
X0D02*
X0006Y0692D01*
X0Y0694D02*
X0006Y0696D01*
X045Y06812D02*
Y07135D01*
X0Y06812D02*
Y07135D01*
X02409Y07085D02*
X045D01*
X0D02*
X02059D01*
X0444Y07105D02*
X045Y07085D01*
X0444Y07065D02*
X045Y07085D01*
X0D02*
X0006Y07065D01*
X0Y07085D02*
X0006Y07105D01*
X-0016Y0195D02*
X-00013D01*
X-0016Y01459D02*
X-00013D01*
X-0011Y01832D02*
Y0195D01*
Y01459D02*
Y01545D01*
X-0013Y0189D02*
X-0011Y0195D01*
X-0009Y0189*
X-0011Y01459D02*
X-0009Y01519D01*
X-0013D02*
X-0011Y01459D01*
X-0016Y06575D02*
X00126D01*
X-0016Y0195D02*
X-00013D01*
X-0011Y0442D02*
Y06575D01*
Y0195D02*
Y04073D01*
X-0013Y06515D02*
X-0011Y06575D01*
X-0009Y06515*
X-0011Y0195D02*
X-0009Y0201D01*
X-0013D02*
X-0011Y0195D01*
X-0037Y00225D02*
X00126D01*
X-0037Y06575D02*
X00126D01*
X-0032Y00225D02*
Y03211D01*
Y03557D02*
Y06575D01*
Y00225D02*
X-003Y00285D01*
X-0034D02*
X-0032Y00225D01*
X-0034Y06515D02*
X-0032Y06575D01*
X-003Y06515*
X-0037Y068D02*
X-00013D01*
X-0037Y06575D02*
X00126D01*
X-0032Y06688D02*
Y068D01*
Y06575D02*
Y06688D01*
X-0034Y0674D02*
X-0032Y068D01*
X-003Y0674*
X-0032Y06575D02*
X-003Y06635D01*
X-0034D02*
X-0032Y06575D01*
X-00535Y068D02*
X-00013D01*
X-00535Y0D02*
X-00013D01*
X-00485Y03557D02*
Y068D01*
Y0D02*
Y03211D01*
X-00505Y0674D02*
X-00485Y068D01*
X-00465Y0674*
X-00485Y0D02*
X-00465Y0006D01*
X-00505D02*
X-00485Y0D01*
X0Y0195D02*
Y068D01*
X045Y0D02*
Y068D01*
X0Y0D02*
X045D01*
X0Y068D02*
X045D01*
X0Y0D02*
Y01459D01*
G54D81*
X02104Y06963D02*
X02075Y06923D01*
X02118*
X02104Y06963D02*
Y06903D01*
X02146Y06963D02*
X02137Y0696D01*
X02132Y06951*
X02129Y06937*
Y06928*
X02132Y06914*
X02137Y06905*
X02146Y06903*
X02152*
X0216Y06905*
X02166Y06914*
X02169Y06928*
Y06937*
X02166Y06951*
X0216Y0696*
X02152Y06963*
X02146*
X02216D02*
X02188D01*
X02185Y06937*
X02188Y0694*
X02196Y06943*
X02205*
X02214Y0694*
X02219Y06934*
X02222Y06925*
Y0692*
X02219Y06911*
X02214Y06905*
X02205Y06903*
X02196*
X02188Y06905*
X02185Y06908*
X02182Y06914*
X02253Y06963D02*
X02244Y0696D01*
X02238Y06951*
X02236Y06937*
Y06928*
X02238Y06914*
X02244Y06905*
X02253Y06903*
X02258*
X02267Y06905*
X02273Y06914*
X02276Y06928*
Y06937*
X02273Y06951*
X02267Y0696*
X02258Y06963*
X02253*
X02289Y06943D02*
Y06903D01*
Y06931D02*
X02298Y0694D01*
X02303Y06943*
X02312*
X02318Y0694*
X0232Y06931*
Y06903*
Y06931D02*
X02329Y0694D01*
X02335Y06943*
X02343*
X02349Y0694*
X02352Y06931*
Y06903*
X02376Y06963D02*
X02379Y0696D01*
X02382Y06963*
X02379Y06965*
X02376Y06963*
X02379Y06943D02*
Y06903D01*
X02393Y06963D02*
Y06903D01*
X00033Y07006D02*
Y07009D01*
X00036Y07014*
X00039Y07017*
X00044Y0702*
X00056*
X00061Y07017*
X00064Y07014*
X00067Y07009*
Y07003*
X00064Y06997*
X00059Y06989*
X0003Y0696*
X0007*
X00086Y07006D02*
Y07009D01*
X00089Y07014*
X00092Y07017*
X00098Y0702*
X00109*
X00115Y07017*
X00118Y07014*
X00121Y07009*
Y07003*
X00118Y06997*
X00112Y06989*
X00083Y0696*
X00123*
X00171Y0702D02*
X00143D01*
X0014Y06994*
X00143Y06997*
X00151Y07*
X0016*
X00168Y06997*
X00174Y06991*
X00177Y06983*
Y06977*
X00174Y06969*
X00168Y06963*
X0016Y0696*
X00151*
X00143Y06963*
X0014Y06966*
X00137Y06971*
X02104Y07108D02*
X02075Y07068D01*
X02118*
X02104Y07108D02*
Y07048D01*
X02163Y07108D02*
X02134D01*
X02132Y07082*
X02134Y07085*
X02143Y07088*
X02152*
X0216Y07085*
X02166Y07079*
X02169Y0707*
Y07065*
X02166Y07056*
X0216Y0705*
X02152Y07048*
X02143*
X02134Y0705*
X02132Y07053*
X02129Y07059*
X02199Y07108D02*
X02191Y07105D01*
X02185Y07096*
X02182Y07082*
Y07073*
X02185Y07059*
X02191Y0705*
X02199Y07048*
X02205*
X02214Y0705*
X02219Y07059*
X02222Y07073*
Y07082*
X02219Y07096*
X02214Y07105*
X02205Y07108*
X02199*
X02253D02*
X02244Y07105D01*
X02238Y07096*
X02236Y07082*
Y07073*
X02238Y07059*
X02244Y0705*
X02253Y07048*
X02258*
X02267Y0705*
X02273Y07059*
X02276Y07073*
Y07082*
X02273Y07096*
X02267Y07105*
X02258Y07108*
X02253*
X02289Y07088D02*
Y07048D01*
Y07076D02*
X02298Y07085D01*
X02303Y07088*
X02312*
X02318Y07085*
X0232Y07076*
Y07048*
Y07076D02*
X02329Y07085D01*
X02335Y07088*
X02343*
X02349Y07085*
X02352Y07076*
Y07048*
X02376Y07108D02*
X02379Y07105D01*
X02382Y07108*
X02379Y0711*
X02376Y07108*
X02379Y07088D02*
Y07048D01*
X02393Y07108D02*
Y07048D01*
X-00133Y0159D02*
X-00093Y01561D01*
Y01604*
X-00133Y0159D02*
X-00073D01*
X-00113Y01652D02*
X-00104Y01649D01*
X-00098Y01643*
X-00095Y01635*
Y01632*
X-00098Y01623*
X-00104Y01617*
X-00113Y01615*
X-00115*
X-00124Y01617*
X-0013Y01623*
X-00133Y01632*
Y01635*
X-0013Y01643*
X-00124Y01649*
X-00113Y01652*
X-00098*
X-00084Y01649*
X-00075Y01643*
X-00073Y01635*
Y01629*
X-00075Y0162*
X-00081Y01617*
X-00121Y01668D02*
X-00124Y01674D01*
X-00133Y01682*
X-00073*
X-00113Y01712D02*
X-00073D01*
X-00101D02*
X-0011Y01721D01*
X-00113Y01726*
Y01735*
X-0011Y01741*
X-00101Y01743*
X-00073*
X-00101D02*
X-0011Y01752D01*
X-00113Y01758*
Y01766*
X-0011Y01772*
X-00101Y01775*
X-00073*
X-00133Y01799D02*
X-0013Y01802D01*
X-00133Y01805*
X-00135Y01802*
X-00133Y01799*
X-00113Y01802D02*
X-00073D01*
X-00133Y01816D02*
X-00073D01*
X-00133Y04118D02*
X-00093Y04089D01*
Y04132*
X-00133Y04118D02*
X-00073D01*
X-00124Y04177D02*
X-0013Y04174D01*
X-00133Y04166*
Y0416*
X-0013Y04151*
X-00121Y04146*
X-00107Y04143*
X-00093*
X-00081Y04146*
X-00075Y04151*
X-00073Y0416*
Y04163*
X-00075Y04171*
X-00081Y04177*
X-0009Y0418*
X-00093*
X-00101Y04177*
X-00107Y04171*
X-0011Y04163*
Y0416*
X-00107Y04151*
X-00101Y04146*
X-00093Y04143*
X-00118Y04196D02*
X-00121D01*
X-00127Y04199*
X-0013Y04202*
X-00133Y04207*
Y04219*
X-0013Y04225*
X-00127Y04227*
X-00121Y0423*
X-00115*
X-0011Y04227*
X-00101Y04222*
X-00073Y04193*
Y04233*
X-00133Y04281D02*
Y04252D01*
X-00107Y04249*
X-0011Y04252*
X-00113Y04261*
Y04269*
X-0011Y04278*
X-00104Y04284*
X-00095Y04286*
X-0009*
X-00081Y04284*
X-00075Y04278*
X-00073Y04269*
Y04261*
X-00075Y04252*
X-00078Y04249*
X-00084Y04247*
X-00113Y043D02*
X-00073D01*
X-00101D02*
X-0011Y04308D01*
X-00113Y04314*
Y04323*
X-0011Y04328*
X-00101Y04331*
X-00073*
X-00101D02*
X-0011Y0434D01*
X-00113Y04346*
Y04354*
X-0011Y0436*
X-00101Y04363*
X-00073*
X-00133Y04387D02*
X-0013Y0439D01*
X-00133Y04393*
X-00135Y0439*
X-00133Y04387*
X-00113Y0439D02*
X-00073D01*
X-00133Y04404D02*
X-00073D01*
X-00334Y03261D02*
X-0034Y03258D01*
X-00343Y0325*
Y03244*
X-0034Y03235*
X-00331Y0323*
X-00317Y03227*
X-00303*
X-00291Y0323*
X-00285Y03235*
X-00283Y03244*
Y03247*
X-00285Y03255*
X-00291Y03261*
X-003Y03264*
X-00303*
X-00311Y03261*
X-00317Y03255*
X-0032Y03247*
Y03244*
X-00317Y03235*
X-00311Y0323*
X-00303Y03227*
X-00343Y03283D02*
Y03314D01*
X-0032Y03297*
Y03306*
X-00317Y03311*
X-00314Y03314*
X-00305Y03317*
X-003*
X-00291Y03314*
X-00285Y03309*
X-00283Y033*
Y03291*
X-00285Y03283*
X-00288Y0328*
X-00294Y03277*
X-00343Y03365D02*
Y03336D01*
X-00317Y03333*
X-0032Y03336*
X-00323Y03345*
Y03353*
X-0032Y03362*
X-00314Y03368*
X-00305Y03371*
X-003*
X-00291Y03368*
X-00285Y03362*
X-00283Y03353*
Y03345*
X-00285Y03336*
X-00288Y03333*
X-00294Y03331*
X-00343Y03401D02*
X-0034Y03393D01*
X-00331Y03387*
X-00317Y03384*
X-00308*
X-00294Y03387*
X-00285Y03393*
X-00283Y03401*
Y03407*
X-00285Y03415*
X-00294Y03421*
X-00308Y03424*
X-00317*
X-00331Y03421*
X-0034Y03415*
X-00343Y03407*
Y03401*
X-00323Y03437D02*
X-00283D01*
X-00311D02*
X-0032Y03446D01*
X-00323Y03452*
Y0346*
X-0032Y03466*
X-00311Y03469*
X-00283*
X-00311D02*
X-0032Y03477D01*
X-00323Y03483*
Y03492*
X-0032Y03497*
X-00311Y035*
X-00283*
X-00343Y03525D02*
X-0034Y03528D01*
X-00343Y03531*
X-00345Y03528*
X-00343Y03525*
X-00323Y03528D02*
X-00283D01*
X-00343Y03541D02*
X-00283D01*
X-00401Y06618D02*
X-00404D01*
X-00409Y06621*
X-00412Y06624*
X-00415Y06629*
Y06641*
X-00412Y06646*
X-00409Y06649*
X-00404Y06652*
X-00398*
X-00392Y06649*
X-00384Y06644*
X-00355Y06615*
Y06655*
X-00401Y06671D02*
X-00404D01*
X-00409Y06674*
X-00412Y06677*
X-00415Y06683*
Y06694*
X-00412Y067*
X-00409Y06703*
X-00404Y06706*
X-00398*
X-00392Y06703*
X-00384Y06697*
X-00355Y06668*
Y06708*
X-00415Y06756D02*
Y06728D01*
X-00389Y06725*
X-00392Y06728*
X-00395Y06736*
Y06745*
X-00392Y06753*
X-00386Y06759*
X-00378Y06762*
X-00372*
X-00364Y06759*
X-00358Y06753*
X-00355Y06745*
Y06736*
X-00358Y06728*
X-00361Y06725*
X-00366Y06722*
X-00499Y03261D02*
X-00505Y03258D01*
X-00508Y0325*
Y03244*
X-00505Y03235*
X-00496Y0323*
X-00482Y03227*
X-00468*
X-00456Y0323*
X-0045Y03235*
X-00448Y03244*
Y03247*
X-0045Y03255*
X-00456Y03261*
X-00465Y03264*
X-00468*
X-00476Y03261*
X-00482Y03255*
X-00485Y03247*
Y03244*
X-00482Y03235*
X-00476Y0323*
X-00468Y03227*
X-00508Y03291D02*
X-00505Y03283D01*
X-00499Y0328*
X-00493*
X-00488Y03283*
X-00485Y03289*
X-00482Y033*
X-00479Y03309*
X-00473Y03314*
X-00468Y03317*
X-00459*
X-00453Y03314*
X-0045Y03311*
X-00448Y03303*
Y03291*
X-0045Y03283*
X-00453Y0328*
X-00459Y03277*
X-00468*
X-00473Y0328*
X-00479Y03286*
X-00482Y03294*
X-00485Y03306*
X-00488Y03311*
X-00493Y03314*
X-00499*
X-00505Y03311*
X-00508Y03303*
Y03291*
Y03348D02*
X-00505Y03339D01*
X-00496Y03333*
X-00482Y03331*
X-00473*
X-00459Y03333*
X-0045Y03339*
X-00448Y03348*
Y03353*
X-0045Y03362*
X-00459Y03368*
X-00473Y03371*
X-00482*
X-00496Y03368*
X-00505Y03362*
X-00508Y03353*
Y03348*
Y03401D02*
X-00505Y03393D01*
X-00496Y03387*
X-00482Y03384*
X-00473*
X-00459Y03387*
X-0045Y03393*
X-00448Y03401*
Y03407*
X-0045Y03415*
X-00459Y03421*
X-00473Y03424*
X-00482*
X-00496Y03421*
X-00505Y03415*
X-00508Y03407*
Y03401*
X-00488Y03437D02*
X-00448D01*
X-00476D02*
X-00485Y03446D01*
X-00488Y03452*
Y0346*
X-00485Y03466*
X-00476Y03469*
X-00448*
X-00476D02*
X-00485Y03477D01*
X-00488Y03483*
Y03492*
X-00485Y03497*
X-00476Y035*
X-00448*
X-00508Y03525D02*
X-00505Y03528D01*
X-00508Y03531*
X-0051Y03528*
X-00508Y03525*
X-00488Y03528D02*
X-00448D01*
X-00508Y03541D02*
X-00448D01*
G54D152*
X011Y0195D03*
X0085D03*
X011Y02325D03*
X0085D03*
G54D153*
X012Y02735D03*
Y02565D03*
M02*