%FSTAX23Y23*%
%MOIN*%
%SFA1B1*%

%IPPOS*%
%ADD10C,0.010000*%
%ADD11C,0.005000*%
%ADD13C,0.008000*%
%ADD17C,0.006000*%
%ADD36C,0.001000*%
%ADD54C,0.007000*%
%ADD55C,0.016000*%
%LNmb785a-1*%
%LPD*%
G36*
X-04439Y-01206D02*
X-04449Y-01217D01*
X-04443Y-01226*
Y-01225*
Y-01224*
Y-01223*
X-04442Y-01222*
Y-01221*
X-04441Y-0122*
X-0444Y-01219*
X-04439Y-01218*
X-04438*
Y-01217*
X-04437*
X-04436Y-01216*
X-04435*
X-04434*
X-04433*
X-04432*
X-04431*
X-0443*
X-04429*
X-04428*
X-04427*
Y-01217*
X-04426*
X-04425Y-01218*
X-04424*
Y-01219*
X-04423*
Y-0122*
X-04422*
Y-01221*
X-04421*
Y-01222*
X-0442Y-01223*
Y-01225*
X-04419*
Y-01226*
Y-01227*
Y-01228*
Y-01229*
Y-0123*
Y-01231*
Y-01232*
Y-01233*
X-0442Y-01234*
Y-01235*
Y-01236*
X-04421Y-01237*
X-04422*
Y-01238*
X-04423Y-01239*
X-04424Y-0124*
X-04425*
X-04426Y-01241*
X-04427Y-01242*
X-04428*
X-04429*
X-0443*
X-04431*
X-04432*
X-04433*
X-04434*
X-04435*
X-04436Y-01241*
X-04437*
X-04438Y-0124*
X-04439Y-01239*
X-04436Y-01236*
X-04435*
X-04434*
Y-01237*
X-04433*
X-04432Y-01238*
X-04431*
X-0443*
X-04429*
X-04428Y-01237*
X-04427*
X-04426Y-01236*
X-04425*
Y-01235*
X-04424*
Y-01234*
Y-01233*
X-04423Y-01232*
Y-01231*
Y-0123*
Y-01229*
Y-01228*
X-04424Y-01227*
Y-01226*
X-04425Y-01224*
X-04426Y-01223*
X-04427*
Y-01222*
X-04428*
X-04429Y-01221*
X-0443*
X-04431*
X-04432Y-0122*
X-04433*
X-04434Y-01221*
X-04435*
X-04436*
X-04437Y-01222*
X-04438Y-01223*
X-04439*
Y-01224*
X-0444Y-01225*
Y-01226*
Y-01227*
Y-01228*
Y-01229*
Y-0123*
X-04444Y-01233*
X-04455Y-01217*
X-04442Y-01203*
X-04439Y-01206*
G37*
G36*
X-0442Y-01186D02*
X-04419D01*
X-04418Y-01187*
X-04417*
X-04416*
X-04415Y-01188*
X-04414*
X-04413Y-01189*
X-04412*
Y-0119*
X-04411*
X-0441Y-01191*
X-04409Y-01192*
X-04408*
Y-01193*
X-04407Y-01194*
X-04406*
Y-01195*
X-04405*
Y-01196*
X-04404Y-01197*
X-04402Y-01199*
X-04401Y-012*
X-044Y-01202*
X-04399Y-01203*
Y-01204*
Y-01205*
Y-01206*
X-04398Y-01207*
Y-01208*
Y-01209*
Y-01211*
Y-01212*
Y-01213*
X-04399Y-01214*
Y-01215*
X-044Y-01216*
X-04401Y-01217*
X-04402*
Y-01218*
X-04403*
Y-01219*
X-04404*
X-04405Y-0122*
X-04406*
X-04407*
X-04408Y-01221*
X-04409*
X-0441*
Y-0122*
X-04411*
X-04412*
X-04413*
X-04414Y-01219*
X-04415*
X-04416Y-01218*
X-04417Y-01217*
X-04419*
X-0442Y-01216*
X-04421Y-01215*
X-04422Y-01213*
X-04424Y-01212*
X-04425Y-01211*
X-04426Y-0121*
X-04427Y-01209*
X-04428Y-01208*
X-04429Y-01206*
X-0443Y-01205*
Y-01204*
X-04431Y-01203*
Y-01202*
X-04432Y-01201*
Y-012*
Y-01199*
Y-01197*
Y-01196*
Y-01195*
Y-01194*
X-04431Y-01193*
Y-01192*
X-0443Y-01191*
X-04429Y-01189*
X-04428*
Y-01188*
X-04427*
X-04426Y-01187*
X-04425*
X-04424Y-01186*
X-04423*
X-04422*
X-04421*
X-0442*
G37*
G36*
X-04473Y-01239D02*
X-04471D01*
X-0447*
X-04469Y-0124*
X-04468*
X-04467Y-01241*
X-04466Y-01242*
X-04465*
Y-01243*
Y-01244*
X-04464Y-01245*
Y-01246*
X-04463Y-01247*
Y-01248*
Y-01249*
Y-0125*
X-04464Y-01251*
Y-01252*
Y-01253*
X-04465Y-01254*
Y-01255*
X-04466Y-01256*
Y-01257*
X-04465Y-01256*
X-04464*
X-04463*
X-04462*
X-04461*
X-0446*
X-04459*
X-04458*
X-04456Y-01257*
X-04444Y-01259*
X-04449Y-01264*
X-04458Y-01262*
X-04459*
Y-01261*
X-0446*
X-04461*
X-04462*
X-04463*
X-04464*
X-04465*
X-04466Y-0126*
X-04467*
Y-01261*
X-04468*
X-04469*
X-0447*
Y-01262*
X-04471*
X-04472*
Y-01263*
X-04477Y-01267*
X-04465Y-0128*
X-04468Y-01283*
X-04495Y-01256*
X-04483Y-01244*
Y-01243*
X-04482*
X-04481Y-01242*
X-0448Y-01241*
X-04479Y-0124*
X-04478*
Y-01239*
X-04477*
X-04476*
X-04475*
X-04474*
X-04473*
G37*
G36*
X-04509Y-01305D02*
X-04506Y-01302D01*
X-04503Y-01305*
X-04506Y-01308*
X-045Y-01315*
X-04503Y-01318*
X-0451Y-01312*
X-04522Y-01323*
X-04525Y-0132*
X-0453Y-0129*
X-04527Y-01288*
X-04509Y-01305*
G37*
G36*
X-04491Y-0129D02*
X-04501Y-013D01*
X-04505Y-01297*
X-04494Y-01286*
X-04491Y-0129*
G37*
G36*
X-04353Y-01168D02*
X-04357Y-01172D01*
X-04377Y-01152*
X-04373Y-01149*
X-04353Y-01168*
G37*
G36*
X-04345Y-0116D02*
X-04348Y-01163D01*
X-04376Y-01136*
X-04372Y-01133*
X-04345Y-0116*
G37*
G36*
X-04377Y-01145D02*
X-0438Y-01148D01*
X-04384Y-01145*
X-04381Y-01141*
X-04377Y-01145*
G37*
G36*
X-04381Y-0116D02*
D01*
X-0438*
X-04379Y-01161*
X-04378*
X-04377Y-01162*
X-04376*
Y-01163*
X-04375*
X-04362Y-01177*
X-04365Y-0118*
X-04377Y-01168*
X-04378*
Y-01167*
X-04379*
Y-01166*
X-0438*
Y-01165*
X-04381*
X-04382*
X-04383*
X-04384*
X-04385*
Y-01166*
X-04386*
Y-01167*
X-04387Y-01168*
X-04388Y-01169*
Y-0117*
Y-01171*
Y-01172*
Y-01173*
X-04387Y-01174*
Y-01175*
X-04386Y-01176*
X-04385Y-01177*
X-04373Y-01188*
X-04377Y-01192*
X-0439Y-01179*
Y-01178*
X-04391*
X-04392Y-01177*
X-04393*
X-04394Y-01176*
X-04395Y-01177*
X-04396*
X-04397*
X-04398Y-01178*
Y-01179*
X-04399*
Y-0118*
Y-01181*
Y-01182*
Y-01183*
Y-01184*
Y-01185*
Y-01186*
X-04398*
Y-01187*
X-04397Y-01188*
X-04396Y-01189*
X-04395Y-0119*
X-04385Y-012*
X-04389Y-01204*
X-04408Y-01184*
X-04405Y-01181*
X-04402Y-01184*
Y-01183*
X-04403*
Y-01182*
Y-01181*
X-04402Y-0118*
Y-01179*
Y-01178*
Y-01177*
X-04401*
Y-01176*
X-044Y-01175*
Y-01174*
X-04399*
X-04398Y-01173*
X-04397Y-01172*
X-04396*
X-04395*
X-04394*
X-04393*
X-04392*
X-04391*
Y-01171*
Y-0117*
Y-01169*
Y-01168*
X-0439Y-01167*
Y-01166*
Y-01165*
X-04389Y-01164*
Y-01163*
X-04388*
Y-01162*
X-04387*
X-04386Y-01161*
X-04385*
X-04384Y-0116*
X-04383*
X-04382*
X-04381*
G37*
%LNmb785a-2*%
%LPC*%
G36*
X-04525Y-01296D02*
X-04521Y-01317D01*
X-04513Y-01309*
X-04525Y-01296*
G37*
G36*
X-04421Y-0119D02*
D01*
X-04422*
X-04423Y-01191*
X-04424*
X-04425*
X-04426Y-01192*
X-04427Y-01193*
Y-01194*
X-04428Y-01195*
Y-01196*
Y-01197*
Y-01198*
Y-01199*
X-04427Y-012*
Y-01201*
X-04426Y-01202*
X-04425Y-01203*
X-04424Y-01204*
Y-01205*
X-04423Y-01206*
X-04422Y-01207*
X-0442Y-01209*
X-04419Y-0121*
X-04418Y-01211*
X-04417*
Y-01212*
X-04415Y-01213*
X-04413Y-01215*
X-04412*
Y-01216*
X-04411*
X-0441*
X-04409*
X-04408*
X-04407*
X-04406*
X-04405Y-01215*
X-04404*
Y-01214*
X-04403Y-01213*
Y-01212*
X-04402Y-01211*
Y-0121*
Y-01209*
Y-01208*
X-04403Y-01207*
Y-01206*
X-04404Y-01205*
Y-01204*
X-04405Y-01203*
X-04406Y-01202*
Y-01201*
X-04407Y-012*
X-04408Y-01199*
X-0441Y-01198*
Y-01197*
X-04411*
Y-01196*
X-04412*
X-04413Y-01195*
Y-01194*
X-04415Y-01193*
X-04417Y-01192*
X-04418Y-01191*
X-04419*
X-0442*
Y-0119*
Y-01191*
X-04421Y-0119*
G37*
G36*
X-04474Y-01244D02*
X-04475D01*
X-04476*
X-04477*
X-04478Y-01245*
X-04479Y-01246*
X-0448Y-01247*
X-04489Y-01255*
X-0448Y-01264*
X-04472Y-01257*
Y-01256*
X-04471*
Y-01255*
X-0447*
Y-01254*
X-04469Y-01253*
Y-01252*
X-04468*
Y-01251*
Y-0125*
Y-01249*
Y-01248*
X-04469*
Y-01247*
Y-01246*
X-0447Y-01245*
X-04471*
Y-01244*
X-04472*
X-04473*
X-04474*
G37*
%LNmb785a-3*%
%LPD*%
G54D10*
X-04707Y-01533D02*
X-04516Y-01343D01*
X-04711Y-01537D02*
X-04676Y-01502D01*
X-04711Y-01537D02*
X-04654Y-01509D01*
X-04711Y-01537D02*
X-04683Y-01481D01*
X-02027Y0052D02*
X-0203Y00511D01*
X-02036Y00506*
X-02044Y00503*
X-02047*
X-02056Y00506*
X-02062Y00511*
X-02064Y0052*
Y00523*
X-02062Y00531*
X-02056Y00537*
X-02047Y0054*
X-02044*
X-02036Y00537*
X-0203Y00531*
X-02027Y0052*
Y00506*
X-0203Y00491*
X-02036Y00483*
X-02044Y0048*
X-0205*
X-02059Y00483*
X-02062Y00489*
X-01994Y0054D02*
X-02002Y00537D01*
X-02008Y00529*
X-02011Y00514*
Y00506*
X-02008Y00491*
X-02002Y00483*
X-01994Y0048*
X-01988*
X-0198Y00483*
X-01974Y00491*
X-01971Y00506*
Y00514*
X-01974Y00529*
X-0198Y00537*
X-01988Y0054*
X-01994*
X-01483Y00529D02*
X-01478Y00531D01*
X-01469Y0054*
Y0048*
X-01405Y00531D02*
X-01408Y00537D01*
X-01417Y0054*
X-01422*
X-01431Y00537*
X-01437Y00529*
X-01439Y00514*
Y005*
X-01437Y00489*
X-01431Y00483*
X-01422Y0048*
X-01419*
X-01411Y00483*
X-01405Y00489*
X-01402Y00497*
Y005*
X-01405Y00509*
X-01411Y00514*
X-01419Y00517*
X-01422*
X-01431Y00514*
X-01437Y00509*
X-01439Y005*
X-01389Y0052D02*
Y0048D01*
Y00509D02*
X-01381Y00517D01*
X-01375Y0052*
X-01366*
X-01361Y00517*
X-01358Y00509*
Y0048*
Y00509D02*
X-01349Y00517D01*
X-01343Y0052*
X-01335*
X-01329Y00517*
X-01326Y00509*
Y0048*
X-01302Y0054D02*
X-01299Y00537D01*
X-01296Y0054*
X-01299Y00543*
X-01302Y0054*
X-01299Y0052D02*
Y0048D01*
X-01285Y0054D02*
Y0048D01*
X-01206Y00551D02*
X-01211Y00546D01*
X-01217Y00537*
X-01223Y00526*
X-01226Y00511*
Y005*
X-01223Y00486*
X-01217Y00474*
X-01211Y00466*
X-01206Y0046*
X-01211Y00546D02*
X-01217Y00534D01*
X-0122Y00526*
X-01223Y00511*
Y005*
X-0122Y00486*
X-01217Y00477*
X-01211Y00466*
X-01177Y0054D02*
X-01186Y00537D01*
X-01191Y00529*
X-01194Y00514*
Y00506*
X-01191Y00491*
X-01186Y00483*
X-01177Y0048*
X-01171*
X-01163Y00483*
X-01157Y00491*
X-01154Y00506*
Y00514*
X-01157Y00529*
X-01163Y00537*
X-01171Y0054*
X-01177*
X-01138Y00486D02*
X-01141Y00483D01*
X-01138Y0048*
X-01135Y00483*
X-01138Y00486*
X-01093Y0054D02*
X-01122Y005D01*
X-01079*
X-01093Y0054D02*
Y0048D01*
X-01051Y0054D02*
X-0106Y00537D01*
X-01066Y00529*
X-01069Y00514*
Y00506*
X-01066Y00491*
X-0106Y00483*
X-01051Y0048*
X-01046*
X-01037Y00483*
X-01031Y00491*
X-01029Y00506*
Y00514*
X-01031Y00529*
X-01037Y00537*
X-01046Y0054*
X-01051*
X-00981Y00531D02*
X-00984Y00537D01*
X-00992Y0054*
X-00998*
X-01007Y00537*
X-01012Y00529*
X-01015Y00514*
Y005*
X-01012Y00489*
X-01007Y00483*
X-00998Y0048*
X-00995*
X-00987Y00483*
X-00981Y00489*
X-00978Y00497*
Y005*
X-00981Y00509*
X-00987Y00514*
X-00995Y00517*
X-00998*
X-01007Y00514*
X-01012Y00509*
X-01015Y005*
X-00936Y0054D02*
X-00965Y005D01*
X-00922*
X-00936Y0054D02*
Y0048D01*
X-00911Y0052D02*
Y0048D01*
Y00509D02*
X-00903Y00517D01*
X-00897Y0052*
X-00889*
X-00883Y00517*
X-0088Y00509*
Y0048*
Y00509D02*
X-00872Y00517D01*
X-00866Y0052*
X-00857*
X-00852Y00517*
X-00849Y00509*
Y0048*
X-0083Y0052D02*
Y0048D01*
Y00509D02*
X-00821Y00517D01*
X-00816Y0052*
X-00807*
X-00801Y00517*
X-00798Y00509*
Y0048*
Y00509D02*
X-0079Y00517D01*
X-00784Y0052*
X-00776*
X-0077Y00517*
X-00767Y00509*
Y0048*
X-00748Y00551D02*
X-00742Y00546D01*
X-00737Y00537*
X-00731Y00526*
X-00728Y00511*
Y005*
X-00731Y00486*
X-00737Y00474*
X-00742Y00466*
X-00748Y0046*
X-00742Y00546D02*
X-00737Y00534D01*
X-00734Y00526*
X-00731Y00511*
Y005*
X-00734Y00486*
X-00737Y00477*
X-00742Y00466*
X-0062Y00509D02*
X-00594D01*
X-00586Y00511*
X-00583Y00514*
X-0058Y0052*
Y00529*
X-00583Y00534*
X-00586Y00537*
X-00594Y0054*
X-0062*
Y0048*
X-00547Y0054D02*
Y0048D01*
X-00567Y0054D02*
X-00527D01*
X-0052D02*
Y0048D01*
X-0048Y0054D02*
Y0048D01*
X-0052Y00511D02*
X-0048D01*
X-00225Y0054D02*
Y0048D01*
Y0054D02*
X-00199D01*
X-00191Y00537*
X-00188Y00534*
X-00185Y00529*
Y00523*
X-00188Y00517*
X-00191Y00514*
X-00199Y00511*
X-00225*
X-00205D02*
X-00185Y0048D01*
X-00157Y0052D02*
X-00163Y00517D01*
X-00169Y00511*
X-00172Y00503*
Y00497*
X-00169Y00489*
X-00163Y00483*
X-00157Y0048*
X-00149*
X-00143Y00483*
X-00137Y00489*
X-00135Y00497*
Y00503*
X-00137Y00511*
X-00143Y00517*
X-00149Y0052*
X-00157*
X-00122D02*
Y00491D01*
X-00119Y00483*
X-00113Y0048*
X-00104*
X-00099Y00483*
X-0009Y00491*
Y0052D02*
Y0048D01*
X-00074Y0052D02*
Y0048D01*
Y00509D02*
X-00066Y00517D01*
X-0006Y0052*
X-00052*
X-00046Y00517*
X-00043Y00509*
Y0048*
X00007Y0054D02*
Y0048D01*
Y00511D02*
X00001Y00517D01*
X-00004Y0052*
X-00013*
X-00019Y00517*
X-00024Y00511*
X-00027Y00503*
Y00497*
X-00024Y00489*
X-00019Y00483*
X-00013Y0048*
X-00004*
X00001Y00483*
X00007Y00489*
X-02059Y0042D02*
X-02027D01*
X-02044Y00397*
X-02036*
X-0203Y00394*
X-02027Y00391*
X-02024Y00383*
Y00377*
X-02027Y00369*
X-02033Y00363*
X-02042Y0036*
X-0205*
X-02059Y00363*
X-02062Y00366*
X-02064Y00371*
X-01982Y0042D02*
X-02011Y0038D01*
X-01968*
X-01982Y0042D02*
Y0036D01*
X-01455Y0042D02*
X-01483Y0038D01*
X-01441*
X-01455Y0042D02*
Y0036D01*
X-01413Y0042D02*
X-01421Y00417D01*
X-01427Y00409*
X-0143Y00394*
Y00386*
X-01427Y00371*
X-01421Y00363*
X-01413Y0036*
X-01407*
X-01399Y00363*
X-01393Y00371*
X-0139Y00386*
Y00394*
X-01393Y00409*
X-01399Y00417*
X-01407Y0042*
X-01413*
X-01377Y004D02*
Y0036D01*
Y00389D02*
X-01368Y00397D01*
X-01362Y004*
X-01354*
X-01348Y00397*
X-01345Y00389*
Y0036*
Y00389D02*
X-01337Y00397D01*
X-01331Y004*
X-01322*
X-01317Y00397*
X-01314Y00389*
Y0036*
X-01289Y0042D02*
X-01286Y00417D01*
X-01283Y0042*
X-01286Y00423*
X-01289Y0042*
X-01286Y004D02*
Y0036D01*
X-01273Y0042D02*
Y0036D01*
X-01193Y00431D02*
X-01199Y00426D01*
X-01205Y00417*
X-0121Y00406*
X-01213Y00391*
Y0038*
X-0121Y00366*
X-01205Y00354*
X-01199Y00346*
X-01193Y0034*
X-01199Y00426D02*
X-01205Y00414D01*
X-01207Y00406*
X-0121Y00391*
Y0038*
X-01207Y00366*
X-01205Y00357*
X-01199Y00346*
X-01182Y00409D02*
X-01176Y00411D01*
X-01167Y0042*
Y0036*
X-01135Y00366D02*
X-01138Y00363D01*
X-01135Y0036*
X-01132Y00363*
X-01135Y00366*
X-01102Y0042D02*
X-0111Y00417D01*
X-01116Y00409*
X-01119Y00394*
Y00386*
X-01116Y00371*
X-0111Y00363*
X-01102Y0036*
X-01096*
X-01087Y00363*
X-01082Y00371*
X-01079Y00386*
Y00394*
X-01082Y00409*
X-01087Y00417*
X-01096Y0042*
X-01102*
X-01065Y00409D02*
X-0106Y00411D01*
X-01051Y0042*
Y0036*
X-00987Y00411D02*
X-0099Y00417D01*
X-00999Y0042*
X-01004*
X-01013Y00417*
X-01019Y00409*
X-01021Y00394*
Y0038*
X-01019Y00369*
X-01013Y00363*
X-01004Y0036*
X-01001*
X-00993Y00363*
X-00987Y00369*
X-00984Y00377*
Y0038*
X-00987Y00389*
X-00993Y00394*
X-01001Y00397*
X-01004*
X-01013Y00394*
X-01019Y00389*
X-01021Y0038*
X-00971Y004D02*
Y0036D01*
Y00389D02*
X-00963Y00397D01*
X-00957Y004*
X-00948*
X-00943Y00397*
X-0094Y00389*
Y0036*
Y00389D02*
X-00931Y00397D01*
X-00925Y004*
X-00917*
X-00911Y00397*
X-00908Y00389*
Y0036*
X-00889Y004D02*
Y0036D01*
Y00389D02*
X-00881Y00397D01*
X-00875Y004*
X-00867*
X-00861Y00397*
X-00858Y00389*
Y0036*
Y00389D02*
X-0085Y00397D01*
X-00844Y004*
X-00835*
X-0083Y00397*
X-00827Y00389*
Y0036*
X-00808Y00431D02*
X-00802Y00426D01*
X-00796Y00417*
X-00791Y00406*
X-00788Y00391*
Y0038*
X-00791Y00366*
X-00796Y00354*
X-00802Y00346*
X-00808Y0034*
X-00802Y00426D02*
X-00796Y00414D01*
X-00794Y00406*
X-00791Y00391*
Y0038*
X-00794Y00366*
X-00796Y00357*
X-00802Y00346*
X-0062Y00389D02*
X-00594D01*
X-00586Y00391*
X-00583Y00394*
X-0058Y004*
Y00409*
X-00583Y00414*
X-00586Y00417*
X-00594Y0042*
X-0062*
Y0036*
X-00547Y0042D02*
Y0036D01*
X-00567Y0042D02*
X-00527D01*
X-0052D02*
Y0036D01*
X-0048Y0042D02*
Y0036D01*
X-0052Y00391D02*
X-0048D01*
X-00225Y0042D02*
Y0036D01*
Y0042D02*
X-00199D01*
X-00191Y00417*
X-00188Y00414*
X-00185Y00409*
Y00403*
X-00188Y00397*
X-00191Y00394*
X-00199Y00391*
X-00225*
X-00205D02*
X-00185Y0036D01*
X-00157Y004D02*
X-00163Y00397D01*
X-00169Y00391*
X-00172Y00383*
Y00377*
X-00169Y00369*
X-00163Y00363*
X-00157Y0036*
X-00149*
X-00143Y00363*
X-00137Y00369*
X-00135Y00377*
Y00383*
X-00137Y00391*
X-00143Y00397*
X-00149Y004*
X-00157*
X-00122D02*
Y00371D01*
X-00119Y00363*
X-00113Y0036*
X-00104*
X-00099Y00363*
X-0009Y00371*
Y004D02*
Y0036D01*
X-00074Y004D02*
Y0036D01*
Y00389D02*
X-00066Y00397D01*
X-0006Y004*
X-00052*
X-00046Y00397*
X-00043Y00389*
Y0036*
X00007Y0042D02*
Y0036D01*
Y00391D02*
X00001Y00397D01*
X-00004Y004*
X-00013*
X-00019Y00397*
X-00024Y00391*
X-00027Y00383*
Y00377*
X-00024Y00369*
X-00019Y00363*
X-00013Y0036*
X-00004*
X00001Y00363*
X00007Y00369*
X-02062Y00286D02*
Y00289D01*
X-02059Y00294*
X-02056Y00297*
X-0205Y003*
X-02039*
X-02033Y00297*
X-0203Y00294*
X-02027Y00289*
Y00283*
X-0203Y00277*
X-02036Y00269*
X-02064Y0024*
X-02024*
X-01483Y00289D02*
X-01478Y00291D01*
X-01469Y003*
Y0024*
X-01437Y00286D02*
Y00289D01*
X-01434Y00294*
X-01431Y00297*
X-01425Y003*
X-01414*
X-01408Y00297*
X-01405Y00294*
X-01402Y00289*
Y00283*
X-01405Y00277*
X-01411Y00269*
X-01439Y0024*
X-01399*
X-01352Y003D02*
X-0138D01*
X-01383Y00274*
X-0138Y00277*
X-01372Y0028*
X-01363*
X-01355Y00277*
X-01349Y00271*
X-01346Y00263*
Y00257*
X-01349Y00249*
X-01355Y00243*
X-01363Y0024*
X-01372*
X-0138Y00243*
X-01383Y00246*
X-01386Y00251*
X-0133Y00246D02*
X-01333Y00243D01*
X-0133Y0024*
X-01327Y00243*
X-0133Y00246*
X-01277Y0028D02*
X-01279Y00271D01*
X-01285Y00266*
X-01294Y00263*
X-01297*
X-01305Y00266*
X-01311Y00271*
X-01314Y0028*
Y00283*
X-01311Y00291*
X-01305Y00297*
X-01297Y003*
X-01294*
X-01285Y00297*
X-01279Y00291*
X-01277Y0028*
Y00266*
X-01279Y00251*
X-01285Y00243*
X-01294Y0024*
X-01299*
X-01308Y00243*
X-01311Y00249*
X-01246Y003D02*
X-01255Y00297D01*
X-01257Y00291*
Y00286*
X-01255Y0028*
X-01249Y00277*
X-01237Y00274*
X-01229Y00271*
X-01223Y00266*
X-0122Y0026*
Y00251*
X-01223Y00246*
X-01226Y00243*
X-01235Y0024*
X-01246*
X-01255Y00243*
X-01257Y00246*
X-0126Y00251*
Y0026*
X-01257Y00266*
X-01252Y00271*
X-01243Y00274*
X-01232Y00277*
X-01226Y0028*
X-01223Y00286*
Y00291*
X-01226Y00297*
X-01235Y003*
X-01246*
X-01178D02*
X-01207Y0026D01*
X-01164*
X-01178Y003D02*
Y0024D01*
X-01153Y0028D02*
Y0024D01*
Y00269D02*
X-01145Y00277D01*
X-01139Y0028*
X-01131*
X-01125Y00277*
X-01122Y00269*
Y0024*
Y00269D02*
X-01113Y00277D01*
X-01108Y0028*
X-01099*
X-01093Y00277*
X-01091Y00269*
Y0024*
X-01066Y003D02*
X-01063Y00297D01*
X-0106Y003*
X-01063Y00303*
X-01066Y003*
X-01063Y0028D02*
Y0024D01*
X-0105Y003D02*
Y0024D01*
X-0097Y00311D02*
X-00976Y00306D01*
X-00981Y00297*
X-00987Y00286*
X-0099Y00271*
Y0026*
X-00987Y00246*
X-00981Y00234*
X-00976Y00226*
X-0097Y0022*
X-00976Y00306D02*
X-00981Y00294D01*
X-00984Y00286*
X-00987Y00271*
Y0026*
X-00984Y00246*
X-00981Y00237*
X-00976Y00226*
X-00953Y003D02*
X-00921D01*
X-00939Y00277*
X-0093*
X-00924Y00274*
X-00921Y00271*
X-00919Y00263*
Y00257*
X-00921Y00249*
X-00927Y00243*
X-00936Y0024*
X-00944*
X-00953Y00243*
X-00956Y00246*
X-00959Y00251*
X-00902Y00246D02*
X-00905Y00243D01*
X-00902Y0024*
X-00899Y00243*
X-00902Y00246*
X-00883Y00286D02*
Y00289D01*
X-00881Y00294*
X-00878Y00297*
X-00872Y003*
X-00861*
X-00855Y00297*
X-00852Y00294*
X-00849Y00289*
Y00283*
X-00852Y00277*
X-00858Y00269*
X-00886Y0024*
X-00846*
X-00833Y0028D02*
Y0024D01*
Y00269D02*
X-00824Y00277D01*
X-00819Y0028*
X-0081*
X-00804Y00277*
X-00802Y00269*
Y0024*
Y00269D02*
X-00793Y00277D01*
X-00787Y0028*
X-00779*
X-00773Y00277*
X-0077Y00269*
Y0024*
X-00751Y0028D02*
Y0024D01*
Y00269D02*
X-00743Y00277D01*
X-00737Y0028*
X-00728*
X-00723Y00277*
X-0072Y00269*
Y0024*
Y00269D02*
X-00711Y00277D01*
X-00706Y0028*
X-00697*
X-00691Y00277*
X-00688Y00269*
Y0024*
X-0067Y00311D02*
X-00664Y00306D01*
X-00658Y00297*
X-00652Y00286*
X-0065Y00271*
Y0026*
X-00652Y00246*
X-00658Y00234*
X-00664Y00226*
X-0067Y0022*
X-00664Y00306D02*
X-00658Y00294D01*
X-00655Y00286*
X-00652Y00271*
Y0026*
X-00655Y00246*
X-00658Y00237*
X-00664Y00226*
X-0062Y003D02*
Y0024D01*
Y003D02*
X-0058Y0024D01*
Y003D02*
Y0024D01*
X-00564Y00269D02*
X-00538D01*
X-00529Y00271*
X-00526Y00274*
X-00524Y0028*
Y00289*
X-00526Y00294*
X-00529Y00297*
X-00538Y003*
X-00564*
Y0024*
X-0049Y003D02*
Y0024D01*
X-0051Y003D02*
X-0047D01*
X-00463D02*
Y0024D01*
X-00423Y003D02*
Y0024D01*
X-00463Y00271D02*
X-00423D01*
X-00225Y003D02*
Y0024D01*
Y003D02*
X-00199D01*
X-00191Y00297*
X-00188Y00294*
X-00185Y00289*
Y00283*
X-00188Y00277*
X-00191Y00274*
X-00199Y00271*
X-00225*
X-00205D02*
X-00185Y0024D01*
X-00157Y0028D02*
X-00163Y00277D01*
X-00169Y00271*
X-00172Y00263*
Y00257*
X-00169Y00249*
X-00163Y00243*
X-00157Y0024*
X-00149*
X-00143Y00243*
X-00137Y00249*
X-00135Y00257*
Y00263*
X-00137Y00271*
X-00143Y00277*
X-00149Y0028*
X-00157*
X-00122D02*
Y00251D01*
X-00119Y00243*
X-00113Y0024*
X-00104*
X-00099Y00243*
X-0009Y00251*
Y0028D02*
Y0024D01*
X-00074Y0028D02*
Y0024D01*
Y00269D02*
X-00066Y00277D01*
X-0006Y0028*
X-00052*
X-00046Y00277*
X-00043Y00269*
Y0024*
X00007Y003D02*
Y0024D01*
Y00271D02*
X00001Y00277D01*
X-00004Y0028*
X-00013*
X-00019Y00277*
X-00024Y00271*
X-00027Y00263*
Y00257*
X-00024Y00249*
X-00019Y00243*
X-00013Y0024*
X-00004*
X00001Y00243*
X00007Y00249*
X-02064Y00169D02*
X-02059Y00171D01*
X-0205Y0018*
Y0012*
X-02018Y00166D02*
Y00169D01*
X-02015Y00174*
X-02012Y00177*
X-02006Y0018*
X-01995*
X-01989Y00177*
X-01986Y00174*
X-01983Y00169*
Y00163*
X-01986Y00157*
X-01992Y00149*
X-0202Y0012*
X-0198*
X-01933Y00171D02*
X-01936Y00177D01*
X-01944Y0018*
X-0195*
X-01958Y00177*
X-01964Y00169*
X-01967Y00154*
Y0014*
X-01964Y00129*
X-01958Y00123*
X-0195Y0012*
X-01947*
X-01938Y00123*
X-01933Y00129*
X-0193Y00137*
Y0014*
X-01933Y00149*
X-01938Y00154*
X-01947Y00157*
X-0195*
X-01958Y00154*
X-01964Y00149*
X-01967Y0014*
X-01802Y0018D02*
Y0012D01*
X-01822Y0018D02*
X-01782D01*
X-0176Y0016D02*
X-01766Y00157D01*
X-01772Y00151*
X-01775Y00143*
Y00137*
X-01772Y00129*
X-01766Y00123*
X-0176Y0012*
X-01752*
X-01746Y00123*
X-0174Y00129*
X-01738Y00137*
Y00143*
X-0174Y00151*
X-01746Y00157*
X-01752Y0016*
X-0176*
X-01716Y0018D02*
Y00131D01*
X-01713Y00123*
X-01707Y0012*
X-01702*
X-01724Y0016D02*
X-01704D01*
X-01659D02*
Y0012D01*
Y00151D02*
X-01664Y00157D01*
X-0167Y0016*
X-01679*
X-01684Y00157*
X-0169Y00151*
X-01693Y00143*
Y00137*
X-0169Y00129*
X-01684Y00123*
X-01679Y0012*
X-0167*
X-01664Y00123*
X-01659Y00129*
X-01643Y0018D02*
Y0012D01*
G54D11*
X-03851Y-00852D02*
D01*
X-03851Y-00848*
X-03851Y-00845*
X-03852Y-00841*
X-03852Y-00838*
X-03854Y-00834*
X-03855Y-00831*
X-03856Y-00828*
X-03858Y-00825*
X-0386Y-00822*
X-03862Y-00819*
X-03865Y-00817*
X-03867Y-00814*
X-0387Y-00812*
X-03873Y-0081*
X-03876Y-00808*
X-03879Y-00807*
X-03882Y-00805*
X-03885Y-00804*
X-03888Y-00803*
X-03892Y-00802*
X-03895Y-00802*
X-03899Y-00802*
X-03901Y-00802*
Y-01552D02*
D01*
X-03897Y-01551*
X-03894Y-01551*
X-0389Y-0155*
X-03887Y-0155*
X-03883Y-01548*
X-0388Y-01547*
X-03877Y-01546*
X-03874Y-01544*
X-03871Y-01542*
X-03868Y-0154*
X-03866Y-01537*
X-03863Y-01535*
X-03861Y-01532*
X-03859Y-01529*
X-03857Y-01527*
X-03856Y-01523*
X-03854Y-0152*
X-03853Y-01517*
X-03852Y-01514*
X-03851Y-0151*
X-03851Y-01507*
X-03851Y-01503*
X-03851Y-01502*
X-04676Y-00802D02*
D01*
X-04679Y-00802*
X-04682Y-00802*
X-04686Y-00803*
X-04689Y-00803*
X-04693Y-00805*
X-04696Y-00806*
X-04699Y-00807*
X-04702Y-00809*
X-04705Y-00811*
X-04708Y-00813*
X-0471Y-00816*
X-04713Y-00818*
X-04715Y-00821*
X-04717Y-00824*
X-04719Y-00827*
X-0472Y-0083*
X-04722Y-00833*
X-04723Y-00836*
X-04724Y-00839*
X-04725Y-00843*
X-04725Y-00846*
X-04725Y-0085*
X-04726Y-00852*
Y-01502D02*
D01*
X-04725Y-01505*
X-04725Y-01508*
X-04724Y-01512*
X-04724Y-01515*
X-04722Y-01519*
X-04721Y-01522*
X-0472Y-01525*
X-04718Y-01528*
X-04716Y-01531*
X-04714Y-01534*
X-04711Y-01536*
X-04709Y-01539*
X-04706Y-01541*
X-04703Y-01543*
X-04701Y-01545*
X-04697Y-01546*
X-04694Y-01548*
X-04691Y-01549*
X-04688Y-0155*
X-04684Y-01551*
X-04681Y-01551*
X-04677Y-01551*
X-04676Y-01552*
X-03851Y-01915D02*
Y-01514D01*
X-04726Y-01915D02*
Y-01514D01*
X-04156Y-01865D02*
X-03851D01*
X-04726D02*
X-04452D01*
X-03911Y-01845D02*
X-03851Y-01865D01*
X-03911Y-01885D02*
X-03851Y-01865D01*
X-04726D02*
X-04666Y-01885D01*
X-04726Y-01865D02*
X-04666Y-01845D01*
X-05246Y-01915D02*
Y-01764D01*
X-04726Y-01915D02*
Y-01514D01*
X-05246Y-01865D02*
X-05145D01*
X-04859D02*
X-04726D01*
X-05246D02*
X-05186Y-01885D01*
X-05246Y-01865D02*
X-05186Y-01845D01*
X-04786D02*
X-04726Y-01865D01*
X-04786Y-01885D02*
X-04726Y-01865D01*
X-05465Y-01752D02*
X-04798D01*
X-05465Y-01552D02*
X-04688D01*
X-05415Y-01752D02*
Y-01652D01*
Y-01552*
Y-01752D02*
X-05395Y-01692D01*
X-05435D02*
X-05415Y-01752D01*
X-05435Y-01612D02*
X-05415Y-01552D01*
X-05395Y-01612*
X-05465Y-01552D02*
X-03913D01*
X-05465Y-00802D02*
X-04688D01*
X-05415Y-01552D02*
Y-01341D01*
Y-01045D02*
Y-00802D01*
Y-01552D02*
X-05395Y-01492D01*
X-05435D02*
X-05415Y-01552D01*
X-05435Y-00862D02*
X-05415Y-00802D01*
X-05395Y-00862*
X-05645Y-01752D02*
X-05259D01*
X-05645Y01748D02*
X-05258D01*
X-05595Y-01752D02*
Y-00192D01*
Y00157D02*
Y01748D01*
Y-01752D02*
X-05575Y-01692D01*
X-05615D02*
X-05595Y-01752D01*
X-05615Y01688D02*
X-05595Y01748D01*
X-05575Y01688*
X-03056Y01761D02*
Y01905D01*
X-05246Y01761D02*
Y01905D01*
X-04002Y01855D02*
X-03056D01*
X-05246D02*
X-04332D01*
X-03116Y01875D02*
X-03056Y01855D01*
X-03116Y01835D02*
X-03056Y01855D01*
X-05246D02*
X-05186Y01835D01*
X-05246Y01855D02*
X-05186Y01875D01*
X-03056Y-01752D02*
Y01748D01*
X-05246D02*
X-03056D01*
X-03055Y-01552D02*
Y01492D01*
X-03056Y-01752D02*
Y01748D01*
X-05246D02*
X-03056D01*
X-05246Y-01752D02*
X-03056D01*
X-04786D02*
X-03056D01*
Y01553D01*
X-05246Y-01752D02*
Y01748D01*
X-04676Y-01552D02*
X-03901D01*
X-04676Y-00802D02*
X-03901D01*
X-03851Y-01502D02*
Y-00852D01*
X-04726Y-01502D02*
Y-00852D01*
G54D13*
X-02472Y0039D02*
D01*
X-02472Y00391*
X-02472Y00393*
X-02472Y00394*
X-02472Y00396*
X-02473Y00398*
X-02474Y00399*
X-02474Y00401*
X-02475Y00402*
X-02476Y00404*
X-02477Y00405*
X-02478Y00406*
X-02479Y00407*
X-02481Y00408*
X-02482Y00409*
X-02484Y0041*
X-02485Y00411*
X-02487Y00412*
X-02488Y00412*
X-0249Y00413*
X-02491Y00413*
X-02493Y00413*
X-02495Y00413*
X-02496*
X-02498Y00413*
X-025Y00413*
X-02501Y00413*
X-02503Y00412*
X-02504Y00412*
X-02506Y00411*
X-02508Y0041*
X-02509Y00409*
X-0251Y00408*
X-02512Y00407*
X-02513Y00406*
X-02514Y00405*
X-02515Y00404*
X-02516Y00402*
X-02517Y00401*
X-02517Y00399*
X-02518Y00398*
X-02519Y00396*
X-02519Y00394*
X-02519Y00393*
X-02519Y00391*
X-0252Y0039*
X-02519Y00388*
X-02519Y00386*
X-02519Y00385*
X-02519Y00383*
X-02518Y00381*
X-02517Y0038*
X-02517Y00378*
X-02516Y00377*
X-02515Y00375*
X-02514Y00374*
X-02513Y00373*
X-02512Y00372*
X-0251Y00371*
X-02509Y0037*
X-02508Y00369*
X-02506Y00368*
X-02504Y00367*
X-02503Y00367*
X-02501Y00366*
X-025Y00366*
X-02498Y00366*
X-02496Y00366*
X-02495*
X-02493Y00366*
X-02491Y00366*
X-0249Y00366*
X-02488Y00367*
X-02487Y00367*
X-02485Y00368*
X-02484Y00369*
X-02482Y0037*
X-02481Y00371*
X-02479Y00372*
X-02478Y00373*
X-02477Y00374*
X-02476Y00375*
X-02475Y00377*
X-02474Y00378*
X-02474Y0038*
X-02473Y00381*
X-02472Y00383*
X-02472Y00385*
X-02472Y00386*
X-02472Y00388*
X-02472Y0039*
G54D17*
X-04422Y-01842D02*
X-0443Y-01845D01*
X-04433Y-01851*
Y-01857*
X-0443Y-01862*
X-04425Y-01865*
X-04413Y-01868*
X-04405Y-01871*
X-04399Y-01877*
X-04396Y-01882*
Y-01891*
X-04399Y-01897*
X-04402Y-019*
X-0441Y-01902*
X-04422*
X-0443Y-019*
X-04433Y-01897*
X-04436Y-01891*
Y-01882*
X-04433Y-01877*
X-04428Y-01871*
X-04419Y-01868*
X-04408Y-01865*
X-04402Y-01862*
X-04399Y-01857*
Y-01851*
X-04402Y-01845*
X-0441Y-01842*
X-04422*
X-04343D02*
X-04371Y-01902D01*
X-04383Y-01842D02*
X-04343D01*
X-04295D02*
X-04324D01*
X-04326Y-01868*
X-04324Y-01865*
X-04315Y-01862*
X-04306*
X-04298Y-01865*
X-04292Y-01871*
X-04289Y-0188*
Y-01885*
X-04292Y-01894*
X-04298Y-019*
X-04306Y-01902*
X-04315*
X-04324Y-019*
X-04326Y-01897*
X-04329Y-01891*
X-04276Y-01862D02*
Y-01902D01*
Y-01874D02*
X-04267Y-01865D01*
X-04262Y-01862*
X-04253*
X-04247Y-01865*
X-04244Y-01874*
Y-01902*
Y-01874D02*
X-04236Y-01865D01*
X-0423Y-01862*
X-04222*
X-04216Y-01865*
X-04213Y-01874*
Y-01902*
X-04188Y-01842D02*
X-04186Y-01845D01*
X-04183Y-01842*
X-04186Y-0184*
X-04188Y-01842*
X-04186Y-01862D02*
Y-01902D01*
X-04172Y-01842D02*
Y-01902D01*
X-05095Y-01842D02*
X-05123D01*
X-05126Y-01868*
X-05123Y-01865*
X-05115Y-01862*
X-05106*
X-05098Y-01865*
X-05092Y-01871*
X-05089Y-0188*
Y-01885*
X-05092Y-01894*
X-05098Y-019*
X-05106Y-01902*
X-05115*
X-05123Y-019*
X-05126Y-01897*
X-05129Y-01891*
X-05073Y-01857D02*
Y-01854D01*
X-0507Y-01848*
X-05067Y-01845*
X-05061Y-01842*
X-0505*
X-05044Y-01845*
X-05041Y-01848*
X-05039Y-01854*
Y-0186*
X-05041Y-01865*
X-05047Y-01874*
X-05076Y-01902*
X-05036*
X-05022Y-01854D02*
X-05017Y-01851D01*
X-05008Y-01842*
Y-01902*
X-04978Y-01862D02*
Y-01902D01*
Y-01874D02*
X-0497Y-01865D01*
X-04964Y-01862*
X-04956*
X-0495Y-01865*
X-04947Y-01874*
Y-01902*
Y-01874D02*
X-04938Y-01865D01*
X-04933Y-01862*
X-04924*
X-04918Y-01865*
X-04916Y-01874*
Y-01902*
X-04891Y-01842D02*
X-04888Y-01845D01*
X-04885Y-01842*
X-04888Y-0184*
X-04891Y-01842*
X-04888Y-01862D02*
Y-01902D01*
X-04875Y-01842D02*
Y-01902D01*
X-05496Y-01717D02*
X-05499D01*
X-05504Y-01714*
X-05507Y-01711*
X-0551Y-01706*
Y-01694*
X-05507Y-01689*
X-05504Y-01686*
X-05499Y-01683*
X-05493*
X-05487Y-01686*
X-05479Y-01691*
X-0545Y-0172*
Y-0168*
X-0551Y-01649D02*
X-05507Y-01658D01*
X-05499Y-01664*
X-05484Y-01667*
X-05476*
X-05461Y-01664*
X-05453Y-01658*
X-0545Y-01649*
Y-01644*
X-05453Y-01635*
X-05461Y-01629*
X-05476Y-01627*
X-05484*
X-05499Y-01629*
X-05507Y-01635*
X-0551Y-01644*
Y-01649*
Y-01596D02*
X-05507Y-01605D01*
X-05499Y-0161*
X-05484Y-01613*
X-05476*
X-05461Y-0161*
X-05453Y-01605*
X-0545Y-01596*
Y-0159*
X-05453Y-01582*
X-05461Y-01576*
X-05476Y-01573*
X-05484*
X-05499Y-01576*
X-05507Y-01582*
X-0551Y-0159*
Y-01596*
X-05438Y-01285D02*
X-05378Y-01313D01*
X-05438Y-01325D02*
Y-01285D01*
Y-01237D02*
Y-01266D01*
X-05412Y-01268*
X-05415Y-01266*
X-05418Y-01257*
Y-01248*
X-05415Y-0124*
X-05409Y-01234*
X-054Y-01231*
X-05395*
X-05386Y-01234*
X-0538Y-0124*
X-05378Y-01248*
Y-01257*
X-0538Y-01266*
X-05383Y-01268*
X-05389Y-01271*
X-05438Y-01201D02*
X-05435Y-01209D01*
X-05426Y-01215*
X-05412Y-01218*
X-05403*
X-05389Y-01215*
X-0538Y-01209*
X-05378Y-01201*
Y-01195*
X-0538Y-01186*
X-05389Y-01181*
X-05403Y-01178*
X-05412*
X-05426Y-01181*
X-05435Y-01186*
X-05438Y-01195*
Y-01201*
X-05418Y-01164D02*
X-05378D01*
X-05406D02*
X-05415Y-01156D01*
X-05418Y-0115*
Y-01142*
X-05415Y-01136*
X-05406Y-01133*
X-05378*
X-05406D02*
X-05415Y-01125D01*
X-05418Y-01119*
Y-0111*
X-05415Y-01105*
X-05406Y-01102*
X-05378*
X-05438Y-01077D02*
X-05435Y-01074D01*
X-05438Y-01071*
X-0544Y-01074*
X-05438Y-01077*
X-05418Y-01074D02*
X-05378D01*
X-05438Y-01061D02*
X-05378D01*
X-05618Y-00171D02*
Y-00139D01*
X-05595Y-00156*
Y-00148*
X-05592Y-00142*
X-05589Y-00139*
X-0558Y-00136*
X-05575*
X-05566Y-00139*
X-0556Y-00145*
X-05558Y-00154*
Y-00162*
X-0556Y-00171*
X-05563Y-00174*
X-05569Y-00176*
X-05618Y-00089D02*
Y-00117D01*
X-05592Y-0012*
X-05595Y-00117*
X-05598Y-00109*
Y-001*
X-05595Y-00092*
X-05589Y-00086*
X-0558Y-00083*
X-05575*
X-05566Y-00086*
X-0556Y-00092*
X-05558Y-001*
Y-00109*
X-0556Y-00117*
X-05563Y-0012*
X-05569Y-00123*
X-05618Y-00052D02*
X-05615Y-00061D01*
X-05606Y-00067*
X-05592Y-0007*
X-05583*
X-05569Y-00067*
X-0556Y-00061*
X-05558Y-00052*
Y-00047*
X-0556Y-00038*
X-05569Y-00032*
X-05583Y-0003*
X-05592*
X-05606Y-00032*
X-05615Y-00038*
X-05618Y-00047*
Y-00052*
Y00001D02*
X-05615Y-00008D01*
X-05606Y-00013*
X-05592Y-00016*
X-05583*
X-05569Y-00013*
X-0556Y-00008*
X-05558Y00001*
Y00007*
X-0556Y00015*
X-05569Y00021*
X-05583Y00024*
X-05592*
X-05606Y00021*
X-05615Y00015*
X-05618Y00007*
Y00001*
X-05598Y00037D02*
X-05558D01*
X-05586D02*
X-05595Y00046D01*
X-05598Y00051*
Y0006*
X-05595Y00066*
X-05586Y00069*
X-05558*
X-05586D02*
X-05595Y00077D01*
X-05598Y00083*
Y00091*
X-05595Y00097*
X-05586Y001*
X-05558*
X-05618Y00125D02*
X-05615Y00127D01*
X-05618Y0013*
X-0562Y00127*
X-05618Y00125*
X-05598Y00127D02*
X-05558D01*
X-05618Y00141D02*
X-05558D01*
X-04313Y01863D02*
Y01866D01*
X-0431Y01872*
X-04308Y01875*
X-04302Y01878*
X-0429*
X-04285Y01875*
X-04282Y01872*
X-04279Y01866*
Y0186*
X-04282Y01855*
X-04288Y01846*
X-04316Y01818*
X-04276*
X-04263Y01866D02*
X-04257Y01869D01*
X-04248Y01878*
Y01818*
X-04182Y01858D02*
X-04184Y01849D01*
X-0419Y01843*
X-04199Y0184*
X-04202*
X-0421Y01843*
X-04216Y01849*
X-04219Y01858*
Y0186*
X-04216Y01869*
X-0421Y01875*
X-04202Y01878*
X-04199*
X-0419Y01875*
X-04184Y01869*
X-04182Y01858*
Y01843*
X-04184Y01829*
X-0419Y0182*
X-04199Y01818*
X-04204*
X-04213Y0182*
X-04216Y01826*
X-04165Y01866D02*
X-0416Y01869D01*
X-04151Y01878*
Y01818*
X-04121Y01858D02*
Y01818D01*
Y01846D02*
X-04113Y01855D01*
X-04107Y01858*
X-04099*
X-04093Y01855*
X-0409Y01846*
Y01818*
Y01846D02*
X-04081Y01855D01*
X-04076Y01858*
X-04067*
X-04061Y01855*
X-04059Y01846*
Y01818*
X-04034Y01878D02*
X-04031Y01875D01*
X-04028Y01878*
X-04031Y0188*
X-04034Y01878*
X-04031Y01858D02*
Y01818D01*
X-04018Y01878D02*
Y01818D01*
G54D36*
X-0465Y-01684D02*
Y-01644D01*
X-0461*
Y-01684*
X-0465*
X-03232D02*
Y-01644D01*
X-03192*
Y-01684*
X-03232*
X-04481Y-00112D02*
X-04501Y-00072D01*
X-04461*
X-04481Y-00112*
X-04006Y00158D02*
X-04026Y00198D01*
X-03986*
X-04006Y00158*
Y00108D02*
X-04026Y00148D01*
X-03986*
X-04006Y00108*
X-04061Y00158D02*
X-04081Y00198D01*
X-04041*
X-04061Y00158*
Y00108D02*
X-04081Y00148D01*
X-04041*
X-04061Y00108*
X-04341Y-00392D02*
X-04361Y-00352D01*
X-04321*
X-04341Y-00392*
X-04396D02*
X-04416Y-00352D01*
X-04376*
X-04396Y-00392*
Y-00442D02*
X-04416Y-00402D01*
X-04376*
X-04396Y-00442*
X-03155Y00305D02*
X-03175Y00345D01*
X-03135*
X-03155Y00305*
Y00255D02*
X-03175Y00295D01*
X-03135*
X-03155Y00255*
X-0321Y00305D02*
X-0323Y00345D01*
X-0319*
X-0321Y00305*
Y00255D02*
X-0323Y00295D01*
X-0319*
X-0321Y00255*
X-05121Y-00072D02*
X-05141Y-00032D01*
X-05101*
X-05121Y-00072*
Y-00122D02*
X-05141Y-00082D01*
X-05101*
X-05121Y-00122*
X-05176Y-00072D02*
X-05196Y-00032D01*
X-05156*
X-05176Y-00072*
Y-00122D02*
X-05196Y-00082D01*
X-05156*
X-05176Y-00122*
X-03155Y-00395D02*
X-03175Y-00355D01*
X-03135*
X-03155Y-00395*
Y-00445D02*
X-03175Y-00405D01*
X-03135*
X-03155Y-00445*
X-0321Y-00395D02*
X-0323Y-00355D01*
X-0319*
X-0321Y-00395*
Y-00445D02*
X-0323Y-00405D01*
X-0319*
X-0321Y-00445*
X-03271Y-01472D02*
X-03291Y-01432D01*
X-03251*
X-03271Y-01472*
Y-01522D02*
X-03291Y-01482D01*
X-03251*
X-03271Y-01522*
X-03326Y-01472D02*
X-03346Y-01432D01*
X-03306*
X-03326Y-01472*
Y-01522D02*
X-03346Y-01482D01*
X-03306*
X-03326Y-01522*
X-03621Y-01472D02*
X-03641Y-01432D01*
X-03601*
X-03621Y-01472*
Y-01522D02*
X-03641Y-01482D01*
X-03601*
X-03621Y-01522*
X-03676Y-01472D02*
X-03696Y-01432D01*
X-03656*
X-03676Y-01472*
Y-01522D02*
X-03696Y-01482D01*
X-03656*
X-03676Y-01522*
X-05106Y-01422D02*
X-05126Y-01382D01*
X-05086*
X-05106Y-01422*
Y-01472D02*
X-05126Y-01432D01*
X-05086*
X-05106Y-01472*
X-05161Y-01422D02*
X-05181Y-01382D01*
X-05141*
X-05161Y-01422*
Y-01472D02*
X-05181Y-01432D01*
X-05141*
X-05161Y-01472*
X-05136Y01278D02*
X-05156Y01318D01*
X-05116*
X-05136Y01278*
Y01228D02*
X-05156Y01268D01*
X-05116*
X-05136Y01228*
X-05191Y01278D02*
X-05211Y01318D01*
X-05171*
X-05191Y01278*
Y01228D02*
X-05211Y01268D01*
X-05171*
X-05191Y01228*
X-04136Y-00442D02*
X-04156Y-00402D01*
X-04116*
X-04136Y-00442*
X-03846Y00368D02*
X-03866Y00408D01*
X-03826*
X-03846Y00368*
X-04136Y-00087D02*
X-04156Y-00047D01*
X-04116*
X-04136Y-00087*
X-04417Y00528D02*
X-04437Y00568D01*
X-04397*
X-04417Y00528*
X-04551Y00538D02*
X-04571Y00578D01*
X-04531*
X-04551Y00538*
X-04682Y00593D02*
X-04702Y00633D01*
X-04662*
X-04682Y00593*
X-04416Y00358D02*
X-04436Y00398D01*
X-04396*
X-04416Y00358*
X-04276Y00548D02*
X-04296Y00588D01*
X-04256*
X-04276Y00548*
X-04221D02*
X-04241Y00588D01*
X-04201*
X-04221Y00548*
X-04261Y00358D02*
X-04281Y00398D01*
X-04241*
X-04261Y00358*
X-04186D02*
X-04206Y00398D01*
X-04166*
X-04186Y00358*
X-04551Y-00112D02*
X-04571Y-00072D01*
X-04531*
X-04551Y-00112*
X-03701Y00178D02*
X-03721Y00218D01*
X-03681*
X-03701Y00178*
X-04351Y-00047D02*
X-04371Y-00007D01*
X-04331*
X-04351Y-00047*
X-04812Y00265D02*
X-04832Y00305D01*
X-04792*
X-04812Y00265*
X-04001Y01198D02*
X-04021Y01238D01*
X-03981*
X-04001Y01198*
X-04376Y00053D02*
X-04396Y00093D01*
X-04356*
X-04376Y00053*
Y00603D02*
X-04396Y00643D01*
X-04356*
X-04376Y00603*
X-04694Y00147D02*
X-04714Y00187D01*
X-04674*
X-04694Y00147*
X-04551Y00728D02*
X-04571Y00768D01*
X-04531*
X-04551Y00728*
X-04626D02*
X-04646Y00768D01*
X-04606*
X-04626Y00728*
X-04551Y00678D02*
X-04571Y00718D01*
X-04531*
X-04551Y00678*
X-04601Y00703D02*
X-04621Y00743D01*
X-04581*
X-04601Y00703*
X-04476Y00778D02*
X-04496Y00818D01*
X-04456*
X-04476Y00778*
X-04451Y00803D02*
X-04471Y00843D01*
X-04431*
X-04451Y00803*
X-03901Y00703D02*
X-03921Y00743D01*
X-03881*
X-03901Y00703*
X-04826Y00123D02*
X-04846Y00163D01*
X-04806*
X-04826Y00123*
X-04851Y00028D02*
X-04871Y00068D01*
X-04831*
X-04851Y00028*
X-04876Y00053D02*
X-04896Y00093D01*
X-04856*
X-04876Y00053*
X-037Y00154D02*
X-0372Y00194D01*
X-0368*
X-037Y00154*
X-03701Y00628D02*
X-03721Y00668D01*
X-03681*
X-03701Y00628*
X-03826Y00928D02*
X-03846Y00968D01*
X-03806*
X-03826Y00928*
X-04451Y00128D02*
X-04471Y00168D01*
X-04431*
X-04451Y00128*
X-04521Y00163D02*
X-04541Y00203D01*
X-04501*
X-04521Y00163*
X-04681Y00278D02*
X-04701Y00318D01*
X-04661*
X-04681Y00278*
X-05001Y00928D02*
X-05021Y00968D01*
X-04981*
X-05001Y00928*
X-04551Y00288D02*
X-04571Y00328D01*
X-04531*
X-04551Y00288*
X-04951Y00928D02*
X-04971Y00968D01*
X-04931*
X-04951Y00928*
X-04901D02*
X-04921Y00968D01*
X-04881*
X-04901Y00928*
X-04876Y00903D02*
X-04896Y00943D01*
X-04856*
X-04876Y00903*
X-04851Y00878D02*
X-04871Y00918D01*
X-04831*
X-04851Y00878*
X-04801D02*
X-04821Y00918D01*
X-04781*
X-04801Y00878*
X-04751D02*
X-04771Y00918D01*
X-04731*
X-04751Y00878*
X-04701D02*
X-04721Y00918D01*
X-04681*
X-04701Y00878*
X-04551Y00328D02*
X-04571Y00368D01*
X-04531*
X-04551Y00328*
X-04541Y00406D02*
X-04561Y00446D01*
X-04521*
X-04541Y00406*
X-04526Y00437D02*
X-04546Y00477D01*
X-04506*
X-04526Y00437*
X-04541Y00469D02*
X-04561Y00509D01*
X-04521*
X-04541Y00469*
X-04528Y005D02*
X-04548Y0054D01*
X-04508*
X-04528Y005*
X-04541Y00251D02*
X-04561Y00291D01*
X-04521*
X-04541Y00251*
X-04531Y0022D02*
X-04551Y0026D01*
X-04511*
X-04531Y0022*
X-0455Y00037D02*
X-0457Y00077D01*
X-0453*
X-0455Y00037*
X-04523Y00006D02*
X-04543Y00046D01*
X-04503*
X-04523Y00006*
X-04341Y-00442D02*
X-04361Y-00402D01*
X-04321*
X-04341Y-00442*
X-02496Y00486D02*
X-0252Y00534D01*
X-02472*
X-02496Y00486*
X-0252Y00246D02*
Y00294D01*
X-02472*
Y00246*
X-0252*
G54D54*
X-05056Y01548D02*
D01*
X-05056Y01549*
X-05056Y0155*
X-05056Y01552*
X-05056Y01553*
X-05057Y01554*
X-05057Y01556*
X-05058Y01557*
X-05059Y01558*
X-05059Y01559*
X-0506Y0156*
X-05061Y01561*
X-05062Y01562*
X-05063Y01563*
X-05064Y01564*
X-05066Y01565*
X-05067Y01565*
X-05068Y01566*
X-05069Y01567*
X-05071Y01567*
X-05072Y01567*
X-05073Y01567*
X-05075Y01567*
X-05076*
X-05078Y01567*
X-05079Y01567*
X-0508Y01567*
X-05082Y01567*
X-05083Y01566*
X-05084Y01565*
X-05086Y01565*
X-05087Y01564*
X-05088Y01563*
X-05089Y01562*
X-0509Y01561*
X-05091Y0156*
X-05092Y01559*
X-05092Y01558*
X-05093Y01557*
X-05094Y01556*
X-05094Y01554*
X-05095Y01553*
X-05095Y01552*
X-05095Y0155*
X-05095Y01549*
X-05096Y01548*
X-05095Y01546*
X-05095Y01545*
X-05095Y01543*
X-05095Y01542*
X-05094Y01541*
X-05094Y01539*
X-05093Y01538*
X-05092Y01537*
X-05092Y01536*
X-05091Y01535*
X-0509Y01534*
X-05089Y01533*
X-05088Y01532*
X-05087Y01531*
X-05086Y0153*
X-05084Y0153*
X-05083Y01529*
X-05082Y01528*
X-0508Y01528*
X-05079Y01528*
X-05078Y01528*
X-05076Y01528*
X-05075*
X-05073Y01528*
X-05072Y01528*
X-05071Y01528*
X-05069Y01528*
X-05068Y01529*
X-05067Y0153*
X-05066Y0153*
X-05064Y01531*
X-05063Y01532*
X-05062Y01533*
X-05061Y01534*
X-0506Y01535*
X-05059Y01536*
X-05059Y01537*
X-05058Y01538*
X-05057Y01539*
X-05057Y01541*
X-05056Y01542*
X-05056Y01543*
X-05056Y01545*
X-05056Y01546*
X-05056Y01548*
X-03456Y01648D02*
D01*
X-03456Y01649*
X-03456Y0165*
X-03456Y01652*
X-03456Y01653*
X-03457Y01654*
X-03457Y01656*
X-03458Y01657*
X-03459Y01658*
X-03459Y01659*
X-0346Y0166*
X-03461Y01661*
X-03462Y01662*
X-03463Y01663*
X-03464Y01664*
X-03466Y01665*
X-03467Y01665*
X-03468Y01666*
X-03469Y01667*
X-03471Y01667*
X-03472Y01667*
X-03473Y01667*
X-03475Y01667*
X-03476*
X-03478Y01667*
X-03479Y01667*
X-0348Y01667*
X-03482Y01667*
X-03483Y01666*
X-03484Y01665*
X-03486Y01665*
X-03487Y01664*
X-03488Y01663*
X-03489Y01662*
X-0349Y01661*
X-03491Y0166*
X-03492Y01659*
X-03492Y01658*
X-03493Y01657*
X-03494Y01656*
X-03494Y01654*
X-03495Y01653*
X-03495Y01652*
X-03495Y0165*
X-03495Y01649*
X-03496Y01648*
X-03495Y01646*
X-03495Y01645*
X-03495Y01643*
X-03495Y01642*
X-03494Y01641*
X-03494Y01639*
X-03493Y01638*
X-03492Y01637*
X-03492Y01636*
X-03491Y01635*
X-0349Y01634*
X-03489Y01633*
X-03488Y01632*
X-03487Y01631*
X-03486Y0163*
X-03484Y0163*
X-03483Y01629*
X-03482Y01628*
X-0348Y01628*
X-03479Y01628*
X-03478Y01628*
X-03476Y01628*
X-03475*
X-03473Y01628*
X-03472Y01628*
X-03471Y01628*
X-03469Y01628*
X-03468Y01629*
X-03467Y0163*
X-03466Y0163*
X-03464Y01631*
X-03463Y01632*
X-03462Y01633*
X-03461Y01634*
X-0346Y01635*
X-03459Y01636*
X-03459Y01637*
X-03458Y01638*
X-03457Y01639*
X-03457Y01641*
X-03456Y01642*
X-03456Y01643*
X-03456Y01645*
X-03456Y01646*
X-03456Y01648*
Y01548D02*
D01*
X-03456Y01549*
X-03456Y0155*
X-03456Y01552*
X-03456Y01553*
X-03457Y01554*
X-03457Y01556*
X-03458Y01557*
X-03459Y01558*
X-03459Y01559*
X-0346Y0156*
X-03461Y01561*
X-03462Y01562*
X-03463Y01563*
X-03464Y01564*
X-03466Y01565*
X-03467Y01565*
X-03468Y01566*
X-03469Y01567*
X-03471Y01567*
X-03472Y01567*
X-03473Y01567*
X-03475Y01567*
X-03476*
X-03478Y01567*
X-03479Y01567*
X-0348Y01567*
X-03482Y01567*
X-03483Y01566*
X-03484Y01565*
X-03486Y01565*
X-03487Y01564*
X-03488Y01563*
X-03489Y01562*
X-0349Y01561*
X-03491Y0156*
X-03492Y01559*
X-03492Y01558*
X-03493Y01557*
X-03494Y01556*
X-03494Y01554*
X-03495Y01553*
X-03495Y01552*
X-03495Y0155*
X-03495Y01549*
X-03496Y01548*
X-03495Y01546*
X-03495Y01545*
X-03495Y01543*
X-03495Y01542*
X-03494Y01541*
X-03494Y01539*
X-03493Y01538*
X-03492Y01537*
X-03492Y01536*
X-03491Y01535*
X-0349Y01534*
X-03489Y01533*
X-03488Y01532*
X-03487Y01531*
X-03486Y0153*
X-03484Y0153*
X-03483Y01529*
X-03482Y01528*
X-0348Y01528*
X-03479Y01528*
X-03478Y01528*
X-03476Y01528*
X-03475*
X-03473Y01528*
X-03472Y01528*
X-03471Y01528*
X-03469Y01528*
X-03468Y01529*
X-03467Y0153*
X-03466Y0153*
X-03464Y01531*
X-03463Y01532*
X-03462Y01533*
X-03461Y01534*
X-0346Y01535*
X-03459Y01536*
X-03459Y01537*
X-03458Y01538*
X-03457Y01539*
X-03457Y01541*
X-03456Y01542*
X-03456Y01543*
X-03456Y01545*
X-03456Y01546*
X-03456Y01548*
X-03556Y01648D02*
D01*
X-03556Y01649*
X-03556Y0165*
X-03556Y01652*
X-03556Y01653*
X-03557Y01654*
X-03557Y01656*
X-03558Y01657*
X-03559Y01658*
X-03559Y01659*
X-0356Y0166*
X-03561Y01661*
X-03562Y01662*
X-03563Y01663*
X-03564Y01664*
X-03566Y01665*
X-03567Y01665*
X-03568Y01666*
X-03569Y01667*
X-03571Y01667*
X-03572Y01667*
X-03573Y01667*
X-03575Y01667*
X-03576*
X-03578Y01667*
X-03579Y01667*
X-0358Y01667*
X-03582Y01667*
X-03583Y01666*
X-03584Y01665*
X-03586Y01665*
X-03587Y01664*
X-03588Y01663*
X-03589Y01662*
X-0359Y01661*
X-03591Y0166*
X-03592Y01659*
X-03592Y01658*
X-03593Y01657*
X-03594Y01656*
X-03594Y01654*
X-03595Y01653*
X-03595Y01652*
X-03595Y0165*
X-03595Y01649*
X-03596Y01648*
X-03595Y01646*
X-03595Y01645*
X-03595Y01643*
X-03595Y01642*
X-03594Y01641*
X-03594Y01639*
X-03593Y01638*
X-03592Y01637*
X-03592Y01636*
X-03591Y01635*
X-0359Y01634*
X-03589Y01633*
X-03588Y01632*
X-03587Y01631*
X-03586Y0163*
X-03584Y0163*
X-03583Y01629*
X-03582Y01628*
X-0358Y01628*
X-03579Y01628*
X-03578Y01628*
X-03576Y01628*
X-03575*
X-03573Y01628*
X-03572Y01628*
X-03571Y01628*
X-03569Y01628*
X-03568Y01629*
X-03567Y0163*
X-03566Y0163*
X-03564Y01631*
X-03563Y01632*
X-03562Y01633*
X-03561Y01634*
X-0356Y01635*
X-03559Y01636*
X-03559Y01637*
X-03558Y01638*
X-03557Y01639*
X-03557Y01641*
X-03556Y01642*
X-03556Y01643*
X-03556Y01645*
X-03556Y01646*
X-03556Y01648*
Y01548D02*
D01*
X-03556Y01549*
X-03556Y0155*
X-03556Y01552*
X-03556Y01553*
X-03557Y01554*
X-03557Y01556*
X-03558Y01557*
X-03559Y01558*
X-03559Y01559*
X-0356Y0156*
X-03561Y01561*
X-03562Y01562*
X-03563Y01563*
X-03564Y01564*
X-03566Y01565*
X-03567Y01565*
X-03568Y01566*
X-03569Y01567*
X-03571Y01567*
X-03572Y01567*
X-03573Y01567*
X-03575Y01567*
X-03576*
X-03578Y01567*
X-03579Y01567*
X-0358Y01567*
X-03582Y01567*
X-03583Y01566*
X-03584Y01565*
X-03586Y01565*
X-03587Y01564*
X-03588Y01563*
X-03589Y01562*
X-0359Y01561*
X-03591Y0156*
X-03592Y01559*
X-03592Y01558*
X-03593Y01557*
X-03594Y01556*
X-03594Y01554*
X-03595Y01553*
X-03595Y01552*
X-03595Y0155*
X-03595Y01549*
X-03596Y01548*
X-03595Y01546*
X-03595Y01545*
X-03595Y01543*
X-03595Y01542*
X-03594Y01541*
X-03594Y01539*
X-03593Y01538*
X-03592Y01537*
X-03592Y01536*
X-03591Y01535*
X-0359Y01534*
X-03589Y01533*
X-03588Y01532*
X-03587Y01531*
X-03586Y0153*
X-03584Y0153*
X-03583Y01529*
X-03582Y01528*
X-0358Y01528*
X-03579Y01528*
X-03578Y01528*
X-03576Y01528*
X-03575*
X-03573Y01528*
X-03572Y01528*
X-03571Y01528*
X-03569Y01528*
X-03568Y01529*
X-03567Y0153*
X-03566Y0153*
X-03564Y01531*
X-03563Y01532*
X-03562Y01533*
X-03561Y01534*
X-0356Y01535*
X-03559Y01536*
X-03559Y01537*
X-03558Y01538*
X-03557Y01539*
X-03557Y01541*
X-03556Y01542*
X-03556Y01543*
X-03556Y01545*
X-03556Y01546*
X-03556Y01548*
X-03656Y01648D02*
D01*
X-03656Y01649*
X-03656Y0165*
X-03656Y01652*
X-03656Y01653*
X-03657Y01654*
X-03657Y01656*
X-03658Y01657*
X-03659Y01658*
X-03659Y01659*
X-0366Y0166*
X-03661Y01661*
X-03662Y01662*
X-03663Y01663*
X-03664Y01664*
X-03666Y01665*
X-03667Y01665*
X-03668Y01666*
X-03669Y01667*
X-03671Y01667*
X-03672Y01667*
X-03673Y01667*
X-03675Y01667*
X-03676*
X-03678Y01667*
X-03679Y01667*
X-0368Y01667*
X-03682Y01667*
X-03683Y01666*
X-03684Y01665*
X-03686Y01665*
X-03687Y01664*
X-03688Y01663*
X-03689Y01662*
X-0369Y01661*
X-03691Y0166*
X-03692Y01659*
X-03692Y01658*
X-03693Y01657*
X-03694Y01656*
X-03694Y01654*
X-03695Y01653*
X-03695Y01652*
X-03695Y0165*
X-03695Y01649*
X-03696Y01648*
X-03695Y01646*
X-03695Y01645*
X-03695Y01643*
X-03695Y01642*
X-03694Y01641*
X-03694Y01639*
X-03693Y01638*
X-03692Y01637*
X-03692Y01636*
X-03691Y01635*
X-0369Y01634*
X-03689Y01633*
X-03688Y01632*
X-03687Y01631*
X-03686Y0163*
X-03684Y0163*
X-03683Y01629*
X-03682Y01628*
X-0368Y01628*
X-03679Y01628*
X-03678Y01628*
X-03676Y01628*
X-03675*
X-03673Y01628*
X-03672Y01628*
X-03671Y01628*
X-03669Y01628*
X-03668Y01629*
X-03667Y0163*
X-03666Y0163*
X-03664Y01631*
X-03663Y01632*
X-03662Y01633*
X-03661Y01634*
X-0366Y01635*
X-03659Y01636*
X-03659Y01637*
X-03658Y01638*
X-03657Y01639*
X-03657Y01641*
X-03656Y01642*
X-03656Y01643*
X-03656Y01645*
X-03656Y01646*
X-03656Y01648*
Y01548D02*
D01*
X-03656Y01549*
X-03656Y0155*
X-03656Y01552*
X-03656Y01553*
X-03657Y01554*
X-03657Y01556*
X-03658Y01557*
X-03659Y01558*
X-03659Y01559*
X-0366Y0156*
X-03661Y01561*
X-03662Y01562*
X-03663Y01563*
X-03664Y01564*
X-03666Y01565*
X-03667Y01565*
X-03668Y01566*
X-03669Y01567*
X-03671Y01567*
X-03672Y01567*
X-03673Y01567*
X-03675Y01567*
X-03676*
X-03678Y01567*
X-03679Y01567*
X-0368Y01567*
X-03682Y01567*
X-03683Y01566*
X-03684Y01565*
X-03686Y01565*
X-03687Y01564*
X-03688Y01563*
X-03689Y01562*
X-0369Y01561*
X-03691Y0156*
X-03692Y01559*
X-03692Y01558*
X-03693Y01557*
X-03694Y01556*
X-03694Y01554*
X-03695Y01553*
X-03695Y01552*
X-03695Y0155*
X-03695Y01549*
X-03696Y01548*
X-03695Y01546*
X-03695Y01545*
X-03695Y01543*
X-03695Y01542*
X-03694Y01541*
X-03694Y01539*
X-03693Y01538*
X-03692Y01537*
X-03692Y01536*
X-03691Y01535*
X-0369Y01534*
X-03689Y01533*
X-03688Y01532*
X-03687Y01531*
X-03686Y0153*
X-03684Y0153*
X-03683Y01529*
X-03682Y01528*
X-0368Y01528*
X-03679Y01528*
X-03678Y01528*
X-03676Y01528*
X-03675*
X-03673Y01528*
X-03672Y01528*
X-03671Y01528*
X-03669Y01528*
X-03668Y01529*
X-03667Y0153*
X-03666Y0153*
X-03664Y01531*
X-03663Y01532*
X-03662Y01533*
X-03661Y01534*
X-0366Y01535*
X-03659Y01536*
X-03659Y01537*
X-03658Y01538*
X-03657Y01539*
X-03657Y01541*
X-03656Y01542*
X-03656Y01543*
X-03656Y01545*
X-03656Y01546*
X-03656Y01548*
X-03756Y01648D02*
D01*
X-03756Y01649*
X-03756Y0165*
X-03756Y01652*
X-03756Y01653*
X-03757Y01654*
X-03757Y01656*
X-03758Y01657*
X-03759Y01658*
X-03759Y01659*
X-0376Y0166*
X-03761Y01661*
X-03762Y01662*
X-03763Y01663*
X-03764Y01664*
X-03766Y01665*
X-03767Y01665*
X-03768Y01666*
X-03769Y01667*
X-03771Y01667*
X-03772Y01667*
X-03773Y01667*
X-03775Y01667*
X-03776*
X-03778Y01667*
X-03779Y01667*
X-0378Y01667*
X-03782Y01667*
X-03783Y01666*
X-03784Y01665*
X-03786Y01665*
X-03787Y01664*
X-03788Y01663*
X-03789Y01662*
X-0379Y01661*
X-03791Y0166*
X-03792Y01659*
X-03792Y01658*
X-03793Y01657*
X-03794Y01656*
X-03794Y01654*
X-03795Y01653*
X-03795Y01652*
X-03795Y0165*
X-03795Y01649*
X-03796Y01648*
X-03795Y01646*
X-03795Y01645*
X-03795Y01643*
X-03795Y01642*
X-03794Y01641*
X-03794Y01639*
X-03793Y01638*
X-03792Y01637*
X-03792Y01636*
X-03791Y01635*
X-0379Y01634*
X-03789Y01633*
X-03788Y01632*
X-03787Y01631*
X-03786Y0163*
X-03784Y0163*
X-03783Y01629*
X-03782Y01628*
X-0378Y01628*
X-03779Y01628*
X-03778Y01628*
X-03776Y01628*
X-03775*
X-03773Y01628*
X-03772Y01628*
X-03771Y01628*
X-03769Y01628*
X-03768Y01629*
X-03767Y0163*
X-03766Y0163*
X-03764Y01631*
X-03763Y01632*
X-03762Y01633*
X-03761Y01634*
X-0376Y01635*
X-03759Y01636*
X-03759Y01637*
X-03758Y01638*
X-03757Y01639*
X-03757Y01641*
X-03756Y01642*
X-03756Y01643*
X-03756Y01645*
X-03756Y01646*
X-03756Y01648*
Y01548D02*
D01*
X-03756Y01549*
X-03756Y0155*
X-03756Y01552*
X-03756Y01553*
X-03757Y01554*
X-03757Y01556*
X-03758Y01557*
X-03759Y01558*
X-03759Y01559*
X-0376Y0156*
X-03761Y01561*
X-03762Y01562*
X-03763Y01563*
X-03764Y01564*
X-03766Y01565*
X-03767Y01565*
X-03768Y01566*
X-03769Y01567*
X-03771Y01567*
X-03772Y01567*
X-03773Y01567*
X-03775Y01567*
X-03776*
X-03778Y01567*
X-03779Y01567*
X-0378Y01567*
X-03782Y01567*
X-03783Y01566*
X-03784Y01565*
X-03786Y01565*
X-03787Y01564*
X-03788Y01563*
X-03789Y01562*
X-0379Y01561*
X-03791Y0156*
X-03792Y01559*
X-03792Y01558*
X-03793Y01557*
X-03794Y01556*
X-03794Y01554*
X-03795Y01553*
X-03795Y01552*
X-03795Y0155*
X-03795Y01549*
X-03796Y01548*
X-03795Y01546*
X-03795Y01545*
X-03795Y01543*
X-03795Y01542*
X-03794Y01541*
X-03794Y01539*
X-03793Y01538*
X-03792Y01537*
X-03792Y01536*
X-03791Y01535*
X-0379Y01534*
X-03789Y01533*
X-03788Y01532*
X-03787Y01531*
X-03786Y0153*
X-03784Y0153*
X-03783Y01529*
X-03782Y01528*
X-0378Y01528*
X-03779Y01528*
X-03778Y01528*
X-03776Y01528*
X-03775*
X-03773Y01528*
X-03772Y01528*
X-03771Y01528*
X-03769Y01528*
X-03768Y01529*
X-03767Y0153*
X-03766Y0153*
X-03764Y01531*
X-03763Y01532*
X-03762Y01533*
X-03761Y01534*
X-0376Y01535*
X-03759Y01536*
X-03759Y01537*
X-03758Y01538*
X-03757Y01539*
X-03757Y01541*
X-03756Y01542*
X-03756Y01543*
X-03756Y01545*
X-03756Y01546*
X-03756Y01548*
X-03856Y01648D02*
D01*
X-03856Y01649*
X-03856Y0165*
X-03856Y01652*
X-03856Y01653*
X-03857Y01654*
X-03857Y01656*
X-03858Y01657*
X-03859Y01658*
X-03859Y01659*
X-0386Y0166*
X-03861Y01661*
X-03862Y01662*
X-03863Y01663*
X-03864Y01664*
X-03866Y01665*
X-03867Y01665*
X-03868Y01666*
X-03869Y01667*
X-03871Y01667*
X-03872Y01667*
X-03873Y01667*
X-03875Y01667*
X-03876*
X-03878Y01667*
X-03879Y01667*
X-0388Y01667*
X-03882Y01667*
X-03883Y01666*
X-03884Y01665*
X-03886Y01665*
X-03887Y01664*
X-03888Y01663*
X-03889Y01662*
X-0389Y01661*
X-03891Y0166*
X-03892Y01659*
X-03892Y01658*
X-03893Y01657*
X-03894Y01656*
X-03894Y01654*
X-03895Y01653*
X-03895Y01652*
X-03895Y0165*
X-03895Y01649*
X-03896Y01648*
X-03895Y01646*
X-03895Y01645*
X-03895Y01643*
X-03895Y01642*
X-03894Y01641*
X-03894Y01639*
X-03893Y01638*
X-03892Y01637*
X-03892Y01636*
X-03891Y01635*
X-0389Y01634*
X-03889Y01633*
X-03888Y01632*
X-03887Y01631*
X-03886Y0163*
X-03884Y0163*
X-03883Y01629*
X-03882Y01628*
X-0388Y01628*
X-03879Y01628*
X-03878Y01628*
X-03876Y01628*
X-03875*
X-03873Y01628*
X-03872Y01628*
X-03871Y01628*
X-03869Y01628*
X-03868Y01629*
X-03867Y0163*
X-03866Y0163*
X-03864Y01631*
X-03863Y01632*
X-03862Y01633*
X-03861Y01634*
X-0386Y01635*
X-03859Y01636*
X-03859Y01637*
X-03858Y01638*
X-03857Y01639*
X-03857Y01641*
X-03856Y01642*
X-03856Y01643*
X-03856Y01645*
X-03856Y01646*
X-03856Y01648*
Y01548D02*
D01*
X-03856Y01549*
X-03856Y0155*
X-03856Y01552*
X-03856Y01553*
X-03857Y01554*
X-03857Y01556*
X-03858Y01557*
X-03859Y01558*
X-03859Y01559*
X-0386Y0156*
X-03861Y01561*
X-03862Y01562*
X-03863Y01563*
X-03864Y01564*
X-03866Y01565*
X-03867Y01565*
X-03868Y01566*
X-03869Y01567*
X-03871Y01567*
X-03872Y01567*
X-03873Y01567*
X-03875Y01567*
X-03876*
X-03878Y01567*
X-03879Y01567*
X-0388Y01567*
X-03882Y01567*
X-03883Y01566*
X-03884Y01565*
X-03886Y01565*
X-03887Y01564*
X-03888Y01563*
X-03889Y01562*
X-0389Y01561*
X-03891Y0156*
X-03892Y01559*
X-03892Y01558*
X-03893Y01557*
X-03894Y01556*
X-03894Y01554*
X-03895Y01553*
X-03895Y01552*
X-03895Y0155*
X-03895Y01549*
X-03896Y01548*
X-03895Y01546*
X-03895Y01545*
X-03895Y01543*
X-03895Y01542*
X-03894Y01541*
X-03894Y01539*
X-03893Y01538*
X-03892Y01537*
X-03892Y01536*
X-03891Y01535*
X-0389Y01534*
X-03889Y01533*
X-03888Y01532*
X-03887Y01531*
X-03886Y0153*
X-03884Y0153*
X-03883Y01529*
X-03882Y01528*
X-0388Y01528*
X-03879Y01528*
X-03878Y01528*
X-03876Y01528*
X-03875*
X-03873Y01528*
X-03872Y01528*
X-03871Y01528*
X-03869Y01528*
X-03868Y01529*
X-03867Y0153*
X-03866Y0153*
X-03864Y01531*
X-03863Y01532*
X-03862Y01533*
X-03861Y01534*
X-0386Y01535*
X-03859Y01536*
X-03859Y01537*
X-03858Y01538*
X-03857Y01539*
X-03857Y01541*
X-03856Y01542*
X-03856Y01543*
X-03856Y01545*
X-03856Y01546*
X-03856Y01548*
X-03956Y01648D02*
D01*
X-03956Y01649*
X-03956Y0165*
X-03956Y01652*
X-03956Y01653*
X-03957Y01654*
X-03957Y01656*
X-03958Y01657*
X-03959Y01658*
X-03959Y01659*
X-0396Y0166*
X-03961Y01661*
X-03962Y01662*
X-03963Y01663*
X-03964Y01664*
X-03966Y01665*
X-03967Y01665*
X-03968Y01666*
X-03969Y01667*
X-03971Y01667*
X-03972Y01667*
X-03973Y01667*
X-03975Y01667*
X-03976*
X-03978Y01667*
X-03979Y01667*
X-0398Y01667*
X-03982Y01667*
X-03983Y01666*
X-03984Y01665*
X-03986Y01665*
X-03987Y01664*
X-03988Y01663*
X-03989Y01662*
X-0399Y01661*
X-03991Y0166*
X-03992Y01659*
X-03992Y01658*
X-03993Y01657*
X-03994Y01656*
X-03994Y01654*
X-03995Y01653*
X-03995Y01652*
X-03995Y0165*
X-03995Y01649*
X-03996Y01648*
X-03995Y01646*
X-03995Y01645*
X-03995Y01643*
X-03995Y01642*
X-03994Y01641*
X-03994Y01639*
X-03993Y01638*
X-03992Y01637*
X-03992Y01636*
X-03991Y01635*
X-0399Y01634*
X-03989Y01633*
X-03988Y01632*
X-03987Y01631*
X-03986Y0163*
X-03984Y0163*
X-03983Y01629*
X-03982Y01628*
X-0398Y01628*
X-03979Y01628*
X-03978Y01628*
X-03976Y01628*
X-03975*
X-03973Y01628*
X-03972Y01628*
X-03971Y01628*
X-03969Y01628*
X-03968Y01629*
X-03967Y0163*
X-03966Y0163*
X-03964Y01631*
X-03963Y01632*
X-03962Y01633*
X-03961Y01634*
X-0396Y01635*
X-03959Y01636*
X-03959Y01637*
X-03958Y01638*
X-03957Y01639*
X-03957Y01641*
X-03956Y01642*
X-03956Y01643*
X-03956Y01645*
X-03956Y01646*
X-03956Y01648*
Y01548D02*
D01*
X-03956Y01549*
X-03956Y0155*
X-03956Y01552*
X-03956Y01553*
X-03957Y01554*
X-03957Y01556*
X-03958Y01557*
X-03959Y01558*
X-03959Y01559*
X-0396Y0156*
X-03961Y01561*
X-03962Y01562*
X-03963Y01563*
X-03964Y01564*
X-03966Y01565*
X-03967Y01565*
X-03968Y01566*
X-03969Y01567*
X-03971Y01567*
X-03972Y01567*
X-03973Y01567*
X-03975Y01567*
X-03976*
X-03978Y01567*
X-03979Y01567*
X-0398Y01567*
X-03982Y01567*
X-03983Y01566*
X-03984Y01565*
X-03986Y01565*
X-03987Y01564*
X-03988Y01563*
X-03989Y01562*
X-0399Y01561*
X-03991Y0156*
X-03992Y01559*
X-03992Y01558*
X-03993Y01557*
X-03994Y01556*
X-03994Y01554*
X-03995Y01553*
X-03995Y01552*
X-03995Y0155*
X-03995Y01549*
X-03996Y01548*
X-03995Y01546*
X-03995Y01545*
X-03995Y01543*
X-03995Y01542*
X-03994Y01541*
X-03994Y01539*
X-03993Y01538*
X-03992Y01537*
X-03992Y01536*
X-03991Y01535*
X-0399Y01534*
X-03989Y01533*
X-03988Y01532*
X-03987Y01531*
X-03986Y0153*
X-03984Y0153*
X-03983Y01529*
X-03982Y01528*
X-0398Y01528*
X-03979Y01528*
X-03978Y01528*
X-03976Y01528*
X-03975*
X-03973Y01528*
X-03972Y01528*
X-03971Y01528*
X-03969Y01528*
X-03968Y01529*
X-03967Y0153*
X-03966Y0153*
X-03964Y01531*
X-03963Y01532*
X-03962Y01533*
X-03961Y01534*
X-0396Y01535*
X-03959Y01536*
X-03959Y01537*
X-03958Y01538*
X-03957Y01539*
X-03957Y01541*
X-03956Y01542*
X-03956Y01543*
X-03956Y01545*
X-03956Y01546*
X-03956Y01548*
X-04056Y01648D02*
D01*
X-04056Y01649*
X-04056Y0165*
X-04056Y01652*
X-04056Y01653*
X-04057Y01654*
X-04057Y01656*
X-04058Y01657*
X-04059Y01658*
X-04059Y01659*
X-0406Y0166*
X-04061Y01661*
X-04062Y01662*
X-04063Y01663*
X-04064Y01664*
X-04066Y01665*
X-04067Y01665*
X-04068Y01666*
X-04069Y01667*
X-04071Y01667*
X-04072Y01667*
X-04073Y01667*
X-04075Y01667*
X-04076*
X-04078Y01667*
X-04079Y01667*
X-0408Y01667*
X-04082Y01667*
X-04083Y01666*
X-04084Y01665*
X-04086Y01665*
X-04087Y01664*
X-04088Y01663*
X-04089Y01662*
X-0409Y01661*
X-04091Y0166*
X-04092Y01659*
X-04092Y01658*
X-04093Y01657*
X-04094Y01656*
X-04094Y01654*
X-04095Y01653*
X-04095Y01652*
X-04095Y0165*
X-04095Y01649*
X-04096Y01648*
X-04095Y01646*
X-04095Y01645*
X-04095Y01643*
X-04095Y01642*
X-04094Y01641*
X-04094Y01639*
X-04093Y01638*
X-04092Y01637*
X-04092Y01636*
X-04091Y01635*
X-0409Y01634*
X-04089Y01633*
X-04088Y01632*
X-04087Y01631*
X-04086Y0163*
X-04084Y0163*
X-04083Y01629*
X-04082Y01628*
X-0408Y01628*
X-04079Y01628*
X-04078Y01628*
X-04076Y01628*
X-04075*
X-04073Y01628*
X-04072Y01628*
X-04071Y01628*
X-04069Y01628*
X-04068Y01629*
X-04067Y0163*
X-04066Y0163*
X-04064Y01631*
X-04063Y01632*
X-04062Y01633*
X-04061Y01634*
X-0406Y01635*
X-04059Y01636*
X-04059Y01637*
X-04058Y01638*
X-04057Y01639*
X-04057Y01641*
X-04056Y01642*
X-04056Y01643*
X-04056Y01645*
X-04056Y01646*
X-04056Y01648*
Y01548D02*
D01*
X-04056Y01549*
X-04056Y0155*
X-04056Y01552*
X-04056Y01553*
X-04057Y01554*
X-04057Y01556*
X-04058Y01557*
X-04059Y01558*
X-04059Y01559*
X-0406Y0156*
X-04061Y01561*
X-04062Y01562*
X-04063Y01563*
X-04064Y01564*
X-04066Y01565*
X-04067Y01565*
X-04068Y01566*
X-04069Y01567*
X-04071Y01567*
X-04072Y01567*
X-04073Y01567*
X-04075Y01567*
X-04076*
X-04078Y01567*
X-04079Y01567*
X-0408Y01567*
X-04082Y01567*
X-04083Y01566*
X-04084Y01565*
X-04086Y01565*
X-04087Y01564*
X-04088Y01563*
X-04089Y01562*
X-0409Y01561*
X-04091Y0156*
X-04092Y01559*
X-04092Y01558*
X-04093Y01557*
X-04094Y01556*
X-04094Y01554*
X-04095Y01553*
X-04095Y01552*
X-04095Y0155*
X-04095Y01549*
X-04096Y01548*
X-04095Y01546*
X-04095Y01545*
X-04095Y01543*
X-04095Y01542*
X-04094Y01541*
X-04094Y01539*
X-04093Y01538*
X-04092Y01537*
X-04092Y01536*
X-04091Y01535*
X-0409Y01534*
X-04089Y01533*
X-04088Y01532*
X-04087Y01531*
X-04086Y0153*
X-04084Y0153*
X-04083Y01529*
X-04082Y01528*
X-0408Y01528*
X-04079Y01528*
X-04078Y01528*
X-04076Y01528*
X-04075*
X-04073Y01528*
X-04072Y01528*
X-04071Y01528*
X-04069Y01528*
X-04068Y01529*
X-04067Y0153*
X-04066Y0153*
X-04064Y01531*
X-04063Y01532*
X-04062Y01533*
X-04061Y01534*
X-0406Y01535*
X-04059Y01536*
X-04059Y01537*
X-04058Y01538*
X-04057Y01539*
X-04057Y01541*
X-04056Y01542*
X-04056Y01543*
X-04056Y01545*
X-04056Y01546*
X-04056Y01548*
X-04156Y01648D02*
D01*
X-04156Y01649*
X-04156Y0165*
X-04156Y01652*
X-04156Y01653*
X-04157Y01654*
X-04157Y01656*
X-04158Y01657*
X-04159Y01658*
X-04159Y01659*
X-0416Y0166*
X-04161Y01661*
X-04162Y01662*
X-04163Y01663*
X-04164Y01664*
X-04166Y01665*
X-04167Y01665*
X-04168Y01666*
X-04169Y01667*
X-04171Y01667*
X-04172Y01667*
X-04173Y01667*
X-04175Y01667*
X-04176*
X-04178Y01667*
X-04179Y01667*
X-0418Y01667*
X-04182Y01667*
X-04183Y01666*
X-04184Y01665*
X-04186Y01665*
X-04187Y01664*
X-04188Y01663*
X-04189Y01662*
X-0419Y01661*
X-04191Y0166*
X-04192Y01659*
X-04192Y01658*
X-04193Y01657*
X-04194Y01656*
X-04194Y01654*
X-04195Y01653*
X-04195Y01652*
X-04195Y0165*
X-04195Y01649*
X-04196Y01648*
X-04195Y01646*
X-04195Y01645*
X-04195Y01643*
X-04195Y01642*
X-04194Y01641*
X-04194Y01639*
X-04193Y01638*
X-04192Y01637*
X-04192Y01636*
X-04191Y01635*
X-0419Y01634*
X-04189Y01633*
X-04188Y01632*
X-04187Y01631*
X-04186Y0163*
X-04184Y0163*
X-04183Y01629*
X-04182Y01628*
X-0418Y01628*
X-04179Y01628*
X-04178Y01628*
X-04176Y01628*
X-04175*
X-04173Y01628*
X-04172Y01628*
X-04171Y01628*
X-04169Y01628*
X-04168Y01629*
X-04167Y0163*
X-04166Y0163*
X-04164Y01631*
X-04163Y01632*
X-04162Y01633*
X-04161Y01634*
X-0416Y01635*
X-04159Y01636*
X-04159Y01637*
X-04158Y01638*
X-04157Y01639*
X-04157Y01641*
X-04156Y01642*
X-04156Y01643*
X-04156Y01645*
X-04156Y01646*
X-04156Y01648*
Y01548D02*
D01*
X-04156Y01549*
X-04156Y0155*
X-04156Y01552*
X-04156Y01553*
X-04157Y01554*
X-04157Y01556*
X-04158Y01557*
X-04159Y01558*
X-04159Y01559*
X-0416Y0156*
X-04161Y01561*
X-04162Y01562*
X-04163Y01563*
X-04164Y01564*
X-04166Y01565*
X-04167Y01565*
X-04168Y01566*
X-04169Y01567*
X-04171Y01567*
X-04172Y01567*
X-04173Y01567*
X-04175Y01567*
X-04176*
X-04178Y01567*
X-04179Y01567*
X-0418Y01567*
X-04182Y01567*
X-04183Y01566*
X-04184Y01565*
X-04186Y01565*
X-04187Y01564*
X-04188Y01563*
X-04189Y01562*
X-0419Y01561*
X-04191Y0156*
X-04192Y01559*
X-04192Y01558*
X-04193Y01557*
X-04194Y01556*
X-04194Y01554*
X-04195Y01553*
X-04195Y01552*
X-04195Y0155*
X-04195Y01549*
X-04196Y01548*
X-04195Y01546*
X-04195Y01545*
X-04195Y01543*
X-04195Y01542*
X-04194Y01541*
X-04194Y01539*
X-04193Y01538*
X-04192Y01537*
X-04192Y01536*
X-04191Y01535*
X-0419Y01534*
X-04189Y01533*
X-04188Y01532*
X-04187Y01531*
X-04186Y0153*
X-04184Y0153*
X-04183Y01529*
X-04182Y01528*
X-0418Y01528*
X-04179Y01528*
X-04178Y01528*
X-04176Y01528*
X-04175*
X-04173Y01528*
X-04172Y01528*
X-04171Y01528*
X-04169Y01528*
X-04168Y01529*
X-04167Y0153*
X-04166Y0153*
X-04164Y01531*
X-04163Y01532*
X-04162Y01533*
X-04161Y01534*
X-0416Y01535*
X-04159Y01536*
X-04159Y01537*
X-04158Y01538*
X-04157Y01539*
X-04157Y01541*
X-04156Y01542*
X-04156Y01543*
X-04156Y01545*
X-04156Y01546*
X-04156Y01548*
X-04256Y01648D02*
D01*
X-04256Y01649*
X-04256Y0165*
X-04256Y01652*
X-04256Y01653*
X-04257Y01654*
X-04257Y01656*
X-04258Y01657*
X-04259Y01658*
X-04259Y01659*
X-0426Y0166*
X-04261Y01661*
X-04262Y01662*
X-04263Y01663*
X-04264Y01664*
X-04266Y01665*
X-04267Y01665*
X-04268Y01666*
X-04269Y01667*
X-04271Y01667*
X-04272Y01667*
X-04273Y01667*
X-04275Y01667*
X-04276*
X-04278Y01667*
X-04279Y01667*
X-0428Y01667*
X-04282Y01667*
X-04283Y01666*
X-04284Y01665*
X-04286Y01665*
X-04287Y01664*
X-04288Y01663*
X-04289Y01662*
X-0429Y01661*
X-04291Y0166*
X-04292Y01659*
X-04292Y01658*
X-04293Y01657*
X-04294Y01656*
X-04294Y01654*
X-04295Y01653*
X-04295Y01652*
X-04295Y0165*
X-04295Y01649*
X-04296Y01648*
X-04295Y01646*
X-04295Y01645*
X-04295Y01643*
X-04295Y01642*
X-04294Y01641*
X-04294Y01639*
X-04293Y01638*
X-04292Y01637*
X-04292Y01636*
X-04291Y01635*
X-0429Y01634*
X-04289Y01633*
X-04288Y01632*
X-04287Y01631*
X-04286Y0163*
X-04284Y0163*
X-04283Y01629*
X-04282Y01628*
X-0428Y01628*
X-04279Y01628*
X-04278Y01628*
X-04276Y01628*
X-04275*
X-04273Y01628*
X-04272Y01628*
X-04271Y01628*
X-04269Y01628*
X-04268Y01629*
X-04267Y0163*
X-04266Y0163*
X-04264Y01631*
X-04263Y01632*
X-04262Y01633*
X-04261Y01634*
X-0426Y01635*
X-04259Y01636*
X-04259Y01637*
X-04258Y01638*
X-04257Y01639*
X-04257Y01641*
X-04256Y01642*
X-04256Y01643*
X-04256Y01645*
X-04256Y01646*
X-04256Y01648*
Y01548D02*
D01*
X-04256Y01549*
X-04256Y0155*
X-04256Y01552*
X-04256Y01553*
X-04257Y01554*
X-04257Y01556*
X-04258Y01557*
X-04259Y01558*
X-04259Y01559*
X-0426Y0156*
X-04261Y01561*
X-04262Y01562*
X-04263Y01563*
X-04264Y01564*
X-04266Y01565*
X-04267Y01565*
X-04268Y01566*
X-04269Y01567*
X-04271Y01567*
X-04272Y01567*
X-04273Y01567*
X-04275Y01567*
X-04276*
X-04278Y01567*
X-04279Y01567*
X-0428Y01567*
X-04282Y01567*
X-04283Y01566*
X-04284Y01565*
X-04286Y01565*
X-04287Y01564*
X-04288Y01563*
X-04289Y01562*
X-0429Y01561*
X-04291Y0156*
X-04292Y01559*
X-04292Y01558*
X-04293Y01557*
X-04294Y01556*
X-04294Y01554*
X-04295Y01553*
X-04295Y01552*
X-04295Y0155*
X-04295Y01549*
X-04296Y01548*
X-04295Y01546*
X-04295Y01545*
X-04295Y01543*
X-04295Y01542*
X-04294Y01541*
X-04294Y01539*
X-04293Y01538*
X-04292Y01537*
X-04292Y01536*
X-04291Y01535*
X-0429Y01534*
X-04289Y01533*
X-04288Y01532*
X-04287Y01531*
X-04286Y0153*
X-04284Y0153*
X-04283Y01529*
X-04282Y01528*
X-0428Y01528*
X-04279Y01528*
X-04278Y01528*
X-04276Y01528*
X-04275*
X-04273Y01528*
X-04272Y01528*
X-04271Y01528*
X-04269Y01528*
X-04268Y01529*
X-04267Y0153*
X-04266Y0153*
X-04264Y01531*
X-04263Y01532*
X-04262Y01533*
X-04261Y01534*
X-0426Y01535*
X-04259Y01536*
X-04259Y01537*
X-04258Y01538*
X-04257Y01539*
X-04257Y01541*
X-04256Y01542*
X-04256Y01543*
X-04256Y01545*
X-04256Y01546*
X-04256Y01548*
X-04356Y01648D02*
D01*
X-04356Y01649*
X-04356Y0165*
X-04356Y01652*
X-04356Y01653*
X-04357Y01654*
X-04357Y01656*
X-04358Y01657*
X-04359Y01658*
X-04359Y01659*
X-0436Y0166*
X-04361Y01661*
X-04362Y01662*
X-04363Y01663*
X-04364Y01664*
X-04366Y01665*
X-04367Y01665*
X-04368Y01666*
X-04369Y01667*
X-04371Y01667*
X-04372Y01667*
X-04373Y01667*
X-04375Y01667*
X-04376*
X-04378Y01667*
X-04379Y01667*
X-0438Y01667*
X-04382Y01667*
X-04383Y01666*
X-04384Y01665*
X-04386Y01665*
X-04387Y01664*
X-04388Y01663*
X-04389Y01662*
X-0439Y01661*
X-04391Y0166*
X-04392Y01659*
X-04392Y01658*
X-04393Y01657*
X-04394Y01656*
X-04394Y01654*
X-04395Y01653*
X-04395Y01652*
X-04395Y0165*
X-04395Y01649*
X-04396Y01648*
X-04395Y01646*
X-04395Y01645*
X-04395Y01643*
X-04395Y01642*
X-04394Y01641*
X-04394Y01639*
X-04393Y01638*
X-04392Y01637*
X-04392Y01636*
X-04391Y01635*
X-0439Y01634*
X-04389Y01633*
X-04388Y01632*
X-04387Y01631*
X-04386Y0163*
X-04384Y0163*
X-04383Y01629*
X-04382Y01628*
X-0438Y01628*
X-04379Y01628*
X-04378Y01628*
X-04376Y01628*
X-04375*
X-04373Y01628*
X-04372Y01628*
X-04371Y01628*
X-04369Y01628*
X-04368Y01629*
X-04367Y0163*
X-04366Y0163*
X-04364Y01631*
X-04363Y01632*
X-04362Y01633*
X-04361Y01634*
X-0436Y01635*
X-04359Y01636*
X-04359Y01637*
X-04358Y01638*
X-04357Y01639*
X-04357Y01641*
X-04356Y01642*
X-04356Y01643*
X-04356Y01645*
X-04356Y01646*
X-04356Y01648*
Y01548D02*
D01*
X-04356Y01549*
X-04356Y0155*
X-04356Y01552*
X-04356Y01553*
X-04357Y01554*
X-04357Y01556*
X-04358Y01557*
X-04359Y01558*
X-04359Y01559*
X-0436Y0156*
X-04361Y01561*
X-04362Y01562*
X-04363Y01563*
X-04364Y01564*
X-04366Y01565*
X-04367Y01565*
X-04368Y01566*
X-04369Y01567*
X-04371Y01567*
X-04372Y01567*
X-04373Y01567*
X-04375Y01567*
X-04376*
X-04378Y01567*
X-04379Y01567*
X-0438Y01567*
X-04382Y01567*
X-04383Y01566*
X-04384Y01565*
X-04386Y01565*
X-04387Y01564*
X-04388Y01563*
X-04389Y01562*
X-0439Y01561*
X-04391Y0156*
X-04392Y01559*
X-04392Y01558*
X-04393Y01557*
X-04394Y01556*
X-04394Y01554*
X-04395Y01553*
X-04395Y01552*
X-04395Y0155*
X-04395Y01549*
X-04396Y01548*
X-04395Y01546*
X-04395Y01545*
X-04395Y01543*
X-04395Y01542*
X-04394Y01541*
X-04394Y01539*
X-04393Y01538*
X-04392Y01537*
X-04392Y01536*
X-04391Y01535*
X-0439Y01534*
X-04389Y01533*
X-04388Y01532*
X-04387Y01531*
X-04386Y0153*
X-04384Y0153*
X-04383Y01529*
X-04382Y01528*
X-0438Y01528*
X-04379Y01528*
X-04378Y01528*
X-04376Y01528*
X-04375*
X-04373Y01528*
X-04372Y01528*
X-04371Y01528*
X-04369Y01528*
X-04368Y01529*
X-04367Y0153*
X-04366Y0153*
X-04364Y01531*
X-04363Y01532*
X-04362Y01533*
X-04361Y01534*
X-0436Y01535*
X-04359Y01536*
X-04359Y01537*
X-04358Y01538*
X-04357Y01539*
X-04357Y01541*
X-04356Y01542*
X-04356Y01543*
X-04356Y01545*
X-04356Y01546*
X-04356Y01548*
X-04456Y01648D02*
D01*
X-04456Y01649*
X-04456Y0165*
X-04456Y01652*
X-04456Y01653*
X-04457Y01654*
X-04457Y01656*
X-04458Y01657*
X-04459Y01658*
X-04459Y01659*
X-0446Y0166*
X-04461Y01661*
X-04462Y01662*
X-04463Y01663*
X-04464Y01664*
X-04466Y01665*
X-04467Y01665*
X-04468Y01666*
X-04469Y01667*
X-04471Y01667*
X-04472Y01667*
X-04473Y01667*
X-04475Y01667*
X-04476*
X-04478Y01667*
X-04479Y01667*
X-0448Y01667*
X-04482Y01667*
X-04483Y01666*
X-04484Y01665*
X-04486Y01665*
X-04487Y01664*
X-04488Y01663*
X-04489Y01662*
X-0449Y01661*
X-04491Y0166*
X-04492Y01659*
X-04492Y01658*
X-04493Y01657*
X-04494Y01656*
X-04494Y01654*
X-04495Y01653*
X-04495Y01652*
X-04495Y0165*
X-04495Y01649*
X-04496Y01648*
X-04495Y01646*
X-04495Y01645*
X-04495Y01643*
X-04495Y01642*
X-04494Y01641*
X-04494Y01639*
X-04493Y01638*
X-04492Y01637*
X-04492Y01636*
X-04491Y01635*
X-0449Y01634*
X-04489Y01633*
X-04488Y01632*
X-04487Y01631*
X-04486Y0163*
X-04484Y0163*
X-04483Y01629*
X-04482Y01628*
X-0448Y01628*
X-04479Y01628*
X-04478Y01628*
X-04476Y01628*
X-04475*
X-04473Y01628*
X-04472Y01628*
X-04471Y01628*
X-04469Y01628*
X-04468Y01629*
X-04467Y0163*
X-04466Y0163*
X-04464Y01631*
X-04463Y01632*
X-04462Y01633*
X-04461Y01634*
X-0446Y01635*
X-04459Y01636*
X-04459Y01637*
X-04458Y01638*
X-04457Y01639*
X-04457Y01641*
X-04456Y01642*
X-04456Y01643*
X-04456Y01645*
X-04456Y01646*
X-04456Y01648*
Y01548D02*
D01*
X-04456Y01549*
X-04456Y0155*
X-04456Y01552*
X-04456Y01553*
X-04457Y01554*
X-04457Y01556*
X-04458Y01557*
X-04459Y01558*
X-04459Y01559*
X-0446Y0156*
X-04461Y01561*
X-04462Y01562*
X-04463Y01563*
X-04464Y01564*
X-04466Y01565*
X-04467Y01565*
X-04468Y01566*
X-04469Y01567*
X-04471Y01567*
X-04472Y01567*
X-04473Y01567*
X-04475Y01567*
X-04476*
X-04478Y01567*
X-04479Y01567*
X-0448Y01567*
X-04482Y01567*
X-04483Y01566*
X-04484Y01565*
X-04486Y01565*
X-04487Y01564*
X-04488Y01563*
X-04489Y01562*
X-0449Y01561*
X-04491Y0156*
X-04492Y01559*
X-04492Y01558*
X-04493Y01557*
X-04494Y01556*
X-04494Y01554*
X-04495Y01553*
X-04495Y01552*
X-04495Y0155*
X-04495Y01549*
X-04496Y01548*
X-04495Y01546*
X-04495Y01545*
X-04495Y01543*
X-04495Y01542*
X-04494Y01541*
X-04494Y01539*
X-04493Y01538*
X-04492Y01537*
X-04492Y01536*
X-04491Y01535*
X-0449Y01534*
X-04489Y01533*
X-04488Y01532*
X-04487Y01531*
X-04486Y0153*
X-04484Y0153*
X-04483Y01529*
X-04482Y01528*
X-0448Y01528*
X-04479Y01528*
X-04478Y01528*
X-04476Y01528*
X-04475*
X-04473Y01528*
X-04472Y01528*
X-04471Y01528*
X-04469Y01528*
X-04468Y01529*
X-04467Y0153*
X-04466Y0153*
X-04464Y01531*
X-04463Y01532*
X-04462Y01533*
X-04461Y01534*
X-0446Y01535*
X-04459Y01536*
X-04459Y01537*
X-04458Y01538*
X-04457Y01539*
X-04457Y01541*
X-04456Y01542*
X-04456Y01543*
X-04456Y01545*
X-04456Y01546*
X-04456Y01548*
X-04556Y01648D02*
D01*
X-04556Y01649*
X-04556Y0165*
X-04556Y01652*
X-04556Y01653*
X-04557Y01654*
X-04557Y01656*
X-04558Y01657*
X-04559Y01658*
X-04559Y01659*
X-0456Y0166*
X-04561Y01661*
X-04562Y01662*
X-04563Y01663*
X-04564Y01664*
X-04566Y01665*
X-04567Y01665*
X-04568Y01666*
X-04569Y01667*
X-04571Y01667*
X-04572Y01667*
X-04573Y01667*
X-04575Y01667*
X-04576*
X-04578Y01667*
X-04579Y01667*
X-0458Y01667*
X-04582Y01667*
X-04583Y01666*
X-04584Y01665*
X-04586Y01665*
X-04587Y01664*
X-04588Y01663*
X-04589Y01662*
X-0459Y01661*
X-04591Y0166*
X-04592Y01659*
X-04592Y01658*
X-04593Y01657*
X-04594Y01656*
X-04594Y01654*
X-04595Y01653*
X-04595Y01652*
X-04595Y0165*
X-04595Y01649*
X-04596Y01648*
X-04595Y01646*
X-04595Y01645*
X-04595Y01643*
X-04595Y01642*
X-04594Y01641*
X-04594Y01639*
X-04593Y01638*
X-04592Y01637*
X-04592Y01636*
X-04591Y01635*
X-0459Y01634*
X-04589Y01633*
X-04588Y01632*
X-04587Y01631*
X-04586Y0163*
X-04584Y0163*
X-04583Y01629*
X-04582Y01628*
X-0458Y01628*
X-04579Y01628*
X-04578Y01628*
X-04576Y01628*
X-04575*
X-04573Y01628*
X-04572Y01628*
X-04571Y01628*
X-04569Y01628*
X-04568Y01629*
X-04567Y0163*
X-04566Y0163*
X-04564Y01631*
X-04563Y01632*
X-04562Y01633*
X-04561Y01634*
X-0456Y01635*
X-04559Y01636*
X-04559Y01637*
X-04558Y01638*
X-04557Y01639*
X-04557Y01641*
X-04556Y01642*
X-04556Y01643*
X-04556Y01645*
X-04556Y01646*
X-04556Y01648*
Y01548D02*
D01*
X-04556Y01549*
X-04556Y0155*
X-04556Y01552*
X-04556Y01553*
X-04557Y01554*
X-04557Y01556*
X-04558Y01557*
X-04559Y01558*
X-04559Y01559*
X-0456Y0156*
X-04561Y01561*
X-04562Y01562*
X-04563Y01563*
X-04564Y01564*
X-04566Y01565*
X-04567Y01565*
X-04568Y01566*
X-04569Y01567*
X-04571Y01567*
X-04572Y01567*
X-04573Y01567*
X-04575Y01567*
X-04576*
X-04578Y01567*
X-04579Y01567*
X-0458Y01567*
X-04582Y01567*
X-04583Y01566*
X-04584Y01565*
X-04586Y01565*
X-04587Y01564*
X-04588Y01563*
X-04589Y01562*
X-0459Y01561*
X-04591Y0156*
X-04592Y01559*
X-04592Y01558*
X-04593Y01557*
X-04594Y01556*
X-04594Y01554*
X-04595Y01553*
X-04595Y01552*
X-04595Y0155*
X-04595Y01549*
X-04596Y01548*
X-04595Y01546*
X-04595Y01545*
X-04595Y01543*
X-04595Y01542*
X-04594Y01541*
X-04594Y01539*
X-04593Y01538*
X-04592Y01537*
X-04592Y01536*
X-04591Y01535*
X-0459Y01534*
X-04589Y01533*
X-04588Y01532*
X-04587Y01531*
X-04586Y0153*
X-04584Y0153*
X-04583Y01529*
X-04582Y01528*
X-0458Y01528*
X-04579Y01528*
X-04578Y01528*
X-04576Y01528*
X-04575*
X-04573Y01528*
X-04572Y01528*
X-04571Y01528*
X-04569Y01528*
X-04568Y01529*
X-04567Y0153*
X-04566Y0153*
X-04564Y01531*
X-04563Y01532*
X-04562Y01533*
X-04561Y01534*
X-0456Y01535*
X-04559Y01536*
X-04559Y01537*
X-04558Y01538*
X-04557Y01539*
X-04557Y01541*
X-04556Y01542*
X-04556Y01543*
X-04556Y01545*
X-04556Y01546*
X-04556Y01548*
X-04656Y01648D02*
D01*
X-04656Y01649*
X-04656Y0165*
X-04656Y01652*
X-04656Y01653*
X-04657Y01654*
X-04657Y01656*
X-04658Y01657*
X-04659Y01658*
X-04659Y01659*
X-0466Y0166*
X-04661Y01661*
X-04662Y01662*
X-04663Y01663*
X-04664Y01664*
X-04666Y01665*
X-04667Y01665*
X-04668Y01666*
X-04669Y01667*
X-04671Y01667*
X-04672Y01667*
X-04673Y01667*
X-04675Y01667*
X-04676*
X-04678Y01667*
X-04679Y01667*
X-0468Y01667*
X-04682Y01667*
X-04683Y01666*
X-04684Y01665*
X-04686Y01665*
X-04687Y01664*
X-04688Y01663*
X-04689Y01662*
X-0469Y01661*
X-04691Y0166*
X-04692Y01659*
X-04692Y01658*
X-04693Y01657*
X-04694Y01656*
X-04694Y01654*
X-04695Y01653*
X-04695Y01652*
X-04695Y0165*
X-04695Y01649*
X-04696Y01648*
X-04695Y01646*
X-04695Y01645*
X-04695Y01643*
X-04695Y01642*
X-04694Y01641*
X-04694Y01639*
X-04693Y01638*
X-04692Y01637*
X-04692Y01636*
X-04691Y01635*
X-0469Y01634*
X-04689Y01633*
X-04688Y01632*
X-04687Y01631*
X-04686Y0163*
X-04684Y0163*
X-04683Y01629*
X-04682Y01628*
X-0468Y01628*
X-04679Y01628*
X-04678Y01628*
X-04676Y01628*
X-04675*
X-04673Y01628*
X-04672Y01628*
X-04671Y01628*
X-04669Y01628*
X-04668Y01629*
X-04667Y0163*
X-04666Y0163*
X-04664Y01631*
X-04663Y01632*
X-04662Y01633*
X-04661Y01634*
X-0466Y01635*
X-04659Y01636*
X-04659Y01637*
X-04658Y01638*
X-04657Y01639*
X-04657Y01641*
X-04656Y01642*
X-04656Y01643*
X-04656Y01645*
X-04656Y01646*
X-04656Y01648*
Y01548D02*
D01*
X-04656Y01549*
X-04656Y0155*
X-04656Y01552*
X-04656Y01553*
X-04657Y01554*
X-04657Y01556*
X-04658Y01557*
X-04659Y01558*
X-04659Y01559*
X-0466Y0156*
X-04661Y01561*
X-04662Y01562*
X-04663Y01563*
X-04664Y01564*
X-04666Y01565*
X-04667Y01565*
X-04668Y01566*
X-04669Y01567*
X-04671Y01567*
X-04672Y01567*
X-04673Y01567*
X-04675Y01567*
X-04676*
X-04678Y01567*
X-04679Y01567*
X-0468Y01567*
X-04682Y01567*
X-04683Y01566*
X-04684Y01565*
X-04686Y01565*
X-04687Y01564*
X-04688Y01563*
X-04689Y01562*
X-0469Y01561*
X-04691Y0156*
X-04692Y01559*
X-04692Y01558*
X-04693Y01557*
X-04694Y01556*
X-04694Y01554*
X-04695Y01553*
X-04695Y01552*
X-04695Y0155*
X-04695Y01549*
X-04696Y01548*
X-04695Y01546*
X-04695Y01545*
X-04695Y01543*
X-04695Y01542*
X-04694Y01541*
X-04694Y01539*
X-04693Y01538*
X-04692Y01537*
X-04692Y01536*
X-04691Y01535*
X-0469Y01534*
X-04689Y01533*
X-04688Y01532*
X-04687Y01531*
X-04686Y0153*
X-04684Y0153*
X-04683Y01529*
X-04682Y01528*
X-0468Y01528*
X-04679Y01528*
X-04678Y01528*
X-04676Y01528*
X-04675*
X-04673Y01528*
X-04672Y01528*
X-04671Y01528*
X-04669Y01528*
X-04668Y01529*
X-04667Y0153*
X-04666Y0153*
X-04664Y01531*
X-04663Y01532*
X-04662Y01533*
X-04661Y01534*
X-0466Y01535*
X-04659Y01536*
X-04659Y01537*
X-04658Y01538*
X-04657Y01539*
X-04657Y01541*
X-04656Y01542*
X-04656Y01543*
X-04656Y01545*
X-04656Y01546*
X-04656Y01548*
X-04756Y01648D02*
D01*
X-04756Y01649*
X-04756Y0165*
X-04756Y01652*
X-04756Y01653*
X-04757Y01654*
X-04757Y01656*
X-04758Y01657*
X-04759Y01658*
X-04759Y01659*
X-0476Y0166*
X-04761Y01661*
X-04762Y01662*
X-04763Y01663*
X-04764Y01664*
X-04766Y01665*
X-04767Y01665*
X-04768Y01666*
X-04769Y01667*
X-04771Y01667*
X-04772Y01667*
X-04773Y01667*
X-04775Y01667*
X-04776*
X-04778Y01667*
X-04779Y01667*
X-0478Y01667*
X-04782Y01667*
X-04783Y01666*
X-04784Y01665*
X-04786Y01665*
X-04787Y01664*
X-04788Y01663*
X-04789Y01662*
X-0479Y01661*
X-04791Y0166*
X-04792Y01659*
X-04792Y01658*
X-04793Y01657*
X-04794Y01656*
X-04794Y01654*
X-04795Y01653*
X-04795Y01652*
X-04795Y0165*
X-04795Y01649*
X-04796Y01648*
X-04795Y01646*
X-04795Y01645*
X-04795Y01643*
X-04795Y01642*
X-04794Y01641*
X-04794Y01639*
X-04793Y01638*
X-04792Y01637*
X-04792Y01636*
X-04791Y01635*
X-0479Y01634*
X-04789Y01633*
X-04788Y01632*
X-04787Y01631*
X-04786Y0163*
X-04784Y0163*
X-04783Y01629*
X-04782Y01628*
X-0478Y01628*
X-04779Y01628*
X-04778Y01628*
X-04776Y01628*
X-04775*
X-04773Y01628*
X-04772Y01628*
X-04771Y01628*
X-04769Y01628*
X-04768Y01629*
X-04767Y0163*
X-04766Y0163*
X-04764Y01631*
X-04763Y01632*
X-04762Y01633*
X-04761Y01634*
X-0476Y01635*
X-04759Y01636*
X-04759Y01637*
X-04758Y01638*
X-04757Y01639*
X-04757Y01641*
X-04756Y01642*
X-04756Y01643*
X-04756Y01645*
X-04756Y01646*
X-04756Y01648*
Y01548D02*
D01*
X-04756Y01549*
X-04756Y0155*
X-04756Y01552*
X-04756Y01553*
X-04757Y01554*
X-04757Y01556*
X-04758Y01557*
X-04759Y01558*
X-04759Y01559*
X-0476Y0156*
X-04761Y01561*
X-04762Y01562*
X-04763Y01563*
X-04764Y01564*
X-04766Y01565*
X-04767Y01565*
X-04768Y01566*
X-04769Y01567*
X-04771Y01567*
X-04772Y01567*
X-04773Y01567*
X-04775Y01567*
X-04776*
X-04778Y01567*
X-04779Y01567*
X-0478Y01567*
X-04782Y01567*
X-04783Y01566*
X-04784Y01565*
X-04786Y01565*
X-04787Y01564*
X-04788Y01563*
X-04789Y01562*
X-0479Y01561*
X-04791Y0156*
X-04792Y01559*
X-04792Y01558*
X-04793Y01557*
X-04794Y01556*
X-04794Y01554*
X-04795Y01553*
X-04795Y01552*
X-04795Y0155*
X-04795Y01549*
X-04796Y01548*
X-04795Y01546*
X-04795Y01545*
X-04795Y01543*
X-04795Y01542*
X-04794Y01541*
X-04794Y01539*
X-04793Y01538*
X-04792Y01537*
X-04792Y01536*
X-04791Y01535*
X-0479Y01534*
X-04789Y01533*
X-04788Y01532*
X-04787Y01531*
X-04786Y0153*
X-04784Y0153*
X-04783Y01529*
X-04782Y01528*
X-0478Y01528*
X-04779Y01528*
X-04778Y01528*
X-04776Y01528*
X-04775*
X-04773Y01528*
X-04772Y01528*
X-04771Y01528*
X-04769Y01528*
X-04768Y01529*
X-04767Y0153*
X-04766Y0153*
X-04764Y01531*
X-04763Y01532*
X-04762Y01533*
X-04761Y01534*
X-0476Y01535*
X-04759Y01536*
X-04759Y01537*
X-04758Y01538*
X-04757Y01539*
X-04757Y01541*
X-04756Y01542*
X-04756Y01543*
X-04756Y01545*
X-04756Y01546*
X-04756Y01548*
X-04856Y01648D02*
D01*
X-04856Y01649*
X-04856Y0165*
X-04856Y01652*
X-04856Y01653*
X-04857Y01654*
X-04857Y01656*
X-04858Y01657*
X-04859Y01658*
X-04859Y01659*
X-0486Y0166*
X-04861Y01661*
X-04862Y01662*
X-04863Y01663*
X-04864Y01664*
X-04866Y01665*
X-04867Y01665*
X-04868Y01666*
X-04869Y01667*
X-04871Y01667*
X-04872Y01667*
X-04873Y01667*
X-04875Y01667*
X-04876*
X-04878Y01667*
X-04879Y01667*
X-0488Y01667*
X-04882Y01667*
X-04883Y01666*
X-04884Y01665*
X-04886Y01665*
X-04887Y01664*
X-04888Y01663*
X-04889Y01662*
X-0489Y01661*
X-04891Y0166*
X-04892Y01659*
X-04892Y01658*
X-04893Y01657*
X-04894Y01656*
X-04894Y01654*
X-04895Y01653*
X-04895Y01652*
X-04895Y0165*
X-04895Y01649*
X-04896Y01648*
X-04895Y01646*
X-04895Y01645*
X-04895Y01643*
X-04895Y01642*
X-04894Y01641*
X-04894Y01639*
X-04893Y01638*
X-04892Y01637*
X-04892Y01636*
X-04891Y01635*
X-0489Y01634*
X-04889Y01633*
X-04888Y01632*
X-04887Y01631*
X-04886Y0163*
X-04884Y0163*
X-04883Y01629*
X-04882Y01628*
X-0488Y01628*
X-04879Y01628*
X-04878Y01628*
X-04876Y01628*
X-04875*
X-04873Y01628*
X-04872Y01628*
X-04871Y01628*
X-04869Y01628*
X-04868Y01629*
X-04867Y0163*
X-04866Y0163*
X-04864Y01631*
X-04863Y01632*
X-04862Y01633*
X-04861Y01634*
X-0486Y01635*
X-04859Y01636*
X-04859Y01637*
X-04858Y01638*
X-04857Y01639*
X-04857Y01641*
X-04856Y01642*
X-04856Y01643*
X-04856Y01645*
X-04856Y01646*
X-04856Y01648*
Y01548D02*
D01*
X-04856Y01549*
X-04856Y0155*
X-04856Y01552*
X-04856Y01553*
X-04857Y01554*
X-04857Y01556*
X-04858Y01557*
X-04859Y01558*
X-04859Y01559*
X-0486Y0156*
X-04861Y01561*
X-04862Y01562*
X-04863Y01563*
X-04864Y01564*
X-04866Y01565*
X-04867Y01565*
X-04868Y01566*
X-04869Y01567*
X-04871Y01567*
X-04872Y01567*
X-04873Y01567*
X-04875Y01567*
X-04876*
X-04878Y01567*
X-04879Y01567*
X-0488Y01567*
X-04882Y01567*
X-04883Y01566*
X-04884Y01565*
X-04886Y01565*
X-04887Y01564*
X-04888Y01563*
X-04889Y01562*
X-0489Y01561*
X-04891Y0156*
X-04892Y01559*
X-04892Y01558*
X-04893Y01557*
X-04894Y01556*
X-04894Y01554*
X-04895Y01553*
X-04895Y01552*
X-04895Y0155*
X-04895Y01549*
X-04896Y01548*
X-04895Y01546*
X-04895Y01545*
X-04895Y01543*
X-04895Y01542*
X-04894Y01541*
X-04894Y01539*
X-04893Y01538*
X-04892Y01537*
X-04892Y01536*
X-04891Y01535*
X-0489Y01534*
X-04889Y01533*
X-04888Y01532*
X-04887Y01531*
X-04886Y0153*
X-04884Y0153*
X-04883Y01529*
X-04882Y01528*
X-0488Y01528*
X-04879Y01528*
X-04878Y01528*
X-04876Y01528*
X-04875*
X-04873Y01528*
X-04872Y01528*
X-04871Y01528*
X-04869Y01528*
X-04868Y01529*
X-04867Y0153*
X-04866Y0153*
X-04864Y01531*
X-04863Y01532*
X-04862Y01533*
X-04861Y01534*
X-0486Y01535*
X-04859Y01536*
X-04859Y01537*
X-04858Y01538*
X-04857Y01539*
X-04857Y01541*
X-04856Y01542*
X-04856Y01543*
X-04856Y01545*
X-04856Y01546*
X-04856Y01548*
X-04956Y01648D02*
D01*
X-04956Y01649*
X-04956Y0165*
X-04956Y01652*
X-04956Y01653*
X-04957Y01654*
X-04957Y01656*
X-04958Y01657*
X-04959Y01658*
X-04959Y01659*
X-0496Y0166*
X-04961Y01661*
X-04962Y01662*
X-04963Y01663*
X-04964Y01664*
X-04966Y01665*
X-04967Y01665*
X-04968Y01666*
X-04969Y01667*
X-04971Y01667*
X-04972Y01667*
X-04973Y01667*
X-04975Y01667*
X-04976*
X-04978Y01667*
X-04979Y01667*
X-0498Y01667*
X-04982Y01667*
X-04983Y01666*
X-04984Y01665*
X-04986Y01665*
X-04987Y01664*
X-04988Y01663*
X-04989Y01662*
X-0499Y01661*
X-04991Y0166*
X-04992Y01659*
X-04992Y01658*
X-04993Y01657*
X-04994Y01656*
X-04994Y01654*
X-04995Y01653*
X-04995Y01652*
X-04995Y0165*
X-04995Y01649*
X-04996Y01648*
X-04995Y01646*
X-04995Y01645*
X-04995Y01643*
X-04995Y01642*
X-04994Y01641*
X-04994Y01639*
X-04993Y01638*
X-04992Y01637*
X-04992Y01636*
X-04991Y01635*
X-0499Y01634*
X-04989Y01633*
X-04988Y01632*
X-04987Y01631*
X-04986Y0163*
X-04984Y0163*
X-04983Y01629*
X-04982Y01628*
X-0498Y01628*
X-04979Y01628*
X-04978Y01628*
X-04976Y01628*
X-04975*
X-04973Y01628*
X-04972Y01628*
X-04971Y01628*
X-04969Y01628*
X-04968Y01629*
X-04967Y0163*
X-04966Y0163*
X-04964Y01631*
X-04963Y01632*
X-04962Y01633*
X-04961Y01634*
X-0496Y01635*
X-04959Y01636*
X-04959Y01637*
X-04958Y01638*
X-04957Y01639*
X-04957Y01641*
X-04956Y01642*
X-04956Y01643*
X-04956Y01645*
X-04956Y01646*
X-04956Y01648*
Y01548D02*
D01*
X-04956Y01549*
X-04956Y0155*
X-04956Y01552*
X-04956Y01553*
X-04957Y01554*
X-04957Y01556*
X-04958Y01557*
X-04959Y01558*
X-04959Y01559*
X-0496Y0156*
X-04961Y01561*
X-04962Y01562*
X-04963Y01563*
X-04964Y01564*
X-04966Y01565*
X-04967Y01565*
X-04968Y01566*
X-04969Y01567*
X-04971Y01567*
X-04972Y01567*
X-04973Y01567*
X-04975Y01567*
X-04976*
X-04978Y01567*
X-04979Y01567*
X-0498Y01567*
X-04982Y01567*
X-04983Y01566*
X-04984Y01565*
X-04986Y01565*
X-04987Y01564*
X-04988Y01563*
X-04989Y01562*
X-0499Y01561*
X-04991Y0156*
X-04992Y01559*
X-04992Y01558*
X-04993Y01557*
X-04994Y01556*
X-04994Y01554*
X-04995Y01553*
X-04995Y01552*
X-04995Y0155*
X-04995Y01549*
X-04996Y01548*
X-04995Y01546*
X-04995Y01545*
X-04995Y01543*
X-04995Y01542*
X-04994Y01541*
X-04994Y01539*
X-04993Y01538*
X-04992Y01537*
X-04992Y01536*
X-04991Y01535*
X-0499Y01534*
X-04989Y01533*
X-04988Y01532*
X-04987Y01531*
X-04986Y0153*
X-04984Y0153*
X-04983Y01529*
X-04982Y01528*
X-0498Y01528*
X-04979Y01528*
X-04978Y01528*
X-04976Y01528*
X-04975*
X-04973Y01528*
X-04972Y01528*
X-04971Y01528*
X-04969Y01528*
X-04968Y01529*
X-04967Y0153*
X-04966Y0153*
X-04964Y01531*
X-04963Y01532*
X-04962Y01533*
X-04961Y01534*
X-0496Y01535*
X-04959Y01536*
X-04959Y01537*
X-04958Y01538*
X-04957Y01539*
X-04957Y01541*
X-04956Y01542*
X-04956Y01543*
X-04956Y01545*
X-04956Y01546*
X-04956Y01548*
X-05056Y01648D02*
D01*
X-05056Y01649*
X-05056Y0165*
X-05056Y01652*
X-05056Y01653*
X-05057Y01654*
X-05057Y01656*
X-05058Y01657*
X-05059Y01658*
X-05059Y01659*
X-0506Y0166*
X-05061Y01661*
X-05062Y01662*
X-05063Y01663*
X-05064Y01664*
X-05066Y01665*
X-05067Y01665*
X-05068Y01666*
X-05069Y01667*
X-05071Y01667*
X-05072Y01667*
X-05073Y01667*
X-05075Y01667*
X-05076*
X-05078Y01667*
X-05079Y01667*
X-0508Y01667*
X-05082Y01667*
X-05083Y01666*
X-05084Y01665*
X-05086Y01665*
X-05087Y01664*
X-05088Y01663*
X-05089Y01662*
X-0509Y01661*
X-05091Y0166*
X-05092Y01659*
X-05092Y01658*
X-05093Y01657*
X-05094Y01656*
X-05094Y01654*
X-05095Y01653*
X-05095Y01652*
X-05095Y0165*
X-05095Y01649*
X-05096Y01648*
X-05095Y01646*
X-05095Y01645*
X-05095Y01643*
X-05095Y01642*
X-05094Y01641*
X-05094Y01639*
X-05093Y01638*
X-05092Y01637*
X-05092Y01636*
X-05091Y01635*
X-0509Y01634*
X-05089Y01633*
X-05088Y01632*
X-05087Y01631*
X-05086Y0163*
X-05084Y0163*
X-05083Y01629*
X-05082Y01628*
X-0508Y01628*
X-05079Y01628*
X-05078Y01628*
X-05076Y01628*
X-05075*
X-05073Y01628*
X-05072Y01628*
X-05071Y01628*
X-05069Y01628*
X-05068Y01629*
X-05067Y0163*
X-05066Y0163*
X-05064Y01631*
X-05063Y01632*
X-05062Y01633*
X-05061Y01634*
X-0506Y01635*
X-05059Y01636*
X-05059Y01637*
X-05058Y01638*
X-05057Y01639*
X-05057Y01641*
X-05056Y01642*
X-05056Y01643*
X-05056Y01645*
X-05056Y01646*
X-05056Y01648*
G54D55*
X-02472Y00686D02*
X-02479Y00693D01*
X-02489Y00696*
X-02503*
X-02513Y00693*
X-0252Y00686*
Y00679*
X-02517Y00672*
X-02513Y00669*
X-02506Y00665*
X-02486Y00658*
X-02479Y00655*
X-02475Y00651*
X-02472Y00645*
Y00634*
X-02479Y00627*
X-02489Y00624*
X-02503*
X-02513Y00627*
X-0252Y00634*
X-02452Y00672D02*
X-02432Y00624D01*
X-02411Y00672D02*
X-02432Y00624D01*
X-02439Y0061*
X-02446Y00603*
X-02452Y006*
X-02456*
X-02399Y00672D02*
Y00624D01*
Y00658D02*
X-02389Y00669D01*
X-02382Y00672*
X-02372*
X-02365Y00669*
X-02362Y00658*
Y00624*
Y00658D02*
X-02351Y00669D01*
X-02344Y00672*
X-02334*
X-02327Y00669*
X-02324Y00658*
Y00624*
X-02301Y00696D02*
Y00624D01*
Y00662D02*
X-02294Y00669D01*
X-02288Y00672*
X-02277*
X-0227Y00669*
X-02264Y00662*
X-0226Y00651*
Y00645*
X-02264Y00634*
X-0227Y00627*
X-02277Y00624*
X-02288*
X-02294Y00627*
X-02301Y00634*
X-02228Y00672D02*
X-02234Y00669D01*
X-02241Y00662*
X-02245Y00651*
Y00645*
X-02241Y00634*
X-02234Y00627*
X-02228Y00624*
X-02217*
X-0221Y00627*
X-02204Y00634*
X-022Y00645*
Y00651*
X-02204Y00662*
X-0221Y00669*
X-02217Y00672*
X-02228*
X-02184Y00696D02*
Y00624D01*
X-02064Y00696D02*
Y00624D01*
X-02016Y00696D02*
Y00624D01*
X-02064Y00662D02*
X-02016D01*
X-0199Y00696D02*
X-01986Y00693D01*
X-01983Y00696*
X-01986Y00699*
X-0199Y00696*
X-01986Y00672D02*
Y00624D01*
X-0196Y00696D02*
Y00638D01*
X-01956Y00627*
X-0195Y00624*
X-01943*
X-0197Y00672D02*
X-01946D01*
X-01824Y00679D02*
X-01828Y00686D01*
X-01835Y00693*
X-01842Y00696*
X-01855*
X-01862Y00693*
X-01869Y00686*
X-01872Y00679*
X-01876Y00669*
Y00651*
X-01872Y00641*
X-01869Y00634*
X-01862Y00627*
X-01855Y00624*
X-01842*
X-01835Y00627*
X-01828Y00634*
X-01824Y00641*
X-01787Y00672D02*
X-01794Y00669D01*
X-01801Y00662*
X-01804Y00651*
Y00645*
X-01801Y00634*
X-01794Y00627*
X-01787Y00624*
X-01777*
X-0177Y00627*
X-01763Y00634*
X-0176Y00645*
Y00651*
X-01763Y00662*
X-0177Y00669*
X-01777Y00672*
X-01787*
X-01744D02*
Y00638D01*
X-0174Y00627*
X-01734Y00624*
X-01723*
X-01716Y00627*
X-01706Y00638*
Y00672D02*
Y00624D01*
X-01687Y00672D02*
Y00624D01*
Y00658D02*
X-01677Y00669D01*
X-0167Y00672*
X-0166*
X-01653Y00669*
X-0165Y00658*
Y00624*
X-01621Y00696D02*
Y00638D01*
X-01617Y00627*
X-0161Y00624*
X-01603*
X-01631Y00672D02*
X-01607D01*
X-01459Y00696D02*
Y00624D01*
X-01483Y00696D02*
X-01435D01*
X-0141Y00672D02*
X-01417Y00669D01*
X-01423Y00662*
X-01427Y00651*
Y00645*
X-01423Y00634*
X-01417Y00627*
X-0141Y00624*
X-01399*
X-01393Y00627*
X-01386Y00634*
X-01382Y00645*
Y00651*
X-01386Y00662*
X-01393Y00669*
X-01399Y00672*
X-0141*
X-01349D02*
X-01356Y00669D01*
X-01363Y00662*
X-01366Y00651*
Y00645*
X-01363Y00634*
X-01356Y00627*
X-01349Y00624*
X-01339*
X-01332Y00627*
X-01325Y00634*
X-01322Y00645*
Y00651*
X-01325Y00662*
X-01332Y00669*
X-01339Y00672*
X-01349*
X-01306Y00696D02*
Y00624D01*
X-01187Y00686D02*
X-01193Y00693D01*
X-01204Y00696*
X-01217*
X-01228Y00693*
X-01235Y00686*
Y00679*
X-01231Y00672*
X-01228Y00669*
X-01221Y00665*
X-012Y00658*
X-01193Y00655*
X-0119Y00651*
X-01187Y00645*
Y00634*
X-01193Y00627*
X-01204Y00624*
X-01217*
X-01228Y00627*
X-01235Y00634*
X-01164Y00696D02*
X-0116Y00693D01*
X-01157Y00696*
X-0116Y00699*
X-01164Y00696*
X-0116Y00672D02*
Y00624D01*
X-01106Y00672D02*
X-01144Y00624D01*
Y00672D02*
X-01106D01*
X-01144Y00624D02*
X-01106D01*
X-01091Y00651D02*
X-0105D01*
Y00658*
X-01054Y00665*
X-01057Y00669*
X-01064Y00672*
X-01074*
X-01081Y00669*
X-01088Y00662*
X-01091Y00651*
Y00645*
X-01088Y00634*
X-01081Y00627*
X-01074Y00624*
X-01064*
X-01057Y00627*
X-0105Y00634*
X-0062Y00658D02*
X-00589D01*
X-00579Y00662*
X-00576Y00665*
X-00572Y00672*
Y00682*
X-00576Y00689*
X-00579Y00693*
X-00589Y00696*
X-0062*
Y00624*
X-00556Y00696D02*
Y00624D01*
X-005Y00672D02*
Y00624D01*
Y00662D02*
X-00507Y00669D01*
X-00513Y00672*
X-00524*
X-00531Y00669*
X-00537Y00662*
X-00541Y00651*
Y00645*
X-00537Y00634*
X-00531Y00627*
X-00524Y00624*
X-00513*
X-00507Y00627*
X-005Y00634*
X-0047Y00696D02*
Y00638D01*
X-00467Y00627*
X-0046Y00624*
X-00453*
X-00481Y00672D02*
X-00457D01*
X-00443Y00651D02*
X-00402D01*
Y00658*
X-00405Y00665*
X-00409Y00669*
X-00415Y00672*
X-00426*
X-00433Y00669*
X-00439Y00662*
X-00443Y00651*
Y00645*
X-00439Y00634*
X-00433Y00627*
X-00426Y00624*
X-00415*
X-00409Y00627*
X-00402Y00634*
X-00345Y00696D02*
Y00624D01*
Y00662D02*
X-00352Y00669D01*
X-00359Y00672*
X-00369*
X-00376Y00669*
X-00383Y00662*
X-00386Y00651*
Y00645*
X-00383Y00634*
X-00376Y00627*
X-00369Y00624*
X-00359*
X-00352Y00627*
X-00345Y00634*
X-00225Y00696D02*
Y00624D01*
X-00177Y00696D02*
Y00624D01*
X-00225Y00662D02*
X-00177D01*
X-0014Y00672D02*
X-00147Y00669D01*
X-00154Y00662*
X-00157Y00651*
Y00645*
X-00154Y00634*
X-00147Y00627*
X-0014Y00624*
X-0013*
X-00123Y00627*
X-00116Y00634*
X-00113Y00645*
Y00651*
X-00116Y00662*
X-00123Y00669*
X-0013Y00672*
X-0014*
X-00097Y00696D02*
Y00624D01*
X-00082Y00651D02*
X-00041D01*
Y00658*
X-00044Y00665*
X-00048Y00669*
X-00054Y00672*
X-00065*
X-00072Y00669*
X-00078Y00662*
X-00082Y00651*
Y00645*
X-00078Y00634*
X-00072Y00627*
X-00065Y00624*
X-00054*
X-00048Y00627*
X-00041Y00634*
X00055Y00696D02*
Y00624D01*
X00031Y00696D02*
X00079D01*
X00091Y00672D02*
X00112Y00624D01*
X00132Y00672D02*
X00112Y00624D01*
X00105Y0061*
X00098Y00603*
X00091Y006*
X00088*
X00144Y00672D02*
Y006D01*
Y00662D02*
X00151Y00669D01*
X00158Y00672*
X00168*
X00175Y00669*
X00182Y00662*
X00185Y00651*
Y00645*
X00182Y00634*
X00175Y00627*
X00168Y00624*
X00158*
X00151Y00627*
X00144Y00634*
X00201Y00651D02*
X00242D01*
Y00658*
X00239Y00665*
X00235Y00669*
X00228Y00672*
X00218*
X00211Y00669*
X00204Y00662*
X00201Y00651*
Y00645*
X00204Y00634*
X00211Y00627*
X00218Y00624*
X00228*
X00235Y00627*
X00242Y00634*
X-02608Y00732D02*
X00362D01*
X-02608Y0057D02*
X00362D01*
X-02608Y00732D02*
Y0009D01*
X00362Y00732D02*
Y0009D01*
X-02108Y00732D02*
Y0009D01*
X-01527Y00732D02*
Y0009D01*
X-00664Y00732D02*
Y0009D01*
X-00269Y00732D02*
Y0009D01*
X-02608Y0021D02*
X00362D01*
X-02608Y0009D02*
X00362D01*
M02*