M48
;Layer_Color=9474304
;FILE_FORMAT=2:3
INCH,LZ
;TYPE=PLATED
T1F00S00C0.016
T2F00S00C0.040
;TYPE=NON_PLATED
T3F00S00C0.126
%
T01
X-04481Y-00092
X-04551
X-05121Y-00102
X-05176
X-05161Y-01402
Y-01452
X-05106
Y-01402
X-03676Y-01452
Y-01502
X-03621
Y-01452
X-03326
Y-01502
X-03271
Y-01452
X-0321Y-00425
Y-00375
X-03155
Y-00425
X-04136Y-00422
X-04341Y-00422
X-04341Y-00372
X-04396
Y-00422
X-04136Y-00067
X-04351Y-00027
X-04376Y00073
X-04416Y00378
X-04261
X-04186
X-04221Y00568
X-04276
X-04376Y00623
X-04417Y00548
X-03901Y00723
X-03701Y00648
X-03846Y00388
X-03701Y00198
X-037Y00174
X-04006Y00178
Y00128
X-04061
Y00178
X-0321Y00275
Y00325
X-03155
Y00275
X-03826Y00948
X-04001Y01218
X-04451Y00823
X-04476Y00798
X-04551Y00748
Y00698
X-04601Y00723
X-04626Y00748
X-04682Y00613
X-04551Y00558
X-04528Y0052
X-04541Y00489
X-04526Y00457
X-04541Y00426
X-04551Y00348
Y00308
X-04541Y00271
X-04531Y0024
X-04521Y00183
X-04451Y00148
X-0455Y00057
X-04523Y00026
X-04694Y00167
X-04681Y00298
X-04812Y00285
X-04826Y00143
X-04851Y00048
X-04876Y00073
X-05121Y-00052
X-05176
X-05001Y00948
X-04951Y00948
X-04901
X-04876Y00923
X-04851Y00898
X-04801
X-04751
X-04701
X-05136Y01248
Y01298
X-05191
Y01248
T02
X-04476Y01548
Y01648
X-04576
Y01548
X-04676
Y01648
X-04776
Y01548
X-04876
Y01648
X-04976
Y01548
X-05076
Y01648
X-04376
X-04276
X-04176
X-04076
X-03976
X-03876
X-03776
X-03676
X-03576
X-03476
Y01548
X-03576
X-03676
X-03776
X-03876
X-03976
X-04076
X-04176
X-04276
X-04376
T03
X-03212Y-01664
X-0463
M30
