%FSTAX23Y23*%
%MOIN*%
%SFA1B1*%

%IPPOS*%
%ADD10C,0.010000*%
%ADD11C,0.005000*%
%ADD13C,0.008000*%
%ADD34C,0.007000*%
%ADD35C,0.006000*%
%ADD36C,0.001000*%
%LNmb785a-1*%
%LPD*%
G54D10*
X-02495Y-0153D02*
Y-0159D01*
Y-0153D02*
X-02472Y-0159D01*
X-02449Y-0153D02*
X-02472Y-0159D01*
X-02449Y-0153D02*
Y-0159D01*
X-02432Y-0153D02*
Y-0159D01*
Y-0153D02*
X-02406D01*
X-02398Y-01533*
X-02395Y-01536*
X-02392Y-01541*
Y-01547*
X-02395Y-01553*
X-02398Y-01556*
X-02406Y-01559*
X-02432D02*
X-02406D01*
X-02398Y-01561*
X-02395Y-01564*
X-02392Y-0157*
Y-01579*
X-02395Y-01584*
X-02398Y-01587*
X-02406Y-0159*
X-02432*
X-02339Y-0153D02*
X-02367Y-0159D01*
X-02379Y-0153D02*
X-02339D01*
X-02311D02*
X-0232Y-01533D01*
X-02322Y-01539*
Y-01544*
X-0232Y-0155*
X-02314Y-01553*
X-02302Y-01556*
X-02294Y-01559*
X-02288Y-01564*
X-02285Y-0157*
Y-01579*
X-02288Y-01584*
X-02291Y-01587*
X-023Y-0159*
X-02311*
X-0232Y-01587*
X-02322Y-01584*
X-02325Y-01579*
Y-0157*
X-02322Y-01564*
X-02317Y-01559*
X-02308Y-01556*
X-02297Y-01553*
X-02291Y-0155*
X-02288Y-01544*
Y-01539*
X-02291Y-01533*
X-023Y-0153*
X-02311*
X-02238D02*
X-02266D01*
X-02269Y-01556*
X-02266Y-01553*
X-02258Y-0155*
X-02249*
X-0224Y-01553*
X-02235Y-01559*
X-02232Y-01567*
Y-01573*
X-02235Y-01581*
X-0224Y-01587*
X-02249Y-0159*
X-02258*
X-02266Y-01587*
X-02269Y-01584*
X-02272Y-01579*
G54D11*
X-05246Y-01752D02*
X-03056D01*
Y01748*
X-05246D02*
X-03056D01*
X-05246Y-01752D02*
Y01748D01*
Y00368D02*
X-04694D01*
X-0463Y-01664D02*
X-0453D01*
X-04726D02*
X-0463D01*
X-04628Y-01762D02*
Y-01567D01*
X-03212Y-01664D02*
X-03113D01*
X-03309D02*
X-03212D01*
X-03211Y-01762D02*
Y-01567D01*
X-04785Y-0175D02*
X-03055D01*
Y-01552D02*
Y01492D01*
X-05246D02*
X-03055D01*
X-05246Y-01552D02*
X-03055D01*
X-03851Y-00852D02*
D01*
X-03851Y-00848*
X-03851Y-00845*
X-03852Y-00841*
X-03852Y-00838*
X-03854Y-00834*
X-03855Y-00831*
X-03856Y-00828*
X-03858Y-00825*
X-0386Y-00822*
X-03862Y-00819*
X-03865Y-00817*
X-03867Y-00814*
X-0387Y-00812*
X-03873Y-0081*
X-03876Y-00808*
X-03879Y-00807*
X-03882Y-00805*
X-03885Y-00804*
X-03888Y-00803*
X-03892Y-00802*
X-03895Y-00802*
X-03899Y-00802*
X-03901Y-00802*
Y-01552D02*
D01*
X-03897Y-01551*
X-03894Y-01551*
X-0389Y-0155*
X-03887Y-0155*
X-03883Y-01548*
X-0388Y-01547*
X-03877Y-01546*
X-03874Y-01544*
X-03871Y-01542*
X-03868Y-0154*
X-03866Y-01537*
X-03863Y-01535*
X-03861Y-01532*
X-03859Y-01529*
X-03857Y-01527*
X-03856Y-01523*
X-03854Y-0152*
X-03853Y-01517*
X-03852Y-01514*
X-03851Y-0151*
X-03851Y-01507*
X-03851Y-01503*
X-03851Y-01502*
X-04676Y-00802D02*
D01*
X-04679Y-00802*
X-04682Y-00802*
X-04686Y-00803*
X-04689Y-00803*
X-04693Y-00805*
X-04696Y-00806*
X-04699Y-00807*
X-04702Y-00809*
X-04705Y-00811*
X-04708Y-00813*
X-0471Y-00816*
X-04713Y-00818*
X-04715Y-00821*
X-04717Y-00824*
X-04719Y-00827*
X-0472Y-0083*
X-04722Y-00833*
X-04723Y-00836*
X-04724Y-00839*
X-04725Y-00843*
X-04725Y-00846*
X-04725Y-0085*
X-04726Y-00852*
Y-01502D02*
D01*
X-04725Y-01505*
X-04725Y-01508*
X-04724Y-01512*
X-04724Y-01515*
X-04722Y-01519*
X-04721Y-01522*
X-0472Y-01525*
X-04718Y-01528*
X-04716Y-01531*
X-04714Y-01534*
X-04711Y-01536*
X-04709Y-01539*
X-04706Y-01541*
X-04703Y-01543*
X-04701Y-01545*
X-04697Y-01546*
X-04694Y-01548*
X-04691Y-01549*
X-04688Y-0155*
X-04684Y-01551*
X-04681Y-01551*
X-04677Y-01551*
X-04676Y-01552*
X-03056Y-01752D02*
Y01748D01*
X-05246D02*
X-03056D01*
X-03055Y-01552D02*
Y01492D01*
X-03056Y-01752D02*
Y01748D01*
X-05246D02*
X-03056D01*
X-05246Y-01752D02*
X-03056D01*
X-04786D02*
X-03056D01*
Y01553D01*
X-05246Y-01752D02*
Y01748D01*
X-04676Y-01552D02*
X-03901D01*
X-04676Y-00802D02*
X-03901D01*
X-03851Y-01502D02*
Y-00852D01*
X-04726Y-01502D02*
Y-00852D01*
G54D13*
X-03742Y-01213D02*
X-03761Y-01163D01*
X-0378Y-01213*
X-03773Y-01196D02*
X-03749D01*
X-03745Y-01045D02*
X-0375Y-0104D01*
X-03757Y-01038*
X-03767*
X-03774Y-0104*
X-03779Y-01045*
Y-0105*
X-03776Y-01054*
X-03774Y-01057*
X-03769Y-01059*
X-03755Y-01064*
X-0375Y-01066*
X-03748Y-01069*
X-03745Y-01073*
Y-01081*
X-0375Y-01085*
X-03757Y-01088*
X-03767*
X-03774Y-01085*
X-03779Y-01081*
G54D34*
X-03826Y-01002D02*
X-03326D01*
Y-01252D02*
Y-01002D01*
X-03826Y-01252D02*
X-03326D01*
X-03826D02*
Y-01002D01*
X-03701Y-01252D02*
Y-01002D01*
X-03576Y-01252D02*
Y-01002D01*
X-03451Y-01252D02*
Y-01002D01*
X-03326Y-01252D02*
Y-01002D01*
X-03826Y-01127D02*
X-03326D01*
G54D35*
X-04531Y-01664D02*
D01*
X-04531Y-01657*
X-04531Y-0165*
X-04533Y-01643*
X-04534Y-01636*
X-04536Y-0163*
X-04539Y-01624*
X-04542Y-01617*
X-04545Y-01612*
X-04549Y-01606*
X-04553Y-01601*
X-04558Y-01595*
X-04563Y-01591*
X-04568Y-01586*
X-04574Y-01582*
X-0458Y-01579*
X-04586Y-01575*
X-04592Y-01573*
X-04598Y-0157*
X-04605Y-01568*
X-04611Y-01567*
X-04618Y-01566*
X-04625Y-01566*
X-04632*
X-04639Y-01566*
X-04646Y-01567*
X-04652Y-01568*
X-04659Y-0157*
X-04665Y-01573*
X-04671Y-01575*
X-04678Y-01579*
X-04683Y-01582*
X-04689Y-01586*
X-04694Y-01591*
X-04699Y-01595*
X-04704Y-01601*
X-04708Y-01606*
X-04712Y-01612*
X-04715Y-01617*
X-04718Y-01624*
X-04721Y-0163*
X-04723Y-01636*
X-04724Y-01643*
X-04726Y-0165*
X-04726Y-01657*
X-04727Y-01664*
X-04726Y-0167*
X-04726Y-01677*
X-04724Y-01684*
X-04723Y-01691*
X-04721Y-01697*
X-04718Y-01703*
X-04715Y-0171*
X-04712Y-01715*
X-04708Y-01721*
X-04704Y-01726*
X-04699Y-01732*
X-04694Y-01736*
X-04689Y-01741*
X-04683Y-01745*
X-04678Y-01748*
X-04671Y-01752*
X-04665Y-01754*
X-04659Y-01757*
X-04652Y-01759*
X-04646Y-0176*
X-04639Y-01761*
X-04632Y-01761*
X-04625*
X-04618Y-01761*
X-04611Y-0176*
X-04605Y-01759*
X-04598Y-01757*
X-04592Y-01754*
X-04586Y-01752*
X-0458Y-01748*
X-04574Y-01745*
X-04568Y-01741*
X-04563Y-01736*
X-04558Y-01732*
X-04553Y-01726*
X-04549Y-01721*
X-04545Y-01715*
X-04542Y-0171*
X-04539Y-01703*
X-04536Y-01697*
X-04534Y-01691*
X-04533Y-01684*
X-04531Y-01677*
X-04531Y-0167*
X-04531Y-01664*
X-03114D02*
D01*
X-03114Y-01657*
X-03114Y-0165*
X-03116Y-01643*
X-03117Y-01636*
X-03119Y-0163*
X-03122Y-01624*
X-03125Y-01617*
X-03128Y-01612*
X-03132Y-01606*
X-03136Y-01601*
X-03141Y-01595*
X-03146Y-01591*
X-03151Y-01586*
X-03157Y-01582*
X-03163Y-01579*
X-03169Y-01575*
X-03175Y-01573*
X-03181Y-0157*
X-03188Y-01568*
X-03194Y-01567*
X-03201Y-01566*
X-03208Y-01566*
X-03215*
X-03222Y-01566*
X-03229Y-01567*
X-03235Y-01568*
X-03242Y-0157*
X-03248Y-01573*
X-03254Y-01575*
X-03261Y-01579*
X-03266Y-01582*
X-03272Y-01586*
X-03277Y-01591*
X-03282Y-01595*
X-03287Y-01601*
X-03291Y-01606*
X-03295Y-01612*
X-03298Y-01617*
X-03301Y-01624*
X-03304Y-0163*
X-03306Y-01636*
X-03307Y-01643*
X-03309Y-0165*
X-03309Y-01657*
X-0331Y-01664*
X-03309Y-0167*
X-03309Y-01677*
X-03307Y-01684*
X-03306Y-01691*
X-03304Y-01697*
X-03301Y-01703*
X-03298Y-0171*
X-03295Y-01715*
X-03291Y-01721*
X-03287Y-01726*
X-03282Y-01732*
X-03277Y-01736*
X-03272Y-01741*
X-03266Y-01745*
X-03261Y-01748*
X-03254Y-01752*
X-03248Y-01754*
X-03242Y-01757*
X-03235Y-01759*
X-03229Y-0176*
X-03222Y-01761*
X-03215Y-01761*
X-03208*
X-03201Y-01761*
X-03194Y-0176*
X-03188Y-01759*
X-03181Y-01757*
X-03175Y-01754*
X-03169Y-01752*
X-03162Y-01748*
X-03157Y-01745*
X-03151Y-01741*
X-03146Y-01736*
X-03141Y-01732*
X-03136Y-01726*
X-03132Y-01721*
X-03128Y-01715*
X-03125Y-0171*
X-03122Y-01703*
X-03119Y-01697*
X-03117Y-01691*
X-03116Y-01684*
X-03114Y-01677*
X-03114Y-0167*
X-03114Y-01664*
X-05026Y01498D02*
Y01598D01*
X-05126D02*
X-05026D01*
X-05126Y01698D02*
X-03426D01*
Y01498D02*
Y01698D01*
X-05126Y01498D02*
X-03426D01*
X-05126D02*
Y01698D01*
X-03364Y01662D02*
X-03366Y01666D01*
X-03369Y01669*
X-03373Y01671*
X-0338*
X-03383Y01669*
X-03387Y01666*
X-03388Y01662*
X-0339Y01657*
Y01649*
X-03388Y01644*
X-03387Y0164*
X-03383Y01637*
X-0338Y01635*
X-03373*
X-03369Y01637*
X-03366Y0164*
X-03364Y01644*
X-03354Y01671D02*
Y01635D01*
Y01671D02*
X-0333Y01635D01*
Y01671D02*
Y01635D01*
X-0332Y01664D02*
X-03317Y01666D01*
X-03312Y01671*
Y01635*
G54D36*
X-0387Y-01617D02*
X-03857D01*
X-04022D02*
X-03979D01*
X-04063D02*
X-04037D01*
X-04114D02*
X-04088D01*
X-03818Y-01618D02*
X-0378D01*
X-03874D02*
X-03853D01*
X-03949D02*
X-03898D01*
X-04022D02*
X-03974D01*
X-04063D02*
X-04037D01*
X-04114D02*
X-04088D01*
X-03818Y-01619D02*
X-0378D01*
X-03876D02*
X-03851D01*
X-03949D02*
X-03898D01*
X-04022D02*
X-03972D01*
X-04063D02*
X-04037D01*
X-04114D02*
X-04088D01*
X-03819Y-0162D02*
X-0378D01*
X-03878D02*
X-03849D01*
X-03949D02*
X-03898D01*
X-04022D02*
X-0397D01*
X-04063D02*
X-04037D01*
X-04114D02*
X-04088D01*
X-03819Y-01621D02*
X-0378D01*
X-0388D02*
X-03847D01*
X-03949D02*
X-03898D01*
X-04022D02*
X-03969D01*
X-04064D02*
X-04037D01*
X-04114D02*
X-04087D01*
X-03819Y-01622D02*
X-0378D01*
X-03881D02*
X-03846D01*
X-03949D02*
X-03898D01*
X-04022D02*
X-03967D01*
X-04064D02*
X-04037D01*
X-04114D02*
X-04087D01*
X-03819Y-01623D02*
X-0378D01*
X-03882D02*
X-03845D01*
X-03949D02*
X-03898D01*
X-04022D02*
X-03966D01*
X-04064D02*
X-04037D01*
X-04114D02*
X-04087D01*
X-03819Y-01624D02*
X-0378D01*
X-03883D02*
X-03844D01*
X-03949D02*
X-03898D01*
X-04022D02*
X-03965D01*
X-04064D02*
X-04037D01*
X-04114D02*
X-04087D01*
X-0382Y-01625D02*
X-0378D01*
X-03883D02*
X-03844D01*
X-03949D02*
X-03898D01*
X-04022D02*
X-03965D01*
X-04065D02*
X-04037D01*
X-04114D02*
X-04086D01*
X-0382Y-01626D02*
X-0378D01*
X-03884D02*
X-03843D01*
X-03949D02*
X-03898D01*
X-04022D02*
X-03964D01*
X-04065D02*
X-04037D01*
X-04114D02*
X-04086D01*
X-0382Y-01627D02*
X-0378D01*
X-03885D02*
X-03842D01*
X-03949D02*
X-03898D01*
X-04022D02*
X-03963D01*
X-04065D02*
X-04037D01*
X-04114D02*
X-04086D01*
X-0382Y-01628D02*
X-0378D01*
X-03885D02*
X-03842D01*
X-03949D02*
X-03898D01*
X-04022D02*
X-03963D01*
X-04065D02*
X-04037D01*
X-04114D02*
X-04086D01*
X-0382Y-01629D02*
X-0378D01*
X-0386D02*
X-03841D01*
X-03886D02*
X-03867D01*
X-03949D02*
X-03899D01*
X-04022D02*
X-03962D01*
X-04066D02*
X-04037D01*
X-04114D02*
X-04085D01*
X-03821Y-0163D02*
X-0378D01*
X-03858D02*
X-03841D01*
X-03886D02*
X-03869D01*
X-03949D02*
X-03899D01*
X-03983D02*
X-03962D01*
X-04022D02*
X-04007D01*
X-04066D02*
X-04037D01*
X-04114D02*
X-04085D01*
X-03821Y-01631D02*
X-0378D01*
X-03857D02*
X-03841D01*
X-03886D02*
X-0387D01*
X-03949D02*
X-039D01*
X-0398D02*
X-03962D01*
X-04022D02*
X-04007D01*
X-04066D02*
X-04037D01*
X-04114D02*
X-04085D01*
X-03821Y-01632D02*
X-0378D01*
X-03856D02*
X-0384D01*
X-03887D02*
X-03871D01*
X-03949D02*
X-03901D01*
X-03979D02*
X-03961D01*
X-04022D02*
X-04007D01*
X-04066D02*
X-04037D01*
X-04114D02*
X-04085D01*
X-03821Y-01633D02*
X-03806D01*
X-03856D02*
X-0384D01*
X-03887D02*
X-03871D01*
X-03915D02*
X-03902D01*
X-03978D02*
X-03961D01*
X-04022D02*
X-04007D01*
X-04052D02*
X-04037D01*
X-04067D02*
X-04053D01*
X-04098D02*
X-04084D01*
X-04114D02*
X-04099D01*
X-03821Y-01634D02*
X-03806D01*
X-03855D02*
X-0384D01*
X-03887D02*
X-03871D01*
X-03916D02*
X-03903D01*
X-03977D02*
X-03961D01*
X-04022D02*
X-04007D01*
X-04052D02*
X-04037D01*
X-04067D02*
X-04053D01*
X-04098D02*
X-04084D01*
X-04114D02*
X-04099D01*
X-03822Y-01635D02*
X-03807D01*
X-03855D02*
X-0384D01*
X-03887D02*
X-03872D01*
X-03917D02*
X-03904D01*
X-03977D02*
X-03961D01*
X-04022D02*
X-04007D01*
X-04052D02*
X-04037D01*
X-04067D02*
X-04053D01*
X-04098D02*
X-04084D01*
X-04114D02*
X-04099D01*
X-03446Y-01636D02*
X-03435D01*
X-03629D02*
X-03596D01*
X-03822D02*
X-03807D01*
X-03855D02*
X-0384D01*
X-03887D02*
X-03872D01*
X-03918D02*
X-03904D01*
X-03976D02*
X-03961D01*
X-04022D02*
X-04007D01*
X-04052D02*
X-04037D01*
X-04067D02*
X-04053D01*
X-04098D02*
X-04084D01*
X-04114D02*
X-04099D01*
X-03447Y-01637D02*
X-03434D01*
X-03629D02*
X-03591D01*
X-03822D02*
X-03807D01*
X-03855D02*
X-0384D01*
X-03887D02*
X-03872D01*
X-03919D02*
X-03905D01*
X-03976D02*
X-03961D01*
X-04022D02*
X-04007D01*
X-04052D02*
X-04037D01*
X-04068D02*
X-04053D01*
X-04098D02*
X-04083D01*
X-04114D02*
X-04099D01*
X-03447Y-01638D02*
X-03434D01*
X-03629D02*
X-03589D01*
X-03822D02*
X-03807D01*
X-03855D02*
X-0384D01*
X-03887D02*
X-03872D01*
X-03919D02*
X-03906D01*
X-03976D02*
X-03961D01*
X-04022D02*
X-04007D01*
X-04052D02*
X-04037D01*
X-04068D02*
X-04054D01*
X-04097D02*
X-04083D01*
X-04114D02*
X-04099D01*
X-03447Y-01639D02*
X-03434D01*
X-03629D02*
X-03588D01*
X-03822D02*
X-03807D01*
X-03855D02*
X-0384D01*
X-03887D02*
X-03872D01*
X-0392D02*
X-03906D01*
X-03976D02*
X-03961D01*
X-04022D02*
X-04007D01*
X-04052D02*
X-04037D01*
X-04068D02*
X-04054D01*
X-04097D02*
X-04083D01*
X-04114D02*
X-04099D01*
X-03448Y-0164D02*
X-03433D01*
X-03629D02*
X-03587D01*
X-03823D02*
X-03808D01*
X-03855D02*
X-0384D01*
X-03887D02*
X-03872D01*
X-03921D02*
X-03907D01*
X-03976D02*
X-03961D01*
X-04022D02*
X-04007D01*
X-04052D02*
X-04037D01*
X-04068D02*
X-04054D01*
X-04097D02*
X-04083D01*
X-04114D02*
X-04099D01*
X-03448Y-01641D02*
X-03433D01*
X-03629D02*
X-03586D01*
X-03823D02*
X-03808D01*
X-03856D02*
X-03841D01*
X-03886D02*
X-03871D01*
X-03921D02*
X-03908D01*
X-03976D02*
X-03962D01*
X-04022D02*
X-04007D01*
X-04052D02*
X-04037D01*
X-04069D02*
X-04054D01*
X-04097D02*
X-04082D01*
X-04114D02*
X-04099D01*
X-03449Y-01642D02*
X-03433D01*
X-03629D02*
X-03585D01*
X-03823D02*
X-03808D01*
X-03856D02*
X-03841D01*
X-03886D02*
X-03871D01*
X-03922D02*
X-03908D01*
X-03977D02*
X-03962D01*
X-04022D02*
X-04007D01*
X-04052D02*
X-04037D01*
X-04069D02*
X-04055D01*
X-04096D02*
X-04082D01*
X-04114D02*
X-04099D01*
X-03449Y-01643D02*
X-03432D01*
X-03629D02*
X-03584D01*
X-03823D02*
X-03808D01*
X-03856D02*
X-03841D01*
X-03886D02*
X-03871D01*
X-03923D02*
X-03909D01*
X-03977D02*
X-03962D01*
X-04022D02*
X-04007D01*
X-04052D02*
X-04037D01*
X-04069D02*
X-04055D01*
X-04096D02*
X-04082D01*
X-04114D02*
X-04099D01*
X-03449Y-01644D02*
X-03432D01*
X-03629D02*
X-03584D01*
X-03803D02*
X-03795D01*
X-03824D02*
X-03809D01*
X-03857D02*
X-03842D01*
X-03885D02*
X-0387D01*
X-03923D02*
X-0391D01*
X-03978D02*
X-03963D01*
X-04022D02*
X-04007D01*
X-04052D02*
X-04037D01*
X-04069D02*
X-04055D01*
X-04096D02*
X-04082D01*
X-04114D02*
X-04099D01*
X-0345Y-01645D02*
X-03431D01*
X-03629D02*
X-03583D01*
X-03806D02*
X-03791D01*
X-03824D02*
X-03809D01*
X-03858D02*
X-03842D01*
X-03885D02*
X-03869D01*
X-03924D02*
X-0391D01*
X-03979D02*
X-03963D01*
X-04022D02*
X-04007D01*
X-04052D02*
X-04037D01*
X-0407D02*
X-04055D01*
X-04096D02*
X-04081D01*
X-04114D02*
X-04099D01*
X-0345Y-01646D02*
X-03431D01*
X-03598D02*
X-03583D01*
X-03629D02*
X-03618D01*
X-03808D02*
X-03789D01*
X-03824D02*
X-03809D01*
X-0386D02*
X-03843D01*
X-03884D02*
X-03867D01*
X-03925D02*
X-03911D01*
X-03981D02*
X-03964D01*
X-04022D02*
X-04007D01*
X-04052D02*
X-04037D01*
X-0407D02*
X-04056D01*
X-04095D02*
X-04081D01*
X-04114D02*
X-04099D01*
X-0345Y-01647D02*
X-03431D01*
X-03596D02*
X-03583D01*
X-03629D02*
X-03618D01*
X-03824D02*
X-03788D01*
X-03883D02*
X-03844D01*
X-03925D02*
X-03911D01*
X-03983D02*
X-03964D01*
X-04022D02*
X-04007D01*
X-04052D02*
X-04037D01*
X-0407D02*
X-04056D01*
X-04095D02*
X-04081D01*
X-04114D02*
X-04099D01*
X-03451Y-01648D02*
X-0343D01*
X-03594D02*
X-03582D01*
X-03629D02*
X-03618D01*
X-03824D02*
X-03786D01*
X-03882D02*
X-03845D01*
X-03926D02*
X-03912D01*
X-04022D02*
X-03965D01*
X-04052D02*
X-04037D01*
X-0407D02*
X-04056D01*
X-04095D02*
X-04081D01*
X-04114D02*
X-04099D01*
X-03451Y-01649D02*
X-0343D01*
X-03594D02*
X-03582D01*
X-03629D02*
X-03618D01*
X-03825D02*
X-03785D01*
X-03881D02*
X-03846D01*
X-03926D02*
X-03912D01*
X-04022D02*
X-03966D01*
X-04052D02*
X-04037D01*
X-04071D02*
X-04056D01*
X-04095D02*
X-0408D01*
X-04114D02*
X-04099D01*
X-0344Y-0165D02*
X-0343D01*
X-03452D02*
X-03441D01*
X-03593D02*
X-03582D01*
X-03629D02*
X-03618D01*
X-03825D02*
X-03784D01*
X-0388D02*
X-03847D01*
X-03927D02*
X-03913D01*
X-04022D02*
X-03967D01*
X-04052D02*
X-04037D01*
X-04071D02*
X-04057D01*
X-04094D02*
X-0408D01*
X-04114D02*
X-04099D01*
X-0344Y-01651D02*
X-03429D01*
X-03452D02*
X-03441D01*
X-03559D02*
X-0355D01*
X-03593D02*
X-03582D01*
X-03629D02*
X-03618D01*
X-03825D02*
X-03783D01*
X-03878D02*
X-03849D01*
X-03927D02*
X-03913D01*
X-04022D02*
X-03968D01*
X-04052D02*
X-04037D01*
X-04071D02*
X-04057D01*
X-04094D02*
X-0408D01*
X-04114D02*
X-04099D01*
X-0344Y-01652D02*
X-03429D01*
X-03452D02*
X-03441D01*
X-03502D02*
X-03491D01*
X-03532D02*
X-03521D01*
X-03562D02*
X-03547D01*
X-03593D02*
X-03582D01*
X-03629D02*
X-03618D01*
X-03825D02*
X-03782D01*
X-03876D02*
X-03851D01*
X-03928D02*
X-03914D01*
X-04022D02*
X-0397D01*
X-04052D02*
X-04037D01*
X-04071D02*
X-04057D01*
X-04094D02*
X-0408D01*
X-04114D02*
X-04099D01*
X-03439Y-01653D02*
X-03428D01*
X-03453D02*
X-03442D01*
X-03502D02*
X-03491D01*
X-03532D02*
X-03521D01*
X-03564D02*
X-03545D01*
X-03593D02*
X-03582D01*
X-03629D02*
X-03618D01*
X-03825D02*
X-03781D01*
X-03878D02*
X-03849D01*
X-03928D02*
X-03914D01*
X-04022D02*
X-03971D01*
X-04052D02*
X-04037D01*
X-04072D02*
X-04057D01*
X-04094D02*
X-04079D01*
X-04114D02*
X-04099D01*
X-03439Y-01654D02*
X-03428D01*
X-03453D02*
X-03442D01*
X-03502D02*
X-03491D01*
X-03532D02*
X-03521D01*
X-03566D02*
X-03543D01*
X-03593D02*
X-03582D01*
X-03629D02*
X-03618D01*
X-03826D02*
X-03781D01*
X-0388D02*
X-03847D01*
X-03929D02*
X-03915D01*
X-04022D02*
X-03969D01*
X-04052D02*
X-04037D01*
X-04072D02*
X-04058D01*
X-04093D02*
X-04079D01*
X-04114D02*
X-04099D01*
X-03439Y-01655D02*
X-03428D01*
X-03453D02*
X-03442D01*
X-03503D02*
X-03492D01*
X-03531D02*
X-0352D01*
X-03567D02*
X-03542D01*
X-03593D02*
X-03582D01*
X-03629D02*
X-03618D01*
X-03826D02*
X-0378D01*
X-03881D02*
X-03846D01*
X-03929D02*
X-03915D01*
X-04022D02*
X-03967D01*
X-04052D02*
X-04037D01*
X-04072D02*
X-04058D01*
X-04093D02*
X-04079D01*
X-04114D02*
X-04099D01*
X-03438Y-01656D02*
X-03427D01*
X-03454D02*
X-03443D01*
X-03503D02*
X-03492D01*
X-03531D02*
X-0352D01*
X-03568D02*
X-03541D01*
X-03594D02*
X-03582D01*
X-03629D02*
X-03618D01*
X-03826D02*
X-0378D01*
X-03882D02*
X-03845D01*
X-0393D02*
X-03916D01*
X-04022D02*
X-03965D01*
X-04052D02*
X-04037D01*
X-04072D02*
X-04058D01*
X-04093D02*
X-04079D01*
X-04114D02*
X-04099D01*
X-03438Y-01657D02*
X-03427D01*
X-03454D02*
X-03443D01*
X-03503D02*
X-03493D01*
X-0353D02*
X-0352D01*
X-03569D02*
X-0354D01*
X-03595D02*
X-03583D01*
X-03629D02*
X-03618D01*
X-03799D02*
X-03779D01*
X-03826D02*
X-03806D01*
X-03883D02*
X-03844D01*
X-0393D02*
X-03916D01*
X-04022D02*
X-03964D01*
X-04052D02*
X-04037D01*
X-04073D02*
X-04058D01*
X-04093D02*
X-04078D01*
X-04114D02*
X-04099D01*
X-03437Y-01658D02*
X-03426D01*
X-03455D02*
X-03444D01*
X-03504D02*
X-03493D01*
X-0353D02*
X-03519D01*
X-0357D02*
X-03539D01*
X-03596D02*
X-03583D01*
X-03629D02*
X-03618D01*
X-03797D02*
X-03779D01*
X-03826D02*
X-03809D01*
X-03884D02*
X-03843D01*
X-03931D02*
X-03917D01*
X-04022D02*
X-03963D01*
X-04052D02*
X-04037D01*
X-04073D02*
X-04059D01*
X-04092D02*
X-04078D01*
X-04114D02*
X-04099D01*
X-03437Y-01659D02*
X-03426D01*
X-03455D02*
X-03444D01*
X-03504D02*
X-03493D01*
X-0353D02*
X-03519D01*
X-03552D02*
X-03538D01*
X-03571D02*
X-03557D01*
X-03599D02*
X-03583D01*
X-03629D02*
X-03618D01*
X-03796D02*
X-03778D01*
X-03827D02*
X-0381D01*
X-0386D02*
X-03842D01*
X-03885D02*
X-03867D01*
X-03931D02*
X-03917D01*
X-04022D02*
X-03962D01*
X-04052D02*
X-04037D01*
X-04073D02*
X-04059D01*
X-04092D02*
X-04078D01*
X-04114D02*
X-04099D01*
X-03437Y-0166D02*
X-03426D01*
X-03455D02*
X-03444D01*
X-03505D02*
X-03494D01*
X-03529D02*
X-03518D01*
X-0355D02*
X-03538D01*
X-03571D02*
X-03559D01*
X-03629D02*
X-03584D01*
X-03795D02*
X-03778D01*
X-03827D02*
X-03812D01*
X-03858D02*
X-03841D01*
X-03886D02*
X-03869D01*
X-03932D02*
X-03917D01*
X-04022D02*
X-03961D01*
X-04052D02*
X-04037D01*
X-04073D02*
X-04059D01*
X-04092D02*
X-04078D01*
X-04114D02*
X-04099D01*
X-03436Y-01661D02*
X-03425D01*
X-03456D02*
X-03445D01*
X-03505D02*
X-03494D01*
X-03529D02*
X-03518D01*
X-03549D02*
X-03537D01*
X-03572D02*
X-0356D01*
X-03629D02*
X-03584D01*
X-03794D02*
X-03778D01*
X-03825D02*
X-03813D01*
X-03857D02*
X-0384D01*
X-03886D02*
X-0387D01*
X-03932D02*
X-03918D01*
X-03983D02*
X-03961D01*
X-04022D02*
X-04007D01*
X-04052D02*
X-04037D01*
X-04073D02*
X-04059D01*
X-04092D02*
X-04078D01*
X-04114D02*
X-04099D01*
X-03436Y-01662D02*
X-03425D01*
X-03456D02*
X-03445D01*
X-03505D02*
X-03495D01*
X-03528D02*
X-03518D01*
X-03548D02*
X-03537D01*
X-03572D02*
X-03561D01*
X-03629D02*
X-03585D01*
X-03793D02*
X-03778D01*
X-03818D02*
X-03814D01*
X-03856D02*
X-0384D01*
X-03887D02*
X-03871D01*
X-03932D02*
X-03918D01*
X-03979D02*
X-0396D01*
X-04022D02*
X-04007D01*
X-04052D02*
X-04037D01*
X-04074D02*
X-0406D01*
X-04091D02*
X-04077D01*
X-04114D02*
X-04099D01*
X-03436Y-01663D02*
X-03425D01*
X-03456D02*
X-03445D01*
X-03506D02*
X-03495D01*
X-03528D02*
X-03517D01*
X-03547D02*
X-03537D01*
X-03572D02*
X-03562D01*
X-03629D02*
X-03586D01*
X-03793D02*
X-03777D01*
X-03855D02*
X-03839D01*
X-03887D02*
X-03872D01*
X-03933D02*
X-03918D01*
X-03977D02*
X-0396D01*
X-04022D02*
X-04007D01*
X-04052D02*
X-04037D01*
X-04074D02*
X-0406D01*
X-04091D02*
X-04077D01*
X-04114D02*
X-04099D01*
X-03435Y-01664D02*
X-03424D01*
X-03457D02*
X-03446D01*
X-03506D02*
X-03495D01*
X-03528D02*
X-03517D01*
X-03547D02*
X-03536D01*
X-03573D02*
X-03562D01*
X-03629D02*
X-03587D01*
X-03793D02*
X-03777D01*
X-03854D02*
X-03839D01*
X-03888D02*
X-03873D01*
X-03933D02*
X-03919D01*
X-03976D02*
X-03959D01*
X-04022D02*
X-04007D01*
X-04052D02*
X-04037D01*
X-04074D02*
X-0406D01*
X-04091D02*
X-04077D01*
X-04114D02*
X-04099D01*
X-03435Y-01665D02*
X-03424D01*
X-03457D02*
X-03446D01*
X-03506D02*
X-03496D01*
X-03527D02*
X-03517D01*
X-03546D02*
X-03536D01*
X-03573D02*
X-03562D01*
X-03629D02*
X-03588D01*
X-03792D02*
X-03777D01*
X-03854D02*
X-03839D01*
X-03888D02*
X-03873D01*
X-03933D02*
X-03919D01*
X-03975D02*
X-03959D01*
X-04022D02*
X-04007D01*
X-04052D02*
X-04037D01*
X-04074D02*
X-0406D01*
X-04091D02*
X-04077D01*
X-04114D02*
X-04099D01*
X-03435Y-01666D02*
X-03423D01*
X-03458D02*
X-03446D01*
X-03507D02*
X-03496D01*
X-03527D02*
X-03516D01*
X-03546D02*
X-03536D01*
X-03573D02*
X-03563D01*
X-03629D02*
X-0359D01*
X-03792D02*
X-03777D01*
X-03854D02*
X-03839D01*
X-03888D02*
X-03873D01*
X-03934D02*
X-03919D01*
X-03974D02*
X-03959D01*
X-04022D02*
X-04007D01*
X-04052D02*
X-04037D01*
X-04075D02*
X-0406D01*
X-04091D02*
X-04076D01*
X-04114D02*
X-04099D01*
X-03434Y-01667D02*
X-03423D01*
X-03458D02*
X-03447D01*
X-03507D02*
X-03496D01*
X-03526D02*
X-03516D01*
X-03546D02*
X-03536D01*
X-03574D02*
X-03563D01*
X-03629D02*
X-03592D01*
X-03792D02*
X-03777D01*
X-03853D02*
X-03838D01*
X-03889D02*
X-03874D01*
X-03934D02*
X-0392D01*
X-03974D02*
X-03958D01*
X-04022D02*
X-04007D01*
X-04052D02*
X-04037D01*
X-04075D02*
X-04061D01*
X-0409D02*
X-04076D01*
X-04114D02*
X-04099D01*
X-03434Y-01668D02*
X-03423D01*
X-03458D02*
X-03447D01*
X-03507D02*
X-03497D01*
X-03526D02*
X-03516D01*
X-03546D02*
X-03535D01*
X-03574D02*
X-03563D01*
X-03629D02*
X-03596D01*
X-03792D02*
X-03777D01*
X-03853D02*
X-03838D01*
X-03889D02*
X-03874D01*
X-03935D02*
X-0392D01*
X-03973D02*
X-03958D01*
X-04022D02*
X-04007D01*
X-04052D02*
X-04037D01*
X-04075D02*
X-04061D01*
X-0409D02*
X-04076D01*
X-04114D02*
X-04099D01*
X-03433Y-01669D02*
X-03422D01*
X-03459D02*
X-03447D01*
X-03508D02*
X-03497D01*
X-03526D02*
X-03515D01*
X-03574D02*
X-03535D01*
X-03629D02*
X-03595D01*
X-03792D02*
X-03777D01*
X-03853D02*
X-03838D01*
X-03889D02*
X-03874D01*
X-03935D02*
X-0392D01*
X-03973D02*
X-03958D01*
X-04022D02*
X-04007D01*
X-04052D02*
X-04037D01*
X-04075D02*
X-04061D01*
X-0409D02*
X-04076D01*
X-04114D02*
X-04099D01*
X-03433Y-0167D02*
X-03422D01*
X-03459D02*
X-03448D01*
X-03508D02*
X-03498D01*
X-03525D02*
X-03515D01*
X-03574D02*
X-03535D01*
X-03609D02*
X-03593D01*
X-03629D02*
X-03618D01*
X-03792D02*
X-03777D01*
X-0382D02*
X-03816D01*
X-03853D02*
X-03838D01*
X-03889D02*
X-03874D01*
X-03935D02*
X-03921D01*
X-03973D02*
X-03958D01*
X-04022D02*
X-04007D01*
X-04052D02*
X-04037D01*
X-0409D02*
X-04061D01*
X-04114D02*
X-04099D01*
X-0346Y-01671D02*
X-03422D01*
X-03509D02*
X-03498D01*
X-03525D02*
X-03514D01*
X-03574D02*
X-03535D01*
X-03607D02*
X-03592D01*
X-03629D02*
X-03618D01*
X-03792D02*
X-03777D01*
X-03828D02*
X-03816D01*
X-03853D02*
X-03838D01*
X-03889D02*
X-03874D01*
X-03935D02*
X-03921D01*
X-03973D02*
X-03958D01*
X-04022D02*
X-04007D01*
X-04052D02*
X-04037D01*
X-04089D02*
X-04062D01*
X-04114D02*
X-04099D01*
X-0346Y-01672D02*
X-03421D01*
X-03509D02*
X-03498D01*
X-03525D02*
X-03514D01*
X-03574D02*
X-03535D01*
X-03606D02*
X-03591D01*
X-03629D02*
X-03618D01*
X-03792D02*
X-03777D01*
X-03829D02*
X-03816D01*
X-03853D02*
X-03838D01*
X-03889D02*
X-03874D01*
X-03936D02*
X-03921D01*
X-03973D02*
X-03958D01*
X-04022D02*
X-04007D01*
X-04052D02*
X-04037D01*
X-04089D02*
X-04062D01*
X-04114D02*
X-04099D01*
X-0346Y-01673D02*
X-03421D01*
X-03509D02*
X-03499D01*
X-03524D02*
X-03514D01*
X-03574D02*
X-03535D01*
X-03604D02*
X-0359D01*
X-03629D02*
X-03618D01*
X-03792D02*
X-03777D01*
X-03829D02*
X-03815D01*
X-03853D02*
X-03838D01*
X-03889D02*
X-03874D01*
X-03936D02*
X-03921D01*
X-03973D02*
X-03958D01*
X-04022D02*
X-04007D01*
X-04052D02*
X-04037D01*
X-04089D02*
X-04062D01*
X-04114D02*
X-04099D01*
X-03461Y-01674D02*
X-0342D01*
X-0351D02*
X-03499D01*
X-03524D02*
X-03513D01*
X-03574D02*
X-03535D01*
X-03604D02*
X-03589D01*
X-03629D02*
X-03618D01*
X-03793D02*
X-03778D01*
X-03829D02*
X-03815D01*
X-03853D02*
X-03838D01*
X-03889D02*
X-03874D01*
X-03936D02*
X-03922D01*
X-03973D02*
X-03958D01*
X-04022D02*
X-04007D01*
X-04052D02*
X-04037D01*
X-04089D02*
X-04062D01*
X-04114D02*
X-04099D01*
X-03461Y-01675D02*
X-0342D01*
X-0351D02*
X-03499D01*
X-03523D02*
X-03513D01*
X-03574D02*
X-03535D01*
X-03603D02*
X-03589D01*
X-03629D02*
X-03618D01*
X-03793D02*
X-03778D01*
X-03828D02*
X-03814D01*
X-03854D02*
X-03838D01*
X-03889D02*
X-03873D01*
X-03936D02*
X-03922D01*
X-03974D02*
X-03958D01*
X-04022D02*
X-04007D01*
X-04052D02*
X-04037D01*
X-04088D02*
X-04063D01*
X-04114D02*
X-04099D01*
X-03461Y-01676D02*
X-0342D01*
X-0351D02*
X-035D01*
X-03523D02*
X-03513D01*
X-03574D02*
X-03563D01*
X-03602D02*
X-03588D01*
X-03629D02*
X-03618D01*
X-03794D02*
X-03778D01*
X-03828D02*
X-03814D01*
X-03854D02*
X-03838D01*
X-03889D02*
X-03873D01*
X-03937D02*
X-03922D01*
X-03974D02*
X-03958D01*
X-04022D02*
X-04007D01*
X-04052D02*
X-04037D01*
X-04088D02*
X-04063D01*
X-04114D02*
X-04099D01*
X-03462Y-01677D02*
X-03419D01*
X-03511D02*
X-035D01*
X-03523D02*
X-03512D01*
X-03574D02*
X-03563D01*
X-03601D02*
X-03587D01*
X-03629D02*
X-03618D01*
X-03794D02*
X-03778D01*
X-03828D02*
X-03813D01*
X-03854D02*
X-03839D01*
X-03888D02*
X-03872D01*
X-03937D02*
X-03922D01*
X-03975D02*
X-03959D01*
X-04022D02*
X-04007D01*
X-04052D02*
X-04037D01*
X-04088D02*
X-04063D01*
X-04114D02*
X-04099D01*
X-03462Y-01678D02*
X-03419D01*
X-03511D02*
X-03501D01*
X-03522D02*
X-03512D01*
X-03574D02*
X-03563D01*
X-036D02*
X-03587D01*
X-03629D02*
X-03618D01*
X-03795D02*
X-03779D01*
X-03827D02*
X-03812D01*
X-03855D02*
X-03839D01*
X-03888D02*
X-03872D01*
X-03937D02*
X-03922D01*
X-03976D02*
X-03959D01*
X-04022D02*
X-04007D01*
X-04052D02*
X-04037D01*
X-04088D02*
X-04063D01*
X-04114D02*
X-04099D01*
X-03463Y-01679D02*
X-03419D01*
X-03511D02*
X-03501D01*
X-03522D02*
X-03512D01*
X-03573D02*
X-03563D01*
X-03599D02*
X-03586D01*
X-03629D02*
X-03618D01*
X-03796D02*
X-03779D01*
X-03827D02*
X-03811D01*
X-03856D02*
X-03839D01*
X-03888D02*
X-03871D01*
X-03937D02*
X-03923D01*
X-03978D02*
X-03959D01*
X-04022D02*
X-04007D01*
X-04052D02*
X-04037D01*
X-04087D02*
X-04064D01*
X-04114D02*
X-04099D01*
X-03463Y-0168D02*
X-03418D01*
X-03511D02*
X-03501D01*
X-03521D02*
X-03512D01*
X-03573D02*
X-03562D01*
X-03599D02*
X-03585D01*
X-03629D02*
X-03618D01*
X-03798D02*
X-0378D01*
X-03827D02*
X-0381D01*
X-03857D02*
X-0384D01*
X-03888D02*
X-0387D01*
X-03938D02*
X-03923D01*
X-03981D02*
X-0396D01*
X-04022D02*
X-04007D01*
X-04052D02*
X-04037D01*
X-04087D02*
X-04064D01*
X-04114D02*
X-04099D01*
X-03429Y-01681D02*
X-03418D01*
X-03463D02*
X-03452D01*
X-03521D02*
X-03502D01*
X-03547D02*
X-03541D01*
X-03573D02*
X-03562D01*
X-03598D02*
X-03585D01*
X-03629D02*
X-03618D01*
X-038D02*
X-0378D01*
X-03826D02*
X-03807D01*
X-03858D02*
X-0384D01*
X-03887D02*
X-03869D01*
X-03938D02*
X-03923D01*
X-04022D02*
X-0396D01*
X-04052D02*
X-04037D01*
X-04087D02*
X-04064D01*
X-04114D02*
X-04099D01*
X-03429Y-01682D02*
X-03417D01*
X-03464D02*
X-03452D01*
X-03521D02*
X-03502D01*
X-03548D02*
X-03536D01*
X-03573D02*
X-03561D01*
X-03597D02*
X-03584D01*
X-03629D02*
X-03618D01*
X-03826D02*
X-03781D01*
X-0386D02*
X-0384D01*
X-03887D02*
X-03867D01*
X-03938D02*
X-03923D01*
X-04022D02*
X-03961D01*
X-04052D02*
X-04037D01*
X-04087D02*
X-04064D01*
X-04114D02*
X-04099D01*
X-03428Y-01683D02*
X-03417D01*
X-03464D02*
X-03453D01*
X-03484D02*
X-03473D01*
X-0352D02*
X-03503D01*
X-03548D02*
X-03537D01*
X-03572D02*
X-03561D01*
X-03597D02*
X-03584D01*
X-03629D02*
X-03618D01*
X-03825D02*
X-03781D01*
X-03886D02*
X-03841D01*
X-03938D02*
X-03923D01*
X-04022D02*
X-03961D01*
X-04052D02*
X-04037D01*
X-04086D02*
X-04065D01*
X-04114D02*
X-04099D01*
X-03428Y-01684D02*
X-03417D01*
X-03464D02*
X-03453D01*
X-03484D02*
X-03473D01*
X-0352D02*
X-03503D01*
X-03549D02*
X-03537D01*
X-03572D02*
X-0356D01*
X-03596D02*
X-03583D01*
X-03629D02*
X-03618D01*
X-03825D02*
X-03782D01*
X-03885D02*
X-03842D01*
X-03938D02*
X-03923D01*
X-04022D02*
X-03962D01*
X-04052D02*
X-04037D01*
X-04086D02*
X-04065D01*
X-04114D02*
X-04099D01*
X-03428Y-01685D02*
X-03416D01*
X-03465D02*
X-03453D01*
X-03484D02*
X-03473D01*
X-0352D02*
X-03503D01*
X-0355D02*
X-03537D01*
X-03571D02*
X-03559D01*
X-03595D02*
X-03582D01*
X-03629D02*
X-03618D01*
X-03824D02*
X-03783D01*
X-03885D02*
X-03842D01*
X-03938D02*
X-03924D01*
X-04022D02*
X-03963D01*
X-04052D02*
X-04037D01*
X-04086D02*
X-04065D01*
X-04114D02*
X-04099D01*
X-03427Y-01686D02*
X-03416D01*
X-03465D02*
X-03454D01*
X-03484D02*
X-03473D01*
X-03519D02*
X-03504D01*
X-03551D02*
X-03538D01*
X-03571D02*
X-03557D01*
X-03595D02*
X-03582D01*
X-03629D02*
X-03618D01*
X-03823D02*
X-03784D01*
X-03884D02*
X-03843D01*
X-03938D02*
X-03924D01*
X-04022D02*
X-03963D01*
X-04052D02*
X-04037D01*
X-04086D02*
X-04065D01*
X-04114D02*
X-04099D01*
X-03427Y-01687D02*
X-03415D01*
X-03466D02*
X-03454D01*
X-03484D02*
X-03473D01*
X-03519D02*
X-03504D01*
X-0357D02*
X-03539D01*
X-03594D02*
X-03581D01*
X-03629D02*
X-03618D01*
X-03822D02*
X-03785D01*
X-03883D02*
X-03844D01*
X-03939D02*
X-03924D01*
X-04022D02*
X-03964D01*
X-04052D02*
X-04037D01*
X-04085D02*
X-04066D01*
X-04114D02*
X-04099D01*
X-03427Y-01688D02*
X-03415D01*
X-03466D02*
X-03454D01*
X-03484D02*
X-03473D01*
X-03518D02*
X-03504D01*
X-03569D02*
X-03539D01*
X-03593D02*
X-03581D01*
X-03629D02*
X-03618D01*
X-03821D02*
X-03786D01*
X-03882D02*
X-03845D01*
X-03939D02*
X-03924D01*
X-04022D02*
X-03965D01*
X-04052D02*
X-04037D01*
X-04085D02*
X-04066D01*
X-04114D02*
X-04099D01*
X-03426Y-01689D02*
X-03415D01*
X-03466D02*
X-03455D01*
X-03484D02*
X-03473D01*
X-03518D02*
X-03505D01*
X-03569D02*
X-0354D01*
X-03593D02*
X-0358D01*
X-03629D02*
X-03618D01*
X-0382D02*
X-03787D01*
X-03881D02*
X-03846D01*
X-03939D02*
X-03924D01*
X-04022D02*
X-03967D01*
X-04052D02*
X-04037D01*
X-04085D02*
X-04066D01*
X-04114D02*
X-04099D01*
X-03426Y-0169D02*
X-03414D01*
X-03467D02*
X-03455D01*
X-03484D02*
X-03473D01*
X-03518D02*
X-03505D01*
X-03568D02*
X-03541D01*
X-03592D02*
X-03579D01*
X-03629D02*
X-03618D01*
X-03819D02*
X-03788D01*
X-03879D02*
X-03847D01*
X-03939D02*
X-03924D01*
X-04022D02*
X-03968D01*
X-04052D02*
X-04037D01*
X-04085D02*
X-04066D01*
X-04114D02*
X-04099D01*
X-03426Y-01691D02*
X-03414D01*
X-03467D02*
X-03455D01*
X-03484D02*
X-03473D01*
X-03517D02*
X-03506D01*
X-03566D02*
X-03542D01*
X-03591D02*
X-03579D01*
X-03629D02*
X-03618D01*
X-03817D02*
X-0379D01*
X-03878D02*
X-03849D01*
X-03939D02*
X-03924D01*
X-04022D02*
X-0397D01*
X-04052D02*
X-04037D01*
X-04084D02*
X-04067D01*
X-04114D02*
X-04099D01*
X-03425Y-01692D02*
X-03414D01*
X-03467D02*
X-03456D01*
X-03484D02*
X-03473D01*
X-03517D02*
X-03506D01*
X-03565D02*
X-03544D01*
X-03591D02*
X-03578D01*
X-03629D02*
X-03618D01*
X-03815D02*
X-03791D01*
X-03876D02*
X-03851D01*
X-03939D02*
X-03924D01*
X-04022D02*
X-03972D01*
X-04052D02*
X-04037D01*
X-04084D02*
X-04067D01*
X-04114D02*
X-04099D01*
X-03425Y-01693D02*
X-03413D01*
X-03468D02*
X-03456D01*
X-03484D02*
X-03473D01*
X-03516D02*
X-03506D01*
X-03563D02*
X-03546D01*
X-0359D02*
X-03577D01*
X-03629D02*
X-03618D01*
X-03813D02*
X-03794D01*
X-03873D02*
X-03853D01*
X-03939D02*
X-03924D01*
X-04022D02*
X-03978D01*
X-04052D02*
X-04037D01*
X-04084D02*
X-04067D01*
X-04114D02*
X-04099D01*
X-03559Y-01694D02*
X-03549D01*
X-03809D02*
X-03798D01*
X-03869D02*
X-03857D01*
M02*