  0
SECTION
  2
HEADER
  9
$EXTMIN
 10
-0.109000
 20
-0.180000
  9
$EXTMAX
 10
5.114000
 20
1.595000
  9
$LIMMIN
 10
-0.109000
 20
-0.180000
  9
$LIMMAX
 10
5.114000
 20
1.595000
  9
$FILLMODE
 70
  1
  0
ENDSEC
  0
SECTION
  2
TABLES
  0
TABLE
  2
LTYPE
 70
  1
  0
LTYPE
  2
CONTINUOUS
 70
 64
  3
Solid line
 72
 65
 73
  0
 40
0.0
  0
ENDTAB
  0
TABLE
  2
LAYER
 70
 1
  0
LAYER
  2
0
 70
  0
 62
7
  6
CONTINUOUS
  0
LAYER
  2
mb694
 70
  0
 62
4
  6
CONTINUOUS
  0
LAYER
  2
mb694
 70
  0
 62
1
  6
CONTINUOUS
  0
ENDTAB
  0
TABLE
  2
STYLE
 70
  1
  0
STYLE
  2
STANDARD
 70
  0
 40
0.0
 41
1.0
 50
0.0
 71
  0
 42
0.2
  3
txt
  4

  0
ENDTAB
  0
ENDSEC
  0
SECTION
  2
BLOCKS
  0
BLOCK
  8
0
  2
D10
 70
64
 10
0.0
 20
0.0
  3
D10
  0
CIRCLE
  8
0
 10
0.000000
 20
0.000000
 40
0.005000
 0
ENDBLK
  8
0
  0
BLOCK
  8
0
  2
D11
 70
64
 10
0.0
 20
0.0
  3
D11
  0
CIRCLE
  8
0
 10
0.000000
 20
0.000000
 40
0.003500
 0
ENDBLK
  8
0
  0
BLOCK
  8
0
  2
D12
 70
64
 10
0.0
 20
0.0
  3
D12
  0
CIRCLE
  8
0
 10
0.000000
 20
0.000000
 40
0.006000
 0
ENDBLK
  8
0
  0
BLOCK
  8
0
  2
D13
 70
64
 10
0.0
 20
0.0
  3
D13
  0
CIRCLE
  8
0
 10
0.000000
 20
0.000000
 40
0.002500
 0
ENDBLK
  8
0
  0
BLOCK
  8
0
  2
D14
 70
64
 10
0.0
 20
0.0
  3
D14
  0
CIRCLE
  8
0
 10
0.000000
 20
0.000000
 40
0.004000
 0
ENDBLK
  8
0
  0
BLOCK
  8
0
  2
D15
 70
64
 10
0.0
 20
0.0
  3
D15
  0
CIRCLE
  8
0
 10
0.000000
 20
0.000000
 40
0.030000
 0
ENDBLK
  8
0
  0
BLOCK
  8
0
  2
D16
 70
64
 10
0.0
 20
0.0
  3
D16
  0
CIRCLE
  8
0
 10
0.000000
 20
0.000000
 40
0.063000
 0
ENDBLK
  8
0
  0
BLOCK
  8
0
  2
D17
 70
64
 10
0.0
 20
0.0
  3
D17
  0
CIRCLE
  8
0
 10
0.000000
 20
0.000000
 40
0.008000
 0
ENDBLK
  8
0
  0
BLOCK
  8
0
  2
D18
 70
64
 10
0.0
 20
0.0
  3
D18
  0
POLYLINE
  8
0
 66
1
 10
0.0
 20
0.0
 70
1
 40
0.0
 41
0.0
  0
VERTEX
  8
0
 10
-0.030000
 20
-0.025000
  0
VERTEX
  8
0
 10
0.030000
 20
-0.025000
  0
VERTEX
  8
0
 10
0.030000
 20
0.025000
  0
VERTEX
  8
0
 10
-0.030000
 20
0.025000
  0
SEQEND
  8
0
 0
ENDBLK
  8
0
  0
BLOCK
  8
0
  2
D19
 70
64
 10
0.0
 20
0.0
  3
D19
  0
POLYLINE
  8
0
 66
1
 10
0.0
 20
0.0
 70
1
 40
0.0
 41
0.0
  0
VERTEX
  8
0
 10
-0.025000
 20
-0.030000
  0
VERTEX
  8
0
 10
0.025000
 20
-0.030000
  0
VERTEX
  8
0
 10
0.025000
 20
0.030000
  0
VERTEX
  8
0
 10
-0.025000
 20
0.030000
  0
SEQEND
  8
0
 0
ENDBLK
  8
0
  0
BLOCK
  8
0
  2
D20
 70
64
 10
0.0
 20
0.0
  3
D20
  0
POLYLINE
  8
0
 66
1
 10
0.0
 20
0.0
 70
1
 40
0.0
 41
0.0
  0
VERTEX
  8
0
 10
-0.025000
 20
-0.015000
  0
VERTEX
  8
0
 10
0.025000
 20
-0.015000
  0
VERTEX
  8
0
 10
0.025000
 20
0.015000
  0
VERTEX
  8
0
 10
-0.025000
 20
0.015000
  0
SEQEND
  8
0
 0
ENDBLK
  8
0
  0
BLOCK
  8
0
  2
D21
 70
64
 10
0.0
 20
0.0
  3
D21
  0
POLYLINE
  8
0
 66
1
 10
0.0
 20
0.0
 70
1
 40
0.0
 41
0.0
  0
VERTEX
  8
0
 10
-0.039500
 20
-0.052500
  0
VERTEX
  8
0
 10
0.039500
 20
-0.052500
  0
VERTEX
  8
0
 10
0.039500
 20
0.052500
  0
VERTEX
  8
0
 10
-0.039500
 20
0.052500
  0
SEQEND
  8
0
 0
ENDBLK
  8
0
  0
BLOCK
  8
0
  2
D22
 70
64
 10
0.0
 20
0.0
  3
D22
  0
POLYLINE
  8
0
 66
1
 10
0.0
 20
0.0
 70
1
 40
0.0
 41
0.0
  0
VERTEX
  8
0
 10
-0.017500
 20
-0.008000
  0
VERTEX
  8
0
 10
0.017500
 20
-0.008000
  0
VERTEX
  8
0
 10
0.017500
 20
0.008000
  0
VERTEX
  8
0
 10
-0.017500
 20
0.008000
  0
SEQEND
  8
0
 0
ENDBLK
  8
0
  0
BLOCK
  8
0
  2
D23
 70
64
 10
0.0
 20
0.0
  3
D23
  0
POLYLINE
  8
0
 66
1
 10
0.0
 20
0.0
 70
1
 40
0.0
 41
0.0
  0
VERTEX
  8
0
 10
-0.008000
 20
-0.017500
  0
VERTEX
  8
0
 10
0.008000
 20
-0.017500
  0
VERTEX
  8
0
 10
0.008000
 20
0.017500
  0
VERTEX
  8
0
 10
-0.008000
 20
0.017500
  0
SEQEND
  8
0
 0
ENDBLK
  8
0
  0
BLOCK
  8
0
  2
D24
 70
64
 10
0.0
 20
0.0
  3
D24
  0
POLYLINE
  8
0
 66
1
 10
0.0
 20
0.0
 70
1
 40
0.0
 41
0.0
  0
VERTEX
  8
0
 10
-0.015500
 20
-0.006000
  0
VERTEX
  8
0
 10
0.015500
 20
-0.006000
  0
VERTEX
  8
0
 10
0.015500
 20
0.006000
  0
VERTEX
  8
0
 10
-0.015500
 20
0.006000
  0
SEQEND
  8
0
 0
ENDBLK
  8
0
  0
BLOCK
  8
0
  2
D25
 70
64
 10
0.0
 20
0.0
  3
D25
  0
POLYLINE
  8
0
 66
1
 10
0.0
 20
0.0
 70
1
 40
0.0
 41
0.0
  0
VERTEX
  8
0
 10
-0.015000
 20
-0.015000
  0
VERTEX
  8
0
 10
0.015000
 20
-0.015000
  0
VERTEX
  8
0
 10
0.015000
 20
0.015000
  0
VERTEX
  8
0
 10
-0.015000
 20
0.015000
  0
SEQEND
  8
0
 0
ENDBLK
  8
0
  0
BLOCK
  8
0
  2
D26
 70
64
 10
0.0
 20
0.0
  3
D26
  0
POLYLINE
  8
0
 66
1
 10
0.0
 20
0.0
 70
1
 40
0.0
 41
0.0
  0
VERTEX
  8
0
 10
-0.029500
 20
-0.039500
  0
VERTEX
  8
0
 10
0.029500
 20
-0.039500
  0
VERTEX
  8
0
 10
0.029500
 20
0.039500
  0
VERTEX
  8
0
 10
-0.029500
 20
0.039500
  0
SEQEND
  8
0
 0
ENDBLK
  8
0
  0
BLOCK
  8
0
  2
D27
 70
64
 10
0.0
 20
0.0
  3
D27
  0
POLYLINE
  8
0
 66
1
 10
0.0
 20
0.0
 70
1
 40
0.0
 41
0.0
  0
VERTEX
  8
0
 10
-0.029500
 20
-0.039500
  0
VERTEX
  8
0
 10
0.029500
 20
-0.039500
  0
VERTEX
  8
0
 10
0.029500
 20
0.039500
  0
VERTEX
  8
0
 10
-0.029500
 20
0.039500
  0
SEQEND
  8
0
 0
ENDBLK
  8
0
  0
BLOCK
  8
0
  2
D28
 70
64
 10
0.0
 20
0.0
  3
D28
  0
POLYLINE
  8
0
 66
1
 10
0.0
 20
0.0
 70
1
 40
0.0
 41
0.0
  0
VERTEX
  8
0
 10
-0.019500
 20
-0.008000
  0
VERTEX
  8
0
 10
0.019500
 20
-0.008000
  0
VERTEX
  8
0
 10
0.019500
 20
0.008000
  0
VERTEX
  8
0
 10
-0.019500
 20
0.008000
  0
SEQEND
  8
0
 0
ENDBLK
  8
0
  0
BLOCK
  8
0
  2
D29
 70
64
 10
0.0
 20
0.0
  3
D29
  0
POLYLINE
  8
0
 66
1
 10
0.0
 20
0.0
 70
1
 40
0.0
 41
0.0
  0
VERTEX
  8
0
 10
-0.010000
 20
-0.049000
  0
VERTEX
  8
0
 10
0.010000
 20
-0.049000
  0
VERTEX
  8
0
 10
0.010000
 20
0.049000
  0
VERTEX
  8
0
 10
-0.010000
 20
0.049000
  0
SEQEND
  8
0
 0
ENDBLK
  8
0
  0
BLOCK
  8
0
  2
D30
 70
64
 10
0.0
 20
0.0
  3
D30
  0
CIRCLE
  8
0
 10
0.000000
 20
0.000000
 40
0.010000
 0
ENDBLK
  8
0
  0
BLOCK
  8
0
  2
D31
 70
64
 10
0.0
 20
0.0
  3
D31
  0
CIRCLE
  8
0
 10
0.000000
 20
0.000000
 40
0.007500
 0
ENDBLK
  8
0
  0
BLOCK
  8
0
  2
D32
 70
64
 10
0.0
 20
0.0
  3
D32
  0
CIRCLE
  8
0
 10
0.000000
 20
0.000000
 40
0.000500
 0
ENDBLK
  8
0
  0
BLOCK
  8
0
  2
D33
 70
64
 10
0.0
 20
0.0
  3
D33
  0
CIRCLE
  8
0
 10
0.000000
 20
0.000000
 40
0.003000
 0
ENDBLK
  8
0
  0
BLOCK
  8
0
  2
D34
 70
64
 10
0.0
 20
0.0
  3
D34
  0
CIRCLE
  8
0
 10
0.000000
 20
0.000000
 40
0.001500
 0
ENDBLK
  8
0
  0
BLOCK
  8
0
  2
D35
 70
64
 10
0.0
 20
0.0
  3
D35
  0
CIRCLE
  8
0
 10
0.000000
 20
0.000000
 40
0.002000
 0
ENDBLK
  8
0
  0
BLOCK
  8
0
  2
D36
 70
64
 10
0.0
 20
0.0
  3
D36
  0
CIRCLE
  8
0
 10
0.000000
 20
0.000000
 40
0.034000
 0
ENDBLK
  8
0
  0
BLOCK
  8
0
  2
D37
 70
64
 10
0.0
 20
0.0
  3
D37
  0
CIRCLE
  8
0
 10
0.000000
 20
0.000000
 40
0.067000
 0
ENDBLK
  8
0
  0
BLOCK
  8
0
  2
D38
 70
64
 10
0.0
 20
0.0
  3
D38
  0
CIRCLE
  8
0
 10
0.000000
 20
0.000000
 40
0.012000
 0
ENDBLK
  8
0
  0
BLOCK
  8
0
  2
D39
 70
64
 10
0.0
 20
0.0
  3
D39
  0
POLYLINE
  8
0
 66
1
 10
0.0
 20
0.0
 70
1
 40
0.0
 41
0.0
  0
VERTEX
  8
0
 10
-0.034000
 20
-0.029000
  0
VERTEX
  8
0
 10
0.034000
 20
-0.029000
  0
VERTEX
  8
0
 10
0.034000
 20
0.029000
  0
VERTEX
  8
0
 10
-0.034000
 20
0.029000
  0
SEQEND
  8
0
 0
ENDBLK
  8
0
  0
BLOCK
  8
0
  2
D40
 70
64
 10
0.0
 20
0.0
  3
D40
  0
POLYLINE
  8
0
 66
1
 10
0.0
 20
0.0
 70
1
 40
0.0
 41
0.0
  0
VERTEX
  8
0
 10
-0.029000
 20
-0.034000
  0
VERTEX
  8
0
 10
0.029000
 20
-0.034000
  0
VERTEX
  8
0
 10
0.029000
 20
0.034000
  0
VERTEX
  8
0
 10
-0.029000
 20
0.034000
  0
SEQEND
  8
0
 0
ENDBLK
  8
0
  0
BLOCK
  8
0
  2
D41
 70
64
 10
0.0
 20
0.0
  3
D41
  0
POLYLINE
  8
0
 66
1
 10
0.0
 20
0.0
 70
1
 40
0.0
 41
0.0
  0
VERTEX
  8
0
 10
-0.029000
 20
-0.019000
  0
VERTEX
  8
0
 10
0.029000
 20
-0.019000
  0
VERTEX
  8
0
 10
0.029000
 20
0.019000
  0
VERTEX
  8
0
 10
-0.029000
 20
0.019000
  0
SEQEND
  8
0
 0
ENDBLK
  8
0
  0
BLOCK
  8
0
  2
D42
 70
64
 10
0.0
 20
0.0
  3
D42
  0
POLYLINE
  8
0
 66
1
 10
0.0
 20
0.0
 70
1
 40
0.0
 41
0.0
  0
VERTEX
  8
0
 10
-0.043500
 20
-0.056500
  0
VERTEX
  8
0
 10
0.043500
 20
-0.056500
  0
VERTEX
  8
0
 10
0.043500
 20
0.056500
  0
VERTEX
  8
0
 10
-0.043500
 20
0.056500
  0
SEQEND
  8
0
 0
ENDBLK
  8
0
  0
BLOCK
  8
0
  2
D43
 70
64
 10
0.0
 20
0.0
  3
D43
  0
POLYLINE
  8
0
 66
1
 10
0.0
 20
0.0
 70
1
 40
0.0
 41
0.0
  0
VERTEX
  8
0
 10
-0.021500
 20
-0.012000
  0
VERTEX
  8
0
 10
0.021500
 20
-0.012000
  0
VERTEX
  8
0
 10
0.021500
 20
0.012000
  0
VERTEX
  8
0
 10
-0.021500
 20
0.012000
  0
SEQEND
  8
0
 0
ENDBLK
  8
0
  0
BLOCK
  8
0
  2
D44
 70
64
 10
0.0
 20
0.0
  3
D44
  0
POLYLINE
  8
0
 66
1
 10
0.0
 20
0.0
 70
1
 40
0.0
 41
0.0
  0
VERTEX
  8
0
 10
-0.012000
 20
-0.021500
  0
VERTEX
  8
0
 10
0.012000
 20
-0.021500
  0
VERTEX
  8
0
 10
0.012000
 20
0.021500
  0
VERTEX
  8
0
 10
-0.012000
 20
0.021500
  0
SEQEND
  8
0
 0
ENDBLK
  8
0
  0
BLOCK
  8
0
  2
D45
 70
64
 10
0.0
 20
0.0
  3
D45
  0
POLYLINE
  8
0
 66
1
 10
0.0
 20
0.0
 70
1
 40
0.0
 41
0.0
  0
VERTEX
  8
0
 10
-0.019500
 20
-0.010000
  0
VERTEX
  8
0
 10
0.019500
 20
-0.010000
  0
VERTEX
  8
0
 10
0.019500
 20
0.010000
  0
VERTEX
  8
0
 10
-0.019500
 20
0.010000
  0
SEQEND
  8
0
 0
ENDBLK
  8
0
  0
BLOCK
  8
0
  2
D46
 70
64
 10
0.0
 20
0.0
  3
D46
  0
POLYLINE
  8
0
 66
1
 10
0.0
 20
0.0
 70
1
 40
0.0
 41
0.0
  0
VERTEX
  8
0
 10
-0.019000
 20
-0.019000
  0
VERTEX
  8
0
 10
0.019000
 20
-0.019000
  0
VERTEX
  8
0
 10
0.019000
 20
0.019000
  0
VERTEX
  8
0
 10
-0.019000
 20
0.019000
  0
SEQEND
  8
0
 0
ENDBLK
  8
0
  0
BLOCK
  8
0
  2
D47
 70
64
 10
0.0
 20
0.0
  3
D47
  0
POLYLINE
  8
0
 66
1
 10
0.0
 20
0.0
 70
1
 40
0.0
 41
0.0
  0
VERTEX
  8
0
 10
-0.033500
 20
-0.043500
  0
VERTEX
  8
0
 10
0.033500
 20
-0.043500
  0
VERTEX
  8
0
 10
0.033500
 20
0.043500
  0
VERTEX
  8
0
 10
-0.033500
 20
0.043500
  0
SEQEND
  8
0
 0
ENDBLK
  8
0
  0
BLOCK
  8
0
  2
D48
 70
64
 10
0.0
 20
0.0
  3
D48
  0
POLYLINE
  8
0
 66
1
 10
0.0
 20
0.0
 70
1
 40
0.0
 41
0.0
  0
VERTEX
  8
0
 10
-0.033500
 20
-0.043500
  0
VERTEX
  8
0
 10
0.033500
 20
-0.043500
  0
VERTEX
  8
0
 10
0.033500
 20
0.043500
  0
VERTEX
  8
0
 10
-0.033500
 20
0.043500
  0
SEQEND
  8
0
 0
ENDBLK
  8
0
  0
BLOCK
  8
0
  2
D49
 70
64
 10
0.0
 20
0.0
  3
D49
  0
POLYLINE
  8
0
 66
1
 10
0.0
 20
0.0
 70
1
 40
0.0
 41
0.0
  0
VERTEX
  8
0
 10
-0.023500
 20
-0.012000
  0
VERTEX
  8
0
 10
0.023500
 20
-0.012000
  0
VERTEX
  8
0
 10
0.023500
 20
0.012000
  0
VERTEX
  8
0
 10
-0.023500
 20
0.012000
  0
SEQEND
  8
0
 0
ENDBLK
  8
0
  0
BLOCK
  8
0
  2
D50
 70
64
 10
0.0
 20
0.0
  3
D50
  0
POLYLINE
  8
0
 66
1
 10
0.0
 20
0.0
 70
1
 40
0.0
 41
0.0
  0
VERTEX
  8
0
 10
-0.014000
 20
-0.053000
  0
VERTEX
  8
0
 10
0.014000
 20
-0.053000
  0
VERTEX
  8
0
 10
0.014000
 20
0.053000
  0
VERTEX
  8
0
 10
-0.014000
 20
0.053000
  0
SEQEND
  8
0
 0
ENDBLK
  8
0
  0
BLOCK
  8
0
  2
D51
 70
64
 10
0.0
 20
0.0
  3
D51
  0
CIRCLE
  8
0
 10
0.000000
 20
0.000000
 40
0.020000
 0
ENDBLK
  8
0
  0
BLOCK
  8
0
  2
D52
 70
64
 10
0.0
 20
0.0
  3
D52
  0
CIRCLE
  8
0
 10
0.000000
 20
0.000000
 40
0.040000
 0
ENDBLK
  8
0
  0
BLOCK
  8
0
  2
D53
 70
64
 10
0.0
 20
0.0
  3
D53
  0
CIRCLE
  8
0
 10
0.000000
 20
0.000000
 40
0.083000
 0
ENDBLK
  8
0
  0
BLOCK
  8
0
  2
D54
 70
64
 10
0.0
 20
0.0
  3
D54
  0
CIRCLE
  8
0
 10
0.000000
 20
0.000000
 40
0.024000
 0
ENDBLK
  8
0
  0
ENDSEC
  0
SECTION
  2
ENTITIES
  0
POLYLINE
  8
mb694
 62
4
 40
0.000000
 41
0.000000
 66
  1
  0
VERTEX
  8
mb694
 10
0.160000
 20
0.959000
  0
VERTEX
  8
mb694
 10
0.166000
 20
0.962000
  0
VERTEX
  8
mb694
 10
0.169000
 20
0.970000
  0
VERTEX
  8
mb694
 10
0.169000
 20
0.976000
  0
VERTEX
  8
mb694
 10
0.166000
 20
0.984000
  0
VERTEX
  8
mb694
 10
0.157000
 20
0.990000
  0
VERTEX
  8
mb694
 10
0.143000
 20
0.993000
  0
VERTEX
  8
mb694
 10
0.129000
 20
0.993000
  0
VERTEX
  8
mb694
 10
0.117000
 20
0.990000
  0
VERTEX
  8
mb694
 10
0.112000
 20
0.984000
  0
VERTEX
  8
mb694
 10
0.109000
 20
0.976000
  0
VERTEX
  8
mb694
 10
0.109000
 20
0.973000
  0
VERTEX
  8
mb694
 10
0.112000
 20
0.964000
  0
VERTEX
  8
mb694
 10
0.117000
 20
0.959000
  0
VERTEX
  8
mb694
 10
0.126000
 20
0.956000
  0
VERTEX
  8
mb694
 10
0.129000
 20
0.956000
  0
VERTEX
  8
mb694
 10
0.137000
 20
0.959000
  0
VERTEX
  8
mb694
 10
0.143000
 20
0.964000
  0
VERTEX
  8
mb694
 10
0.146000
 20
0.973000
  0
VERTEX
  8
mb694
 10
0.146000
 20
0.976000
  0
VERTEX
  8
mb694
 10
0.143000
 20
0.984000
  0
VERTEX
  8
mb694
 10
0.137000
 20
0.990000
  0
VERTEX
  8
mb694
 10
0.129000
 20
0.993000
  0
SEQEND
  8
mb694
  0
POLYLINE
  8
mb694
 62
4
 40
0.000000
 41
0.000000
 66
  1
  0
VERTEX
  8
mb694
 10
0.149000
 20
0.906000
  0
VERTEX
  8
mb694
 10
0.140000
 20
0.908000
  0
VERTEX
  8
mb694
 10
0.135000
 20
0.914000
  0
VERTEX
  8
mb694
 10
0.132000
 20
0.923000
  0
VERTEX
  8
mb694
 10
0.132000
 20
0.926000
  0
VERTEX
  8
mb694
 10
0.135000
 20
0.934000
  0
VERTEX
  8
mb694
 10
0.140000
 20
0.940000
  0
VERTEX
  8
mb694
 10
0.149000
 20
0.943000
  0
VERTEX
  8
mb694
 10
0.152000
 20
0.943000
  0
VERTEX
  8
mb694
 10
0.160000
 20
0.940000
  0
VERTEX
  8
mb694
 10
0.166000
 20
0.934000
  0
VERTEX
  8
mb694
 10
0.169000
 20
0.926000
  0
VERTEX
  8
mb694
 10
0.169000
 20
0.923000
  0
VERTEX
  8
mb694
 10
0.166000
 20
0.914000
  0
VERTEX
  8
mb694
 10
0.160000
 20
0.908000
  0
VERTEX
  8
mb694
 10
0.149000
 20
0.906000
  0
VERTEX
  8
mb694
 10
0.135000
 20
0.906000
  0
VERTEX
  8
mb694
 10
0.120000
 20
0.908000
  0
VERTEX
  8
mb694
 10
0.112000
 20
0.914000
  0
VERTEX
  8
mb694
 10
0.109000
 20
0.923000
  0
VERTEX
  8
mb694
 10
0.109000
 20
0.928000
  0
VERTEX
  8
mb694
 10
0.112000
 20
0.937000
  0
VERTEX
  8
mb694
 10
0.117000
 20
0.940000
  0
SEQEND
  8
mb694
  0
POLYLINE
  8
mb694
 62
4
 40
0.000000
 41
0.000000
 66
  1
  0
VERTEX
  8
mb694
 10
0.169000
 20
0.861000
  0
VERTEX
  8
mb694
 10
0.129000
 20
0.889000
  0
VERTEX
  8
mb694
 10
0.129000
 20
0.846000
  0
SEQEND
  8
mb694
  0
POLYLINE
  8
mb694
 62
4
 40
0.000000
 41
0.000000
 66
  1
  0
VERTEX
  8
mb694
 10
0.169000
 20
0.861000
  0
VERTEX
  8
mb694
 10
0.109000
 20
0.861000
  0
SEQEND
  8
mb694
  0
POLYLINE
  8
mb694
 62
4
 40
0.000000
 41
0.000000
 66
  1
  0
VERTEX
  8
mb694
 10
0.799000
 20
-0.037000
  0
VERTEX
  8
mb694
 10
0.799000
 20
0.463000
  0
SEQEND
  8
mb694
  0
POLYLINE
  8
mb694
 62
4
 40
0.000000
 41
0.000000
 66
  1
  0
VERTEX
  8
mb694
 10
0.549000
 20
-0.037000
  0
VERTEX
  8
mb694
 10
0.799000
 20
-0.037000
  0
SEQEND
  8
mb694
  0
POLYLINE
  8
mb694
 62
4
 40
0.000000
 41
0.000000
 66
  1
  0
VERTEX
  8
mb694
 10
0.549000
 20
-0.037000
  0
VERTEX
  8
mb694
 10
0.549000
 20
0.463000
  0
VERTEX
  8
mb694
 10
0.799000
 20
0.463000
  0
SEQEND
  8
mb694
  0
POLYLINE
  8
mb694
 62
4
 40
0.000000
 41
0.000000
 66
  1
  0
VERTEX
  8
mb694
 10
0.549000
 20
0.338000
  0
VERTEX
  8
mb694
 10
0.799000
 20
0.338000
  0
SEQEND
  8
mb694
  0
POLYLINE
  8
mb694
 62
4
 40
0.000000
 41
0.000000
 66
  1
  0
VERTEX
  8
mb694
 10
0.549000
 20
0.213000
  0
VERTEX
  8
mb694
 10
0.799000
 20
0.213000
  0
SEQEND
  8
mb694
  0
POLYLINE
  8
mb694
 62
4
 40
0.000000
 41
0.000000
 66
  1
  0
VERTEX
  8
mb694
 10
0.549000
 20
0.088000
  0
VERTEX
  8
mb694
 10
0.799000
 20
0.088000
  0
SEQEND
  8
mb694
  0
POLYLINE
  8
mb694
 62
4
 40
0.000000
 41
0.000000
 66
  1
  0
VERTEX
  8
mb694
 10
0.549000
 20
-0.037000
  0
VERTEX
  8
mb694
 10
0.799000
 20
-0.037000
  0
SEQEND
  8
mb694
  0
POLYLINE
  8
mb694
 62
4
 40
0.000000
 41
0.000000
 66
  1
  0
VERTEX
  8
mb694
 10
0.674000
 20
-0.037000
  0
VERTEX
  8
mb694
 10
0.674000
 20
0.463000
  0
SEQEND
  8
mb694
  0
POLYLINE
  8
mb694
 62
4
 40
0.000000
 41
0.000000
 66
  1
  0
VERTEX
  8
mb694
 10
2.799000
 20
0.013000
  0
VERTEX
  8
mb694
 10
2.799000
 20
1.513000
  0
SEQEND
  8
mb694
  0
POLYLINE
  8
mb694
 62
4
 40
0.000000
 41
0.000000
 66
  1
  0
VERTEX
  8
mb694
 10
2.899000
 20
1.413000
  0
VERTEX
  8
mb694
 10
2.899000
 20
1.513000
  0
SEQEND
  8
mb694
  0
POLYLINE
  8
mb694
 62
4
 40
0.000000
 41
0.000000
 66
  1
  0
VERTEX
  8
mb694
 10
2.799000
 20
1.413000
  0
VERTEX
  8
mb694
 10
2.899000
 20
1.413000
  0
SEQEND
  8
mb694
  0
POLYLINE
  8
mb694
 62
4
 40
0.000000
 41
0.000000
 66
  1
  0
VERTEX
  8
mb694
 10
2.799000
 20
1.513000
  0
VERTEX
  8
mb694
 10
2.999000
 20
1.513000
  0
SEQEND
  8
mb694
  0
POLYLINE
  8
mb694
 62
4
 40
0.000000
 41
0.000000
 66
  1
  0
VERTEX
  8
mb694
 10
2.799000
 20
0.013000
  0
VERTEX
  8
mb694
 10
2.999000
 20
0.013000
  0
VERTEX
  8
mb694
 10
2.999000
 20
1.513000
  0
SEQEND
  8
mb694
  0
POLYLINE
  8
mb694
 62
4
 40
0.000000
 41
0.000000
 66
  1
  0
VERTEX
  8
mb694
 10
2.856000
 20
1.543000
  0
VERTEX
  8
mb694
 10
2.858000
 20
1.539000
  0
VERTEX
  8
mb694
 10
2.864000
 20
1.533000
  0
VERTEX
  8
mb694
 10
2.824000
 20
1.533000
  0
SEQEND
  8
mb694
  0
POLYLINE
  8
mb694
 62
4
 40
0.000000
 41
0.000000
 66
  1
  0
VERTEX
  8
mb694
 10
0.109000
 20
0.599000
  0
VERTEX
  8
mb694
 10
0.149000
 20
0.614000
  0
VERTEX
  8
mb694
 10
0.109000
 20
0.629000
  0
SEQEND
  8
mb694
  0
POLYLINE
  8
mb694
 62
4
 40
0.000000
 41
0.000000
 66
  1
  0
VERTEX
  8
mb694
 10
0.122000
 20
0.623000
  0
VERTEX
  8
mb694
 10
0.122000
 20
0.604000
  0
SEQEND
  8
mb694
  0
POLYLINE
  8
mb694
 62
4
 40
0.000000
 41
0.000000
 66
  1
  0
VERTEX
  8
mb694
 10
0.524000
 20
1.263000
  0
VERTEX
  8
mb694
 10
0.524000
 20
1.263000
  0
VERTEX
  8
mb694
 10
0.524000
 20
1.263000
 42
1.000000
  0
VERTEX
  8
mb694
 10
0.324000
 20
1.263000
  0
VERTEX
  8
mb694
 10
0.324000
 20
1.263000
  0
SEQEND
  8
mb694
  0
POLYLINE
  8
mb694
 62
4
 40
0.000000
 41
0.000000
 66
  1
  0
VERTEX
  8
mb694
 10
0.324000
 20
0.138000
  0
VERTEX
  8
mb694
 10
0.324000
 20
0.138000
  0
VERTEX
  8
mb694
 10
0.324000
 20
0.138000
 42
1.000000
  0
VERTEX
  8
mb694
 10
0.524000
 20
0.138000
  0
VERTEX
  8
mb694
 10
0.524000
 20
0.138000
  0
SEQEND
  8
mb694
  0
POLYLINE
  8
mb694
 62
4
 40
0.000000
 41
0.000000
 66
  1
  0
VERTEX
  8
mb694
 10
-0.086000
 20
1.573000
  0
VERTEX
  8
mb694
 10
3.219000
 20
1.573000
  0
SEQEND
  8
mb694
  0
POLYLINE
  8
mb694
 62
4
 40
0.000000
 41
0.000000
 66
  1
  0
VERTEX
  8
mb694
 10
3.218000
 20
-0.158000
  0
VERTEX
  8
mb694
 10
3.219000
 20
-0.157000
  0
VERTEX
  8
mb694
 10
3.219000
 20
1.573000
  0
SEQEND
  8
mb694
  0
POLYLINE
  8
mb694
 62
4
 40
0.000000
 41
0.000000
 66
  1
  0
VERTEX
  8
mb694
 10
0.324000
 20
0.138000
  0
VERTEX
  8
mb694
 10
0.324000
 20
1.263000
  0
SEQEND
  8
mb694
  0
POLYLINE
  8
mb694
 62
4
 40
0.000000
 41
0.000000
 66
  1
  0
VERTEX
  8
mb694
 10
0.524000
 20
0.138000
  0
VERTEX
  8
mb694
 10
0.524000
 20
1.258000
  0
SEQEND
  8
mb694
  0
POLYLINE
  8
mb694
 62
4
 40
0.000000
 41
0.000000
 66
  1
  0
VERTEX
  8
mb694
 10
-0.086000
 20
-0.158000
  0
VERTEX
  8
mb694
 10
-0.086000
 20
1.573000
  0
SEQEND
  8
mb694
  0
POLYLINE
  8
mb694
 62
4
 40
0.000000
 41
0.000000
 66
  1
  0
VERTEX
  8
mb694
 10
-0.086000
 20
-0.158000
  0
VERTEX
  8
mb694
 10
3.218000
 20
-0.158000
  0
SEQEND
  8
mb694
  0
POLYLINE
  8
mb694
 62
4
 40
0.000000
 41
0.000000
 66
  1
  0
VERTEX
  8
mb694
 10
0.588000
 20
0.379000
  0
VERTEX
  8
mb694
 10
0.638000
 20
0.398000
  0
VERTEX
  8
mb694
 10
0.588000
 20
0.417000
  0
SEQEND
  8
mb694
  0
POLYLINE
  8
mb694
 62
4
 40
0.000000
 41
0.000000
 66
  1
  0
VERTEX
  8
mb694
 10
0.605000
 20
0.410000
  0
VERTEX
  8
mb694
 10
0.605000
 20
0.386000
  0
SEQEND
  8
mb694
  0
POLYLINE
  8
mb694
 62
4
 40
0.000000
 41
0.000000
 66
  1
  0
VERTEX
  8
mb694
 10
0.756000
 20
0.382000
  0
VERTEX
  8
mb694
 10
0.761000
 20
0.387000
  0
VERTEX
  8
mb694
 10
0.763000
 20
0.394000
  0
VERTEX
  8
mb694
 10
0.763000
 20
0.404000
  0
VERTEX
  8
mb694
 10
0.761000
 20
0.411000
  0
VERTEX
  8
mb694
 10
0.756000
 20
0.416000
  0
VERTEX
  8
mb694
 10
0.751000
 20
0.416000
  0
VERTEX
  8
mb694
 10
0.746000
 20
0.413000
  0
VERTEX
  8
mb694
 10
0.744000
 20
0.411000
  0
VERTEX
  8
mb694
 10
0.742000
 20
0.406000
  0
VERTEX
  8
mb694
 10
0.737000
 20
0.392000
  0
VERTEX
  8
mb694
 10
0.734000
 20
0.387000
  0
VERTEX
  8
mb694
 10
0.732000
 20
0.385000
  0
VERTEX
  8
mb694
 10
0.727000
 20
0.382000
  0
VERTEX
  8
mb694
 10
0.720000
 20
0.382000
  0
VERTEX
  8
mb694
 10
0.715000
 20
0.387000
  0
VERTEX
  8
mb694
 10
0.713000
 20
0.394000
  0
VERTEX
  8
mb694
 10
0.713000
 20
0.404000
  0
VERTEX
  8
mb694
 10
0.715000
 20
0.411000
  0
VERTEX
  8
mb694
 10
0.720000
 20
0.416000
  0
SEQEND
  8
mb694
  0
POLYLINE
  8
mb694
 62
4
 40
0.000000
 41
0.000000
 66
  1
  0
VERTEX
  8
mb694
 10
0.193000
 20
1.045000
  0
VERTEX
  8
mb694
 10
0.193000
 20
1.088000
  0
SEQEND
  8
mb694
  0
POLYLINE
  8
mb694
 62
4
 40
0.000000
 41
0.000000
 66
  1
  0
VERTEX
  8
mb694
 10
0.193000
 20
1.108000
  0
VERTEX
  8
mb694
 10
0.193000
 20
1.126000
  0
SEQEND
  8
mb694
  0
POLYLINE
  8
mb694
 62
4
 40
0.000000
 41
0.000000
 66
  1
  0
VERTEX
  8
mb694
 10
0.193000
 20
1.171000
  0
VERTEX
  8
mb694
 10
0.193000
 20
1.189000
  0
SEQEND
  8
mb694
  0
POLYLINE
  8
mb694
 62
4
 40
0.000000
 41
0.000000
 66
  1
  0
VERTEX
  8
mb694
 10
0.192000
 20
1.041000
  0
VERTEX
  8
mb694
 10
0.192000
 20
1.088000
  0
SEQEND
  8
mb694
  0
POLYLINE
  8
mb694
 62
4
 40
0.000000
 41
0.000000
 66
  1
  0
VERTEX
  8
mb694
 10
0.192000
 20
1.108000
  0
VERTEX
  8
mb694
 10
0.192000
 20
1.126000
  0
SEQEND
  8
mb694
  0
POLYLINE
  8
mb694
 62
4
 40
0.000000
 41
0.000000
 66
  1
  0
VERTEX
  8
mb694
 10
0.192000
 20
1.171000
  0
VERTEX
  8
mb694
 10
0.192000
 20
1.189000
  0
SEQEND
  8
mb694
  0
POLYLINE
  8
mb694
 62
4
 40
0.000000
 41
0.000000
 66
  1
  0
VERTEX
  8
mb694
 10
0.191000
 20
1.039000
  0
VERTEX
  8
mb694
 10
0.191000
 20
1.088000
  0
SEQEND
  8
mb694
  0
POLYLINE
  8
mb694
 62
4
 40
0.000000
 41
0.000000
 66
  1
  0
VERTEX
  8
mb694
 10
0.191000
 20
1.108000
  0
VERTEX
  8
mb694
 10
0.191000
 20
1.126000
  0
SEQEND
  8
mb694
  0
POLYLINE
  8
mb694
 62
4
 40
0.000000
 41
0.000000
 66
  1
  0
VERTEX
  8
mb694
 10
0.191000
 20
1.170000
  0
VERTEX
  8
mb694
 10
0.191000
 20
1.189000
  0
SEQEND
  8
mb694
  0
POLYLINE
  8
mb694
 62
4
 40
0.000000
 41
0.000000
 66
  1
  0
VERTEX
  8
mb694
 10
0.190000
 20
1.037000
  0
VERTEX
  8
mb694
 10
0.190000
 20
1.088000
  0
SEQEND
  8
mb694
  0
POLYLINE
  8
mb694
 62
4
 40
0.000000
 41
0.000000
 66
  1
  0
VERTEX
  8
mb694
 10
0.190000
 20
1.108000
  0
VERTEX
  8
mb694
 10
0.190000
 20
1.127000
  0
SEQEND
  8
mb694
  0
POLYLINE
  8
mb694
 62
4
 40
0.000000
 41
0.000000
 66
  1
  0
VERTEX
  8
mb694
 10
0.190000
 20
1.170000
  0
VERTEX
  8
mb694
 10
0.190000
 20
1.189000
  0
SEQEND
  8
mb694
  0
POLYLINE
  8
mb694
 62
4
 40
0.000000
 41
0.000000
 66
  1
  0
VERTEX
  8
mb694
 10
0.189000
 20
1.036000
  0
VERTEX
  8
mb694
 10
0.189000
 20
1.088000
  0
SEQEND
  8
mb694
  0
POLYLINE
  8
mb694
 62
4
 40
0.000000
 41
0.000000
 66
  1
  0
VERTEX
  8
mb694
 10
0.189000
 20
1.108000
  0
VERTEX
  8
mb694
 10
0.189000
 20
1.127000
  0
SEQEND
  8
mb694
  0
POLYLINE
  8
mb694
 62
4
 40
0.000000
 41
0.000000
 66
  1
  0
VERTEX
  8
mb694
 10
0.189000
 20
1.170000
  0
VERTEX
  8
mb694
 10
0.189000
 20
1.189000
  0
SEQEND
  8
mb694
  0
POLYLINE
  8
mb694
 62
4
 40
0.000000
 41
0.000000
 66
  1
  0
VERTEX
  8
mb694
 10
0.188000
 20
1.034000
  0
VERTEX
  8
mb694
 10
0.188000
 20
1.088000
  0
SEQEND
  8
mb694
  0
POLYLINE
  8
mb694
 62
4
 40
0.000000
 41
0.000000
 66
  1
  0
VERTEX
  8
mb694
 10
0.188000
 20
1.108000
  0
VERTEX
  8
mb694
 10
0.188000
 20
1.127000
  0
SEQEND
  8
mb694
  0
POLYLINE
  8
mb694
 62
4
 40
0.000000
 41
0.000000
 66
  1
  0
VERTEX
  8
mb694
 10
0.188000
 20
1.170000
  0
VERTEX
  8
mb694
 10
0.188000
 20
1.189000
  0
SEQEND
  8
mb694
  0
POLYLINE
  8
mb694
 62
4
 40
0.000000
 41
0.000000
 66
  1
  0
VERTEX
  8
mb694
 10
0.187000
 20
1.033000
  0
VERTEX
  8
mb694
 10
0.187000
 20
1.088000
  0
SEQEND
  8
mb694
  0
POLYLINE
  8
mb694
 62
4
 40
0.000000
 41
0.000000
 66
  1
  0
VERTEX
  8
mb694
 10
0.187000
 20
1.108000
  0
VERTEX
  8
mb694
 10
0.187000
 20
1.128000
  0
SEQEND
  8
mb694
  0
POLYLINE
  8
mb694
 62
4
 40
0.000000
 41
0.000000
 66
  1
  0
VERTEX
  8
mb694
 10
0.187000
 20
1.169000
  0
VERTEX
  8
mb694
 10
0.187000
 20
1.189000
  0
SEQEND
  8
mb694
  0
POLYLINE
  8
mb694
 62
4
 40
0.000000
 41
0.000000
 66
  1
  0
VERTEX
  8
mb694
 10
0.186000
 20
1.032000
  0
VERTEX
  8
mb694
 10
0.186000
 20
1.088000
  0
SEQEND
  8
mb694
  0
POLYLINE
  8
mb694
 62
4
 40
0.000000
 41
0.000000
 66
  1
  0
VERTEX
  8
mb694
 10
0.186000
 20
1.108000
  0
VERTEX
  8
mb694
 10
0.186000
 20
1.128000
  0
SEQEND
  8
mb694
  0
POLYLINE
  8
mb694
 62
4
 40
0.000000
 41
0.000000
 66
  1
  0
VERTEX
  8
mb694
 10
0.186000
 20
1.169000
  0
VERTEX
  8
mb694
 10
0.186000
 20
1.189000
  0
SEQEND
  8
mb694
  0
POLYLINE
  8
mb694
 62
4
 40
0.000000
 41
0.000000
 66
  1
  0
VERTEX
  8
mb694
 10
0.185000
 20
1.031000
  0
VERTEX
  8
mb694
 10
0.185000
 20
1.088000
  0
SEQEND
  8
mb694
  0
POLYLINE
  8
mb694
 62
4
 40
0.000000
 41
0.000000
 66
  1
  0
VERTEX
  8
mb694
 10
0.185000
 20
1.108000
  0
VERTEX
  8
mb694
 10
0.185000
 20
1.128000
  0
SEQEND
  8
mb694
  0
POLYLINE
  8
mb694
 62
4
 40
0.000000
 41
0.000000
 66
  1
  0
VERTEX
  8
mb694
 10
0.185000
 20
1.169000
  0
VERTEX
  8
mb694
 10
0.185000
 20
1.189000
  0
SEQEND
  8
mb694
  0
POLYLINE
  8
mb694
 62
4
 40
0.000000
 41
0.000000
 66
  1
  0
VERTEX
  8
mb694
 10
0.184000
 20
1.031000
  0
VERTEX
  8
mb694
 10
0.184000
 20
1.088000
  0
SEQEND
  8
mb694
  0
POLYLINE
  8
mb694
 62
4
 40
0.000000
 41
0.000000
 66
  1
  0
VERTEX
  8
mb694
 10
0.184000
 20
1.108000
  0
VERTEX
  8
mb694
 10
0.184000
 20
1.129000
  0
SEQEND
  8
mb694
  0
POLYLINE
  8
mb694
 62
4
 40
0.000000
 41
0.000000
 66
  1
  0
VERTEX
  8
mb694
 10
0.184000
 20
1.168000
  0
VERTEX
  8
mb694
 10
0.184000
 20
1.189000
  0
SEQEND
  8
mb694
  0
POLYLINE
  8
mb694
 62
4
 40
0.000000
 41
0.000000
 66
  1
  0
VERTEX
  8
mb694
 10
0.183000
 20
1.030000
  0
VERTEX
  8
mb694
 10
0.183000
 20
1.054000
  0
SEQEND
  8
mb694
  0
POLYLINE
  8
mb694
 62
4
 40
0.000000
 41
0.000000
 66
  1
  0
VERTEX
  8
mb694
 10
0.183000
 20
1.077000
  0
VERTEX
  8
mb694
 10
0.183000
 20
1.088000
  0
SEQEND
  8
mb694
  0
POLYLINE
  8
mb694
 62
4
 40
0.000000
 41
0.000000
 66
  1
  0
VERTEX
  8
mb694
 10
0.183000
 20
1.108000
  0
VERTEX
  8
mb694
 10
0.183000
 20
1.129000
  0
SEQEND
  8
mb694
  0
POLYLINE
  8
mb694
 62
4
 40
0.000000
 41
0.000000
 66
  1
  0
VERTEX
  8
mb694
 10
0.183000
 20
1.168000
  0
VERTEX
  8
mb694
 10
0.183000
 20
1.189000
  0
SEQEND
  8
mb694
  0
POLYLINE
  8
mb694
 62
4
 40
0.000000
 41
0.000000
 66
  1
  0
VERTEX
  8
mb694
 10
0.182000
 20
1.029000
  0
VERTEX
  8
mb694
 10
0.182000
 20
1.046000
  0
SEQEND
  8
mb694
  0
POLYLINE
  8
mb694
 62
4
 40
0.000000
 41
0.000000
 66
  1
  0
VERTEX
  8
mb694
 10
0.182000
 20
1.077000
  0
VERTEX
  8
mb694
 10
0.182000
 20
1.088000
  0
SEQEND
  8
mb694
  0
POLYLINE
  8
mb694
 62
4
 40
0.000000
 41
0.000000
 66
  1
  0
VERTEX
  8
mb694
 10
0.182000
 20
1.108000
  0
VERTEX
  8
mb694
 10
0.182000
 20
1.129000
  0
SEQEND
  8
mb694
  0
POLYLINE
  8
mb694
 62
4
 40
0.000000
 41
0.000000
 66
  1
  0
VERTEX
  8
mb694
 10
0.182000
 20
1.168000
  0
VERTEX
  8
mb694
 10
0.182000
 20
1.189000
  0
SEQEND
  8
mb694
  0
POLYLINE
  8
mb694
 62
4
 40
0.000000
 41
0.000000
 66
  1
  0
VERTEX
  8
mb694
 10
0.181000
 20
1.029000
  0
VERTEX
  8
mb694
 10
0.181000
 20
1.044000
  0
SEQEND
  8
mb694
  0
POLYLINE
  8
mb694
 62
4
 40
0.000000
 41
0.000000
 66
  1
  0
VERTEX
  8
mb694
 10
0.181000
 20
1.077000
  0
VERTEX
  8
mb694
 10
0.181000
 20
1.088000
  0
SEQEND
  8
mb694
  0
POLYLINE
  8
mb694
 62
4
 40
0.000000
 41
0.000000
 66
  1
  0
VERTEX
  8
mb694
 10
0.181000
 20
1.108000
  0
VERTEX
  8
mb694
 10
0.181000
 20
1.130000
  0
SEQEND
  8
mb694
  0
POLYLINE
  8
mb694
 62
4
 40
0.000000
 41
0.000000
 66
  1
  0
VERTEX
  8
mb694
 10
0.181000
 20
1.167000
  0
VERTEX
  8
mb694
 10
0.181000
 20
1.189000
  0
SEQEND
  8
mb694
  0
POLYLINE
  8
mb694
 62
4
 40
0.000000
 41
0.000000
 66
  1
  0
VERTEX
  8
mb694
 10
0.180000
 20
1.028000
  0
VERTEX
  8
mb694
 10
0.180000
 20
1.042000
  0
SEQEND
  8
mb694
  0
POLYLINE
  8
mb694
 62
4
 40
0.000000
 41
0.000000
 66
  1
  0
VERTEX
  8
mb694
 10
0.180000
 20
1.077000
  0
VERTEX
  8
mb694
 10
0.180000
 20
1.088000
  0
SEQEND
  8
mb694
  0
POLYLINE
  8
mb694
 62
4
 40
0.000000
 41
0.000000
 66
  1
  0
VERTEX
  8
mb694
 10
0.180000
 20
1.108000
  0
VERTEX
  8
mb694
 10
0.180000
 20
1.130000
  0
SEQEND
  8
mb694
  0
POLYLINE
  8
mb694
 62
4
 40
0.000000
 41
0.000000
 66
  1
  0
VERTEX
  8
mb694
 10
0.180000
 20
1.167000
  0
VERTEX
  8
mb694
 10
0.180000
 20
1.189000
  0
SEQEND
  8
mb694
  0
POLYLINE
  8
mb694
 62
4
 40
0.000000
 41
0.000000
 66
  1
  0
VERTEX
  8
mb694
 10
0.179000
 20
1.028000
  0
VERTEX
  8
mb694
 10
0.179000
 20
1.041000
  0
SEQEND
  8
mb694
  0
POLYLINE
  8
mb694
 62
4
 40
0.000000
 41
0.000000
 66
  1
  0
VERTEX
  8
mb694
 10
0.179000
 20
1.077000
  0
VERTEX
  8
mb694
 10
0.179000
 20
1.088000
  0
SEQEND
  8
mb694
  0
POLYLINE
  8
mb694
 62
4
 40
0.000000
 41
0.000000
 66
  1
  0
VERTEX
  8
mb694
 10
0.179000
 20
1.108000
  0
VERTEX
  8
mb694
 10
0.179000
 20
1.130000
  0
SEQEND
  8
mb694
  0
POLYLINE
  8
mb694
 62
4
 40
0.000000
 41
0.000000
 66
  1
  0
VERTEX
  8
mb694
 10
0.179000
 20
1.167000
  0
VERTEX
  8
mb694
 10
0.179000
 20
1.189000
  0
SEQEND
  8
mb694
  0
POLYLINE
  8
mb694
 62
4
 40
0.000000
 41
0.000000
 66
  1
  0
VERTEX
  8
mb694
 10
0.178000
 20
1.028000
  0
VERTEX
  8
mb694
 10
0.178000
 20
1.041000
  0
SEQEND
  8
mb694
  0
POLYLINE
  8
mb694
 62
4
 40
0.000000
 41
0.000000
 66
  1
  0
VERTEX
  8
mb694
 10
0.178000
 20
1.077000
  0
VERTEX
  8
mb694
 10
0.178000
 20
1.088000
  0
SEQEND
  8
mb694
  0
POLYLINE
  8
mb694
 62
4
 40
0.000000
 41
0.000000
 66
  1
  0
VERTEX
  8
mb694
 10
0.178000
 20
1.108000
  0
VERTEX
  8
mb694
 10
0.178000
 20
1.131000
  0
SEQEND
  8
mb694
  0
POLYLINE
  8
mb694
 62
4
 40
0.000000
 41
0.000000
 66
  1
  0
VERTEX
  8
mb694
 10
0.178000
 20
1.166000
  0
VERTEX
  8
mb694
 10
0.178000
 20
1.189000
  0
SEQEND
  8
mb694
  0
POLYLINE
  8
mb694
 62
4
 40
0.000000
 41
0.000000
 66
  1
  0
VERTEX
  8
mb694
 10
0.177000
 20
1.027000
  0
VERTEX
  8
mb694
 10
0.177000
 20
1.040000
  0
SEQEND
  8
mb694
  0
POLYLINE
  8
mb694
 62
4
 40
0.000000
 41
0.000000
 66
  1
  0
VERTEX
  8
mb694
 10
0.177000
 20
1.077000
  0
VERTEX
  8
mb694
 10
0.177000
 20
1.088000
  0
SEQEND
  8
mb694
  0
POLYLINE
  8
mb694
 62
4
 40
0.000000
 41
0.000000
 66
  1
  0
VERTEX
  8
mb694
 10
0.177000
 20
1.108000
  0
VERTEX
  8
mb694
 10
0.177000
 20
1.119000
  0
SEQEND
  8
mb694
  0
POLYLINE
  8
mb694
 62
4
 40
0.000000
 41
0.000000
 66
  1
  0
VERTEX
  8
mb694
 10
0.177000
 20
1.120000
  0
VERTEX
  8
mb694
 10
0.177000
 20
1.131000
  0
SEQEND
  8
mb694
  0
POLYLINE
  8
mb694
 62
4
 40
0.000000
 41
0.000000
 66
  1
  0
VERTEX
  8
mb694
 10
0.177000
 20
1.166000
  0
VERTEX
  8
mb694
 10
0.177000
 20
1.177000
  0
SEQEND
  8
mb694
  0
POLYLINE
  8
mb694
 62
4
 40
0.000000
 41
0.000000
 66
  1
  0
VERTEX
  8
mb694
 10
0.177000
 20
1.178000
  0
VERTEX
  8
mb694
 10
0.177000
 20
1.189000
  0
SEQEND
  8
mb694
  0
POLYLINE
  8
mb694
 62
4
 40
0.000000
 41
0.000000
 66
  1
  0
VERTEX
  8
mb694
 10
0.176000
 20
1.027000
  0
VERTEX
  8
mb694
 10
0.176000
 20
1.040000
  0
SEQEND
  8
mb694
  0
POLYLINE
  8
mb694
 62
4
 40
0.000000
 41
0.000000
 66
  1
  0
VERTEX
  8
mb694
 10
0.176000
 20
1.077000
  0
VERTEX
  8
mb694
 10
0.176000
 20
1.088000
  0
SEQEND
  8
mb694
  0
POLYLINE
  8
mb694
 62
4
 40
0.000000
 41
0.000000
 66
  1
  0
VERTEX
  8
mb694
 10
0.176000
 20
1.108000
  0
VERTEX
  8
mb694
 10
0.176000
 20
1.119000
  0
SEQEND
  8
mb694
  0
POLYLINE
  8
mb694
 62
4
 40
0.000000
 41
0.000000
 66
  1
  0
VERTEX
  8
mb694
 10
0.176000
 20
1.120000
  0
VERTEX
  8
mb694
 10
0.176000
 20
1.131000
  0
SEQEND
  8
mb694
  0
POLYLINE
  8
mb694
 62
4
 40
0.000000
 41
0.000000
 66
  1
  0
VERTEX
  8
mb694
 10
0.176000
 20
1.166000
  0
VERTEX
  8
mb694
 10
0.176000
 20
1.177000
  0
SEQEND
  8
mb694
  0
POLYLINE
  8
mb694
 62
4
 40
0.000000
 41
0.000000
 66
  1
  0
VERTEX
  8
mb694
 10
0.176000
 20
1.178000
  0
VERTEX
  8
mb694
 10
0.176000
 20
1.189000
  0
SEQEND
  8
mb694
  0
POLYLINE
  8
mb694
 62
4
 40
0.000000
 41
0.000000
 66
  1
  0
VERTEX
  8
mb694
 10
0.175000
 20
1.027000
  0
VERTEX
  8
mb694
 10
0.175000
 20
1.039000
  0
SEQEND
  8
mb694
  0
POLYLINE
  8
mb694
 62
4
 40
0.000000
 41
0.000000
 66
  1
  0
VERTEX
  8
mb694
 10
0.175000
 20
1.077000
  0
VERTEX
  8
mb694
 10
0.175000
 20
1.088000
  0
SEQEND
  8
mb694
  0
POLYLINE
  8
mb694
 62
4
 40
0.000000
 41
0.000000
 66
  1
  0
VERTEX
  8
mb694
 10
0.175000
 20
1.108000
  0
VERTEX
  8
mb694
 10
0.175000
 20
1.119000
  0
SEQEND
  8
mb694
  0
POLYLINE
  8
mb694
 62
4
 40
0.000000
 41
0.000000
 66
  1
  0
VERTEX
  8
mb694
 10
0.175000
 20
1.120000
  0
VERTEX
  8
mb694
 10
0.175000
 20
1.131000
  0
SEQEND
  8
mb694
  0
POLYLINE
  8
mb694
 62
4
 40
0.000000
 41
0.000000
 66
  1
  0
VERTEX
  8
mb694
 10
0.175000
 20
1.165000
  0
VERTEX
  8
mb694
 10
0.175000
 20
1.177000
  0
SEQEND
  8
mb694
  0
POLYLINE
  8
mb694
 62
4
 40
0.000000
 41
0.000000
 66
  1
  0
VERTEX
  8
mb694
 10
0.175000
 20
1.178000
  0
VERTEX
  8
mb694
 10
0.175000
 20
1.189000
  0
SEQEND
  8
mb694
  0
POLYLINE
  8
mb694
 62
4
 40
0.000000
 41
0.000000
 66
  1
  0
VERTEX
  8
mb694
 10
0.174000
 20
1.027000
  0
VERTEX
  8
mb694
 10
0.174000
 20
1.039000
  0
SEQEND
  8
mb694
  0
POLYLINE
  8
mb694
 62
4
 40
0.000000
 41
0.000000
 66
  1
  0
VERTEX
  8
mb694
 10
0.174000
 20
1.077000
  0
VERTEX
  8
mb694
 10
0.174000
 20
1.088000
  0
SEQEND
  8
mb694
  0
POLYLINE
  8
mb694
 62
4
 40
0.000000
 41
0.000000
 66
  1
  0
VERTEX
  8
mb694
 10
0.174000
 20
1.108000
  0
VERTEX
  8
mb694
 10
0.174000
 20
1.119000
  0
SEQEND
  8
mb694
  0
POLYLINE
  8
mb694
 62
4
 40
0.000000
 41
0.000000
 66
  1
  0
VERTEX
  8
mb694
 10
0.174000
 20
1.121000
  0
VERTEX
  8
mb694
 10
0.174000
 20
1.132000
  0
SEQEND
  8
mb694
  0
POLYLINE
  8
mb694
 62
4
 40
0.000000
 41
0.000000
 66
  1
  0
VERTEX
  8
mb694
 10
0.174000
 20
1.165000
  0
VERTEX
  8
mb694
 10
0.174000
 20
1.176000
  0
SEQEND
  8
mb694
  0
POLYLINE
  8
mb694
 62
4
 40
0.000000
 41
0.000000
 66
  1
  0
VERTEX
  8
mb694
 10
0.174000
 20
1.178000
  0
VERTEX
  8
mb694
 10
0.174000
 20
1.189000
  0
SEQEND
  8
mb694
  0
POLYLINE
  8
mb694
 62
4
 40
0.000000
 41
0.000000
 66
  1
  0
VERTEX
  8
mb694
 10
0.173000
 20
1.027000
  0
VERTEX
  8
mb694
 10
0.173000
 20
1.039000
  0
SEQEND
  8
mb694
  0
POLYLINE
  8
mb694
 62
4
 40
0.000000
 41
0.000000
 66
  1
  0
VERTEX
  8
mb694
 10
0.173000
 20
1.077000
  0
VERTEX
  8
mb694
 10
0.173000
 20
1.088000
  0
SEQEND
  8
mb694
  0
POLYLINE
  8
mb694
 62
4
 40
0.000000
 41
0.000000
 66
  1
  0
VERTEX
  8
mb694
 10
0.173000
 20
1.108000
  0
VERTEX
  8
mb694
 10
0.173000
 20
1.119000
  0
SEQEND
  8
mb694
  0
POLYLINE
  8
mb694
 62
4
 40
0.000000
 41
0.000000
 66
  1
  0
VERTEX
  8
mb694
 10
0.173000
 20
1.121000
  0
VERTEX
  8
mb694
 10
0.173000
 20
1.132000
  0
SEQEND
  8
mb694
  0
POLYLINE
  8
mb694
 62
4
 40
0.000000
 41
0.000000
 66
  1
  0
VERTEX
  8
mb694
 10
0.173000
 20
1.165000
  0
VERTEX
  8
mb694
 10
0.173000
 20
1.176000
  0
SEQEND
  8
mb694
  0
POLYLINE
  8
mb694
 62
4
 40
0.000000
 41
0.000000
 66
  1
  0
VERTEX
  8
mb694
 10
0.173000
 20
1.178000
  0
VERTEX
  8
mb694
 10
0.173000
 20
1.189000
  0
SEQEND
  8
mb694
  0
POLYLINE
  8
mb694
 62
4
 40
0.000000
 41
0.000000
 66
  1
  0
VERTEX
  8
mb694
 10
0.172000
 20
1.027000
  0
VERTEX
  8
mb694
 10
0.172000
 20
1.038000
  0
SEQEND
  8
mb694
  0
POLYLINE
  8
mb694
 62
4
 40
0.000000
 41
0.000000
 66
  1
  0
VERTEX
  8
mb694
 10
0.172000
 20
1.077000
  0
VERTEX
  8
mb694
 10
0.172000
 20
1.088000
  0
SEQEND
  8
mb694
  0
POLYLINE
  8
mb694
 62
4
 40
0.000000
 41
0.000000
 66
  1
  0
VERTEX
  8
mb694
 10
0.172000
 20
1.108000
  0
VERTEX
  8
mb694
 10
0.172000
 20
1.119000
  0
SEQEND
  8
mb694
  0
POLYLINE
  8
mb694
 62
4
 40
0.000000
 41
0.000000
 66
  1
  0
VERTEX
  8
mb694
 10
0.172000
 20
1.121000
  0
VERTEX
  8
mb694
 10
0.172000
 20
1.132000
  0
SEQEND
  8
mb694
  0
POLYLINE
  8
mb694
 62
4
 40
0.000000
 41
0.000000
 66
  1
  0
VERTEX
  8
mb694
 10
0.172000
 20
1.164000
  0
VERTEX
  8
mb694
 10
0.172000
 20
1.176000
  0
SEQEND
  8
mb694
  0
POLYLINE
  8
mb694
 62
4
 40
0.000000
 41
0.000000
 66
  1
  0
VERTEX
  8
mb694
 10
0.172000
 20
1.178000
  0
VERTEX
  8
mb694
 10
0.172000
 20
1.189000
  0
SEQEND
  8
mb694
  0
POLYLINE
  8
mb694
 62
4
 40
0.000000
 41
0.000000
 66
  1
  0
VERTEX
  8
mb694
 10
0.171000
 20
1.027000
  0
VERTEX
  8
mb694
 10
0.171000
 20
1.038000
  0
SEQEND
  8
mb694
  0
POLYLINE
  8
mb694
 62
4
 40
0.000000
 41
0.000000
 66
  1
  0
VERTEX
  8
mb694
 10
0.171000
 20
1.077000
  0
VERTEX
  8
mb694
 10
0.171000
 20
1.088000
  0
SEQEND
  8
mb694
  0
POLYLINE
  8
mb694
 62
4
 40
0.000000
 41
0.000000
 66
  1
  0
VERTEX
  8
mb694
 10
0.171000
 20
1.108000
  0
VERTEX
  8
mb694
 10
0.171000
 20
1.119000
  0
SEQEND
  8
mb694
  0
POLYLINE
  8
mb694
 62
4
 40
0.000000
 41
0.000000
 66
  1
  0
VERTEX
  8
mb694
 10
0.171000
 20
1.122000
  0
VERTEX
  8
mb694
 10
0.171000
 20
1.133000
  0
SEQEND
  8
mb694
  0
POLYLINE
  8
mb694
 62
4
 40
0.000000
 41
0.000000
 66
  1
  0
VERTEX
  8
mb694
 10
0.171000
 20
1.164000
  0
VERTEX
  8
mb694
 10
0.171000
 20
1.175000
  0
SEQEND
  8
mb694
  0
POLYLINE
  8
mb694
 62
4
 40
0.000000
 41
0.000000
 66
  1
  0
VERTEX
  8
mb694
 10
0.171000
 20
1.178000
  0
VERTEX
  8
mb694
 10
0.171000
 20
1.189000
  0
SEQEND
  8
mb694
  0
POLYLINE
  8
mb694
 62
4
 40
0.000000
 41
0.000000
 66
  1
  0
VERTEX
  8
mb694
 10
0.170000
 20
1.027000
  0
VERTEX
  8
mb694
 10
0.170000
 20
1.038000
  0
SEQEND
  8
mb694
  0
POLYLINE
  8
mb694
 62
4
 40
0.000000
 41
0.000000
 66
  1
  0
VERTEX
  8
mb694
 10
0.170000
 20
1.077000
  0
VERTEX
  8
mb694
 10
0.170000
 20
1.088000
  0
SEQEND
  8
mb694
  0
POLYLINE
  8
mb694
 62
4
 40
0.000000
 41
0.000000
 66
  1
  0
VERTEX
  8
mb694
 10
0.170000
 20
1.108000
  0
VERTEX
  8
mb694
 10
0.170000
 20
1.119000
  0
SEQEND
  8
mb694
  0
POLYLINE
  8
mb694
 62
4
 40
0.000000
 41
0.000000
 66
  1
  0
VERTEX
  8
mb694
 10
0.170000
 20
1.122000
  0
VERTEX
  8
mb694
 10
0.170000
 20
1.133000
  0
SEQEND
  8
mb694
  0
POLYLINE
  8
mb694
 62
4
 40
0.000000
 41
0.000000
 66
  1
  0
VERTEX
  8
mb694
 10
0.170000
 20
1.164000
  0
VERTEX
  8
mb694
 10
0.170000
 20
1.175000
  0
SEQEND
  8
mb694
  0
POLYLINE
  8
mb694
 62
4
 40
0.000000
 41
0.000000
 66
  1
  0
VERTEX
  8
mb694
 10
0.170000
 20
1.178000
  0
VERTEX
  8
mb694
 10
0.170000
 20
1.189000
  0
SEQEND
  8
mb694
  0
POLYLINE
  8
mb694
 62
4
 40
0.000000
 41
0.000000
 66
  1
  0
VERTEX
  8
mb694
 10
0.169000
 20
1.027000
  0
VERTEX
  8
mb694
 10
0.169000
 20
1.038000
  0
SEQEND
  8
mb694
  0
POLYLINE
  8
mb694
 62
4
 40
0.000000
 41
0.000000
 66
  1
  0
VERTEX
  8
mb694
 10
0.169000
 20
1.077000
  0
VERTEX
  8
mb694
 10
0.169000
 20
1.088000
  0
SEQEND
  8
mb694
  0
POLYLINE
  8
mb694
 62
4
 40
0.000000
 41
0.000000
 66
  1
  0
VERTEX
  8
mb694
 10
0.169000
 20
1.108000
  0
VERTEX
  8
mb694
 10
0.169000
 20
1.119000
  0
SEQEND
  8
mb694
  0
POLYLINE
  8
mb694
 62
4
 40
0.000000
 41
0.000000
 66
  1
  0
VERTEX
  8
mb694
 10
0.169000
 20
1.122000
  0
VERTEX
  8
mb694
 10
0.169000
 20
1.133000
  0
SEQEND
  8
mb694
  0
POLYLINE
  8
mb694
 62
4
 40
0.000000
 41
0.000000
 66
  1
  0
VERTEX
  8
mb694
 10
0.169000
 20
1.164000
  0
VERTEX
  8
mb694
 10
0.169000
 20
1.175000
  0
SEQEND
  8
mb694
  0
POLYLINE
  8
mb694
 62
4
 40
0.000000
 41
0.000000
 66
  1
  0
VERTEX
  8
mb694
 10
0.169000
 20
1.178000
  0
VERTEX
  8
mb694
 10
0.169000
 20
1.189000
  0
SEQEND
  8
mb694
  0
POLYLINE
  8
mb694
 62
4
 40
0.000000
 41
0.000000
 66
  1
  0
VERTEX
  8
mb694
 10
0.168000
 20
1.027000
  0
VERTEX
  8
mb694
 10
0.168000
 20
1.039000
  0
SEQEND
  8
mb694
  0
POLYLINE
  8
mb694
 62
4
 40
0.000000
 41
0.000000
 66
  1
  0
VERTEX
  8
mb694
 10
0.168000
 20
1.077000
  0
VERTEX
  8
mb694
 10
0.168000
 20
1.088000
  0
SEQEND
  8
mb694
  0
POLYLINE
  8
mb694
 62
4
 40
0.000000
 41
0.000000
 66
  1
  0
VERTEX
  8
mb694
 10
0.168000
 20
1.108000
  0
VERTEX
  8
mb694
 10
0.168000
 20
1.119000
  0
SEQEND
  8
mb694
  0
POLYLINE
  8
mb694
 62
4
 40
0.000000
 41
0.000000
 66
  1
  0
VERTEX
  8
mb694
 10
0.168000
 20
1.123000
  0
VERTEX
  8
mb694
 10
0.168000
 20
1.134000
  0
SEQEND
  8
mb694
  0
POLYLINE
  8
mb694
 62
4
 40
0.000000
 41
0.000000
 66
  1
  0
VERTEX
  8
mb694
 10
0.168000
 20
1.163000
  0
VERTEX
  8
mb694
 10
0.168000
 20
1.174000
  0
SEQEND
  8
mb694
  0
POLYLINE
  8
mb694
 62
4
 40
0.000000
 41
0.000000
 66
  1
  0
VERTEX
  8
mb694
 10
0.168000
 20
1.178000
  0
VERTEX
  8
mb694
 10
0.168000
 20
1.189000
  0
SEQEND
  8
mb694
  0
POLYLINE
  8
mb694
 62
4
 40
0.000000
 41
0.000000
 66
  1
  0
VERTEX
  8
mb694
 10
0.167000
 20
1.027000
  0
VERTEX
  8
mb694
 10
0.167000
 20
1.039000
  0
SEQEND
  8
mb694
  0
POLYLINE
  8
mb694
 62
4
 40
0.000000
 41
0.000000
 66
  1
  0
VERTEX
  8
mb694
 10
0.167000
 20
1.077000
  0
VERTEX
  8
mb694
 10
0.167000
 20
1.088000
  0
SEQEND
  8
mb694
  0
POLYLINE
  8
mb694
 62
4
 40
0.000000
 41
0.000000
 66
  1
  0
VERTEX
  8
mb694
 10
0.167000
 20
1.108000
  0
VERTEX
  8
mb694
 10
0.167000
 20
1.119000
  0
SEQEND
  8
mb694
  0
POLYLINE
  8
mb694
 62
4
 40
0.000000
 41
0.000000
 66
  1
  0
VERTEX
  8
mb694
 10
0.167000
 20
1.123000
  0
VERTEX
  8
mb694
 10
0.167000
 20
1.134000
  0
SEQEND
  8
mb694
  0
POLYLINE
  8
mb694
 62
4
 40
0.000000
 41
0.000000
 66
  1
  0
VERTEX
  8
mb694
 10
0.167000
 20
1.163000
  0
VERTEX
  8
mb694
 10
0.167000
 20
1.174000
  0
SEQEND
  8
mb694
  0
POLYLINE
  8
mb694
 62
4
 40
0.000000
 41
0.000000
 66
  1
  0
VERTEX
  8
mb694
 10
0.167000
 20
1.178000
  0
VERTEX
  8
mb694
 10
0.167000
 20
1.189000
  0
SEQEND
  8
mb694
  0
POLYLINE
  8
mb694
 62
4
 40
0.000000
 41
0.000000
 66
  1
  0
VERTEX
  8
mb694
 10
0.166000
 20
1.027000
  0
VERTEX
  8
mb694
 10
0.166000
 20
1.039000
  0
SEQEND
  8
mb694
  0
POLYLINE
  8
mb694
 62
4
 40
0.000000
 41
0.000000
 66
  1
  0
VERTEX
  8
mb694
 10
0.166000
 20
1.077000
  0
VERTEX
  8
mb694
 10
0.166000
 20
1.088000
  0
SEQEND
  8
mb694
  0
POLYLINE
  8
mb694
 62
4
 40
0.000000
 41
0.000000
 66
  1
  0
VERTEX
  8
mb694
 10
0.166000
 20
1.108000
  0
VERTEX
  8
mb694
 10
0.166000
 20
1.119000
  0
SEQEND
  8
mb694
  0
POLYLINE
  8
mb694
 62
4
 40
0.000000
 41
0.000000
 66
  1
  0
VERTEX
  8
mb694
 10
0.166000
 20
1.123000
  0
VERTEX
  8
mb694
 10
0.166000
 20
1.134000
  0
SEQEND
  8
mb694
  0
POLYLINE
  8
mb694
 62
4
 40
0.000000
 41
0.000000
 66
  1
  0
VERTEX
  8
mb694
 10
0.166000
 20
1.163000
  0
VERTEX
  8
mb694
 10
0.166000
 20
1.174000
  0
SEQEND
  8
mb694
  0
POLYLINE
  8
mb694
 62
4
 40
0.000000
 41
0.000000
 66
  1
  0
VERTEX
  8
mb694
 10
0.166000
 20
1.178000
  0
VERTEX
  8
mb694
 10
0.166000
 20
1.189000
  0
SEQEND
  8
mb694
  0
POLYLINE
  8
mb694
 62
4
 40
0.000000
 41
0.000000
 66
  1
  0
VERTEX
  8
mb694
 10
0.165000
 20
1.028000
  0
VERTEX
  8
mb694
 10
0.165000
 20
1.039000
  0
SEQEND
  8
mb694
  0
POLYLINE
  8
mb694
 62
4
 40
0.000000
 41
0.000000
 66
  1
  0
VERTEX
  8
mb694
 10
0.165000
 20
1.077000
  0
VERTEX
  8
mb694
 10
0.165000
 20
1.088000
  0
SEQEND
  8
mb694
  0
POLYLINE
  8
mb694
 62
4
 40
0.000000
 41
0.000000
 66
  1
  0
VERTEX
  8
mb694
 10
0.165000
 20
1.108000
  0
VERTEX
  8
mb694
 10
0.165000
 20
1.119000
  0
SEQEND
  8
mb694
  0
POLYLINE
  8
mb694
 62
4
 40
0.000000
 41
0.000000
 66
  1
  0
VERTEX
  8
mb694
 10
0.165000
 20
1.123000
  0
VERTEX
  8
mb694
 10
0.165000
 20
1.135000
  0
SEQEND
  8
mb694
  0
POLYLINE
  8
mb694
 62
4
 40
0.000000
 41
0.000000
 66
  1
  0
VERTEX
  8
mb694
 10
0.165000
 20
1.162000
  0
VERTEX
  8
mb694
 10
0.165000
 20
1.174000
  0
SEQEND
  8
mb694
  0
POLYLINE
  8
mb694
 62
4
 40
0.000000
 41
0.000000
 66
  1
  0
VERTEX
  8
mb694
 10
0.165000
 20
1.178000
  0
VERTEX
  8
mb694
 10
0.165000
 20
1.189000
  0
SEQEND
  8
mb694
  0
POLYLINE
  8
mb694
 62
4
 40
0.000000
 41
0.000000
 66
  1
  0
VERTEX
  8
mb694
 10
0.164000
 20
1.028000
  0
VERTEX
  8
mb694
 10
0.164000
 20
1.040000
  0
SEQEND
  8
mb694
  0
POLYLINE
  8
mb694
 62
4
 40
0.000000
 41
0.000000
 66
  1
  0
VERTEX
  8
mb694
 10
0.164000
 20
1.077000
  0
VERTEX
  8
mb694
 10
0.164000
 20
1.088000
  0
SEQEND
  8
mb694
  0
POLYLINE
  8
mb694
 62
4
 40
0.000000
 41
0.000000
 66
  1
  0
VERTEX
  8
mb694
 10
0.164000
 20
1.108000
  0
VERTEX
  8
mb694
 10
0.164000
 20
1.119000
  0
SEQEND
  8
mb694
  0
POLYLINE
  8
mb694
 62
4
 40
0.000000
 41
0.000000
 66
  1
  0
VERTEX
  8
mb694
 10
0.164000
 20
1.124000
  0
VERTEX
  8
mb694
 10
0.164000
 20
1.135000
  0
SEQEND
  8
mb694
  0
POLYLINE
  8
mb694
 62
4
 40
0.000000
 41
0.000000
 66
  1
  0
VERTEX
  8
mb694
 10
0.164000
 20
1.162000
  0
VERTEX
  8
mb694
 10
0.164000
 20
1.173000
  0
SEQEND
  8
mb694
  0
POLYLINE
  8
mb694
 62
4
 40
0.000000
 41
0.000000
 66
  1
  0
VERTEX
  8
mb694
 10
0.164000
 20
1.178000
  0
VERTEX
  8
mb694
 10
0.164000
 20
1.189000
  0
SEQEND
  8
mb694
  0
POLYLINE
  8
mb694
 62
4
 40
0.000000
 41
0.000000
 66
  1
  0
VERTEX
  8
mb694
 10
0.163000
 20
1.029000
  0
VERTEX
  8
mb694
 10
0.163000
 20
1.041000
  0
SEQEND
  8
mb694
  0
POLYLINE
  8
mb694
 62
4
 40
0.000000
 41
0.000000
 66
  1
  0
VERTEX
  8
mb694
 10
0.163000
 20
1.077000
  0
VERTEX
  8
mb694
 10
0.163000
 20
1.088000
  0
SEQEND
  8
mb694
  0
POLYLINE
  8
mb694
 62
4
 40
0.000000
 41
0.000000
 66
  1
  0
VERTEX
  8
mb694
 10
0.163000
 20
1.108000
  0
VERTEX
  8
mb694
 10
0.163000
 20
1.119000
  0
SEQEND
  8
mb694
  0
POLYLINE
  8
mb694
 62
4
 40
0.000000
 41
0.000000
 66
  1
  0
VERTEX
  8
mb694
 10
0.163000
 20
1.124000
  0
VERTEX
  8
mb694
 10
0.163000
 20
1.135000
  0
SEQEND
  8
mb694
  0
POLYLINE
  8
mb694
 62
4
 40
0.000000
 41
0.000000
 66
  1
  0
VERTEX
  8
mb694
 10
0.163000
 20
1.162000
  0
VERTEX
  8
mb694
 10
0.163000
 20
1.173000
  0
SEQEND
  8
mb694
  0
POLYLINE
  8
mb694
 62
4
 40
0.000000
 41
0.000000
 66
  1
  0
VERTEX
  8
mb694
 10
0.163000
 20
1.178000
  0
VERTEX
  8
mb694
 10
0.163000
 20
1.189000
  0
SEQEND
  8
mb694
  0
POLYLINE
  8
mb694
 62
4
 40
0.000000
 41
0.000000
 66
  1
  0
VERTEX
  8
mb694
 10
0.162000
 20
1.029000
  0
VERTEX
  8
mb694
 10
0.162000
 20
1.041000
  0
SEQEND
  8
mb694
  0
POLYLINE
  8
mb694
 62
4
 40
0.000000
 41
0.000000
 66
  1
  0
VERTEX
  8
mb694
 10
0.162000
 20
1.077000
  0
VERTEX
  8
mb694
 10
0.162000
 20
1.088000
  0
SEQEND
  8
mb694
  0
POLYLINE
  8
mb694
 62
4
 40
0.000000
 41
0.000000
 66
  1
  0
VERTEX
  8
mb694
 10
0.162000
 20
1.108000
  0
VERTEX
  8
mb694
 10
0.162000
 20
1.119000
  0
SEQEND
  8
mb694
  0
POLYLINE
  8
mb694
 62
4
 40
0.000000
 41
0.000000
 66
  1
  0
VERTEX
  8
mb694
 10
0.162000
 20
1.124000
  0
VERTEX
  8
mb694
 10
0.162000
 20
1.136000
  0
SEQEND
  8
mb694
  0
POLYLINE
  8
mb694
 62
4
 40
0.000000
 41
0.000000
 66
  1
  0
VERTEX
  8
mb694
 10
0.162000
 20
1.161000
  0
VERTEX
  8
mb694
 10
0.162000
 20
1.173000
  0
SEQEND
  8
mb694
  0
POLYLINE
  8
mb694
 62
4
 40
0.000000
 41
0.000000
 66
  1
  0
VERTEX
  8
mb694
 10
0.162000
 20
1.178000
  0
VERTEX
  8
mb694
 10
0.162000
 20
1.189000
  0
SEQEND
  8
mb694
  0
POLYLINE
  8
mb694
 62
4
 40
0.000000
 41
0.000000
 66
  1
  0
VERTEX
  8
mb694
 10
0.161000
 20
1.030000
  0
VERTEX
  8
mb694
 10
0.161000
 20
1.043000
  0
SEQEND
  8
mb694
  0
POLYLINE
  8
mb694
 62
4
 40
0.000000
 41
0.000000
 66
  1
  0
VERTEX
  8
mb694
 10
0.161000
 20
1.077000
  0
VERTEX
  8
mb694
 10
0.161000
 20
1.088000
  0
SEQEND
  8
mb694
  0
POLYLINE
  8
mb694
 62
4
 40
0.000000
 41
0.000000
 66
  1
  0
VERTEX
  8
mb694
 10
0.161000
 20
1.108000
  0
VERTEX
  8
mb694
 10
0.161000
 20
1.119000
  0
SEQEND
  8
mb694
  0
POLYLINE
  8
mb694
 62
4
 40
0.000000
 41
0.000000
 66
  1
  0
VERTEX
  8
mb694
 10
0.161000
 20
1.125000
  0
VERTEX
  8
mb694
 10
0.161000
 20
1.136000
  0
SEQEND
  8
mb694
  0
POLYLINE
  8
mb694
 62
4
 40
0.000000
 41
0.000000
 66
  1
  0
VERTEX
  8
mb694
 10
0.161000
 20
1.161000
  0
VERTEX
  8
mb694
 10
0.161000
 20
1.172000
  0
SEQEND
  8
mb694
  0
POLYLINE
  8
mb694
 62
4
 40
0.000000
 41
0.000000
 66
  1
  0
VERTEX
  8
mb694
 10
0.161000
 20
1.178000
  0
VERTEX
  8
mb694
 10
0.161000
 20
1.189000
  0
SEQEND
  8
mb694
  0
POLYLINE
  8
mb694
 62
4
 40
0.000000
 41
0.000000
 66
  1
  0
VERTEX
  8
mb694
 10
0.160000
 20
1.030000
  0
VERTEX
  8
mb694
 10
0.160000
 20
1.044000
  0
SEQEND
  8
mb694
  0
POLYLINE
  8
mb694
 62
4
 40
0.000000
 41
0.000000
 66
  1
  0
VERTEX
  8
mb694
 10
0.160000
 20
1.077000
  0
VERTEX
  8
mb694
 10
0.160000
 20
1.088000
  0
SEQEND
  8
mb694
  0
POLYLINE
  8
mb694
 62
4
 40
0.000000
 41
0.000000
 66
  1
  0
VERTEX
  8
mb694
 10
0.160000
 20
1.108000
  0
VERTEX
  8
mb694
 10
0.160000
 20
1.119000
  0
SEQEND
  8
mb694
  0
POLYLINE
  8
mb694
 62
4
 40
0.000000
 41
0.000000
 66
  1
  0
VERTEX
  8
mb694
 10
0.160000
 20
1.125000
  0
VERTEX
  8
mb694
 10
0.160000
 20
1.136000
  0
SEQEND
  8
mb694
  0
POLYLINE
  8
mb694
 62
4
 40
0.000000
 41
0.000000
 66
  1
  0
VERTEX
  8
mb694
 10
0.160000
 20
1.161000
  0
VERTEX
  8
mb694
 10
0.160000
 20
1.172000
  0
SEQEND
  8
mb694
  0
POLYLINE
  8
mb694
 62
4
 40
0.000000
 41
0.000000
 66
  1
  0
VERTEX
  8
mb694
 10
0.160000
 20
1.178000
  0
VERTEX
  8
mb694
 10
0.160000
 20
1.189000
  0
SEQEND
  8
mb694
  0
POLYLINE
  8
mb694
 62
4
 40
0.000000
 41
0.000000
 66
  1
  0
VERTEX
  8
mb694
 10
0.159000
 20
1.031000
  0
VERTEX
  8
mb694
 10
0.159000
 20
1.047000
  0
SEQEND
  8
mb694
  0
POLYLINE
  8
mb694
 62
4
 40
0.000000
 41
0.000000
 66
  1
  0
VERTEX
  8
mb694
 10
0.159000
 20
1.077000
  0
VERTEX
  8
mb694
 10
0.159000
 20
1.088000
  0
SEQEND
  8
mb694
  0
POLYLINE
  8
mb694
 62
4
 40
0.000000
 41
0.000000
 66
  1
  0
VERTEX
  8
mb694
 10
0.159000
 20
1.108000
  0
VERTEX
  8
mb694
 10
0.159000
 20
1.119000
  0
SEQEND
  8
mb694
  0
POLYLINE
  8
mb694
 62
4
 40
0.000000
 41
0.000000
 66
  1
  0
VERTEX
  8
mb694
 10
0.159000
 20
1.125000
  0
VERTEX
  8
mb694
 10
0.159000
 20
1.137000
  0
SEQEND
  8
mb694
  0
POLYLINE
  8
mb694
 62
4
 40
0.000000
 41
0.000000
 66
  1
  0
VERTEX
  8
mb694
 10
0.159000
 20
1.160000
  0
VERTEX
  8
mb694
 10
0.159000
 20
1.172000
  0
SEQEND
  8
mb694
  0
POLYLINE
  8
mb694
 62
4
 40
0.000000
 41
0.000000
 66
  1
  0
VERTEX
  8
mb694
 10
0.159000
 20
1.178000
  0
VERTEX
  8
mb694
 10
0.159000
 20
1.189000
  0
SEQEND
  8
mb694
  0
POLYLINE
  8
mb694
 62
4
 40
0.000000
 41
0.000000
 66
  1
  0
VERTEX
  8
mb694
 10
0.158000
 20
1.032000
  0
VERTEX
  8
mb694
 10
0.158000
 20
1.053000
  0
SEQEND
  8
mb694
  0
POLYLINE
  8
mb694
 62
4
 40
0.000000
 41
0.000000
 66
  1
  0
VERTEX
  8
mb694
 10
0.158000
 20
1.077000
  0
VERTEX
  8
mb694
 10
0.158000
 20
1.088000
  0
SEQEND
  8
mb694
  0
POLYLINE
  8
mb694
 62
4
 40
0.000000
 41
0.000000
 66
  1
  0
VERTEX
  8
mb694
 10
0.158000
 20
1.108000
  0
VERTEX
  8
mb694
 10
0.158000
 20
1.119000
  0
SEQEND
  8
mb694
  0
POLYLINE
  8
mb694
 62
4
 40
0.000000
 41
0.000000
 66
  1
  0
VERTEX
  8
mb694
 10
0.158000
 20
1.126000
  0
VERTEX
  8
mb694
 10
0.158000
 20
1.137000
  0
SEQEND
  8
mb694
  0
POLYLINE
  8
mb694
 62
4
 40
0.000000
 41
0.000000
 66
  1
  0
VERTEX
  8
mb694
 10
0.158000
 20
1.160000
  0
VERTEX
  8
mb694
 10
0.158000
 20
1.171000
  0
SEQEND
  8
mb694
  0
POLYLINE
  8
mb694
 62
4
 40
0.000000
 41
0.000000
 66
  1
  0
VERTEX
  8
mb694
 10
0.158000
 20
1.178000
  0
VERTEX
  8
mb694
 10
0.158000
 20
1.189000
  0
SEQEND
  8
mb694
  0
POLYLINE
  8
mb694
 62
4
 40
0.000000
 41
0.000000
 66
  1
  0
VERTEX
  8
mb694
 10
0.149000
 20
0.723000
  0
VERTEX
  8
mb694
 10
0.149000
 20
0.749000
  0
SEQEND
  8
mb694
  0
POLYLINE
  8
mb694
 62
4
 40
0.000000
 41
0.000000
 66
  1
  0
VERTEX
  8
mb694
 10
0.157000
 20
1.033000
  0
VERTEX
  8
mb694
 10
0.157000
 20
1.088000
  0
SEQEND
  8
mb694
  0
POLYLINE
  8
mb694
 62
4
 40
0.000000
 41
0.000000
 66
  1
  0
VERTEX
  8
mb694
 10
0.157000
 20
1.108000
  0
VERTEX
  8
mb694
 10
0.157000
 20
1.119000
  0
SEQEND
  8
mb694
  0
POLYLINE
  8
mb694
 62
4
 40
0.000000
 41
0.000000
 66
  1
  0
VERTEX
  8
mb694
 10
0.157000
 20
1.126000
  0
VERTEX
  8
mb694
 10
0.157000
 20
1.137000
  0
SEQEND
  8
mb694
  0
POLYLINE
  8
mb694
 62
4
 40
0.000000
 41
0.000000
 66
  1
  0
VERTEX
  8
mb694
 10
0.157000
 20
1.160000
  0
VERTEX
  8
mb694
 10
0.157000
 20
1.171000
  0
SEQEND
  8
mb694
  0
POLYLINE
  8
mb694
 62
4
 40
0.000000
 41
0.000000
 66
  1
  0
VERTEX
  8
mb694
 10
0.157000
 20
1.178000
  0
VERTEX
  8
mb694
 10
0.157000
 20
1.189000
  0
SEQEND
  8
mb694
  0
POLYLINE
  8
mb694
 62
4
 40
0.000000
 41
0.000000
 66
  1
  0
VERTEX
  8
mb694
 10
0.148000
 20
0.721000
  0
VERTEX
  8
mb694
 10
0.148000
 20
0.749000
  0
SEQEND
  8
mb694
  0
POLYLINE
  8
mb694
 62
4
 40
0.000000
 41
0.000000
 66
  1
  0
VERTEX
  8
mb694
 10
0.156000
 20
1.034000
  0
VERTEX
  8
mb694
 10
0.156000
 20
1.088000
  0
SEQEND
  8
mb694
  0
POLYLINE
  8
mb694
 62
4
 40
0.000000
 41
0.000000
 66
  1
  0
VERTEX
  8
mb694
 10
0.156000
 20
1.108000
  0
VERTEX
  8
mb694
 10
0.156000
 20
1.119000
  0
SEQEND
  8
mb694
  0
POLYLINE
  8
mb694
 62
4
 40
0.000000
 41
0.000000
 66
  1
  0
VERTEX
  8
mb694
 10
0.156000
 20
1.126000
  0
VERTEX
  8
mb694
 10
0.156000
 20
1.138000
  0
SEQEND
  8
mb694
  0
POLYLINE
  8
mb694
 62
4
 40
0.000000
 41
0.000000
 66
  1
  0
VERTEX
  8
mb694
 10
0.156000
 20
1.159000
  0
VERTEX
  8
mb694
 10
0.156000
 20
1.171000
  0
SEQEND
  8
mb694
  0
POLYLINE
  8
mb694
 62
4
 40
0.000000
 41
0.000000
 66
  1
  0
VERTEX
  8
mb694
 10
0.156000
 20
1.178000
  0
VERTEX
  8
mb694
 10
0.156000
 20
1.189000
  0
SEQEND
  8
mb694
  0
POLYLINE
  8
mb694
 62
4
 40
0.000000
 41
0.000000
 66
  1
  0
VERTEX
  8
mb694
 10
0.147000
 20
0.719000
  0
VERTEX
  8
mb694
 10
0.147000
 20
0.749000
  0
SEQEND
  8
mb694
  0
POLYLINE
  8
mb694
 62
4
 40
0.000000
 41
0.000000
 66
  1
  0
VERTEX
  8
mb694
 10
0.155000
 20
1.036000
  0
VERTEX
  8
mb694
 10
0.155000
 20
1.088000
  0
SEQEND
  8
mb694
  0
POLYLINE
  8
mb694
 62
4
 40
0.000000
 41
0.000000
 66
  1
  0
VERTEX
  8
mb694
 10
0.155000
 20
1.108000
  0
VERTEX
  8
mb694
 10
0.155000
 20
1.119000
  0
SEQEND
  8
mb694
  0
POLYLINE
  8
mb694
 62
4
 40
0.000000
 41
0.000000
 66
  1
  0
VERTEX
  8
mb694
 10
0.155000
 20
1.127000
  0
VERTEX
  8
mb694
 10
0.155000
 20
1.138000
  0
SEQEND
  8
mb694
  0
POLYLINE
  8
mb694
 62
4
 40
0.000000
 41
0.000000
 66
  1
  0
VERTEX
  8
mb694
 10
0.155000
 20
1.159000
  0
VERTEX
  8
mb694
 10
0.155000
 20
1.170000
  0
SEQEND
  8
mb694
  0
POLYLINE
  8
mb694
 62
4
 40
0.000000
 41
0.000000
 66
  1
  0
VERTEX
  8
mb694
 10
0.155000
 20
1.178000
  0
VERTEX
  8
mb694
 10
0.155000
 20
1.189000
  0
SEQEND
  8
mb694
  0
POLYLINE
  8
mb694
 62
4
 40
0.000000
 41
0.000000
 66
  1
  0
VERTEX
  8
mb694
 10
0.146000
 20
0.719000
  0
VERTEX
  8
mb694
 10
0.146000
 20
0.749000
  0
SEQEND
  8
mb694
  0
POLYLINE
  8
mb694
 62
4
 40
0.000000
 41
0.000000
 66
  1
  0
VERTEX
  8
mb694
 10
0.154000
 20
1.037000
  0
VERTEX
  8
mb694
 10
0.154000
 20
1.088000
  0
SEQEND
  8
mb694
  0
POLYLINE
  8
mb694
 62
4
 40
0.000000
 41
0.000000
 66
  1
  0
VERTEX
  8
mb694
 10
0.154000
 20
1.108000
  0
VERTEX
  8
mb694
 10
0.154000
 20
1.119000
  0
SEQEND
  8
mb694
  0
POLYLINE
  8
mb694
 62
4
 40
0.000000
 41
0.000000
 66
  1
  0
VERTEX
  8
mb694
 10
0.154000
 20
1.127000
  0
VERTEX
  8
mb694
 10
0.154000
 20
1.138000
  0
SEQEND
  8
mb694
  0
POLYLINE
  8
mb694
 62
4
 40
0.000000
 41
0.000000
 66
  1
  0
VERTEX
  8
mb694
 10
0.154000
 20
1.159000
  0
VERTEX
  8
mb694
 10
0.154000
 20
1.170000
  0
SEQEND
  8
mb694
  0
POLYLINE
  8
mb694
 62
4
 40
0.000000
 41
0.000000
 66
  1
  0
VERTEX
  8
mb694
 10
0.154000
 20
1.178000
  0
VERTEX
  8
mb694
 10
0.154000
 20
1.189000
  0
SEQEND
  8
mb694
  0
POLYLINE
  8
mb694
 62
4
 40
0.000000
 41
0.000000
 66
  1
  0
VERTEX
  8
mb694
 10
0.145000
 20
0.718000
  0
VERTEX
  8
mb694
 10
0.145000
 20
0.749000
  0
SEQEND
  8
mb694
  0
POLYLINE
  8
mb694
 62
4
 40
0.000000
 41
0.000000
 66
  1
  0
VERTEX
  8
mb694
 10
0.153000
 20
1.036000
  0
VERTEX
  8
mb694
 10
0.153000
 20
1.088000
  0
SEQEND
  8
mb694
  0
POLYLINE
  8
mb694
 62
4
 40
0.000000
 41
0.000000
 66
  1
  0
VERTEX
  8
mb694
 10
0.153000
 20
1.108000
  0
VERTEX
  8
mb694
 10
0.153000
 20
1.119000
  0
SEQEND
  8
mb694
  0
POLYLINE
  8
mb694
 62
4
 40
0.000000
 41
0.000000
 66
  1
  0
VERTEX
  8
mb694
 10
0.153000
 20
1.127000
  0
VERTEX
  8
mb694
 10
0.153000
 20
1.139000
  0
SEQEND
  8
mb694
  0
POLYLINE
  8
mb694
 62
4
 40
0.000000
 41
0.000000
 66
  1
  0
VERTEX
  8
mb694
 10
0.153000
 20
1.158000
  0
VERTEX
  8
mb694
 10
0.153000
 20
1.170000
  0
SEQEND
  8
mb694
  0
POLYLINE
  8
mb694
 62
4
 40
0.000000
 41
0.000000
 66
  1
  0
VERTEX
  8
mb694
 10
0.153000
 20
1.178000
  0
VERTEX
  8
mb694
 10
0.153000
 20
1.189000
  0
SEQEND
  8
mb694
  0
POLYLINE
  8
mb694
 62
4
 40
0.000000
 41
0.000000
 66
  1
  0
VERTEX
  8
mb694
 10
0.144000
 20
0.717000
  0
VERTEX
  8
mb694
 10
0.144000
 20
0.728000
  0
SEQEND
  8
mb694
  0
POLYLINE
  8
mb694
 62
4
 40
0.000000
 41
0.000000
 66
  1
  0
VERTEX
  8
mb694
 10
0.144000
 20
0.743000
  0
VERTEX
  8
mb694
 10
0.144000
 20
0.749000
  0
SEQEND
  8
mb694
  0
POLYLINE
  8
mb694
 62
4
 40
0.000000
 41
0.000000
 66
  1
  0
VERTEX
  8
mb694
 10
0.152000
 20
1.034000
  0
VERTEX
  8
mb694
 10
0.152000
 20
1.088000
  0
SEQEND
  8
mb694
  0
POLYLINE
  8
mb694
 62
4
 40
0.000000
 41
0.000000
 66
  1
  0
VERTEX
  8
mb694
 10
0.152000
 20
1.108000
  0
VERTEX
  8
mb694
 10
0.152000
 20
1.119000
  0
SEQEND
  8
mb694
  0
POLYLINE
  8
mb694
 62
4
 40
0.000000
 41
0.000000
 66
  1
  0
VERTEX
  8
mb694
 10
0.152000
 20
1.128000
  0
VERTEX
  8
mb694
 10
0.152000
 20
1.139000
  0
SEQEND
  8
mb694
  0
POLYLINE
  8
mb694
 62
4
 40
0.000000
 41
0.000000
 66
  1
  0
VERTEX
  8
mb694
 10
0.152000
 20
1.158000
  0
VERTEX
  8
mb694
 10
0.152000
 20
1.169000
  0
SEQEND
  8
mb694
  0
POLYLINE
  8
mb694
 62
4
 40
0.000000
 41
0.000000
 66
  1
  0
VERTEX
  8
mb694
 10
0.152000
 20
1.178000
  0
VERTEX
  8
mb694
 10
0.152000
 20
1.189000
  0
SEQEND
  8
mb694
  0
POLYLINE
  8
mb694
 62
4
 40
0.000000
 41
0.000000
 66
  1
  0
VERTEX
  8
mb694
 10
0.143000
 20
0.717000
  0
VERTEX
  8
mb694
 10
0.143000
 20
0.725000
  0
SEQEND
  8
mb694
  0
POLYLINE
  8
mb694
 62
4
 40
0.000000
 41
0.000000
 66
  1
  0
VERTEX
  8
mb694
 10
0.143000
 20
0.743000
  0
VERTEX
  8
mb694
 10
0.143000
 20
0.749000
  0
SEQEND
  8
mb694
  0
POLYLINE
  8
mb694
 62
4
 40
0.000000
 41
0.000000
 66
  1
  0
VERTEX
  8
mb694
 10
0.151000
 20
1.033000
  0
VERTEX
  8
mb694
 10
0.151000
 20
1.088000
  0
SEQEND
  8
mb694
  0
POLYLINE
  8
mb694
 62
4
 40
0.000000
 41
0.000000
 66
  1
  0
VERTEX
  8
mb694
 10
0.151000
 20
1.108000
  0
VERTEX
  8
mb694
 10
0.151000
 20
1.119000
  0
SEQEND
  8
mb694
  0
POLYLINE
  8
mb694
 62
4
 40
0.000000
 41
0.000000
 66
  1
  0
VERTEX
  8
mb694
 10
0.151000
 20
1.128000
  0
VERTEX
  8
mb694
 10
0.151000
 20
1.139000
  0
SEQEND
  8
mb694
  0
POLYLINE
  8
mb694
 62
4
 40
0.000000
 41
0.000000
 66
  1
  0
VERTEX
  8
mb694
 10
0.151000
 20
1.158000
  0
VERTEX
  8
mb694
 10
0.151000
 20
1.169000
  0
SEQEND
  8
mb694
  0
POLYLINE
  8
mb694
 62
4
 40
0.000000
 41
0.000000
 66
  1
  0
VERTEX
  8
mb694
 10
0.151000
 20
1.178000
  0
VERTEX
  8
mb694
 10
0.151000
 20
1.189000
  0
SEQEND
  8
mb694
  0
POLYLINE
  8
mb694
 62
4
 40
0.000000
 41
0.000000
 66
  1
  0
VERTEX
  8
mb694
 10
0.142000
 20
0.716000
  0
VERTEX
  8
mb694
 10
0.142000
 20
0.724000
  0
SEQEND
  8
mb694
  0
POLYLINE
  8
mb694
 62
4
 40
0.000000
 41
0.000000
 66
  1
  0
VERTEX
  8
mb694
 10
0.142000
 20
0.743000
  0
VERTEX
  8
mb694
 10
0.142000
 20
0.749000
  0
SEQEND
  8
mb694
  0
POLYLINE
  8
mb694
 62
4
 40
0.000000
 41
0.000000
 66
  1
  0
VERTEX
  8
mb694
 10
0.150000
 20
1.031000
  0
VERTEX
  8
mb694
 10
0.150000
 20
1.088000
  0
SEQEND
  8
mb694
  0
POLYLINE
  8
mb694
 62
4
 40
0.000000
 41
0.000000
 66
  1
  0
VERTEX
  8
mb694
 10
0.150000
 20
1.108000
  0
VERTEX
  8
mb694
 10
0.150000
 20
1.119000
  0
SEQEND
  8
mb694
  0
POLYLINE
  8
mb694
 62
4
 40
0.000000
 41
0.000000
 66
  1
  0
VERTEX
  8
mb694
 10
0.150000
 20
1.128000
  0
VERTEX
  8
mb694
 10
0.150000
 20
1.139000
  0
SEQEND
  8
mb694
  0
POLYLINE
  8
mb694
 62
4
 40
0.000000
 41
0.000000
 66
  1
  0
VERTEX
  8
mb694
 10
0.150000
 20
1.157000
  0
VERTEX
  8
mb694
 10
0.150000
 20
1.169000
  0
SEQEND
  8
mb694
  0
POLYLINE
  8
mb694
 62
4
 40
0.000000
 41
0.000000
 66
  1
  0
VERTEX
  8
mb694
 10
0.150000
 20
1.178000
  0
VERTEX
  8
mb694
 10
0.150000
 20
1.189000
  0
SEQEND
  8
mb694
  0
POLYLINE
  8
mb694
 62
4
 40
0.000000
 41
0.000000
 66
  1
  0
VERTEX
  8
mb694
 10
0.141000
 20
0.716000
  0
VERTEX
  8
mb694
 10
0.141000
 20
0.723000
  0
SEQEND
  8
mb694
  0
POLYLINE
  8
mb694
 62
4
 40
0.000000
 41
0.000000
 66
  1
  0
VERTEX
  8
mb694
 10
0.141000
 20
0.743000
  0
VERTEX
  8
mb694
 10
0.141000
 20
0.749000
  0
SEQEND
  8
mb694
  0
POLYLINE
  8
mb694
 62
4
 40
0.000000
 41
0.000000
 66
  1
  0
VERTEX
  8
mb694
 10
0.149000
 20
1.030000
  0
VERTEX
  8
mb694
 10
0.149000
 20
1.088000
  0
SEQEND
  8
mb694
  0
POLYLINE
  8
mb694
 62
4
 40
0.000000
 41
0.000000
 66
  1
  0
VERTEX
  8
mb694
 10
0.149000
 20
1.108000
  0
VERTEX
  8
mb694
 10
0.149000
 20
1.119000
  0
SEQEND
  8
mb694
  0
POLYLINE
  8
mb694
 62
4
 40
0.000000
 41
0.000000
 66
  1
  0
VERTEX
  8
mb694
 10
0.149000
 20
1.129000
  0
VERTEX
  8
mb694
 10
0.149000
 20
1.140000
  0
SEQEND
  8
mb694
  0
POLYLINE
  8
mb694
 62
4
 40
0.000000
 41
0.000000
 66
  1
  0
VERTEX
  8
mb694
 10
0.149000
 20
1.157000
  0
VERTEX
  8
mb694
 10
0.149000
 20
1.168000
  0
SEQEND
  8
mb694
  0
POLYLINE
  8
mb694
 62
4
 40
0.000000
 41
0.000000
 66
  1
  0
VERTEX
  8
mb694
 10
0.149000
 20
1.178000
  0
VERTEX
  8
mb694
 10
0.149000
 20
1.189000
  0
SEQEND
  8
mb694
  0
POLYLINE
  8
mb694
 62
4
 40
0.000000
 41
0.000000
 66
  1
  0
VERTEX
  8
mb694
 10
0.140000
 20
0.716000
  0
VERTEX
  8
mb694
 10
0.140000
 20
0.723000
  0
SEQEND
  8
mb694
  0
POLYLINE
  8
mb694
 62
4
 40
0.000000
 41
0.000000
 66
  1
  0
VERTEX
  8
mb694
 10
0.140000
 20
0.743000
  0
VERTEX
  8
mb694
 10
0.140000
 20
0.749000
  0
SEQEND
  8
mb694
  0
POLYLINE
  8
mb694
 62
4
 40
0.000000
 41
0.000000
 66
  1
  0
VERTEX
  8
mb694
 10
0.148000
 20
1.029000
  0
VERTEX
  8
mb694
 10
0.148000
 20
1.088000
  0
SEQEND
  8
mb694
  0
POLYLINE
  8
mb694
 62
4
 40
0.000000
 41
0.000000
 66
  1
  0
VERTEX
  8
mb694
 10
0.148000
 20
1.108000
  0
VERTEX
  8
mb694
 10
0.148000
 20
1.119000
  0
SEQEND
  8
mb694
  0
POLYLINE
  8
mb694
 62
4
 40
0.000000
 41
0.000000
 66
  1
  0
VERTEX
  8
mb694
 10
0.148000
 20
1.129000
  0
VERTEX
  8
mb694
 10
0.148000
 20
1.140000
  0
SEQEND
  8
mb694
  0
POLYLINE
  8
mb694
 62
4
 40
0.000000
 41
0.000000
 66
  1
  0
VERTEX
  8
mb694
 10
0.148000
 20
1.157000
  0
VERTEX
  8
mb694
 10
0.148000
 20
1.168000
  0
SEQEND
  8
mb694
  0
POLYLINE
  8
mb694
 62
4
 40
0.000000
 41
0.000000
 66
  1
  0
VERTEX
  8
mb694
 10
0.148000
 20
1.178000
  0
VERTEX
  8
mb694
 10
0.148000
 20
1.189000
  0
SEQEND
  8
mb694
  0
POLYLINE
  8
mb694
 62
4
 40
0.000000
 41
0.000000
 66
  1
  0
VERTEX
  8
mb694
 10
0.139000
 20
0.716000
  0
VERTEX
  8
mb694
 10
0.139000
 20
0.723000
  0
SEQEND
  8
mb694
  0
POLYLINE
  8
mb694
 62
4
 40
0.000000
 41
0.000000
 66
  1
  0
VERTEX
  8
mb694
 10
0.139000
 20
0.743000
  0
VERTEX
  8
mb694
 10
0.139000
 20
0.749000
  0
SEQEND
  8
mb694
  0
POLYLINE
  8
mb694
 62
4
 40
0.000000
 41
0.000000
 66
  1
  0
VERTEX
  8
mb694
 10
0.147000
 20
1.028000
  0
VERTEX
  8
mb694
 10
0.147000
 20
1.052000
  0
SEQEND
  8
mb694
  0
POLYLINE
  8
mb694
 62
4
 40
0.000000
 41
0.000000
 66
  1
  0
VERTEX
  8
mb694
 10
0.147000
 20
1.077000
  0
VERTEX
  8
mb694
 10
0.147000
 20
1.088000
  0
SEQEND
  8
mb694
  0
POLYLINE
  8
mb694
 62
4
 40
0.000000
 41
0.000000
 66
  1
  0
VERTEX
  8
mb694
 10
0.147000
 20
1.108000
  0
VERTEX
  8
mb694
 10
0.147000
 20
1.119000
  0
SEQEND
  8
mb694
  0
POLYLINE
  8
mb694
 62
4
 40
0.000000
 41
0.000000
 66
  1
  0
VERTEX
  8
mb694
 10
0.147000
 20
1.129000
  0
VERTEX
  8
mb694
 10
0.147000
 20
1.140000
  0
SEQEND
  8
mb694
  0
POLYLINE
  8
mb694
 62
4
 40
0.000000
 41
0.000000
 66
  1
  0
VERTEX
  8
mb694
 10
0.147000
 20
1.157000
  0
VERTEX
  8
mb694
 10
0.147000
 20
1.168000
  0
SEQEND
  8
mb694
  0
POLYLINE
  8
mb694
 62
4
 40
0.000000
 41
0.000000
 66
  1
  0
VERTEX
  8
mb694
 10
0.147000
 20
1.178000
  0
VERTEX
  8
mb694
 10
0.147000
 20
1.189000
  0
SEQEND
  8
mb694
  0
POLYLINE
  8
mb694
 62
4
 40
0.000000
 41
0.000000
 66
  1
  0
VERTEX
  8
mb694
 10
0.138000
 20
0.689000
  0
VERTEX
  8
mb694
 10
0.138000
 20
0.700000
  0
SEQEND
  8
mb694
  0
POLYLINE
  8
mb694
 62
4
 40
0.000000
 41
0.000000
 66
  1
  0
VERTEX
  8
mb694
 10
0.138000
 20
0.716000
  0
VERTEX
  8
mb694
 10
0.138000
 20
0.722000
  0
SEQEND
  8
mb694
  0
POLYLINE
  8
mb694
 62
4
 40
0.000000
 41
0.000000
 66
  1
  0
VERTEX
  8
mb694
 10
0.138000
 20
0.743000
  0
VERTEX
  8
mb694
 10
0.138000
 20
0.749000
  0
SEQEND
  8
mb694
  0
POLYLINE
  8
mb694
 62
4
 40
0.000000
 41
0.000000
 66
  1
  0
VERTEX
  8
mb694
 10
0.146000
 20
1.028000
  0
VERTEX
  8
mb694
 10
0.146000
 20
1.045000
  0
SEQEND
  8
mb694
  0
POLYLINE
  8
mb694
 62
4
 40
0.000000
 41
0.000000
 66
  1
  0
VERTEX
  8
mb694
 10
0.146000
 20
1.077000
  0
VERTEX
  8
mb694
 10
0.146000
 20
1.088000
  0
SEQEND
  8
mb694
  0
POLYLINE
  8
mb694
 62
4
 40
0.000000
 41
0.000000
 66
  1
  0
VERTEX
  8
mb694
 10
0.146000
 20
1.108000
  0
VERTEX
  8
mb694
 10
0.146000
 20
1.119000
  0
SEQEND
  8
mb694
  0
POLYLINE
  8
mb694
 62
4
 40
0.000000
 41
0.000000
 66
  1
  0
VERTEX
  8
mb694
 10
0.146000
 20
1.130000
  0
VERTEX
  8
mb694
 10
0.146000
 20
1.141000
  0
SEQEND
  8
mb694
  0
POLYLINE
  8
mb694
 62
4
 40
0.000000
 41
0.000000
 66
  1
  0
VERTEX
  8
mb694
 10
0.146000
 20
1.156000
  0
VERTEX
  8
mb694
 10
0.146000
 20
1.168000
  0
SEQEND
  8
mb694
  0
POLYLINE
  8
mb694
 62
4
 40
0.000000
 41
0.000000
 66
  1
  0
VERTEX
  8
mb694
 10
0.146000
 20
1.178000
  0
VERTEX
  8
mb694
 10
0.146000
 20
1.189000
  0
SEQEND
  8
mb694
  0
POLYLINE
  8
mb694
 62
4
 40
0.000000
 41
0.000000
 66
  1
  0
VERTEX
  8
mb694
 10
0.137000
 20
0.648000
  0
VERTEX
  8
mb694
 10
0.137000
 20
0.654000
  0
SEQEND
  8
mb694
  0
POLYLINE
  8
mb694
 62
4
 40
0.000000
 41
0.000000
 66
  1
  0
VERTEX
  8
mb694
 10
0.137000
 20
0.671000
  0
VERTEX
  8
mb694
 10
0.137000
 20
0.677000
  0
SEQEND
  8
mb694
  0
POLYLINE
  8
mb694
 62
4
 40
0.000000
 41
0.000000
 66
  1
  0
VERTEX
  8
mb694
 10
0.137000
 20
0.687000
  0
VERTEX
  8
mb694
 10
0.137000
 20
0.702000
  0
SEQEND
  8
mb694
  0
POLYLINE
  8
mb694
 62
4
 40
0.000000
 41
0.000000
 66
  1
  0
VERTEX
  8
mb694
 10
0.137000
 20
0.716000
  0
VERTEX
  8
mb694
 10
0.137000
 20
0.722000
  0
SEQEND
  8
mb694
  0
POLYLINE
  8
mb694
 62
4
 40
0.000000
 41
0.000000
 66
  1
  0
VERTEX
  8
mb694
 10
0.137000
 20
0.743000
  0
VERTEX
  8
mb694
 10
0.137000
 20
0.749000
  0
SEQEND
  8
mb694
  0
POLYLINE
  8
mb694
 62
4
 40
0.000000
 41
0.000000
 66
  1
  0
VERTEX
  8
mb694
 10
0.145000
 20
1.027000
  0
VERTEX
  8
mb694
 10
0.145000
 20
1.042000
  0
SEQEND
  8
mb694
  0
POLYLINE
  8
mb694
 62
4
 40
0.000000
 41
0.000000
 66
  1
  0
VERTEX
  8
mb694
 10
0.145000
 20
1.077000
  0
VERTEX
  8
mb694
 10
0.145000
 20
1.088000
  0
SEQEND
  8
mb694
  0
POLYLINE
  8
mb694
 62
4
 40
0.000000
 41
0.000000
 66
  1
  0
VERTEX
  8
mb694
 10
0.145000
 20
1.108000
  0
VERTEX
  8
mb694
 10
0.145000
 20
1.119000
  0
SEQEND
  8
mb694
  0
POLYLINE
  8
mb694
 62
4
 40
0.000000
 41
0.000000
 66
  1
  0
VERTEX
  8
mb694
 10
0.145000
 20
1.130000
  0
VERTEX
  8
mb694
 10
0.145000
 20
1.141000
  0
SEQEND
  8
mb694
  0
POLYLINE
  8
mb694
 62
4
 40
0.000000
 41
0.000000
 66
  1
  0
VERTEX
  8
mb694
 10
0.145000
 20
1.156000
  0
VERTEX
  8
mb694
 10
0.145000
 20
1.167000
  0
SEQEND
  8
mb694
  0
POLYLINE
  8
mb694
 62
4
 40
0.000000
 41
0.000000
 66
  1
  0
VERTEX
  8
mb694
 10
0.145000
 20
1.178000
  0
VERTEX
  8
mb694
 10
0.145000
 20
1.189000
  0
SEQEND
  8
mb694
  0
POLYLINE
  8
mb694
 62
4
 40
0.000000
 41
0.000000
 66
  1
  0
VERTEX
  8
mb694
 10
0.136000
 20
0.648000
  0
VERTEX
  8
mb694
 10
0.136000
 20
0.654000
  0
SEQEND
  8
mb694
  0
POLYLINE
  8
mb694
 62
4
 40
0.000000
 41
0.000000
 66
  1
  0
VERTEX
  8
mb694
 10
0.136000
 20
0.671000
  0
VERTEX
  8
mb694
 10
0.136000
 20
0.677000
  0
SEQEND
  8
mb694
  0
POLYLINE
  8
mb694
 62
4
 40
0.000000
 41
0.000000
 66
  1
  0
VERTEX
  8
mb694
 10
0.136000
 20
0.685000
  0
VERTEX
  8
mb694
 10
0.136000
 20
0.703000
  0
SEQEND
  8
mb694
  0
POLYLINE
  8
mb694
 62
4
 40
0.000000
 41
0.000000
 66
  1
  0
VERTEX
  8
mb694
 10
0.136000
 20
0.716000
  0
VERTEX
  8
mb694
 10
0.136000
 20
0.723000
  0
SEQEND
  8
mb694
  0
POLYLINE
  8
mb694
 62
4
 40
0.000000
 41
0.000000
 66
  1
  0
VERTEX
  8
mb694
 10
0.136000
 20
0.743000
  0
VERTEX
  8
mb694
 10
0.136000
 20
0.749000
  0
SEQEND
  8
mb694
  0
POLYLINE
  8
mb694
 62
4
 40
0.000000
 41
0.000000
 66
  1
  0
VERTEX
  8
mb694
 10
0.144000
 20
1.026000
  0
VERTEX
  8
mb694
 10
0.144000
 20
1.041000
  0
SEQEND
  8
mb694
  0
POLYLINE
  8
mb694
 62
4
 40
0.000000
 41
0.000000
 66
  1
  0
VERTEX
  8
mb694
 10
0.144000
 20
1.077000
  0
VERTEX
  8
mb694
 10
0.144000
 20
1.088000
  0
SEQEND
  8
mb694
  0
POLYLINE
  8
mb694
 62
4
 40
0.000000
 41
0.000000
 66
  1
  0
VERTEX
  8
mb694
 10
0.144000
 20
1.108000
  0
VERTEX
  8
mb694
 10
0.144000
 20
1.119000
  0
SEQEND
  8
mb694
  0
POLYLINE
  8
mb694
 62
4
 40
0.000000
 41
0.000000
 66
  1
  0
VERTEX
  8
mb694
 10
0.144000
 20
1.130000
  0
VERTEX
  8
mb694
 10
0.144000
 20
1.141000
  0
SEQEND
  8
mb694
  0
POLYLINE
  8
mb694
 62
4
 40
0.000000
 41
0.000000
 66
  1
  0
VERTEX
  8
mb694
 10
0.144000
 20
1.156000
  0
VERTEX
  8
mb694
 10
0.144000
 20
1.167000
  0
SEQEND
  8
mb694
  0
POLYLINE
  8
mb694
 62
4
 40
0.000000
 41
0.000000
 66
  1
  0
VERTEX
  8
mb694
 10
0.144000
 20
1.178000
  0
VERTEX
  8
mb694
 10
0.144000
 20
1.189000
  0
SEQEND
  8
mb694
  0
POLYLINE
  8
mb694
 62
4
 40
0.000000
 41
0.000000
 66
  1
  0
VERTEX
  8
mb694
 10
0.135000
 20
0.649000
  0
VERTEX
  8
mb694
 10
0.135000
 20
0.655000
  0
SEQEND
  8
mb694
  0
POLYLINE
  8
mb694
 62
4
 40
0.000000
 41
0.000000
 66
  1
  0
VERTEX
  8
mb694
 10
0.135000
 20
0.670000
  0
VERTEX
  8
mb694
 10
0.135000
 20
0.676000
  0
SEQEND
  8
mb694
  0
POLYLINE
  8
mb694
 62
4
 40
0.000000
 41
0.000000
 66
  1
  0
VERTEX
  8
mb694
 10
0.135000
 20
0.684000
  0
VERTEX
  8
mb694
 10
0.135000
 20
0.705000
  0
SEQEND
  8
mb694
  0
POLYLINE
  8
mb694
 62
4
 40
0.000000
 41
0.000000
 66
  1
  0
VERTEX
  8
mb694
 10
0.135000
 20
0.716000
  0
VERTEX
  8
mb694
 10
0.135000
 20
0.723000
  0
SEQEND
  8
mb694
  0
POLYLINE
  8
mb694
 62
4
 40
0.000000
 41
0.000000
 66
  1
  0
VERTEX
  8
mb694
 10
0.135000
 20
0.743000
  0
VERTEX
  8
mb694
 10
0.135000
 20
0.749000
  0
SEQEND
  8
mb694
  0
POLYLINE
  8
mb694
 62
4
 40
0.000000
 41
0.000000
 66
  1
  0
VERTEX
  8
mb694
 10
0.143000
 20
1.026000
  0
VERTEX
  8
mb694
 10
0.143000
 20
1.039000
  0
SEQEND
  8
mb694
  0
POLYLINE
  8
mb694
 62
4
 40
0.000000
 41
0.000000
 66
  1
  0
VERTEX
  8
mb694
 10
0.143000
 20
1.077000
  0
VERTEX
  8
mb694
 10
0.143000
 20
1.088000
  0
SEQEND
  8
mb694
  0
POLYLINE
  8
mb694
 62
4
 40
0.000000
 41
0.000000
 66
  1
  0
VERTEX
  8
mb694
 10
0.143000
 20
1.108000
  0
VERTEX
  8
mb694
 10
0.143000
 20
1.119000
  0
SEQEND
  8
mb694
  0
POLYLINE
  8
mb694
 62
4
 40
0.000000
 41
0.000000
 66
  1
  0
VERTEX
  8
mb694
 10
0.143000
 20
1.130000
  0
VERTEX
  8
mb694
 10
0.143000
 20
1.142000
  0
SEQEND
  8
mb694
  0
POLYLINE
  8
mb694
 62
4
 40
0.000000
 41
0.000000
 66
  1
  0
VERTEX
  8
mb694
 10
0.143000
 20
1.155000
  0
VERTEX
  8
mb694
 10
0.143000
 20
1.167000
  0
SEQEND
  8
mb694
  0
POLYLINE
  8
mb694
 62
4
 40
0.000000
 41
0.000000
 66
  1
  0
VERTEX
  8
mb694
 10
0.143000
 20
1.178000
  0
VERTEX
  8
mb694
 10
0.143000
 20
1.189000
  0
SEQEND
  8
mb694
  0
POLYLINE
  8
mb694
 62
4
 40
0.000000
 41
0.000000
 66
  1
  0
VERTEX
  8
mb694
 10
0.134000
 20
0.649000
  0
VERTEX
  8
mb694
 10
0.134000
 20
0.655000
  0
SEQEND
  8
mb694
  0
POLYLINE
  8
mb694
 62
4
 40
0.000000
 41
0.000000
 66
  1
  0
VERTEX
  8
mb694
 10
0.134000
 20
0.670000
  0
VERTEX
  8
mb694
 10
0.134000
 20
0.676000
  0
SEQEND
  8
mb694
  0
POLYLINE
  8
mb694
 62
4
 40
0.000000
 41
0.000000
 66
  1
  0
VERTEX
  8
mb694
 10
0.134000
 20
0.683000
  0
VERTEX
  8
mb694
 10
0.134000
 20
0.705000
  0
SEQEND
  8
mb694
  0
POLYLINE
  8
mb694
 62
4
 40
0.000000
 41
0.000000
 66
  1
  0
VERTEX
  8
mb694
 10
0.134000
 20
0.716000
  0
VERTEX
  8
mb694
 10
0.134000
 20
0.723000
  0
SEQEND
  8
mb694
  0
POLYLINE
  8
mb694
 62
4
 40
0.000000
 41
0.000000
 66
  1
  0
VERTEX
  8
mb694
 10
0.134000
 20
0.743000
  0
VERTEX
  8
mb694
 10
0.134000
 20
0.749000
  0
SEQEND
  8
mb694
  0
POLYLINE
  8
mb694
 62
4
 40
0.000000
 41
0.000000
 66
  1
  0
VERTEX
  8
mb694
 10
0.142000
 20
1.025000
  0
VERTEX
  8
mb694
 10
0.142000
 20
1.038000
  0
SEQEND
  8
mb694
  0
POLYLINE
  8
mb694
 62
4
 40
0.000000
 41
0.000000
 66
  1
  0
VERTEX
  8
mb694
 10
0.142000
 20
1.077000
  0
VERTEX
  8
mb694
 10
0.142000
 20
1.088000
  0
SEQEND
  8
mb694
  0
POLYLINE
  8
mb694
 62
4
 40
0.000000
 41
0.000000
 66
  1
  0
VERTEX
  8
mb694
 10
0.142000
 20
1.108000
  0
VERTEX
  8
mb694
 10
0.142000
 20
1.119000
  0
SEQEND
  8
mb694
  0
POLYLINE
  8
mb694
 62
4
 40
0.000000
 41
0.000000
 66
  1
  0
VERTEX
  8
mb694
 10
0.142000
 20
1.131000
  0
VERTEX
  8
mb694
 10
0.142000
 20
1.142000
  0
SEQEND
  8
mb694
  0
POLYLINE
  8
mb694
 62
4
 40
0.000000
 41
0.000000
 66
  1
  0
VERTEX
  8
mb694
 10
0.142000
 20
1.155000
  0
VERTEX
  8
mb694
 10
0.142000
 20
1.166000
  0
SEQEND
  8
mb694
  0
POLYLINE
  8
mb694
 62
4
 40
0.000000
 41
0.000000
 66
  1
  0
VERTEX
  8
mb694
 10
0.142000
 20
1.178000
  0
VERTEX
  8
mb694
 10
0.142000
 20
1.189000
  0
SEQEND
  8
mb694
  0
POLYLINE
  8
mb694
 62
4
 40
0.000000
 41
0.000000
 66
  1
  0
VERTEX
  8
mb694
 10
0.133000
 20
0.649000
  0
VERTEX
  8
mb694
 10
0.133000
 20
0.655000
  0
SEQEND
  8
mb694
  0
POLYLINE
  8
mb694
 62
4
 40
0.000000
 41
0.000000
 66
  1
  0
VERTEX
  8
mb694
 10
0.133000
 20
0.670000
  0
VERTEX
  8
mb694
 10
0.133000
 20
0.676000
  0
SEQEND
  8
mb694
  0
POLYLINE
  8
mb694
 62
4
 40
0.000000
 41
0.000000
 66
  1
  0
VERTEX
  8
mb694
 10
0.133000
 20
0.683000
  0
VERTEX
  8
mb694
 10
0.133000
 20
0.693000
  0
SEQEND
  8
mb694
  0
POLYLINE
  8
mb694
 62
4
 40
0.000000
 41
0.000000
 66
  1
  0
VERTEX
  8
mb694
 10
0.133000
 20
0.696000
  0
VERTEX
  8
mb694
 10
0.133000
 20
0.706000
  0
SEQEND
  8
mb694
  0
POLYLINE
  8
mb694
 62
4
 40
0.000000
 41
0.000000
 66
  1
  0
VERTEX
  8
mb694
 10
0.133000
 20
0.716000
  0
VERTEX
  8
mb694
 10
0.133000
 20
0.724000
  0
SEQEND
  8
mb694
  0
POLYLINE
  8
mb694
 62
4
 40
0.000000
 41
0.000000
 66
  1
  0
VERTEX
  8
mb694
 10
0.133000
 20
0.743000
  0
VERTEX
  8
mb694
 10
0.133000
 20
0.749000
  0
SEQEND
  8
mb694
  0
POLYLINE
  8
mb694
 62
4
 40
0.000000
 41
0.000000
 66
  1
  0
VERTEX
  8
mb694
 10
0.141000
 20
1.025000
  0
VERTEX
  8
mb694
 10
0.141000
 20
1.038000
  0
SEQEND
  8
mb694
  0
POLYLINE
  8
mb694
 62
4
 40
0.000000
 41
0.000000
 66
  1
  0
VERTEX
  8
mb694
 10
0.141000
 20
1.077000
  0
VERTEX
  8
mb694
 10
0.141000
 20
1.088000
  0
SEQEND
  8
mb694
  0
POLYLINE
  8
mb694
 62
4
 40
0.000000
 41
0.000000
 66
  1
  0
VERTEX
  8
mb694
 10
0.141000
 20
1.108000
  0
VERTEX
  8
mb694
 10
0.141000
 20
1.119000
  0
SEQEND
  8
mb694
  0
POLYLINE
  8
mb694
 62
4
 40
0.000000
 41
0.000000
 66
  1
  0
VERTEX
  8
mb694
 10
0.141000
 20
1.131000
  0
VERTEX
  8
mb694
 10
0.141000
 20
1.142000
  0
SEQEND
  8
mb694
  0
POLYLINE
  8
mb694
 62
4
 40
0.000000
 41
0.000000
 66
  1
  0
VERTEX
  8
mb694
 10
0.141000
 20
1.155000
  0
VERTEX
  8
mb694
 10
0.141000
 20
1.166000
  0
SEQEND
  8
mb694
  0
POLYLINE
  8
mb694
 62
4
 40
0.000000
 41
0.000000
 66
  1
  0
VERTEX
  8
mb694
 10
0.141000
 20
1.178000
  0
VERTEX
  8
mb694
 10
0.141000
 20
1.189000
  0
SEQEND
  8
mb694
  0
POLYLINE
  8
mb694
 62
4
 40
0.000000
 41
0.000000
 66
  1
  0
VERTEX
  8
mb694
 10
0.132000
 20
0.650000
  0
VERTEX
  8
mb694
 10
0.132000
 20
0.656000
  0
SEQEND
  8
mb694
  0
POLYLINE
  8
mb694
 62
4
 40
0.000000
 41
0.000000
 66
  1
  0
VERTEX
  8
mb694
 10
0.132000
 20
0.669000
  0
VERTEX
  8
mb694
 10
0.132000
 20
0.675000
  0
SEQEND
  8
mb694
  0
POLYLINE
  8
mb694
 62
4
 40
0.000000
 41
0.000000
 66
  1
  0
VERTEX
  8
mb694
 10
0.132000
 20
0.682000
  0
VERTEX
  8
mb694
 10
0.132000
 20
0.689000
  0
SEQEND
  8
mb694
  0
POLYLINE
  8
mb694
 62
4
 40
0.000000
 41
0.000000
 66
  1
  0
VERTEX
  8
mb694
 10
0.132000
 20
0.699000
  0
VERTEX
  8
mb694
 10
0.132000
 20
0.707000
  0
SEQEND
  8
mb694
  0
POLYLINE
  8
mb694
 62
4
 40
0.000000
 41
0.000000
 66
  1
  0
VERTEX
  8
mb694
 10
0.132000
 20
0.717000
  0
VERTEX
  8
mb694
 10
0.132000
 20
0.725000
  0
SEQEND
  8
mb694
  0
POLYLINE
  8
mb694
 62
4
 40
0.000000
 41
0.000000
 66
  1
  0
VERTEX
  8
mb694
 10
0.132000
 20
0.743000
  0
VERTEX
  8
mb694
 10
0.132000
 20
0.749000
  0
SEQEND
  8
mb694
  0
POLYLINE
  8
mb694
 62
4
 40
0.000000
 41
0.000000
 66
  1
  0
VERTEX
  8
mb694
 10
0.140000
 20
1.025000
  0
VERTEX
  8
mb694
 10
0.140000
 20
1.037000
  0
SEQEND
  8
mb694
  0
POLYLINE
  8
mb694
 62
4
 40
0.000000
 41
0.000000
 66
  1
  0
VERTEX
  8
mb694
 10
0.140000
 20
1.077000
  0
VERTEX
  8
mb694
 10
0.140000
 20
1.088000
  0
SEQEND
  8
mb694
  0
POLYLINE
  8
mb694
 62
4
 40
0.000000
 41
0.000000
 66
  1
  0
VERTEX
  8
mb694
 10
0.140000
 20
1.108000
  0
VERTEX
  8
mb694
 10
0.140000
 20
1.119000
  0
SEQEND
  8
mb694
  0
POLYLINE
  8
mb694
 62
4
 40
0.000000
 41
0.000000
 66
  1
  0
VERTEX
  8
mb694
 10
0.140000
 20
1.131000
  0
VERTEX
  8
mb694
 10
0.140000
 20
1.143000
  0
SEQEND
  8
mb694
  0
POLYLINE
  8
mb694
 62
4
 40
0.000000
 41
0.000000
 66
  1
  0
VERTEX
  8
mb694
 10
0.140000
 20
1.154000
  0
VERTEX
  8
mb694
 10
0.140000
 20
1.166000
  0
SEQEND
  8
mb694
  0
POLYLINE
  8
mb694
 62
4
 40
0.000000
 41
0.000000
 66
  1
  0
VERTEX
  8
mb694
 10
0.140000
 20
1.178000
  0
VERTEX
  8
mb694
 10
0.140000
 20
1.189000
  0
SEQEND
  8
mb694
  0
POLYLINE
  8
mb694
 62
4
 40
0.000000
 41
0.000000
 66
  1
  0
VERTEX
  8
mb694
 10
0.131000
 20
0.650000
  0
VERTEX
  8
mb694
 10
0.131000
 20
0.656000
  0
SEQEND
  8
mb694
  0
POLYLINE
  8
mb694
 62
4
 40
0.000000
 41
0.000000
 66
  1
  0
VERTEX
  8
mb694
 10
0.131000
 20
0.669000
  0
VERTEX
  8
mb694
 10
0.131000
 20
0.675000
  0
SEQEND
  8
mb694
  0
POLYLINE
  8
mb694
 62
4
 40
0.000000
 41
0.000000
 66
  1
  0
VERTEX
  8
mb694
 10
0.131000
 20
0.681000
  0
VERTEX
  8
mb694
 10
0.131000
 20
0.688000
  0
SEQEND
  8
mb694
  0
POLYLINE
  8
mb694
 62
4
 40
0.000000
 41
0.000000
 66
  1
  0
VERTEX
  8
mb694
 10
0.131000
 20
0.701000
  0
VERTEX
  8
mb694
 10
0.131000
 20
0.708000
  0
SEQEND
  8
mb694
  0
POLYLINE
  8
mb694
 62
4
 40
0.000000
 41
0.000000
 66
  1
  0
VERTEX
  8
mb694
 10
0.131000
 20
0.717000
  0
VERTEX
  8
mb694
 10
0.131000
 20
0.729000
  0
SEQEND
  8
mb694
  0
POLYLINE
  8
mb694
 62
4
 40
0.000000
 41
0.000000
 66
  1
  0
VERTEX
  8
mb694
 10
0.131000
 20
0.743000
  0
VERTEX
  8
mb694
 10
0.131000
 20
0.749000
  0
SEQEND
  8
mb694
  0
POLYLINE
  8
mb694
 62
4
 40
0.000000
 41
0.000000
 66
  1
  0
VERTEX
  8
mb694
 10
0.139000
 20
1.024000
  0
VERTEX
  8
mb694
 10
0.139000
 20
1.037000
  0
SEQEND
  8
mb694
  0
POLYLINE
  8
mb694
 62
4
 40
0.000000
 41
0.000000
 66
  1
  0
VERTEX
  8
mb694
 10
0.139000
 20
1.077000
  0
VERTEX
  8
mb694
 10
0.139000
 20
1.088000
  0
SEQEND
  8
mb694
  0
POLYLINE
  8
mb694
 62
4
 40
0.000000
 41
0.000000
 66
  1
  0
VERTEX
  8
mb694
 10
0.139000
 20
1.108000
  0
VERTEX
  8
mb694
 10
0.139000
 20
1.119000
  0
SEQEND
  8
mb694
  0
POLYLINE
  8
mb694
 62
4
 40
0.000000
 41
0.000000
 66
  1
  0
VERTEX
  8
mb694
 10
0.139000
 20
1.132000
  0
VERTEX
  8
mb694
 10
0.139000
 20
1.143000
  0
SEQEND
  8
mb694
  0
POLYLINE
  8
mb694
 62
4
 40
0.000000
 41
0.000000
 66
  1
  0
VERTEX
  8
mb694
 10
0.139000
 20
1.154000
  0
VERTEX
  8
mb694
 10
0.139000
 20
1.165000
  0
SEQEND
  8
mb694
  0
POLYLINE
  8
mb694
 62
4
 40
0.000000
 41
0.000000
 66
  1
  0
VERTEX
  8
mb694
 10
0.139000
 20
1.178000
  0
VERTEX
  8
mb694
 10
0.139000
 20
1.189000
  0
SEQEND
  8
mb694
  0
POLYLINE
  8
mb694
 62
4
 40
0.000000
 41
0.000000
 66
  1
  0
VERTEX
  8
mb694
 10
0.130000
 20
0.650000
  0
VERTEX
  8
mb694
 10
0.130000
 20
0.657000
  0
SEQEND
  8
mb694
  0
POLYLINE
  8
mb694
 62
4
 40
0.000000
 41
0.000000
 66
  1
  0
VERTEX
  8
mb694
 10
0.130000
 20
0.668000
  0
VERTEX
  8
mb694
 10
0.130000
 20
0.675000
  0
SEQEND
  8
mb694
  0
POLYLINE
  8
mb694
 62
4
 40
0.000000
 41
0.000000
 66
  1
  0
VERTEX
  8
mb694
 10
0.130000
 20
0.681000
  0
VERTEX
  8
mb694
 10
0.130000
 20
0.687000
  0
SEQEND
  8
mb694
  0
POLYLINE
  8
mb694
 62
4
 40
0.000000
 41
0.000000
 66
  1
  0
VERTEX
  8
mb694
 10
0.130000
 20
0.702000
  0
VERTEX
  8
mb694
 10
0.130000
 20
0.708000
  0
SEQEND
  8
mb694
  0
POLYLINE
  8
mb694
 62
4
 40
0.000000
 41
0.000000
 66
  1
  0
VERTEX
  8
mb694
 10
0.130000
 20
0.718000
  0
VERTEX
  8
mb694
 10
0.130000
 20
0.749000
  0
SEQEND
  8
mb694
  0
POLYLINE
  8
mb694
 62
4
 40
0.000000
 41
0.000000
 66
  1
  0
VERTEX
  8
mb694
 10
0.138000
 20
1.024000
  0
VERTEX
  8
mb694
 10
0.138000
 20
1.036000
  0
SEQEND
  8
mb694
  0
POLYLINE
  8
mb694
 62
4
 40
0.000000
 41
0.000000
 66
  1
  0
VERTEX
  8
mb694
 10
0.138000
 20
1.077000
  0
VERTEX
  8
mb694
 10
0.138000
 20
1.088000
  0
SEQEND
  8
mb694
  0
POLYLINE
  8
mb694
 62
4
 40
0.000000
 41
0.000000
 66
  1
  0
VERTEX
  8
mb694
 10
0.138000
 20
1.108000
  0
VERTEX
  8
mb694
 10
0.138000
 20
1.119000
  0
SEQEND
  8
mb694
  0
POLYLINE
  8
mb694
 62
4
 40
0.000000
 41
0.000000
 66
  1
  0
VERTEX
  8
mb694
 10
0.138000
 20
1.132000
  0
VERTEX
  8
mb694
 10
0.138000
 20
1.143000
  0
SEQEND
  8
mb694
  0
POLYLINE
  8
mb694
 62
4
 40
0.000000
 41
0.000000
 66
  1
  0
VERTEX
  8
mb694
 10
0.138000
 20
1.154000
  0
VERTEX
  8
mb694
 10
0.138000
 20
1.165000
  0
SEQEND
  8
mb694
  0
POLYLINE
  8
mb694
 62
4
 40
0.000000
 41
0.000000
 66
  1
  0
VERTEX
  8
mb694
 10
0.138000
 20
1.178000
  0
VERTEX
  8
mb694
 10
0.138000
 20
1.189000
  0
SEQEND
  8
mb694
  0
POLYLINE
  8
mb694
 62
4
 40
0.000000
 41
0.000000
 66
  1
  0
VERTEX
  8
mb694
 10
0.129000
 20
0.651000
  0
VERTEX
  8
mb694
 10
0.129000
 20
0.657000
  0
SEQEND
  8
mb694
  0
POLYLINE
  8
mb694
 62
4
 40
0.000000
 41
0.000000
 66
  1
  0
VERTEX
  8
mb694
 10
0.129000
 20
0.668000
  0
VERTEX
  8
mb694
 10
0.129000
 20
0.674000
  0
SEQEND
  8
mb694
  0
POLYLINE
  8
mb694
 62
4
 40
0.000000
 41
0.000000
 66
  1
  0
VERTEX
  8
mb694
 10
0.129000
 20
0.681000
  0
VERTEX
  8
mb694
 10
0.129000
 20
0.686000
  0
SEQEND
  8
mb694
  0
POLYLINE
  8
mb694
 62
4
 40
0.000000
 41
0.000000
 66
  1
  0
VERTEX
  8
mb694
 10
0.129000
 20
0.703000
  0
VERTEX
  8
mb694
 10
0.129000
 20
0.708000
  0
SEQEND
  8
mb694
  0
POLYLINE
  8
mb694
 62
4
 40
0.000000
 41
0.000000
 66
  1
  0
VERTEX
  8
mb694
 10
0.129000
 20
0.719000
  0
VERTEX
  8
mb694
 10
0.129000
 20
0.749000
  0
SEQEND
  8
mb694
  0
POLYLINE
  8
mb694
 62
4
 40
0.000000
 41
0.000000
 66
  1
  0
VERTEX
  8
mb694
 10
0.137000
 20
1.024000
  0
VERTEX
  8
mb694
 10
0.137000
 20
1.036000
  0
SEQEND
  8
mb694
  0
POLYLINE
  8
mb694
 62
4
 40
0.000000
 41
0.000000
 66
  1
  0
VERTEX
  8
mb694
 10
0.137000
 20
1.077000
  0
VERTEX
  8
mb694
 10
0.137000
 20
1.088000
  0
SEQEND
  8
mb694
  0
POLYLINE
  8
mb694
 62
4
 40
0.000000
 41
0.000000
 66
  1
  0
VERTEX
  8
mb694
 10
0.137000
 20
1.108000
  0
VERTEX
  8
mb694
 10
0.137000
 20
1.119000
  0
SEQEND
  8
mb694
  0
POLYLINE
  8
mb694
 62
4
 40
0.000000
 41
0.000000
 66
  1
  0
VERTEX
  8
mb694
 10
0.137000
 20
1.132000
  0
VERTEX
  8
mb694
 10
0.137000
 20
1.144000
  0
SEQEND
  8
mb694
  0
POLYLINE
  8
mb694
 62
4
 40
0.000000
 41
0.000000
 66
  1
  0
VERTEX
  8
mb694
 10
0.137000
 20
1.153000
  0
VERTEX
  8
mb694
 10
0.137000
 20
1.165000
  0
SEQEND
  8
mb694
  0
POLYLINE
  8
mb694
 62
4
 40
0.000000
 41
0.000000
 66
  1
  0
VERTEX
  8
mb694
 10
0.137000
 20
1.178000
  0
VERTEX
  8
mb694
 10
0.137000
 20
1.189000
  0
SEQEND
  8
mb694
  0
POLYLINE
  8
mb694
 62
4
 40
0.000000
 41
0.000000
 66
  1
  0
VERTEX
  8
mb694
 10
0.128000
 20
0.651000
  0
VERTEX
  8
mb694
 10
0.128000
 20
0.657000
  0
SEQEND
  8
mb694
  0
POLYLINE
  8
mb694
 62
4
 40
0.000000
 41
0.000000
 66
  1
  0
VERTEX
  8
mb694
 10
0.128000
 20
0.668000
  0
VERTEX
  8
mb694
 10
0.128000
 20
0.674000
  0
SEQEND
  8
mb694
  0
POLYLINE
  8
mb694
 62
4
 40
0.000000
 41
0.000000
 66
  1
  0
VERTEX
  8
mb694
 10
0.128000
 20
0.680000
  0
VERTEX
  8
mb694
 10
0.128000
 20
0.686000
  0
SEQEND
  8
mb694
  0
POLYLINE
  8
mb694
 62
4
 40
0.000000
 41
0.000000
 66
  1
  0
VERTEX
  8
mb694
 10
0.128000
 20
0.703000
  0
VERTEX
  8
mb694
 10
0.128000
 20
0.709000
  0
SEQEND
  8
mb694
  0
POLYLINE
  8
mb694
 62
4
 40
0.000000
 41
0.000000
 66
  1
  0
VERTEX
  8
mb694
 10
0.128000
 20
0.720000
  0
VERTEX
  8
mb694
 10
0.128000
 20
0.749000
  0
SEQEND
  8
mb694
  0
POLYLINE
  8
mb694
 62
4
 40
0.000000
 41
0.000000
 66
  1
  0
VERTEX
  8
mb694
 10
0.136000
 20
1.024000
  0
VERTEX
  8
mb694
 10
0.136000
 20
1.036000
  0
SEQEND
  8
mb694
  0
POLYLINE
  8
mb694
 62
4
 40
0.000000
 41
0.000000
 66
  1
  0
VERTEX
  8
mb694
 10
0.136000
 20
1.077000
  0
VERTEX
  8
mb694
 10
0.136000
 20
1.088000
  0
SEQEND
  8
mb694
  0
POLYLINE
  8
mb694
 62
4
 40
0.000000
 41
0.000000
 66
  1
  0
VERTEX
  8
mb694
 10
0.136000
 20
1.108000
  0
VERTEX
  8
mb694
 10
0.136000
 20
1.119000
  0
SEQEND
  8
mb694
  0
POLYLINE
  8
mb694
 62
4
 40
0.000000
 41
0.000000
 66
  1
  0
VERTEX
  8
mb694
 10
0.136000
 20
1.133000
  0
VERTEX
  8
mb694
 10
0.136000
 20
1.144000
  0
SEQEND
  8
mb694
  0
POLYLINE
  8
mb694
 62
4
 40
0.000000
 41
0.000000
 66
  1
  0
VERTEX
  8
mb694
 10
0.136000
 20
1.153000
  0
VERTEX
  8
mb694
 10
0.136000
 20
1.164000
  0
SEQEND
  8
mb694
  0
POLYLINE
  8
mb694
 62
4
 40
0.000000
 41
0.000000
 66
  1
  0
VERTEX
  8
mb694
 10
0.136000
 20
1.178000
  0
VERTEX
  8
mb694
 10
0.136000
 20
1.189000
  0
SEQEND
  8
mb694
  0
POLYLINE
  8
mb694
 62
4
 40
0.000000
 41
0.000000
 66
  1
  0
VERTEX
  8
mb694
 10
0.127000
 20
0.652000
  0
VERTEX
  8
mb694
 10
0.127000
 20
0.658000
  0
SEQEND
  8
mb694
  0
POLYLINE
  8
mb694
 62
4
 40
0.000000
 41
0.000000
 66
  1
  0
VERTEX
  8
mb694
 10
0.127000
 20
0.667000
  0
VERTEX
  8
mb694
 10
0.127000
 20
0.673000
  0
SEQEND
  8
mb694
  0
POLYLINE
  8
mb694
 62
4
 40
0.000000
 41
0.000000
 66
  1
  0
VERTEX
  8
mb694
 10
0.127000
 20
0.680000
  0
VERTEX
  8
mb694
 10
0.127000
 20
0.686000
  0
SEQEND
  8
mb694
  0
POLYLINE
  8
mb694
 62
4
 40
0.000000
 41
0.000000
 66
  1
  0
VERTEX
  8
mb694
 10
0.127000
 20
0.703000
  0
VERTEX
  8
mb694
 10
0.127000
 20
0.709000
  0
SEQEND
  8
mb694
  0
POLYLINE
  8
mb694
 62
4
 40
0.000000
 41
0.000000
 66
  1
  0
VERTEX
  8
mb694
 10
0.127000
 20
0.721000
  0
VERTEX
  8
mb694
 10
0.127000
 20
0.749000
  0
SEQEND
  8
mb694
  0
POLYLINE
  8
mb694
 62
4
 40
0.000000
 41
0.000000
 66
  1
  0
VERTEX
  8
mb694
 10
0.135000
 20
1.024000
  0
VERTEX
  8
mb694
 10
0.135000
 20
1.036000
  0
SEQEND
  8
mb694
  0
POLYLINE
  8
mb694
 62
4
 40
0.000000
 41
0.000000
 66
  1
  0
VERTEX
  8
mb694
 10
0.135000
 20
1.077000
  0
VERTEX
  8
mb694
 10
0.135000
 20
1.088000
  0
SEQEND
  8
mb694
  0
POLYLINE
  8
mb694
 62
4
 40
0.000000
 41
0.000000
 66
  1
  0
VERTEX
  8
mb694
 10
0.135000
 20
1.108000
  0
VERTEX
  8
mb694
 10
0.135000
 20
1.119000
  0
SEQEND
  8
mb694
  0
POLYLINE
  8
mb694
 62
4
 40
0.000000
 41
0.000000
 66
  1
  0
VERTEX
  8
mb694
 10
0.135000
 20
1.133000
  0
VERTEX
  8
mb694
 10
0.135000
 20
1.144000
  0
SEQEND
  8
mb694
  0
POLYLINE
  8
mb694
 62
4
 40
0.000000
 41
0.000000
 66
  1
  0
VERTEX
  8
mb694
 10
0.135000
 20
1.153000
  0
VERTEX
  8
mb694
 10
0.135000
 20
1.164000
  0
SEQEND
  8
mb694
  0
POLYLINE
  8
mb694
 62
4
 40
0.000000
 41
0.000000
 66
  1
  0
VERTEX
  8
mb694
 10
0.135000
 20
1.178000
  0
VERTEX
  8
mb694
 10
0.135000
 20
1.189000
  0
SEQEND
  8
mb694
  0
POLYLINE
  8
mb694
 62
4
 40
0.000000
 41
0.000000
 66
  1
  0
VERTEX
  8
mb694
 10
0.126000
 20
0.652000
  0
VERTEX
  8
mb694
 10
0.126000
 20
0.658000
  0
SEQEND
  8
mb694
  0
POLYLINE
  8
mb694
 62
4
 40
0.000000
 41
0.000000
 66
  1
  0
VERTEX
  8
mb694
 10
0.126000
 20
0.667000
  0
VERTEX
  8
mb694
 10
0.126000
 20
0.673000
  0
SEQEND
  8
mb694
  0
POLYLINE
  8
mb694
 62
4
 40
0.000000
 41
0.000000
 66
  1
  0
VERTEX
  8
mb694
 10
0.126000
 20
0.680000
  0
VERTEX
  8
mb694
 10
0.126000
 20
0.685000
  0
SEQEND
  8
mb694
  0
POLYLINE
  8
mb694
 62
4
 40
0.000000
 41
0.000000
 66
  1
  0
VERTEX
  8
mb694
 10
0.126000
 20
0.704000
  0
VERTEX
  8
mb694
 10
0.126000
 20
0.709000
  0
SEQEND
  8
mb694
  0
POLYLINE
  8
mb694
 62
4
 40
0.000000
 41
0.000000
 66
  1
  0
VERTEX
  8
mb694
 10
0.126000
 20
0.724000
  0
VERTEX
  8
mb694
 10
0.126000
 20
0.749000
  0
SEQEND
  8
mb694
  0
POLYLINE
  8
mb694
 62
4
 40
0.000000
 41
0.000000
 66
  1
  0
VERTEX
  8
mb694
 10
0.134000
 20
1.077000
  0
VERTEX
  8
mb694
 10
0.134000
 20
1.088000
  0
SEQEND
  8
mb694
  0
POLYLINE
  8
mb694
 62
4
 40
0.000000
 41
0.000000
 66
  1
  0
VERTEX
  8
mb694
 10
0.134000
 20
1.108000
  0
VERTEX
  8
mb694
 10
0.134000
 20
1.119000
  0
SEQEND
  8
mb694
  0
POLYLINE
  8
mb694
 62
4
 40
0.000000
 41
0.000000
 66
  1
  0
VERTEX
  8
mb694
 10
0.134000
 20
1.133000
  0
VERTEX
  8
mb694
 10
0.134000
 20
1.145000
  0
SEQEND
  8
mb694
  0
POLYLINE
  8
mb694
 62
4
 40
0.000000
 41
0.000000
 66
  1
  0
VERTEX
  8
mb694
 10
0.134000
 20
1.152000
  0
VERTEX
  8
mb694
 10
0.134000
 20
1.164000
  0
SEQEND
  8
mb694
  0
POLYLINE
  8
mb694
 62
4
 40
0.000000
 41
0.000000
 66
  1
  0
VERTEX
  8
mb694
 10
0.134000
 20
1.178000
  0
VERTEX
  8
mb694
 10
0.134000
 20
1.189000
  0
SEQEND
  8
mb694
  0
POLYLINE
  8
mb694
 62
4
 40
0.000000
 41
0.000000
 66
  1
  0
VERTEX
  8
mb694
 10
0.125000
 20
0.652000
  0
VERTEX
  8
mb694
 10
0.125000
 20
0.658000
  0
SEQEND
  8
mb694
  0
POLYLINE
  8
mb694
 62
4
 40
0.000000
 41
0.000000
 66
  1
  0
VERTEX
  8
mb694
 10
0.125000
 20
0.666000
  0
VERTEX
  8
mb694
 10
0.125000
 20
0.673000
  0
SEQEND
  8
mb694
  0
POLYLINE
  8
mb694
 62
4
 40
0.000000
 41
0.000000
 66
  1
  0
VERTEX
  8
mb694
 10
0.125000
 20
0.680000
  0
VERTEX
  8
mb694
 10
0.125000
 20
0.709000
  0
SEQEND
  8
mb694
  0
POLYLINE
  8
mb694
 62
4
 40
0.000000
 41
0.000000
 66
  1
  0
VERTEX
  8
mb694
 10
0.125000
 20
0.726000
  0
VERTEX
  8
mb694
 10
0.125000
 20
0.735000
  0
SEQEND
  8
mb694
  0
POLYLINE
  8
mb694
 62
4
 40
0.000000
 41
0.000000
 66
  1
  0
VERTEX
  8
mb694
 10
0.125000
 20
0.743000
  0
VERTEX
  8
mb694
 10
0.125000
 20
0.749000
  0
SEQEND
  8
mb694
  0
POLYLINE
  8
mb694
 62
4
 40
0.000000
 41
0.000000
 66
  1
  0
VERTEX
  8
mb694
 10
0.133000
 20
1.024000
  0
VERTEX
  8
mb694
 10
0.133000
 20
1.035000
  0
SEQEND
  8
mb694
  0
POLYLINE
  8
mb694
 62
4
 40
0.000000
 41
0.000000
 66
  1
  0
VERTEX
  8
mb694
 10
0.133000
 20
1.077000
  0
VERTEX
  8
mb694
 10
0.133000
 20
1.088000
  0
SEQEND
  8
mb694
  0
POLYLINE
  8
mb694
 62
4
 40
0.000000
 41
0.000000
 66
  1
  0
VERTEX
  8
mb694
 10
0.133000
 20
1.108000
  0
VERTEX
  8
mb694
 10
0.133000
 20
1.119000
  0
SEQEND
  8
mb694
  0
POLYLINE
  8
mb694
 62
4
 40
0.000000
 41
0.000000
 66
  1
  0
VERTEX
  8
mb694
 10
0.133000
 20
1.134000
  0
VERTEX
  8
mb694
 10
0.133000
 20
1.145000
  0
SEQEND
  8
mb694
  0
POLYLINE
  8
mb694
 62
4
 40
0.000000
 41
0.000000
 66
  1
  0
VERTEX
  8
mb694
 10
0.133000
 20
1.152000
  0
VERTEX
  8
mb694
 10
0.133000
 20
1.163000
  0
SEQEND
  8
mb694
  0
POLYLINE
  8
mb694
 62
4
 40
0.000000
 41
0.000000
 66
  1
  0
VERTEX
  8
mb694
 10
0.133000
 20
1.178000
  0
VERTEX
  8
mb694
 10
0.133000
 20
1.189000
  0
SEQEND
  8
mb694
  0
POLYLINE
  8
mb694
 62
4
 40
0.000000
 41
0.000000
 66
  1
  0
VERTEX
  8
mb694
 10
0.124000
 20
0.653000
  0
VERTEX
  8
mb694
 10
0.124000
 20
0.659000
  0
SEQEND
  8
mb694
  0
POLYLINE
  8
mb694
 62
4
 40
0.000000
 41
0.000000
 66
  1
  0
VERTEX
  8
mb694
 10
0.124000
 20
0.666000
  0
VERTEX
  8
mb694
 10
0.124000
 20
0.672000
  0
SEQEND
  8
mb694
  0
POLYLINE
  8
mb694
 62
4
 40
0.000000
 41
0.000000
 66
  1
  0
VERTEX
  8
mb694
 10
0.124000
 20
0.680000
  0
VERTEX
  8
mb694
 10
0.124000
 20
0.709000
  0
SEQEND
  8
mb694
  0
POLYLINE
  8
mb694
 62
4
 40
0.000000
 41
0.000000
 66
  1
  0
VERTEX
  8
mb694
 10
0.124000
 20
0.724000
  0
VERTEX
  8
mb694
 10
0.124000
 20
0.732000
  0
SEQEND
  8
mb694
  0
POLYLINE
  8
mb694
 62
4
 40
0.000000
 41
0.000000
 66
  1
  0
VERTEX
  8
mb694
 10
0.124000
 20
0.743000
  0
VERTEX
  8
mb694
 10
0.124000
 20
0.749000
  0
SEQEND
  8
mb694
  0
POLYLINE
  8
mb694
 62
4
 40
0.000000
 41
0.000000
 66
  1
  0
VERTEX
  8
mb694
 10
0.132000
 20
1.024000
  0
VERTEX
  8
mb694
 10
0.132000
 20
1.035000
  0
SEQEND
  8
mb694
  0
POLYLINE
  8
mb694
 62
4
 40
0.000000
 41
0.000000
 66
  1
  0
VERTEX
  8
mb694
 10
0.132000
 20
1.077000
  0
VERTEX
  8
mb694
 10
0.132000
 20
1.088000
  0
SEQEND
  8
mb694
  0
POLYLINE
  8
mb694
 62
4
 40
0.000000
 41
0.000000
 66
  1
  0
VERTEX
  8
mb694
 10
0.132000
 20
1.108000
  0
VERTEX
  8
mb694
 10
0.132000
 20
1.119000
  0
SEQEND
  8
mb694
  0
POLYLINE
  8
mb694
 62
4
 40
0.000000
 41
0.000000
 66
  1
  0
VERTEX
  8
mb694
 10
0.132000
 20
1.134000
  0
VERTEX
  8
mb694
 10
0.132000
 20
1.145000
  0
SEQEND
  8
mb694
  0
POLYLINE
  8
mb694
 62
4
 40
0.000000
 41
0.000000
 66
  1
  0
VERTEX
  8
mb694
 10
0.132000
 20
1.152000
  0
VERTEX
  8
mb694
 10
0.132000
 20
1.163000
  0
SEQEND
  8
mb694
  0
POLYLINE
  8
mb694
 62
4
 40
0.000000
 41
0.000000
 66
  1
  0
VERTEX
  8
mb694
 10
0.132000
 20
1.178000
  0
VERTEX
  8
mb694
 10
0.132000
 20
1.189000
  0
SEQEND
  8
mb694
  0
POLYLINE
  8
mb694
 62
4
 40
0.000000
 41
0.000000
 66
  1
  0
VERTEX
  8
mb694
 10
0.123000
 20
0.653000
  0
VERTEX
  8
mb694
 10
0.123000
 20
0.659000
  0
SEQEND
  8
mb694
  0
POLYLINE
  8
mb694
 62
4
 40
0.000000
 41
0.000000
 66
  1
  0
VERTEX
  8
mb694
 10
0.123000
 20
0.666000
  0
VERTEX
  8
mb694
 10
0.123000
 20
0.672000
  0
SEQEND
  8
mb694
  0
POLYLINE
  8
mb694
 62
4
 40
0.000000
 41
0.000000
 66
  1
  0
VERTEX
  8
mb694
 10
0.123000
 20
0.680000
  0
VERTEX
  8
mb694
 10
0.123000
 20
0.709000
  0
SEQEND
  8
mb694
  0
POLYLINE
  8
mb694
 62
4
 40
0.000000
 41
0.000000
 66
  1
  0
VERTEX
  8
mb694
 10
0.123000
 20
0.723000
  0
VERTEX
  8
mb694
 10
0.123000
 20
0.731000
  0
SEQEND
  8
mb694
  0
POLYLINE
  8
mb694
 62
4
 40
0.000000
 41
0.000000
 66
  1
  0
VERTEX
  8
mb694
 10
0.123000
 20
0.743000
  0
VERTEX
  8
mb694
 10
0.123000
 20
0.749000
  0
SEQEND
  8
mb694
  0
POLYLINE
  8
mb694
 62
4
 40
0.000000
 41
0.000000
 66
  1
  0
VERTEX
  8
mb694
 10
0.131000
 20
1.024000
  0
VERTEX
  8
mb694
 10
0.131000
 20
1.035000
  0
SEQEND
  8
mb694
  0
POLYLINE
  8
mb694
 62
4
 40
0.000000
 41
0.000000
 66
  1
  0
VERTEX
  8
mb694
 10
0.131000
 20
1.077000
  0
VERTEX
  8
mb694
 10
0.131000
 20
1.088000
  0
SEQEND
  8
mb694
  0
POLYLINE
  8
mb694
 62
4
 40
0.000000
 41
0.000000
 66
  1
  0
VERTEX
  8
mb694
 10
0.131000
 20
1.108000
  0
VERTEX
  8
mb694
 10
0.131000
 20
1.119000
  0
SEQEND
  8
mb694
  0
POLYLINE
  8
mb694
 62
4
 40
0.000000
 41
0.000000
 66
  1
  0
VERTEX
  8
mb694
 10
0.131000
 20
1.134000
  0
VERTEX
  8
mb694
 10
0.131000
 20
1.146000
  0
SEQEND
  8
mb694
  0
POLYLINE
  8
mb694
 62
4
 40
0.000000
 41
0.000000
 66
  1
  0
VERTEX
  8
mb694
 10
0.131000
 20
1.151000
  0
VERTEX
  8
mb694
 10
0.131000
 20
1.163000
  0
SEQEND
  8
mb694
  0
POLYLINE
  8
mb694
 62
4
 40
0.000000
 41
0.000000
 66
  1
  0
VERTEX
  8
mb694
 10
0.131000
 20
1.178000
  0
VERTEX
  8
mb694
 10
0.131000
 20
1.189000
  0
SEQEND
  8
mb694
  0
POLYLINE
  8
mb694
 62
4
 40
0.000000
 41
0.000000
 66
  1
  0
VERTEX
  8
mb694
 10
0.122000
 20
0.654000
  0
VERTEX
  8
mb694
 10
0.122000
 20
0.660000
  0
SEQEND
  8
mb694
  0
POLYLINE
  8
mb694
 62
4
 40
0.000000
 41
0.000000
 66
  1
  0
VERTEX
  8
mb694
 10
0.122000
 20
0.665000
  0
VERTEX
  8
mb694
 10
0.122000
 20
0.671000
  0
SEQEND
  8
mb694
  0
POLYLINE
  8
mb694
 62
4
 40
0.000000
 41
0.000000
 66
  1
  0
VERTEX
  8
mb694
 10
0.122000
 20
0.680000
  0
VERTEX
  8
mb694
 10
0.122000
 20
0.709000
  0
SEQEND
  8
mb694
  0
POLYLINE
  8
mb694
 62
4
 40
0.000000
 41
0.000000
 66
  1
  0
VERTEX
  8
mb694
 10
0.122000
 20
0.722000
  0
VERTEX
  8
mb694
 10
0.122000
 20
0.730000
  0
SEQEND
  8
mb694
  0
POLYLINE
  8
mb694
 62
4
 40
0.000000
 41
0.000000
 66
  1
  0
VERTEX
  8
mb694
 10
0.122000
 20
0.743000
  0
VERTEX
  8
mb694
 10
0.122000
 20
0.749000
  0
SEQEND
  8
mb694
  0
POLYLINE
  8
mb694
 62
4
 40
0.000000
 41
0.000000
 66
  1
  0
VERTEX
  8
mb694
 10
0.130000
 20
1.024000
  0
VERTEX
  8
mb694
 10
0.130000
 20
1.036000
  0
SEQEND
  8
mb694
  0
POLYLINE
  8
mb694
 62
4
 40
0.000000
 41
0.000000
 66
  1
  0
VERTEX
  8
mb694
 10
0.130000
 20
1.077000
  0
VERTEX
  8
mb694
 10
0.130000
 20
1.088000
  0
SEQEND
  8
mb694
  0
POLYLINE
  8
mb694
 62
4
 40
0.000000
 41
0.000000
 66
  1
  0
VERTEX
  8
mb694
 10
0.130000
 20
1.108000
  0
VERTEX
  8
mb694
 10
0.130000
 20
1.119000
  0
SEQEND
  8
mb694
  0
POLYLINE
  8
mb694
 62
4
 40
0.000000
 41
0.000000
 66
  1
  0
VERTEX
  8
mb694
 10
0.130000
 20
1.135000
  0
VERTEX
  8
mb694
 10
0.130000
 20
1.146000
  0
SEQEND
  8
mb694
  0
POLYLINE
  8
mb694
 62
4
 40
0.000000
 41
0.000000
 66
  1
  0
VERTEX
  8
mb694
 10
0.130000
 20
1.151000
  0
VERTEX
  8
mb694
 10
0.130000
 20
1.163000
  0
SEQEND
  8
mb694
  0
POLYLINE
  8
mb694
 62
4
 40
0.000000
 41
0.000000
 66
  1
  0
VERTEX
  8
mb694
 10
0.130000
 20
1.178000
  0
VERTEX
  8
mb694
 10
0.130000
 20
1.189000
  0
SEQEND
  8
mb694
  0
POLYLINE
  8
mb694
 62
4
 40
0.000000
 41
0.000000
 66
  1
  0
VERTEX
  8
mb694
 10
0.121000
 20
0.654000
  0
VERTEX
  8
mb694
 10
0.121000
 20
0.660000
  0
SEQEND
  8
mb694
  0
POLYLINE
  8
mb694
 62
4
 40
0.000000
 41
0.000000
 66
  1
  0
VERTEX
  8
mb694
 10
0.121000
 20
0.665000
  0
VERTEX
  8
mb694
 10
0.121000
 20
0.671000
  0
SEQEND
  8
mb694
  0
POLYLINE
  8
mb694
 62
4
 40
0.000000
 41
0.000000
 66
  1
  0
VERTEX
  8
mb694
 10
0.121000
 20
0.680000
  0
VERTEX
  8
mb694
 10
0.121000
 20
0.709000
  0
SEQEND
  8
mb694
  0
POLYLINE
  8
mb694
 62
4
 40
0.000000
 41
0.000000
 66
  1
  0
VERTEX
  8
mb694
 10
0.121000
 20
0.721000
  0
VERTEX
  8
mb694
 10
0.121000
 20
0.729000
  0
SEQEND
  8
mb694
  0
POLYLINE
  8
mb694
 62
4
 40
0.000000
 41
0.000000
 66
  1
  0
VERTEX
  8
mb694
 10
0.121000
 20
0.743000
  0
VERTEX
  8
mb694
 10
0.121000
 20
0.749000
  0
SEQEND
  8
mb694
  0
POLYLINE
  8
mb694
 62
4
 40
0.000000
 41
0.000000
 66
  1
  0
VERTEX
  8
mb694
 10
0.129000
 20
1.024000
  0
VERTEX
  8
mb694
 10
0.129000
 20
1.036000
  0
SEQEND
  8
mb694
  0
POLYLINE
  8
mb694
 62
4
 40
0.000000
 41
0.000000
 66
  1
  0
VERTEX
  8
mb694
 10
0.129000
 20
1.077000
  0
VERTEX
  8
mb694
 10
0.129000
 20
1.088000
  0
SEQEND
  8
mb694
  0
POLYLINE
  8
mb694
 62
4
 40
0.000000
 41
0.000000
 66
  1
  0
VERTEX
  8
mb694
 10
0.129000
 20
1.108000
  0
VERTEX
  8
mb694
 10
0.129000
 20
1.119000
  0
SEQEND
  8
mb694
  0
POLYLINE
  8
mb694
 62
4
 40
0.000000
 41
0.000000
 66
  1
  0
VERTEX
  8
mb694
 10
0.129000
 20
1.135000
  0
VERTEX
  8
mb694
 10
0.129000
 20
1.146000
  0
SEQEND
  8
mb694
  0
POLYLINE
  8
mb694
 62
4
 40
0.000000
 41
0.000000
 66
  1
  0
VERTEX
  8
mb694
 10
0.129000
 20
1.151000
  0
VERTEX
  8
mb694
 10
0.129000
 20
1.162000
  0
SEQEND
  8
mb694
  0
POLYLINE
  8
mb694
 62
4
 40
0.000000
 41
0.000000
 66
  1
  0
VERTEX
  8
mb694
 10
0.129000
 20
1.178000
  0
VERTEX
  8
mb694
 10
0.129000
 20
1.189000
  0
SEQEND
  8
mb694
  0
POLYLINE
  8
mb694
 62
4
 40
0.000000
 41
0.000000
 66
  1
  0
VERTEX
  8
mb694
 10
0.120000
 20
0.654000
  0
VERTEX
  8
mb694
 10
0.120000
 20
0.660000
  0
SEQEND
  8
mb694
  0
POLYLINE
  8
mb694
 62
4
 40
0.000000
 41
0.000000
 66
  1
  0
VERTEX
  8
mb694
 10
0.120000
 20
0.665000
  0
VERTEX
  8
mb694
 10
0.120000
 20
0.671000
  0
SEQEND
  8
mb694
  0
POLYLINE
  8
mb694
 62
4
 40
0.000000
 41
0.000000
 66
  1
  0
VERTEX
  8
mb694
 10
0.120000
 20
0.704000
  0
VERTEX
  8
mb694
 10
0.120000
 20
0.709000
  0
SEQEND
  8
mb694
  0
POLYLINE
  8
mb694
 62
4
 40
0.000000
 41
0.000000
 66
  1
  0
VERTEX
  8
mb694
 10
0.120000
 20
0.721000
  0
VERTEX
  8
mb694
 10
0.120000
 20
0.728000
  0
SEQEND
  8
mb694
  0
POLYLINE
  8
mb694
 62
4
 40
0.000000
 41
0.000000
 66
  1
  0
VERTEX
  8
mb694
 10
0.120000
 20
0.743000
  0
VERTEX
  8
mb694
 10
0.120000
 20
0.749000
  0
SEQEND
  8
mb694
  0
POLYLINE
  8
mb694
 62
4
 40
0.000000
 41
0.000000
 66
  1
  0
VERTEX
  8
mb694
 10
0.128000
 20
1.024000
  0
VERTEX
  8
mb694
 10
0.128000
 20
1.036000
  0
SEQEND
  8
mb694
  0
POLYLINE
  8
mb694
 62
4
 40
0.000000
 41
0.000000
 66
  1
  0
VERTEX
  8
mb694
 10
0.128000
 20
1.077000
  0
VERTEX
  8
mb694
 10
0.128000
 20
1.088000
  0
SEQEND
  8
mb694
  0
POLYLINE
  8
mb694
 62
4
 40
0.000000
 41
0.000000
 66
  1
  0
VERTEX
  8
mb694
 10
0.128000
 20
1.108000
  0
VERTEX
  8
mb694
 10
0.128000
 20
1.119000
  0
SEQEND
  8
mb694
  0
POLYLINE
  8
mb694
 62
4
 40
0.000000
 41
0.000000
 66
  1
  0
VERTEX
  8
mb694
 10
0.128000
 20
1.135000
  0
VERTEX
  8
mb694
 10
0.128000
 20
1.146000
  0
SEQEND
  8
mb694
  0
POLYLINE
  8
mb694
 62
4
 40
0.000000
 41
0.000000
 66
  1
  0
VERTEX
  8
mb694
 10
0.128000
 20
1.151000
  0
VERTEX
  8
mb694
 10
0.128000
 20
1.162000
  0
SEQEND
  8
mb694
  0
POLYLINE
  8
mb694
 62
4
 40
0.000000
 41
0.000000
 66
  1
  0
VERTEX
  8
mb694
 10
0.128000
 20
1.178000
  0
VERTEX
  8
mb694
 10
0.128000
 20
1.189000
  0
SEQEND
  8
mb694
  0
POLYLINE
  8
mb694
 62
4
 40
0.000000
 41
0.000000
 66
  1
  0
VERTEX
  8
mb694
 10
0.119000
 20
0.655000
  0
VERTEX
  8
mb694
 10
0.119000
 20
0.661000
  0
SEQEND
  8
mb694
  0
POLYLINE
  8
mb694
 62
4
 40
0.000000
 41
0.000000
 66
  1
  0
VERTEX
  8
mb694
 10
0.119000
 20
0.664000
  0
VERTEX
  8
mb694
 10
0.119000
 20
0.670000
  0
SEQEND
  8
mb694
  0
POLYLINE
  8
mb694
 62
4
 40
0.000000
 41
0.000000
 66
  1
  0
VERTEX
  8
mb694
 10
0.119000
 20
0.703000
  0
VERTEX
  8
mb694
 10
0.119000
 20
0.709000
  0
SEQEND
  8
mb694
  0
POLYLINE
  8
mb694
 62
4
 40
0.000000
 41
0.000000
 66
  1
  0
VERTEX
  8
mb694
 10
0.119000
 20
0.720000
  0
VERTEX
  8
mb694
 10
0.119000
 20
0.728000
  0
SEQEND
  8
mb694
  0
POLYLINE
  8
mb694
 62
4
 40
0.000000
 41
0.000000
 66
  1
  0
VERTEX
  8
mb694
 10
0.119000
 20
0.743000
  0
VERTEX
  8
mb694
 10
0.119000
 20
0.749000
  0
SEQEND
  8
mb694
  0
POLYLINE
  8
mb694
 62
4
 40
0.000000
 41
0.000000
 66
  1
  0
VERTEX
  8
mb694
 10
0.127000
 20
1.024000
  0
VERTEX
  8
mb694
 10
0.127000
 20
1.036000
  0
SEQEND
  8
mb694
  0
POLYLINE
  8
mb694
 62
4
 40
0.000000
 41
0.000000
 66
  1
  0
VERTEX
  8
mb694
 10
0.127000
 20
1.077000
  0
VERTEX
  8
mb694
 10
0.127000
 20
1.088000
  0
SEQEND
  8
mb694
  0
POLYLINE
  8
mb694
 62
4
 40
0.000000
 41
0.000000
 66
  1
  0
VERTEX
  8
mb694
 10
0.127000
 20
1.108000
  0
VERTEX
  8
mb694
 10
0.127000
 20
1.119000
  0
SEQEND
  8
mb694
  0
POLYLINE
  8
mb694
 62
4
 40
0.000000
 41
0.000000
 66
  1
  0
VERTEX
  8
mb694
 10
0.127000
 20
1.136000
  0
VERTEX
  8
mb694
 10
0.127000
 20
1.147000
  0
SEQEND
  8
mb694
  0
POLYLINE
  8
mb694
 62
4
 40
0.000000
 41
0.000000
 66
  1
  0
VERTEX
  8
mb694
 10
0.127000
 20
1.150000
  0
VERTEX
  8
mb694
 10
0.127000
 20
1.162000
  0
SEQEND
  8
mb694
  0
POLYLINE
  8
mb694
 62
4
 40
0.000000
 41
0.000000
 66
  1
  0
VERTEX
  8
mb694
 10
0.127000
 20
1.178000
  0
VERTEX
  8
mb694
 10
0.127000
 20
1.189000
  0
SEQEND
  8
mb694
  0
POLYLINE
  8
mb694
 62
4
 40
0.000000
 41
0.000000
 66
  1
  0
VERTEX
  8
mb694
 10
0.118000
 20
0.655000
  0
VERTEX
  8
mb694
 10
0.118000
 20
0.661000
  0
SEQEND
  8
mb694
  0
POLYLINE
  8
mb694
 62
4
 40
0.000000
 41
0.000000
 66
  1
  0
VERTEX
  8
mb694
 10
0.118000
 20
0.664000
  0
VERTEX
  8
mb694
 10
0.118000
 20
0.670000
  0
SEQEND
  8
mb694
  0
POLYLINE
  8
mb694
 62
4
 40
0.000000
 41
0.000000
 66
  1
  0
VERTEX
  8
mb694
 10
0.118000
 20
0.703000
  0
VERTEX
  8
mb694
 10
0.118000
 20
0.709000
  0
SEQEND
  8
mb694
  0
POLYLINE
  8
mb694
 62
4
 40
0.000000
 41
0.000000
 66
  1
  0
VERTEX
  8
mb694
 10
0.118000
 20
0.719000
  0
VERTEX
  8
mb694
 10
0.118000
 20
0.727000
  0
SEQEND
  8
mb694
  0
POLYLINE
  8
mb694
 62
4
 40
0.000000
 41
0.000000
 66
  1
  0
VERTEX
  8
mb694
 10
0.118000
 20
0.743000
  0
VERTEX
  8
mb694
 10
0.118000
 20
0.749000
  0
SEQEND
  8
mb694
  0
POLYLINE
  8
mb694
 62
4
 40
0.000000
 41
0.000000
 66
  1
  0
VERTEX
  8
mb694
 10
0.126000
 20
1.024000
  0
VERTEX
  8
mb694
 10
0.126000
 20
1.037000
  0
SEQEND
  8
mb694
  0
POLYLINE
  8
mb694
 62
4
 40
0.000000
 41
0.000000
 66
  1
  0
VERTEX
  8
mb694
 10
0.126000
 20
1.077000
  0
VERTEX
  8
mb694
 10
0.126000
 20
1.088000
  0
SEQEND
  8
mb694
  0
POLYLINE
  8
mb694
 62
4
 40
0.000000
 41
0.000000
 66
  1
  0
VERTEX
  8
mb694
 10
0.126000
 20
1.108000
  0
VERTEX
  8
mb694
 10
0.126000
 20
1.119000
  0
SEQEND
  8
mb694
  0
POLYLINE
  8
mb694
 62
4
 40
0.000000
 41
0.000000
 66
  1
  0
VERTEX
  8
mb694
 10
0.126000
 20
1.136000
  0
VERTEX
  8
mb694
 10
0.126000
 20
1.147000
  0
SEQEND
  8
mb694
  0
POLYLINE
  8
mb694
 62
4
 40
0.000000
 41
0.000000
 66
  1
  0
VERTEX
  8
mb694
 10
0.126000
 20
1.150000
  0
VERTEX
  8
mb694
 10
0.126000
 20
1.161000
  0
SEQEND
  8
mb694
  0
POLYLINE
  8
mb694
 62
4
 40
0.000000
 41
0.000000
 66
  1
  0
VERTEX
  8
mb694
 10
0.126000
 20
1.178000
  0
VERTEX
  8
mb694
 10
0.126000
 20
1.189000
  0
SEQEND
  8
mb694
  0
POLYLINE
  8
mb694
 62
4
 40
0.000000
 41
0.000000
 66
  1
  0
VERTEX
  8
mb694
 10
0.117000
 20
0.655000
  0
VERTEX
  8
mb694
 10
0.117000
 20
0.662000
  0
SEQEND
  8
mb694
  0
POLYLINE
  8
mb694
 62
4
 40
0.000000
 41
0.000000
 66
  1
  0
VERTEX
  8
mb694
 10
0.117000
 20
0.663000
  0
VERTEX
  8
mb694
 10
0.117000
 20
0.669000
  0
SEQEND
  8
mb694
  0
POLYLINE
  8
mb694
 62
4
 40
0.000000
 41
0.000000
 66
  1
  0
VERTEX
  8
mb694
 10
0.117000
 20
0.703000
  0
VERTEX
  8
mb694
 10
0.117000
 20
0.709000
  0
SEQEND
  8
mb694
  0
POLYLINE
  8
mb694
 62
4
 40
0.000000
 41
0.000000
 66
  1
  0
VERTEX
  8
mb694
 10
0.117000
 20
0.719000
  0
VERTEX
  8
mb694
 10
0.117000
 20
0.726000
  0
SEQEND
  8
mb694
  0
POLYLINE
  8
mb694
 62
4
 40
0.000000
 41
0.000000
 66
  1
  0
VERTEX
  8
mb694
 10
0.117000
 20
0.743000
  0
VERTEX
  8
mb694
 10
0.117000
 20
0.749000
  0
SEQEND
  8
mb694
  0
POLYLINE
  8
mb694
 62
4
 40
0.000000
 41
0.000000
 66
  1
  0
VERTEX
  8
mb694
 10
0.125000
 20
1.025000
  0
VERTEX
  8
mb694
 10
0.125000
 20
1.037000
  0
SEQEND
  8
mb694
  0
POLYLINE
  8
mb694
 62
4
 40
0.000000
 41
0.000000
 66
  1
  0
VERTEX
  8
mb694
 10
0.125000
 20
1.077000
  0
VERTEX
  8
mb694
 10
0.125000
 20
1.088000
  0
SEQEND
  8
mb694
  0
POLYLINE
  8
mb694
 62
4
 40
0.000000
 41
0.000000
 66
  1
  0
VERTEX
  8
mb694
 10
0.125000
 20
1.108000
  0
VERTEX
  8
mb694
 10
0.125000
 20
1.119000
  0
SEQEND
  8
mb694
  0
POLYLINE
  8
mb694
 62
4
 40
0.000000
 41
0.000000
 66
  1
  0
VERTEX
  8
mb694
 10
0.125000
 20
1.136000
  0
VERTEX
  8
mb694
 10
0.125000
 20
1.147000
  0
SEQEND
  8
mb694
  0
POLYLINE
  8
mb694
 62
4
 40
0.000000
 41
0.000000
 66
  1
  0
VERTEX
  8
mb694
 10
0.125000
 20
1.150000
  0
VERTEX
  8
mb694
 10
0.125000
 20
1.161000
  0
SEQEND
  8
mb694
  0
POLYLINE
  8
mb694
 62
4
 40
0.000000
 41
0.000000
 66
  1
  0
VERTEX
  8
mb694
 10
0.125000
 20
1.178000
  0
VERTEX
  8
mb694
 10
0.125000
 20
1.189000
  0
SEQEND
  8
mb694
  0
POLYLINE
  8
mb694
 62
4
 40
0.000000
 41
0.000000
 66
  1
  0
VERTEX
  8
mb694
 10
0.116000
 20
0.656000
  0
VERTEX
  8
mb694
 10
0.116000
 20
0.662000
  0
SEQEND
  8
mb694
  0
POLYLINE
  8
mb694
 62
4
 40
0.000000
 41
0.000000
 66
  1
  0
VERTEX
  8
mb694
 10
0.116000
 20
0.663000
  0
VERTEX
  8
mb694
 10
0.116000
 20
0.669000
  0
SEQEND
  8
mb694
  0
POLYLINE
  8
mb694
 62
4
 40
0.000000
 41
0.000000
 66
  1
  0
VERTEX
  8
mb694
 10
0.116000
 20
0.681000
  0
VERTEX
  8
mb694
 10
0.116000
 20
0.686000
  0
SEQEND
  8
mb694
  0
POLYLINE
  8
mb694
 62
4
 40
0.000000
 41
0.000000
 66
  1
  0
VERTEX
  8
mb694
 10
0.116000
 20
0.703000
  0
VERTEX
  8
mb694
 10
0.116000
 20
0.709000
  0
SEQEND
  8
mb694
  0
POLYLINE
  8
mb694
 62
4
 40
0.000000
 41
0.000000
 66
  1
  0
VERTEX
  8
mb694
 10
0.116000
 20
0.718000
  0
VERTEX
  8
mb694
 10
0.116000
 20
0.726000
  0
SEQEND
  8
mb694
  0
POLYLINE
  8
mb694
 62
4
 40
0.000000
 41
0.000000
 66
  1
  0
VERTEX
  8
mb694
 10
0.116000
 20
0.743000
  0
VERTEX
  8
mb694
 10
0.116000
 20
0.749000
  0
SEQEND
  8
mb694
  0
POLYLINE
  8
mb694
 62
4
 40
0.000000
 41
0.000000
 66
  1
  0
VERTEX
  8
mb694
 10
0.124000
 20
1.025000
  0
VERTEX
  8
mb694
 10
0.124000
 20
1.038000
  0
SEQEND
  8
mb694
  0
POLYLINE
  8
mb694
 62
4
 40
0.000000
 41
0.000000
 66
  1
  0
VERTEX
  8
mb694
 10
0.124000
 20
1.077000
  0
VERTEX
  8
mb694
 10
0.124000
 20
1.088000
  0
SEQEND
  8
mb694
  0
POLYLINE
  8
mb694
 62
4
 40
0.000000
 41
0.000000
 66
  1
  0
VERTEX
  8
mb694
 10
0.124000
 20
1.108000
  0
VERTEX
  8
mb694
 10
0.124000
 20
1.119000
  0
SEQEND
  8
mb694
  0
POLYLINE
  8
mb694
 62
4
 40
0.000000
 41
0.000000
 66
  1
  0
VERTEX
  8
mb694
 10
0.124000
 20
1.136000
  0
VERTEX
  8
mb694
 10
0.124000
 20
1.148000
  0
SEQEND
  8
mb694
  0
POLYLINE
  8
mb694
 62
4
 40
0.000000
 41
0.000000
 66
  1
  0
VERTEX
  8
mb694
 10
0.124000
 20
1.149000
  0
VERTEX
  8
mb694
 10
0.124000
 20
1.161000
  0
SEQEND
  8
mb694
  0
POLYLINE
  8
mb694
 62
4
 40
0.000000
 41
0.000000
 66
  1
  0
VERTEX
  8
mb694
 10
0.124000
 20
1.178000
  0
VERTEX
  8
mb694
 10
0.124000
 20
1.189000
  0
SEQEND
  8
mb694
  0
POLYLINE
  8
mb694
 62
4
 40
0.000000
 41
0.000000
 66
  1
  0
VERTEX
  8
mb694
 10
0.115000
 20
0.656000
  0
VERTEX
  8
mb694
 10
0.115000
 20
0.662000
  0
SEQEND
  8
mb694
  0
POLYLINE
  8
mb694
 62
4
 40
0.000000
 41
0.000000
 66
  1
  0
VERTEX
  8
mb694
 10
0.115000
 20
0.663000
  0
VERTEX
  8
mb694
 10
0.115000
 20
0.669000
  0
SEQEND
  8
mb694
  0
POLYLINE
  8
mb694
 62
4
 40
0.000000
 41
0.000000
 66
  1
  0
VERTEX
  8
mb694
 10
0.115000
 20
0.680000
  0
VERTEX
  8
mb694
 10
0.115000
 20
0.686000
  0
SEQEND
  8
mb694
  0
POLYLINE
  8
mb694
 62
4
 40
0.000000
 41
0.000000
 66
  1
  0
VERTEX
  8
mb694
 10
0.115000
 20
0.702000
  0
VERTEX
  8
mb694
 10
0.115000
 20
0.708000
  0
SEQEND
  8
mb694
  0
POLYLINE
  8
mb694
 62
4
 40
0.000000
 41
0.000000
 66
  1
  0
VERTEX
  8
mb694
 10
0.115000
 20
0.717000
  0
VERTEX
  8
mb694
 10
0.115000
 20
0.725000
  0
SEQEND
  8
mb694
  0
POLYLINE
  8
mb694
 62
4
 40
0.000000
 41
0.000000
 66
  1
  0
VERTEX
  8
mb694
 10
0.115000
 20
0.743000
  0
VERTEX
  8
mb694
 10
0.115000
 20
0.749000
  0
SEQEND
  8
mb694
  0
POLYLINE
  8
mb694
 62
4
 40
0.000000
 41
0.000000
 66
  1
  0
VERTEX
  8
mb694
 10
0.123000
 20
1.025000
  0
VERTEX
  8
mb694
 10
0.123000
 20
1.039000
  0
SEQEND
  8
mb694
  0
POLYLINE
  8
mb694
 62
4
 40
0.000000
 41
0.000000
 66
  1
  0
VERTEX
  8
mb694
 10
0.123000
 20
1.077000
  0
VERTEX
  8
mb694
 10
0.123000
 20
1.088000
  0
SEQEND
  8
mb694
  0
POLYLINE
  8
mb694
 62
4
 40
0.000000
 41
0.000000
 66
  1
  0
VERTEX
  8
mb694
 10
0.123000
 20
1.108000
  0
VERTEX
  8
mb694
 10
0.123000
 20
1.119000
  0
SEQEND
  8
mb694
  0
POLYLINE
  8
mb694
 62
4
 40
0.000000
 41
0.000000
 66
  1
  0
VERTEX
  8
mb694
 10
0.123000
 20
1.137000
  0
VERTEX
  8
mb694
 10
0.123000
 20
1.148000
  0
SEQEND
  8
mb694
  0
POLYLINE
  8
mb694
 62
4
 40
0.000000
 41
0.000000
 66
  1
  0
VERTEX
  8
mb694
 10
0.123000
 20
1.149000
  0
VERTEX
  8
mb694
 10
0.123000
 20
1.160000
  0
SEQEND
  8
mb694
  0
POLYLINE
  8
mb694
 62
4
 40
0.000000
 41
0.000000
 66
  1
  0
VERTEX
  8
mb694
 10
0.123000
 20
1.178000
  0
VERTEX
  8
mb694
 10
0.123000
 20
1.189000
  0
SEQEND
  8
mb694
  0
POLYLINE
  8
mb694
 62
4
 40
0.000000
 41
0.000000
 66
  1
  0
VERTEX
  8
mb694
 10
0.114000
 20
0.657000
  0
VERTEX
  8
mb694
 10
0.114000
 20
0.668000
  0
SEQEND
  8
mb694
  0
POLYLINE
  8
mb694
 62
4
 40
0.000000
 41
0.000000
 66
  1
  0
VERTEX
  8
mb694
 10
0.114000
 20
0.680000
  0
VERTEX
  8
mb694
 10
0.114000
 20
0.687000
  0
SEQEND
  8
mb694
  0
POLYLINE
  8
mb694
 62
4
 40
0.000000
 41
0.000000
 66
  1
  0
VERTEX
  8
mb694
 10
0.114000
 20
0.701000
  0
VERTEX
  8
mb694
 10
0.114000
 20
0.708000
  0
SEQEND
  8
mb694
  0
POLYLINE
  8
mb694
 62
4
 40
0.000000
 41
0.000000
 66
  1
  0
VERTEX
  8
mb694
 10
0.114000
 20
0.717000
  0
VERTEX
  8
mb694
 10
0.114000
 20
0.725000
  0
SEQEND
  8
mb694
  0
POLYLINE
  8
mb694
 62
4
 40
0.000000
 41
0.000000
 66
  1
  0
VERTEX
  8
mb694
 10
0.114000
 20
0.743000
  0
VERTEX
  8
mb694
 10
0.114000
 20
0.749000
  0
SEQEND
  8
mb694
  0
POLYLINE
  8
mb694
 62
4
 40
0.000000
 41
0.000000
 66
  1
  0
VERTEX
  8
mb694
 10
0.122000
 20
1.026000
  0
VERTEX
  8
mb694
 10
0.122000
 20
1.039000
  0
SEQEND
  8
mb694
  0
POLYLINE
  8
mb694
 62
4
 40
0.000000
 41
0.000000
 66
  1
  0
VERTEX
  8
mb694
 10
0.122000
 20
1.077000
  0
VERTEX
  8
mb694
 10
0.122000
 20
1.088000
  0
SEQEND
  8
mb694
  0
POLYLINE
  8
mb694
 62
4
 40
0.000000
 41
0.000000
 66
  1
  0
VERTEX
  8
mb694
 10
0.122000
 20
1.108000
  0
VERTEX
  8
mb694
 10
0.122000
 20
1.119000
  0
SEQEND
  8
mb694
  0
POLYLINE
  8
mb694
 62
4
 40
0.000000
 41
0.000000
 66
  1
  0
VERTEX
  8
mb694
 10
0.122000
 20
1.137000
  0
VERTEX
  8
mb694
 10
0.122000
 20
1.148000
  0
SEQEND
  8
mb694
  0
POLYLINE
  8
mb694
 62
4
 40
0.000000
 41
0.000000
 66
  1
  0
VERTEX
  8
mb694
 10
0.122000
 20
1.149000
  0
VERTEX
  8
mb694
 10
0.122000
 20
1.160000
  0
SEQEND
  8
mb694
  0
POLYLINE
  8
mb694
 62
4
 40
0.000000
 41
0.000000
 66
  1
  0
VERTEX
  8
mb694
 10
0.122000
 20
1.178000
  0
VERTEX
  8
mb694
 10
0.122000
 20
1.189000
  0
SEQEND
  8
mb694
  0
POLYLINE
  8
mb694
 62
4
 40
0.000000
 41
0.000000
 66
  1
  0
VERTEX
  8
mb694
 10
0.113000
 20
0.657000
  0
VERTEX
  8
mb694
 10
0.113000
 20
0.668000
  0
SEQEND
  8
mb694
  0
POLYLINE
  8
mb694
 62
4
 40
0.000000
 41
0.000000
 66
  1
  0
VERTEX
  8
mb694
 10
0.113000
 20
0.681000
  0
VERTEX
  8
mb694
 10
0.113000
 20
0.688000
  0
SEQEND
  8
mb694
  0
POLYLINE
  8
mb694
 62
4
 40
0.000000
 41
0.000000
 66
  1
  0
VERTEX
  8
mb694
 10
0.113000
 20
0.700000
  0
VERTEX
  8
mb694
 10
0.113000
 20
0.708000
  0
SEQEND
  8
mb694
  0
POLYLINE
  8
mb694
 62
4
 40
0.000000
 41
0.000000
 66
  1
  0
VERTEX
  8
mb694
 10
0.113000
 20
0.716000
  0
VERTEX
  8
mb694
 10
0.113000
 20
0.724000
  0
SEQEND
  8
mb694
  0
POLYLINE
  8
mb694
 62
4
 40
0.000000
 41
0.000000
 66
  1
  0
VERTEX
  8
mb694
 10
0.113000
 20
0.743000
  0
VERTEX
  8
mb694
 10
0.113000
 20
0.749000
  0
SEQEND
  8
mb694
  0
POLYLINE
  8
mb694
 62
4
 40
0.000000
 41
0.000000
 66
  1
  0
VERTEX
  8
mb694
 10
0.121000
 20
1.026000
  0
VERTEX
  8
mb694
 10
0.121000
 20
1.041000
  0
SEQEND
  8
mb694
  0
POLYLINE
  8
mb694
 62
4
 40
0.000000
 41
0.000000
 66
  1
  0
VERTEX
  8
mb694
 10
0.121000
 20
1.077000
  0
VERTEX
  8
mb694
 10
0.121000
 20
1.088000
  0
SEQEND
  8
mb694
  0
POLYLINE
  8
mb694
 62
4
 40
0.000000
 41
0.000000
 66
  1
  0
VERTEX
  8
mb694
 10
0.121000
 20
1.108000
  0
VERTEX
  8
mb694
 10
0.121000
 20
1.119000
  0
SEQEND
  8
mb694
  0
POLYLINE
  8
mb694
 62
4
 40
0.000000
 41
0.000000
 66
  1
  0
VERTEX
  8
mb694
 10
0.121000
 20
1.137000
  0
VERTEX
  8
mb694
 10
0.121000
 20
1.160000
  0
SEQEND
  8
mb694
  0
POLYLINE
  8
mb694
 62
4
 40
0.000000
 41
0.000000
 66
  1
  0
VERTEX
  8
mb694
 10
0.121000
 20
1.178000
  0
VERTEX
  8
mb694
 10
0.121000
 20
1.189000
  0
SEQEND
  8
mb694
  0
POLYLINE
  8
mb694
 62
4
 40
0.000000
 41
0.000000
 66
  1
  0
VERTEX
  8
mb694
 10
0.112000
 20
0.657000
  0
VERTEX
  8
mb694
 10
0.112000
 20
0.668000
  0
SEQEND
  8
mb694
  0
POLYLINE
  8
mb694
 62
4
 40
0.000000
 41
0.000000
 66
  1
  0
VERTEX
  8
mb694
 10
0.112000
 20
0.681000
  0
VERTEX
  8
mb694
 10
0.112000
 20
0.689000
  0
SEQEND
  8
mb694
  0
POLYLINE
  8
mb694
 62
4
 40
0.000000
 41
0.000000
 66
  1
  0
VERTEX
  8
mb694
 10
0.112000
 20
0.699000
  0
VERTEX
  8
mb694
 10
0.112000
 20
0.707000
  0
SEQEND
  8
mb694
  0
POLYLINE
  8
mb694
 62
4
 40
0.000000
 41
0.000000
 66
  1
  0
VERTEX
  8
mb694
 10
0.112000
 20
0.715000
  0
VERTEX
  8
mb694
 10
0.112000
 20
0.723000
  0
SEQEND
  8
mb694
  0
POLYLINE
  8
mb694
 62
4
 40
0.000000
 41
0.000000
 66
  1
  0
VERTEX
  8
mb694
 10
0.112000
 20
0.743000
  0
VERTEX
  8
mb694
 10
0.112000
 20
0.749000
  0
SEQEND
  8
mb694
  0
POLYLINE
  8
mb694
 62
4
 40
0.000000
 41
0.000000
 66
  1
  0
VERTEX
  8
mb694
 10
0.120000
 20
1.027000
  0
VERTEX
  8
mb694
 10
0.120000
 20
1.042000
  0
SEQEND
  8
mb694
  0
POLYLINE
  8
mb694
 62
4
 40
0.000000
 41
0.000000
 66
  1
  0
VERTEX
  8
mb694
 10
0.120000
 20
1.077000
  0
VERTEX
  8
mb694
 10
0.120000
 20
1.088000
  0
SEQEND
  8
mb694
  0
POLYLINE
  8
mb694
 62
4
 40
0.000000
 41
0.000000
 66
  1
  0
VERTEX
  8
mb694
 10
0.120000
 20
1.108000
  0
VERTEX
  8
mb694
 10
0.120000
 20
1.119000
  0
SEQEND
  8
mb694
  0
POLYLINE
  8
mb694
 62
4
 40
0.000000
 41
0.000000
 66
  1
  0
VERTEX
  8
mb694
 10
0.120000
 20
1.138000
  0
VERTEX
  8
mb694
 10
0.120000
 20
1.159000
  0
SEQEND
  8
mb694
  0
POLYLINE
  8
mb694
 62
4
 40
0.000000
 41
0.000000
 66
  1
  0
VERTEX
  8
mb694
 10
0.120000
 20
1.178000
  0
VERTEX
  8
mb694
 10
0.120000
 20
1.189000
  0
SEQEND
  8
mb694
  0
POLYLINE
  8
mb694
 62
4
 40
0.000000
 41
0.000000
 66
  1
  0
VERTEX
  8
mb694
 10
0.111000
 20
0.637000
  0
VERTEX
  8
mb694
 10
0.111000
 20
0.642000
  0
SEQEND
  8
mb694
  0
POLYLINE
  8
mb694
 62
4
 40
0.000000
 41
0.000000
 66
  1
  0
VERTEX
  8
mb694
 10
0.111000
 20
0.658000
  0
VERTEX
  8
mb694
 10
0.111000
 20
0.667000
  0
SEQEND
  8
mb694
  0
POLYLINE
  8
mb694
 62
4
 40
0.000000
 41
0.000000
 66
  1
  0
VERTEX
  8
mb694
 10
0.111000
 20
0.682000
  0
VERTEX
  8
mb694
 10
0.111000
 20
0.692000
  0
SEQEND
  8
mb694
  0
POLYLINE
  8
mb694
 62
4
 40
0.000000
 41
0.000000
 66
  1
  0
VERTEX
  8
mb694
 10
0.111000
 20
0.696000
  0
VERTEX
  8
mb694
 10
0.111000
 20
0.706000
  0
SEQEND
  8
mb694
  0
POLYLINE
  8
mb694
 62
4
 40
0.000000
 41
0.000000
 66
  1
  0
VERTEX
  8
mb694
 10
0.111000
 20
0.715000
  0
VERTEX
  8
mb694
 10
0.111000
 20
0.723000
  0
SEQEND
  8
mb694
  0
POLYLINE
  8
mb694
 62
4
 40
0.000000
 41
0.000000
 66
  1
  0
VERTEX
  8
mb694
 10
0.111000
 20
0.743000
  0
VERTEX
  8
mb694
 10
0.111000
 20
0.749000
  0
SEQEND
  8
mb694
  0
POLYLINE
  8
mb694
 62
4
 40
0.000000
 41
0.000000
 66
  1
  0
VERTEX
  8
mb694
 10
0.119000
 20
1.027000
  0
VERTEX
  8
mb694
 10
0.119000
 20
1.045000
  0
SEQEND
  8
mb694
  0
POLYLINE
  8
mb694
 62
4
 40
0.000000
 41
0.000000
 66
  1
  0
VERTEX
  8
mb694
 10
0.119000
 20
1.077000
  0
VERTEX
  8
mb694
 10
0.119000
 20
1.088000
  0
SEQEND
  8
mb694
  0
POLYLINE
  8
mb694
 62
4
 40
0.000000
 41
0.000000
 66
  1
  0
VERTEX
  8
mb694
 10
0.119000
 20
1.108000
  0
VERTEX
  8
mb694
 10
0.119000
 20
1.119000
  0
SEQEND
  8
mb694
  0
POLYLINE
  8
mb694
 62
4
 40
0.000000
 41
0.000000
 66
  1
  0
VERTEX
  8
mb694
 10
0.119000
 20
1.138000
  0
VERTEX
  8
mb694
 10
0.119000
 20
1.159000
  0
SEQEND
  8
mb694
  0
POLYLINE
  8
mb694
 62
4
 40
0.000000
 41
0.000000
 66
  1
  0
VERTEX
  8
mb694
 10
0.119000
 20
1.178000
  0
VERTEX
  8
mb694
 10
0.119000
 20
1.189000
  0
SEQEND
  8
mb694
  0
POLYLINE
  8
mb694
 62
4
 40
0.000000
 41
0.000000
 66
  1
  0
VERTEX
  8
mb694
 10
0.110000
 20
0.637000
  0
VERTEX
  8
mb694
 10
0.110000
 20
0.642000
  0
SEQEND
  8
mb694
  0
POLYLINE
  8
mb694
 62
4
 40
0.000000
 41
0.000000
 66
  1
  0
VERTEX
  8
mb694
 10
0.110000
 20
0.658000
  0
VERTEX
  8
mb694
 10
0.110000
 20
0.667000
  0
SEQEND
  8
mb694
  0
POLYLINE
  8
mb694
 62
4
 40
0.000000
 41
0.000000
 66
  1
  0
VERTEX
  8
mb694
 10
0.110000
 20
0.682000
  0
VERTEX
  8
mb694
 10
0.110000
 20
0.706000
  0
SEQEND
  8
mb694
  0
POLYLINE
  8
mb694
 62
4
 40
0.000000
 41
0.000000
 66
  1
  0
VERTEX
  8
mb694
 10
0.110000
 20
0.714000
  0
VERTEX
  8
mb694
 10
0.110000
 20
0.722000
  0
SEQEND
  8
mb694
  0
POLYLINE
  8
mb694
 62
4
 40
0.000000
 41
0.000000
 66
  1
  0
VERTEX
  8
mb694
 10
0.110000
 20
0.743000
  0
VERTEX
  8
mb694
 10
0.110000
 20
0.749000
  0
SEQEND
  8
mb694
  0
POLYLINE
  8
mb694
 62
4
 40
0.000000
 41
0.000000
 66
  1
  0
VERTEX
  8
mb694
 10
0.118000
 20
1.028000
  0
VERTEX
  8
mb694
 10
0.118000
 20
1.051000
  0
SEQEND
  8
mb694
  0
POLYLINE
  8
mb694
 62
4
 40
0.000000
 41
0.000000
 66
  1
  0
VERTEX
  8
mb694
 10
0.118000
 20
1.077000
  0
VERTEX
  8
mb694
 10
0.118000
 20
1.088000
  0
SEQEND
  8
mb694
  0
POLYLINE
  8
mb694
 62
4
 40
0.000000
 41
0.000000
 66
  1
  0
VERTEX
  8
mb694
 10
0.118000
 20
1.108000
  0
VERTEX
  8
mb694
 10
0.118000
 20
1.119000
  0
SEQEND
  8
mb694
  0
POLYLINE
  8
mb694
 62
4
 40
0.000000
 41
0.000000
 66
  1
  0
VERTEX
  8
mb694
 10
0.118000
 20
1.138000
  0
VERTEX
  8
mb694
 10
0.118000
 20
1.159000
  0
SEQEND
  8
mb694
  0
POLYLINE
  8
mb694
 62
4
 40
0.000000
 41
0.000000
 66
  1
  0
VERTEX
  8
mb694
 10
0.118000
 20
1.178000
  0
VERTEX
  8
mb694
 10
0.118000
 20
1.189000
  0
SEQEND
  8
mb694
  0
POLYLINE
  8
mb694
 62
4
 40
0.000000
 41
0.000000
 66
  1
  0
VERTEX
  8
mb694
 10
0.109000
 20
0.637000
  0
VERTEX
  8
mb694
 10
0.109000
 20
0.642000
  0
SEQEND
  8
mb694
  0
POLYLINE
  8
mb694
 62
4
 40
0.000000
 41
0.000000
 66
  1
  0
VERTEX
  8
mb694
 10
0.109000
 20
0.659000
  0
VERTEX
  8
mb694
 10
0.109000
 20
0.666000
  0
SEQEND
  8
mb694
  0
POLYLINE
  8
mb694
 62
4
 40
0.000000
 41
0.000000
 66
  1
  0
VERTEX
  8
mb694
 10
0.109000
 20
0.683000
  0
VERTEX
  8
mb694
 10
0.109000
 20
0.705000
  0
SEQEND
  8
mb694
  0
POLYLINE
  8
mb694
 62
4
 40
0.000000
 41
0.000000
 66
  1
  0
VERTEX
  8
mb694
 10
0.109000
 20
0.714000
  0
VERTEX
  8
mb694
 10
0.109000
 20
0.721000
  0
SEQEND
  8
mb694
  0
POLYLINE
  8
mb694
 62
4
 40
0.000000
 41
0.000000
 66
  1
  0
VERTEX
  8
mb694
 10
0.109000
 20
0.743000
  0
VERTEX
  8
mb694
 10
0.109000
 20
0.749000
  0
SEQEND
  8
mb694
  0
POLYLINE
  8
mb694
 62
4
 40
0.000000
 41
0.000000
 66
  1
  0
VERTEX
  8
mb694
 10
0.117000
 20
1.029000
  0
VERTEX
  8
mb694
 10
0.117000
 20
1.088000
  0
SEQEND
  8
mb694
  0
POLYLINE
  8
mb694
 62
4
 40
0.000000
 41
0.000000
 66
  1
  0
VERTEX
  8
mb694
 10
0.117000
 20
1.108000
  0
VERTEX
  8
mb694
 10
0.117000
 20
1.119000
  0
SEQEND
  8
mb694
  0
POLYLINE
  8
mb694
 62
4
 40
0.000000
 41
0.000000
 66
  1
  0
VERTEX
  8
mb694
 10
0.117000
 20
1.139000
  0
VERTEX
  8
mb694
 10
0.117000
 20
1.158000
  0
SEQEND
  8
mb694
  0
POLYLINE
  8
mb694
 62
4
 40
0.000000
 41
0.000000
 66
  1
  0
VERTEX
  8
mb694
 10
0.117000
 20
1.178000
  0
VERTEX
  8
mb694
 10
0.117000
 20
1.189000
  0
SEQEND
  8
mb694
  0
POLYLINE
  8
mb694
 62
4
 40
0.000000
 41
0.000000
 66
  1
  0
VERTEX
  8
mb694
 10
0.108000
 20
0.637000
  0
VERTEX
  8
mb694
 10
0.108000
 20
0.642000
  0
SEQEND
  8
mb694
  0
POLYLINE
  8
mb694
 62
4
 40
0.000000
 41
0.000000
 66
  1
  0
VERTEX
  8
mb694
 10
0.108000
 20
0.659000
  0
VERTEX
  8
mb694
 10
0.108000
 20
0.666000
  0
SEQEND
  8
mb694
  0
POLYLINE
  8
mb694
 62
4
 40
0.000000
 41
0.000000
 66
  1
  0
VERTEX
  8
mb694
 10
0.108000
 20
0.685000
  0
VERTEX
  8
mb694
 10
0.108000
 20
0.704000
  0
SEQEND
  8
mb694
  0
POLYLINE
  8
mb694
 62
4
 40
0.000000
 41
0.000000
 66
  1
  0
VERTEX
  8
mb694
 10
0.108000
 20
0.713000
  0
VERTEX
  8
mb694
 10
0.108000
 20
0.721000
  0
SEQEND
  8
mb694
  0
POLYLINE
  8
mb694
 62
4
 40
0.000000
 41
0.000000
 66
  1
  0
VERTEX
  8
mb694
 10
0.108000
 20
0.743000
  0
VERTEX
  8
mb694
 10
0.108000
 20
0.749000
  0
SEQEND
  8
mb694
  0
POLYLINE
  8
mb694
 62
4
 40
0.000000
 41
0.000000
 66
  1
  0
VERTEX
  8
mb694
 10
0.116000
 20
1.029000
  0
VERTEX
  8
mb694
 10
0.116000
 20
1.088000
  0
SEQEND
  8
mb694
  0
POLYLINE
  8
mb694
 62
4
 40
0.000000
 41
0.000000
 66
  1
  0
VERTEX
  8
mb694
 10
0.116000
 20
1.108000
  0
VERTEX
  8
mb694
 10
0.116000
 20
1.119000
  0
SEQEND
  8
mb694
  0
POLYLINE
  8
mb694
 62
4
 40
0.000000
 41
0.000000
 66
  1
  0
VERTEX
  8
mb694
 10
0.116000
 20
1.139000
  0
VERTEX
  8
mb694
 10
0.116000
 20
1.158000
  0
SEQEND
  8
mb694
  0
POLYLINE
  8
mb694
 62
4
 40
0.000000
 41
0.000000
 66
  1
  0
VERTEX
  8
mb694
 10
0.116000
 20
1.178000
  0
VERTEX
  8
mb694
 10
0.116000
 20
1.189000
  0
SEQEND
  8
mb694
  0
POLYLINE
  8
mb694
 62
4
 40
0.000000
 41
0.000000
 66
  1
  0
VERTEX
  8
mb694
 10
0.107000
 20
0.637000
  0
VERTEX
  8
mb694
 10
0.107000
 20
0.642000
  0
SEQEND
  8
mb694
  0
POLYLINE
  8
mb694
 62
4
 40
0.000000
 41
0.000000
 66
  1
  0
VERTEX
  8
mb694
 10
0.107000
 20
0.659000
  0
VERTEX
  8
mb694
 10
0.107000
 20
0.666000
  0
SEQEND
  8
mb694
  0
POLYLINE
  8
mb694
 62
4
 40
0.000000
 41
0.000000
 66
  1
  0
VERTEX
  8
mb694
 10
0.107000
 20
0.686000
  0
VERTEX
  8
mb694
 10
0.107000
 20
0.702000
  0
SEQEND
  8
mb694
  0
POLYLINE
  8
mb694
 62
4
 40
0.000000
 41
0.000000
 66
  1
  0
VERTEX
  8
mb694
 10
0.107000
 20
0.712000
  0
VERTEX
  8
mb694
 10
0.107000
 20
0.720000
  0
SEQEND
  8
mb694
  0
POLYLINE
  8
mb694
 62
4
 40
0.000000
 41
0.000000
 66
  1
  0
VERTEX
  8
mb694
 10
0.107000
 20
0.743000
  0
VERTEX
  8
mb694
 10
0.107000
 20
0.749000
  0
SEQEND
  8
mb694
  0
POLYLINE
  8
mb694
 62
4
 40
0.000000
 41
0.000000
 66
  1
  0
VERTEX
  8
mb694
 10
0.115000
 20
1.030000
  0
VERTEX
  8
mb694
 10
0.115000
 20
1.088000
  0
SEQEND
  8
mb694
  0
POLYLINE
  8
mb694
 62
4
 40
0.000000
 41
0.000000
 66
  1
  0
VERTEX
  8
mb694
 10
0.115000
 20
1.108000
  0
VERTEX
  8
mb694
 10
0.115000
 20
1.119000
  0
SEQEND
  8
mb694
  0
POLYLINE
  8
mb694
 62
4
 40
0.000000
 41
0.000000
 66
  1
  0
VERTEX
  8
mb694
 10
0.115000
 20
1.139000
  0
VERTEX
  8
mb694
 10
0.115000
 20
1.158000
  0
SEQEND
  8
mb694
  0
POLYLINE
  8
mb694
 62
4
 40
0.000000
 41
0.000000
 66
  1
  0
VERTEX
  8
mb694
 10
0.115000
 20
1.178000
  0
VERTEX
  8
mb694
 10
0.115000
 20
1.189000
  0
SEQEND
  8
mb694
  0
POLYLINE
  8
mb694
 62
4
 40
0.000000
 41
0.000000
 66
  1
  0
VERTEX
  8
mb694
 10
0.106000
 20
0.688000
  0
VERTEX
  8
mb694
 10
0.106000
 20
0.700000
  0
SEQEND
  8
mb694
  0
POLYLINE
  8
mb694
 62
4
 40
0.000000
 41
0.000000
 66
  1
  0
VERTEX
  8
mb694
 10
0.114000
 20
1.031000
  0
VERTEX
  8
mb694
 10
0.114000
 20
1.088000
  0
SEQEND
  8
mb694
  0
POLYLINE
  8
mb694
 62
4
 40
0.000000
 41
0.000000
 66
  1
  0
VERTEX
  8
mb694
 10
0.114000
 20
1.108000
  0
VERTEX
  8
mb694
 10
0.114000
 20
1.119000
  0
SEQEND
  8
mb694
  0
POLYLINE
  8
mb694
 62
4
 40
0.000000
 41
0.000000
 66
  1
  0
VERTEX
  8
mb694
 10
0.114000
 20
1.140000
  0
VERTEX
  8
mb694
 10
0.114000
 20
1.157000
  0
SEQEND
  8
mb694
  0
POLYLINE
  8
mb694
 62
4
 40
0.000000
 41
0.000000
 66
  1
  0
VERTEX
  8
mb694
 10
0.114000
 20
1.178000
  0
VERTEX
  8
mb694
 10
0.114000
 20
1.189000
  0
SEQEND
  8
mb694
  0
POLYLINE
  8
mb694
 62
4
 40
0.000000
 41
0.000000
 66
  1
  0
VERTEX
  8
mb694
 10
0.113000
 20
1.032000
  0
VERTEX
  8
mb694
 10
0.113000
 20
1.088000
  0
SEQEND
  8
mb694
  0
POLYLINE
  8
mb694
 62
4
 40
0.000000
 41
0.000000
 66
  1
  0
VERTEX
  8
mb694
 10
0.113000
 20
1.108000
  0
VERTEX
  8
mb694
 10
0.113000
 20
1.119000
  0
SEQEND
  8
mb694
  0
POLYLINE
  8
mb694
 62
4
 40
0.000000
 41
0.000000
 66
  1
  0
VERTEX
  8
mb694
 10
0.113000
 20
1.140000
  0
VERTEX
  8
mb694
 10
0.113000
 20
1.157000
  0
SEQEND
  8
mb694
  0
POLYLINE
  8
mb694
 62
4
 40
0.000000
 41
0.000000
 66
  1
  0
VERTEX
  8
mb694
 10
0.113000
 20
1.178000
  0
VERTEX
  8
mb694
 10
0.113000
 20
1.189000
  0
SEQEND
  8
mb694
  0
POLYLINE
  8
mb694
 62
4
 40
0.000000
 41
0.000000
 66
  1
  0
VERTEX
  8
mb694
 10
0.112000
 20
1.034000
  0
VERTEX
  8
mb694
 10
0.112000
 20
1.088000
  0
SEQEND
  8
mb694
  0
POLYLINE
  8
mb694
 62
4
 40
0.000000
 41
0.000000
 66
  1
  0
VERTEX
  8
mb694
 10
0.112000
 20
1.108000
  0
VERTEX
  8
mb694
 10
0.112000
 20
1.119000
  0
SEQEND
  8
mb694
  0
POLYLINE
  8
mb694
 62
4
 40
0.000000
 41
0.000000
 66
  1
  0
VERTEX
  8
mb694
 10
0.112000
 20
1.140000
  0
VERTEX
  8
mb694
 10
0.112000
 20
1.157000
  0
SEQEND
  8
mb694
  0
POLYLINE
  8
mb694
 62
4
 40
0.000000
 41
0.000000
 66
  1
  0
VERTEX
  8
mb694
 10
0.112000
 20
1.178000
  0
VERTEX
  8
mb694
 10
0.112000
 20
1.189000
  0
SEQEND
  8
mb694
  0
POLYLINE
  8
mb694
 62
4
 40
0.000000
 41
0.000000
 66
  1
  0
VERTEX
  8
mb694
 10
0.111000
 20
1.035000
  0
VERTEX
  8
mb694
 10
0.111000
 20
1.088000
  0
SEQEND
  8
mb694
  0
POLYLINE
  8
mb694
 62
4
 40
0.000000
 41
0.000000
 66
  1
  0
VERTEX
  8
mb694
 10
0.111000
 20
1.108000
  0
VERTEX
  8
mb694
 10
0.111000
 20
1.119000
  0
SEQEND
  8
mb694
  0
POLYLINE
  8
mb694
 62
4
 40
0.000000
 41
0.000000
 66
  1
  0
VERTEX
  8
mb694
 10
0.111000
 20
1.141000
  0
VERTEX
  8
mb694
 10
0.111000
 20
1.157000
  0
SEQEND
  8
mb694
  0
POLYLINE
  8
mb694
 62
4
 40
0.000000
 41
0.000000
 66
  1
  0
VERTEX
  8
mb694
 10
0.111000
 20
1.178000
  0
VERTEX
  8
mb694
 10
0.111000
 20
1.189000
  0
SEQEND
  8
mb694
  0
POLYLINE
  8
mb694
 62
4
 40
0.000000
 41
0.000000
 66
  1
  0
VERTEX
  8
mb694
 10
0.110000
 20
1.038000
  0
VERTEX
  8
mb694
 10
0.110000
 20
1.088000
  0
SEQEND
  8
mb694
  0
POLYLINE
  8
mb694
 62
4
 40
0.000000
 41
0.000000
 66
  1
  0
VERTEX
  8
mb694
 10
0.110000
 20
1.108000
  0
VERTEX
  8
mb694
 10
0.110000
 20
1.119000
  0
SEQEND
  8
mb694
  0
POLYLINE
  8
mb694
 62
4
 40
0.000000
 41
0.000000
 66
  1
  0
VERTEX
  8
mb694
 10
0.110000
 20
1.141000
  0
VERTEX
  8
mb694
 10
0.110000
 20
1.156000
  0
SEQEND
  8
mb694
  0
POLYLINE
  8
mb694
 62
4
 40
0.000000
 41
0.000000
 66
  1
  0
VERTEX
  8
mb694
 10
0.110000
 20
1.178000
  0
VERTEX
  8
mb694
 10
0.110000
 20
1.189000
  0
SEQEND
  8
mb694
  0
POLYLINE
  8
mb694
 62
4
 40
0.000000
 41
0.000000
 66
  1
  0
VERTEX
  8
mb694
 10
0.109000
 20
1.040000
  0
VERTEX
  8
mb694
 10
0.109000
 20
1.088000
  0
SEQEND
  8
mb694
  0
POLYLINE
  8
mb694
 62
4
 40
0.000000
 41
0.000000
 66
  1
  0
VERTEX
  8
mb694
 10
0.109000
 20
1.108000
  0
VERTEX
  8
mb694
 10
0.109000
 20
1.119000
  0
SEQEND
  8
mb694
  0
POLYLINE
  8
mb694
 62
4
 40
0.000000
 41
0.000000
 66
  1
  0
VERTEX
  8
mb694
 10
0.109000
 20
1.141000
  0
VERTEX
  8
mb694
 10
0.109000
 20
1.156000
  0
SEQEND
  8
mb694
  0
POLYLINE
  8
mb694
 62
4
 40
0.000000
 41
0.000000
 66
  1
  0
VERTEX
  8
mb694
 10
0.109000
 20
1.178000
  0
VERTEX
  8
mb694
 10
0.109000
 20
1.189000
  0
SEQEND
  8
mb694
  0
POLYLINE
  8
mb694
 62
4
 40
0.000000
 41
0.000000
 66
  1
  0
VERTEX
  8
mb694
 10
0.108000
 20
1.044000
  0
VERTEX
  8
mb694
 10
0.108000
 20
1.088000
  0
SEQEND
  8
mb694
  0
POLYLINE
  8
mb694
 62
4
 40
0.000000
 41
0.000000
 66
  1
  0
VERTEX
  8
mb694
 10
0.108000
 20
1.108000
  0
VERTEX
  8
mb694
 10
0.108000
 20
1.119000
  0
SEQEND
  8
mb694
  0
POLYLINE
  8
mb694
 62
4
 40
0.000000
 41
0.000000
 66
  1
  0
VERTEX
  8
mb694
 10
0.108000
 20
1.142000
  0
VERTEX
  8
mb694
 10
0.108000
 20
1.156000
  0
SEQEND
  8
mb694
  0
POLYLINE
  8
mb694
 62
4
 40
0.000000
 41
0.000000
 66
  1
  0
VERTEX
  8
mb694
 10
0.108000
 20
1.178000
  0
VERTEX
  8
mb694
 10
0.108000
 20
1.189000
  0
SEQEND
  8
mb694
  0
POLYLINE
  8
mb694
 62
4
 40
0.000000
 41
0.000000
 66
  1
  0
VERTEX
  8
mb694
 10
0.134000
 20
1.024000
  0
VERTEX
  8
mb694
 10
0.134000
 20
1.035000
  0
SEQEND
  8
mb694
  0
POLYLINE
  8
mb694
 62
1
 40
0.000000
 41
0.000000
 66
  1
  0
VERTEX
  8
mb694
 10
0.524000
 20
1.263000
  0
VERTEX
  8
mb694
 10
0.524000
 20
1.263000
  0
VERTEX
  8
mb694
 10
0.524000
 20
1.263000
 42
1.000000
  0
VERTEX
  8
mb694
 10
0.324000
 20
1.263000
  0
VERTEX
  8
mb694
 10
0.324000
 20
1.263000
  0
SEQEND
  8
mb694
  0
POLYLINE
  8
mb694
 62
1
 40
0.000000
 41
0.000000
 66
  1
  0
VERTEX
  8
mb694
 10
0.324000
 20
0.138000
  0
VERTEX
  8
mb694
 10
0.324000
 20
0.138000
  0
VERTEX
  8
mb694
 10
0.324000
 20
0.138000
 42
1.000000
  0
VERTEX
  8
mb694
 10
0.524000
 20
0.138000
  0
VERTEX
  8
mb694
 10
0.524000
 20
0.138000
  0
SEQEND
  8
mb694
  0
POLYLINE
  8
mb694
 62
1
 40
0.000000
 41
0.000000
 66
  1
  0
VERTEX
  8
mb694
 10
-0.086000
 20
1.573000
  0
VERTEX
  8
mb694
 10
3.219000
 20
1.573000
  0
SEQEND
  8
mb694
  0
POLYLINE
  8
mb694
 62
1
 40
0.000000
 41
0.000000
 66
  1
  0
VERTEX
  8
mb694
 10
3.218000
 20
-0.158000
  0
VERTEX
  8
mb694
 10
3.219000
 20
-0.157000
  0
VERTEX
  8
mb694
 10
3.219000
 20
1.573000
  0
SEQEND
  8
mb694
  0
POLYLINE
  8
mb694
 62
1
 40
0.000000
 41
0.000000
 66
  1
  0
VERTEX
  8
mb694
 10
0.324000
 20
0.138000
  0
VERTEX
  8
mb694
 10
0.324000
 20
1.263000
  0
SEQEND
  8
mb694
  0
POLYLINE
  8
mb694
 62
1
 40
0.000000
 41
0.000000
 66
  1
  0
VERTEX
  8
mb694
 10
0.524000
 20
0.138000
  0
VERTEX
  8
mb694
 10
0.524000
 20
1.258000
  0
SEQEND
  8
mb694
  0
POLYLINE
  8
mb694
 62
1
 40
0.000000
 41
0.000000
 66
  1
  0
VERTEX
  8
mb694
 10
-0.086000
 20
-0.158000
  0
VERTEX
  8
mb694
 10
-0.086000
 20
1.573000
  0
SEQEND
  8
mb694
  0
POLYLINE
  8
mb694
 62
1
 40
0.000000
 41
0.000000
 66
  1
  0
VERTEX
  8
mb694
 10
-0.086000
 20
-0.158000
  0
VERTEX
  8
mb694
 10
3.218000
 20
-0.158000
  0
SEQEND
  8
mb694
  0
ENDSEC
  0
EOF
