%FSTAX23Y23*%
%MOIN*%
%SFA1B1*%

%IPPOS*%
%ADD12R,0.047000X0.122000*%
%ADD13R,0.055000X0.138000*%
%ADD14R,0.059000X0.122000*%
%ADD15R,0.063000X0.138000*%
%ADD16R,0.080000X0.047000*%
%ADD17R,0.200000X0.120000*%
%ADD18R,0.077000X0.055000*%
%ADD19R,0.031000X0.063000*%
%ADD20R,0.033000X0.063000*%
%ADD21C,0.010000*%
%ADD22R,0.030000X0.030000*%
%ADD23R,0.050000X0.040000*%
%ADD24R,0.060000X0.040000*%
%ADD25R,0.050000X0.100000*%
%ADD26R,0.035000X0.013000*%
%ADD27R,0.091000X0.069000*%
%ADD28R,0.075000X0.051000*%
%ADD29R,0.075000X0.025000*%
%ADD30R,0.079000X0.020000*%
%ADD31R,0.045000X0.012000*%
%ADD32R,0.039000X0.110000*%
%ADD33R,0.056000X0.110000*%
%ADD34R,0.402000X0.315000*%
%ADD35R,0.037000X0.028000*%
%ADD36R,0.087000X0.031000*%
%ADD37R,0.039000X0.020000*%
%ADD38R,0.100000X0.160000*%
%ADD39R,0.046000X0.011000*%
%ADD40R,0.046000X0.011000*%
%ADD41R,0.008000X0.059000*%
%ADD42R,0.059000X0.008000*%
%ADD43R,0.051000X0.079000*%
%ADD44R,0.079000X0.079000*%
%ADD45R,0.100000X0.050000*%
%ADD46R,0.050000X0.036000*%
%ADD47R,0.036000X0.036000*%
%ADD48R,0.040000X0.050000*%
%ADD49R,0.076000X0.024000*%
%ADD50O,0.236000X0.098000*%
%ADD51C,0.012000*%
%ADD57C,0.005000*%
%LNmb525b-1*%
%LPD*%
G54D12*
X39118Y56237D03*
G54D13*
X39713Y56689D03*
G54D14*
X39124Y56689D03*
G54D15*
X39709Y56256D03*
G54D16*
X3877Y51925D03*
X3893D03*
G54D17*
X3885Y52925D03*
X391D03*
G54D18*
X39133Y56573D03*
G54D19*
X39387Y56172D03*
X3943D03*
X393D03*
X39214D03*
X39517D03*
X39474D03*
X39257D03*
X39344D03*
G54D20*
X39169Y56172D03*
G54D21*
X41053Y50382D02*
X41032Y50403D01*
X41074Y50446*
X41096Y50424*
X41053Y50382*
Y50394D02*
X41044Y50403D01*
X41074Y50434*
X41084Y50424*
X41053Y50394*
X41055Y50404D02*
X41073Y50423D01*
X41226Y50554D02*
X41204Y50576D01*
X41247Y50618*
X41268Y50597*
X41226Y50554*
Y50566D02*
X41216Y50576D01*
X41247Y50606*
X41256Y50597*
X41226Y50566*
X41227Y50577D02*
X41245Y50596D01*
X41265Y50516D02*
X41243Y50537D01*
X41286Y50579*
X41307Y50558*
X41265Y50516*
Y50527D02*
X41255Y50537D01*
X41286Y50567*
X41295Y50558*
X41265Y50527*
X41266Y50538D02*
X41284Y50557D01*
X41187Y50593D02*
X41166Y50615D01*
X41208Y50657*
X41229Y50636*
X41187Y50593*
Y50605D02*
X41177Y50615D01*
X41208Y50645*
X41217Y50636*
X41187Y50605*
X41188Y50615D02*
X41206Y50635D01*
X41092Y50343D02*
X41071Y50364D01*
X41113Y50407*
X41134Y50385*
X41092Y50343*
Y50355D02*
X41083Y50364D01*
X41113Y50395*
X41123Y50385*
X41092Y50355*
X41094Y50365D02*
X41112Y50385D01*
X41014Y50421D02*
X40993Y50442D01*
X41035Y50484*
X41057Y50463*
X41014Y50421*
Y50433D02*
X41005Y50442D01*
X41035Y50473*
X41045Y50463*
X41014Y50433*
X41016Y50443D02*
X41034Y50462D01*
G54D22*
X40197Y55275D03*
X40252D03*
X40647D03*
X40702D03*
Y55375D03*
X40647D03*
X39577Y54375D03*
X39522D03*
X41998Y5595D03*
X42053D03*
X41998Y5605D03*
X42053D03*
X41403Y552D03*
X41347D03*
X40825Y54722D03*
Y54778D03*
X39752Y5165D03*
X39697D03*
X42123Y5425D03*
X42178D03*
X39577Y55575D03*
X39522D03*
X415Y56428D03*
Y56373D03*
X39373Y55425D03*
X39428D03*
X4035Y56397D03*
Y56452D03*
X41425Y56373D03*
Y56428D03*
X41275D03*
Y56373D03*
X4062Y50798D03*
Y50853D03*
X39697Y514D03*
X39752D03*
X41627Y5155D03*
X41572D03*
X387Y53002D03*
Y52947D03*
X40125Y55097D03*
Y55153D03*
X40025Y55097D03*
Y55153D03*
X38725Y54577D03*
Y54522D03*
X387Y55903D03*
Y55847D03*
X39373Y5565D03*
X39428D03*
X39925Y55303D03*
Y55248D03*
X4135Y56373D03*
Y56428D03*
X41572Y51475D03*
X41627D03*
X40125Y56397D03*
X39975Y56452D03*
X42202Y532D03*
X39752Y515D03*
X42147Y532D03*
X4052Y50853D03*
X4042D03*
X4032D03*
Y50798D03*
X4052D03*
X4042D03*
X39327Y5415D03*
X39272D03*
X41077Y52475D03*
X41022D03*
X40952D03*
X40897D03*
X41298D03*
X41353D03*
X4035Y52178D03*
Y52123D03*
X41272Y539D03*
X41327D03*
X41022Y528D03*
X41077D03*
X41022Y52875D03*
X41077D03*
X42178Y54025D03*
X42123D03*
X39697Y513D03*
X39752D03*
X42202Y531D03*
X42147D03*
X39373Y555D03*
X39428D03*
X39697Y51725D03*
X39752D03*
X40275Y52178D03*
Y52123D03*
X40127Y52375D03*
X40072D03*
X402Y52178D03*
Y52123D03*
X391Y52572D03*
Y52627D03*
X40125Y56452D03*
X40072Y52475D03*
X40127D03*
X39675Y52197D03*
Y52252D03*
X41347Y553D03*
X41403D03*
X40748Y51325D03*
X40803D03*
X39998Y5155D03*
X40053D03*
Y51475D03*
X39998D03*
X4005Y56452D03*
Y56397D03*
X40425Y56452D03*
X39548Y54275D03*
X39603D03*
X42147Y529D03*
X42202D03*
X39025Y52627D03*
Y52572D03*
X38528Y5345D03*
X38472D03*
X39697Y518D03*
X39752D03*
X39775Y54197D03*
X40373Y55025D03*
X40577Y53975D03*
X39775Y54722D03*
X41202Y5155D03*
X41147D03*
X41272Y54025D03*
X41327D03*
X39697Y51875D03*
X39752D03*
X39522D03*
X39577D03*
Y518D03*
X39522D03*
X40173Y5605D03*
X40228D03*
X39072Y5165D03*
X39127D03*
X42202Y527D03*
X42147D03*
X42202Y528D03*
X42147D03*
Y53D03*
X42202D03*
Y534D03*
X42147D03*
X42202Y533D03*
X42147D03*
X39998Y514D03*
X40053D03*
X40803Y5185D03*
X40748D03*
X39998Y5195D03*
X40053D03*
X40748Y51475D03*
X40803D03*
Y514D03*
X40748D03*
X40803Y51925D03*
X40748D03*
X41822Y5625D03*
X41877D03*
X40775Y52947D03*
Y53002D03*
X41202Y51175D03*
X41147D03*
X41298Y5125D03*
X41353D03*
X41298Y51325D03*
X41353D03*
X41298Y514D03*
X41353D03*
X41298Y5155D03*
X41353D03*
Y51475D03*
X41298D03*
X39522Y51575D03*
X39577D03*
X39522Y515D03*
X39577D03*
X405Y52123D03*
Y52178D03*
X39072Y51725D03*
X39127D03*
X40373Y52425D03*
X40428D03*
X38472Y53525D03*
X38528D03*
X42053Y5585D03*
X41998D03*
X41077Y5295D03*
X41022D03*
X3845Y52772D03*
Y52827D03*
X387Y52772D03*
Y52827D03*
X38827Y52175D03*
X38772D03*
X40322Y55275D03*
X40377D03*
X39625Y55228D03*
Y55173D03*
X40053Y517D03*
X39998D03*
X39373Y54375D03*
X39428D03*
X39577Y51725D03*
X39522D03*
X40425Y52123D03*
Y52178D03*
X38827Y5225D03*
X38772D03*
X40447Y55275D03*
X40502D03*
X40748Y5155D03*
X40803D03*
X40428Y55025D03*
X40522Y53975D03*
X39775Y54252D03*
Y54778D03*
X39697Y51575D03*
X39752D03*
X41147Y5125D03*
X41202D03*
X41147Y51325D03*
X41202D03*
X41147Y514D03*
X41202D03*
X41147Y51475D03*
X41202D03*
X39272Y53425D03*
X39327D03*
X39272Y54D03*
X39327D03*
X39272Y53575D03*
X39327D03*
X39272Y535D03*
X39327D03*
X39272Y54075D03*
X39327D03*
X39272Y5365D03*
X39327D03*
X39272Y54225D03*
X39327D03*
X39603Y537D03*
X39548D03*
X38877Y51775D03*
X38822D03*
X41525Y56103D03*
Y56048D03*
X42147Y535D03*
X42202D03*
X39522Y5165D03*
X39577D03*
X39127Y51575D03*
X39072D03*
X41627Y5125D03*
X41572D03*
X39998Y51625D03*
X40053D03*
X3845Y52947D03*
Y53002D03*
X40053Y5605D03*
X39998D03*
X40653Y52325D03*
X40597D03*
X38528Y533D03*
X38472D03*
Y537D03*
X38528D03*
Y53375D03*
X38472D03*
X39353Y519D03*
X39298D03*
X41572Y514D03*
X41627D03*
Y51325D03*
X41572D03*
X39697Y515D03*
X40127Y52575D03*
X40072D03*
X39475Y56028D03*
Y55972D03*
X397Y53248D03*
Y53303D03*
X40425Y56397D03*
X39975D03*
X39577Y555D03*
X39522D03*
X40275Y56452D03*
Y56397D03*
X39428Y55575D03*
X39373D03*
X40827Y52475D03*
X40772D03*
X397Y53153D03*
Y53097D03*
X39925Y55153D03*
Y55097D03*
X40775Y52798D03*
Y52853D03*
X41678Y5625D03*
X41623D03*
X38772Y52375D03*
X38827D03*
X41353Y5305D03*
X41298D03*
X42123Y54175D03*
X42178D03*
X39522Y55425D03*
X39577D03*
Y5565D03*
X39522D03*
X42178Y541D03*
X42123D03*
X402Y56452D03*
Y56397D03*
G54D23*
X39825Y55885D03*
Y55965D03*
X39725D03*
Y55885D03*
X4015Y52965D03*
Y52885D03*
X4025Y5231D03*
Y5239D03*
X409Y5329D03*
X408D03*
Y5321D03*
X3925Y5596D03*
Y5604D03*
X40525Y55085D03*
Y55165D03*
X4005Y52885D03*
Y52965D03*
X409Y5321D03*
X412Y5329D03*
Y5321D03*
X411Y5329D03*
Y5321D03*
X401D03*
Y5329D03*
X413Y5321D03*
Y5329D03*
X41Y5321D03*
Y5329D03*
X39675Y52965D03*
Y52885D03*
X4Y5321D03*
Y5329D03*
X39575Y55885D03*
Y55965D03*
X405Y5329D03*
Y5321D03*
X402Y5329D03*
Y5321D03*
X403D03*
Y5329D03*
X404Y5321D03*
Y5329D03*
X414Y55885D03*
Y55965D03*
X407Y5329D03*
Y5321D03*
X406Y5329D03*
Y5321D03*
X414Y5329D03*
Y5321D03*
G54D24*
X39048Y50412D03*
X39402D03*
Y50588D03*
X39048D03*
X40248Y50412D03*
X40602D03*
Y50588D03*
X40248D03*
X39977Y50412D03*
X39623D03*
Y50588D03*
X39977D03*
X41623D03*
X41977D03*
Y50412D03*
X41623D03*
G54D25*
X3839Y5315D03*
X3851D03*
X40765Y51675D03*
X40885D03*
X3994Y51825D03*
X4006D03*
G54D26*
X39402Y51623D03*
Y51649D03*
Y51674D03*
Y517D03*
X39225Y51623D03*
Y51649D03*
Y51674D03*
Y517D03*
X40502Y52273D03*
Y52299D03*
Y52324D03*
Y5235D03*
X40325Y52273D03*
Y52299D03*
Y52324D03*
Y5235D03*
G54D27*
X38925Y5165D03*
X38775D03*
G54D28*
X41058Y55388D03*
X40842Y55262D03*
X41058D03*
X40842Y55388D03*
G54D29*
X402Y5175D03*
Y5165D03*
Y517D03*
Y518D03*
Y5185D03*
Y519D03*
Y514D03*
X406Y5185D03*
X402Y515D03*
Y5145D03*
Y513D03*
X406Y5165D03*
Y515D03*
Y517D03*
Y5125D03*
Y513D03*
Y5175D03*
Y514D03*
Y5155D03*
Y5135D03*
Y516D03*
Y5145D03*
Y518D03*
X402Y516D03*
Y5155D03*
Y5135D03*
Y5125D03*
X406Y519D03*
G54D30*
X38325Y53338D03*
Y53563D03*
Y5345D03*
Y53488D03*
Y53525D03*
Y536D03*
Y53413D03*
Y53376D03*
G54D31*
X39702Y54021D03*
Y54046D03*
Y54072D03*
Y54098D03*
Y54123D03*
Y54149D03*
Y54174D03*
Y542D03*
X3945Y54021D03*
Y54046D03*
Y54072D03*
Y54098D03*
Y54123D03*
Y54149D03*
Y54174D03*
Y542D03*
X39702Y53446D03*
Y53471D03*
Y53497D03*
Y53523D03*
Y53548D03*
Y53574D03*
Y53599D03*
Y53625D03*
X3945Y53446D03*
Y53471D03*
Y53497D03*
Y53523D03*
Y53548D03*
Y53574D03*
Y53599D03*
Y53625D03*
G54D32*
X39375Y52649D03*
X39475D03*
G54D33*
X39275Y52649D03*
G54D34*
X39375Y522D03*
G54D35*
X38875Y5151D03*
X38825D03*
G54D36*
X3885Y51375D03*
G54D37*
X3995Y5595D03*
Y5585D03*
X4025Y5595D03*
Y559D03*
X3995Y558D03*
X4025D03*
X3995Y559D03*
X4025Y5585D03*
G54D38*
X401Y55875D03*
G54D39*
X38944Y52375D03*
Y52355D03*
X39006Y52395D03*
Y52375D03*
Y52355D03*
G54D40*
X38944Y52395D03*
G54D41*
X40517Y54804D03*
X40536D03*
X40497D03*
X40477D03*
X40457D03*
X40438D03*
X40418D03*
X40398D03*
X40379D03*
X40359D03*
X40339D03*
X4032D03*
X403D03*
X4028D03*
X40261D03*
X40241D03*
X40221D03*
X40202D03*
X40182D03*
X40162D03*
X40143D03*
X40123D03*
X40103D03*
X40083D03*
X40064D03*
Y54196D03*
X40083D03*
X40103D03*
X40123D03*
X40143D03*
X40162D03*
X40182D03*
X40202D03*
X40221D03*
X40241D03*
X40261D03*
X4028D03*
X403D03*
X4032D03*
X40339D03*
X40359D03*
X40379D03*
X40398D03*
X40418D03*
X40438D03*
X40457D03*
X40477D03*
X40497D03*
X40517D03*
X40536D03*
G54D42*
X39996Y54736D03*
Y54717D03*
Y54697D03*
Y54677D03*
Y54657D03*
Y54638D03*
Y54618D03*
Y54598D03*
Y54579D03*
Y54559D03*
Y54539D03*
Y5452D03*
Y545D03*
Y5448D03*
Y54461D03*
Y54441D03*
Y54421D03*
Y54402D03*
Y54382D03*
Y54362D03*
Y54343D03*
Y54323D03*
Y54283D03*
Y54264D03*
X40604D03*
Y54283D03*
Y54303D03*
Y54323D03*
Y54343D03*
Y54362D03*
Y54382D03*
Y54402D03*
Y54421D03*
Y54441D03*
Y54461D03*
Y5448D03*
Y545D03*
Y5452D03*
Y54539D03*
Y54559D03*
Y54579D03*
Y54598D03*
Y54618D03*
Y54638D03*
Y54657D03*
Y54677D03*
Y54697D03*
Y54717D03*
Y54736D03*
X39996Y54303D03*
G54D43*
X40095Y52254D03*
X40005D03*
X3992Y52871D03*
X3983D03*
G54D44*
X4005Y52096D03*
X39875Y53029D03*
G54D45*
X39675Y5249D03*
Y5261D03*
X39775Y55115D03*
Y55235D03*
X40625Y5209D03*
Y5221D03*
X38675Y53265D03*
Y53385D03*
G54D46*
X4094Y52825D03*
Y52974D03*
X38615Y52799D03*
Y52974D03*
G54D47*
X4086Y52787D03*
Y52862D03*
Y52938D03*
Y53013D03*
X38535Y52763D03*
Y52838D03*
Y52938D03*
Y53013D03*
G54D48*
X41835Y51825D03*
X41915D03*
X39285Y51525D03*
X39365D03*
X39285Y518D03*
X39365D03*
X39915Y5365D03*
X39835D03*
X39715Y53925D03*
X39635D03*
X39515D03*
X39435D03*
X3846Y536D03*
X3854D03*
G54D49*
X41625Y5615D03*
Y5605D03*
X4185Y5615D03*
Y561D03*
X41625Y56D03*
X4185D03*
X41625Y561D03*
X4185Y5605D03*
X412Y5295D03*
Y5285D03*
X41425Y5295D03*
Y529D03*
X412Y528D03*
X41425D03*
X412Y529D03*
X41425Y5285D03*
G54D50*
X40611Y5615D03*
X41289D03*
G54D51*
X39935Y54197D02*
X39969Y5423D01*
X4003Y54169*
X39997Y54135*
X39935Y54197*
X3995D02*
X39969Y54216D01*
X40016Y54169*
X39997Y5415*
X3995Y54197*
X39964D02*
X39969Y54202D01*
X40002Y54169*
X39997Y54164*
X39964Y54197*
X39973Y54192D02*
X39992Y54174D01*
X39969Y5477D02*
X39935Y54803D01*
X39997Y54865*
X4003Y54831*
X39969Y5477*
Y54784D02*
X3995Y54803D01*
X39997Y5485*
X40016Y54831*
X39969Y54784*
Y54798D02*
X39964Y54803D01*
X39997Y54836*
X40002Y54831*
X39969Y54798*
X39974Y54808D02*
X39992Y54827D01*
X40603Y54135D02*
X4057Y54169D01*
X40631Y5423*
X40665Y54197*
X40603Y54135*
Y5415D02*
X40584Y54169D01*
X40631Y54216*
X4065Y54197*
X40603Y5415*
Y54164D02*
X40598Y54169D01*
X40631Y54202*
X40636Y54197*
X40603Y54164*
X40608Y54173D02*
X40626Y54192D01*
X4057Y54831D02*
X40603Y54865D01*
X40665Y54803*
X40631Y5477*
X4057Y54831*
X40584D02*
X40603Y5485D01*
X4065Y54803*
X40631Y54784*
X40584Y54831*
X40598D02*
X40603Y54836D01*
X40636Y54803*
X40631Y54798*
X40598Y54831*
X40608Y54826D02*
X40627Y54808D01*
G54D57*
X4265Y502D02*
Y57D01*
X3815Y502D02*
X4265D01*
X3815Y57D02*
X4265D01*
X3815Y502D02*
Y57D01*
M02*