M48
;Layer_Color=9474304
;FILE_FORMAT=2:3
INCH,LZ
;TYPE=PLATED
T1F00S00C0.008
T2F00S00C0.026
T3F00S00C0.030
T4F00S00C0.033
T5F00S00C0.038
T6F00S00C0.040
T7F00S00C0.050
T8F00S00C0.051
T9F00S00C0.053
T10F00S00C0.055
T11F00S00C0.063
T12F00S00C0.100
;TYPE=NON_PLATED
T13F00S00C0.028
T14F00S00C0.035
T15F00S00C0.038
T16F00S00C0.039
T17F00S00C0.043
T18F00S00C0.045
T19F00S00C0.059
T20F00S00C0.087
T21F00S00C0.126
T22F00S00C0.138
%
T01
X0315Y002
X0095Y00262
X00975Y007
X01072Y0079
X01175Y00775
X00975Y00925
X00705Y0093
X00775Y0075
X0072Y01175
X0067Y01325
X00675Y01575
Y0165
X00672Y01687
X00675Y0175
X0054Y01695
X005Y01475
X00422Y01418
X00075Y015
X00825Y01575
X0085Y01625
X00825Y017
X00907Y01773
X01095Y0175
X0125Y017
X013Y0155
Y0145
X0125Y0148
X01253Y01317
X01215Y0131
X013Y0135
X01Y01575
Y01615
X01445Y0165
X01425Y017
X0145Y0175
X0146Y018
X0157Y01749
X01544Y01675
X0154Y0164
X01725Y017
X01875
X019Y01725
X01901Y01651
X019Y016
Y01525
X01838Y01577
X0205Y016
Y01675
Y0175
X01975Y018
X02003Y01485
X021Y01375
X022
X02275Y014
X023Y0155
X02225
X0215
Y0115
X022
X0225
X021
X02Y011
X0195Y0105
X02Y0125
X018Y013
X0175Y0135
X01725Y014
X01625
X016Y0135
X01625Y0125
X017Y01275
X0149Y01315
X01525Y00925
X01625Y0085
X017
Y01025
X01775Y0095
X02175Y01
X0235Y0095
X024Y0084
X025Y0085
Y01
X0265Y0095
X027Y0085
Y007
X028
X029
X0285Y005
X02655Y00275
X0245Y0035
X022Y005
X02075
X0195
X01825
X016Y00262
X01475Y0075
Y00775
X01425Y00795
X028Y01
X029
Y01035
X0285Y01075
X02925Y01195
X02875Y0129
X02873Y0133
X0283Y0136
X02803Y01413
X02925Y015
Y01763
X02625Y015
X0267Y0131
X02575Y01275
X02625Y012
X02765
X03025Y01195
X03075Y0127
Y0131
X03275
X03275Y0128
Y0135
X0325Y01375
X03203Y01413
X03185Y01185
X032Y01
X031
X03
Y0085
X031
Y007
X032
X03
X033Y0085
X03525Y00438
Y00262
X04Y014
X04185Y01525
X042Y0155
X04226Y01569
X0418Y016
X04224Y01651
X04265Y018
X04025
X0405Y01675
X044
X0435Y01375
X042Y01275
X03025Y015
X03028Y01628
X03059Y01626
X0309Y01625
X03125
X03122Y01808
X03102Y01827
X03154Y01824
X03059Y01816
X03026Y01825
X0304Y0195
X035Y025
X0355
X03525Y02775
X03375
X03325Y02765
Y02735
Y02796
X03375Y02875
X03425Y03025
X03625
X03725
Y03075
Y03125
Y03175
Y03225
X03675Y03275
X03525
Y0335
X034Y03325
X03525Y03175
X036Y03125
X03725Y02975
X03675Y02875
X03925Y027
X0405Y02975
Y03025
X04055Y03175
X0405Y03225
Y03275
Y03325
X032Y0323
X03Y0325
X03025Y0335
X0275Y03125
X02675Y03025
X02575
X02175Y03275
X0205Y0285
X01825Y028
X017
X0155
Y02575
Y025
Y02425
X0145Y02525
Y0255
Y0258
X0165Y02575
X01825
X02Y026
Y0245
X0235Y02525
X024
X02375Y02555
X02275Y023
X02375Y02175
X02315Y021
X022Y02105
X02075Y0205
X01975Y02025
X01925Y01975
X018Y02
X01675
X01575
X014
X01676Y01851
X01735Y0185
X01775Y0185
X018Y01845
X01837Y0185
X0215Y019
X0221Y01875
X02675Y0182
X028Y02035
X0275Y0215
X026Y0221
X018Y0219
X01755Y02945
X0095Y0305
X012Y0249
X01125Y02225
Y02125
X0085Y0205
X0065Y02075
X0072Y0195
X00525Y01925
X00725Y02325
X00075Y02105
X0121Y0185
X0135Y03675
X01175Y0385
X01225Y04125
X013Y041
X0135Y043
X01225Y04325
X0109Y04275
X013Y0465
X0125Y04775
X01225Y0485
X01275Y04875
X006Y04025
Y03875
X014Y041
X0145Y0415
X01425Y04175
X01375Y042
X015Y04225
X01625Y0425
X01975Y04235
X02027Y04212
X02105Y04275
X02229Y04331
X02261Y0433
X02335Y04275
X0237Y04305
X0239Y04325
X02477Y04335
X02525Y0435
X02555
X02625Y043
X02725Y04225
X02838Y042
X02875
Y04004
X02937Y04013
X02785Y03925
X028Y0385
X0281Y038
X0275Y037
X0265Y03725
X02675Y03975
X0265Y04015
X02575Y04025
X02475
X025Y03975
X0245Y03925
X023
X0215
X02
X0191Y04025
X0189Y0404
X0192Y0405
X0194Y04075
X01865
X02125Y041
X02225Y04125
X02375Y04025
X0222Y038
X023Y04475
X0234Y0445
X02379Y045
X02412Y04512
X02425Y04475
X02405Y0463
X02375Y047
X02395Y0488
Y0491
X02425Y04875
X02525Y04775
X0252Y046
X0267Y04503
X02669Y04466
X028Y045
X02775Y04555
X02777Y04587
X02791Y04641
X02776Y04661
X02865Y04625
X0287Y04525
X0285Y04725
X02865Y04825
Y04925
X0274Y04877
X0267Y04917
X0212Y04835
X021Y04625
X02175Y04655
X022Y04615
X02225Y04635
X0225Y04595
X02175Y0454
X0208Y0448
X0193Y04483
X0195Y0445
X01805Y0455
X0185Y04621
X01575Y04725
X01525Y0475
X015Y048
X01475Y04825
X01494Y03525
X01606Y03485
X02872Y03625
X02928Y03612
X0306Y03675
X03085Y037
X03137Y03702
X0315Y0365
X03158Y03988
X03175Y04075
X03074Y0409
X03138Y04227
X0315Y04325
Y04425
Y04525
Y04625
Y04725
Y04825
Y04925
X03525
X035Y04825
X034Y04625
X033
Y04525
X03285Y04425
X03325Y0441
X033Y04325
X0335Y0425
X03325Y0415
X03322Y03972
X03841Y03925
X03825Y039
Y0385
Y038
X0395Y0385
X0396Y03905
X0399Y0389
X0411Y0384
X04148Y03787
X04175Y037
X04125Y03575
X0405Y03635
X03967Y03653
X03975Y03725
X039Y03628
X03925Y036
Y035
X0405Y03425
Y03375
X03725
Y03425
X03675Y03375
X0354
X03975Y041
X04125
X0415Y04075
X0417Y04
X04431Y03925
X03925Y042
Y043
X03825Y0425
Y0435
Y0445
X037
X03675Y04525
Y04625
X03775Y04725
X03825Y04825
X03845Y04925
X0388Y05425
X0345Y054
X034Y05375
X0325Y05325
X031Y05309
Y05341
Y05375
Y05278
X02995Y05298
X02987Y05352
X03062Y05448
X03203Y05485
X02975Y05544
X02971Y05581
X02947Y05728
X03075Y0565
X03025Y05875
X03275Y0585
Y061
X03325Y062
X04075Y063
X0425Y0635
X036Y05625
X0345Y051
X0315Y05025
X02888Y05148
X0279Y0515
X027Y051
X02675
X02725Y0505
X02775Y04975
X02673Y04951
X0253Y04945
X02505Y0508
X02525Y051
X02575Y0514
X02405Y05135
X02375
X024Y051
X0242Y0507
X0232Y05155
X02275Y053
X0225Y054
X0228Y05495
X02276Y05526
X02178Y05528
X01977Y05472
X019Y05475
X0185
X018
Y056
X01725Y05425
X016
X0145Y0545
X01475Y0565
X0145Y057
X014
X0144Y05875
X016
X0187
X01975Y05825
X0205Y05925
X021Y05875
X02225Y05925
X0225Y061
X0215
X021Y06145
Y06185
X0205Y061
X0185
X0195Y0625
X0175
X0145Y06125
X0235Y0625
X0245
X02475Y058
X02425Y05775
X02375Y05655
X02525Y05625
X02515Y05583
X0255Y057
X026
X027
X02785
X027Y05575
X0284Y05485
X0285Y0545
X02841Y05406
X026Y05425
X02515Y05386
X0252Y0535
X02555Y05335
X02495Y0545
X02475Y0543
X0239Y05475
X02425Y0551
X027Y05875
X02825
X02773Y05948
X02083Y0507
X02046Y05059
X01835Y05075
X01825Y05175
X01815Y052
X0178Y05225
X01825Y053
X01675Y05175
X0165Y0515
X01625Y05125
X016Y05075
X0155Y0505
X01075Y05175
X013Y05425
X0135Y0545
X006Y05375
Y05225
X007Y06075
X02375Y0659
T02
X04292Y03837
Y04013
T03
X00257Y03128
X00277
X00297
X00317
X00337
X00419Y03285
Y03305
X00419Y03325
X00419Y03345
Y03365
X00175
Y03345
Y03325
Y03305
Y03285
X031Y06
X029
T04
X04396Y03761
X04411
X04425
Y04089
X04411
X04396
T05
X0029Y04087
Y04196
Y04305
Y04414
X004Y04468
Y04359
Y0425
Y04141
Y04032
X041Y04632
Y04741
Y0485
X0421Y04904
Y04795
Y04686
Y05013
X041Y04959
Y05068
X004Y05382
Y05491
Y056
Y05709
Y05818
X0029Y05764
Y05655
Y05546
Y05437
T06
X00205Y00775
X00325
Y01
X00205
X00205Y0122
X00325Y01225
X03399Y01188
Y01088
Y00988
Y00888
X03499
Y00988
Y01088
Y01188
Y01288
Y01388
Y01488
Y01588
Y01688
Y01788
X03399
Y01688
Y01588
Y01488
Y01388
Y01288
X03762Y01289
Y01389
Y01489
Y01589
Y01689
Y01789
X03862
Y01689
Y01589
Y01489
Y01389
Y01289
Y01189
X03762
Y01089
X03862
Y01889
Y01989
Y02089
Y02189
Y02289
Y02389
Y02489
Y02589
Y02689
X03762
Y02589
Y02489
Y02389
Y02289
Y02189
Y02089
Y01989
Y01889
X03499Y01888
Y01988
Y02088
Y02188
Y02288
X03399
Y02188
Y02088
Y01988
Y01888
X04125Y02025
X04225
X04325
X0435Y025
Y026
Y027
Y028
Y029
Y03
Y031
Y032
Y033
X0425
Y032
Y031
Y03
Y029
Y028
Y027
Y026
Y025
X033Y032
Y033
X02975
Y032
X028
Y033
X02625
Y032
Y031
X0245
Y032
Y033
X02275
Y032
Y031
X021
Y032
Y033
X01925
Y032
Y031
X0175Y032
Y033
X01575
Y032
X014
Y033
X02225Y01975
X02525
X013Y032
X012
Y033
X013
X00544Y02723
Y02625
Y02527
X00347Y02428
Y02822
X0015Y02625
X0085Y03675
X0095
Y03775
Y03875
Y03975
Y04075
X0085
Y04175
X0095
Y04275
X0085
Y04375
X0095
Y04475
X0085
Y04575
X0095
Y04675
Y04775
Y04875
X0085
Y04775
Y04675
X006Y045
Y044
X0085Y03975
Y03875
Y03775
X0125Y04425
X0135
Y04575
X0125
X0145
Y04425
X017Y04675
X0245Y042
X02525Y03825
X02625
X02725
Y0365
X02625
X02525
X02975Y0385
X03075
X03225
X03325
X0355Y03875
Y03975
X0365
Y03875
Y03775
X0355
Y03675
X0365
Y04075
Y04175
Y04275
X0355
Y04375
Y04475
X0365
Y04375
Y04575
Y04675
X0355
Y04575
Y04775
X0365
Y04875
X0355
X034Y048
X0325
X0355Y04175
Y04075
X0425Y034
X0435
X0365Y04975
X0355
Y05075
X0365
Y05175
Y05275
X0355
Y05375
Y05475
X0365
Y05575
Y05675
Y05775
Y05875
X0355
Y05975
Y06075
X0365
Y05975
X039
Y06075
X04Y06025
Y05925
Y05825
Y05725
X039Y05775
Y05875
X0355Y05775
Y05675
Y05575
X0365Y05375
X0355Y05175
X0345Y06425
X0335
X0325
X0315
X0305
X0295
X03Y06175
X031
X04383Y06149
X04443Y06049
X04383Y05751
X04443Y05651
X02925Y0565
X029Y06175
X0285Y06425
X0275
X0265
X0255
X0245
X0235
X0225
X0215
X0205
X0195
X0185
Y06
X0195
X02125
X02225
X024
X025
X026
X01675
X01575
X01475
X01675Y0575
Y0565
Y0555
X021Y05575
Y05475
X0125Y0555
Y0565
Y0575
X012Y06
X0095Y05975
Y06075
X0085
Y05975
Y05875
Y05775
Y05675
X0095
Y05575
X0085
Y05475
Y05375
Y05275
Y05175
X0095
Y05275
Y05375
Y05475
Y05775
Y05875
X006Y0585
Y0575
X0085Y05075
X0095
Y04975
X0085
X0185Y06525
X0195
X0205
X0215
X0225
X0235
X0245
X0255
X0265
X0275
X0285
X0295
X0305
X0315
X0325
X0335
X0345
T07
X0395Y00725
Y00825
Y00925
X00345Y03712
Y03727
Y03742
Y03757
Y03772
Y03787
Y03802
Y04698
Y04713
Y04728
Y04743
Y04758
Y04773
Y04788
X04155Y04402
Y04387
Y04372
Y04357
Y04342
Y04327
Y04312
Y05298
Y05313
Y05328
Y05343
Y05358
Y05373
Y05388
X01325Y06475
X00675
X00345Y06138
Y06123
Y06108
Y06093
Y06078
Y06063
Y06048
Y05152
Y05137
Y05122
Y05107
Y05092
Y05077
Y05062
T08
X01448Y06352
X01202
X00798
X00552
X00552Y06598
X00798Y06598
X01202Y06598
X01448Y06598
T09
X02125Y038
X02325
T10
X00702Y03202
X008Y033
X00898Y03202
Y03398
X00702
X008Y03497
T11
X0413Y0559
Y0621
T12
X04225Y00625
Y01025
T13
X00375Y01578
X02947Y00403
X00375Y01875
T14
X04419Y03837
X0443
X04441
Y04013
X0443
X04419
T15
X039Y03
Y034
T16
X03053Y00297
T17
X03148Y025
T18
X00052Y02428
X0015
X00544
X00544Y02822
X00347Y02625
X0015Y02822
X00052
T19
X02852Y02499
X02497Y047
X02103
T20
X0125Y01125
X03Y00325
T21
X0055Y00825
Y02243
X0425Y05675
Y06125
T22
X04275Y00225
X00225
Y06575
X04275
M30
