%FSTAX23Y23*%
%MOIN*%
%SFA1B1*%

%IPPOS*%
%AMD118*
1,1,0.100000,0.000000,0.000000*
1,0,0.080000,0.000000,0.000000*
4,0,4,0.031800,0.038900,-0.038900,-0.031800,-0.031800,-0.038900,0.038900,0.031800,0.031800,0.038900,0.0*
4,0,4,-0.031800,0.038900,0.038900,-0.031800,0.031800,-0.038900,-0.038900,0.031800,-0.031800,0.038900,0.0*
%
%AMD122*
1,1,0.092677,0.000000,0.000000*
1,0,0.072677,0.000000,0.000000*
4,0,4,0.029200,0.036300,-0.036300,-0.029200,-0.029200,-0.036300,0.036300,0.029200,0.029200,0.036300,0.0*
4,0,4,-0.029200,0.036300,0.036300,-0.029200,0.029200,-0.036300,-0.036300,0.029200,-0.029200,0.036300,0.0*
%
%AMD123*
1,1,0.085591,0.000000,0.000000*
1,0,0.065591,0.000000,0.000000*
4,0,4,0.026700,0.033700,-0.033700,-0.026700,-0.026700,-0.033700,0.033700,0.026700,0.026700,0.033700,0.0*
4,0,4,-0.026700,0.033700,0.033700,-0.026700,0.026700,-0.033700,-0.033700,0.026700,-0.026700,0.033700,0.0*
%
%AMD124*
1,1,0.110000,0.000000,0.000000*
1,0,0.090000,0.000000,0.000000*
4,0,4,0.035400,0.042400,-0.042400,-0.035300,-0.035400,-0.042400,0.042400,0.035300,0.035400,0.042400,0.0*
4,0,4,-0.035300,0.042400,0.042400,-0.035400,0.035300,-0.042400,-0.042400,0.035400,-0.035300,0.042400,0.0*
%
%AMD126*
1,1,0.160000,0.000000,0.000000*
1,0,0.140000,0.000000,0.000000*
4,0,4,0.053000,0.060100,-0.060100,-0.053000,-0.053000,-0.060100,0.060100,0.053000,0.053000,0.060100,0.0*
4,0,4,-0.053000,0.060100,0.060100,-0.053000,0.053000,-0.060100,-0.060100,0.053000,-0.053000,0.060100,0.0*
%
%AMD127*
1,1,0.123000,0.000000,0.000000*
1,0,0.103000,0.000000,0.000000*
4,0,4,0.040000,0.047000,-0.047000,-0.039900,-0.040000,-0.047000,0.047000,0.039900,0.040000,0.047000,0.0*
4,0,4,-0.039900,0.047000,0.047000,-0.040000,0.039900,-0.047000,-0.047000,0.040000,-0.039900,0.047000,0.0*
%
%AMD133*
1,1,0.115118,0.000000,0.000000*
1,0,0.095118,0.000000,0.000000*
4,0,4,0.037100,0.044200,-0.044200,-0.037100,-0.037100,-0.044200,0.044200,0.037100,0.037100,0.044200,0.0*
4,0,4,-0.037100,0.044200,0.044200,-0.037100,0.037100,-0.044200,-0.044200,0.037100,-0.037100,0.044200,0.0*
%
%AMD138*
1,1,0.098000,0.000000,0.000000*
1,0,0.078000,0.000000,0.000000*
4,0,4,0.031100,0.038200,-0.038200,-0.031100,-0.031100,-0.038200,0.038200,0.031100,0.031100,0.038200,0.0*
4,0,4,-0.031100,0.038200,0.038200,-0.031100,0.031100,-0.038200,-0.038200,0.031100,-0.031100,0.038200,0.0*
%
%AMD139*
1,1,0.111181,0.000000,0.000000*
1,0,0.091181,0.000000,0.000000*
4,0,4,0.035700,0.042800,-0.042800,-0.035700,-0.035700,-0.042800,0.042800,0.035700,0.035700,0.042800,0.0*
4,0,4,-0.035700,0.042800,0.042800,-0.035700,0.035700,-0.042800,-0.042800,0.035700,-0.035700,0.042800,0.0*
%
%AMD140*
1,1,0.111181,0.000000,0.000000*
1,0,0.091181,0.000000,0.000000*
4,0,4,0.035700,0.042800,-0.042800,-0.035700,-0.035700,-0.042800,0.042800,0.035700,0.035700,0.042800,0.0*
4,0,4,-0.035700,0.042800,0.042800,-0.035700,0.035700,-0.042800,-0.042800,0.035700,-0.035700,0.042800,0.0*
%
%AMD146*
1,1,0.068000,0.000000,0.000000*
1,0,0.048000,0.000000,0.000000*
4,0,4,0.020500,0.027600,-0.027600,-0.020500,-0.020500,-0.027600,0.027600,0.020500,0.020500,0.027600,0.0*
4,0,4,-0.020500,0.027600,0.027600,-0.020500,0.020500,-0.027600,-0.027600,0.020500,-0.020500,0.027600,0.0*
%
%ADD73C,0.010000*%
%ADD75C,0.008000*%
%ADD79C,0.005000*%
%ADD81C,0.006000*%
%ADD91C,0.080000*%
%ADD113C,0.040000*%
%ADD114C,0.004000*%
%ADD115R,0.300000X0.400000*%
%ADD116R,0.025000X0.125000*%
%ADD117R,0.300000X0.270000*%
G04~CAMADD=118~12~0.0~0.0~0.0~0.0~0.0~0.0~0~1000.0~800.0~0.0~45.0~4~100.0~0.0~0.0~0.0~0~0.0~0.0~0.0~0.0~1000.0~1000.0*
%ADD118D118*%
%ADD119C,0.166000*%
%ADD120C,0.099000*%
%ADD121C,0.075000*%
G04~CAMADD=122~12~0.0~0.0~0.0~0.0~0.0~0.0~0~926.8~726.8~0.0~45.0~4~100.0~0.0~0.0~0.0~0~0.0~0.0~0.0~0.0~926.8~926.8*
%ADD122D122*%
G04~CAMADD=123~12~0.0~0.0~0.0~0.0~0.0~0.0~0~855.9~655.9~0.0~45.0~4~100.0~0.0~0.0~0.0~0~0.0~0.0~0.0~0.0~855.9~855.9*
%ADD123D123*%
G04~CAMADD=124~12~0.0~0.0~0.0~0.0~0.0~0.0~0~1100.0~900.0~0.0~45.0~4~100.0~0.0~0.0~0.0~0~0.0~0.0~0.0~0.0~1100.0~1100.0*
%ADD124D124*%
%ADD125C,0.090000*%
G04~CAMADD=126~12~0.0~0.0~0.0~0.0~0.0~0.0~0~1600.0~1400.0~0.0~45.0~4~100.0~0.0~0.0~0.0~0~0.0~0.0~0.0~0.0~1600.0~1600.0*
%ADD126D126*%
G04~CAMADD=127~12~0.0~0.0~0.0~0.0~0.0~0.0~0~1230.0~1030.0~0.0~45.0~4~100.0~0.0~0.0~0.0~0~0.0~0.0~0.0~0.0~1230.0~1230.0*
%ADD127D127*%
%ADD128C,0.166000*%
%ADD129C,0.085000*%
%ADD130C,0.127000*%
%ADD131C,0.093000*%
%ADD132C,0.070000*%
G04~CAMADD=133~12~0.0~0.0~0.0~0.0~0.0~0.0~0~1151.2~951.2~0.0~45.0~4~100.0~0.0~0.0~0.0~0~0.0~0.0~0.0~0.0~1151.2~1151.2*
%ADD133D133*%
%ADD134C,0.095000*%
%ADD135C,0.068000*%
%ADD136C,0.079000*%
%ADD137C,0.078000*%
G04~CAMADD=138~12~0.0~0.0~0.0~0.0~0.0~0.0~0~980.0~780.0~0.0~45.0~4~100.0~0.0~0.0~0.0~0~0.0~0.0~0.0~0.0~980.0~980.0*
%ADD138D138*%
G04~CAMADD=139~12~0.0~0.0~0.0~0.0~0.0~0.0~0~1111.8~911.8~0.0~45.0~4~100.0~0.0~0.0~0.0~0~0.0~0.0~0.0~0.0~1111.8~1111.8*
%ADD139D139*%
G04~CAMADD=140~12~0.0~0.0~0.0~0.0~0.0~0.0~0~1111.8~911.8~0.0~45.0~4~100.0~0.0~0.0~0.0~0~0.0~0.0~0.0~0.0~1111.8~1111.8*
%ADD140D140*%
%ADD141C,0.178000*%
%ADD142C,0.166000*%
%ADD143C,0.166000*%
%ADD144C,0.083000*%
%ADD145C,0.048000*%
G04~CAMADD=146~12~0.0~0.0~0.0~0.0~0.0~0.0~0~680.0~480.0~0.0~45.0~4~100.0~0.0~0.0~0.0~0~0.0~0.0~0.0~0.0~680.0~680.0*
%ADD146D146*%
%LNmb784b-1*%
%LPD*%
G54D73*
X0503Y0026D02*
Y002D01*
Y0026D02*
X05053Y002D01*
X05076Y0026D02*
X05053Y002D01*
X05076Y0026D02*
Y002D01*
X05093Y0026D02*
Y002D01*
Y0026D02*
X05119D01*
X05127Y00257*
X0513Y00254*
X05133Y00249*
Y00243*
X0513Y00237*
X05127Y00234*
X05119Y00231*
X05093D02*
X05119D01*
X05127Y00229*
X0513Y00226*
X05133Y0022*
Y00211*
X0513Y00206*
X05127Y00203*
X05119Y002*
X05093*
X05186Y0026D02*
X05158Y002D01*
X05146Y0026D02*
X05186D01*
X05214D02*
X05205Y00257D01*
X05203Y00251*
Y00246*
X05205Y0024*
X05211Y00237*
X05223Y00234*
X05231Y00231*
X05237Y00226*
X0524Y0022*
Y00211*
X05237Y00206*
X05234Y00203*
X05225Y002*
X05214*
X05205Y00203*
X05203Y00206*
X052Y00211*
Y0022*
X05203Y00226*
X05208Y00231*
X05217Y00234*
X05228Y00237*
X05234Y0024*
X05237Y00246*
Y00251*
X05234Y00257*
X05225Y0026*
X05214*
X05282D02*
X05253Y0022D01*
X05296*
X05282Y0026D02*
Y002D01*
X05349Y00246D02*
X05347Y00251D01*
X05341Y00257*
X05335Y0026*
X05324*
X05318Y00257*
X05312Y00251*
X05309Y00246*
X05307Y00237*
Y00223*
X05309Y00214*
X05312Y00209*
X05318Y00203*
X05324Y002*
X05335*
X05341Y00203*
X05347Y00209*
X05349Y00214*
X0503Y0026D02*
Y002D01*
Y0026D02*
X05053Y002D01*
X05076Y0026D02*
X05053Y002D01*
X05076Y0026D02*
Y002D01*
X05093Y0026D02*
Y002D01*
Y0026D02*
X05119D01*
X05127Y00257*
X0513Y00254*
X05133Y00249*
Y00243*
X0513Y00237*
X05127Y00234*
X05119Y00231*
X05093D02*
X05119D01*
X05127Y00229*
X0513Y00226*
X05133Y0022*
Y00211*
X0513Y00206*
X05127Y00203*
X05119Y002*
X05093*
X05186Y0026D02*
X05158Y002D01*
X05146Y0026D02*
X05186D01*
X05214D02*
X05205Y00257D01*
X05203Y00251*
Y00246*
X05205Y0024*
X05211Y00237*
X05223Y00234*
X05231Y00231*
X05237Y00226*
X0524Y0022*
Y00211*
X05237Y00206*
X05234Y00203*
X05225Y002*
X05214*
X05205Y00203*
X05203Y00206*
X052Y00211*
Y0022*
X05203Y00226*
X05208Y00231*
X05217Y00234*
X05228Y00237*
X05234Y0024*
X05237Y00246*
Y00251*
X05234Y00257*
X05225Y0026*
X05214*
X05282D02*
X05253Y0022D01*
X05296*
X05282Y0026D02*
Y002D01*
X05349Y00246D02*
X05347Y00251D01*
X05341Y00257*
X05335Y0026*
X05324*
X05318Y00257*
X05312Y00251*
X05309Y00246*
X05307Y00237*
Y00223*
X05309Y00214*
X05312Y00209*
X05318Y00203*
X05324Y002*
X05335*
X05341Y00203*
X05347Y00209*
X05349Y00214*
G54D75*
X00187Y01822D02*
X00185D01*
X0018Y01825*
X00177Y01827*
X00175Y01832*
Y01841*
X00177Y01846*
X0018Y01849*
X00185Y01851*
X00189*
X00194Y01849*
X00201Y01844*
X00225Y0182*
Y01853*
X00285Y0182D02*
X00335D01*
X00285D02*
Y01841D01*
X00287Y01849*
X0029Y01851*
X00295Y01853*
X00299*
X00304Y01851*
X00306Y01849*
X00309Y01841*
Y0182D02*
Y01841D01*
X00311Y01849*
X00314Y01851*
X00318Y01853*
X00325*
X0033Y01851*
X00333Y01849*
X00335Y01841*
Y0182*
G54D79*
X0Y01459D02*
D01*
X00014Y0154*
X00022Y01622*
X00025Y01704*
X00023Y01786*
X00014Y01868*
X0Y0195*
X04275Y06674D02*
Y0699D01*
X00225Y06674D02*
Y0699D01*
X02409Y0694D02*
X04275D01*
X00225D02*
X02059D01*
X04215Y0696D02*
X04275Y0694D01*
X04215Y0692D02*
X04275Y0694D01*
X00225D02*
X00285Y0692D01*
X00225Y0694D02*
X00285Y0696D01*
X00225Y06674D02*
Y0699D01*
X0Y06812D02*
Y0699D01*
X00112Y0694D02*
X00225D01*
X0D02*
X00112D01*
X00165Y0696D02*
X00225Y0694D01*
X00165Y0692D02*
X00225Y0694D01*
X0D02*
X0006Y0692D01*
X0Y0694D02*
X0006Y0696D01*
X045Y06812D02*
Y07135D01*
X0Y06812D02*
Y07135D01*
X02409Y07085D02*
X045D01*
X0D02*
X02059D01*
X0444Y07105D02*
X045Y07085D01*
X0444Y07065D02*
X045Y07085D01*
X0D02*
X0006Y07065D01*
X0Y07085D02*
X0006Y07105D01*
X-0016Y0195D02*
X-00013D01*
X-0016Y01459D02*
X-00013D01*
X-0011Y01832D02*
Y0195D01*
Y01459D02*
Y01545D01*
X-0013Y0189D02*
X-0011Y0195D01*
X-0009Y0189*
X-0011Y01459D02*
X-0009Y01519D01*
X-0013D02*
X-0011Y01459D01*
X-0016Y06575D02*
X00126D01*
X-0016Y0195D02*
X-00013D01*
X-0011Y0442D02*
Y06575D01*
Y0195D02*
Y04073D01*
X-0013Y06515D02*
X-0011Y06575D01*
X-0009Y06515*
X-0011Y0195D02*
X-0009Y0201D01*
X-0013D02*
X-0011Y0195D01*
X-0037Y00225D02*
X00126D01*
X-0037Y06575D02*
X00126D01*
X-0032Y00225D02*
Y03211D01*
Y03557D02*
Y06575D01*
Y00225D02*
X-003Y00285D01*
X-0034D02*
X-0032Y00225D01*
X-0034Y06515D02*
X-0032Y06575D01*
X-003Y06515*
X-0037Y068D02*
X-00013D01*
X-0037Y06575D02*
X00126D01*
X-0032Y06688D02*
Y068D01*
Y06575D02*
Y06688D01*
X-0034Y0674D02*
X-0032Y068D01*
X-003Y0674*
X-0032Y06575D02*
X-003Y06635D01*
X-0034D02*
X-0032Y06575D01*
X-00535Y068D02*
X-00013D01*
X-00535Y0D02*
X-00013D01*
X-00485Y03557D02*
Y068D01*
Y0D02*
Y03211D01*
X-00505Y0674D02*
X-00485Y068D01*
X-00465Y0674*
X-00485Y0D02*
X-00465Y0006D01*
X-00505D02*
X-00485Y0D01*
X0Y0195D02*
Y068D01*
X045Y0D02*
Y068D01*
X0Y0D02*
X045D01*
X0Y068D02*
X045D01*
X0Y0D02*
Y01459D01*
G54D81*
X02104Y06963D02*
X02075Y06923D01*
X02118*
X02104Y06963D02*
Y06903D01*
X02146Y06963D02*
X02137Y0696D01*
X02132Y06951*
X02129Y06937*
Y06928*
X02132Y06914*
X02137Y06905*
X02146Y06903*
X02152*
X0216Y06905*
X02166Y06914*
X02169Y06928*
Y06937*
X02166Y06951*
X0216Y0696*
X02152Y06963*
X02146*
X02216D02*
X02188D01*
X02185Y06937*
X02188Y0694*
X02196Y06943*
X02205*
X02214Y0694*
X02219Y06934*
X02222Y06925*
Y0692*
X02219Y06911*
X02214Y06905*
X02205Y06903*
X02196*
X02188Y06905*
X02185Y06908*
X02182Y06914*
X02253Y06963D02*
X02244Y0696D01*
X02238Y06951*
X02236Y06937*
Y06928*
X02238Y06914*
X02244Y06905*
X02253Y06903*
X02258*
X02267Y06905*
X02273Y06914*
X02276Y06928*
Y06937*
X02273Y06951*
X02267Y0696*
X02258Y06963*
X02253*
X02289Y06943D02*
Y06903D01*
Y06931D02*
X02298Y0694D01*
X02303Y06943*
X02312*
X02318Y0694*
X0232Y06931*
Y06903*
Y06931D02*
X02329Y0694D01*
X02335Y06943*
X02343*
X02349Y0694*
X02352Y06931*
Y06903*
X02376Y06963D02*
X02379Y0696D01*
X02382Y06963*
X02379Y06965*
X02376Y06963*
X02379Y06943D02*
Y06903D01*
X02393Y06963D02*
Y06903D01*
X00033Y07006D02*
Y07009D01*
X00036Y07014*
X00039Y07017*
X00044Y0702*
X00056*
X00061Y07017*
X00064Y07014*
X00067Y07009*
Y07003*
X00064Y06997*
X00059Y06989*
X0003Y0696*
X0007*
X00086Y07006D02*
Y07009D01*
X00089Y07014*
X00092Y07017*
X00098Y0702*
X00109*
X00115Y07017*
X00118Y07014*
X00121Y07009*
Y07003*
X00118Y06997*
X00112Y06989*
X00083Y0696*
X00123*
X00171Y0702D02*
X00143D01*
X0014Y06994*
X00143Y06997*
X00151Y07*
X0016*
X00168Y06997*
X00174Y06991*
X00177Y06983*
Y06977*
X00174Y06969*
X00168Y06963*
X0016Y0696*
X00151*
X00143Y06963*
X0014Y06966*
X00137Y06971*
X02104Y07108D02*
X02075Y07068D01*
X02118*
X02104Y07108D02*
Y07048D01*
X02163Y07108D02*
X02134D01*
X02132Y07082*
X02134Y07085*
X02143Y07088*
X02152*
X0216Y07085*
X02166Y07079*
X02169Y0707*
Y07065*
X02166Y07056*
X0216Y0705*
X02152Y07048*
X02143*
X02134Y0705*
X02132Y07053*
X02129Y07059*
X02199Y07108D02*
X02191Y07105D01*
X02185Y07096*
X02182Y07082*
Y07073*
X02185Y07059*
X02191Y0705*
X02199Y07048*
X02205*
X02214Y0705*
X02219Y07059*
X02222Y07073*
Y07082*
X02219Y07096*
X02214Y07105*
X02205Y07108*
X02199*
X02253D02*
X02244Y07105D01*
X02238Y07096*
X02236Y07082*
Y07073*
X02238Y07059*
X02244Y0705*
X02253Y07048*
X02258*
X02267Y0705*
X02273Y07059*
X02276Y07073*
Y07082*
X02273Y07096*
X02267Y07105*
X02258Y07108*
X02253*
X02289Y07088D02*
Y07048D01*
Y07076D02*
X02298Y07085D01*
X02303Y07088*
X02312*
X02318Y07085*
X0232Y07076*
Y07048*
Y07076D02*
X02329Y07085D01*
X02335Y07088*
X02343*
X02349Y07085*
X02352Y07076*
Y07048*
X02376Y07108D02*
X02379Y07105D01*
X02382Y07108*
X02379Y0711*
X02376Y07108*
X02379Y07088D02*
Y07048D01*
X02393Y07108D02*
Y07048D01*
X-00133Y0159D02*
X-00093Y01561D01*
Y01604*
X-00133Y0159D02*
X-00073D01*
X-00113Y01652D02*
X-00104Y01649D01*
X-00098Y01643*
X-00095Y01635*
Y01632*
X-00098Y01623*
X-00104Y01617*
X-00113Y01615*
X-00115*
X-00124Y01617*
X-0013Y01623*
X-00133Y01632*
Y01635*
X-0013Y01643*
X-00124Y01649*
X-00113Y01652*
X-00098*
X-00084Y01649*
X-00075Y01643*
X-00073Y01635*
Y01629*
X-00075Y0162*
X-00081Y01617*
X-00121Y01668D02*
X-00124Y01674D01*
X-00133Y01682*
X-00073*
X-00113Y01712D02*
X-00073D01*
X-00101D02*
X-0011Y01721D01*
X-00113Y01726*
Y01735*
X-0011Y01741*
X-00101Y01743*
X-00073*
X-00101D02*
X-0011Y01752D01*
X-00113Y01758*
Y01766*
X-0011Y01772*
X-00101Y01775*
X-00073*
X-00133Y01799D02*
X-0013Y01802D01*
X-00133Y01805*
X-00135Y01802*
X-00133Y01799*
X-00113Y01802D02*
X-00073D01*
X-00133Y01816D02*
X-00073D01*
X-00133Y04118D02*
X-00093Y04089D01*
Y04132*
X-00133Y04118D02*
X-00073D01*
X-00124Y04177D02*
X-0013Y04174D01*
X-00133Y04166*
Y0416*
X-0013Y04151*
X-00121Y04146*
X-00107Y04143*
X-00093*
X-00081Y04146*
X-00075Y04151*
X-00073Y0416*
Y04163*
X-00075Y04171*
X-00081Y04177*
X-0009Y0418*
X-00093*
X-00101Y04177*
X-00107Y04171*
X-0011Y04163*
Y0416*
X-00107Y04151*
X-00101Y04146*
X-00093Y04143*
X-00118Y04196D02*
X-00121D01*
X-00127Y04199*
X-0013Y04202*
X-00133Y04207*
Y04219*
X-0013Y04225*
X-00127Y04227*
X-00121Y0423*
X-00115*
X-0011Y04227*
X-00101Y04222*
X-00073Y04193*
Y04233*
X-00133Y04281D02*
Y04252D01*
X-00107Y04249*
X-0011Y04252*
X-00113Y04261*
Y04269*
X-0011Y04278*
X-00104Y04284*
X-00095Y04286*
X-0009*
X-00081Y04284*
X-00075Y04278*
X-00073Y04269*
Y04261*
X-00075Y04252*
X-00078Y04249*
X-00084Y04247*
X-00113Y043D02*
X-00073D01*
X-00101D02*
X-0011Y04308D01*
X-00113Y04314*
Y04323*
X-0011Y04328*
X-00101Y04331*
X-00073*
X-00101D02*
X-0011Y0434D01*
X-00113Y04346*
Y04354*
X-0011Y0436*
X-00101Y04363*
X-00073*
X-00133Y04387D02*
X-0013Y0439D01*
X-00133Y04393*
X-00135Y0439*
X-00133Y04387*
X-00113Y0439D02*
X-00073D01*
X-00133Y04404D02*
X-00073D01*
X-00334Y03261D02*
X-0034Y03258D01*
X-00343Y0325*
Y03244*
X-0034Y03235*
X-00331Y0323*
X-00317Y03227*
X-00303*
X-00291Y0323*
X-00285Y03235*
X-00283Y03244*
Y03247*
X-00285Y03255*
X-00291Y03261*
X-003Y03264*
X-00303*
X-00311Y03261*
X-00317Y03255*
X-0032Y03247*
Y03244*
X-00317Y03235*
X-00311Y0323*
X-00303Y03227*
X-00343Y03283D02*
Y03314D01*
X-0032Y03297*
Y03306*
X-00317Y03311*
X-00314Y03314*
X-00305Y03317*
X-003*
X-00291Y03314*
X-00285Y03309*
X-00283Y033*
Y03291*
X-00285Y03283*
X-00288Y0328*
X-00294Y03277*
X-00343Y03365D02*
Y03336D01*
X-00317Y03333*
X-0032Y03336*
X-00323Y03345*
Y03353*
X-0032Y03362*
X-00314Y03368*
X-00305Y03371*
X-003*
X-00291Y03368*
X-00285Y03362*
X-00283Y03353*
Y03345*
X-00285Y03336*
X-00288Y03333*
X-00294Y03331*
X-00343Y03401D02*
X-0034Y03393D01*
X-00331Y03387*
X-00317Y03384*
X-00308*
X-00294Y03387*
X-00285Y03393*
X-00283Y03401*
Y03407*
X-00285Y03415*
X-00294Y03421*
X-00308Y03424*
X-00317*
X-00331Y03421*
X-0034Y03415*
X-00343Y03407*
Y03401*
X-00323Y03437D02*
X-00283D01*
X-00311D02*
X-0032Y03446D01*
X-00323Y03452*
Y0346*
X-0032Y03466*
X-00311Y03469*
X-00283*
X-00311D02*
X-0032Y03477D01*
X-00323Y03483*
Y03492*
X-0032Y03497*
X-00311Y035*
X-00283*
X-00343Y03525D02*
X-0034Y03528D01*
X-00343Y03531*
X-00345Y03528*
X-00343Y03525*
X-00323Y03528D02*
X-00283D01*
X-00343Y03541D02*
X-00283D01*
X-00401Y06618D02*
X-00404D01*
X-00409Y06621*
X-00412Y06624*
X-00415Y06629*
Y06641*
X-00412Y06646*
X-00409Y06649*
X-00404Y06652*
X-00398*
X-00392Y06649*
X-00384Y06644*
X-00355Y06615*
Y06655*
X-00401Y06671D02*
X-00404D01*
X-00409Y06674*
X-00412Y06677*
X-00415Y06683*
Y06694*
X-00412Y067*
X-00409Y06703*
X-00404Y06706*
X-00398*
X-00392Y06703*
X-00384Y06697*
X-00355Y06668*
Y06708*
X-00415Y06756D02*
Y06728D01*
X-00389Y06725*
X-00392Y06728*
X-00395Y06736*
Y06745*
X-00392Y06753*
X-00386Y06759*
X-00378Y06762*
X-00372*
X-00364Y06759*
X-00358Y06753*
X-00355Y06745*
Y06736*
X-00358Y06728*
X-00361Y06725*
X-00366Y06722*
X-00499Y03261D02*
X-00505Y03258D01*
X-00508Y0325*
Y03244*
X-00505Y03235*
X-00496Y0323*
X-00482Y03227*
X-00468*
X-00456Y0323*
X-0045Y03235*
X-00448Y03244*
Y03247*
X-0045Y03255*
X-00456Y03261*
X-00465Y03264*
X-00468*
X-00476Y03261*
X-00482Y03255*
X-00485Y03247*
Y03244*
X-00482Y03235*
X-00476Y0323*
X-00468Y03227*
X-00508Y03291D02*
X-00505Y03283D01*
X-00499Y0328*
X-00493*
X-00488Y03283*
X-00485Y03289*
X-00482Y033*
X-00479Y03309*
X-00473Y03314*
X-00468Y03317*
X-00459*
X-00453Y03314*
X-0045Y03311*
X-00448Y03303*
Y03291*
X-0045Y03283*
X-00453Y0328*
X-00459Y03277*
X-00468*
X-00473Y0328*
X-00479Y03286*
X-00482Y03294*
X-00485Y03306*
X-00488Y03311*
X-00493Y03314*
X-00499*
X-00505Y03311*
X-00508Y03303*
Y03291*
Y03348D02*
X-00505Y03339D01*
X-00496Y03333*
X-00482Y03331*
X-00473*
X-00459Y03333*
X-0045Y03339*
X-00448Y03348*
Y03353*
X-0045Y03362*
X-00459Y03368*
X-00473Y03371*
X-00482*
X-00496Y03368*
X-00505Y03362*
X-00508Y03353*
Y03348*
Y03401D02*
X-00505Y03393D01*
X-00496Y03387*
X-00482Y03384*
X-00473*
X-00459Y03387*
X-0045Y03393*
X-00448Y03401*
Y03407*
X-0045Y03415*
X-00459Y03421*
X-00473Y03424*
X-00482*
X-00496Y03421*
X-00505Y03415*
X-00508Y03407*
Y03401*
X-00488Y03437D02*
X-00448D01*
X-00476D02*
X-00485Y03446D01*
X-00488Y03452*
Y0346*
X-00485Y03466*
X-00476Y03469*
X-00448*
X-00476D02*
X-00485Y03477D01*
X-00488Y03483*
Y03492*
X-00485Y03497*
X-00476Y035*
X-00448*
X-00508Y03525D02*
X-00505Y03528D01*
X-00508Y03531*
X-0051Y03528*
X-00508Y03525*
X-00488Y03528D02*
X-00448D01*
X-00508Y03541D02*
X-00448D01*
G54D91*
X03862Y02689D03*
X03762Y02589D03*
X03862D03*
X03762Y02489D03*
X03862D03*
X03762Y02389D03*
X03862D03*
X03762Y02289D03*
X03862D03*
X03762Y02189D03*
X03862D03*
X03762Y02089D03*
X03862D03*
X03762Y01989D03*
X03862D03*
X03762Y01889D03*
X03862D03*
X03762Y01789D03*
X03862D03*
X03762Y01689D03*
Y01589D03*
X03862D03*
X03762Y01489D03*
X03862Y01389D03*
X03762Y01289D03*
X03862D03*
X03762Y01189D03*
X03862D03*
X03762Y01089D03*
X03862D03*
X03762Y02689D03*
X0325Y048D03*
X02975Y0385D03*
X01575Y032D03*
X03075Y0385D03*
X01575Y033D03*
X0175Y032D03*
Y033D03*
X02275Y032D03*
Y031D03*
Y033D03*
X02725Y03825D03*
X02525Y01975D03*
X02225Y06D03*
X0355Y05975D03*
X0245Y06525D03*
X0095Y04975D03*
X01475Y06D03*
X0185Y06525D03*
X0205D03*
X0095Y04275D03*
Y05975D03*
X01575Y06D03*
X01675D03*
X02625Y03825D03*
X02525D03*
X039Y05775D03*
X04Y05825D03*
X039Y05975D03*
X04Y06025D03*
X04443Y05651D03*
X04383Y05751D03*
X04443Y06049D03*
X04383Y06149D03*
X04Y05925D03*
X039Y05875D03*
X04Y05725D03*
X0365Y03975D03*
X0355D03*
Y03875D03*
X0365D03*
X0355Y03775D03*
X0365D03*
Y04275D03*
Y04175D03*
Y04075D03*
X0355Y04275D03*
X0365Y04475D03*
X0355D03*
Y04375D03*
X0365D03*
X0355Y04075D03*
X0365Y04575D03*
X0355Y05475D03*
X0365Y05275D03*
X0355Y05875D03*
X0365D03*
X0355Y05275D03*
X0365Y05575D03*
Y05775D03*
X0355D03*
Y04575D03*
Y04675D03*
X0365Y04775D03*
X0355D03*
X0365Y05175D03*
X0355Y05075D03*
X0365Y05975D03*
Y05475D03*
Y05375D03*
X0355D03*
X0365Y06075D03*
X0355Y04875D03*
X017Y04675D03*
X021Y033D03*
X026Y06D03*
X0095Y06075D03*
X0085Y04075D03*
X0095Y03975D03*
Y04075D03*
X0085Y03975D03*
X0095Y04175D03*
X0085Y04275D03*
Y04375D03*
X0095D03*
X0085Y04475D03*
X0095D03*
X00544Y02723D03*
Y02625D03*
X00347Y02822D03*
Y02428D03*
X0085Y03675D03*
X0095Y03775D03*
Y03875D03*
X0085D03*
X0095Y04575D03*
X0085D03*
X0095Y05275D03*
X0085D03*
Y05375D03*
Y05475D03*
X0095Y05575D03*
X0085D03*
Y05675D03*
X0095Y05775D03*
X0085D03*
Y05875D03*
Y05975D03*
X0345Y06525D03*
X0185Y06425D03*
X0195Y06525D03*
X0215Y06425D03*
Y06525D03*
X0225Y06425D03*
Y06525D03*
X0235D03*
X0255D03*
X0265D03*
X0275D03*
X0285Y06425D03*
Y06525D03*
X0295D03*
X0305D03*
X0315D03*
X0325D03*
X0335D03*
X0435Y034D03*
X0425Y033D03*
Y032D03*
Y031D03*
Y03D03*
Y029D03*
Y028D03*
Y027D03*
Y026D03*
Y025D03*
Y034D03*
X02925Y0565D03*
X02975Y032D03*
X02625Y0365D03*
X03Y06175D03*
X029D03*
X031D03*
X021Y05575D03*
Y05475D03*
X00325Y00775D03*
X006Y0575D03*
Y0585D03*
Y044D03*
Y045D03*
X02125Y06D03*
X033Y033D03*
Y032D03*
X0125Y0575D03*
Y0565D03*
X01675Y0575D03*
Y0565D03*
X04325Y02025D03*
X04125D03*
X00205Y00775D03*
Y01D03*
X00325Y01225D03*
Y01D03*
X0365Y04875D03*
Y04975D03*
X0355D03*
X0365Y05075D03*
X0355Y05175D03*
Y05575D03*
Y05675D03*
X028Y033D03*
X0185Y06D03*
X0195D03*
X01925Y032D03*
Y031D03*
Y033D03*
X024Y06D03*
X025D03*
X0245Y042D03*
X04225Y02025D03*
X02725Y0365D03*
X028Y032D03*
X0135Y04425D03*
X0125D03*
X02525Y0365D03*
X012Y032D03*
X013D03*
Y033D03*
X012D03*
X014Y032D03*
Y033D03*
X021Y031D03*
Y032D03*
X0245D03*
Y031D03*
Y033D03*
X02625Y032D03*
Y031D03*
Y033D03*
X0095Y05875D03*
Y05475D03*
Y05375D03*
Y05175D03*
X0085Y05075D03*
X0095D03*
X0085Y04975D03*
Y04875D03*
X0095D03*
X0085Y04775D03*
X0095D03*
X0085Y04675D03*
X0125Y04575D03*
X0135D03*
X0355Y03675D03*
X0085Y03775D03*
X02225Y01975D03*
X03399Y01188D03*
Y00888D03*
X03499D03*
X03399Y01088D03*
X03499Y01188D03*
Y00988D03*
X03399D03*
X03499Y01088D03*
X03399Y02288D03*
X03499Y02188D03*
Y01288D03*
Y01388D03*
Y01488D03*
Y01688D03*
Y01888D03*
Y01988D03*
Y02088D03*
X03399Y01288D03*
Y01388D03*
Y01488D03*
Y01688D03*
Y01888D03*
Y02088D03*
X03499Y02288D03*
X03399Y01988D03*
Y02188D03*
X03325Y0385D03*
X03225D03*
X012Y06D03*
G54D113*
X-00002Y-00002D02*
Y06802D01*
X04503*
Y-00002D02*
Y06802D01*
X-00002Y-00002D02*
X04503D01*
G54D114*
X00375Y01525D02*
Y0165D01*
X00125Y01525D02*
Y0165D01*
X0025Y01525D02*
Y0165D01*
X00125Y02025D02*
X0025D01*
X00125Y019D02*
X0025D01*
X00125Y01775D02*
X00245D01*
X00125Y0165D02*
X0025D01*
Y0215*
X00125D02*
X0025D01*
X00125Y0165D02*
Y0215D01*
X0025Y0165D02*
X00375D01*
Y0215*
X0025D02*
X00375D01*
X0025Y02025D02*
X00375D01*
X0025Y019D02*
X00375D01*
X0025Y01775D02*
X00375D01*
X00245Y0165D02*
X0025D01*
G54D115*
X0025Y021D03*
G54D116*
X00112Y01837D03*
X00387D03*
G54D117*
X0025Y0164D03*
G54D118*
X03862Y01689D03*
Y01489D03*
X03762Y01389D03*
X034Y048D03*
X039Y06075D03*
X0085D03*
Y05175D03*
Y04175D03*
X0095Y05675D03*
Y04675D03*
Y03675D03*
X0355Y06075D03*
Y04175D03*
X0365Y05675D03*
Y04675D03*
Y03675D03*
X00544Y02527D03*
X0015Y02625D03*
X0195Y06425D03*
X0205D03*
X0235D03*
X0245D03*
X0255D03*
X0265D03*
X0275D03*
X0295D03*
X0305D03*
X0315D03*
X0325D03*
X0335D03*
X0345D03*
X0435Y033D03*
Y032D03*
Y031D03*
Y03D03*
Y029D03*
Y028D03*
Y027D03*
Y026D03*
Y025D03*
X00205Y0122D03*
X02975Y033D03*
X0125Y0555D03*
X01675D03*
X0145Y04425D03*
Y04575D03*
X03499Y01588D03*
Y01788D03*
X03399Y01588D03*
Y01788D03*
G54D119*
X0055Y02243D03*
Y00825D03*
G54D120*
X02497Y047D03*
X02103D03*
X02852Y02499D03*
G54D121*
X0443Y04013D03*
Y03837D03*
X04419Y04013D03*
Y03837D03*
X04441Y04013D03*
Y03837D03*
G54D122*
X04411Y04089D03*
Y03761D03*
Y04089D03*
Y03761D03*
X04425Y04089D03*
Y03761D03*
X04396Y04089D03*
Y03761D03*
G54D123*
X04292Y04013D03*
Y03837D03*
G54D124*
X0395Y00925D03*
X00345Y05122D03*
Y05137D03*
Y05062D03*
Y05092D03*
Y05107D03*
Y05152D03*
Y05077D03*
Y05107D03*
Y06108D03*
Y06123D03*
Y06048D03*
Y06078D03*
Y06093D03*
Y06138D03*
Y06063D03*
Y06093D03*
Y03772D03*
Y03787D03*
Y03712D03*
Y03742D03*
Y03757D03*
Y03802D03*
Y03727D03*
Y03757D03*
Y04758D03*
Y04773D03*
Y04698D03*
Y04728D03*
Y04743D03*
Y04788D03*
Y04713D03*
Y04743D03*
X04155Y04357D03*
Y04387D03*
Y04312D03*
Y04357D03*
Y04372D03*
Y04402D03*
Y04327D03*
Y04342D03*
Y05343D03*
Y05373D03*
Y05298D03*
Y05343D03*
Y05358D03*
Y05388D03*
Y05313D03*
Y05328D03*
G54D125*
X0395Y00725D03*
Y00825D03*
X01325Y06475D03*
X00675D03*
G54D126*
X04225Y00625D03*
Y01025D03*
G54D127*
X0413Y0559D03*
Y0621D03*
G54D128*
X0425Y05675D03*
Y06125D03*
G54D129*
X00544Y02822D03*
Y02428D03*
X0015Y02822D03*
X00052D03*
X0015Y02428D03*
X00052D03*
X00347Y02625D03*
G54D130*
X03Y00325D03*
X0125Y01125D03*
G54D131*
X02325Y038D03*
X02125D03*
G54D132*
X031Y06D03*
X029D03*
X00175Y03345D03*
Y03305D03*
Y03365D03*
Y03285D03*
X00419Y03345D03*
Y03305D03*
X00317Y03128D03*
X00277D03*
X00419Y03365D03*
Y03285D03*
Y03325D03*
X00175D03*
X00337Y03128D03*
X00257D03*
X00297D03*
G54D133*
X008Y033D03*
X00898Y03202D03*
X008Y03497D03*
G54D134*
X00702Y03202D03*
Y03398D03*
X00898D03*
G54D135*
X02947Y00403D03*
X00375Y01875D03*
Y01578D03*
G54D136*
X03053Y00297D03*
G54D137*
X004Y04141D03*
Y04468D03*
X0029Y04087D03*
X004Y04032D03*
Y04359D03*
X0029Y04305D03*
Y04196D03*
X039Y034D03*
Y03D03*
X0029Y05546D03*
Y05655D03*
X004Y05709D03*
Y05382D03*
X0029Y05437D03*
X004Y05818D03*
Y05491D03*
X0421Y04904D03*
Y04795D03*
X041Y0485D03*
Y04741D03*
X0421Y04686D03*
Y05013D03*
X041Y04632D03*
Y04959D03*
G54D138*
X0029Y04414D03*
X004Y0425D03*
Y056D03*
X0029Y05764D03*
X041Y05068D03*
G54D139*
X01448Y06598D03*
Y06352D03*
X01202D03*
X00798Y06598D03*
Y06352D03*
X00552D03*
G54D140*
X01202Y06598D03*
X00552D03*
G54D141*
X00225Y06575D03*
X04275D03*
Y00225D03*
X00225D03*
G54D142*
X0055Y00825D03*
G54D143*
X0055Y02243D03*
G54D144*
X03148Y025D03*
G54D145*
X035Y04825D03*
X03525Y04925D03*
X033Y04625D03*
X034D03*
X03Y0325D03*
X02937Y04013D03*
X01755Y02945D03*
X026Y0221D03*
X0235Y02525D03*
X02375Y02555D03*
X024Y02525D03*
X01825Y053D03*
X0225Y054D03*
X0228Y05495D03*
X02875Y042D03*
X03925Y035D03*
X0417Y04D03*
X0399Y0389D03*
X0395Y0385D03*
X0396Y03905D03*
X03825Y039D03*
X04175Y037D03*
X0411Y0384D03*
X03825Y0385D03*
X01675Y05175D03*
X0165Y0515D03*
X04125Y041D03*
X0415Y04075D03*
X037Y0445D03*
X03675Y04525D03*
X0225Y04595D03*
X02405Y0463D03*
X02412Y04512D03*
X0275Y0215D03*
X01225Y0485D03*
X02175Y03275D03*
X02276Y05526D03*
X01865Y04075D03*
X0189Y0404D03*
X0192Y0405D03*
X0191Y04025D03*
X0194Y04075D03*
X02027Y04212D03*
X0275Y037D03*
X0185Y04621D03*
X0281Y038D03*
X02838Y042D03*
X028Y02035D03*
X0315Y0365D03*
X0275Y03125D03*
X028Y0385D03*
X0355Y025D03*
X02675Y0182D03*
X0109Y04275D03*
X0205Y05925D03*
X02275Y053D03*
X02375Y0659D03*
X03775Y04725D03*
X01925Y01975D03*
X01825Y028D03*
X0125Y04775D03*
X02575Y03025D03*
X02675D03*
X016Y00262D03*
X03025Y0335D03*
X03525D03*
X0388Y05425D03*
X034Y05375D03*
X02505Y0508D03*
X0234Y0445D03*
X023Y04475D03*
X02175Y0454D03*
X022Y04615D03*
X02225Y04635D03*
X02175Y04655D03*
X0265Y03725D03*
X03925Y027D03*
X0405Y03425D03*
Y03375D03*
Y03275D03*
Y03325D03*
Y03225D03*
X03975Y041D03*
X03275Y061D03*
X0345Y051D03*
X02379Y045D03*
X02525Y051D03*
X0242Y0507D03*
X024Y051D03*
X02425Y04875D03*
X02395Y0488D03*
Y0491D03*
X02375Y047D03*
X027Y05575D03*
X021Y04625D03*
X03325Y02735D03*
Y02765D03*
Y02796D03*
X0221Y01875D03*
X02075Y0205D03*
X03925Y036D03*
Y043D03*
Y042D03*
X0215Y019D03*
X03425Y03025D03*
X03625D03*
X04055Y03175D03*
X03675Y03275D03*
X02335Y04275D03*
X02225Y04125D03*
X02125Y041D03*
X01625Y0425D03*
X015Y04225D03*
X0145Y0415D03*
X01425Y04175D03*
X014Y041D03*
X01375Y042D03*
X013Y041D03*
X0135Y043D03*
X01225Y04325D03*
Y04125D03*
X0237Y04305D03*
X0239Y04325D03*
X02555Y05335D03*
X02105Y04275D03*
X01815Y052D03*
X0239Y05475D03*
X02515Y05583D03*
X02375Y05655D03*
X01835Y05075D03*
X01825Y05175D03*
X027Y05875D03*
X01805Y0455D03*
X0178Y05225D03*
X0274Y04877D03*
X02865Y04925D03*
Y04825D03*
X02575Y0514D03*
X01075Y05175D03*
X013Y05425D03*
X0232Y05155D03*
X0255Y057D03*
X016Y05425D03*
X01475Y0565D03*
X018Y056D03*
X02785Y03925D03*
X0265Y04015D03*
X01275Y04875D03*
X013Y0465D03*
X01475Y04825D03*
X015Y048D03*
X01525Y0475D03*
X0155Y0505D03*
X01575Y04725D03*
X016Y05075D03*
X01625Y05125D03*
X01977Y05472D03*
X0121Y0185D03*
X02555Y0435D03*
X02525D03*
X0335Y0425D03*
X03325Y0415D03*
X02673Y04951D03*
X026Y05425D03*
X0195Y0445D03*
X02495Y0545D03*
X02425Y0551D03*
X02475Y0543D03*
X02261Y0433D03*
X02475Y04025D03*
X0267Y04503D03*
X02477Y04335D03*
X04125Y03575D03*
X03975Y03725D03*
X03967Y03653D03*
X02987Y05352D03*
X02975Y05544D03*
X02825Y05875D03*
X027Y057D03*
X0187Y05875D03*
X0144D03*
X0145Y0545D03*
X019Y05475D03*
X006Y05375D03*
Y04025D03*
X019Y016D03*
X01525Y00925D03*
X00672Y01687D03*
X0145Y0175D03*
X01425Y017D03*
X01838Y01577D03*
X01125Y02125D03*
X013Y0135D03*
X022Y01375D03*
X021D03*
X01837Y0185D03*
X018Y01845D03*
Y02D03*
X01735Y0185D03*
X01676Y01851D03*
X01544Y01675D03*
X0157Y01749D03*
X01975Y018D03*
X01901Y01651D03*
X019Y01725D03*
X042Y0155D03*
X04185Y01525D03*
X04265Y018D03*
X04224Y01651D03*
X0283Y0136D03*
X0325Y01375D03*
X02925Y01195D03*
X03025D03*
X03075Y0127D03*
X03185Y01185D03*
X02275Y014D03*
X02873Y0133D03*
X02875Y0129D03*
X03275Y0135D03*
Y0128D03*
X02625Y012D03*
X02Y0125D03*
X0215Y0155D03*
X02225D03*
X023D03*
X02925Y015D03*
X02803Y01413D03*
X03028Y01628D03*
X03203Y01413D03*
X03154Y01824D03*
X03102Y01827D03*
X02925Y01763D03*
X01Y01575D03*
X0125Y0148D03*
X03Y0085D03*
X029Y01035D03*
X0285Y01075D03*
X031Y0085D03*
X02765Y012D03*
X0265Y0095D03*
X03525Y00438D03*
X032Y007D03*
X031D03*
X03D03*
X029D03*
X028D03*
X027Y0085D03*
X025Y01D03*
X024Y0084D03*
X01425Y00795D03*
X01475Y00775D03*
X0149Y01315D03*
X018Y013D03*
X01625Y0125D03*
X017Y01025D03*
X01775Y0095D03*
X01253Y01317D03*
X00825Y017D03*
X00975Y007D03*
X01175Y00775D03*
X03525Y03175D03*
Y03275D03*
X03725Y03425D03*
X0354Y03375D03*
X03675D03*
Y02875D03*
X0306Y03675D03*
X03074Y0409D03*
X03175Y04075D03*
X02675Y03975D03*
X00825Y01575D03*
X0252Y0535D03*
X02Y026D03*
X0205Y0285D03*
X0155Y028D03*
Y02575D03*
X0425Y0635D03*
X02046Y05059D03*
X02775Y04975D03*
X02725Y0505D03*
X02888Y05148D03*
X0279Y0515D03*
X027Y051D03*
X02675D03*
X02405Y05135D03*
X02375D03*
X031Y05278D03*
Y05309D03*
Y05341D03*
Y05375D03*
X02785Y057D03*
X02947Y05728D03*
X02971Y05581D03*
X03203Y05485D03*
X0325Y05325D03*
X025Y03975D03*
X02178Y05528D03*
X021Y05875D03*
X02225Y05925D03*
X036Y03125D03*
X02575Y01275D03*
X033Y04525D03*
X03325Y062D03*
X0345Y054D03*
X0245Y0625D03*
X03825Y04825D03*
X03845Y04925D03*
X00675Y0175D03*
Y0165D03*
X014Y057D03*
X0145D03*
X0085Y01625D03*
X02003Y01485D03*
X03675Y04625D03*
X0405Y03025D03*
Y02975D03*
X0065Y02075D03*
X018Y05475D03*
X01975Y04235D03*
X02175Y01D03*
X0287Y04525D03*
X0285Y04725D03*
X02776Y04661D03*
X02791Y04641D03*
X02777Y04587D03*
X02865Y04625D03*
X02775Y04555D03*
X028Y045D03*
X03825Y038D03*
Y0425D03*
Y0435D03*
Y0445D03*
X02525Y04775D03*
X0253Y04945D03*
X0145Y02525D03*
X0155Y025D03*
Y02425D03*
X00907Y01773D03*
X01Y01615D03*
X04075Y063D03*
X01125Y02225D03*
X036Y05625D03*
X0435Y01375D03*
X00705Y0093D03*
X02928Y03612D03*
X0285Y0545D03*
X021Y06185D03*
Y06145D03*
X0145Y0255D03*
Y0258D03*
X0072Y01175D03*
X042Y01275D03*
X03325Y0441D03*
X033Y04325D03*
G54D146*
X01494Y03525D03*
X01606Y03485D03*
X01175Y0385D03*
X0135Y03675D03*
X00075Y02105D03*
X03841Y03925D03*
X04431D03*
X04148Y03787D03*
X03158Y03988D03*
X03725Y03025D03*
Y03075D03*
Y03125D03*
X032Y0323D03*
X0154Y0164D03*
X034Y03325D03*
X02Y03925D03*
X02625Y043D03*
X02995Y05298D03*
X0145Y06125D03*
X02475Y058D03*
X01975Y05825D03*
X0135Y0545D03*
X0215Y03925D03*
X0245D03*
X03322Y03972D03*
X02725Y04225D03*
X0267Y04917D03*
X03285Y04425D03*
X0193Y04483D03*
X02229Y04331D03*
X02425Y04475D03*
X023Y03925D03*
X02669Y04466D03*
X02575Y04025D03*
X02375D03*
X0315Y05025D03*
Y04925D03*
Y04825D03*
Y04725D03*
Y04425D03*
Y04625D03*
Y04525D03*
Y04325D03*
X0235Y0625D03*
X0225Y061D03*
X0215D03*
X0205D03*
X0195Y0625D03*
X0185Y061D03*
X0175Y0625D03*
X0405Y03635D03*
X039Y03628D03*
X02841Y05406D03*
X03062Y05448D03*
X0284Y05485D03*
X03025Y05875D03*
X02773Y05948D03*
X02425Y05775D03*
X026Y057D03*
X016Y05875D03*
X01725Y05425D03*
X0185Y05475D03*
X007Y06075D03*
X006Y05225D03*
Y03875D03*
X0195Y0105D03*
X01625Y0085D03*
X0085Y0205D03*
X00725Y02325D03*
X01725Y017D03*
X0146Y018D03*
X0095Y0305D03*
X01095Y0175D03*
X013Y0155D03*
Y0145D03*
X01775Y0185D03*
X01675Y02D03*
X01575D03*
X014D03*
X01445Y0165D03*
X01975Y02025D03*
X01875Y017D03*
X0205Y016D03*
Y0175D03*
Y01675D03*
X019Y01525D03*
X01725Y014D03*
X01625D03*
X04226Y01569D03*
X0418Y016D03*
X0405Y01675D03*
X04025Y018D03*
X02625Y015D03*
X03075Y0131D03*
X0267D03*
X02Y011D03*
X03275Y0131D03*
X03025Y015D03*
X03059Y01626D03*
X0309Y01625D03*
X03125D03*
X03122Y01808D03*
X03059Y01816D03*
X03026Y01825D03*
X00775Y0075D03*
X03525Y00262D03*
X028Y01D03*
X029D03*
X03D03*
X031D03*
X032D03*
X033Y0085D03*
X027Y007D03*
X025Y0085D03*
X022Y005D03*
X02075D03*
X0195D03*
X01825D03*
X0095Y00262D03*
X02655Y00275D03*
X0245Y0035D03*
X01475Y0075D03*
X017Y0085D03*
X0225Y0115D03*
X022D03*
X0215D03*
X021D03*
X017Y01275D03*
X01215Y0131D03*
X0175Y0135D03*
X016D03*
X005Y01475D03*
X01072Y0079D03*
X00975Y00925D03*
X03525Y02775D03*
X03375D03*
Y02875D03*
X03725Y03375D03*
Y03225D03*
Y03175D03*
Y02975D03*
X03085Y037D03*
X02872Y03625D03*
X03137Y03702D03*
X03138Y04227D03*
X02875Y04004D03*
X00675Y01575D03*
X02515Y05386D03*
X04Y014D03*
X0125Y017D03*
X012Y0249D03*
X02Y0245D03*
X0165Y02575D03*
X01825D03*
X017Y028D03*
X02275Y023D03*
X02083Y0507D03*
X03075Y0565D03*
X03275Y0585D03*
X02525Y05625D03*
X035Y025D03*
X0235Y0095D03*
X0285Y005D03*
X0315Y002D03*
X044Y01675D03*
X00422Y01418D03*
X00075Y015D03*
X00525Y01925D03*
X0054Y01695D03*
X0072Y0195D03*
X0067Y01325D03*
X022Y02105D03*
X02315Y021D03*
X018Y0219D03*
X02375Y02175D03*
X0304Y0195D03*
X0222Y038D03*
X0212Y04835D03*
X0208Y0448D03*
X0252Y046D03*
M02*