%FSTAX23Y23*%
%MOIN*%
%SFA1B1*%

%IPPOS*%
%ADD52C,0.007000*%
%ADD58C,0.005000*%
%ADD90C,0.001000*%
%ADD91C,0.004000*%
%LNmb525b-1*%
%LPD*%
G54D52*
X38825Y5649D02*
X3988D01*
X38825Y56115D02*
X3988D01*
Y5649*
X38825Y56115D02*
Y5649D01*
G54D58*
X39278Y50206D02*
Y51544D01*
X41477Y50206D02*
Y51544D01*
X39278D02*
X41477D01*
X39278Y50206D02*
X41477D01*
X403Y506D02*
X4026D01*
X403Y50573*
X4026*
X40267Y50533D02*
X4026Y5054D01*
Y50553*
X40267Y5056*
X40293*
X403Y50553*
Y5054*
X40293Y50533*
X40367Y51223D02*
X4036Y5123D01*
Y51243*
X40367Y5125*
X40393*
X404Y51243*
Y5123*
X40393Y51223*
X4036Y5121D02*
X404D01*
Y51183*
X4036Y5117D02*
X404D01*
X40387*
X4036Y51143*
X4038Y51163*
X404Y51143*
X4056Y5125D02*
X40587D01*
X406Y51237*
X40587Y51223*
X4056*
X40567Y51183D02*
X4056Y5119D01*
Y51203*
X40567Y5121*
X40593*
X406Y51203*
Y5119*
X40593Y51183*
X40567Y51143D02*
X4056Y5115D01*
Y51163*
X40567Y5117*
X40593*
X406Y51163*
Y5115*
X40593Y51143*
X403Y5125D02*
X4026D01*
X403Y51223*
X4026*
X40267Y51183D02*
X4026Y5119D01*
Y51203*
X40267Y5121*
X40293*
X403Y51203*
Y5119*
X40293Y51183*
X405Y5125D02*
X4046D01*
Y5123*
X40467Y51223*
X4048*
X40487Y5123*
Y5125*
Y51237D02*
X405Y51223D01*
X40467Y51183D02*
X4046Y5119D01*
Y51203*
X40467Y5121*
X40473*
X4048Y51203*
Y5119*
X40487Y51183*
X40493*
X405Y5119*
Y51203*
X40493Y5121*
X4046Y5117D02*
Y51143D01*
Y51157*
X405*
X40567Y50573D02*
X4056Y5058D01*
Y50593*
X40567Y506*
X40593*
X406Y50593*
Y5058*
X40593Y50573*
X4058*
Y50587*
X406Y5056D02*
X4056D01*
X406Y50533*
X4056*
Y5052D02*
X406D01*
Y505*
X40593Y50493*
X40567*
X4056Y505*
Y5052*
X405Y506D02*
X4046D01*
X405Y50573*
X4046*
X40467Y50533D02*
X4046Y5054D01*
Y50553*
X40467Y5056*
X40493*
X405Y50553*
Y5054*
X40493Y50533*
X4036Y506D02*
Y50587D01*
Y50593*
X404*
Y506*
Y50587*
Y50567D02*
X40373Y5054D01*
X4036Y50507D02*
Y5052D01*
X40367Y50527*
X40393*
X404Y5052*
Y50507*
X40393Y505*
X40367*
X4036Y50507*
X3815Y502D02*
Y57D01*
X4265*
X3815Y502D02*
X4265D01*
Y57*
G54D90*
X39731Y56527D02*
X3979D01*
X39686Y56518D02*
X39697D01*
X39566D02*
X39577D01*
X39867Y56519D02*
X39882D01*
X39835D02*
X39852D01*
X39805D02*
X3982D01*
X39746D02*
X3979D01*
X39682D02*
X39701D01*
X39606D02*
X39657D01*
X39562D02*
X39581D01*
X39867Y5652D02*
X39882D01*
X39835D02*
X39852D01*
X39805D02*
X3982D01*
X3974D02*
X3979D01*
X39679D02*
X39703D01*
X39606D02*
X39657D01*
X39559D02*
X39583D01*
X39867Y56521D02*
X39882D01*
X39835D02*
X39852D01*
X39805D02*
X3982D01*
X39738D02*
X3979D01*
X39678D02*
X39705D01*
X39606D02*
X39657D01*
X39558D02*
X39585D01*
X39867Y56522D02*
X39882D01*
X39834D02*
X39853D01*
X39805D02*
X3982D01*
X39736D02*
X3979D01*
X39676D02*
X39707D01*
X39606D02*
X39656D01*
X39556D02*
X39587D01*
X39867Y56523D02*
X39882D01*
X39834D02*
X39853D01*
X39805D02*
X3982D01*
X39735D02*
X3979D01*
X39675D02*
X39708D01*
X39606D02*
X39656D01*
X39555D02*
X39588D01*
X39867Y56524D02*
X39882D01*
X39834D02*
X39853D01*
X39805D02*
X3982D01*
X39733D02*
X3979D01*
X39674D02*
X39709D01*
X39606D02*
X39656D01*
X39554D02*
X39589D01*
X39867Y56525D02*
X39882D01*
X39834D02*
X39853D01*
X39805D02*
X3982D01*
X39732D02*
X3979D01*
X39673D02*
X3971D01*
X39606D02*
X39656D01*
X39553D02*
X3959D01*
X39867Y56526D02*
X39882D01*
X39833D02*
X39854D01*
X39805D02*
X3982D01*
X39731D02*
X3979D01*
X39672D02*
X39711D01*
X39606D02*
X39655D01*
X39552D02*
X39591D01*
X39867Y56527D02*
X39882D01*
X39833D02*
X39854D01*
X39805D02*
X3982D01*
X39671D02*
X39712D01*
X39606D02*
X39655D01*
X39551D02*
X39592D01*
X39867Y56528D02*
X39882D01*
X39833D02*
X39854D01*
X39805D02*
X3982D01*
X3973D02*
X3979D01*
X3967D02*
X39713D01*
X39606D02*
X39655D01*
X3955D02*
X39593D01*
X39867Y56529D02*
X39882D01*
X39833D02*
X39854D01*
X39805D02*
X3982D01*
X39729D02*
X3979D01*
X39669D02*
X39713D01*
X39606D02*
X39654D01*
X39549D02*
X39593D01*
X39867Y5653D02*
X39882D01*
X39832D02*
X39855D01*
X39805D02*
X3982D01*
X39729D02*
X3979D01*
X39669D02*
X39714D01*
X39606D02*
X39654D01*
X39549D02*
X39594D01*
X39867Y56531D02*
X39882D01*
X39832D02*
X39855D01*
X39805D02*
X3982D01*
X39728D02*
X3979D01*
X39695D02*
X39714D01*
X39668D02*
X39688D01*
X39606D02*
X39653D01*
X39575D02*
X39594D01*
X39548D02*
X39568D01*
X39867Y56532D02*
X39882D01*
X39832D02*
X39855D01*
X39805D02*
X3982D01*
X39775D02*
X3979D01*
X39728D02*
X39749D01*
X39698D02*
X39715D01*
X39668D02*
X39686D01*
X39606D02*
X39653D01*
X39578D02*
X39595D01*
X39548D02*
X39566D01*
X39867Y56533D02*
X39882D01*
X39832D02*
X39855D01*
X39805D02*
X3982D01*
X39775D02*
X3979D01*
X39727D02*
X39746D01*
X39699D02*
X39715D01*
X39667D02*
X39684D01*
X39606D02*
X39652D01*
X39579D02*
X39595D01*
X39547D02*
X39564D01*
X39867Y56534D02*
X39882D01*
X39831D02*
X39856D01*
X39805D02*
X3982D01*
X39775D02*
X3979D01*
X39727D02*
X39744D01*
X397D02*
X39715D01*
X39667D02*
X39683D01*
X39635D02*
X39651D01*
X3958D02*
X39595D01*
X39547D02*
X39563D01*
X39867Y56535D02*
X39882D01*
X39831D02*
X39856D01*
X39805D02*
X3982D01*
X39775D02*
X3979D01*
X39727D02*
X39743D01*
X39701D02*
X39716D01*
X39666D02*
X39682D01*
X39634D02*
X39651D01*
X39581D02*
X39596D01*
X39546D02*
X39562D01*
X39867Y56536D02*
X39882D01*
X39831D02*
X39856D01*
X39805D02*
X3982D01*
X39775D02*
X3979D01*
X39726D02*
X39742D01*
X39702D02*
X39716D01*
X39666D02*
X39682D01*
X39634D02*
X3965D01*
X39582D02*
X39596D01*
X39546D02*
X39562D01*
X39867Y56537D02*
X39882D01*
X39831D02*
X39856D01*
X39805D02*
X3982D01*
X39775D02*
X3979D01*
X39726D02*
X39742D01*
X39702D02*
X39716D01*
X39666D02*
X39681D01*
X39633D02*
X39649D01*
X39582D02*
X39596D01*
X39546D02*
X39561D01*
X39867Y56538D02*
X39882D01*
X3983D02*
X39857D01*
X39805D02*
X3982D01*
X39775D02*
X3979D01*
X39726D02*
X39741D01*
X39703D02*
X39717D01*
X39666D02*
X39681D01*
X39632D02*
X39648D01*
X39583D02*
X39597D01*
X39546D02*
X39561D01*
X39867Y56539D02*
X39882D01*
X3983D02*
X39857D01*
X39805D02*
X3982D01*
X39775D02*
X3979D01*
X39726D02*
X39741D01*
X39703D02*
X39717D01*
X39665D02*
X3968D01*
X39631D02*
X39648D01*
X39583D02*
X39597D01*
X39545D02*
X3956D01*
X39867Y5654D02*
X39882D01*
X3983D02*
X39857D01*
X39805D02*
X3982D01*
X39775D02*
X3979D01*
X39726D02*
X39741D01*
X39704D02*
X39717D01*
X39665D02*
X3968D01*
X3963D02*
X39647D01*
X39584D02*
X39597D01*
X39545D02*
X3956D01*
X39867Y56541D02*
X39882D01*
X3983D02*
X39857D01*
X39805D02*
X3982D01*
X39775D02*
X3979D01*
X39726D02*
X39741D01*
X39704D02*
X39716D01*
X39665D02*
X3968D01*
X39629D02*
X39646D01*
X39584D02*
X39596D01*
X39545D02*
X3956D01*
X39867Y56542D02*
X39882D01*
X39829D02*
X39858D01*
X39805D02*
X3982D01*
X39775D02*
X3979D01*
X39726D02*
X39741D01*
X39704D02*
X39708D01*
X39665D02*
X3968D01*
X39628D02*
X39645D01*
X39584D02*
X39588D01*
X39545D02*
X3956D01*
X39867Y56543D02*
X39882D01*
X39844D02*
X39858D01*
X39829D02*
X39843D01*
X39805D02*
X3982D01*
X39775D02*
X3979D01*
X39726D02*
X39741D01*
X39665D02*
X3968D01*
X39626D02*
X39644D01*
X39545D02*
X3956D01*
X39867Y56544D02*
X39882D01*
X39844D02*
X39858D01*
X39829D02*
X39843D01*
X39805D02*
X3982D01*
X39775D02*
X3979D01*
X39726D02*
X39741D01*
X39665D02*
X3968D01*
X39625D02*
X39643D01*
X39545D02*
X3956D01*
X39867Y56545D02*
X39882D01*
X39844D02*
X39858D01*
X39829D02*
X39843D01*
X39805D02*
X3982D01*
X39775D02*
X3979D01*
X39726D02*
X39742D01*
X39665D02*
X3968D01*
X39624D02*
X39642D01*
X39545D02*
X3956D01*
X39867Y56546D02*
X39882D01*
X39844D02*
X39859D01*
X39828D02*
X39843D01*
X39805D02*
X3982D01*
X39775D02*
X3979D01*
X39727D02*
X39742D01*
X39665D02*
X3968D01*
X39623D02*
X39641D01*
X39545D02*
X3956D01*
X39867Y56547D02*
X39882D01*
X39845D02*
X39859D01*
X39828D02*
X39842D01*
X39805D02*
X3982D01*
X39775D02*
X3979D01*
X39727D02*
X39743D01*
X39665D02*
X3968D01*
X39622D02*
X3964D01*
X39545D02*
X3956D01*
X39867Y56548D02*
X39882D01*
X39845D02*
X39859D01*
X39828D02*
X39842D01*
X39805D02*
X3982D01*
X39775D02*
X3979D01*
X39727D02*
X39744D01*
X39665D02*
X39681D01*
X39621D02*
X39639D01*
X39545D02*
X39561D01*
X39867Y56549D02*
X39882D01*
X39845D02*
X39859D01*
X39828D02*
X39842D01*
X39805D02*
X3982D01*
X39775D02*
X3979D01*
X39728D02*
X39745D01*
X39665D02*
X39681D01*
X3962D02*
X39638D01*
X39545D02*
X39561D01*
X39867Y5655D02*
X39882D01*
X39845D02*
X39859D01*
X39828D02*
X39842D01*
X39805D02*
X3982D01*
X39775D02*
X3979D01*
X39728D02*
X39747D01*
X39702D02*
X39706D01*
X39666D02*
X39681D01*
X39619D02*
X39637D01*
X39582D02*
X39586D01*
X39546D02*
X39561D01*
X39867Y56551D02*
X39882D01*
X39846D02*
X3986D01*
X39827D02*
X39841D01*
X39805D02*
X3982D01*
X39775D02*
X3979D01*
X39729D02*
X39751D01*
X39701D02*
X39713D01*
X39666D02*
X39682D01*
X39618D02*
X39636D01*
X39581D02*
X39593D01*
X39546D02*
X39562D01*
X39867Y56552D02*
X39882D01*
X39846D02*
X3986D01*
X39827D02*
X39841D01*
X39805D02*
X3982D01*
X39729D02*
X3979D01*
X397D02*
X39715D01*
X39666D02*
X39683D01*
X39617D02*
X39635D01*
X3958D02*
X39595D01*
X39546D02*
X39563D01*
X39867Y56553D02*
X39882D01*
X39846D02*
X3986D01*
X39827D02*
X39841D01*
X39805D02*
X3982D01*
X3973D02*
X3979D01*
X39698D02*
X39715D01*
X39666D02*
X39684D01*
X39616D02*
X39634D01*
X39578D02*
X39595D01*
X39546D02*
X39564D01*
X39867Y56554D02*
X39882D01*
X39846D02*
X3986D01*
X39827D02*
X39841D01*
X39805D02*
X3982D01*
X39731D02*
X3979D01*
X39697D02*
X39714D01*
X39667D02*
X39685D01*
X39615D02*
X39633D01*
X39577D02*
X39594D01*
X39547D02*
X39565D01*
X39867Y56555D02*
X39882D01*
X39846D02*
X39861D01*
X39826D02*
X39841D01*
X39805D02*
X3982D01*
X39732D02*
X3979D01*
X39694D02*
X39714D01*
X39667D02*
X39687D01*
X39614D02*
X39632D01*
X39574D02*
X39594D01*
X39547D02*
X39567D01*
X39867Y56556D02*
X39882D01*
X39847D02*
X39861D01*
X39826D02*
X3984D01*
X39805D02*
X3982D01*
X39733D02*
X3979D01*
X39668D02*
X39714D01*
X39613D02*
X39631D01*
X39548D02*
X39594D01*
X39867Y56557D02*
X39882D01*
X39847D02*
X39861D01*
X39826D02*
X3984D01*
X39805D02*
X3982D01*
X39735D02*
X3979D01*
X39668D02*
X39714D01*
X39612D02*
X3963D01*
X39548D02*
X39594D01*
X39867Y56558D02*
X39882D01*
X39847D02*
X39861D01*
X39826D02*
X3984D01*
X39805D02*
X3982D01*
X39737D02*
X3979D01*
X39669D02*
X39714D01*
X39612D02*
X39629D01*
X39549D02*
X39594D01*
X39867Y56559D02*
X39882D01*
X39847D02*
X39862D01*
X39825D02*
X3984D01*
X39805D02*
X3982D01*
X39739D02*
X3979D01*
X39669D02*
X39713D01*
X39611D02*
X39628D01*
X39549D02*
X39593D01*
X39867Y5656D02*
X39882D01*
X39848D02*
X39862D01*
X39825D02*
X39839D01*
X39805D02*
X3982D01*
X39738D02*
X3979D01*
X3967D02*
X39713D01*
X3961D02*
X39627D01*
X3955D02*
X39593D01*
X39867Y56561D02*
X39882D01*
X39848D02*
X39862D01*
X39825D02*
X39839D01*
X39805D02*
X3982D01*
X39736D02*
X3979D01*
X39671D02*
X39713D01*
X3961D02*
X39626D01*
X39551D02*
X39593D01*
X39867Y56562D02*
X39882D01*
X39848D02*
X39862D01*
X39825D02*
X39839D01*
X39805D02*
X3982D01*
X39735D02*
X3979D01*
X39672D02*
X39713D01*
X39609D02*
X39625D01*
X39552D02*
X39593D01*
X39867Y56563D02*
X39882D01*
X39848D02*
X39863D01*
X39824D02*
X39839D01*
X39805D02*
X3982D01*
X39734D02*
X3979D01*
X39673D02*
X39713D01*
X39609D02*
X39624D01*
X39553D02*
X39593D01*
X39867Y56564D02*
X39882D01*
X39849D02*
X39863D01*
X39824D02*
X39838D01*
X39805D02*
X3982D01*
X39733D02*
X3979D01*
X39674D02*
X39712D01*
X39608D02*
X39624D01*
X39554D02*
X39592D01*
X39867Y56565D02*
X39882D01*
X39849D02*
X39863D01*
X39824D02*
X39838D01*
X39805D02*
X3982D01*
X39775D02*
X3979D01*
X39732D02*
X39751D01*
X39676D02*
X39712D01*
X39608D02*
X39623D01*
X39556D02*
X39592D01*
X39867Y56566D02*
X39882D01*
X39849D02*
X39863D01*
X39824D02*
X39838D01*
X39805D02*
X3982D01*
X39775D02*
X3979D01*
X39732D02*
X39749D01*
X39697D02*
X39712D01*
X39677D02*
X39696D01*
X39607D02*
X39623D01*
X39577D02*
X39592D01*
X39557D02*
X39576D01*
X39867Y56567D02*
X39882D01*
X39849D02*
X39864D01*
X39823D02*
X39838D01*
X39805D02*
X3982D01*
X39775D02*
X3979D01*
X39731D02*
X39747D01*
X39697D02*
X39712D01*
X39679D02*
X39694D01*
X39607D02*
X39622D01*
X39577D02*
X39592D01*
X39559D02*
X39574D01*
X39867Y56568D02*
X39882D01*
X3985D02*
X39864D01*
X39823D02*
X39837D01*
X39805D02*
X3982D01*
X39775D02*
X3979D01*
X39731D02*
X39746D01*
X39697D02*
X39712D01*
X39683D02*
X39691D01*
X39607D02*
X39622D01*
X39577D02*
X39592D01*
X39563D02*
X39571D01*
X39867Y56569D02*
X39882D01*
X3985D02*
X39864D01*
X39823D02*
X39837D01*
X39805D02*
X3982D01*
X39775D02*
X3979D01*
X3973D02*
X39745D01*
X39696D02*
X39711D01*
X39607D02*
X39621D01*
X39576D02*
X39591D01*
X39867Y5657D02*
X39882D01*
X3985D02*
X39864D01*
X39823D02*
X39837D01*
X39805D02*
X3982D01*
X39775D02*
X3979D01*
X3973D02*
X39745D01*
X39696D02*
X39711D01*
X39606D02*
X39621D01*
X39576D02*
X39591D01*
X39867Y56571D02*
X39882D01*
X3985D02*
X39865D01*
X39822D02*
X39837D01*
X39805D02*
X3982D01*
X39775D02*
X3979D01*
X3973D02*
X39744D01*
X39696D02*
X39711D01*
X3964D02*
X39645D01*
X39606D02*
X39621D01*
X39576D02*
X39591D01*
X39867Y56572D02*
X39882D01*
X39851D02*
X39865D01*
X39822D02*
X39836D01*
X39805D02*
X3982D01*
X39775D02*
X3979D01*
X39729D02*
X39744D01*
X39696D02*
X39711D01*
X3964D02*
X39655D01*
X39606D02*
X39621D01*
X39576D02*
X39591D01*
X39867Y56573D02*
X39882D01*
X39851D02*
X39865D01*
X39822D02*
X39836D01*
X39805D02*
X3982D01*
X39775D02*
X3979D01*
X39729D02*
X39744D01*
X39695D02*
X3971D01*
X3964D02*
X39655D01*
X39606D02*
X39621D01*
X39575D02*
X3959D01*
X39867Y56574D02*
X39882D01*
X39851D02*
X39865D01*
X39822D02*
X39836D01*
X39805D02*
X3982D01*
X39775D02*
X3979D01*
X39729D02*
X39744D01*
X39695D02*
X3971D01*
X3964D02*
X39655D01*
X39606D02*
X39621D01*
X39575D02*
X3959D01*
X39867Y56575D02*
X39882D01*
X39851D02*
X39866D01*
X39821D02*
X39836D01*
X39805D02*
X3982D01*
X39775D02*
X3979D01*
X39729D02*
X39744D01*
X39695D02*
X3971D01*
X39639D02*
X39655D01*
X39606D02*
X39621D01*
X39575D02*
X3959D01*
X39867Y56576D02*
X39882D01*
X39852D02*
X39866D01*
X39821D02*
X39835D01*
X39805D02*
X3982D01*
X39775D02*
X3979D01*
X39729D02*
X39744D01*
X39695D02*
X3971D01*
X39639D02*
X39654D01*
X39606D02*
X39621D01*
X39575D02*
X3959D01*
X39867Y56577D02*
X39882D01*
X39852D02*
X39866D01*
X39821D02*
X39835D01*
X39805D02*
X3982D01*
X39775D02*
X3979D01*
X39729D02*
X39745D01*
X39695D02*
X3971D01*
X39639D02*
X39654D01*
X39606D02*
X39622D01*
X39575D02*
X3959D01*
X39867Y56578D02*
X39882D01*
X39852D02*
X39866D01*
X39821D02*
X39835D01*
X39805D02*
X3982D01*
X39775D02*
X3979D01*
X39729D02*
X39745D01*
X39694D02*
X39709D01*
X39638D02*
X39654D01*
X39606D02*
X39622D01*
X39574D02*
X39589D01*
X39867Y56579D02*
X39882D01*
X39852D02*
X39866D01*
X39821D02*
X39835D01*
X39805D02*
X3982D01*
X39775D02*
X3979D01*
X39729D02*
X39746D01*
X39694D02*
X39709D01*
X39638D02*
X39654D01*
X39606D02*
X39623D01*
X39574D02*
X39589D01*
X39853Y5658D02*
X39882D01*
X39805D02*
X39834D01*
X39775D02*
X3979D01*
X39729D02*
X39747D01*
X39668D02*
X39709D01*
X39637D02*
X39653D01*
X39607D02*
X39624D01*
X39548D02*
X39589D01*
X39853Y56581D02*
X39882D01*
X39805D02*
X39834D01*
X39775D02*
X3979D01*
X3973D02*
X39748D01*
X39668D02*
X39709D01*
X39636D02*
X39653D01*
X39607D02*
X39625D01*
X39548D02*
X39589D01*
X39853Y56582D02*
X39882D01*
X39805D02*
X39834D01*
X39775D02*
X3979D01*
X3973D02*
X39751D01*
X39668D02*
X39709D01*
X39634D02*
X39653D01*
X39607D02*
X39627D01*
X39548D02*
X39589D01*
X39853Y56583D02*
X39882D01*
X39805D02*
X39834D01*
X3973D02*
X3979D01*
X39668D02*
X39708D01*
X39608D02*
X39652D01*
X39548D02*
X39588D01*
X39854Y56584D02*
X39882D01*
X39805D02*
X39833D01*
X39731D02*
X3979D01*
X39668D02*
X39708D01*
X39608D02*
X39652D01*
X39548D02*
X39588D01*
X39854Y56585D02*
X39882D01*
X39805D02*
X39833D01*
X39731D02*
X3979D01*
X39668D02*
X39708D01*
X39609D02*
X39651D01*
X39548D02*
X39588D01*
X39854Y56586D02*
X39882D01*
X39805D02*
X39833D01*
X39732D02*
X3979D01*
X39668D02*
X39708D01*
X39609D02*
X39651D01*
X39548D02*
X39588D01*
X39854Y56587D02*
X39882D01*
X39805D02*
X39833D01*
X39733D02*
X3979D01*
X39668D02*
X39708D01*
X3961D02*
X3965D01*
X39548D02*
X39588D01*
X39855Y56588D02*
X39882D01*
X39805D02*
X39832D01*
X39733D02*
X3979D01*
X39668D02*
X39707D01*
X39611D02*
X39649D01*
X39548D02*
X39587D01*
X39855Y56589D02*
X39882D01*
X39805D02*
X39832D01*
X39734D02*
X3979D01*
X39668D02*
X39707D01*
X39612D02*
X39648D01*
X39548D02*
X39587D01*
X39855Y5659D02*
X39882D01*
X39805D02*
X39832D01*
X39735D02*
X3979D01*
X39668D02*
X39707D01*
X39613D02*
X39647D01*
X39548D02*
X39587D01*
X39855Y56591D02*
X39882D01*
X39805D02*
X39832D01*
X39737D02*
X3979D01*
X39668D02*
X39707D01*
X39614D02*
X39646D01*
X39548D02*
X39587D01*
X39856Y56592D02*
X39882D01*
X39805D02*
X39831D01*
X39738D02*
X3979D01*
X39668D02*
X39707D01*
X39616D02*
X39644D01*
X39548D02*
X39587D01*
X39856Y56593D02*
X39882D01*
X39805D02*
X39831D01*
X3974D02*
X3979D01*
X39668D02*
X39706D01*
X39617D02*
X39642D01*
X39548D02*
X39586D01*
X39856Y56594D02*
X39882D01*
X39805D02*
X39831D01*
X39742D02*
X3979D01*
X39668D02*
X39706D01*
X3962D02*
X3964D01*
X39548D02*
X39586D01*
X39856Y56595D02*
X39882D01*
X39805D02*
X39831D01*
X39747D02*
X3979D01*
X39624D02*
X39636D01*
G54D91*
X41385Y51602D02*
X41387Y51605D01*
X4139Y51608*
X41393Y5161*
X414*
X41403Y51608*
X41407Y51605*
X41408Y51602*
X4141Y51597*
Y51588*
X41408Y51583*
X41407Y5158*
X41403Y51577*
X414Y51575*
X41393*
X4139Y51577*
X41387Y5158*
X41385Y51583*
X41375Y5161D02*
Y51575D01*
Y5161D02*
X41352Y51575D01*
Y5161D02*
Y51575D01*
X41342Y51603D02*
X41339Y51605D01*
X41334Y5161*
Y51575*
X41297Y51605D02*
X41298Y51608D01*
X41303Y5161*
X41307*
X41312Y51608*
X41315Y51603*
X41317Y51595*
Y51587*
X41315Y5158*
X41312Y51577*
X41307Y51575*
X41305*
X413Y51577*
X41297Y5158*
X41295Y51585*
Y51587*
X41297Y51592*
X413Y51595*
X41305Y51597*
X41307*
X41312Y51595*
X41315Y51592*
X41317Y51587*
X395Y56561D02*
Y56521D01*
Y56561D02*
X39483D01*
X39477Y56559*
X39475Y56557*
X39473Y56553*
Y5655*
X39475Y56546*
X39477Y56544*
X39483Y56542*
X395*
X39487D02*
X39473Y56521D01*
X39464Y56536D02*
X39442D01*
Y5654*
X39443Y56544*
X39445Y56546*
X39449Y56548*
X39455*
X39459Y56546*
X39462Y56542*
X39464Y56536*
Y56532*
X39462Y56527*
X39459Y56523*
X39455Y56521*
X39449*
X39445Y56523*
X39442Y56527*
X39433Y56548D02*
X39422Y56521D01*
X3941Y56548D02*
X39422Y56521D01*
X39402Y56525D02*
X39404Y56523D01*
X39402Y56521*
X394Y56523*
X39402Y56525*
X39391Y56561D02*
Y56521D01*
Y56561D02*
X39374D01*
X39368Y56559*
X39366Y56557*
X39364Y56553*
Y5655*
X39366Y56546*
X39368Y56544*
X39374Y56542*
X39391D02*
X39374D01*
X39368Y5654*
X39366Y56538*
X39364Y56534*
Y56529*
X39366Y56525*
X39368Y56523*
X39374Y56521*
X39391*
M02*