%FSTAX23Y23*%
%MOIN*%
%SFA1B1*%

%IPPOS*%
%ADD58C,0.005000*%
%ADD145C,0.068000*%
%ADD146O,0.088000X0.178000*%
%ADD147C,0.058000*%
%ADD148C,0.126000*%
%ADD149C,0.134000*%
%ADD150C,0.067000*%
%ADD151O,0.088000X0.078000*%
%ADD152R,0.088000X0.078000*%
%ADD153C,0.088000*%
%ADD154C,0.087000*%
%ADD155C,0.087000*%
%ADD156C,0.134000*%
%ADD157C,0.134000*%
%ADD158R,0.068000X0.068000*%
%ADD159C,0.053000*%
%ADD160O,0.088000X0.188000*%
%ADD161O,0.188000X0.088000*%
%ADD162C,0.146000*%
%ADD163C,0.079000*%
%ADD164C,0.128000*%
%ADD165C,0.036000*%
%ADD166C,0.047000*%
%ADD167C,0.051000*%
%ADD168C,0.046000*%
%ADD169C,0.036000*%
%ADD170R,0.059000X0.067000*%
%ADD171R,0.047000X0.077000*%
%LNmb672d-1*%
%LPD*%
G54D58*
X04275Y02361D02*
D01*
X0426Y02279*
X04252Y02197*
X04249Y02115*
X04251Y02033*
X0426Y01951*
X04275Y0187*
Y02361D02*
Y06575D01*
Y-00225D02*
Y0187D01*
X-00225Y-00225D02*
X04275D01*
X-00225Y06575D02*
X04275D01*
X-00225Y-00225D02*
Y06575D01*
G54D145*
X02771Y022D03*
X02671D03*
X02871D03*
X02371D03*
X02471D03*
X02571D03*
X02971D03*
X03071D03*
X039Y0125D03*
X038D03*
X03347Y00789D03*
X03247D03*
X03Y0245D03*
Y0255D03*
X00625Y0245D03*
X0415Y04D03*
X0405Y043D03*
Y04D03*
X0415Y041D03*
X0405Y044D03*
Y045D03*
X0415Y043D03*
Y044D03*
Y045D03*
X0405Y042D03*
Y046D03*
X0415Y042D03*
X0405Y041D03*
X0415Y046D03*
X03247Y01989D03*
Y01889D03*
Y01789D03*
Y01689D03*
Y01589D03*
Y01489D03*
Y01389D03*
Y01289D03*
Y01189D03*
X03347Y01989D03*
Y01889D03*
Y01789D03*
Y01689D03*
Y01589D03*
Y01489D03*
Y01389D03*
Y01289D03*
Y01189D03*
X03247Y02089D03*
X03347Y02189D03*
Y02089D03*
X03247Y02189D03*
X03347Y00989D03*
X03247Y00889D03*
X03347D03*
Y01089D03*
X03247Y00989D03*
Y01089D03*
X01425Y02975D03*
X03225Y062D03*
X03125D03*
X03025D03*
X02925D03*
X02825D03*
X02725D03*
X02625D03*
X02525Y063D03*
Y062D03*
X02425Y063D03*
Y062D03*
X02325Y063D03*
Y062D03*
X02225D03*
X02125D03*
X02025Y063D03*
Y062D03*
X01925Y063D03*
Y062D03*
X01825D03*
X01725D03*
X02225Y063D03*
X03025D03*
X02725D03*
X03125D03*
X03225D03*
X01725D03*
X02125D03*
X01625D03*
Y062D03*
X02825Y063D03*
X02625D03*
X02925D03*
X01825D03*
X00725Y0305D03*
X00625D03*
Y0315D03*
X00725D03*
Y0265D03*
X00625Y0255D03*
Y0265D03*
X00725Y0255D03*
X00625Y0325D03*
X00725Y0275D03*
X00625D03*
X00725Y0285D03*
X00625D03*
X00725Y0295D03*
Y0425D03*
Y0435D03*
X00625Y0365D03*
X00725D03*
X00625Y0415D03*
X00725Y0405D03*
X00625Y0355D03*
Y0435D03*
Y0405D03*
X00725Y0415D03*
Y0465D03*
X00625Y0425D03*
Y0335D03*
X00725D03*
Y0325D03*
Y0375D03*
X00625D03*
Y0445D03*
X00725Y0485D03*
X00625D03*
X00725Y0385D03*
X00625Y0465D03*
X00725Y0455D03*
Y0395D03*
X00625Y0385D03*
Y0455D03*
X00725Y0505D03*
X00625D03*
X00725Y0515D03*
X00625D03*
X00725Y0555D03*
X00625D03*
X00725Y0495D03*
X00625Y0565D03*
Y0525D03*
X00725Y0535D03*
X00625Y0575D03*
X00725D03*
Y0585D03*
Y0525D03*
Y0565D03*
X02525Y0245D03*
X02125Y02625D03*
X0285Y015D03*
X0255D03*
X016Y0245D03*
Y0255D03*
X0405Y0265D03*
X0415Y0275D03*
X0405D03*
X0415Y0285D03*
X0405D03*
X0415Y0295D03*
X0405D03*
X0415Y0305D03*
X0405D03*
X0415Y0315D03*
X0405D03*
X0415Y0325D03*
X0405D03*
X0415Y0335D03*
X0405D03*
X0415Y0345D03*
X0405D03*
X0415Y0355D03*
X0405D03*
X0415Y0265D03*
X0325Y00475D03*
X00625Y05975D03*
X03325D03*
X0415Y0125D03*
X0405D03*
X02275Y03225D03*
X0285Y03375D03*
Y03275D03*
X00625Y0395D03*
X00725Y0545D03*
Y0445D03*
X00625Y0585D03*
X00725Y0345D03*
X00625Y0295D03*
X00725Y0245D03*
X0125Y05775D03*
X0115D03*
X01775Y0255D03*
Y0245D03*
X02125D03*
X03375Y00475D03*
X02325Y0245D03*
X02525Y02625D03*
X0215Y02825D03*
X0225D03*
X0285Y0255D03*
X00775Y004D03*
X03Y05D03*
Y049D03*
X023Y02625D03*
X0285Y0245D03*
X0105D03*
X0115D03*
X0105Y0255D03*
X0125Y0245D03*
Y0255D03*
X037Y05325D03*
Y05225D03*
X027Y0255D03*
Y0245D03*
X00275Y-00025D03*
X02375Y02825D03*
X02975Y059D03*
Y058D03*
X01475Y06D03*
Y059D03*
X0125Y056D03*
X0115D03*
X0105Y02825D03*
X02975Y03375D03*
Y03275D03*
X01425Y0265D03*
Y0255D03*
X02325Y052D03*
Y051D03*
X0195Y02625D03*
Y02525D03*
X009Y004D03*
X03425Y0445D03*
X03325Y0585D03*
Y0245D03*
X03425D03*
X03325Y0365D03*
Y0395D03*
X03425Y0545D03*
Y0345D03*
X03325Y0295D03*
X03425Y0315D03*
Y0325D03*
X03325Y0415D03*
X03425D03*
X03325Y0425D03*
X03425D03*
X03325Y0315D03*
X03425Y0485D03*
Y0525D03*
X03325D03*
Y0445D03*
X03425Y0455D03*
X03325D03*
Y0465D03*
X03425D03*
X03325Y0505D03*
X03425Y0515D03*
X03325D03*
Y0285D03*
X03425Y0295D03*
Y0275D03*
X03325Y0375D03*
X03425D03*
X03325Y0385D03*
X03425D03*
Y0395D03*
X03325Y0405D03*
X03425Y0555D03*
X03325D03*
X03425Y0565D03*
X03325D03*
X03425Y0535D03*
Y0575D03*
Y0305D03*
X03325Y0335D03*
Y0355D03*
X03425Y0335D03*
X03325Y0485D03*
X03425Y0585D03*
X03325Y0575D03*
X03425Y0495D03*
Y0505D03*
Y0365D03*
Y0475D03*
X03325D03*
Y0325D03*
Y0305D03*
Y0275D03*
Y0255D03*
X03425Y0405D03*
Y0265D03*
X03325D03*
X03425Y0255D03*
X01625Y058D03*
Y059D03*
X03425Y0355D03*
Y0285D03*
X00625Y0535D03*
X03325Y0345D03*
X00625Y0495D03*
X00725Y0355D03*
X03325Y0435D03*
X03425D03*
X00625Y0545D03*
X00725Y0475D03*
X00625D03*
X03325Y0545D03*
Y0535D03*
X00625Y0345D03*
X03325Y0495D03*
X0115Y0255D03*
X01325Y02975D03*
G54D146*
X0012Y03518D03*
Y02532D03*
Y01232D03*
Y02218D03*
X0393Y05968D03*
Y04982D03*
G54D147*
X0012Y03488D03*
Y03563D03*
Y03518D03*
Y03503D03*
Y03473D03*
Y03548D03*
Y03533D03*
Y02502D03*
Y02577D03*
Y02532D03*
Y02517D03*
Y02487D03*
Y02562D03*
Y02547D03*
Y01247D03*
Y01262D03*
Y01187D03*
Y01217D03*
Y01232D03*
Y01277D03*
Y01202D03*
Y02233D03*
Y02248D03*
Y02173D03*
Y02203D03*
Y02218D03*
Y02263D03*
Y02188D03*
X0393Y05953D03*
Y05938D03*
Y06013D03*
Y05983D03*
Y05968D03*
Y05923D03*
Y05998D03*
Y04967D03*
Y04952D03*
Y05027D03*
Y04997D03*
Y04982D03*
Y04937D03*
Y05012D03*
X0025Y04073D03*
X0017D03*
Y03975D03*
X0025D03*
G54D148*
X04Y00275D03*
Y00675D03*
G54D149*
X00395Y00725D03*
X03525D03*
G54D150*
X02025Y0434D03*
Y0371D03*
X01073Y06201D03*
G54D151*
X00175Y02916D03*
X00065Y02862D03*
Y03189D03*
X00175Y02807D03*
Y03134D03*
Y03025D03*
X00065Y0308D03*
Y02971D03*
X00175Y01616D03*
X00065Y01562D03*
Y01889D03*
X00175Y01507D03*
Y01834D03*
Y01725D03*
X00065Y0178D03*
Y01671D03*
X03985Y05529D03*
X03875Y05366D03*
Y05584D03*
X03985Y05311D03*
X03875Y05475D03*
X03985Y0542D03*
Y05638D03*
X03875Y05693D03*
G54D152*
X00175Y03243D03*
Y01943D03*
X03875Y05257D03*
G54D153*
X00075Y053D03*
X01925Y03075D03*
X02125D03*
X03725Y00475D03*
Y00575D03*
Y00375D03*
X00075Y0465D03*
Y05925D03*
G54D154*
X-00048Y05423D03*
Y05177D03*
X00198D03*
Y04773D03*
Y04527D03*
X-00048D03*
Y05802D03*
X00198D03*
Y06048D03*
X029Y001D03*
X0115Y009D03*
G54D155*
X00198Y05423D03*
X-00048Y04773D03*
Y06048D03*
X03918Y01437D03*
Y01456D03*
X04134D03*
Y01436D03*
X04225Y01515D03*
Y01535D03*
X03918Y01446D03*
X04225Y01525D03*
X04134Y01446D03*
G54D156*
X03525Y00725D03*
X00398Y02144D03*
G54D157*
X00398Y00726D03*
G54D158*
X0285Y03175D03*
X0105Y05775D03*
X03Y048D03*
X01475Y058D03*
X02975Y03175D03*
X01425Y0245D03*
X02325Y05D03*
X0195Y02425D03*
G54D159*
X-0005Y00445D03*
Y00405D03*
Y00465D03*
Y00385D03*
X00092Y00228D03*
X00052D03*
X00112D03*
X00032D03*
X00194Y00445D03*
Y00405D03*
Y00465D03*
Y00385D03*
G54D160*
X-0005Y00425D03*
X00194D03*
G54D161*
X00072Y00228D03*
G54D162*
X0Y0635D03*
X0405D03*
Y0D03*
X0D03*
G54D163*
X0005Y0085D03*
X00148Y00752D03*
X-00048D03*
Y00948D03*
X00148D03*
X-00147Y0085D03*
G54D164*
X00065Y04266D03*
Y03786D03*
G54D165*
X02697Y00178D03*
G54D166*
X02803Y00072D03*
G54D167*
X00777Y062D03*
G54D168*
X03725Y03275D03*
Y03675D03*
G54D169*
X03905Y01925D03*
Y02222D03*
G54D170*
X0205Y00984D03*
Y00016D03*
X0235Y00984D03*
X0225Y00016D03*
X0235D03*
X0215Y00984D03*
Y00016D03*
X0225Y00984D03*
G54D171*
X0185Y00717D03*
X0175D03*
M02*