M48
INCH,LZ
;TYPE=PLATED
T1F00S00C0.008
T2F00S00C0.030
T3F00S00C0.038
T4F00S00C0.040
T5F00S00C0.047
T6F00S00C0.050
T7F00S00C0.051
T8F00S00C0.053
T9F00S00C0.055
T10F00S00C0.095
T11F00S00C0.100
;TYPE=NON_PLATED
T12F00S00C0.028
T13F00S00C0.038
T14F00S00C0.039
T15F00S00C0.043
T16F00S00C0.059
T17F00S00C0.087
T18F00S00C0.126
T19F00S00C0.138
%
T01
X035Y0084
Y01
X037Y00925
X0385
Y0085
Y00775
Y01
X038Y01075
X04Y011
Y0095
Y009
X0415Y011
X03025Y01
X027Y00875
X0265Y008
X02575Y0095
X025
X02425
X02315Y00902
X0235Y0065
X02425
X025
X02575
X0258Y00455
X0244Y0028
X0236Y0031
X02125Y00375
X02025
X01925
X01952Y00647
X01898Y00663
X02072Y00647
X02175Y007
X02275Y0065
X0218Y0106
X0195Y00975
X01975Y00038
X02297
X034
X0286Y006
X02803Y00673
X0185Y00775
X017Y0085
Y00925
Y01
X01597Y0105
X01525Y01025
Y01075
X01775Y01125
X0185Y011
X0175Y00625
X016Y0077
X0155Y00775
X01525Y0075
X0146Y00575
X0155Y004
X01575
X01825Y00375
X0145Y00038
X00745
X00575Y0035
X00475
X00825Y0065
Y00725
Y008
Y00875
X00873Y01065
X00975Y0111
X0111Y00775
X0105Y00675
X00925Y00688
X00775Y01225
X00545Y01275
X00975Y01325
X01125Y01225
X01271Y01183
X01375Y01325
Y01375
X0135Y0155
X015Y01525
X0155Y0165
Y01725
X01515Y0185
X0135Y018
X01174Y01875
X01175Y019
X01075Y02
X00825Y0205
X00749Y01995
X0075Y01975
X00663Y02253
X00965Y02475
X00978Y02488
X0125Y02695
X0154Y0267
X016Y0235
X0156Y02125
X01585Y02085
X0168Y0193
X01775Y019
X0175Y0185
X0185
X018Y0173
X0178Y0169
X018Y0167
Y01625
X01825Y01605
X0185Y01575
Y014
X017
Y01325
X01645Y0118
X01726Y01749
X01725Y01775
X0175Y02175
X0185Y02125
X01325Y02275
X011Y017
X0105
X01
X01075Y016
X01895Y01575
X01935Y0157
X01915Y0155
X01962Y01542
X019Y014
X02025Y0135
X0205Y01175
X02125
X0215Y012
X02275
X02425Y01175
X025
X02575
X027Y0115
X02775Y012
X0276Y0142
X027Y015
X02869Y0168
X029Y019
X0295Y0195
X02975Y01875
X0295Y0185
X03075Y0182
Y016
X0306Y01405
Y012
X033Y0183
X0343Y0209
X034Y02275
X0325Y02425
X0315Y02475
X032Y0265
X0318Y027
X03068Y02632
X03Y0231
X02895Y0233
X02833Y02298
X03Y021
X02625Y02125
Y0195
X0255
X02475
X0265Y0187
X02737Y01898
X02175Y01935
X0215Y01985
X02025Y01935
X01925Y01985
X01935Y01855
X01955Y01835
X01895Y01857
X0195Y02275
X01915Y02575
X02175Y02475
X023Y025
X02225Y02125
X0235Y01625
X01975Y01175
X019Y01168
X035Y012
X03725Y01175
X038Y0115
Y01875
X03825Y0185
X03575
X03627Y02113
X03625Y022
X03625Y02325
X03615Y02525
X0375Y0245
Y02625
X039Y02525
X0376Y02725
Y02825
Y02925
X0375Y03025
X0376Y03125
Y032
X0373Y0331
X03725Y0335
Y034
Y0345
Y0355
Y036
X039
Y0355
Y035
Y0345
Y0335
Y033
Y0325
Y0365
Y037
X03665Y0409
X0361Y0424
X03615Y03125
Y02925
Y02825
X0314Y0275
X0316Y02725
X03025Y02825
X02845Y0284
X02725Y02825
X02675Y02725
X0265
X02625Y0306
X0245Y0305
Y03125
Y032
Y0341
X02525Y03425
X02613Y03487
X02638Y03487
X02675Y0355
X02725
X02723Y03648
Y03848
X028Y0387
X0278Y03995
Y0402
Y04045
Y0407
X0285Y0405
X02855Y04025
X0296Y0398
X02975Y041
X02925Y0411
X027Y04175
X0271Y0421
X027Y0425
X02665Y0419
X02543Y04232
X02554Y04251
X02515Y04212
Y04173
X02513Y04137
X0251Y03976
X02513Y03947
X026Y04
X02625Y039
X02565Y03779
X0251Y0372
X02512Y03683
X0245Y03638
X0241Y03625
X0255Y036
X02688Y03378
X02775Y03454
X03025Y03462
Y0354
X02975
X031Y0345
X03185Y03585
X032Y0375
X03217Y03808
X03185Y0329
X03215Y03235
X03125Y03
X0245Y02975
X02075Y029
X02Y0289
X02015Y0285
X02025Y028
X01975
X0195
Y02775
Y0275
X01925
Y02725
X019
X02055Y0276
X01977Y03178
X02015Y0336
X01995Y0352
X0196Y0353
X02245Y03665
X0231Y03955
X02292Y04153
X02173Y04243
X01956Y04179
X02089Y03956
X02225Y03275
X023
X01825Y02985
X0182Y02962
X01825Y02935
X0185Y02915
X01825Y02875
Y0285
X01875Y0287
X0175Y02775
X0156Y0282
X0154Y028
X0152Y0284
X015Y0288
X01349Y02776
X01205Y03
X01175Y03165
X01125
X01075
X00975Y03225
Y0334
X012
X01275Y035
X01293
X01275Y03575
X0125
X01225
X01275Y036
X012Y037
X0115Y03725
X01025
X00975Y03775
X0085Y0374
X0083Y03675
X0081Y0365
X0085Y03625
Y0386
X00925Y0391
X00935Y0393
X00775Y04
X0082Y0405
X00815Y04125
X00775Y041
X00962Y04222
X011Y04205
X01205Y04175
X01225Y0412
X0125Y03925
X014Y03825
X0142Y0384
X0144Y0386
X0153Y03922
X01532Y03968
X01549Y04074
X01533Y04122
X01532Y04165
X01725Y04175
X0175Y04225
X01725Y04
X0165Y04035
X01664Y03825
X0165Y0374
X01665Y0372
X01705Y0374
X01725Y03875
X01735Y03895
X01759Y03545
X01722Y03527
X0167Y0353
Y03505
X0166Y0355
X0161Y03378
X014Y03275
X0142Y032
X0136Y03165
X01615Y0306
X0154Y0367
Y037
X0135Y0375
X00925Y03075
X0094Y03025
X004Y0395
Y0415
X00278Y0439
X0035Y0445
Y05075
X0056Y051
X0096Y0504
X0115Y051
Y0515
X01225Y0525
X01348Y05245
X01348Y05205
X01345Y05163
X01387Y05163
X01425Y05164
X0143Y05199
X0147Y05198
X01465Y05165
X01464Y05125
X01425
X01386
X01345Y0508
X01303Y0505
X01385Y0504
Y05008
X01425Y05007
Y0504
X01465
X01461Y0501
X015Y05011
Y0504
X0154Y0501
Y04971
X01446Y04946
X01327Y04957
X014Y0485
X0135Y04775
X01326Y04749
X0112Y04705
X0114Y0466
Y04849
X0115Y0495
X01105Y0536
X0096Y0534
Y0564
X00925Y05675
X009Y0565
X0087Y05625
X012Y0545
X01365
X01525Y054
X01475Y0535
X01445Y05292
X01525Y053
X01545Y05245
X01502Y05244
Y05205
X01539Y052
X01504Y05125
X01595Y05105
X0165Y05145
Y05175
X01725Y05125
X0179Y05028
X018Y0485
X01863Y04862
X01875Y04825
X0185
X01725Y048
X017Y04775
Y04725
X01725Y0469
X01765Y04665
X017Y0451
X01666Y04509
X0168Y0433
X017Y0431
X01725Y04325
X01735Y0435
X01755Y0437
X0175Y04275
X0185Y0435
X01875
X01415Y0445
X0143Y04495
X0135Y04475
X0126Y04473
X01238Y04462
X01199Y04431
X01215Y0436
X01154Y04369
X01128Y04368
X01025Y04275
X0095Y04325
X009Y0435
X00875Y043
X0085Y0465
Y04675
X01575Y0477
X0165Y04775
X017Y04825
X01725Y04875
X0175Y05265
X01855Y05255
X01875Y05275
X01835Y05235
X01815Y05215
X01602Y05508
X0175Y0575
X01825
X0035Y05725
X01975Y0575
X0205
X022
X02275
X0235
X02425
X025
X02575
X02725Y0576
X028
X02785Y0555
X0275Y05575
X02775Y054
Y05375
X028Y0527
X02925Y0525
X02975Y05225
X02625Y0525
X02575
Y0515
X026
X02588Y05063
X02563Y05063
X02475Y05075
Y05175
X02413Y05138
X02388Y05352
X024Y0544
X023Y0545
X02275Y0545
X02288Y05487
X02288Y05512
X02287Y05537
X02287Y05562
X0232Y05555
X02375Y0555
X0229Y0541
X02265Y0541
X02205Y0536
X02102Y05352
X02047Y0536
X02025Y053
X01976Y05301
X01945Y0532
X0195Y0535
X01928Y0545
X02009Y05425
X02162Y05462
X0215Y055
X02075Y05275
X0203Y05154
X02005Y0515
X0197Y05125
X01945Y0515
X0194Y05095
X02Y05065
X02015Y05025
X02054
X0207Y04989
X0209Y05005
X02065Y0495
X0199Y0494
X0195Y0492
X0197Y049
X01935Y0488
X0196Y04825
X02101Y04751
X0219Y04625
X02173Y0452
X0213
X0197Y04515
X01929Y04516
X019Y0435
X0231Y044
X0235
X0237Y0438
X024Y04325
X02505Y0435
X02507Y04377
X02574Y04291
X02565Y0427
X0265Y04475
X028
X0284Y0434
X0305Y04272
X03093Y04273
X0297Y0451
X02925Y0465
X02825Y048
X02675
Y04925
Y0495
X02537Y04963
X02505Y04955
X02525Y04925
X0256Y0482
X02639Y04657
X02675Y0465
X0239Y0465
X0233Y04675
X02057Y05125
X0265Y053
X0265Y0545
X0307Y0568
X03185Y04915
X03275Y048
X0325Y0475
X03735Y0462
Y044
X03675Y0496
X035Y0522
X036Y056
Y05725
X0265Y059
X022
X0208Y0593
Y0596
X02Y0592
X019Y059
X02235Y06025
X01805Y06045
X01735Y06065
X01525Y06145
X0152Y0632
X01295Y0604
X01115Y0584
X00425Y062
T02
X00032Y00228
X00052
X00072
X00092
X00112
X00194Y00385
Y00405
X00194Y00425
X00194Y00445
Y00465
X-0005
Y00445
Y00425
Y00405
Y00385
X02371Y022
X02471
X02571
X02671
X02771
X02871
X02971
X03071
X0025Y03975
X0017
Y04073
X0025
T03
X00065Y01562
Y01671
Y0178
Y01889
X00175Y01943
Y01834
Y01725
Y01616
Y01507
Y02807
Y02916
Y03025
Y03134
Y03243
X00065Y03189
Y0308
Y02971
Y02862
X03875Y05257
Y05366
Y05475
Y05584
Y05693
X03985Y05638
Y05529
Y0542
Y05311
T04
X0325Y00475
X03375
X03347Y00789
Y00889
X03247
Y00989
Y01089
X03347
Y00989
X03247Y00789
X009Y004
X00775
X00275Y-00025
X00625Y0245
X00725
Y0255
X00625
Y0265
X00725
X0105Y0255
X0115
X0125
Y0245
X0115
X0105
X01425
Y0255
Y0265
X016Y0255
Y0245
X01775
Y0255
X0195Y02525
Y02425
Y02625
X02125
X023
X02325Y0245
X02125
X02525
X027
Y0255
X0285
Y0245
X03
Y0255
X03325
X03425
Y0265
X03325
Y0245
X03425
X03347Y02189
X03247
Y02089
X03347
Y01989
Y01889
Y01789
Y01689
Y01589
Y01489
Y01389
Y01289
Y01189
X03247
Y01289
Y01389
Y01489
Y01589
Y01689
Y01789
Y01889
Y01989
X0285Y015
X0255
X02525Y02625
X0405Y0265
X0415
Y0125
X0405
X039
X038
X0405Y0275
Y0285
Y0295
Y0305
Y0315
Y0325
Y0335
Y0345
Y0355
X0415
Y0345
Y0335
Y0325
Y0315
Y0305
Y0295
Y0285
Y0275
Y04
Y041
X0405
Y042
X0415
X0405Y04
X03425Y0405
X03325
Y0415
Y0425
X03425
Y0415
Y0395
Y0385
X03325
Y0375
X03425
Y0365
Y0355
X03325
Y0345
Y0335
Y0325
Y0315
Y0305
X03425
Y0295
Y0285
Y0275
X03325
Y0285
Y0295
X03425Y0315
Y0325
Y0335
Y0345
X03325Y0365
Y0395
X02975Y03375
Y03275
Y03175
X0285
Y03275
Y03375
X02275Y03225
X0225Y02825
X0215
X02375
X01425Y02975
X01325
X0105Y02825
X00725Y0285
Y0295
X00625
Y0285
Y0275
X00725
Y0305
Y0315
Y0325
Y0335
Y0345
X00625
Y0335
Y0325
Y0315
Y0305
Y0355
X00725
Y0365
Y0375
Y0385
X00625
Y0395
X00725
Y0405
Y0415
X00625
Y0425
X00725
X00625Y0405
Y0375
Y0365
Y0435
Y0445
X00725
Y0455
X00625
Y0465
Y0475
X00725
Y0485
Y0495
X00625
Y0505
Y0515
Y0525
Y0535
Y0545
X00725
Y0535
Y0525
Y0515
Y0505
X00625Y0485
X00725Y0465
Y0435
Y0555
Y0565
Y0575
X00625
Y0565
Y0555
X0115Y056
X0125
Y05775
X0115
X0105
X01475Y058
X01625
X02325Y052
Y051
Y05
X03
Y049
Y048
X03325Y0475
X03425
Y0465
X03325
Y0455
X03425
Y0445
Y0435
X03325
Y0445
Y0485
Y0495
X03425
Y0505
Y0515
X03325
Y0505
Y0525
Y0535
Y0545
Y0555
Y0565
Y0575
X03425
Y0565
Y0555
Y0545
Y0535
Y0525
Y0485
X02975Y058
X037Y05325
Y05225
X0405Y046
X0415
Y045
Y044
Y043
X0405
Y044
Y045
X03425Y0585
X03325
Y05975
X03225Y062
Y063
X03125
X03025
X02925
X02825
X02725
X02625
X02525
X02425
X02325
X02225
X02125
X02025
X01925
Y062
X02025
X02125
X02225
X02325
X02425
X02525
X02625
X02725
X02825
X02925
X03025
X03125
X02975Y059
X01625
X01475
Y06
X01625Y062
Y063
X01725
X01825
Y062
X01725
X00625Y05975
Y0585
X00725
T05
X03918Y01437
Y01446
Y01456
X04134
Y01436
X04225Y01515
Y01525
Y01535
T06
X03725Y00375
Y00475
Y00575
X0012Y01187
Y01202
Y01217
Y01232
Y01247
Y01262
Y01277
Y02173
Y02188
Y02203
Y02218
Y02233
Y02248
Y02263
Y02487
Y02502
Y02517
Y02532
Y02547
Y02562
Y02577
Y03473
Y03488
Y03503
Y03518
Y03533
Y03548
Y03563
X00075Y0465
Y053
X0393Y05027
Y05012
Y04997
Y04982
Y04967
Y04952
Y04937
Y05923
Y05938
Y05953
Y05968
Y05983
Y05998
Y06013
X00075Y05925
T07
X-00048Y04527
X-00048Y04773
X00198Y04773
Y04527
Y05177
X-00048
Y05423
X00198Y05423
X00198Y05802
X-00048
X-00048Y06048
X00198Y06048
T08
X01925Y03075
X02125
T09
X-00048Y00752
X-00147Y0085
X-00048Y00948
X00148
Y00752
X0005Y0085
X04134Y01446
T10
X00065Y03786
Y04266
T11
X04Y00275
Y00675
T12
X02697Y00178
X03905Y01925
Y02222
T13
X03725Y03275
Y03675
T14
X02803Y00072
T15
X00777Y062
T16
X02025Y0371
Y0434
X01073Y06201
T17
X029Y001
X0115Y009
T18
X03525Y00725
X00398Y00726
X00395Y00725
X00398Y02144
T19
X0405Y0
X0
X0405Y0635
X0
M30
