%FSTAX23Y23*%
%MOIN*%
%SFA1B1*%

%IPPOS*%
%ADD11C,0.010000*%
%ADD58C,0.005000*%
%ADD61C,0.012000*%
%ADD89C,0.038000*%
%ADD101R,0.121000X0.041000*%
%ADD102R,0.024000X0.024000*%
%ADD103R,0.038000X0.038000*%
%ADD104R,0.028000X0.047000*%
%ADD105R,0.036000X0.016000*%
%ADD106R,0.017000X0.048000*%
%ADD107R,0.146000X0.071000*%
%ADD108R,0.146000X0.063000*%
%ADD109R,0.130000X0.055000*%
%ADD110R,0.130000X0.067000*%
%ADD111R,0.071000X0.017000*%
%ADD112R,0.017000X0.071000*%
%ADD113R,0.017000X0.071000*%
%ADD114R,0.118000X0.037000*%
%ADD115R,0.108000X0.058000*%
%ADD116R,0.059000X0.083000*%
%ADD117R,0.068000X0.058000*%
%ADD118R,0.043000X0.024000*%
%ADD119R,0.058000X0.048000*%
%ADD120R,0.058000X0.108000*%
%ADD121R,0.118000X0.047000*%
%ADD122R,0.118000X0.064000*%
%ADD123R,0.323000X0.410000*%
%ADD124R,0.019000X0.054000*%
%ADD125R,0.019000X0.054000*%
%ADD126R,0.044000X0.058000*%
%ADD127R,0.044000X0.044000*%
%ADD128R,0.068000X0.048000*%
%ADD129R,0.020000X0.053000*%
%ADD130R,0.088000X0.055000*%
%ADD131R,0.036000X0.045000*%
%ADD132R,0.039000X0.095000*%
%ADD133R,0.016000X0.036000*%
%ADD134R,0.106000X0.106000*%
%ADD135R,0.032000X0.084000*%
%ADD136R,0.077000X0.099000*%
%ADD137R,0.083000X0.033000*%
%ADD138C,0.020000*%
%ADD139R,0.087000X0.028000*%
%ADD140O,0.244000X0.106000*%
%ADD141R,0.168000X0.108000*%
%ADD142R,0.063000X0.085000*%
%ADD143R,0.071000X0.039000*%
%ADD144R,0.071000X0.041000*%
%ADD145C,0.068000*%
%ADD146O,0.088000X0.178000*%
%ADD147C,0.058000*%
%ADD148C,0.126000*%
%ADD149C,0.134000*%
%ADD150C,0.067000*%
%ADD151O,0.088000X0.078000*%
%ADD152R,0.088000X0.078000*%
%ADD153C,0.088000*%
%ADD154C,0.087000*%
%ADD155C,0.087000*%
%ADD156C,0.134000*%
%ADD157C,0.134000*%
%ADD158R,0.068000X0.068000*%
%ADD159C,0.053000*%
%ADD160O,0.088000X0.188000*%
%ADD161O,0.188000X0.088000*%
%ADD162C,0.146000*%
%ADD163C,0.079000*%
%ADD164C,0.128000*%
%ADD165C,0.036000*%
%ADD166C,0.047000*%
%ADD167C,0.051000*%
%ADD168C,0.046000*%
%ADD169C,0.036000*%
%LNmb672d-1*%
%LPD*%
G54D11*
X02505Y03613D02*
X02437Y03545D01*
X02411Y03571*
X02479Y03639*
X02505Y03613*
X02494D02*
X02437Y03556D01*
X02423Y03571*
X02479Y03627*
X02494Y03613*
X02482D02*
X02437Y03568D01*
X02434Y03571*
X02479Y03616*
X02482Y03613*
X02475Y03608D02*
X02441Y03576D01*
X01613Y03545D02*
X01545Y03613D01*
X01571Y03639*
X01639Y03571*
X01613Y03545*
Y03556D02*
X01556Y03613D01*
X01571Y03627*
X01627Y03571*
X01613Y03556*
Y03568D02*
X01568Y03613D01*
X01571Y03616*
X01616Y03571*
X01613Y03568*
X01608Y03575D02*
X01576Y03609D01*
X02479Y04411D02*
X02411Y04479D01*
X02437Y04505*
X02505Y04437*
X02479Y04411*
Y04423D02*
X02423Y04479D01*
X02437Y04494*
X02494Y04437*
X02479Y04423*
Y04434D02*
X02434Y04479D01*
X02437Y04482*
X02482Y04437*
X02479Y04434*
X02474Y04441D02*
X02442Y04475D01*
X01639Y04479D02*
X01571Y04411D01*
X01545Y04437*
X01613Y04505*
X01639Y04479*
X01627D02*
X01571Y04423D01*
X01556Y04437*
X01613Y04494*
X01627Y04479*
X01616D02*
X01571Y04434D01*
X01568Y04437*
X01613Y04482*
X01616Y04479*
X01609Y04474D02*
X01575Y04442D01*
G54D58*
X04275Y02361D02*
D01*
X0426Y02279*
X04252Y02197*
X04249Y02115*
X04251Y02033*
X0426Y01951*
X04275Y0187*
Y02361D02*
Y06575D01*
Y-00225D02*
Y0187D01*
X-00225Y-00225D02*
X04275D01*
X-00225Y06575D02*
X04275D01*
X-00225Y-00225D02*
Y06575D01*
G54D61*
X02653Y00003D02*
X02628Y00028D01*
X02674Y00075*
X027Y00049*
X02653Y00003*
Y00017D02*
X02642Y00028D01*
X02674Y00061*
X02686Y00049*
X02653Y00017*
X02655Y00029D02*
X02673Y00048D01*
X02826Y00175D02*
X028Y00201D01*
X02847Y00247*
X02872Y00222*
X02826Y00175*
Y00189D02*
X02814Y00201D01*
X02847Y00233*
X02858Y00222*
X02826Y00189*
X02827Y00202D02*
X02845Y00221D01*
X02865Y00136D02*
X02839Y00162D01*
X02886Y00208*
X02911Y00183*
X02865Y00136*
Y0015D02*
X02853Y00162D01*
X02886Y00194*
X02897Y00183*
X02865Y0015*
X02866Y00163D02*
X02884Y00182D01*
X02787Y00214D02*
X02761Y0024D01*
X02808Y00286*
X02833Y00261*
X02787Y00214*
Y00228D02*
X02775Y0024D01*
X02808Y00272*
X02819Y00261*
X02787Y00228*
X02788Y00241D02*
X02806Y0026D01*
X02692Y-00036D02*
X02667Y-00011D01*
X02713Y00036*
X02739Y0001*
X02692Y-00036*
Y-00022D02*
X02681Y-00011D01*
X02713Y00022*
X02725Y0001*
X02692Y-00022*
X02694Y-0001D02*
X02712Y00009D01*
X02614Y00042D02*
X02589Y00067D01*
X02635Y00114*
X02661Y00088*
X02614Y00042*
Y00056D02*
X02603Y00067D01*
X02635Y001*
X02647Y00088*
X02614Y00056*
X02616Y00068D02*
X02634Y00087D01*
G54D89*
X0117Y04825D03*
X017Y05375D03*
X02215Y0488D03*
X03485Y06D03*
X0036Y001D03*
X0155Y0355D03*
X025Y04525D03*
G54D101*
X01075Y021D03*
X01325D03*
G54D102*
X03088Y008D03*
Y0085D03*
X03112D03*
Y008D03*
X0035Y04638D03*
Y05263D03*
X01425Y03362D03*
Y03338D03*
X01725Y03238D03*
Y03262D03*
X0035Y05287D03*
Y04662D03*
Y05937D03*
Y05913D03*
G54D103*
X027Y02053D03*
X02723Y036D03*
Y037D03*
X01352Y03275D03*
Y032D03*
X0035Y04497D03*
Y04552D03*
X03797Y0245D03*
X03852D03*
X03473Y02205D03*
X03527D03*
X03473Y0226D03*
X03527D03*
X03473Y01975D03*
X03527D03*
X03473Y02035D03*
X03527D03*
X03473Y0209D03*
X03527D03*
X015Y03322D03*
Y03378D03*
X0035Y05202D03*
Y05148D03*
Y05852D03*
Y05798D03*
X01575Y03322D03*
X02125Y01072D03*
X0205D03*
X01975D03*
X019D03*
X02225Y03378D03*
Y03322D03*
X02875Y05852D03*
Y05798D03*
X01725Y03322D03*
Y03378D03*
X02072Y009D03*
X02128D03*
X02777Y037D03*
X03953Y0085D03*
X03898D03*
X02777Y036D03*
X01247Y03675D03*
X01303D03*
X0235Y01072D03*
Y01128D03*
X02275Y01072D03*
Y01128D03*
X02425Y01072D03*
Y01128D03*
X025Y01072D03*
Y01128D03*
X02575Y01072D03*
Y01128D03*
X01247Y0425D03*
X01303D03*
X02747Y0095D03*
X02803D03*
X01247Y04325D03*
X01303D03*
X031Y02602D03*
Y02547D03*
X01298Y03125D03*
X03025Y04052D03*
Y03997D03*
X01597Y0125D03*
X01653D03*
Y0205D03*
X01597D03*
X01298Y03275D03*
X0255Y03727D03*
Y03672D03*
Y04122D03*
Y04177D03*
X0165Y03322D03*
Y03378D03*
X02072Y03325D03*
X02128D03*
X01852Y027D03*
X01798D03*
X02072Y03225D03*
X02128D03*
X019Y01128D03*
X02125D03*
X02425Y00902D03*
Y00848D03*
X02747Y00875D03*
X02803D03*
X01952Y007D03*
X01898D03*
X00425Y04327D03*
Y04273D03*
X03072Y011D03*
X03128D03*
X01747Y054D03*
X01803D03*
X01622Y027D03*
X01678D03*
X03797Y03025D03*
X03852D03*
X03648Y02525D03*
X03703D03*
X03025Y01997D03*
Y02053D03*
X03797Y03125D03*
X03852D03*
X03075Y04548D03*
Y04602D03*
X02925Y04548D03*
Y04602D03*
X0245Y03378D03*
Y03322D03*
X01303Y0545D03*
X01247D03*
X02003Y03475D03*
X01947D03*
X0255Y03922D03*
Y03977D03*
X023Y03378D03*
Y03322D03*
X01977Y03225D03*
X01923D03*
X025Y05798D03*
Y05852D03*
X02125D03*
Y05798D03*
X02575Y05852D03*
Y05798D03*
X02375Y03322D03*
Y03378D03*
X015Y03703D03*
Y03648D03*
Y04122D03*
Y04177D03*
X01648Y0455D03*
X01702D03*
X01923D03*
X01977D03*
X02122D03*
X02178D03*
X02418Y03125D03*
X02362D03*
X015Y03922D03*
Y03977D03*
X02Y02023D03*
Y02078D03*
X02725Y05798D03*
Y05852D03*
X019D03*
Y05798D03*
X0215Y02023D03*
Y02078D03*
X02072Y02225D03*
X02128D03*
X02775Y02053D03*
Y01997D03*
X02875Y02053D03*
Y01997D03*
X02003Y02225D03*
X01947D03*
X02425Y05798D03*
Y05852D03*
X0235Y05798D03*
Y05852D03*
X028D03*
Y05798D03*
X02725Y03378D03*
X01825Y05852D03*
X01975D03*
X02725Y03322D03*
X00928Y00725D03*
X00873D03*
X01303Y0375D03*
X01952Y009D03*
X0205Y05852D03*
X03172Y0535D03*
Y0545D03*
X00925Y03178D03*
Y03122D03*
X03527Y0215D03*
X03473D03*
X02025Y00423D03*
X01925D03*
X01825D03*
X01975Y05798D03*
X01825D03*
X02225Y02023D03*
Y02078D03*
X0185D03*
Y02023D03*
X00873Y0095D03*
X00928D03*
X00873Y011D03*
X00928D03*
X00873Y00875D03*
X00928D03*
Y01025D03*
X00873D03*
X03227Y0545D03*
Y0535D03*
X01247Y0375D03*
X01653Y014D03*
X01597D03*
Y0085D03*
X01653D03*
X00873Y014D03*
X00928D03*
X00873Y008D03*
X00928D03*
X02122Y019D03*
X02178D03*
X01975Y01447D03*
Y01503D03*
X01653Y0165D03*
X01597D03*
X01653Y02125D03*
X03648Y056D03*
X03703D03*
X03648Y05725D03*
X03703D03*
X02725Y03148D03*
Y03203D03*
X01597Y01325D03*
Y00925D03*
X0215Y01447D03*
Y01503D03*
X01653Y01325D03*
X03648Y03025D03*
Y02625D03*
X01653Y00925D03*
X01898Y006D03*
X01952D03*
X00625Y02253D03*
Y02197D03*
X03703Y02825D03*
X03648D03*
X0105Y03977D03*
Y03922D03*
X0255Y01997D03*
Y02053D03*
X02625D03*
Y01997D03*
X0295D03*
Y02053D03*
X03703Y02625D03*
X03852Y02825D03*
X03797D03*
X02128Y007D03*
X02072D03*
X0235Y05503D03*
Y05448D03*
X03797Y02925D03*
X03852D03*
X02128Y008D03*
X02072D03*
X02275Y00752D03*
Y00697D03*
X02128Y006D03*
X02072D03*
X017Y05222D03*
Y05278D03*
X03703Y03125D03*
X03648D03*
Y02925D03*
X03703D03*
X03852Y02725D03*
X03797D03*
X03648D03*
X03703D03*
X03Y04602D03*
Y04548D03*
X02575Y00848D03*
Y00902D03*
X025Y00848D03*
Y00902D03*
X02275Y00848D03*
Y00902D03*
X0235D03*
Y00848D03*
X03953Y00925D03*
X03898D03*
X00875Y02047D03*
Y02102D03*
X004Y03688D03*
Y03743D03*
X00278Y04425D03*
X00222D03*
X02575Y00697D03*
Y00752D03*
X025Y00697D03*
Y00752D03*
X02425Y00697D03*
Y00752D03*
X0235Y00702D03*
Y00757D03*
X012Y03372D03*
Y03428D03*
Y03922D03*
Y03977D03*
X0105Y03372D03*
Y03428D03*
X01125Y03372D03*
Y03428D03*
Y03922D03*
Y03977D03*
X00975Y03922D03*
Y03977D03*
X00925Y03753D03*
Y03697D03*
X00325Y01003D03*
Y00947D03*
X02925Y03997D03*
Y04052D03*
X03852Y02525D03*
X03797D03*
X02747Y00725D03*
X02803D03*
Y008D03*
X02747D03*
X0205Y05798D03*
X02475Y02053D03*
Y01997D03*
X004Y03845D03*
Y039D03*
X03703Y03025D03*
X03797Y02625D03*
X03852D03*
X0035Y04273D03*
Y04327D03*
X01653Y008D03*
X01597D03*
X02125Y00423D03*
X03953Y0115D03*
X03898D03*
X00222Y0435D03*
X00278D03*
X01653Y01725D03*
X01597D03*
X0215Y01653D03*
Y01597D03*
X01898Y009D03*
X00575Y00452D03*
Y00398D03*
X02525Y03378D03*
Y03322D03*
X024Y04602D03*
Y04548D03*
X02275Y05852D03*
Y05798D03*
X02362Y032D03*
X02418D03*
X0265Y05798D03*
Y05852D03*
X022Y05798D03*
Y05852D03*
X01852Y02775D03*
X01798D03*
X03898Y00775D03*
X03953D03*
X014Y048D03*
X01455D03*
X0265Y00697D03*
Y00752D03*
X01898Y008D03*
X01952D03*
X01925Y02078D03*
Y02023D03*
X02075Y02078D03*
Y02023D03*
X027Y01997D03*
X0255Y04347D03*
Y04403D03*
X03072Y01D03*
X03128D03*
X01303Y04175D03*
X01247D03*
X01975Y01128D03*
X0205D03*
X02723Y038D03*
X02777D03*
X00928Y0065D03*
X00873D03*
X00975Y03428D03*
Y03372D03*
X02362Y02975D03*
X02418D03*
X01602Y0545D03*
X01548D03*
X01872Y054D03*
X01928D03*
X0255Y04548D03*
Y04602D03*
X027D03*
Y04548D03*
X0175Y05798D03*
Y05852D03*
X019Y01447D03*
Y01503D03*
X01822Y019D03*
X01878D03*
X02625Y04548D03*
Y04602D03*
X0285Y04548D03*
Y04602D03*
X02027Y019D03*
X01972D03*
X00925Y04222D03*
Y04278D03*
X01653Y01D03*
X01597D03*
X01452Y0545D03*
X01398D03*
X0115Y05052D03*
Y04997D03*
Y05253D03*
Y05198D03*
X02047Y054D03*
X02102D03*
X02053Y04825D03*
X01997D03*
X0235Y05298D03*
Y05352D03*
X017Y05097D03*
Y05153D03*
X01523Y048D03*
X01577D03*
X01575Y03378D03*
X00875Y02253D03*
Y02197D03*
X01597Y02125D03*
X02125Y00477D03*
X02025D03*
X01925D03*
X01825D03*
X01597Y022D03*
X01653D03*
X0035Y01872D03*
Y01928D03*
Y03172D03*
Y03227D03*
X01298Y032D03*
X00475Y00398D03*
Y00452D03*
X02775Y04602D03*
Y04548D03*
X02362Y0305D03*
X02418D03*
X03953Y01075D03*
X03898D03*
Y01D03*
X03953D03*
X01352Y03125D03*
X031Y02477D03*
Y02422D03*
G54D104*
X02975Y03875D03*
X03025D03*
X02925Y03575D03*
X03025D03*
X02925Y03875D03*
X02875D03*
X02975Y03575D03*
X02875D03*
G54D105*
X01831Y01749D03*
Y01769D03*
Y0173D03*
Y0171D03*
Y0169D03*
Y0167D03*
Y01651D03*
Y01631D03*
X02019D03*
Y01651D03*
Y0167D03*
Y0169D03*
Y0171D03*
Y0173D03*
Y01749D03*
Y01769D03*
G54D106*
X02765Y04725D03*
X02745D03*
X0245D03*
X0247D03*
X02489D03*
X02509D03*
X02529D03*
X02548D03*
X02568D03*
X02588D03*
X02607D03*
X02627D03*
X02647D03*
X02667D03*
X02686D03*
X02706D03*
X02726D03*
X02785D03*
X02804D03*
X02824D03*
X02844D03*
X02863D03*
X02883D03*
X02903D03*
X0245Y05512D03*
X0247D03*
X02489D03*
X02509D03*
X02529D03*
X02548D03*
X02568D03*
X02588D03*
X02607D03*
X02627D03*
X02647D03*
X02667D03*
X02686D03*
X02706D03*
X02726D03*
X02745D03*
X02765D03*
X02785D03*
X02804D03*
X02824D03*
X02844D03*
X02863D03*
X02883D03*
X02903D03*
G54D107*
X03761Y01791D03*
G54D108*
X04194Y01787D03*
G54D109*
X03742Y02382D03*
G54D110*
X04194Y02376D03*
G54D111*
X01596Y04369D03*
Y03681D03*
Y037D03*
Y0372D03*
Y0374D03*
Y03759D03*
Y03779D03*
Y03799D03*
Y03818D03*
Y03838D03*
Y03858D03*
Y03877D03*
Y03897D03*
Y03917D03*
Y03936D03*
Y03956D03*
Y03976D03*
Y03995D03*
Y04015D03*
Y04035D03*
Y04055D03*
Y04074D03*
Y04094D03*
Y04114D03*
Y04133D03*
Y04153D03*
Y04173D03*
Y04192D03*
Y04212D03*
Y04232D03*
Y04251D03*
Y04271D03*
Y04291D03*
Y0431D03*
Y0433D03*
Y0435D03*
X02454Y04369D03*
Y0435D03*
Y0433D03*
Y0431D03*
Y04291D03*
Y04271D03*
Y04251D03*
Y04232D03*
Y04212D03*
Y04192D03*
Y04173D03*
Y04153D03*
Y04133D03*
Y04114D03*
Y04094D03*
Y04074D03*
Y04055D03*
Y04035D03*
Y04015D03*
Y03995D03*
Y03976D03*
Y03956D03*
Y03936D03*
Y03917D03*
Y03897D03*
Y03877D03*
Y03858D03*
Y03838D03*
Y03818D03*
Y03799D03*
Y03779D03*
Y03759D03*
Y0374D03*
Y0372D03*
Y037D03*
Y03681D03*
G54D112*
X01681Y04454D03*
G54D113*
X017Y04454D03*
X0172D03*
X0174D03*
X01759D03*
X01779D03*
X01799D03*
X01818D03*
X01838D03*
X01858D03*
X01877D03*
X01897D03*
X01917D03*
X01936D03*
X01956D03*
X01976D03*
X01995D03*
X02015D03*
X02035D03*
X02055D03*
X02074D03*
X02094D03*
X02114D03*
X02133D03*
X02153D03*
X02173D03*
X02192D03*
X02212D03*
X02232D03*
X02251D03*
X02271D03*
X02291D03*
X0231D03*
X0233D03*
X0235D03*
X02369D03*
Y03596D03*
X0235D03*
X0233D03*
X0231D03*
X02291D03*
X02271D03*
X02251D03*
X02232D03*
X02212D03*
X02192D03*
X02173D03*
X02153D03*
X02133D03*
X02114D03*
X02094D03*
X02074D03*
X02055D03*
X02035D03*
X02015D03*
X01995D03*
X01976D03*
X01956D03*
X01936D03*
X01917D03*
X01897D03*
X01877D03*
X01858D03*
X01838D03*
X01818D03*
X01799D03*
X01779D03*
X01759D03*
X0174D03*
X0172D03*
X017D03*
X01681D03*
G54D114*
X03805Y034D03*
Y037D03*
X03645D03*
X03805Y0365D03*
X03645D03*
X03805Y036D03*
X03645D03*
X03805Y0355D03*
X03645D03*
X03805Y035D03*
X03645D03*
X03805Y033D03*
Y0325D03*
X03645D03*
X03805Y0335D03*
Y0345D03*
X03645Y033D03*
Y0335D03*
Y034D03*
Y0345D03*
G54D115*
X0255Y03235D03*
Y03115D03*
X023Y01535D03*
Y01415D03*
Y01835D03*
Y01715D03*
X009Y0131D03*
Y0119D03*
X0135Y01735D03*
Y01615D03*
X03725Y0074D03*
Y0086D03*
Y0099D03*
Y0111D03*
G54D116*
X01537Y03188D03*
Y02972D03*
X01663D03*
Y03188D03*
G54D117*
X0175Y01995D03*
Y02105D03*
G54D118*
X00959Y02972D03*
Y02878D03*
Y02941D03*
X00891Y02972D03*
Y02878D03*
Y02941D03*
Y02909D03*
X00959D03*
G54D119*
X0205Y01435D03*
Y01515D03*
X0215Y01815D03*
Y01735D03*
G54D120*
X01565Y0185D03*
X01685D03*
X0196Y01325D03*
X0184D03*
X01685Y01525D03*
X01565D03*
X0159Y01125D03*
X0171D03*
G54D121*
X01174Y017D03*
Y016D03*
G54D122*
X01174Y018D03*
G54D123*
X00725Y017D03*
G54D124*
X004Y03994D03*
X0042D03*
X0038Y04056D03*
X004D03*
X0042D03*
G54D125*
X0038Y03994D03*
G54D126*
X00749Y02035D03*
Y02185D03*
G54D127*
X00712Y02115D03*
X00788D03*
X00712Y02265D03*
X00788D03*
G54D128*
X03223Y00213D03*
X03577D03*
Y00038D03*
X03223D03*
X01873Y00213D03*
X02227D03*
Y00038D03*
X01873D03*
X01627D03*
X01273D03*
Y00213D03*
X01627D03*
X00523D03*
X00877D03*
Y00038D03*
X00523D03*
G54D129*
X01Y03525D03*
X01026D03*
X01051D03*
X01077D03*
X01102D03*
X01128D03*
X01154D03*
X01179D03*
X01Y03777D03*
X01026D03*
X01051D03*
X01077D03*
X01102D03*
X01154D03*
X01179D03*
X01128D03*
X01Y04075D03*
X01026D03*
X01051D03*
X01077D03*
X01102D03*
X01128D03*
X01154D03*
X01179D03*
X01Y04327D03*
X01026D03*
X01051D03*
X01077D03*
X01102D03*
X01179D03*
X01154D03*
X01128D03*
G54D130*
X00705Y01225D03*
X00545D03*
G54D131*
X00565Y01D03*
Y0095D03*
G54D132*
X007Y00975D03*
G54D133*
X01994Y01794D03*
X01974D03*
X01955D03*
X01935D03*
X01915D03*
X01895D03*
X01876D03*
X01856D03*
Y01606D03*
X01876D03*
X01895D03*
X01915D03*
X01935D03*
X01955D03*
X01974D03*
X01994D03*
G54D134*
X01925Y017D03*
G54D135*
X01125Y03225D03*
X01175D03*
Y03D03*
X01075Y03225D03*
X01125Y03D03*
X01025Y03225D03*
X01075Y03D03*
X01025D03*
X02875Y04175D03*
X02975D03*
X02875Y044D03*
X02925D03*
X03025Y04175D03*
Y044D03*
X02925Y04175D03*
X02975Y044D03*
G54D136*
X0045Y009D03*
Y0105D03*
G54D137*
X0105Y01275D03*
X0145Y00925D03*
X0105Y01225D03*
Y01125D03*
Y01175D03*
Y01325D03*
Y01375D03*
Y00875D03*
X0145Y01325D03*
X0105Y00975D03*
Y00925D03*
Y00775D03*
X0145Y01125D03*
Y00975D03*
Y01175D03*
Y00725D03*
Y00775D03*
Y01225D03*
Y00875D03*
Y01025D03*
Y00825D03*
Y01075D03*
Y01275D03*
X0105Y01075D03*
Y01025D03*
Y00825D03*
Y00725D03*
X0145Y01375D03*
G54D138*
X01956Y05169D03*
X02103Y05199D03*
Y05169D03*
Y0514D03*
Y0511D03*
Y05081D03*
Y05051D03*
X02074Y05199D03*
Y05169D03*
Y0514D03*
Y0511D03*
Y05081D03*
Y05051D03*
X02044Y05199D03*
Y05169D03*
Y0514D03*
Y0511D03*
Y05081D03*
Y05051D03*
X02015Y05199D03*
Y05169D03*
Y0514D03*
Y0511D03*
Y05081D03*
Y05051D03*
X01985Y05199D03*
Y05169D03*
Y0514D03*
Y0511D03*
Y05081D03*
Y05051D03*
X01956Y05199D03*
Y0514D03*
Y0511D03*
Y05081D03*
Y05051D03*
X01926Y05199D03*
Y05169D03*
Y0514D03*
Y0511D03*
Y05081D03*
Y05051D03*
X01897Y05199D03*
Y05169D03*
Y0514D03*
Y0511D03*
Y05081D03*
Y05051D03*
X01563Y04987D03*
X01523D03*
X01484D03*
X01445D03*
X01405D03*
X01366D03*
X01327D03*
X01287D03*
X01563Y05027D03*
X01523D03*
X01484D03*
X01445D03*
X01405D03*
X01366D03*
X01327D03*
X01287Y05263D03*
X01327D03*
X01366D03*
X01405D03*
X01445D03*
X01484D03*
X01523D03*
X01563D03*
X01287Y05223D03*
X01327D03*
X01366D03*
X01405D03*
X01445D03*
X01484D03*
X01523D03*
X01563D03*
X01287Y05184D03*
X01327D03*
X01366D03*
X01405D03*
X01445D03*
X01484D03*
X01523D03*
X01563D03*
X01287Y05145D03*
X01327D03*
X01366D03*
X01405D03*
X01445D03*
X01484D03*
X01523D03*
X01563D03*
X01287Y05105D03*
X01327D03*
X01366D03*
X01405D03*
X01445D03*
X01484D03*
X01523D03*
X01563D03*
X01287Y05066D03*
X01327D03*
X01366D03*
X01405D03*
X01445D03*
X01484D03*
X01523D03*
X01563D03*
X01287Y05027D03*
G54D139*
X04075Y01049D03*
Y01012D03*
Y00825D03*
Y00937D03*
Y00975D03*
Y00862D03*
Y01087D03*
Y009D03*
G54D140*
X01264Y062D03*
X00586D03*
G54D141*
X0295Y03725D03*
G54D142*
X04078Y02367D03*
G54D143*
X03677Y02113D03*
Y0207D03*
Y022D03*
Y02286D03*
Y01983D03*
Y02026D03*
Y02243D03*
Y02156D03*
G54D144*
X03677Y02331D03*
G54D145*
X02771Y022D03*
X02671D03*
X02871D03*
X02371D03*
X02471D03*
X02571D03*
X02971D03*
X03071D03*
X039Y0125D03*
X038D03*
X03347Y00789D03*
X03247D03*
X03Y0245D03*
Y0255D03*
X00625Y0245D03*
X0415Y04D03*
X0405Y043D03*
Y04D03*
X0415Y041D03*
X0405Y044D03*
Y045D03*
X0415Y043D03*
Y044D03*
Y045D03*
X0405Y042D03*
Y046D03*
X0415Y042D03*
X0405Y041D03*
X0415Y046D03*
X03247Y01989D03*
Y01889D03*
Y01789D03*
Y01689D03*
Y01589D03*
Y01489D03*
Y01389D03*
Y01289D03*
Y01189D03*
X03347Y01989D03*
Y01889D03*
Y01789D03*
Y01689D03*
Y01589D03*
Y01489D03*
Y01389D03*
Y01289D03*
Y01189D03*
X03247Y02089D03*
X03347Y02189D03*
Y02089D03*
X03247Y02189D03*
X03347Y00989D03*
X03247Y00889D03*
X03347D03*
Y01089D03*
X03247Y00989D03*
Y01089D03*
X01425Y02975D03*
X03225Y062D03*
X03125D03*
X03025D03*
X02925D03*
X02825D03*
X02725D03*
X02625D03*
X02525Y063D03*
Y062D03*
X02425Y063D03*
Y062D03*
X02325Y063D03*
Y062D03*
X02225D03*
X02125D03*
X02025Y063D03*
Y062D03*
X01925Y063D03*
Y062D03*
X01825D03*
X01725D03*
X02225Y063D03*
X03025D03*
X02725D03*
X03125D03*
X03225D03*
X01725D03*
X02125D03*
X01625D03*
Y062D03*
X02825Y063D03*
X02625D03*
X02925D03*
X01825D03*
X00725Y0305D03*
X00625D03*
Y0315D03*
X00725D03*
Y0265D03*
X00625Y0255D03*
Y0265D03*
X00725Y0255D03*
X00625Y0325D03*
X00725Y0275D03*
X00625D03*
X00725Y0285D03*
X00625D03*
X00725Y0295D03*
Y0425D03*
Y0435D03*
X00625Y0365D03*
X00725D03*
X00625Y0415D03*
X00725Y0405D03*
X00625Y0355D03*
Y0435D03*
Y0405D03*
X00725Y0415D03*
Y0465D03*
X00625Y0425D03*
Y0335D03*
X00725D03*
Y0325D03*
Y0375D03*
X00625D03*
Y0445D03*
X00725Y0485D03*
X00625D03*
X00725Y0385D03*
X00625Y0465D03*
X00725Y0455D03*
Y0395D03*
X00625Y0385D03*
Y0455D03*
X00725Y0505D03*
X00625D03*
X00725Y0515D03*
X00625D03*
X00725Y0555D03*
X00625D03*
X00725Y0495D03*
X00625Y0565D03*
Y0525D03*
X00725Y0535D03*
X00625Y0575D03*
X00725D03*
Y0585D03*
Y0525D03*
Y0565D03*
X02525Y0245D03*
X02125Y02625D03*
X0285Y015D03*
X0255D03*
X016Y0245D03*
Y0255D03*
X0405Y0265D03*
X0415Y0275D03*
X0405D03*
X0415Y0285D03*
X0405D03*
X0415Y0295D03*
X0405D03*
X0415Y0305D03*
X0405D03*
X0415Y0315D03*
X0405D03*
X0415Y0325D03*
X0405D03*
X0415Y0335D03*
X0405D03*
X0415Y0345D03*
X0405D03*
X0415Y0355D03*
X0405D03*
X0415Y0265D03*
X0325Y00475D03*
X00625Y05975D03*
X03325D03*
X0415Y0125D03*
X0405D03*
X02275Y03225D03*
X0285Y03375D03*
Y03275D03*
X00625Y0395D03*
X00725Y0545D03*
Y0445D03*
X00625Y0585D03*
X00725Y0345D03*
X00625Y0295D03*
X00725Y0245D03*
X0125Y05775D03*
X0115D03*
X01775Y0255D03*
Y0245D03*
X02125D03*
X03375Y00475D03*
X02325Y0245D03*
X02525Y02625D03*
X0215Y02825D03*
X0225D03*
X0285Y0255D03*
X00775Y004D03*
X03Y05D03*
Y049D03*
X023Y02625D03*
X0285Y0245D03*
X0105D03*
X0115D03*
X0105Y0255D03*
X0125Y0245D03*
Y0255D03*
X037Y05325D03*
Y05225D03*
X027Y0255D03*
Y0245D03*
X00275Y-00025D03*
X02375Y02825D03*
X02975Y059D03*
Y058D03*
X01475Y06D03*
Y059D03*
X0125Y056D03*
X0115D03*
X0105Y02825D03*
X02975Y03375D03*
Y03275D03*
X01425Y0265D03*
Y0255D03*
X02325Y052D03*
Y051D03*
X0195Y02625D03*
Y02525D03*
X009Y004D03*
X03425Y0445D03*
X03325Y0585D03*
Y0245D03*
X03425D03*
X03325Y0365D03*
Y0395D03*
X03425Y0545D03*
Y0345D03*
X03325Y0295D03*
X03425Y0315D03*
Y0325D03*
X03325Y0415D03*
X03425D03*
X03325Y0425D03*
X03425D03*
X03325Y0315D03*
X03425Y0485D03*
Y0525D03*
X03325D03*
Y0445D03*
X03425Y0455D03*
X03325D03*
Y0465D03*
X03425D03*
X03325Y0505D03*
X03425Y0515D03*
X03325D03*
Y0285D03*
X03425Y0295D03*
Y0275D03*
X03325Y0375D03*
X03425D03*
X03325Y0385D03*
X03425D03*
Y0395D03*
X03325Y0405D03*
X03425Y0555D03*
X03325D03*
X03425Y0565D03*
X03325D03*
X03425Y0535D03*
Y0575D03*
Y0305D03*
X03325Y0335D03*
Y0355D03*
X03425Y0335D03*
X03325Y0485D03*
X03425Y0585D03*
X03325Y0575D03*
X03425Y0495D03*
Y0505D03*
Y0365D03*
Y0475D03*
X03325D03*
Y0325D03*
Y0305D03*
Y0275D03*
Y0255D03*
X03425Y0405D03*
Y0265D03*
X03325D03*
X03425Y0255D03*
X01625Y058D03*
Y059D03*
X03425Y0355D03*
Y0285D03*
X00625Y0535D03*
X03325Y0345D03*
X00625Y0495D03*
X00725Y0355D03*
X03325Y0435D03*
X03425D03*
X00625Y0545D03*
X00725Y0475D03*
X00625D03*
X03325Y0545D03*
Y0535D03*
X00625Y0345D03*
X03325Y0495D03*
X0115Y0255D03*
X01325Y02975D03*
G54D146*
X0012Y03518D03*
Y02532D03*
Y01232D03*
Y02218D03*
X0393Y05968D03*
Y04982D03*
G54D147*
X0012Y03488D03*
Y03563D03*
Y03518D03*
Y03503D03*
Y03473D03*
Y03548D03*
Y03533D03*
Y02502D03*
Y02577D03*
Y02532D03*
Y02517D03*
Y02487D03*
Y02562D03*
Y02547D03*
Y01247D03*
Y01262D03*
Y01187D03*
Y01217D03*
Y01232D03*
Y01277D03*
Y01202D03*
Y02233D03*
Y02248D03*
Y02173D03*
Y02203D03*
Y02218D03*
Y02263D03*
Y02188D03*
X0393Y05953D03*
Y05938D03*
Y06013D03*
Y05983D03*
Y05968D03*
Y05923D03*
Y05998D03*
Y04967D03*
Y04952D03*
Y05027D03*
Y04997D03*
Y04982D03*
Y04937D03*
Y05012D03*
X0025Y04073D03*
X0017D03*
Y03975D03*
X0025D03*
G54D148*
X04Y00275D03*
Y00675D03*
G54D149*
X00395Y00725D03*
X03525D03*
G54D150*
X02025Y0434D03*
Y0371D03*
X01073Y06201D03*
G54D151*
X00175Y02916D03*
X00065Y02862D03*
Y03189D03*
X00175Y02807D03*
Y03134D03*
Y03025D03*
X00065Y0308D03*
Y02971D03*
X00175Y01616D03*
X00065Y01562D03*
Y01889D03*
X00175Y01507D03*
Y01834D03*
Y01725D03*
X00065Y0178D03*
Y01671D03*
X03985Y05529D03*
X03875Y05366D03*
Y05584D03*
X03985Y05311D03*
X03875Y05475D03*
X03985Y0542D03*
Y05638D03*
X03875Y05693D03*
G54D152*
X00175Y03243D03*
Y01943D03*
X03875Y05257D03*
G54D153*
X00075Y053D03*
X01925Y03075D03*
X02125D03*
X03725Y00475D03*
Y00575D03*
Y00375D03*
X00075Y0465D03*
Y05925D03*
G54D154*
X-00048Y05423D03*
Y05177D03*
X00198D03*
Y04773D03*
Y04527D03*
X-00048D03*
Y05802D03*
X00198D03*
Y06048D03*
X029Y001D03*
X0115Y009D03*
G54D155*
X00198Y05423D03*
X-00048Y04773D03*
Y06048D03*
X03918Y01437D03*
Y01456D03*
X04134D03*
Y01436D03*
X04225Y01515D03*
Y01535D03*
X03918Y01446D03*
X04225Y01525D03*
X04134Y01446D03*
G54D156*
X03525Y00725D03*
X00398Y02144D03*
G54D157*
X00398Y00726D03*
G54D158*
X0285Y03175D03*
X0105Y05775D03*
X03Y048D03*
X01475Y058D03*
X02975Y03175D03*
X01425Y0245D03*
X02325Y05D03*
X0195Y02425D03*
G54D159*
X-0005Y00445D03*
Y00405D03*
Y00465D03*
Y00385D03*
X00092Y00228D03*
X00052D03*
X00112D03*
X00032D03*
X00194Y00445D03*
Y00405D03*
Y00465D03*
Y00385D03*
G54D160*
X-0005Y00425D03*
X00194D03*
G54D161*
X00072Y00228D03*
G54D162*
X0Y0635D03*
X0405D03*
Y0D03*
X0D03*
G54D163*
X0005Y0085D03*
X00148Y00752D03*
X-00048D03*
Y00948D03*
X00148D03*
X-00147Y0085D03*
G54D164*
X00065Y04266D03*
Y03786D03*
G54D165*
X02697Y00178D03*
G54D166*
X02803Y00072D03*
G54D167*
X00777Y062D03*
G54D168*
X03725Y03275D03*
Y03675D03*
G54D169*
X03905Y01925D03*
Y02222D03*
M02*