%FSTAX23Y23*%
%MOIN*%
%SFA1B1*%

%IPPOS*%
%ADD10C,0.010000*%
%ADD11C,0.007000*%
%ADD12C,0.012000*%
%ADD13C,0.005000*%
%ADD14C,0.008000*%
%ADD15C,0.060000*%
%ADD16C,0.126000*%
%ADD17C,0.016000*%
%ADD18R,0.060000X0.050000*%
%ADD19R,0.050000X0.060000*%
%ADD20R,0.050000X0.030000*%
%ADD21R,0.079000X0.105000*%
%ADD22R,0.035000X0.016000*%
%ADD23R,0.016000X0.035000*%
%ADD24R,0.031000X0.012000*%
%ADD25R,0.030000X0.030000*%
%ADD26R,0.059000X0.079000*%
%ADD27R,0.059000X0.079000*%
%ADD28R,0.039000X0.016000*%
%ADD29R,0.020000X0.098000*%
%ADD30C,0.020000*%
%ADD31C,0.015000*%
%LNmb694-1*%
%LPD*%
G54D10*
X01739Y00212D02*
D01*
X0174Y00213*
X01741Y00214*
X01742Y00216*
X01743Y00218*
X01744Y0022*
X01745Y00221*
X01746Y00223*
X01746Y00225*
X01746Y00227*
X01747Y00229*
X01747Y00231*
X01747Y00233*
X01739Y00212D02*
D01*
X0174Y00213*
X01741Y00214*
X01742Y00216*
X01743Y00218*
X01744Y0022*
X01745Y00221*
X01746Y00223*
X01746Y00225*
X01746Y00227*
X01747Y00229*
X01747Y00231*
X01747Y00233*
X02229Y-00107D02*
D01*
X0223Y-00108*
X02231Y-00109*
X02233Y-0011*
X02235Y-00111*
X02237Y-00112*
X02238Y-00113*
X0224Y-00114*
X02242Y-00114*
X02244Y-00114*
X02246Y-00115*
X02248Y-00115*
X02249Y-00116*
X02229Y-00107D02*
D01*
X0223Y-00108*
X02231Y-00109*
X02233Y-0011*
X02235Y-00111*
X02237Y-00112*
X02238Y-00113*
X0224Y-00114*
X02242Y-00114*
X02244Y-00114*
X02246Y-00115*
X02248Y-00115*
X02249Y-00116*
X02994D02*
D01*
X02996Y-00115*
X02998Y-00115*
X03Y-00115*
X03001Y-00114*
X03003Y-00114*
X03005Y-00113*
X03007Y-00112*
X03009Y-00111*
X03011Y-0011*
X03012Y-00109*
X03014Y-00107*
X03014Y-00107*
X02994Y-00116D02*
D01*
X02996Y-00115*
X02998Y-00115*
X03Y-00115*
X03001Y-00114*
X03003Y-00114*
X03005Y-00113*
X03007Y-00112*
X03009Y-00111*
X03011Y-0011*
X03012Y-00109*
X03014Y-00107*
X03014Y-00107*
X03019Y00433D02*
D01*
X03017Y00434*
X03016Y00435*
X03014Y00436*
X03012Y00437*
X0301Y00438*
X03009Y00439*
X03007Y0044*
X03005Y0044*
X03003Y0044*
X03001Y00441*
X03Y00441*
X03094Y-00027D02*
D01*
X03095Y-00025*
X03096Y-00024*
X03097Y-00022*
X03098Y-0002*
X03099Y-00018*
X031Y-00017*
X03101Y-00015*
X03101Y-00013*
X03101Y-00011*
X03102Y-00009*
X03102Y-00007*
X03102Y-00007*
X03094Y-00027D02*
D01*
X03095Y-00025*
X03096Y-00024*
X03097Y-00022*
X03098Y-0002*
X03099Y-00018*
X031Y-00017*
X03101Y-00015*
X03101Y-00013*
X03101Y-00011*
X03102Y-00009*
X03102Y-00007*
X03102Y-00007*
Y00338D02*
D01*
X03101Y0034*
X03101Y00342*
X03101Y00344*
X031Y00345*
X031Y00347*
X03099Y00349*
X03098Y00351*
X03097Y00353*
X03096Y00355*
X03095Y00356*
X03094Y00358*
X03102Y00338D02*
D01*
X03101Y0034*
X03101Y00342*
X03101Y00344*
X031Y00345*
X031Y00347*
X03099Y00349*
X03098Y00351*
X03097Y00353*
X03096Y00355*
X03095Y00356*
X03094Y00358*
X03019Y00433D02*
D01*
X03017Y00434*
X03016Y00435*
X03014Y00436*
X03012Y00437*
X0301Y00438*
X03009Y00439*
X03007Y0044*
X03005Y0044*
X03003Y0044*
X03001Y00441*
X03Y00441*
X03001Y00444*
X03002Y00448*
X03003Y00452*
X03004Y00455*
X03004Y00459*
X03004Y00463*
X03003Y00466*
X03003Y0047*
X03002Y00474*
X03001Y00478*
X03Y00481*
X02999Y00485*
X02997Y00488*
X02995Y00492*
X02993Y00495*
X02991Y00498*
X02988Y00501*
X02985Y00503*
X02982Y00506*
X02979Y00508*
X02976Y0051*
X02973Y00512*
X02972Y00513*
X02975Y00514*
X02978Y00516*
X02981Y00518*
X02984Y00521*
X02987Y00523*
X0299Y00526*
X02992Y00529*
X02995Y00532*
X02996Y00536*
X02998Y00539*
X03Y00543*
X03001Y00546*
X03002Y0055*
X03003Y00554*
X03003Y00557*
X03004Y00561*
X03004Y00563*
X01902Y00324D02*
D01*
X01903Y00325*
X01905Y00326*
X01907Y00327*
X01909Y00329*
X01902Y00324D02*
D01*
X01903Y00325*
X01905Y00326*
X01907Y00327*
X01909Y00329*
X01994Y00493D02*
D01*
X01991Y00492*
X01989Y00492*
X01987Y00491*
X01985Y0049*
X01983Y00489*
X01981Y00488*
X0198Y00487*
X01978Y00485*
X01977Y00485*
X01994Y00493D02*
D01*
X01991Y00492*
X01989Y00492*
X01987Y00491*
X01985Y0049*
X01983Y00489*
X01981Y00488*
X0198Y00487*
X01978Y00485*
X01977Y00485*
X02679Y-00007D02*
D01*
X0268Y-00008*
X02681Y-00009*
X02683Y-0001*
X02685Y-00011*
X02687Y-00012*
X02688Y-00013*
X0269Y-00014*
X02692Y-00014*
X02694Y-00014*
X02696Y-00015*
X02698Y-00015*
X02699Y-00016*
X02679Y-00007D02*
D01*
X0268Y-00008*
X02681Y-00009*
X02683Y-0001*
X02685Y-00011*
X02687Y-00012*
X02688Y-00013*
X0269Y-00014*
X02692Y-00014*
X02694Y-00014*
X02696Y-00015*
X02698Y-00015*
X02699Y-00016*
X02899D02*
D01*
X02901Y-00015*
X02903Y-00015*
X02905Y-00015*
X02906Y-00014*
X02908Y-00014*
X0291Y-00013*
X02912Y-00012*
X02914Y-00011*
X02916Y-0001*
X02917Y-00009*
X02919Y-00007*
X02919Y-00007*
X02899Y-00016D02*
D01*
X02901Y-00015*
X02903Y-00015*
X02905Y-00015*
X02906Y-00014*
X02908Y-00014*
X0291Y-00013*
X02912Y-00012*
X02914Y-00011*
X02916Y-0001*
X02917Y-00009*
X02919Y-00007*
X02919Y-00007*
X02936Y00009D02*
D01*
X02939Y00008*
X02943Y00007*
X02947Y00007*
X02951Y00007*
X02954Y00007*
X02958Y00008*
X02962Y00009*
X02966Y0001*
X02969Y00011*
X02973Y00013*
X02976Y00014*
X02979Y00016*
X02982Y00019*
X02985Y00021*
X02988Y00024*
X0299Y00027*
X02993Y0003*
X02995Y00033*
X02997Y00036*
X02998Y00039*
X03Y00043*
X03001Y00047*
X03002Y0005*
X03003Y00054*
X03003Y00058*
X03003Y00062*
X03004Y00063*
X03003Y00066*
X03003Y0007*
X03002Y00074*
X03001Y00078*
X03Y00081*
X02999Y00085*
X02997Y00088*
X02995Y00092*
X02993Y00095*
X02991Y00098*
X02988Y00101*
X02985Y00103*
X02982Y00106*
X02979Y00108*
X02976Y0011*
X02973Y00112*
X02972Y00113*
X02975Y00114*
X02978Y00116*
X02981Y00118*
X02984Y00121*
X02987Y00123*
X0299Y00126*
X02992Y00129*
X02995Y00132*
X02996Y00136*
X02998Y00139*
X03Y00143*
X03001Y00146*
X03002Y0015*
X03003Y00154*
X03003Y00157*
X03004Y00161*
X03004Y00163*
X03003Y00166*
X03003Y0017*
X03002Y00174*
X03001Y00178*
X03Y00181*
X02999Y00185*
X02997Y00188*
X02995Y00192*
X02993Y00195*
X02991Y00198*
X02988Y00201*
X02985Y00203*
X02982Y00206*
X02979Y00208*
X02976Y0021*
X02973Y00212*
X02972Y00213*
X-00059Y-00065D02*
D01*
X-00054Y-00068*
X-00049Y-00072*
X-00044Y-00075*
X-00038Y-00078*
X-00033Y-00081*
X-00027Y-00083*
X-00021Y-00085*
X-00015Y-00086*
X-00009Y-00087*
X-00003Y-00087*
X00002Y-00087*
X00008Y-00087*
X00014Y-00086*
X0002Y-00085*
X00026Y-00083*
X00032Y-00081*
X00038Y-00079*
X00043Y-00076*
X00048Y-00072*
X00053Y-00069*
X00058Y-00065*
X00062Y-00061*
X00067Y-00056*
X0007Y-00051*
X00074Y-00046*
X00077Y-00041*
X0008Y-00036*
X00082Y-0003*
X00084Y-00024*
X00085Y-00018*
X00086Y-00012*
X00087Y-00006*
X00087Y0*
X00088Y0*
X-00059Y-00065D02*
D01*
X-00054Y-00068*
X-00049Y-00072*
X-00044Y-00075*
X-00038Y-00078*
X-00033Y-00081*
X-00027Y-00083*
X-00021Y-00085*
X-00015Y-00086*
X-00009Y-00087*
X-00003Y-00087*
X00002Y-00087*
X00008Y-00087*
X00014Y-00086*
X0002Y-00085*
X00026Y-00083*
X00032Y-00081*
X00038Y-00079*
X00043Y-00076*
X00048Y-00072*
X00053Y-00069*
X00058Y-00065*
X00062Y-00061*
X00067Y-00056*
X0007Y-00051*
X00074Y-00046*
X00077Y-00041*
X0008Y-00036*
X00082Y-0003*
X00084Y-00024*
X00085Y-00018*
X00086Y-00012*
X00087Y-00006*
X00087Y0*
X00088Y0*
X00087Y00006*
X00087Y00012*
X00086Y00018*
X00084Y00024*
X00082Y0003*
X0008Y00035*
X00077Y00041*
X00074Y00046*
X00071Y00051*
X00067Y00056*
X00063Y00061*
X00058Y00065*
X00054Y00069*
X00049Y00072*
X00044Y00076*
X00038Y00079*
X00032Y00081*
X00027Y00083*
X00021Y00085*
X00015Y00086*
X00009Y00087*
X00003Y00087*
X-00003*
X-00009Y00087*
X-00015Y00086*
X-00021Y00085*
X-00027Y00083*
X-00032Y00081*
X-00038Y00079*
X-00044Y00076*
X-00049Y00072*
X-00054Y00069*
X-00058Y00065*
X-00059Y00065*
X00088Y0D02*
D01*
X00087Y00006*
X00087Y00012*
X00086Y00018*
X00084Y00024*
X00082Y0003*
X0008Y00035*
X00077Y00041*
X00074Y00046*
X00071Y00051*
X00067Y00056*
X00063Y00061*
X00058Y00065*
X00054Y00069*
X00049Y00072*
X00044Y00076*
X00038Y00079*
X00032Y00081*
X00027Y00083*
X00021Y00085*
X00015Y00086*
X00009Y00087*
X00003Y00087*
X-00003*
X-00009Y00087*
X-00015Y00086*
X-00021Y00085*
X-00027Y00083*
X-00032Y00081*
X-00038Y00079*
X-00044Y00076*
X-00049Y00072*
X-00054Y00069*
X-00058Y00065*
X-00059Y00065*
X0052Y-00037D02*
D01*
X0052Y-00039*
X0052Y-00041*
X0052Y-00043*
X00521Y-00044*
X00521Y-00046*
X00522Y-00048*
X00523Y-0005*
X00524Y-00052*
X00525Y-00054*
X00526Y-00055*
X00528Y-00057*
X00529Y-00058*
X00531Y-00059*
X00532Y-00061*
X00534Y-00062*
X00536Y-00063*
X00538Y-00063*
X0054Y-00064*
X00541Y-00065*
X00543Y-00065*
X00545Y-00065*
X00547Y-00065*
X00549Y-00066*
X0052Y-00037D02*
D01*
X0052Y-00039*
X0052Y-00041*
X0052Y-00043*
X00521Y-00044*
X00521Y-00046*
X00522Y-00048*
X00523Y-0005*
X00524Y-00052*
X00525Y-00054*
X00526Y-00055*
X00528Y-00057*
X00529Y-00058*
X00531Y-00059*
X00532Y-00061*
X00534Y-00062*
X00536Y-00063*
X00538Y-00063*
X0054Y-00064*
X00541Y-00065*
X00543Y-00065*
X00545Y-00065*
X00547Y-00065*
X00549Y-00066*
X00296Y00138D02*
D01*
X00296Y00129*
X00297Y0012*
X00298Y00111*
X003Y00102*
X00303Y00094*
X00306Y00086*
X0031Y00078*
X00315Y0007*
X0032Y00063*
X00325Y00056*
X00331Y00049*
X00338Y00043*
X00344Y00037*
X00351Y00032*
X00359Y00028*
X00367Y00023*
X00375Y0002*
X00383Y00017*
X00392Y00014*
X004Y00012*
X00409Y00011*
X00418Y00011*
X00427*
X00436Y00011*
X00445Y00012*
X00453Y00014*
X00462Y00017*
X0047Y0002*
X00478Y00023*
X00486Y00028*
X00494Y00032*
X00501Y00037*
X00507Y00043*
X00514Y00049*
X0052Y00054*
X00608Y00719D02*
D01*
X00608Y00716*
X00608Y00714*
X00608Y00711*
X00609Y00709*
X0061Y00707*
X00611Y00704*
X00612Y00702*
X00613Y007*
X00614Y00698*
X00616Y00696*
X00617Y00694*
X00618Y00694*
X00608Y00719D02*
D01*
X00608Y00716*
X00608Y00714*
X00608Y00711*
X00609Y00709*
X0061Y00707*
X00611Y00704*
X00612Y00702*
X00613Y007*
X00614Y00698*
X00616Y00696*
X00617Y00694*
X00618Y00694*
X00799Y-00066D02*
D01*
X00801Y-00065*
X00803Y-00065*
X00805Y-00065*
X00806Y-00064*
X00808Y-00064*
X0081Y-00063*
X00812Y-00062*
X00814Y-00061*
X00816Y-0006*
X00817Y-00059*
X00819Y-00057*
X0082Y-00056*
X00821Y-00054*
X00823Y-00053*
X00824Y-00051*
X00825Y-00049*
X00825Y-00047*
X00826Y-00045*
X00827Y-00044*
X00827Y-00042*
X00827Y-0004*
X00827Y-00038*
X00827Y-00037*
X00799Y-00066D02*
D01*
X00801Y-00065*
X00803Y-00065*
X00805Y-00065*
X00806Y-00064*
X00808Y-00064*
X0081Y-00063*
X00812Y-00062*
X00814Y-00061*
X00816Y-0006*
X00817Y-00059*
X00819Y-00057*
X0082Y-00056*
X00821Y-00054*
X00823Y-00053*
X00824Y-00051*
X00825Y-00049*
X00825Y-00047*
X00826Y-00045*
X00827Y-00044*
X00827Y-00042*
X00827Y-0004*
X00827Y-00038*
X00827Y-00037*
X01149Y00163D02*
D01*
X0115Y00161*
X01152Y00159*
X01154Y00158*
X01156Y00157*
X01159Y00155*
X01161Y00154*
X01163Y00154*
X01166Y00153*
X01168Y00153*
X0117Y00152*
X01173Y00152*
X01174Y00153*
X01149Y00163D02*
D01*
X0115Y00161*
X01152Y00159*
X01154Y00158*
X01156Y00157*
X01159Y00155*
X01161Y00154*
X01163Y00154*
X01166Y00153*
X01168Y00153*
X0117Y00152*
X01173Y00152*
X01174Y00153*
X00827Y00463D02*
D01*
X00826Y00465*
X00826Y00467*
X00826Y00469*
X00825Y0047*
X00825Y00472*
X00824Y00474*
X00823Y00476*
X00822Y00478*
X00821Y0048*
X0082Y00481*
X00818Y00483*
X00817Y00484*
X00815Y00485*
X00814Y00487*
X00812Y00488*
X0081Y00489*
X00808Y00489*
X00806Y0049*
X00805Y00491*
X00803Y00491*
X00801Y00491*
X00799Y00491*
X00827Y00463D02*
D01*
X00826Y00465*
X00826Y00467*
X00826Y00469*
X00825Y0047*
X00825Y00472*
X00824Y00474*
X00823Y00476*
X00822Y00478*
X00821Y0048*
X0082Y00481*
X00818Y00483*
X00817Y00484*
X00815Y00485*
X00814Y00487*
X00812Y00488*
X0081Y00489*
X00808Y00489*
X00806Y0049*
X00805Y00491*
X00803Y00491*
X00801Y00491*
X00799Y00491*
X-00059Y01353D02*
D01*
X-00054Y01349*
X-00049Y01345*
X-00044Y01342*
X-00038Y01339*
X-00033Y01336*
X-00027Y01334*
X-00021Y01332*
X-00015Y01331*
X-00009Y0133*
X-00003Y0133*
X00002Y0133*
X00008Y0133*
X00014Y01331*
X0002Y01332*
X00026Y01334*
X00032Y01336*
X00038Y01338*
X00043Y01341*
X00048Y01345*
X00053Y01348*
X00058Y01352*
X00062Y01356*
X00067Y01361*
X0007Y01366*
X00074Y01371*
X00077Y01376*
X0008Y01381*
X00082Y01387*
X00084Y01393*
X00085Y01399*
X00086Y01405*
X00087Y01411*
X00087Y01417*
X00088Y01418*
X00087Y01424*
X00087Y0143*
X00086Y01436*
X00084Y01442*
X00082Y01448*
X0008Y01453*
X00077Y01459*
X00074Y01464*
X00071Y01469*
X00067Y01474*
X00063Y01479*
X00058Y01483*
X00054Y01487*
X00049Y0149*
X00044Y01494*
X00038Y01497*
X00032Y01499*
X00027Y01501*
X00021Y01503*
X00015Y01504*
X00009Y01505*
X00003Y01505*
X-00003*
X-00009Y01505*
X-00015Y01504*
X-00021Y01503*
X-00027Y01501*
X-00032Y01499*
X-00038Y01497*
X-00044Y01494*
X-00049Y0149*
X-00054Y01487*
X-00058Y01483*
X-00059Y01483*
X00551Y01263D02*
D01*
X0055Y01271*
X00549Y0128*
X00548Y01289*
X00546Y01298*
X00543Y01306*
X0054Y01314*
X00536Y01322*
X00531Y0133*
X00526Y01337*
X00521Y01344*
X00515Y01351*
X00508Y01357*
X00502Y01363*
X00495Y01368*
X00487Y01372*
X00479Y01377*
X00471Y0138*
X00463Y01383*
X00454Y01386*
X00446Y01388*
X00437Y01389*
X00428Y01389*
X00419*
X0041Y01389*
X00401Y01388*
X00393Y01386*
X00384Y01383*
X00376Y0138*
X00368Y01377*
X0036Y01372*
X00352Y01368*
X00345Y01363*
X00339Y01357*
X00332Y01351*
X00326Y01344*
X00321Y01337*
X00316Y0133*
X00311Y01322*
X00307Y01314*
X00304Y01306*
X00301Y01298*
X00299Y01289*
X00298Y0128*
X00297Y01271*
X00296Y01263*
X00567Y01545D02*
D01*
X00565Y01542*
X00564Y0154*
X00563Y01538*
X00562Y01536*
X00562Y01533*
X00561Y01531*
X00561Y01529*
X00561Y01526*
X00561Y01526*
X00729Y01516D02*
D01*
X00728Y01518*
X00728Y0152*
X00728Y01523*
X00727Y01525*
X00726Y01527*
X00725Y0153*
X00724Y01532*
X00723Y01534*
X00722Y01536*
X0072Y01538*
X00719Y0154*
X00719Y01541*
X00729Y01516D02*
D01*
X00728Y01518*
X00728Y0152*
X00728Y01523*
X00727Y01525*
X00726Y01527*
X00725Y0153*
X00724Y01532*
X00723Y01534*
X00722Y01536*
X0072Y01538*
X00719Y0154*
X00719Y01541*
X00567Y01545D02*
D01*
X00565Y01542*
X00564Y0154*
X00563Y01538*
X00562Y01536*
X00562Y01533*
X00561Y01531*
X00561Y01529*
X00561Y01526*
X00561Y01526*
X0119Y01007D02*
D01*
X01191Y01005*
X01193Y01004*
X01195Y01002*
X01196Y01001*
X01198Y01*
X012Y00999*
X01202Y00999*
X01205Y00998*
X01207Y00998*
X01209Y00998*
X01211Y00997*
X01212Y00998*
X0119Y01007D02*
D01*
X01191Y01005*
X01193Y01004*
X01195Y01002*
X01196Y01001*
X01198Y01*
X012Y00999*
X01202Y00999*
X01205Y00998*
X01207Y00998*
X01209Y00998*
X01211Y00997*
X01212Y00998*
X00929Y01219D02*
D01*
X00927Y01217*
X00926Y01216*
X00925Y01214*
X00924Y01212*
X00923Y0121*
X00922Y01209*
X00921Y01207*
X00921Y01205*
X00921Y01203*
X0092Y01201*
X0092Y01199*
X0092Y01199*
X00929Y01219D02*
D01*
X00927Y01217*
X00926Y01216*
X00925Y01214*
X00924Y01212*
X00923Y0121*
X00922Y01209*
X00921Y01207*
X00921Y01205*
X00921Y01203*
X0092Y01201*
X0092Y01199*
X0092Y01199*
X01105Y01283D02*
D01*
X01102Y01282*
X011Y01282*
X01098Y01282*
X01097Y01281*
X01095Y01281*
X01093Y0128*
X01091Y01279*
X01089Y01278*
X01087Y01277*
X01086Y01276*
X01085Y01275*
X01105Y01283D02*
D01*
X01102Y01282*
X011Y01282*
X01098Y01282*
X01097Y01281*
X01095Y01281*
X01093Y0128*
X01091Y01279*
X01089Y01278*
X01087Y01277*
X01086Y01276*
X01085Y01275*
X01074Y01353D02*
D01*
X01071Y01352*
X01069Y01352*
X01067Y01352*
X01066Y01351*
X01064Y01351*
X01062Y0135*
X0106Y01349*
X01058Y01348*
X01056Y01347*
X01055Y01346*
X01054Y01345*
X01074Y01353D02*
D01*
X01071Y01352*
X01069Y01352*
X01067Y01352*
X01066Y01351*
X01064Y01351*
X01062Y0135*
X0106Y01349*
X01058Y01348*
X01056Y01347*
X01055Y01346*
X01054Y01345*
X01288Y01516D02*
D01*
X01285Y01515*
X01283Y01515*
X01281Y01515*
X0128Y01514*
X01278Y01514*
X01276Y01513*
X01274Y01512*
X01272Y01511*
X0127Y0151*
X01269Y01509*
X01268Y01508*
X01288Y01516D02*
D01*
X01285Y01515*
X01283Y01515*
X01281Y01515*
X0128Y01514*
X01278Y01514*
X01276Y01513*
X01274Y01512*
X01272Y01511*
X0127Y0151*
X01269Y01509*
X01268Y01508*
X01367Y0034D02*
D01*
X01368Y00341*
X01369Y00342*
X0137Y00344*
X01371Y00346*
X01372Y00348*
X01367Y0034D02*
D01*
X01368Y00341*
X01369Y00342*
X0137Y00344*
X01371Y00346*
X01372Y00348*
X01326Y0044D02*
D01*
X01324Y00438*
X01323Y00437*
X01322Y00435*
X01321Y00433*
X0132Y00431*
X01319Y0043*
X01318Y00428*
X01319Y00428*
X01326Y0044D02*
D01*
X01324Y00438*
X01323Y00437*
X01322Y00435*
X01321Y00433*
X0132Y00431*
X01319Y0043*
X01318Y00428*
X01319Y00428*
X01599Y00153D02*
D01*
X01601Y00153*
X01603Y00153*
X01606Y00153*
X01608Y00154*
X0161Y00155*
X01613Y00156*
X01615Y00157*
X01617Y00158*
X01619Y00159*
X01621Y00161*
X01623Y00162*
X01624Y00163*
X01599Y00153D02*
D01*
X01601Y00153*
X01603Y00153*
X01606Y00153*
X01608Y00154*
X0161Y00155*
X01613Y00156*
X01615Y00157*
X01617Y00158*
X01619Y00159*
X01621Y00161*
X01623Y00162*
X01624Y00163*
X01318Y00765D02*
D01*
X01318Y00762*
X01318Y0076*
X01318Y00758*
X01319Y00757*
X01319Y00755*
X0132Y00753*
X01321Y00751*
X01322Y00749*
X01323Y00747*
X01324Y00746*
X01326Y00745*
X01318Y00765D02*
D01*
X01318Y00762*
X01318Y0076*
X01318Y00758*
X01319Y00757*
X01319Y00755*
X0132Y00753*
X01321Y00751*
X01322Y00749*
X01323Y00747*
X01324Y00746*
X01326Y00745*
X01452Y00767D02*
D01*
X01453Y00765*
X01454Y00764*
X01456Y00762*
X01458Y00761*
X0146Y0076*
X01462Y00759*
X01463Y00759*
X01465Y00758*
X01467Y00757*
X0147Y00757*
X01472Y00757*
X01474Y00758*
X01619D02*
D01*
X01621Y00758*
X01623Y00758*
X01625Y00758*
X01627Y00759*
X01629Y00759*
X01631Y0076*
X01633Y00761*
X01634Y00762*
X01636Y00763*
X01638Y00765*
X01639Y00766*
X01641Y00768*
X01619Y00758D02*
D01*
X01621Y00758*
X01623Y00758*
X01625Y00758*
X01627Y00759*
X01629Y00759*
X01631Y0076*
X01633Y00761*
X01634Y00762*
X01636Y00763*
X01638Y00765*
X01639Y00766*
X01641Y00768*
X01707D02*
D01*
X01708Y00766*
X01709Y00765*
X01711Y00763*
X01713Y00762*
X01715Y00761*
X01717Y0076*
X01718Y0076*
X0172Y00759*
X01722Y00758*
X01725Y00758*
X01727Y00758*
X01729Y00758*
X01707Y00768D02*
D01*
X01708Y00766*
X01709Y00765*
X01711Y00763*
X01713Y00762*
X01715Y00761*
X01717Y0076*
X01718Y0076*
X0172Y00759*
X01722Y00758*
X01725Y00758*
X01727Y00758*
X01729Y00758*
X02728Y00237D02*
D01*
X02729Y00235*
X02731Y00234*
X02732Y00233*
X02734Y00232*
X02736Y00231*
X02738Y0023*
X0274Y00229*
X02742Y00229*
X02744Y00228*
X02746Y00228*
X02748Y00228*
X02749Y00228*
X02826Y00113D02*
D01*
X02822Y00111*
X02819Y00109*
X02816Y00107*
X02813Y00104*
X0281Y00102*
X02807Y00099*
X02805Y00096*
X02802Y00093*
X02802Y00091*
X02826Y00213D02*
D01*
X02822Y00211*
X02819Y00209*
X02816Y00207*
X02813Y00204*
X0281Y00202*
X02807Y00199*
X02805Y00196*
X02802Y00193*
X02801Y00189*
X02799Y00186*
X02797Y00182*
X02796Y00179*
X02795Y00175*
X02794Y00171*
X02794Y00168*
X02793Y00164*
X02794Y0016*
X02794Y00156*
X02794Y00152*
X02795Y00149*
X02796Y00145*
X02798Y00141*
X02799Y00138*
X02801Y00134*
X02803Y00131*
X02806Y00128*
X02808Y00125*
X02811Y00122*
X02814Y0012*
X02817Y00118*
X0282Y00115*
X02823Y00114*
X02826Y00113*
X02899Y00186D02*
D01*
X02897Y00189*
X02895Y00192*
X02893Y00195*
X0289Y00198*
X02888Y00201*
X02885Y00204*
X02882Y00206*
X02879Y00209*
X02875Y0021*
X02872Y00212*
X02872Y00213*
X02926D02*
D01*
X02922Y00211*
X02919Y00209*
X02916Y00207*
X02913Y00204*
X0291Y00202*
X02907Y00199*
X02905Y00196*
X02902Y00193*
X02901Y00189*
X02899Y00186*
X02899Y00186*
X02805Y0023D02*
D01*
X02807Y00227*
X0281Y00224*
X02812Y00221*
X02815Y00219*
X02818Y00216*
X02822Y00214*
X02825Y00213*
X02826Y00213*
X02872D02*
D01*
X02875Y00214*
X02878Y00216*
X02881Y00218*
X02884Y00221*
X02887Y00223*
X0289Y00226*
X02892Y00229*
X02895Y00232*
X02896Y00236*
X02898Y00239*
X02899Y0024*
X029Y00236*
X02902Y00233*
X02904Y0023*
X02907Y00227*
X02909Y00224*
X02912Y00221*
X02915Y00219*
X02918Y00216*
X02922Y00215*
X02925Y00213*
X02926Y00213*
X02728Y00237D02*
D01*
X02729Y00235*
X02731Y00234*
X02732Y00233*
X02734Y00232*
X02736Y00231*
X02738Y0023*
X0274Y00229*
X02742Y00229*
X02744Y00228*
X02746Y00228*
X02748Y00228*
X02749Y00228*
X02794D02*
D01*
X02796Y00228*
X02798Y00228*
X028Y00228*
X02802Y00229*
X02804Y00229*
X02805Y0023*
X02794Y00228D02*
D01*
X02796Y00228*
X02798Y00228*
X028Y00228*
X02802Y00229*
X02804Y00229*
X02805Y0023*
X03Y00243D02*
D01*
X03001Y00246*
X03002Y0025*
X03003Y00254*
X03003Y00257*
X03003Y00261*
X03004Y00263*
X03003Y00266*
X03003Y0027*
X03002Y00274*
X03001Y00278*
X03Y00281*
X02999Y00285*
X02997Y00288*
X02995Y00292*
X02993Y00295*
X02991Y00298*
X02988Y00301*
X02985Y00303*
X02982Y00306*
X02979Y00308*
X02976Y0031*
X02973Y00312*
X02972Y00313*
X02975Y00314*
X02978Y00316*
X02981Y00318*
X02984Y00321*
X02987Y00323*
X0299Y00326*
X02992Y00329*
X02995Y00332*
X02996Y00336*
X02998Y00339*
X03Y00343*
X03001Y00346*
X03002Y0035*
X03003Y00354*
X03003Y00357*
X03004Y00361*
X03004Y00363*
X02153Y00623D02*
D01*
X02151Y00624*
X0215Y00625*
X02148Y00626*
X02146Y00627*
X02144Y00628*
X02143Y00629*
X02141Y0063*
X02139Y0063*
X02137Y0063*
X02135Y00631*
X02133Y00631*
X02133Y00632*
X02154Y00623D02*
D01*
X02152Y00624*
X02151Y00625*
X02149Y00626*
X02147Y00627*
X02145Y00628*
X02144Y00629*
X02142Y0063*
X0214Y0063*
X02138Y0063*
X02136Y00631*
X02134Y00631*
X02133Y00632*
X01899Y00645D02*
D01*
X019Y00643*
X01902Y00642*
X01903Y00641*
X01905Y0064*
X01907Y00639*
X01909Y00638*
X01911Y00637*
X01913Y00637*
X01915Y00636*
X01917Y00636*
X01919Y00636*
X0192Y00636*
X01899Y00645D02*
D01*
X019Y00643*
X01902Y00642*
X01903Y00641*
X01905Y0064*
X01907Y00639*
X01909Y00638*
X01911Y00637*
X01913Y00637*
X01915Y00636*
X01917Y00636*
X01919Y00636*
X0192Y00636*
X01899Y00645D02*
D01*
X019Y00643*
X01902Y00642*
X01903Y00641*
X01905Y0064*
X01907Y00639*
X01909Y00638*
X01911Y00637*
X01913Y00637*
X01915Y00636*
X01917Y00636*
X01919Y00636*
X0192Y00636*
X01899Y00645D02*
D01*
X019Y00643*
X01902Y00642*
X01903Y00641*
X01905Y0064*
X01907Y00639*
X01909Y00638*
X01911Y00637*
X01913Y00637*
X01915Y00636*
X01917Y00636*
X01919Y00636*
X0192Y00636*
X01899Y00645D02*
D01*
X019Y00643*
X01902Y00642*
X01903Y00641*
X01905Y0064*
X01907Y00639*
X01909Y00638*
X01911Y00637*
X01913Y00637*
X01915Y00636*
X01917Y00636*
X01919Y00636*
X0192Y00636*
X01899Y00645D02*
D01*
X019Y00643*
X01902Y00642*
X01903Y00641*
X01905Y0064*
X01907Y00639*
X01909Y00638*
X01911Y00637*
X01913Y00637*
X01915Y00636*
X01917Y00636*
X01919Y00636*
X0192Y00636*
X02114Y00752D02*
D01*
X02112Y00753*
X0211Y00753*
X02108Y00754*
X02106Y00755*
X02104Y00755*
X02102Y00756*
X02099Y00756*
X02097Y00756*
X02095Y00756*
X02093Y00756*
X02091Y00755*
X02089Y00755*
X02087Y00754*
X02085Y00753*
X02083Y00752*
X02081Y00751*
X02081Y0075*
X02274Y00636D02*
D01*
X02275Y00635*
X02277Y00634*
X02279Y00633*
X02281Y00633*
X02283Y00632*
X02285Y00632*
X02287Y00632*
X02288Y00633*
X02274Y00636D02*
D01*
X02275Y00635*
X02277Y00634*
X02279Y00633*
X02281Y00633*
X02283Y00632*
X02285Y00632*
X02287Y00632*
X02288Y00633*
X02996Y00592D02*
D01*
X02993Y00595*
X02991Y00598*
X02988Y00601*
X02986Y00603*
X02983Y00606*
X0298Y00608*
X02976Y0061*
X02973Y00612*
X02972Y00613*
X03004Y00593D02*
D01*
X03001Y00592*
X02999Y00592*
X02997Y00592*
X02996Y00592*
X02274Y00636D02*
D01*
X02275Y00635*
X02277Y00634*
X02279Y00633*
X02281Y00633*
X02283Y00632*
X02285Y00632*
X02287Y00632*
X02288Y00633*
Y0075D02*
D01*
X02285Y0075*
X02283Y0075*
X02281Y00751*
X02279Y00751*
X02279Y00751*
X02318Y00768D02*
D01*
X02315Y00767*
X02313Y00767*
X02311Y00767*
X02309Y00766*
X02307Y00766*
X02305Y00765*
X02303Y00764*
X02302Y00763*
X023Y00762*
X02298Y0076*
X02297Y00759*
X02295Y00758*
X02294Y00756*
X02293Y00754*
X02292Y00753*
X02292Y00751*
X02972Y00613D02*
D01*
X02975Y00614*
X02978Y00616*
X02981Y00618*
X02984Y00621*
X02987Y00623*
X0299Y00626*
X02992Y00629*
X02995Y00632*
X02996Y00636*
X02998Y00639*
X03Y00643*
X03001Y00646*
X03002Y0065*
X03003Y00654*
X03003Y00657*
X03004Y00661*
X03004Y00663*
Y00593D02*
D01*
X03001Y00592*
X02999Y00592*
X02997Y00592*
X02996Y00592*
X03004Y00663D02*
D01*
X03003Y00666*
X03003Y0067*
X03002Y00674*
X03001Y00678*
X03Y00681*
X02999Y00685*
X02997Y00688*
X02995Y00692*
X02993Y00695*
X02991Y00698*
X02988Y00701*
X02985Y00703*
X02982Y00706*
X02979Y00708*
X02976Y0071*
X02973Y00712*
X02972Y00713*
X02975Y00714*
X02978Y00716*
X02981Y00718*
X02984Y00721*
X02987Y00723*
X0299Y00726*
X02992Y00729*
X02995Y00732*
X02996Y00736*
X02998Y00739*
X03Y00743*
X03001Y00746*
X03002Y0075*
X03003Y00754*
X03003Y00757*
X03004Y00761*
X03004Y00763*
X01341Y00884D02*
D01*
X01339Y00885*
X01338Y00886*
X01336Y00887*
X01334Y00888*
X01332Y00889*
X01331Y0089*
X01329Y00891*
X01327Y00891*
X01325Y00891*
X01323Y00892*
X01321Y00892*
X01321Y00892*
X01341Y00884D02*
D01*
X01339Y00885*
X01338Y00886*
X01336Y00887*
X01334Y00888*
X01332Y00889*
X01331Y0089*
X01329Y00891*
X01327Y00891*
X01325Y00891*
X01323Y00892*
X01321Y00892*
X01321Y00892*
X01451Y00811D02*
D01*
X01449Y00809*
X01448Y00807*
X01447Y00806*
X01446Y00804*
X01445Y00802*
X01444Y008*
X01443Y00798*
X01443Y00796*
X01442Y00794*
X01442Y00792*
X01442Y0079*
X01442Y00788*
X01442Y00786*
X01442Y00784*
X01443Y00782*
X01443Y0078*
X01444Y00778*
X01445Y00776*
X01446Y00774*
X01447Y00772*
X01448Y00771*
X0145Y00769*
X01451Y00768*
X01452Y00767*
X02079Y00864D02*
D01*
X02078Y00866*
X02078Y00868*
X02077Y0087*
X02076Y00872*
X02075Y00875*
X02074Y00877*
X02073Y00879*
X02072Y00881*
X0207Y00882*
X02069Y00884*
X0212D02*
D01*
X02119Y00881*
X02119Y00879*
X02118Y00877*
X02118Y00874*
X02118Y00872*
X02119Y0087*
X02119Y00867*
X0212Y00865*
X02121Y00864*
X01542Y01456D02*
D01*
X0154Y01457*
X01537Y01458*
X01535Y01459*
X01533Y01459*
X01531Y0146*
X01529Y0146*
X01526Y01461*
X01525Y01461*
X01591Y01491D02*
D01*
X01588Y01492*
X01586Y01493*
X01584Y01493*
X01582Y01494*
X0158Y01495*
X01577Y01495*
X01575Y01495*
X01573Y01495*
X0157Y01495*
X01568Y01495*
X01566Y01494*
X01563Y01494*
X01561Y01493*
X01559Y01492*
X01557Y01491*
X01555Y01489*
X01553Y01488*
X01551Y01487*
X01549Y01485*
X01548Y01483*
X01546Y01481*
X01545Y0148*
X01544Y01477*
X01543Y01475*
X01542Y01473*
X01541Y01471*
X01541Y01469*
X0154Y01466*
X0154Y01464*
X0154Y01462*
X0154Y01459*
X0154Y01457*
X01542Y01456*
X01454Y01508D02*
D01*
X01452Y01509*
X01451Y0151*
X01449Y01511*
X01447Y01512*
X01445Y01513*
X01444Y01514*
X01442Y01515*
X0144Y01515*
X01438Y01515*
X01436Y01516*
X01434Y01516*
X01434Y01516*
X01454Y01508D02*
D01*
X01452Y01509*
X01451Y0151*
X01449Y01511*
X01447Y01512*
X01445Y01513*
X01444Y01514*
X01442Y01515*
X0144Y01515*
X01438Y01515*
X01436Y01516*
X01434Y01516*
X01434Y01516*
X02279Y00864D02*
D01*
X02278Y00866*
X02278Y00868*
X02277Y0087*
X02276Y00872*
X02275Y00875*
X02274Y00877*
X02273Y00879*
X02272Y00881*
X0227Y00882*
X02269Y00884*
X03004Y00763D02*
D01*
X03003Y00766*
X03003Y0077*
X03002Y00774*
X03001Y00778*
X03Y00781*
X02999Y00785*
X02997Y00788*
X02995Y00792*
X02993Y00795*
X02991Y00798*
X02988Y00801*
X02985Y00803*
X02982Y00806*
X02979Y00808*
X02976Y0081*
X02973Y00812*
X02972Y00813*
X02975Y00814*
X02978Y00816*
X02981Y00818*
X02984Y00821*
X02987Y00823*
X0299Y00826*
X02992Y00829*
X02995Y00832*
X02996Y00836*
X02998Y00839*
X03Y00843*
X03001Y00846*
X03002Y0085*
X03003Y00854*
X03003Y00857*
X03004Y00861*
X03004Y00863*
X03003Y00866*
X03003Y0087*
X03002Y00874*
X03001Y00878*
X03Y00881*
X02999Y00885*
X02997Y00888*
X02995Y00892*
X02993Y00895*
X02991Y00898*
X02988Y00901*
X02985Y00903*
X02982Y00906*
X02979Y00908*
X02976Y0091*
X02973Y00912*
X02972Y00913*
X02975Y00914*
X02978Y00916*
X02981Y00918*
X02984Y00921*
X02987Y00923*
X0299Y00926*
X02992Y00929*
X02995Y00932*
X02996Y00936*
X02998Y00939*
X03Y00943*
X03001Y00946*
X03002Y0095*
X03003Y00954*
X03003Y00957*
X03004Y00961*
X03004Y00963*
X03003Y00966*
X03003Y0097*
X03002Y00974*
X03001Y00978*
X03Y00981*
X02999Y00985*
X02997Y00988*
X02995Y00992*
X02993Y00995*
X02991Y00998*
X02988Y01001*
X02985Y01003*
X02982Y01006*
X02979Y01008*
X02976Y0101*
X02973Y01012*
X02972Y01013*
X02975Y01014*
X02978Y01016*
X02981Y01018*
X02984Y01021*
X02987Y01023*
X0299Y01026*
X02992Y01029*
X02995Y01032*
X02996Y01036*
X02998Y01039*
X03Y01043*
X03001Y01046*
X03002Y0105*
X03003Y01054*
X03003Y01057*
X03004Y01061*
X03004Y01063*
X03003Y01066*
X03003Y0107*
X03002Y01074*
X03001Y01078*
X03Y01081*
X02999Y01085*
X02997Y01088*
X02995Y01092*
X02993Y01095*
X02991Y01098*
X02988Y01101*
X02985Y01103*
X02982Y01106*
X02979Y01108*
X02976Y0111*
X02973Y01112*
X02972Y01113*
X02975Y01114*
X02978Y01116*
X02981Y01118*
X02984Y01121*
X02987Y01123*
X0299Y01126*
X02992Y01129*
X02995Y01132*
X02996Y01136*
X02998Y01139*
X03Y01143*
X03001Y01146*
X03002Y0115*
X03003Y01154*
X03003Y01157*
X03004Y01161*
X03004Y01163*
X03003Y01166*
X03003Y0117*
X03002Y01174*
X03001Y01178*
X03Y01181*
X02999Y01185*
X02997Y01188*
X02995Y01192*
X02993Y01195*
X02991Y01198*
X02988Y01201*
X02985Y01203*
X02982Y01206*
X02979Y01208*
X02976Y0121*
X02973Y01212*
X02972Y01213*
X02796Y01247D02*
D01*
X02797Y01243*
X02798Y01239*
X028Y01236*
X02802Y01233*
X02803Y01233*
X02972Y01213D02*
D01*
X02975Y01214*
X02978Y01216*
X02981Y01218*
X02984Y01221*
X02987Y01223*
X0299Y01226*
X02992Y01229*
X02995Y01232*
X02996Y01236*
X02998Y01239*
X03Y01243*
X03001Y01246*
X03002Y0125*
X03003Y01254*
X03003Y01257*
X03004Y01261*
X03004Y01263*
X03003Y01266*
X03003Y0127*
X03002Y01274*
X03001Y01278*
X03Y01281*
X02999Y01285*
X02997Y01288*
X02995Y01292*
X02993Y01295*
X02991Y01298*
X02988Y01301*
X02985Y01303*
X02982Y01306*
X02979Y01308*
X02976Y0131*
X02973Y01312*
X02972Y01313*
X02975Y01314*
X02978Y01316*
X02981Y01318*
X02984Y01321*
X02987Y01323*
X0299Y01326*
X02992Y01329*
X02995Y01332*
X02996Y01336*
X02998Y01339*
X03Y01343*
X03001Y01346*
X03002Y0135*
X03003Y01354*
X03003Y01357*
X03004Y01361*
X03004Y01363*
X03003Y01366*
X03003Y0137*
X03002Y01374*
X03001Y01378*
X03Y01381*
X02999Y01385*
X02997Y01388*
X02995Y01392*
X02993Y01395*
X02991Y01398*
X02988Y01401*
X02985Y01403*
X02982Y01406*
X02979Y01408*
X02976Y0141*
X02973Y01412*
X02972Y01413*
X02975Y01414*
X02978Y01416*
X02981Y01418*
X02984Y01421*
X02987Y01423*
X0299Y01426*
X02992Y01429*
X02995Y01432*
X02996Y01436*
X02998Y01439*
X03Y01443*
X03001Y01446*
X03002Y0145*
X03003Y01454*
X03003Y01457*
X03004Y01461*
X03004Y01463*
X03003Y01466*
X03003Y0147*
X03002Y01474*
X03001Y01478*
X03Y01481*
X02999Y01485*
X02997Y01488*
X02995Y01492*
X02993Y01495*
X02991Y01498*
X02988Y01501*
X02985Y01503*
X02982Y01506*
X02979Y01508*
X02976Y0151*
X02973Y01512*
X02969Y01513*
X02965Y01515*
X02962Y01516*
X02958Y01517*
X02954Y01517*
X0295Y01517*
X02947*
X02943Y01517*
X02939Y01517*
X02935Y01516*
X02932Y01515*
X02928Y01513*
X02924Y01512*
X02921Y0151*
X02918Y01508*
X02915Y01506*
X02912Y01503*
X02909Y01501*
X02906Y01498*
X02904Y01495*
X02902Y01492*
X029Y01488*
X02899Y01486*
X02897Y01489*
X02895Y01492*
X02893Y01495*
X0289Y01498*
X02888Y01501*
X02885Y01504*
X02882Y01506*
X02879Y01509*
X02875Y0151*
X02872Y01512*
X02868Y01514*
X02865Y01515*
X02861Y01516*
X02857Y01517*
X02854Y01517*
X0285Y01518*
X02846Y01517*
X02842Y01517*
X02838Y01517*
X02835Y01516*
X02831Y01515*
X02827Y01513*
X02824Y01512*
X0282Y0151*
X02817Y01508*
X02814Y01505*
X02811Y01503*
X02808Y015*
X02806Y01497*
X02804Y01494*
X02801Y01491*
X02802Y01491*
X01472Y00789D02*
D01*
X01473Y0079*
X01474Y00792*
X01476Y00794*
X01477Y00796*
X01478Y00798*
X01479Y008*
X0148Y00802*
X0148Y00804*
X01481Y00806*
X01481Y00809*
X01481Y00811*
X01482Y00813*
X01481Y00815*
X01481Y00817*
X01481Y00819*
X0148Y00822*
X0148Y00824*
X01479Y00826*
X01478Y00828*
X01476Y0083*
X01475Y00832*
X01474Y00834*
X01472Y00835*
X01471Y00837*
X01469Y00839*
X01467Y0084*
X01465Y00841*
X01463Y00842*
X01461Y00843*
X01459Y00844*
X01456Y00845*
X01454Y00845*
X01452Y00845*
X0145Y00845*
X01447*
X01445Y00845*
X01443Y00845*
X01441Y00845*
X01441Y00845*
X01892Y0077D02*
D01*
X0189Y00767*
X0189Y00765*
X01889Y00763*
X01888Y00761*
X01888Y00759*
X01887Y00756*
X01887Y00754*
X01887Y00752*
X01888Y00749*
X01888Y00747*
X01889Y00745*
X01889Y00743*
X0189Y0074*
X01891Y00738*
X01892Y00736*
X01893Y00734*
X01895Y00733*
X01896Y00731*
X01898Y00729*
X019Y00728*
X01902Y00726*
X01903Y00725*
X01906Y00724*
X01908Y00723*
X0191Y00722*
X01912Y00721*
X01914Y00721*
X01917Y00721*
X01919Y00721*
X01327Y00957D02*
D01*
X01325Y00958*
X01323Y00959*
X01321Y00961*
X0132Y00962*
X01318Y00963*
X01316Y00964*
X01314Y00964*
X01311Y00965*
X01309Y00965*
X01307Y00965*
X01305Y00966*
X01305Y00966*
X01327Y00957D02*
D01*
X01325Y00958*
X01323Y00959*
X01321Y00961*
X0132Y00962*
X01318Y00963*
X01316Y00964*
X01314Y00964*
X01311Y00965*
X01309Y00965*
X01307Y00965*
X01305Y00966*
X01305Y00966*
X0136Y00974D02*
D01*
X01361Y00972*
X01362Y00971*
X01364Y0097*
X01366Y00969*
X01368Y00968*
X0137Y00968*
X0136Y00974D02*
D01*
X01361Y00972*
X01362Y00971*
X01364Y0097*
X01366Y00969*
X01368Y00968*
X0137Y00968*
X01208Y01041D02*
D01*
X01209Y01042*
X0121Y01044*
X01212Y01046*
X01213Y01048*
X01214Y0105*
X01215Y01052*
X01216Y01054*
X01216Y01056*
X01217Y01057*
X01429Y00853D02*
D01*
X01427Y00854*
X01426Y00856*
X01425Y00858*
X01424Y0086*
X01423Y00861*
X01429Y00853D02*
D01*
X01427Y00854*
X01426Y00856*
X01425Y00858*
X01424Y0086*
X01423Y0086*
X0137Y00968D02*
D01*
X0137Y00965*
X0137Y00963*
X01371Y00961*
X01372Y00959*
X01373Y00956*
X01374Y00954*
X01375Y00952*
X01377Y00951*
X01378Y00949*
X0138Y00947*
X01382Y00946*
X01383Y00944*
X01385Y00943*
X01387Y00942*
X01389Y00941*
X01392Y0094*
X01394Y00939*
X01396Y00939*
X01398Y00939*
X01401Y00938*
X01403Y00938*
X01405Y00938*
X01408Y00939*
X0141Y00939*
X01412Y0094*
X01414Y0094*
X01417Y00941*
X01419Y00942*
X01419Y00944*
X02754Y00443D02*
D01*
X02755Y00441*
X02756Y0044*
X02758Y00439*
X0276Y00438*
X02762Y00437*
X02763Y00436*
X02765Y00435*
X02767Y00435*
X02769Y00435*
X02771Y00434*
X02773Y00434*
X02774Y00434*
X02826Y00313D02*
D01*
X02822Y00311*
X02819Y00309*
X02816Y00307*
X02813Y00304*
X0281Y00302*
X02807Y00299*
X02805Y00296*
X02802Y00293*
X02801Y00289*
X02799Y00286*
X02797Y00282*
X02796Y00279*
X02795Y00275*
X02794Y00271*
X02794Y00268*
X02793Y00264*
X02794Y0026*
X02794Y00258*
X02899Y00286D02*
D01*
X02897Y00289*
X02895Y00292*
X02893Y00295*
X0289Y00298*
X02888Y00301*
X02885Y00304*
X02882Y00306*
X02879Y00309*
X02875Y0031*
X02872Y00312*
X02872Y00313*
X02926D02*
D01*
X02922Y00311*
X02919Y00309*
X02916Y00307*
X02913Y00304*
X0291Y00302*
X02907Y00299*
X02905Y00296*
X02902Y00293*
X02901Y00289*
X02899Y00286*
X02899Y00286*
X02754Y00443D02*
D01*
X02755Y00441*
X02756Y0044*
X02758Y00439*
X0276Y00438*
X02762Y00437*
X02763Y00436*
X02765Y00435*
X02767Y00435*
X02769Y00435*
X02771Y00434*
X02773Y00434*
X02774Y00434*
X02826Y00413D02*
D01*
X02822Y00411*
X02819Y00409*
X02816Y00407*
X02813Y00404*
X0281Y00402*
X02807Y00399*
X02805Y00396*
X02802Y00393*
X02801Y00389*
X02799Y00386*
X02797Y00382*
X02796Y00379*
X02795Y00375*
X02794Y00371*
X02794Y00368*
X02793Y00364*
X02794Y0036*
X02794Y00356*
X02794Y00352*
X02795Y00349*
X02796Y00345*
X02798Y00341*
X02799Y00338*
X02801Y00334*
X02803Y00331*
X02806Y00328*
X02808Y00325*
X02811Y00322*
X02814Y0032*
X02817Y00318*
X0282Y00315*
X02823Y00314*
X02826Y00313*
X02872D02*
D01*
X02875Y00314*
X02878Y00316*
X02881Y00318*
X02884Y00321*
X02887Y00323*
X0289Y00326*
X02892Y00329*
X02895Y00332*
X02896Y00336*
X02898Y00339*
X02899Y0034*
X02802Y00434D02*
D01*
X02804Y0043*
X02806Y00427*
X02809Y00424*
X02811Y00422*
X02814Y00419*
X02817Y00417*
X02821Y00415*
X02824Y00413*
X02826Y00413*
X02899Y0034D02*
D01*
X029Y00336*
X02902Y00333*
X02904Y0033*
X02907Y00327*
X02909Y00324*
X02912Y00321*
X02915Y00319*
X02918Y00316*
X02922Y00315*
X02925Y00313*
X02926Y00313*
X0208Y0072D02*
D01*
X02082Y0072*
X02084Y0072*
X02086Y0072*
X02089Y00721*
X02091Y00722*
X02093Y00723*
X02095Y00724*
X02097Y00725*
X02098Y00726*
X02099Y00724*
X02102Y00723*
X02104Y00723*
X02106Y00722*
X02108Y00721*
X0211Y00721*
X02113Y00721*
X02115Y00721*
X02117Y00721*
X02119Y00721*
X0234Y00663D02*
D01*
X02338Y00663*
X02336Y00664*
X02334Y00665*
X02332Y00665*
X0233Y00666*
X02328Y00666*
X02327Y00666*
X0234Y00663D02*
D01*
X02338Y00663*
X02336Y00664*
X02334Y00665*
X02332Y00665*
X0233Y00666*
X02328Y00666*
X02327Y00666*
X02279Y00721D02*
D01*
X02281Y0072*
X02283Y00719*
X02285Y00719*
X02288Y00719*
X0229Y00719*
X02292Y00719*
X02295Y0072*
X02297Y0072*
X02299Y00721*
X02301Y00722*
X02304Y00723*
X02306Y00724*
X02308Y00725*
X02309Y00726*
X02311Y00728*
X02313Y00729*
X02314Y00731*
X02316Y00733*
X02317Y00735*
X02318Y00737*
X02318Y00738*
X01699Y-0013D02*
Y00098D01*
X01704Y-0013D02*
Y00098D01*
X01714Y-0013D02*
Y00098D01*
X01724Y-0013D02*
Y00098D01*
X01734Y-0013D02*
Y00098D01*
X01744Y-0013D02*
Y00098D01*
X01754Y-0013D02*
Y00098D01*
X01699D02*
X01711D01*
X01736*
X01711D02*
X01736D01*
X01791*
X01764Y-0013D02*
Y00098D01*
X01751Y00103D02*
Y00138D01*
X01786*
X01774Y-0013D02*
Y00098D01*
X01784Y-0013D02*
Y00098D01*
X01791Y00102D02*
X01806D01*
X01814Y-0013D02*
Y00098D01*
X01824Y-0013D02*
Y00098D01*
X01834Y-0013D02*
Y00098D01*
X01844Y-0013D02*
Y00098D01*
X01791Y00112D02*
X01806D01*
X01791Y00122D02*
X01806D01*
X01791Y00132D02*
X01806D01*
X01811Y00138D02*
X01846D01*
Y00103D02*
Y00138D01*
X01791Y00142D02*
X01806D01*
X01791Y00152D02*
X01806D01*
X01727Y00178D02*
X01736D01*
X01727D02*
X01736D01*
X01727D02*
Y00201D01*
X01736Y00178D02*
X01791D01*
X01751Y00138D02*
Y00173D01*
X01734Y00178D02*
Y00207D01*
X01744Y00178D02*
Y00219D01*
X01727Y00201D02*
X01739Y00212D01*
X01747Y00233D02*
Y00243D01*
X01754Y00178D02*
Y00243D01*
X01747D02*
X0176D01*
Y00269*
X01791Y00098D02*
Y00178D01*
X01794Y-0013D02*
Y00243D01*
X01804Y-0013D02*
Y00243D01*
X01791Y00162D02*
X01806D01*
X01791Y00172D02*
X01806D01*
Y00098D02*
Y00178D01*
X01846Y00138D02*
Y00173D01*
X01764Y00178D02*
Y00423D01*
X01774Y00178D02*
Y00559D01*
X01784Y00178D02*
Y00423D01*
X01814Y00178D02*
Y00243D01*
X01824Y00178D02*
Y00243D01*
X01834Y00178D02*
Y00243D01*
X01844Y00178D02*
Y00243D01*
X01699Y-00098D02*
X02219D01*
X01699Y-00088D02*
X02209D01*
X01699Y-00078D02*
X02064D01*
X01699Y-0013D02*
X03191D01*
X01699Y-00128D02*
X03191D01*
X01699Y-00118D02*
X03191D01*
X01699Y-00108D02*
X02229D01*
X01699Y-00028D02*
X02014D01*
X01699Y-00018D02*
X02004D01*
X01699Y-00008D02*
X01994D01*
X01699Y-00068D02*
X02054D01*
X01699Y-00058D02*
X02044D01*
X01699Y-00048D02*
X02034D01*
X01699Y-00038D02*
X02024D01*
X01934Y-0013D02*
Y00053D01*
X01914Y-0013D02*
Y00073D01*
X01924Y-0013D02*
Y00063D01*
X01699Y00002D02*
X01984D01*
X01964Y-0013D02*
Y00023D01*
X01944Y-0013D02*
Y00043D01*
X01954Y-0013D02*
Y00033D01*
X01699Y00052D02*
X01934D01*
X01699Y00062D02*
X01924D01*
X01699Y00072D02*
X01914D01*
X01699Y00012D02*
X01974D01*
X01699Y00022D02*
X01964D01*
X01699Y00032D02*
X01954D01*
X01699Y00042D02*
X01944D01*
X01854Y-0013D02*
Y00098D01*
X01806D02*
X01861D01*
X01854Y00178D02*
Y00242D01*
X01699Y00082D02*
X01904D01*
X01699Y00092D02*
X01899D01*
X01727Y00182D02*
X0187D01*
X01806Y00178D02*
X01861D01*
X01727Y00192D02*
X0187D01*
X01747Y00232D02*
X01864D01*
X01747Y00242D02*
X01854D01*
X01729Y00202D02*
X0187D01*
X01739Y00212D02*
X0187D01*
X01745Y00222D02*
X0187D01*
X01853Y00243D02*
X0187Y00226D01*
X01864Y-0013D02*
Y00098D01*
X01874Y-0013D02*
Y00098D01*
X01884Y-0013D02*
Y00098D01*
X01899Y00088D02*
X02074Y-00087D01*
X01904Y-0013D02*
Y00083D01*
X01894Y-0013D02*
Y00098D01*
X01899Y00088D02*
Y00098D01*
X01861Y00178D02*
X0187D01*
X01861D02*
X0187D01*
X01864D02*
Y00232D01*
X01861Y00098D02*
X01886D01*
X01861D02*
X01886D01*
X0187Y00178D02*
Y00226D01*
X01886Y00098D02*
X01899D01*
X01664Y00413D02*
Y00423D01*
X01674Y00413D02*
Y00423D01*
X01684Y00413D02*
Y00423D01*
X01616Y00413D02*
X01688D01*
X0175Y00382D02*
X0176D01*
X01688Y00413D02*
Y00423D01*
X0175Y00382D02*
Y00423D01*
X01616Y00432D02*
X01659D01*
X01576Y00438D02*
X01611D01*
X01616Y00442D02*
X01659D01*
X01616Y00422D02*
X01688D01*
X01659Y00423D02*
X01688D01*
X01616Y00452D02*
X01659D01*
X0175Y00423D02*
X01768D01*
X0176Y00269D02*
Y00295D01*
Y00269D02*
Y00295D01*
Y00305*
Y00295D02*
Y00305D01*
Y00295D02*
Y00305D01*
Y0032*
Y00305D02*
Y0032D01*
Y00331*
X01754Y00382D02*
Y00423D01*
X0176Y0032D02*
Y00331D01*
Y0032D02*
Y00331D01*
Y00356*
Y00331D02*
Y00356D01*
Y00382*
X01549Y00478D02*
X01561D01*
X01549D02*
Y00559D01*
X01554Y00478D02*
Y00559D01*
X01549Y00478D02*
X01561D01*
X01616*
X01564D02*
Y00559D01*
X01574Y00478D02*
Y00559D01*
X01549Y00482D02*
X01659D01*
X01549Y00492D02*
X01659D01*
X01549Y00502D02*
X01659D01*
X01549Y00512D02*
X01659D01*
X01549Y00522D02*
X01659D01*
X01549Y00532D02*
X01659D01*
X01549Y00542D02*
X01659D01*
X01616Y00413D02*
Y00478D01*
X01624Y00413D02*
Y00559D01*
X01634Y00413D02*
Y00559D01*
X01659Y00423D02*
Y00552D01*
X01768Y00423D02*
Y00552D01*
X01644Y00413D02*
Y00559D01*
X01654Y00413D02*
Y00559D01*
X01576Y00438D02*
Y00473D01*
X01584Y00478D02*
Y00559D01*
X01594Y00478D02*
Y00559D01*
X01616Y00462D02*
X01659D01*
X01616Y00472D02*
X01659D01*
X01604Y00478D02*
Y00559D01*
X01614Y00478D02*
Y00559D01*
X0176Y00252D02*
X01788D01*
X0176Y00262D02*
X01788D01*
X0176Y00272D02*
X01788D01*
X0176Y00282D02*
X01788D01*
Y00243D02*
X01853D01*
X0176Y00292D02*
X01788D01*
X0176Y00302D02*
X01788D01*
X0176Y00312D02*
X01788D01*
X0176Y00322D02*
X01788D01*
X0176Y00332D02*
X01788D01*
X0176Y00342D02*
X01788D01*
X0176Y00352D02*
X01788D01*
X0176Y00362D02*
X01788D01*
X0176Y00372D02*
X01788D01*
Y00243D02*
Y00269D01*
Y00295*
Y00269D02*
Y00295D01*
Y00305*
Y00295D02*
Y00305D01*
Y00295D02*
Y00305D01*
Y0032*
Y00305D02*
Y0032D01*
Y00331*
Y0032D02*
Y00331D01*
Y0032D02*
Y00331D01*
Y00356*
Y00331D02*
Y00356D01*
Y00382*
X0175D02*
X01824D01*
X01768Y00432D02*
X01779D01*
X01768Y00442D02*
X01779D01*
X0175Y00392D02*
X01824D01*
X0175Y00402D02*
X01824D01*
X0175Y00412D02*
X01824D01*
X0175Y00422D02*
X01824D01*
X01768Y00452D02*
X01779D01*
X01659Y00552D02*
X01768D01*
Y00462D02*
X01779D01*
X01768Y00472D02*
X01779D01*
X01768Y00482D02*
X01779D01*
X01549Y00559D02*
X01824D01*
X01768Y00492D02*
X01779D01*
X01794Y00382D02*
Y00423D01*
X01804Y00382D02*
Y00423D01*
X01814Y00382D02*
Y00423D01*
X01788Y00382D02*
X01824D01*
Y00423*
X01779D02*
X01824D01*
Y00382D02*
Y00423D01*
X01768Y00502D02*
X01779D01*
X01768Y00512D02*
X01779D01*
Y00423D02*
Y00552D01*
X01768Y00522D02*
X01779D01*
X01768Y00532D02*
X01779D01*
X01768Y00542D02*
X01779D01*
Y00552D02*
X01824D01*
X02254Y-0013D02*
Y-00116D01*
X02264Y-0013D02*
Y-00116D01*
X02274Y-0013D02*
Y-00116D01*
X02284Y-0013D02*
Y-00116D01*
X02294Y-0013D02*
Y-00116D01*
X02304Y-0013D02*
Y-00116D01*
X02314Y-0013D02*
Y-00116D01*
X02324Y-0013D02*
Y-00116D01*
X02334Y-0013D02*
Y-00116D01*
X02344Y-0013D02*
Y-00116D01*
X02354Y-0013D02*
Y-00116D01*
X02364Y-0013D02*
Y-00116D01*
X02374Y-0013D02*
Y-00116D01*
X02384Y-0013D02*
Y-00116D01*
X02394Y-0013D02*
Y-00116D01*
X02404Y-0013D02*
Y-00116D01*
X02414Y-0013D02*
Y-00116D01*
X02424Y-0013D02*
Y-00116D01*
X02434Y-0013D02*
Y-00116D01*
X02444Y-0013D02*
Y-00116D01*
X02454Y-0013D02*
Y-00116D01*
X02464Y-0013D02*
Y-00116D01*
X02474Y-0013D02*
Y-00116D01*
X02484Y-0013D02*
Y-00116D01*
X02494Y-0013D02*
Y-00116D01*
X02504Y-0013D02*
Y-00116D01*
X02514Y-0013D02*
Y-00116D01*
X02524Y-0013D02*
Y-00116D01*
X01994Y-0013D02*
Y-00007D01*
X01974Y-0013D02*
Y00013D01*
X01984Y-0013D02*
Y00003D01*
X02024Y-0013D02*
Y-00037D01*
X02034Y-0013D02*
Y-00047D01*
X02004Y-0013D02*
Y-00017D01*
X02014Y-0013D02*
Y-00027D01*
X02064Y-0013D02*
Y-00077D01*
X02044Y-0013D02*
Y-00057D01*
X02054Y-0013D02*
Y-00067D01*
X02074Y-0013D02*
Y-00087D01*
X02084Y-0013D02*
Y-00087D01*
X02094Y-0013D02*
Y-00087D01*
X02104Y-0013D02*
Y-00087D01*
X02114Y-0013D02*
Y-00087D01*
X02124Y-0013D02*
Y-00087D01*
X02134Y-0013D02*
Y-00087D01*
X02144Y-0013D02*
Y-00087D01*
X02154Y-0013D02*
Y-00087D01*
X02164Y-0013D02*
Y-00087D01*
X02174Y-0013D02*
Y-00087D01*
X02184Y-0013D02*
Y-00087D01*
X02194Y-0013D02*
Y-00087D01*
X02204Y-0013D02*
Y-00087D01*
X02234Y-0013D02*
Y-00111D01*
X02244Y-0013D02*
Y-00115D01*
X02214Y-0013D02*
Y-00093D01*
X02224Y-0013D02*
Y-00103D01*
X02534Y-0013D02*
Y-00116D01*
X02544Y-0013D02*
Y-00116D01*
X02554Y-0013D02*
Y-00116D01*
X02564Y-0013D02*
Y-00116D01*
X02574Y-0013D02*
Y-00116D01*
X02584Y-0013D02*
Y-00116D01*
X02594Y-0013D02*
Y-00116D01*
X02604Y-0013D02*
Y-00116D01*
X02614Y-0013D02*
Y-00116D01*
X02624Y-0013D02*
Y-00116D01*
X02634Y-0013D02*
Y-00116D01*
X02644Y-0013D02*
Y-00116D01*
X02654Y-0013D02*
Y-00116D01*
X02664Y-0013D02*
Y-00116D01*
X02674Y-0013D02*
Y-00116D01*
X02684Y-0013D02*
Y-00116D01*
X02694Y-0013D02*
Y-00116D01*
X02704Y-0013D02*
Y-00116D01*
X02714Y-0013D02*
Y-00116D01*
X02724Y-0013D02*
Y-00116D01*
X02734Y-0013D02*
Y-00116D01*
X02744Y-0013D02*
Y-00116D01*
X02754Y-0013D02*
Y-00116D01*
X02764Y-0013D02*
Y-00116D01*
X02774Y-0013D02*
Y-00116D01*
X02784Y-0013D02*
Y-00116D01*
X02794Y-0013D02*
Y-00116D01*
X02804Y-0013D02*
Y-00116D01*
X02814Y-0013D02*
Y-00116D01*
X02824Y-0013D02*
Y-00116D01*
X02834Y-0013D02*
Y-00116D01*
X02844Y-0013D02*
Y-00116D01*
X02854Y-0013D02*
Y-00116D01*
X02864Y-0013D02*
Y-00116D01*
X02874Y-0013D02*
Y-00116D01*
X02884Y-0013D02*
Y-00116D01*
X02894Y-0013D02*
Y-00116D01*
X02904Y-0013D02*
Y-00116D01*
X02914Y-0013D02*
Y-00116D01*
X02924Y-0013D02*
Y-00116D01*
X02934Y-0013D02*
Y-00116D01*
X02944Y-0013D02*
Y-00116D01*
X02954Y-0013D02*
Y-00116D01*
X02964Y-0013D02*
Y-00116D01*
X02974Y-0013D02*
Y-00116D01*
X02984Y-0013D02*
Y-00116D01*
X02994Y-0013D02*
Y-00116D01*
X03004Y-0013D02*
Y-00114D01*
X03014Y-0013D02*
Y-00108D01*
X03024Y-0013D02*
Y-00098D01*
X03034Y-0013D02*
Y-00088D01*
X03044Y-0013D02*
Y-00078D01*
X03054Y-0013D02*
Y-00068D01*
X03064Y-0013D02*
Y-00058D01*
X03074Y-0013D02*
Y-00048D01*
X03084Y-0013D02*
Y-00038D01*
X02209Y-00087D02*
X02229Y-00107D01*
X02249Y-00116D02*
X02994D01*
X03014Y-00108D02*
X03191D01*
X02074Y-00087D02*
X02209D01*
X03014Y-00107D02*
X03094Y-00027D01*
X03024Y-00098D02*
X03191D01*
X03034Y-00088D02*
X03191D01*
X03019Y00433D02*
X03094Y00358D01*
X03044Y-00078D02*
X03191D01*
X03054Y-00068D02*
X03191D01*
X03094Y-0013D02*
Y-00028D01*
X03064Y-00058D02*
X03191D01*
X03074Y-00048D02*
X03191D01*
X03084Y-00038D02*
X03191D01*
X03094Y-00028D02*
X03191D01*
X03102Y-00007D02*
Y00338D01*
X03101Y-00018D02*
X03191D01*
X03102Y-00008D02*
X03191D01*
X03102Y00002D02*
X03191D01*
X03014Y00437D02*
Y00563D01*
X03024Y00428D02*
Y00563D01*
X03034Y00418D02*
Y00563D01*
X03044Y00408D02*
Y00563D01*
X03054Y00398D02*
Y00563D01*
X02949Y00463D02*
X02999D01*
X02984Y00505D02*
Y0052D01*
X02994Y00494D02*
Y00531D01*
X03004Y00441D02*
Y0046D01*
Y00465D02*
Y0056D01*
X03104Y-0013D02*
Y00563D01*
X03114Y-0013D02*
Y00563D01*
X03124Y-0013D02*
Y00563D01*
X03134Y-0013D02*
Y00563D01*
X03144Y-0013D02*
Y00563D01*
X03154Y-0013D02*
Y00563D01*
X03164Y-0013D02*
Y00563D01*
X03064Y00388D02*
Y00563D01*
X03074Y00378D02*
Y00563D01*
X03084Y00368D02*
Y00563D01*
X03094Y00358D02*
Y00563D01*
X03174Y-0013D02*
Y00563D01*
X03184Y-0013D02*
Y00563D01*
X03191Y-0013D02*
Y00563D01*
X03102Y00012D02*
X03191D01*
X03102Y00022D02*
X03191D01*
X03102Y00032D02*
X03191D01*
X03102Y00042D02*
X03191D01*
X03102Y00052D02*
X03191D01*
X03102Y00062D02*
X03191D01*
X03102Y00072D02*
X03191D01*
X03102Y00082D02*
X03191D01*
X03102Y00092D02*
X03191D01*
X03102Y00102D02*
X03191D01*
X03102Y00112D02*
X03191D01*
X03102Y00122D02*
X03191D01*
X03102Y00132D02*
X03191D01*
X03102Y00142D02*
X03191D01*
X03102Y00152D02*
X03191D01*
X03102Y00162D02*
X03191D01*
X03102Y00172D02*
X03191D01*
X03102Y00182D02*
X03191D01*
X03102Y00192D02*
X03191D01*
X03102Y00202D02*
X03191D01*
X03102Y00212D02*
X03191D01*
X03102Y00222D02*
X03191D01*
X03102Y00232D02*
X03191D01*
X03102Y00242D02*
X03191D01*
X03102Y00252D02*
X03191D01*
X03102Y00262D02*
X03191D01*
X03102Y00272D02*
X03191D01*
X03102Y00282D02*
X03191D01*
X03Y00442D02*
X03191D01*
X03003Y00452D02*
X03191D01*
X03004Y00462D02*
X03191D01*
X03Y00482D02*
X03191D01*
X03003Y00472D02*
X03191D01*
X02987Y00502D02*
X03191D01*
X02995Y00492D02*
X03191D01*
X02972Y00512D02*
X03191D01*
X02986Y00522D02*
X03191D01*
X02995Y00532D02*
X03191D01*
X03Y00542D02*
X03191D01*
X03003Y00552D02*
X03191D01*
X03004Y00563D02*
X03191D01*
X03004Y00562D02*
X03191D01*
X03102Y00292D02*
X03191D01*
X03102Y00302D02*
X03191D01*
X03102Y00312D02*
X03191D01*
X03102Y00322D02*
X03191D01*
X03102Y00332D02*
X03191D01*
X03098Y00352D02*
X03191D01*
X03102Y00342D02*
X03191D01*
X0308Y00372D02*
X03191D01*
X0309Y00362D02*
X03191D01*
X0306Y00392D02*
X03191D01*
X0307Y00382D02*
X03191D01*
X0304Y00412D02*
X03191D01*
X0305Y00402D02*
X03191D01*
X0302Y00432D02*
X03191D01*
X0303Y00422D02*
X03191D01*
X01961Y00266D02*
X01981D01*
X01907Y0032D02*
X01961Y00266D01*
X01955Y00272D02*
X01981D01*
Y00266D02*
Y00278D01*
X02036*
X02004D02*
Y00308D01*
X01915Y00312D02*
X01994D01*
X02014Y00278D02*
Y00308D01*
X0205Y00178D02*
Y00198D01*
X02054Y00178D02*
Y00198D01*
X0205Y00178D02*
X02061D01*
X0205D02*
X02061D01*
X0205Y00198D02*
X02061D01*
X02024Y00278D02*
Y00308D01*
X02034Y00278D02*
Y00308D01*
X0205Y00198D02*
X02061D01*
X02044Y00278D02*
Y00308D01*
X02054Y00278D02*
Y00308D01*
X01914Y00313D02*
Y00334D01*
X01924Y00303D02*
Y00344D01*
X01912Y00332D02*
X01994D01*
X01909Y00329D02*
X01998Y00418D01*
X01934Y00293D02*
Y00354D01*
X01854Y00382D02*
X01874D01*
X01854D02*
X01875D01*
X01922Y00342D02*
X01994D01*
X01932Y00352D02*
X01994D01*
X01942Y00362D02*
X01994D01*
X01954Y00273D02*
Y00374D01*
X01964Y00266D02*
Y00384D01*
X01974Y00266D02*
Y00394D01*
X01984Y00278D02*
Y00404D01*
X01994Y00278D02*
Y00414D01*
X01944Y00283D02*
Y00364D01*
X01952Y00372D02*
X01994D01*
Y00308D02*
Y00408D01*
X02049Y00313D02*
Y00358D01*
X01999D02*
X02049D01*
Y00403*
X02064Y00178D02*
Y00198D01*
X02074Y00178D02*
Y00198D01*
X02061Y00178D02*
X02116D01*
X0205Y00182D02*
X02489D01*
X0205Y00192D02*
X02479D01*
X02036Y00278D02*
X02061D01*
X02036D02*
X02061D01*
Y00198D02*
X02116D01*
X02076Y00203D02*
Y00238D01*
X02111*
X02114Y00088D02*
Y00098D01*
X02084Y00178D02*
Y00198D01*
X0211Y00092D02*
X02579D01*
X02105Y00098D02*
X02116D01*
X02105Y00097D02*
X02261Y-00059D01*
X02094Y00178D02*
Y00198D01*
X02076Y00238D02*
Y00273D01*
X02104Y00178D02*
Y00198D01*
X02114Y00178D02*
Y00198D01*
X02116Y00262D02*
X02409D01*
X02116Y00198D02*
Y00278D01*
X02064D02*
Y00308D01*
X02074Y00278D02*
Y00308D01*
X02061Y00278D02*
X02116D01*
X02084D02*
Y00308D01*
X02094Y00278D02*
Y00308D01*
X01994D02*
X02104D01*
X02049Y00358D02*
X02099D01*
X01945Y00282D02*
X02389D01*
X01925Y00302D02*
X02369D01*
X01935Y00292D02*
X02379D01*
X02104Y00278D02*
Y00308D01*
Y00408D01*
Y00312D02*
X02359D01*
X02112Y00559D02*
X02679Y-00007D01*
X02114Y00278D02*
Y00557D01*
X02104Y00352D02*
X02319D01*
X02104Y00362D02*
X02309D01*
X02104Y00372D02*
X02299D01*
X02104Y00322D02*
X02349D01*
X02104Y00332D02*
X02339D01*
X02104Y00342D02*
X02329D01*
X01854Y00382D02*
Y00423D01*
X01864Y00382D02*
Y00423D01*
X01874Y00382D02*
Y00423D01*
Y00382D02*
X01977Y00485D01*
X01884Y00391D02*
Y00423D01*
X01854Y00392D02*
X01885D01*
X01854Y00423D02*
X01888D01*
X01854Y00402D02*
X01895D01*
X01854Y00412D02*
X01905D01*
X01854Y00422D02*
X01915D01*
X01962Y00382D02*
X01994D01*
X01888Y00432D02*
X01925D01*
X01972Y00392D02*
X01994D01*
X01982Y00402D02*
X01994D01*
X02004Y00408D02*
Y00418D01*
X01888Y00442D02*
X01935D01*
X01888Y00452D02*
X01945D01*
X01888Y00462D02*
X01955D01*
X01888Y00472D02*
X01965D01*
X01888Y00482D02*
X01975D01*
X01888Y00423D02*
Y00552D01*
X01894Y00401D02*
Y00559D01*
X01904Y00411D02*
Y00559D01*
X01914Y00421D02*
Y00559D01*
X01924Y00431D02*
Y00559D01*
X01834Y00488D02*
X01883D01*
X01854Y00552D02*
X01888D01*
Y00492D02*
X0199D01*
X01888Y00502D02*
X01994D01*
X01888Y00512D02*
X01994D01*
X01934Y00441D02*
Y00559D01*
X01944Y00451D02*
Y00559D01*
X01954Y00461D02*
Y00559D01*
X01964Y00471D02*
Y00559D01*
X01974Y00481D02*
Y00559D01*
X01984Y0049D02*
Y00559D01*
X01994Y00493D02*
Y00518D01*
Y00493D02*
Y00559D01*
X02004Y00518D02*
Y00559D01*
X02014Y00408D02*
Y00418D01*
X02024Y00408D02*
Y00418D01*
X01994Y00408D02*
X02104D01*
X02034D02*
Y00418D01*
X02044Y00408D02*
Y00418D01*
X02054Y00408D02*
Y00418D01*
X02064Y00408D02*
Y00418D01*
X01992Y00412D02*
X02259D01*
X01998Y00418D02*
X02104D01*
X02074Y00408D02*
Y00418D01*
X02084Y00408D02*
Y00418D01*
X02094Y00408D02*
Y00418D01*
X02104Y00382D02*
X02289D01*
X02104Y00392D02*
X02279D01*
X02104Y00402D02*
X02269D01*
X02104Y00408D02*
Y00418D01*
Y00452D02*
X02219D01*
X02104Y00462D02*
X02209D01*
X02104Y00422D02*
X02249D01*
X02104Y00432D02*
X02239D01*
X02104Y00442D02*
X02229D01*
X02014Y00518D02*
Y00559D01*
X02024Y00518D02*
Y00559D01*
X01994Y00518D02*
X02104D01*
X02034D02*
Y00559D01*
X02044Y00518D02*
Y00559D01*
X02054Y00518D02*
Y00559D01*
X01854D02*
X02112D01*
X01888Y00522D02*
X02149D01*
X01888Y00532D02*
X02139D01*
X01888Y00542D02*
X02129D01*
X02104Y00502D02*
X02169D01*
X02104Y00418D02*
Y00518D01*
Y00472D02*
X02199D01*
X02104Y00482D02*
X02189D01*
X02104Y00492D02*
X02179D01*
X02064Y00518D02*
Y00559D01*
X02074Y00518D02*
Y00559D01*
X02084Y00518D02*
Y00559D01*
X02104Y00512D02*
X02159D01*
X02094Y00518D02*
Y00559D01*
X02104Y00518D02*
Y00559D01*
X02454Y-00059D02*
Y00217D01*
X02444Y-00059D02*
Y00227D01*
X02484Y-00059D02*
Y00187D01*
X02464Y-00059D02*
Y00207D01*
X02474Y-00059D02*
Y00197D01*
X02504Y-00059D02*
Y00167D01*
X02494Y-00059D02*
Y00177D01*
X02534Y-00059D02*
Y00137D01*
X02514Y-00059D02*
Y00157D01*
X02524Y-00059D02*
Y00147D01*
X02554Y-00059D02*
Y00117D01*
X02544Y-00059D02*
Y00127D01*
X02584Y-00059D02*
Y00087D01*
X02564Y-00059D02*
Y00107D01*
X02574Y-00059D02*
Y00097D01*
X02604Y-00059D02*
Y00067D01*
X02594Y-00059D02*
Y00077D01*
X02634Y-00059D02*
Y00037D01*
X02614Y-00059D02*
Y00057D01*
X02624Y-00059D02*
Y00047D01*
X02274Y-00059D02*
Y00397D01*
X02264Y-00059D02*
Y00407D01*
X02304Y-00059D02*
Y00367D01*
X02284Y-00059D02*
Y00387D01*
X02294Y-00059D02*
Y00377D01*
X02244Y-00042D02*
Y00427D01*
X02234Y-00032D02*
Y00437D01*
X02324Y-00059D02*
Y00347D01*
X02254Y-00052D02*
Y00417D01*
X02314Y-00059D02*
Y00357D01*
X02344Y-00059D02*
Y00327D01*
X02334Y-00059D02*
Y00337D01*
X02374Y-00059D02*
Y00297D01*
X02354Y-00059D02*
Y00317D01*
X02364Y-00059D02*
Y00307D01*
X02404Y-00059D02*
Y00267D01*
X02384Y-00059D02*
Y00287D01*
X02394Y-00059D02*
Y00277D01*
X02434Y-00059D02*
Y00237D01*
X02414Y-00059D02*
Y00257D01*
X02424Y-00059D02*
Y00247D01*
X02694Y-00059D02*
Y-00015D01*
X02704Y-00059D02*
Y-00016D01*
X02261Y-00059D02*
X02982D01*
X0226Y-00058D02*
X02983D01*
X02714Y-00059D02*
Y-00016D01*
X02724Y-00059D02*
Y-00016D01*
X02734Y-00059D02*
Y-00016D01*
X0225Y-00048D02*
X02993D01*
X0224Y-00038D02*
X03003D01*
X02744Y-00059D02*
Y-00016D01*
X02754Y-00059D02*
Y-00016D01*
X02764Y-00059D02*
Y-00016D01*
X02774Y-00059D02*
Y-00016D01*
X02784Y-00059D02*
Y-00016D01*
X02794Y-00059D02*
Y-00016D01*
X02804Y-00059D02*
Y-00016D01*
X02814Y-00059D02*
Y-00016D01*
X02824Y-00059D02*
Y-00016D01*
X02834Y-00059D02*
Y-00016D01*
X02844Y-00059D02*
Y-00016D01*
X02854Y-00059D02*
Y-00016D01*
X02654Y-00059D02*
Y00017D01*
X02644Y-00059D02*
Y00027D01*
X02684Y-00059D02*
Y-00011D01*
X02664Y-00059D02*
Y00007D01*
X02674Y-00059D02*
Y-00003D01*
X02864Y-00059D02*
Y-00016D01*
X02874Y-00059D02*
Y-00016D01*
X02884Y-00059D02*
Y-00016D01*
X02894Y-00059D02*
Y-00016D01*
X02904Y-00059D02*
Y-00015D01*
X02914Y-00059D02*
Y-00012D01*
X02924Y-00059D02*
Y-00003D01*
X02934Y-00059D02*
Y00007D01*
X02944Y-00059D02*
Y00008D01*
X02954Y-00059D02*
Y00008D01*
X02964Y-00059D02*
Y0001D01*
X02974Y-00059D02*
Y00014D01*
X02984Y-00057D02*
Y0002D01*
X02982Y-00059D02*
X03045Y00005D01*
X02994Y-00047D02*
Y00031D01*
X03004Y-00037D02*
Y0006D01*
X0212Y00082D02*
X02589D01*
X02116Y00102D02*
X02569D01*
X0215Y00052D02*
X02619D01*
X0213Y00072D02*
X02599D01*
X0214Y00062D02*
X02609D01*
X02116Y00142D02*
X02529D01*
X02116Y00152D02*
X02519D01*
X02116Y00112D02*
X02559D01*
X02116Y00122D02*
X02549D01*
X02116Y00132D02*
X02539D01*
X02699Y-00016D02*
X02899D01*
X0218Y00022D02*
X02649D01*
X0216Y00042D02*
X02629D01*
X0217Y00032D02*
X02639D01*
X0221Y-00008D02*
X02679D01*
X0219Y00012D02*
X02659D01*
X022Y00002D02*
X02669D01*
X02116Y00098D02*
Y00178D01*
Y00212D02*
X02459D01*
X02116Y00162D02*
X02509D01*
X02116Y00172D02*
X02499D01*
X02116Y00202D02*
X02469D01*
X02116Y00252D02*
X02419D01*
X02116Y00272D02*
X02399D01*
X02116Y00222D02*
X02449D01*
X02116Y00232D02*
X02439D01*
X02116Y00242D02*
X02429D01*
X02194Y00008D02*
Y00477D01*
X02184Y00018D02*
Y00487D01*
X02224Y-00022D02*
Y00447D01*
X02204Y-00002D02*
Y00467D01*
X02214Y-00012D02*
Y00457D01*
X02144Y00058D02*
Y00527D01*
X02124Y00078D02*
Y00547D01*
X02134Y00068D02*
Y00537D01*
X02174Y00028D02*
Y00497D01*
X02154Y00048D02*
Y00517D01*
X02164Y00038D02*
Y00507D01*
X0223Y-00028D02*
X03013D01*
X02919Y-00007D02*
X02936Y00009D01*
X0222Y-00018D02*
X03023D01*
X02919Y-00008D02*
X03033D01*
X02929Y00002D02*
X03043D01*
X02984Y00105D02*
Y0012D01*
X02971Y00012D02*
X03045D01*
X02972Y00112D02*
X03045D01*
X02986Y00022D02*
X03045D01*
X02995Y00032D02*
X03045D01*
X03Y00042D02*
X03045D01*
X03003Y00052D02*
X03045D01*
X03004Y00062D02*
X03045D01*
X03003Y00072D02*
X03045D01*
X02994Y00094D02*
Y00131D01*
X03Y00082D02*
X03045D01*
X02995Y00092D02*
X03045D01*
X02987Y00102D02*
X03045D01*
X02986Y00122D02*
X03045D01*
X02949Y00163D02*
X02999D01*
X02995Y00132D02*
X03045D01*
X03Y00142D02*
X03045D01*
X02995Y00192D02*
X03045D01*
X02994Y00194D02*
Y00213D01*
X02987Y00202D02*
X03045D01*
X02972Y00213D02*
X03045D01*
X02972Y00212D02*
X03045D01*
X03014Y-00027D02*
Y00213D01*
X03024Y-00017D02*
Y00213D01*
X03034Y-00007D02*
Y00213D01*
X03044Y00003D02*
Y00213D01*
X03045Y00005D02*
Y00213D01*
X03003Y00152D02*
X03045D01*
X03004Y00065D02*
Y0016D01*
Y00165D02*
Y00213D01*
Y00162D02*
X03045D01*
X03Y00182D02*
X03045D01*
X03003Y00172D02*
X03045D01*
X-00026Y-0013D02*
Y-00084D01*
X-00016Y-0013D02*
Y-00087D01*
X-00059Y-00088D02*
X-00009D01*
X-00006Y-0013D02*
Y-00088D01*
X00004Y-0013D02*
Y-00088D01*
X00014Y-0013D02*
Y-00087D01*
X00024Y-0013D02*
Y-00085D01*
X-00059Y-0013D02*
Y-00065D01*
Y-00078D02*
X-00042D01*
X-00059Y00072D02*
X-0005D01*
X-00059Y00082D02*
X-00031D01*
X-00056Y-0013D02*
Y-00068D01*
X-00046Y-0013D02*
Y-00075D01*
X-00036Y-0013D02*
Y-0008D01*
X00034Y-0013D02*
Y-00081D01*
X00044Y-0013D02*
Y-00076D01*
X00054Y-0013D02*
Y-0007D01*
X00064Y-0013D02*
Y-00061D01*
X00074Y-0013D02*
Y-00048D01*
X00067Y-00058D02*
X00529D01*
X0008Y-00038D02*
X0052D01*
X00074Y-00048D02*
X00522D01*
X00071Y00052D02*
X00329D01*
X00077Y00042D02*
X00339D01*
X0005Y00072D02*
X00314D01*
X00062Y00062D02*
X00321D01*
X-00059Y00112D02*
X00299D01*
X-00059Y00122D02*
X00297D01*
X-00059Y00132D02*
X00297D01*
X-00059Y00142D02*
X00296D01*
X-00059Y00152D02*
X00296D01*
X-00059Y00162D02*
X00296D01*
X-00059Y00172D02*
X00296D01*
X-00059Y00182D02*
X00296D01*
X-00059Y00192D02*
X00296D01*
X-00059Y00202D02*
X00296D01*
X-00059Y00212D02*
X00296D01*
X-00059Y00222D02*
X00296D01*
X-00059Y00232D02*
X00296D01*
X-00059Y00242D02*
X00296D01*
X-00059Y00252D02*
X00296D01*
X-00059Y00092D02*
X00305D01*
X-00059Y00262D02*
X00296D01*
X-00059Y00102D02*
X00301D01*
X-00059Y00272D02*
X00296D01*
X00031Y00082D02*
X00309D01*
X-00059Y00282D02*
X00296D01*
X-00059Y00292D02*
X00296D01*
X-00059Y00302D02*
X00296D01*
X-00059Y00312D02*
X00296D01*
X-00059Y00322D02*
X00296D01*
X-00059Y00332D02*
X00296D01*
X-00059Y00342D02*
X00296D01*
X-00059Y00352D02*
X00296D01*
X-00059Y00362D02*
X00296D01*
X-00059Y00372D02*
X00296D01*
X00084Y-0013D02*
Y-00027D01*
X00384Y-0013D02*
Y00017D01*
X00394Y-0013D02*
Y00014D01*
X00404Y-0013D02*
Y00012D01*
X00414Y-0013D02*
Y00011D01*
X00424Y-0013D02*
Y0001D01*
X00434Y-0013D02*
Y00011D01*
X00304Y-0013D02*
Y00095D01*
X00314Y-0013D02*
Y00073D01*
X00324Y-0013D02*
Y00059D01*
X00334Y-0013D02*
Y00047D01*
X00344Y-0013D02*
Y00038D01*
X00354Y-0013D02*
Y00031D01*
X00364Y-0013D02*
Y00025D01*
X00374Y-0013D02*
Y0002D01*
X00524Y-0013D02*
Y-00051D01*
X00534Y-0013D02*
Y-00061D01*
X00544Y-0013D02*
Y-00065D01*
X00554Y-0013D02*
Y-00066D01*
X00564Y-0013D02*
Y-00066D01*
X00574Y-0013D02*
Y-00066D01*
X00584Y-0013D02*
Y-00066D01*
X00444Y-0013D02*
Y00012D01*
X00454Y-0013D02*
Y00014D01*
X00464Y-0013D02*
Y00017D01*
X00474Y-0013D02*
Y0002D01*
X00484Y-0013D02*
Y00025D01*
X00494Y-0013D02*
Y00031D01*
X00504Y-0013D02*
Y00038D01*
X00514Y-0013D02*
Y00047D01*
X00084Y-00028D02*
X0052D01*
X00086Y-00018D02*
X0052D01*
X00088Y-00008D02*
X0052D01*
X00087Y00012D02*
X004D01*
X00088Y00002D02*
X0052D01*
X00448Y00012D02*
X0052D01*
X00082Y00032D02*
X00352D01*
X00085Y00022D02*
X00369D01*
X0052Y-00037D02*
Y00054D01*
X00478Y00022D02*
X0052D01*
X00496Y00032D02*
X0052D01*
X00509Y00042D02*
X0052D01*
X00594Y-0013D02*
Y-00066D01*
X00604Y-0013D02*
Y-00066D01*
X00614Y-0013D02*
Y-00066D01*
X00624Y-0013D02*
Y-00066D01*
X00634Y-0013D02*
Y-00066D01*
X00644Y-0013D02*
Y-00066D01*
X00654Y-0013D02*
Y-00066D01*
X00664Y-0013D02*
Y-00066D01*
X00674Y-0013D02*
Y-00066D01*
X00684Y-0013D02*
Y-00066D01*
X00549D02*
X00674D01*
X00694Y-0013D02*
Y-00066D01*
X00704Y-0013D02*
Y-00066D01*
X00714Y-0013D02*
Y-00066D01*
X00724Y-0013D02*
Y-00066D01*
X00734Y-0013D02*
Y-00066D01*
X-00026Y00084D02*
Y01334D01*
X-00016Y00087D02*
Y01331D01*
X-00006Y00088D02*
Y0133D01*
X00024Y00085D02*
Y01333D01*
X00034Y00081D02*
Y01337D01*
X00004Y00088D02*
Y0133D01*
X00014Y00087D02*
Y01331D01*
X-00059Y00065D02*
Y01353D01*
X-00056Y00068D02*
Y0135D01*
X-00046Y00075D02*
Y01343D01*
X-00036Y0008D02*
Y01337D01*
X00064Y00061D02*
Y01357D01*
X00074Y00048D02*
Y0137D01*
X00044Y00076D02*
Y01341D01*
X00054Y0007D02*
Y01348D01*
X-00059Y00382D02*
X00296D01*
X-00059Y00392D02*
X00296D01*
X-00059Y00402D02*
X00296D01*
X-00059Y00412D02*
X00296D01*
X-00059Y00422D02*
X00296D01*
X-00059Y00432D02*
X00296D01*
X-00059Y00442D02*
X00296D01*
X00084Y00027D02*
Y01391D01*
X00094Y-0013D02*
Y01545D01*
X-00059Y00452D02*
X00296D01*
X-00059Y00462D02*
X00296D01*
X00104Y-0013D02*
Y01545D01*
X00114Y-0013D02*
Y01545D01*
X00124Y-0013D02*
Y01545D01*
X00134Y-0013D02*
Y01545D01*
X-00059Y00472D02*
X00296D01*
X-00059Y00482D02*
X00296D01*
X-00059Y00492D02*
X00296D01*
X-00059Y00502D02*
X00296D01*
X-00059Y00512D02*
X00296D01*
X-00059Y00522D02*
X00296D01*
X-00059Y00532D02*
X00296D01*
X-00059Y00542D02*
X00296D01*
X-00059Y00552D02*
X00296D01*
X-00059Y00562D02*
X00296D01*
X-00059Y00572D02*
X00296D01*
X-00059Y00582D02*
X00296D01*
X-00059Y00592D02*
X00296D01*
X-00059Y00602D02*
X00296D01*
X-00059Y00612D02*
X00296D01*
X-00059Y00622D02*
X00296D01*
X-00059Y00632D02*
X00296D01*
X-00059Y00642D02*
X00296D01*
X-00059Y00652D02*
X00296D01*
X-00059Y00662D02*
X00296D01*
X-00059Y00672D02*
X00296D01*
X-00059Y00682D02*
X00296D01*
X-00059Y00692D02*
X00296D01*
X-00059Y00702D02*
X00296D01*
X-00059Y00712D02*
X00296D01*
X-00059Y00722D02*
X00296D01*
X-00059Y00732D02*
X00296D01*
X-00059Y00742D02*
X00296D01*
X-00059Y00752D02*
X00296D01*
X-00059Y00762D02*
X00296D01*
X00144Y-0013D02*
Y01545D01*
X00154Y-0013D02*
Y01545D01*
X00164Y-0013D02*
Y01545D01*
X00174Y-0013D02*
Y01545D01*
X00184Y-0013D02*
Y01545D01*
X00194Y-0013D02*
Y01545D01*
X00204Y-0013D02*
Y01545D01*
X00214Y-0013D02*
Y01545D01*
X00224Y-0013D02*
Y01545D01*
X00234Y-0013D02*
Y01545D01*
X00244Y-0013D02*
Y01545D01*
X00254Y-0013D02*
Y01545D01*
X00264Y-0013D02*
Y01545D01*
X00274Y-0013D02*
Y01545D01*
X00284Y-0013D02*
Y01545D01*
X00296Y00138D02*
Y01263D01*
X00614Y00491D02*
Y00699D01*
X00551Y00491D02*
X00674D01*
X00624D02*
Y00688D01*
X00634Y00491D02*
Y00678D01*
X00644Y00491D02*
Y00668D01*
X00654Y00491D02*
Y00658D01*
X00294Y-0013D02*
Y01545D01*
X00551Y00491D02*
Y01263D01*
X00554Y00491D02*
Y01545D01*
X00564Y00491D02*
Y01361D01*
X00574Y00491D02*
Y01361D01*
X00584Y00491D02*
Y01361D01*
X00594Y00491D02*
Y01361D01*
X00604Y00491D02*
Y01361D01*
X00551Y00652D02*
X0066D01*
X00551Y00672D02*
X0064D01*
X00551Y00662D02*
X0065D01*
X00551Y00682D02*
X0063D01*
X00664Y00491D02*
Y00648D01*
X00551Y00702D02*
X00612D01*
X00551Y00692D02*
X0062D01*
X00551Y00712D02*
X00609D01*
X00551Y00722D02*
X00608D01*
X00551Y00732D02*
X00608D01*
X00551Y00742D02*
X00608D01*
Y00719D02*
Y01361D01*
X00551Y00752D02*
X00608D01*
X00551Y00592D02*
X0072D01*
X00551Y00582D02*
X0073D01*
X00551Y00612D02*
X007D01*
X00551Y00602D02*
X0071D01*
X00704Y00491D02*
Y00608D01*
X00714Y00491D02*
Y00598D01*
X00724Y00491D02*
Y00588D01*
X00734Y00491D02*
Y00578D01*
X00674Y00491D02*
Y00638D01*
X00551Y00622D02*
X0069D01*
X00551Y00642D02*
X0067D01*
X00551Y00632D02*
X0068D01*
X00684Y00491D02*
Y00628D01*
X00694Y00491D02*
Y00618D01*
X00729Y00757D02*
Y01516D01*
X00734Y00752D02*
Y01545D01*
X-00059Y-0013D02*
X01669D01*
X00744D02*
Y-00066D01*
X-00059Y-00128D02*
X01669D01*
X00754Y-0013D02*
Y-00066D01*
X00764Y-0013D02*
Y-00066D01*
X00774Y-0013D02*
Y-00066D01*
X00784Y-0013D02*
Y-00066D01*
X00794Y-0013D02*
Y-00066D01*
X00674D02*
X00799D01*
X00804Y-0013D02*
Y-00065D01*
X00814Y-0013D02*
Y-00062D01*
X00824Y-0013D02*
Y-00051D01*
X00827Y-00037D02*
Y00088D01*
X-00059Y-00118D02*
X01669D01*
X-00059Y-00108D02*
X01669D01*
X-00059Y-00098D02*
X01669D01*
X00009Y-00088D02*
X01669D01*
X00042Y-00078D02*
X01669D01*
X00056Y-00068D02*
X01669D01*
X00819Y-00058D02*
X01669D01*
X00826Y-00048D02*
X01669D01*
X00827Y-00038D02*
X01669D01*
X00827Y-00028D02*
X01669D01*
X00827Y-00018D02*
X01669D01*
X00827Y-00008D02*
X01669D01*
X00827Y00002D02*
X01669D01*
X00827Y00012D02*
X01669D01*
X00827Y00022D02*
X01669D01*
X00827Y00182D02*
X0113D01*
X00827Y00202D02*
X0111D01*
X00827Y00192D02*
X0112D01*
X00827Y00088D02*
Y00213D01*
Y00212D02*
X011D01*
X00827Y00232D02*
X0108D01*
X00827Y00222D02*
X0109D01*
X00827Y00252D02*
X0106D01*
X00827Y00242D02*
X0107D01*
X00827Y00272D02*
X0104D01*
X00827Y00262D02*
X0105D01*
X00827Y00292D02*
X0102D01*
X00827Y00282D02*
X0103D01*
X00827Y00312D02*
X01D01*
X00827Y00302D02*
X0101D01*
X00827Y00032D02*
X01669D01*
X00827Y00042D02*
X01669D01*
X00827Y00052D02*
X01669D01*
X00827Y00062D02*
X01669D01*
X00827Y00072D02*
X01669D01*
X00827Y00082D02*
X01669D01*
X00827Y00092D02*
X01669D01*
X00827Y00102D02*
X01656D01*
X00827Y00112D02*
X01656D01*
X00827Y00122D02*
X01656D01*
X00827Y00132D02*
X01656D01*
X00827Y00142D02*
X01656D01*
X00827Y00152D02*
X01656D01*
X00827Y00172D02*
X0114D01*
X00827Y00162D02*
X0115D01*
X00944Y-0013D02*
Y00368D01*
X00954Y-0013D02*
Y00358D01*
X00964Y-0013D02*
Y00348D01*
X00974Y-0013D02*
Y00338D01*
X00984Y-0013D02*
Y00328D01*
X00994Y-0013D02*
Y00318D01*
X01004Y-0013D02*
Y00308D01*
X00864Y-0013D02*
Y00448D01*
X00874Y-0013D02*
Y00438D01*
X00884Y-0013D02*
Y00428D01*
X00894Y-0013D02*
Y00418D01*
X00904Y-0013D02*
Y00408D01*
X00914Y-0013D02*
Y00398D01*
X00924Y-0013D02*
Y00388D01*
X00934Y-0013D02*
Y00378D01*
X01094Y-0013D02*
Y00218D01*
X01104Y-0013D02*
Y00208D01*
X01114Y-0013D02*
Y00198D01*
X01124Y-0013D02*
Y00188D01*
X01134Y-0013D02*
Y00178D01*
X01144Y-0013D02*
Y00168D01*
X01154Y-0013D02*
Y00159D01*
X01014Y-0013D02*
Y00298D01*
X01024Y-0013D02*
Y00288D01*
X01034Y-0013D02*
Y00278D01*
X01044Y-0013D02*
Y00268D01*
X01054Y-0013D02*
Y00258D01*
X01064Y-0013D02*
Y00248D01*
X01074Y-0013D02*
Y00238D01*
X01084Y-0013D02*
Y00228D01*
X00827Y00213D02*
Y00338D01*
Y00332D02*
X0098D01*
X00827Y00322D02*
X0099D01*
X00827Y00352D02*
X0096D01*
X00827Y00342D02*
X0097D01*
X00827Y00372D02*
X0094D01*
X00827Y00362D02*
X0095D01*
X00827Y00392D02*
X0092D01*
X00827Y00382D02*
X0093D01*
X00827Y00412D02*
X009D01*
X00827Y00402D02*
X0091D01*
X00827Y00432D02*
X0088D01*
X00827Y00422D02*
X0089D01*
X00827Y00452D02*
X0086D01*
X00827Y00442D02*
X0087D01*
X01174Y-0013D02*
Y00153D01*
X01184Y-0013D02*
Y00153D01*
X01194Y-0013D02*
Y00153D01*
X01204Y-0013D02*
Y00153D01*
X01214Y-0013D02*
Y00153D01*
X01224Y-0013D02*
Y00153D01*
X01234Y-0013D02*
Y00153D01*
X01244Y-0013D02*
Y00153D01*
X01164Y-0013D02*
Y00154D01*
X01174Y00153D02*
X01599D01*
X01254Y-0013D02*
Y00153D01*
X01264Y-0013D02*
Y00153D01*
X01232Y0039D02*
X0127D01*
X01232Y00422D02*
X0127D01*
X00551Y00512D02*
X008D01*
X00551Y00532D02*
X0078D01*
X00551Y00522D02*
X0079D01*
X00784Y00491D02*
Y00528D01*
X00674Y00491D02*
X00799D01*
X00794D02*
Y00518D01*
X00804Y00491D02*
Y00508D01*
X00551Y00552D02*
X0076D01*
X00551Y00542D02*
X0077D01*
X00551Y00572D02*
X0074D01*
X00551Y00562D02*
X0075D01*
X00744Y00491D02*
Y00568D01*
X00754Y00491D02*
Y00558D01*
X00764Y00491D02*
Y00548D01*
X00774Y00491D02*
Y00538D01*
X00827Y00338D02*
Y00463D01*
X0082Y00482D02*
X0083D01*
X00827Y00462D02*
X0085D01*
X00834Y-0013D02*
Y00478D01*
X00844Y-0013D02*
Y00468D01*
X00826Y00472D02*
X0084D01*
X00854Y-0013D02*
Y00458D01*
X00551Y00492D02*
X0082D01*
X00618Y00694D02*
X01149Y00163D01*
X00551Y00502D02*
X0081D01*
X00729Y00757D02*
X0092Y00566D01*
X00814Y00487D02*
Y00498D01*
X00824Y00477D02*
Y00488D01*
X00764Y00722D02*
Y01545D01*
X00744Y00742D02*
Y01545D01*
X00754Y00732D02*
Y01545D01*
X00794Y00692D02*
Y01545D01*
X00884Y00602D02*
X0092D01*
X00774Y00712D02*
Y01545D01*
X00784Y00702D02*
Y01545D01*
X00824Y00662D02*
Y01545D01*
X00834Y00652D02*
Y01545D01*
X00804Y00682D02*
Y01545D01*
X00814Y00672D02*
Y01545D01*
X00864Y00622D02*
Y01545D01*
X00874Y00612D02*
Y01545D01*
X00844Y00642D02*
Y01545D01*
X00854Y00632D02*
Y01545D01*
X00834Y00652D02*
X0092D01*
X00824Y00662D02*
X0092D01*
X00814Y00672D02*
X0092D01*
X00874Y00612D02*
X0092D01*
X00864Y00622D02*
X0092D01*
X00854Y00632D02*
X0092D01*
X00844Y00642D02*
X0092D01*
X00764Y00722D02*
X0092D01*
X00754Y00732D02*
X0092D01*
X00744Y00742D02*
X0092D01*
X00734Y00752D02*
X0092D01*
X00804Y00682D02*
X0092D01*
X00794Y00692D02*
X0092D01*
X00784Y00702D02*
X0092D01*
X00774Y00712D02*
X0092D01*
X01232Y00453D02*
X0127D01*
X00904Y00582D02*
X0092D01*
X00894Y00592D02*
X0092D01*
X01232Y00485D02*
X0127D01*
X01232Y00597D02*
X0127D01*
X01232Y00628D02*
X0127D01*
X01275Y00598D02*
Y00627D01*
X00904Y00582D02*
Y01545D01*
X00914Y00572D02*
Y01545D01*
X00884Y00602D02*
Y01545D01*
X00894Y00592D02*
Y01545D01*
X0092Y00566D02*
Y01199D01*
X01232Y0066D02*
X0127D01*
X01112Y00715D02*
X01134Y00693D01*
X01232Y0066D02*
Y00688D01*
X01275Y00492D02*
X01378D01*
X01275Y00582D02*
X01468D01*
X01275Y00592D02*
X01478D01*
X01275Y00612D02*
X01459D01*
X01275Y00602D02*
X01469D01*
X01275Y00632D02*
X01439D01*
X01275Y00622D02*
X01449D01*
X01275Y0063D02*
Y00661D01*
Y0063D02*
Y00661D01*
Y00652D02*
X01419D01*
X01275Y00642D02*
X01429D01*
X01275Y00661D02*
Y00693D01*
Y00662D02*
X01409D01*
X01275Y00682D02*
X01389D01*
X01275Y00672D02*
X01399D01*
X01134Y00693D02*
X0119D01*
X01124Y00703D02*
Y00744D01*
X01134Y00693D02*
Y00744D01*
X01144Y00693D02*
Y00744D01*
X01154Y00693D02*
Y00744D01*
X01164Y00693D02*
Y00744D01*
X01174Y00693D02*
Y00744D01*
X01112Y00715D02*
Y00774D01*
X01116Y00744D02*
X01205D01*
X01116D02*
Y00774D01*
X01161Y00749D02*
Y00777D01*
X01184Y00693D02*
Y00744D01*
X01194Y00693D02*
Y00744D01*
X01204Y00693D02*
Y00744D01*
X01205D02*
Y0081D01*
X01115Y00712D02*
X01359D01*
X01125Y00702D02*
X01369D01*
X01112Y00732D02*
X01339D01*
X01112Y00722D02*
X01349D01*
X0119Y00693D02*
X01208D01*
X0119D02*
X01208D01*
X01275*
Y00692D02*
X01379D01*
X01224Y00693D02*
Y00786D01*
X01234Y00693D02*
Y00786D01*
X01205Y00752D02*
X01321D01*
X01112Y00742D02*
X01329D01*
X01244Y00693D02*
Y00786D01*
X01254Y00693D02*
Y00786D01*
X01264Y00693D02*
Y00786D01*
X01274Y00693D02*
Y00786D01*
X-00059Y00772D02*
X00296D01*
X-00059Y00782D02*
X00296D01*
X-00059Y00792D02*
X00296D01*
X-00059Y00802D02*
X00296D01*
X-00059Y00812D02*
X00296D01*
X-00059Y00822D02*
X00296D01*
X-00059Y00832D02*
X00296D01*
X-00059Y00842D02*
X00296D01*
X-00059Y00852D02*
X00296D01*
X-00059Y00862D02*
X00296D01*
X-00059Y00872D02*
X00296D01*
X-00059Y00882D02*
X00296D01*
X-00059Y00892D02*
X00296D01*
X-00059Y00902D02*
X00296D01*
X-00059Y00912D02*
X00296D01*
X00551Y00762D02*
X00608D01*
X00551Y00772D02*
X00608D01*
X00551Y00782D02*
X00608D01*
X00551Y00792D02*
X00608D01*
X00551Y00802D02*
X00608D01*
X00551Y00812D02*
X00608D01*
X00551Y00822D02*
X00608D01*
X00551Y00832D02*
X00608D01*
X00551Y00842D02*
X00608D01*
X00551Y00852D02*
X00608D01*
X00551Y00862D02*
X00608D01*
X00551Y00872D02*
X00608D01*
X00551Y00882D02*
X00608D01*
X00551Y00892D02*
X00608D01*
X00551Y00902D02*
X00608D01*
X-00059Y00922D02*
X00296D01*
X-00059Y00932D02*
X00296D01*
X-00059Y00942D02*
X00296D01*
X-00059Y00952D02*
X00296D01*
X-00059Y00962D02*
X00296D01*
X-00059Y00972D02*
X00296D01*
X-00059Y00982D02*
X00296D01*
X-00059Y00992D02*
X00296D01*
X-00059Y01002D02*
X00296D01*
X-00059Y01012D02*
X00296D01*
X-00059Y01022D02*
X00296D01*
X-00059Y01032D02*
X00296D01*
X-00059Y01042D02*
X00296D01*
X-00059Y01052D02*
X00296D01*
X-00059Y01062D02*
X00296D01*
X00551Y00912D02*
X00608D01*
X-00059Y01072D02*
X00296D01*
X-00059Y01082D02*
X00296D01*
X00551Y00922D02*
X00608D01*
X00551Y00932D02*
X00608D01*
X00551Y00942D02*
X00608D01*
X00551Y00952D02*
X00608D01*
X-00059Y01092D02*
X00296D01*
X-00059Y01102D02*
X00296D01*
X-00059Y01112D02*
X00296D01*
X-00059Y01122D02*
X00296D01*
X-00059Y01132D02*
X00296D01*
X-00059Y01142D02*
X00296D01*
X-00059Y01152D02*
X00296D01*
X-00059Y01162D02*
X00296D01*
X00729Y00762D02*
X0092D01*
X00729Y00772D02*
X0092D01*
X00729Y00782D02*
X0092D01*
X00729Y00792D02*
X0092D01*
X00729Y00802D02*
X0092D01*
X00729Y00812D02*
X0092D01*
X00729Y00822D02*
X0092D01*
X00551Y00962D02*
X00608D01*
X00551Y00972D02*
X00608D01*
X00551Y00982D02*
X00608D01*
X00551Y00992D02*
X00608D01*
X00729Y00832D02*
X0092D01*
X00729Y00842D02*
X0092D01*
X00551Y01002D02*
X00608D01*
X00729Y00852D02*
X0092D01*
X00729Y00862D02*
X0092D01*
X00729Y00872D02*
X0092D01*
X00729Y00882D02*
X0092D01*
X00729Y00892D02*
X0092D01*
X00729Y00902D02*
X0092D01*
X00729Y00912D02*
X0092D01*
X00729Y00922D02*
X0092D01*
X00729Y00932D02*
X0092D01*
X00729Y00942D02*
X0092D01*
X00729Y00952D02*
X0092D01*
X00729Y00962D02*
X0092D01*
X00729Y00972D02*
X0092D01*
X00729Y00982D02*
X0092D01*
X00729Y00992D02*
X0092D01*
X00729Y01002D02*
X0092D01*
X00551Y01012D02*
X00608D01*
X00551Y01022D02*
X00608D01*
X00551Y01032D02*
X00608D01*
X00551Y01042D02*
X00608D01*
X00551Y01052D02*
X00608D01*
X00551Y01062D02*
X00608D01*
X00551Y01072D02*
X00608D01*
X00551Y01082D02*
X00608D01*
X00551Y01092D02*
X00608D01*
X00551Y01102D02*
X00608D01*
X00551Y01112D02*
X00608D01*
X00551Y01122D02*
X00608D01*
X00551Y01132D02*
X00608D01*
X00551Y01142D02*
X00608D01*
X00551Y01152D02*
X00608D01*
X00729Y01012D02*
X0092D01*
X00729Y01022D02*
X0092D01*
X00729Y01032D02*
X0092D01*
X00729Y01042D02*
X0092D01*
X00729Y01052D02*
X0092D01*
X00729Y01062D02*
X0092D01*
X00729Y01072D02*
X0092D01*
X00729Y01082D02*
X0092D01*
X00729Y01092D02*
X0092D01*
X00729Y01102D02*
X0092D01*
X00551Y01162D02*
X00608D01*
X00729Y01112D02*
X0092D01*
X00729Y01122D02*
X0092D01*
X00729Y01132D02*
X0092D01*
X00729Y01142D02*
X0092D01*
X00729Y01152D02*
X0092D01*
X-00059Y01172D02*
X00296D01*
X-00059Y01182D02*
X00296D01*
X-00059Y01192D02*
X00296D01*
X-00059Y01202D02*
X00296D01*
X-00059Y01212D02*
X00296D01*
X-00059Y01222D02*
X00296D01*
X-00059Y01232D02*
X00296D01*
X-00059Y01242D02*
X00296D01*
X-00059Y01252D02*
X00296D01*
X-00059Y01262D02*
X00296D01*
X-00059Y01272D02*
X00297D01*
X-00059Y01332D02*
X-00022D01*
X-00059Y01342D02*
X-00046D01*
X-00059Y01282D02*
X00298D01*
X-00059Y01292D02*
X003D01*
X-00059Y01302D02*
X00303D01*
X-00059Y01312D02*
X00307D01*
X-00059Y01322D02*
X00311D01*
X00022Y01332D02*
X00317D01*
X00046Y01342D02*
X00324D01*
X00059Y01352D02*
X00333D01*
X00068Y01362D02*
X00344D01*
X00075Y01372D02*
X00359D01*
X00081Y01382D02*
X0038D01*
X00084Y01392D02*
X00561D01*
X00087Y01402D02*
X00561D01*
X00088Y01412D02*
X00561D01*
X00088Y01422D02*
X00561D01*
X-00059Y01483D02*
Y01545D01*
Y01492D02*
X-00046D01*
X-00059Y01502D02*
X-00024D01*
X-00056Y01485D02*
Y01545D01*
X-00046Y01493D02*
Y01545D01*
X-00036Y01498D02*
Y01545D01*
X-00026Y01502D02*
Y01545D01*
X-00016Y01504D02*
Y01545D01*
X-00006Y01505D02*
Y01545D01*
X00004Y01506D02*
Y01545D01*
X00014Y01505D02*
Y01545D01*
X00044Y01494D02*
Y01545D01*
X00054Y01487D02*
Y01545D01*
X00024Y01502D02*
Y01545D01*
X00034Y01499D02*
Y01545D01*
X0006Y01482D02*
X00561D01*
X00046Y01492D02*
X00561D01*
X00024Y01502D02*
X00561D01*
X00084Y01442D02*
X00561D01*
X00081Y01452D02*
X00561D01*
X00076Y01462D02*
X00561D01*
X00069Y01472D02*
X00561D01*
X-00059Y01512D02*
X00561D01*
X-00059Y01522D02*
X00561D01*
X-00059Y01532D02*
X00561D01*
X-00059Y01542D02*
X00565D01*
X00074Y01466D02*
Y01545D01*
X00084Y01444D02*
Y01545D01*
X00064Y01478D02*
Y01545D01*
X-00059D02*
X00567D01*
X00551Y01172D02*
X00608D01*
X00551Y01182D02*
X00608D01*
X00551Y01192D02*
X00608D01*
X00551Y01202D02*
X00608D01*
X00551Y01212D02*
X00608D01*
X00551Y01222D02*
X00608D01*
X00551Y01232D02*
X00608D01*
X00304Y01306D02*
Y01545D01*
X00314Y01327D02*
Y01545D01*
X00324Y01342D02*
Y01545D01*
X00534Y01327D02*
Y01545D01*
X00544Y01306D02*
Y01545D01*
X00334Y01353D02*
Y01545D01*
X00524Y01342D02*
Y01545D01*
X00551Y01242D02*
X00608D01*
X00551Y01252D02*
X00608D01*
X00551Y01262D02*
X00608D01*
X00729Y01162D02*
X0092D01*
X00729Y01172D02*
X0092D01*
X00551Y01272D02*
X00608D01*
X00729Y01182D02*
X0092D01*
X00537Y01322D02*
X00608D01*
X00531Y01332D02*
X00608D01*
X00523Y01342D02*
X00608D01*
X00515Y01352D02*
X00608D01*
X0055Y01282D02*
X00608D01*
X00548Y01292D02*
X00608D01*
X00545Y01302D02*
X00608D01*
X00541Y01312D02*
X00608D01*
X00344Y01362D02*
Y01545D01*
X00354Y01369D02*
Y01545D01*
X00364Y01375D02*
Y01545D01*
X00374Y0138D02*
Y01545D01*
X00384Y01384D02*
Y01545D01*
X00394Y01387D02*
Y01545D01*
X00404Y01389D02*
Y01545D01*
X00414Y0139D02*
Y01545D01*
X00444Y01389D02*
Y01545D01*
X00424Y0139D02*
Y01545D01*
X00434Y0139D02*
Y01545D01*
X00474Y0138D02*
Y01545D01*
X00484Y01375D02*
Y01545D01*
X00454Y01387D02*
Y01545D01*
X00464Y01384D02*
Y01545D01*
X00503Y01362D02*
X00561D01*
X00489Y01372D02*
X00561D01*
X00468Y01382D02*
X00561D01*
X00087Y01432D02*
X00561D01*
Y01361D02*
Y01403D01*
Y01361D02*
X00608D01*
X00561Y01403D02*
Y01509D01*
Y01404D02*
Y01526D01*
X00504Y01362D02*
Y01545D01*
X00514Y01353D02*
Y01545D01*
X00494Y01369D02*
Y01545D01*
X00724Y01534D02*
Y01545D01*
X01121Y00777D02*
X01161D01*
X01149Y00805D02*
X01185D01*
X01149Y00828D02*
X01185D01*
X0119Y0081D02*
Y00821D01*
Y0081D02*
Y00821D01*
Y00836*
Y00821D02*
Y00836D01*
Y00821D02*
Y00836D01*
Y00845*
X01149Y00852D02*
X01185D01*
X01149Y00876D02*
X01185D01*
X0119Y00836D02*
Y00845D01*
Y00859*
Y00845D02*
Y00859D01*
Y00845D02*
Y00859D01*
X01161Y00777D02*
X012D01*
X0119Y0081D02*
X01205D01*
X0119Y00812D02*
X01218D01*
X0119Y00822D02*
X01218D01*
X0119Y00832D02*
X01218D01*
X0119Y00842D02*
X01218D01*
X0119Y00852D02*
X01218D01*
X0119Y00859D02*
Y00868D01*
Y00859D02*
Y00868D01*
Y00862D02*
X01218D01*
X0119Y00872D02*
X01218D01*
X0119Y00868D02*
Y00883D01*
Y00868D02*
Y00883D01*
Y00868D02*
Y00883D01*
Y00882D02*
X01218D01*
X0119Y00883D02*
Y00892D01*
X01149Y00899D02*
X01185D01*
X0119Y00883D02*
Y00892D01*
Y00907*
Y00892D02*
Y00907D01*
Y00892D02*
Y00907D01*
Y00916*
X01149Y00923D02*
X01185D01*
X01149Y00946D02*
X01185D01*
X01149Y0097D02*
X01185D01*
X01149Y00994D02*
X01185D01*
X0119Y00907D02*
Y00916D01*
Y0093*
Y00916D02*
Y0093D01*
Y00916D02*
Y0093D01*
Y00892D02*
X01218D01*
X0119Y00902D02*
X01218D01*
X0119Y00912D02*
X01218D01*
X0119Y00922D02*
X01218D01*
X0119Y00932D02*
X01218D01*
X0119Y00942D02*
X01218D01*
X0119Y00952D02*
X01218D01*
X0119Y0093D02*
Y00954D01*
Y0093D02*
Y00954D01*
Y00939D02*
Y00954D01*
Y00963D01*
Y00954D02*
Y00963D01*
Y00962D02*
X01218D01*
X0119Y00963D02*
Y00977D01*
Y00972D02*
X01218D01*
Y00786D02*
Y00809D01*
X01205Y00792D02*
X01218D01*
X01205Y00802D02*
X01218D01*
Y00809D02*
Y00833D01*
Y00809D02*
Y00833D01*
Y00847*
Y00833D02*
Y00847D01*
X01194Y0081D02*
Y01004D01*
X01204Y0081D02*
Y00999D01*
X01218Y00833D02*
Y00847D01*
Y00857*
Y00847D02*
Y00857D01*
Y00871*
Y00857D02*
Y00871D01*
Y00857D02*
Y00871D01*
X01205Y00762D02*
X01318D01*
X01218Y00786D02*
X013D01*
X01205Y00782D02*
X01306D01*
X01259Y00791D02*
Y00817D01*
X01223D02*
X01259D01*
X01218Y00871D02*
Y0088D01*
X01259Y00817D02*
X01295D01*
X01218Y00871D02*
Y0088D01*
Y00895*
Y0088D02*
Y00895D01*
Y0088D02*
Y00895D01*
Y00904*
Y00895D02*
Y00904D01*
Y00918*
Y00904D02*
Y00918D01*
Y00904D02*
Y00918D01*
Y00927*
Y00918D02*
Y00927D01*
Y00942*
Y00927D02*
Y00942D01*
Y00927D02*
Y00975D01*
Y00942D02*
Y00951D01*
X0119Y00963D02*
Y00977D01*
Y00963D02*
Y00977D01*
Y00986D01*
Y01001*
Y00977D02*
Y01007D01*
Y00986D02*
Y01001D01*
X01218Y00951D02*
Y00966D01*
X01223Y00911D02*
X01259D01*
X01218Y00951D02*
Y00966D01*
Y00975*
X01223Y00935D02*
X01259D01*
Y00911D02*
X01295D01*
X01223Y00958D02*
X01259D01*
Y00935D02*
X01295D01*
X01218Y00975D02*
Y00989D01*
Y00975D02*
Y00989D01*
X0119Y00982D02*
X01218D01*
X0119Y00992D02*
X01218D01*
Y00975D02*
Y00989D01*
X01223Y00982D02*
X01259D01*
X01218Y00989D02*
Y00998D01*
Y00989D02*
Y00998D01*
X00729Y01192D02*
X0092D01*
X00729Y01202D02*
X00921D01*
X00729Y01212D02*
X00924D01*
X00729Y01222D02*
X00932D01*
X00729Y01232D02*
X00942D01*
X00924Y01213D02*
Y01545D01*
X00729Y01242D02*
X00952D01*
X00729Y01252D02*
X00962D01*
X00729Y01262D02*
X00972D01*
X00934Y01224D02*
Y01545D01*
X00944Y01234D02*
Y01545D01*
X00954Y01244D02*
Y01545D01*
X00964Y01254D02*
Y01545D01*
X00977Y01168D02*
Y01187D01*
Y01182D02*
X00992D01*
X00983Y01192D02*
X01002D01*
X00984Y01174D02*
Y01194D01*
X00994Y01184D02*
Y01204D01*
X01004Y01194D02*
Y01214D01*
X00993Y01202D02*
X01012D01*
X00929Y01219D02*
X01054Y01345D01*
X00977Y01168D02*
X01085Y01275D01*
X00974Y01264D02*
Y01545D01*
X00729Y01272D02*
X00982D01*
X01014Y01204D02*
Y01224D01*
X00977Y01187D02*
X01086Y01296D01*
X01003Y01212D02*
X01022D01*
X01013Y01222D02*
X01032D01*
X00729Y01282D02*
X00992D01*
X00729Y01292D02*
X01002D01*
X00729Y01302D02*
X01012D01*
X00729Y01312D02*
X01022D01*
X00729Y01322D02*
X01032D01*
X00729Y01332D02*
X01042D01*
X00729Y01342D02*
X01052D01*
X00729Y01352D02*
X01069D01*
X00729Y01362D02*
X01108D01*
X00729Y01372D02*
X01108D01*
X00729Y01382D02*
X01108D01*
X00984Y01274D02*
Y01545D01*
X00994Y01284D02*
Y01545D01*
X01004Y01294D02*
Y01545D01*
X01014Y01304D02*
Y01545D01*
X00729Y01392D02*
X01108D01*
X00729Y01402D02*
X01108D01*
X00729Y01412D02*
X01108D01*
X00729Y01422D02*
X01108D01*
X00729Y01432D02*
X01116D01*
X00729Y01442D02*
X01116D01*
X00729Y01452D02*
X01116D01*
X00729Y01462D02*
X01222D01*
X00729Y01472D02*
X01232D01*
X00729Y01482D02*
X01242D01*
X00725Y01532D02*
X03005D01*
X00714Y01545D02*
X03005D01*
X00729Y01492D02*
X01252D01*
X00729Y01502D02*
X01262D01*
X00729Y01512D02*
X01274D01*
X00728Y01522D02*
X03005D01*
X01024Y01214D02*
Y01234D01*
X01023Y01232D02*
X01042D01*
X01033Y01242D02*
X01052D01*
X01034Y01224D02*
Y01244D01*
X01044Y01234D02*
Y01254D01*
X01054Y01244D02*
Y01264D01*
X01043Y01252D02*
X01062D01*
X01024Y01314D02*
Y01545D01*
X01053Y01262D02*
X01072D01*
X01034Y01324D02*
Y01545D01*
X01044Y01334D02*
Y01545D01*
X01064Y01254D02*
Y01274D01*
X01074Y01264D02*
Y01284D01*
X01054Y01344D02*
Y01545D01*
X01064Y01351D02*
Y01545D01*
X01063Y01272D02*
X01082D01*
X01084Y01274D02*
Y01294D01*
X01073Y01282D02*
X01097D01*
X01108Y01284D02*
Y01294D01*
X01083Y01292D02*
X01108D01*
X01074Y01353D02*
Y01545D01*
Y01353D02*
X01108D01*
X01094Y01281D02*
Y01296D01*
X01104Y01283D02*
Y01296D01*
X01108Y01284D02*
Y01296D01*
X01086D02*
X01108D01*
Y01353D02*
Y01379D01*
Y01353D02*
Y01379D01*
Y01364D02*
Y01379D01*
Y01403D01*
Y01379D02*
Y01403D01*
Y01426*
X01116D02*
Y01456D01*
X01084Y01353D02*
Y01545D01*
X01094Y01353D02*
Y01545D01*
X01104Y01353D02*
Y01545D01*
X01124Y01456D02*
Y01545D01*
X01134Y01456D02*
Y01545D01*
X01144Y01456D02*
Y01545D01*
X01154Y01456D02*
Y01545D01*
X01164Y01456D02*
Y01545D01*
X01174Y01456D02*
Y01545D01*
X01116Y01456D02*
X01205D01*
X01184D02*
Y01545D01*
X01194Y01456D02*
Y01545D01*
X01205Y01446D02*
Y01456D01*
Y01446D02*
X01268Y01508D01*
X01204Y01456D02*
Y01545D01*
X01214Y01454D02*
Y01545D01*
X01224Y01464D02*
Y01545D01*
X01234Y01474D02*
Y01545D01*
X01244Y01484D02*
Y01545D01*
X01254Y01494D02*
Y01545D01*
X01264Y01504D02*
Y01545D01*
X01274Y01513D02*
Y01545D01*
Y-0013D02*
Y00153D01*
X01284Y-0013D02*
Y00153D01*
X01275Y00366D02*
X01306D01*
X01294Y-0013D02*
Y00153D01*
X01304Y-0013D02*
Y00153D01*
X01314Y-0013D02*
Y00153D01*
X01324Y-0013D02*
Y00153D01*
X01275Y00366D02*
Y00389D01*
Y00372D02*
X01306D01*
X01275Y00389D02*
Y00421D01*
Y00382D02*
X01306D01*
X01284Y00366D02*
Y00509D01*
X01294Y00366D02*
Y00509D01*
X01304Y00366D02*
Y00509D01*
X01306Y00366D02*
Y00428D01*
X01334Y-0013D02*
Y00153D01*
X01344Y-0013D02*
Y00153D01*
X01349Y00323D02*
X01414D01*
X01354Y-0013D02*
Y00153D01*
X01364Y-0013D02*
Y00153D01*
X01374Y-0013D02*
Y00153D01*
X01359Y00332D02*
X01414D01*
X01364Y00323D02*
Y00337D01*
X01349Y00323D02*
X01367Y0034D01*
X01374Y00323D02*
Y00348D01*
X01369Y00342D02*
X01414D01*
X01372Y00348D02*
X01386D01*
X01372D02*
X01386D01*
X01275Y00392D02*
X01306D01*
X01275Y00402D02*
X01306D01*
X01275Y00412D02*
X01306D01*
X01275Y00389D02*
Y00421D01*
Y00423D02*
Y00452D01*
X01306Y00428D02*
X01319D01*
X01275Y00432D02*
X01321D01*
X01275Y00423D02*
Y00452D01*
Y00455D02*
Y00486D01*
Y00455D02*
Y00486D01*
Y00502D02*
X01306D01*
X01314Y00428D02*
Y00498D01*
X01324Y00438D02*
Y00498D01*
X01275Y00486D02*
Y00509D01*
X01306Y00498D02*
Y00509D01*
X01275Y00442D02*
X01328D01*
X01275Y00462D02*
X01348D01*
X01275Y00472D02*
X01358D01*
X01334Y00448D02*
Y00498D01*
X01275Y00482D02*
X01368D01*
X01344Y00458D02*
Y00498D01*
X01326Y0044D02*
X01384Y00498D01*
X01354Y00468D02*
Y00498D01*
X01306D02*
X01361D01*
X01364Y00478D02*
Y00498D01*
X01374Y00488D02*
Y00498D01*
X01361D02*
X01384D01*
X01361D02*
X01384D01*
Y-0013D02*
Y00153D01*
X01394Y-0013D02*
Y00153D01*
X01404Y-0013D02*
Y00153D01*
X01414Y-0013D02*
Y00153D01*
X01424Y-0013D02*
Y00153D01*
X01434Y-0013D02*
Y00153D01*
X01444Y-0013D02*
Y00153D01*
X01454Y-0013D02*
Y00153D01*
X01464Y-0013D02*
Y00153D01*
X01474Y-0013D02*
Y00153D01*
X01484Y-0013D02*
Y00153D01*
X01494Y-0013D02*
Y00153D01*
X01504Y-0013D02*
Y00153D01*
X01514Y-0013D02*
Y00153D01*
X01524Y-0013D02*
Y00153D01*
X01534Y-0013D02*
Y00153D01*
X01544Y-0013D02*
Y00153D01*
X01554Y-0013D02*
Y00153D01*
X01564Y-0013D02*
Y00153D01*
X01574Y-0013D02*
Y00153D01*
X01664Y-0013D02*
Y00098D01*
X01669Y-0013D02*
Y00098D01*
X01584Y-0013D02*
Y00153D01*
X01594Y-0013D02*
Y00153D01*
X01604Y-0013D02*
Y00153D01*
X01614Y-0013D02*
Y00156D01*
X01624Y-0013D02*
Y00163D01*
X01634Y-0013D02*
Y00173D01*
X01644Y-0013D02*
Y00183D01*
X01654Y-0013D02*
Y00193D01*
X01384Y00323D02*
Y00348D01*
X01394Y00323D02*
Y00348D01*
X01386D02*
X01414D01*
X01404Y00323D02*
Y00348D01*
X01414Y00323D02*
Y00348D01*
X01401Y00353D02*
Y00388D01*
X01414Y00323D02*
Y00348D01*
X01401Y00388D02*
Y00423D01*
X01394Y00428D02*
X01439D01*
X01404D02*
Y00437D01*
X01394Y00428D02*
X01439Y00472D01*
X01414Y00428D02*
Y00447D01*
X01424Y00428D02*
Y00457D01*
X01434Y00428D02*
Y00467D01*
X01439Y00428D02*
Y00472D01*
X01623Y00162D02*
X01656D01*
X01633Y00172D02*
X01656D01*
Y00098D02*
Y00178D01*
Y00098D02*
X01669D01*
X01656Y00178D02*
X0167D01*
X01643Y00182D02*
X0167D01*
X01399Y00432D02*
X01439D01*
X01409Y00442D02*
X01439D01*
X01419Y00452D02*
X01439D01*
X01429Y00462D02*
X01439D01*
X01664Y00178D02*
Y00203D01*
X01624Y00163D02*
X0167Y0021D01*
Y00178D02*
Y0021D01*
X01653Y00192D02*
X0167D01*
X01275Y00509D02*
X01306D01*
X01275Y00566D02*
X01306D01*
X01275Y00572D02*
X01306D01*
X01275Y00566D02*
Y00596D01*
Y00566D02*
Y00596D01*
X01306Y00566D02*
Y00578D01*
X01361*
X01284Y00566D02*
Y00786D01*
X01294Y00566D02*
Y00786D01*
X01314Y00578D02*
Y00773D01*
X01324Y00578D02*
Y00748D01*
X01334Y00578D02*
Y00737D01*
X01344Y00578D02*
Y00727D01*
X01354Y00578D02*
Y00717D01*
X01364Y00578D02*
Y00707D01*
X01361Y00578D02*
X01386D01*
X01361D02*
X01386D01*
X01441*
X01401Y00538D02*
Y00573D01*
X01441Y00556D02*
Y00578D01*
Y00572D02*
X01458D01*
X01441Y00556D02*
X01479Y00593D01*
X01374Y00578D02*
Y00697D01*
X01384Y00578D02*
Y00687D01*
X01394Y00578D02*
Y00677D01*
X01404Y00578D02*
Y00667D01*
X01444Y00558D02*
Y00627D01*
X01454Y00568D02*
Y00617D01*
X01414Y00578D02*
Y00657D01*
X01424Y00578D02*
Y00647D01*
X01434Y00578D02*
Y00637D01*
X01275Y00598D02*
Y00627D01*
X01464Y00578D02*
Y00607D01*
X01474Y00588D02*
Y00597D01*
X01464Y00688D02*
Y00759D01*
X01474Y00678D02*
Y00758D01*
X01414Y00738D02*
Y00773D01*
X01394Y00758D02*
Y00773D01*
X01404Y00748D02*
Y00773D01*
X01444Y00708D02*
Y0078D01*
X01454Y00698D02*
Y00765D01*
X01424Y00728D02*
Y00773D01*
X01434Y00718D02*
Y00773D01*
X0145Y00702D02*
X01619D01*
X0144Y00712D02*
X01619D01*
X0143Y00722D02*
X01619D01*
X0149Y00662D02*
X01619D01*
X0148Y00672D02*
X01619D01*
X0147Y00682D02*
X01619D01*
X0146Y00692D02*
X01619D01*
X01326Y00745D02*
X01479Y00593D01*
X01379Y00773D02*
X0152Y00632D01*
X0141Y00742D02*
X01619D01*
X014Y00752D02*
X01619D01*
X01484Y00668D02*
Y00758D01*
X0142Y00732D02*
X01619D01*
X01474Y00758D02*
X01619D01*
X01524Y00632D02*
Y00758D01*
X01534Y00632D02*
Y00758D01*
X01624Y00632D02*
Y00658D01*
X01634Y00632D02*
Y00658D01*
X01644Y00632D02*
Y00658D01*
X01654Y00632D02*
Y00658D01*
X01664Y00632D02*
Y00658D01*
X01544Y00632D02*
Y00758D01*
X01554Y00632D02*
Y00758D01*
X01564Y00632D02*
Y00758D01*
X01574Y00632D02*
Y00758D01*
X01584Y00632D02*
Y00758D01*
X01594Y00632D02*
Y00758D01*
X01604Y00632D02*
Y00758D01*
X01614Y00632D02*
Y00758D01*
X01674Y00632D02*
Y00658D01*
X01684Y00632D02*
Y00658D01*
X01694Y00632D02*
Y00658D01*
X01704Y00632D02*
Y00658D01*
X01714Y00632D02*
Y00658D01*
X01724Y00632D02*
Y00658D01*
X01814Y00632D02*
Y0073D01*
X01734Y00632D02*
Y00758D01*
X01744Y00632D02*
Y00758D01*
X01754Y00632D02*
Y00758D01*
X01764Y00632D02*
Y00758D01*
X01774Y00632D02*
Y00758D01*
X01784Y00632D02*
Y00758D01*
X01794Y00632D02*
Y0075D01*
X01804Y00632D02*
Y0074D01*
X01514Y00638D02*
Y00758D01*
X01494Y00658D02*
Y00758D01*
X01504Y00648D02*
Y00758D01*
X01619Y00658D02*
Y00758D01*
X01674Y00663D02*
Y00708D01*
X01624D02*
X01674D01*
Y00753*
X01644Y00758D02*
Y00768D01*
X01654Y00758D02*
Y00768D01*
X01664Y00758D02*
Y00768D01*
X01674Y00758D02*
Y00768D01*
X01684Y00758D02*
Y00768D01*
X01694Y00758D02*
Y00768D01*
X01619Y00658D02*
X01729D01*
Y00702D02*
X01842D01*
X01674Y00708D02*
X01724D01*
X01729Y00712D02*
X01832D01*
X01824Y00632D02*
Y0072D01*
X01834Y00632D02*
Y0071D01*
X01729Y00732D02*
X01812D01*
X01729Y00722D02*
X01822D01*
X01704Y00758D02*
Y00768D01*
X01619Y00758D02*
X01729D01*
Y00658D02*
Y00758D01*
Y00742D02*
X01802D01*
X01729Y00758D02*
X01787D01*
X01729Y00752D02*
X01792D01*
X02654Y00123D02*
Y0031D01*
X02634Y00143D02*
Y0033D01*
X02644Y00133D02*
Y0032D01*
X02684Y00093D02*
Y0028D01*
X02694Y00091D02*
Y0027D01*
X02664Y00113D02*
Y003D01*
X02674Y00103D02*
Y0029D01*
X02574Y00203D02*
Y0039D01*
X02584Y00193D02*
Y0038D01*
X02554Y00223D02*
Y0041D01*
X02564Y00213D02*
Y004D01*
X02614Y00163D02*
Y0035D01*
X02624Y00153D02*
Y0034D01*
X02594Y00183D02*
Y0037D01*
X02604Y00173D02*
Y0036D01*
X02655Y00122D02*
X02811D01*
X02635Y00142D02*
X02798D01*
X02645Y00132D02*
X02803D01*
X02686Y00091D02*
X02802D01*
X02685Y00092D02*
X02803D01*
X02675Y00102D02*
X02811D01*
X02665Y00112D02*
X02825D01*
X02585Y00192D02*
X02803D01*
X02575Y00202D02*
X02811D01*
X02555Y00222D02*
X02811D01*
X02565Y00212D02*
X02825D01*
X02625Y00152D02*
X02795D01*
X02615Y00162D02*
X02794D01*
X02605Y00172D02*
X02795D01*
X02595Y00182D02*
X02798D01*
X02375Y00402D02*
X02562D01*
X02355Y00422D02*
X02542D01*
X02365Y00412D02*
X02552D01*
X02534Y00243D02*
Y0043D01*
X02544Y00233D02*
Y0042D01*
X02385Y00392D02*
X02572D01*
X02395Y00382D02*
X02582D01*
X02335Y00442D02*
X02522D01*
X02345Y00432D02*
X02532D01*
X02315Y00462D02*
X02502D01*
X02325Y00452D02*
X02512D01*
X02514Y00263D02*
Y0045D01*
X02524Y00253D02*
Y0044D01*
X02494Y00283D02*
Y0047D01*
X02504Y00273D02*
Y0046D01*
X02505Y00272D02*
X02692D01*
X02485Y00292D02*
X02672D01*
X02495Y00282D02*
X02682D01*
X02535Y00242D02*
X02722D01*
X02545Y00232D02*
X02733D01*
X02515Y00262D02*
X02702D01*
X02525Y00252D02*
X02712D01*
X02425Y00352D02*
X02612D01*
X02435Y00342D02*
X02622D01*
X02405Y00372D02*
X02592D01*
X02415Y00362D02*
X02602D01*
X02465Y00312D02*
X02652D01*
X02475Y00302D02*
X02662D01*
X02445Y00332D02*
X02632D01*
X02455Y00322D02*
X02642D01*
X02744Y00091D02*
Y00228D01*
X02754Y00091D02*
Y00228D01*
X02764Y00091D02*
Y00228D01*
X02774Y00091D02*
Y00228D01*
X02804Y00094D02*
Y00131D01*
X02814Y00105D02*
Y0012D01*
Y00205D02*
Y0022D01*
X02704Y00091D02*
Y0026D01*
X02714Y00091D02*
Y0025D01*
X02724Y00091D02*
Y0024D01*
X02734Y00091D02*
Y00232D01*
X02784Y00091D02*
Y00228D01*
X02794Y00091D02*
Y00228D01*
X02804Y00194D02*
Y00229D01*
X02799Y00163D02*
X02849D01*
X02887Y00202D02*
X02911D01*
X02872Y00212D02*
X02925D01*
X02884Y00205D02*
Y0022D01*
X02886Y00222D02*
X02911D01*
X02894Y00194D02*
Y00231D01*
X02904Y00194D02*
Y00231D01*
X02914Y00205D02*
Y0022D01*
X02749Y00228D02*
X02794D01*
X02895Y00232D02*
X02903D01*
X02949Y00263D02*
X02999D01*
X02994Y00294D02*
Y00331D01*
X02984Y00305D02*
Y0032D01*
X03004Y00243D02*
Y0026D01*
X03014Y00243D02*
Y00357D01*
X03004Y00265D02*
Y0036D01*
X03003Y00352D02*
X03019D01*
X03Y00243D02*
X03045D01*
X02995Y00292D02*
X03045D01*
X02987Y00302D02*
X03045D01*
X02972Y00312D02*
X03045D01*
X03003Y00252D02*
X03045D01*
X03004Y00262D02*
X03045D01*
X03003Y00272D02*
X03045D01*
X03Y00282D02*
X03045D01*
X02986Y00322D02*
X03045D01*
X03004Y00368D02*
X03045Y00326D01*
X03Y00342D02*
X03029D01*
X02995Y00332D02*
X03039D01*
X03024Y00243D02*
Y00347D01*
X03034Y00243D02*
Y00337D01*
X03045Y00243D02*
Y00326D01*
X03044Y00243D02*
Y00327D01*
X0152Y00632D02*
X02133D01*
X02174Y00603D02*
Y00636D01*
X02184Y00593D02*
Y00636D01*
X02154Y00623D02*
Y00636D01*
X02164Y00613D02*
Y00636D01*
X01844Y00632D02*
Y007D01*
X01854Y00632D02*
Y0069D01*
X01864Y00632D02*
Y0068D01*
X01874Y00632D02*
Y0067D01*
X02214Y00563D02*
Y00636D01*
X02224Y00553D02*
Y00636D01*
X02194Y00583D02*
Y00636D01*
X02204Y00573D02*
Y00636D01*
X02215Y00562D02*
X02402D01*
X02195Y00582D02*
X02382D01*
X02205Y00572D02*
X02392D01*
X02245Y00532D02*
X02432D01*
X02255Y00522D02*
X02442D01*
X02225Y00552D02*
X02412D01*
X02235Y00542D02*
X02422D01*
X02165Y00612D02*
X02352D01*
X02154Y00623D02*
X02686Y00091D01*
X0152Y00632D02*
X02332D01*
X02155Y00622D02*
X02342D01*
X02234Y00543D02*
Y00636D01*
X02244Y00533D02*
Y00636D01*
X02175Y00602D02*
X02362D01*
X02185Y00592D02*
X02372D01*
X0151Y00642D02*
X01902D01*
X01904Y00632D02*
Y00641D01*
X01729Y00662D02*
X01882D01*
X015Y00652D02*
X01892D01*
X01729Y00682D02*
X01862D01*
X01729Y00672D02*
X01872D01*
X01884Y00632D02*
Y0066D01*
X01894Y00632D02*
Y0065D01*
X01729Y00692D02*
X01852D01*
X01787Y00758D02*
X01899Y00645D01*
X0192Y00636D02*
X02274D01*
X0192D02*
X02274D01*
X0192D02*
X02274D01*
X0192D02*
X02274D01*
X0192D02*
X02274D01*
X02046Y00754D02*
X02074D01*
X0192Y00636D02*
X02274D01*
X02079Y0075D02*
Y00779D01*
X02084Y00752D02*
Y00884D01*
X02094Y00756D02*
Y00884D01*
X02114Y00752D02*
Y00884D01*
X02119Y00751D02*
Y00779D01*
X02124Y00754D02*
X02152D01*
X02246D02*
X02274D01*
X02354Y00423D02*
Y0061D01*
X02334Y00443D02*
Y0063D01*
X02344Y00433D02*
Y0062D01*
X02384Y00393D02*
Y0058D01*
X02394Y00383D02*
Y0057D01*
X02364Y00413D02*
Y006D01*
X02374Y00403D02*
Y0059D01*
X02274Y00503D02*
Y00636D01*
X02284Y00493D02*
Y00633D01*
X02254Y00523D02*
Y00636D01*
X02264Y00513D02*
Y00636D01*
X02314Y00463D02*
Y00633D01*
X02324Y00453D02*
Y00633D01*
X02294Y00483D02*
Y00633D01*
X02304Y00473D02*
Y00633D01*
X02295Y00482D02*
X02482D01*
X02275Y00502D02*
X02462D01*
X02285Y00492D02*
X02472D01*
X02474Y00303D02*
Y0049D01*
X02484Y00293D02*
Y0048D01*
X02464Y00313D02*
Y005D01*
X02305Y00472D02*
X02492D01*
X02414Y00363D02*
Y0055D01*
X02332Y00633D02*
X02728Y00237D01*
X02404Y00373D02*
Y0056D01*
X02265Y00512D02*
X02452D01*
X02444Y00333D02*
Y0052D01*
X02454Y00323D02*
Y0051D01*
X02424Y00353D02*
Y0054D01*
X02434Y00343D02*
Y0053D01*
X02288Y00633D02*
X02332D01*
X02984Y00605D02*
Y0062D01*
X02994Y00594D02*
Y00631D01*
X02279Y00751D02*
Y00779D01*
Y00752D02*
X02292D01*
X02984Y00705D02*
Y0072D01*
X02994Y00694D02*
Y00731D01*
X02284Y00751D02*
Y00884D01*
X02987Y00602D02*
X03005D01*
X02972Y00612D02*
X03005D01*
X02986Y00622D02*
X03005D01*
X03004Y00593D02*
Y0066D01*
X02995Y00632D02*
X03005D01*
X02995Y00692D02*
X03005D01*
X02987Y00702D02*
X03005D01*
X02972Y00712D02*
X03005D01*
Y00593D02*
Y01545D01*
X03004Y00665D02*
Y0076D01*
X02986Y00722D02*
X03005D01*
X02995Y00732D02*
X03005D01*
X013Y00786D02*
Y00809D01*
Y00833*
Y00809D02*
Y00833D01*
X01306Y00773D02*
Y00835D01*
Y00773D02*
X01318D01*
X01343Y00882D02*
X01359D01*
X01364Y00861D02*
Y00878D01*
X01314Y00892D02*
Y00928D01*
X013Y00892D02*
X01321D01*
X01354Y00871D02*
Y00888D01*
X01341Y00884D02*
X01367Y00859D01*
X01324Y00892D02*
Y00918D01*
X01344Y00881D02*
Y00898D01*
X0139Y00762D02*
X01458D01*
X01386Y00773D02*
X01441D01*
X0138Y00772D02*
X01448D01*
X01635Y00762D02*
X01713D01*
X01401Y00778D02*
Y00813D01*
X01641Y00768D02*
X01707D01*
X01306Y00935D02*
X01389Y00853D01*
X01371D02*
X01386D01*
X01353Y00872D02*
X01369D01*
X01363Y00862D02*
X01379D01*
X01401Y00813D02*
X01436D01*
X01441Y00773D02*
Y00815D01*
X01374Y00853D02*
Y00868D01*
X01371Y00853D02*
X01386D01*
X013Y00895D02*
Y00904D01*
Y00895D02*
Y00904D01*
Y00902D02*
X01339D01*
X013Y00904D02*
Y00918D01*
X01334Y00889D02*
Y00908D01*
X013Y00904D02*
Y00918D01*
Y00912D02*
X01329D01*
X013Y00904D02*
Y00918D01*
Y00936*
Y00932D02*
X01309D01*
X013Y00922D02*
X01319D01*
X013Y00918D02*
Y00936D01*
Y00927D02*
Y00936D01*
X01676Y01238D02*
X01711D01*
X01716Y01233D02*
Y01247D01*
X01724Y01233D02*
Y01247D01*
X01734Y01233D02*
Y01247D01*
X01744Y01233D02*
Y01247D01*
X01754Y01233D02*
Y01247D01*
X01764Y01233D02*
Y01247D01*
X01774Y01233D02*
Y01247D01*
X01784Y01233D02*
Y01247D01*
X01794Y01233D02*
Y01247D01*
X01804Y01233D02*
Y01247D01*
X01814Y01233D02*
Y01247D01*
X01824Y01233D02*
Y01247D01*
X01834Y01233D02*
Y01247D01*
X01844Y01233D02*
Y01247D01*
X01854Y01233D02*
Y01247D01*
X01864Y01233D02*
Y01247D01*
X02079Y00762D02*
X02119D01*
X02079Y00772D02*
X02119D01*
X02079Y00779D02*
Y00797D01*
X02104Y00755D02*
Y00884D01*
X02079Y00779D02*
Y00797D01*
Y00858*
X01874Y01233D02*
Y01247D01*
X01884Y01233D02*
Y01247D01*
X01894Y01233D02*
Y01247D01*
X01904Y01233D02*
Y01247D01*
X01914Y01233D02*
Y01247D01*
X01924Y01233D02*
Y01247D01*
X01934Y01233D02*
Y01247D01*
X01944Y01233D02*
Y01247D01*
X02079Y00782D02*
X02119D01*
X02079Y00792D02*
X02119D01*
X02079Y00802D02*
X02119D01*
Y00779D02*
Y00797D01*
Y00779D02*
Y00797D01*
X02079Y00812D02*
X02119D01*
X02079Y00822D02*
X02119D01*
X02079Y00832D02*
X02119D01*
X02079Y00842D02*
X02119D01*
X02071Y00882D02*
X02119D01*
X02069Y00884D02*
X0212D01*
X02119Y00797D02*
Y00864D01*
X02079Y00852D02*
X02119D01*
X02077Y00872D02*
X02119D01*
X01954Y01233D02*
Y01247D01*
X01964Y01233D02*
Y01247D01*
X01974Y01233D02*
Y01247D01*
X01984Y01233D02*
Y01247D01*
X01994Y01233D02*
Y01247D01*
X02004Y01233D02*
Y01247D01*
X02014Y01233D02*
Y01247D01*
X02024Y01233D02*
Y01247D01*
X02034Y01233D02*
Y01247D01*
X02044Y01233D02*
Y01247D01*
X02054Y01233D02*
Y01247D01*
X02064Y01233D02*
Y01247D01*
X02074Y01233D02*
Y01247D01*
X02084Y01233D02*
Y01247D01*
X02094Y01233D02*
Y01247D01*
X02104Y01233D02*
Y01247D01*
X02114Y01233D02*
Y01247D01*
X02124Y01233D02*
Y01247D01*
X02134Y01233D02*
Y01247D01*
X02144Y01233D02*
Y01247D01*
X02154Y01233D02*
Y01247D01*
X02164Y01233D02*
Y01247D01*
X02174Y01233D02*
Y01247D01*
X02184Y01233D02*
Y01247D01*
X02194Y01233D02*
Y01247D01*
X02204Y01233D02*
Y01247D01*
X02214Y01233D02*
Y01247D01*
X02224Y01233D02*
Y01247D01*
X02234Y01233D02*
Y01247D01*
X02244Y01233D02*
Y01247D01*
X02254Y01233D02*
Y01247D01*
X01454Y01508D02*
X01469Y01493D01*
X01525D01*
Y01461D02*
Y01493D01*
Y01462D02*
X01541D01*
X01525Y01472D02*
X01542D01*
X01525Y01482D02*
X01547D01*
X01474Y01493D02*
Y01545D01*
X01484Y01493D02*
Y01545D01*
X01494Y01493D02*
Y01545D01*
X01504Y01493D02*
Y01545D01*
X01534Y01459D02*
Y01545D01*
X01544Y01476D02*
Y01545D01*
X01514Y01493D02*
Y01545D01*
X01524Y01493D02*
Y01545D01*
X01554Y01489D02*
Y01545D01*
X01525Y01492D02*
X0156D01*
X01716Y01304D02*
Y0132D01*
Y01304D02*
X01733D01*
X01676Y01313D02*
X01711D01*
X01676Y01388D02*
X01711D01*
X01594Y01491D02*
Y01545D01*
X01604Y01491D02*
Y01545D01*
X01614Y01491D02*
Y01545D01*
X01624Y01491D02*
Y01545D01*
X01634Y01491D02*
Y01545D01*
X01644Y01491D02*
Y01545D01*
X01654Y01491D02*
Y01545D01*
X01664Y01491D02*
Y01545D01*
X01284Y01516D02*
Y01545D01*
X01294Y01516D02*
Y01545D01*
X01304Y01516D02*
Y01545D01*
X01314Y01516D02*
Y01545D01*
X01324Y01516D02*
Y01545D01*
X01334Y01516D02*
Y01545D01*
X01344Y01516D02*
Y01545D01*
X01354Y01516D02*
Y01545D01*
X01364Y01516D02*
Y01545D01*
X01374Y01516D02*
Y01545D01*
X01384Y01516D02*
Y01545D01*
X01394Y01516D02*
Y01545D01*
X01404Y01516D02*
Y01545D01*
X01414Y01516D02*
Y01545D01*
X01424Y01516D02*
Y01545D01*
X01288Y01516D02*
X01434D01*
X01454Y01508D02*
Y01545D01*
X01464Y01498D02*
Y01545D01*
X01434Y01516D02*
Y01545D01*
X01444Y01514D02*
Y01545D01*
X01564Y01494D02*
Y01545D01*
X01674Y01491D02*
Y01545D01*
X01574Y01496D02*
Y01545D01*
X01584Y01494D02*
Y01545D01*
X01684Y01491D02*
Y01545D01*
X01694Y01491D02*
Y01545D01*
X01704Y01491D02*
Y01545D01*
X01714Y01491D02*
Y01545D01*
X01716Y0132D02*
X01733Y01304D01*
X01716Y01381D02*
Y0139D01*
X01725Y01381*
X01724Y01304D02*
Y01312D01*
Y01491D02*
Y01545D01*
X01734Y01491D02*
Y01545D01*
X01744Y01491D02*
Y01545D01*
X01754Y01491D02*
Y01545D01*
X01764Y01491D02*
Y01545D01*
X01774Y01491D02*
Y01545D01*
X01784Y01491D02*
Y01545D01*
X01794Y01491D02*
Y01545D01*
X01804Y01491D02*
Y01545D01*
X01814Y01491D02*
Y01545D01*
X01824Y01491D02*
Y01545D01*
X01834Y01491D02*
Y01545D01*
X01844Y01491D02*
Y01545D01*
X01854Y01491D02*
Y01545D01*
X02264Y01233D02*
Y01247D01*
X02274Y01233D02*
Y01247D01*
X01864Y01491D02*
Y01545D01*
X01874Y01491D02*
Y01545D01*
X01884Y01491D02*
Y01545D01*
X01894Y01491D02*
Y01545D01*
X01904Y01491D02*
Y01545D01*
X01914Y01491D02*
Y01545D01*
X01924Y01491D02*
Y01545D01*
X01934Y01491D02*
Y01545D01*
X01944Y01491D02*
Y01545D01*
X01954Y01491D02*
Y01545D01*
X01964Y01491D02*
Y01545D01*
X01974Y01491D02*
Y01545D01*
X01984Y01491D02*
Y01545D01*
X01994Y01491D02*
Y01545D01*
X02004Y01491D02*
Y01545D01*
X02014Y01491D02*
Y01545D01*
X02024Y01491D02*
Y01545D01*
X02034Y01491D02*
Y01545D01*
X02044Y01491D02*
Y01545D01*
X02054Y01491D02*
Y01545D01*
X02064Y01491D02*
Y01545D01*
X02074Y01491D02*
Y01545D01*
X02084Y01491D02*
Y01545D01*
X02094Y01491D02*
Y01545D01*
X02104Y01491D02*
Y01545D01*
X02114Y01491D02*
Y01545D01*
X02124Y01491D02*
Y01545D01*
X02134Y01491D02*
Y01545D01*
X02144Y01491D02*
Y01545D01*
X02154Y01491D02*
Y01545D01*
X02164Y01491D02*
Y01545D01*
X02174Y01491D02*
Y01545D01*
X02184Y01491D02*
Y01545D01*
X02194Y01491D02*
Y01545D01*
X02204Y01491D02*
Y01545D01*
X02214Y01491D02*
Y01545D01*
X02224Y01491D02*
Y01545D01*
X02234Y01491D02*
Y01545D01*
X02244Y01491D02*
Y01545D01*
X02254Y01491D02*
Y01545D01*
X02264Y01491D02*
Y01545D01*
X02279Y00762D02*
X02301D01*
X02279Y00779D02*
Y00797D01*
Y00779D02*
Y00797D01*
X02344Y00768D02*
Y00852D01*
X02354Y00768D02*
Y00842D01*
X02279Y00852D02*
X02344D01*
X02279Y00842D02*
X02354D01*
X02279Y00797D02*
Y00858D01*
X02294Y00755D02*
Y00884D01*
X02277Y00872D02*
X02324D01*
X02304Y00764D02*
Y00884D01*
X02314Y00767D02*
Y00882D01*
X02324Y00768D02*
Y00872D01*
X02334Y00768D02*
Y00862D01*
X02279Y00772D02*
X02424D01*
X02279Y00792D02*
X02404D01*
X02279Y00782D02*
X02414D01*
X02394Y00768D02*
Y00802D01*
X02319Y00768D02*
X02429D01*
X02404D02*
Y00792D01*
X02414Y00768D02*
Y00782D01*
X02279Y00812D02*
X02384D01*
X02279Y00802D02*
X02394D01*
X02279Y00832D02*
X02364D01*
X02279Y00822D02*
X02374D01*
X02364Y00768D02*
Y00832D01*
X02312Y00884D02*
X02429Y00768D01*
X02374D02*
Y00822D01*
X02384Y00768D02*
Y00812D01*
X02271Y00882D02*
X02314D01*
X02284Y01233D02*
Y01247D01*
X02269Y00884D02*
X02312D01*
X02294Y01233D02*
Y01247D01*
X02304Y01233D02*
Y01247D01*
X02314Y01233D02*
Y01247D01*
X02324Y01233D02*
Y01247D01*
X02334Y01233D02*
Y01247D01*
X02344Y01233D02*
Y01247D01*
X02354Y01233D02*
Y01247D01*
X02364Y01233D02*
Y01247D01*
X02374Y01233D02*
Y01247D01*
X02384Y01233D02*
Y01247D01*
X02394Y01233D02*
Y01247D01*
X02404Y01233D02*
Y01247D01*
X01716Y01233D02*
X02803D01*
X02414D02*
Y01247D01*
X01716Y01242D02*
X02798D01*
X02424Y01233D02*
Y01247D01*
X02434Y01233D02*
Y01247D01*
X02444Y01233D02*
Y01247D01*
X02454Y01233D02*
Y01247D01*
X02464Y01233D02*
Y01247D01*
X02474Y01233D02*
Y01247D01*
X02484Y01233D02*
Y01247D01*
X02494Y01233D02*
Y01247D01*
X02504Y01233D02*
Y01247D01*
X02514Y01233D02*
Y01247D01*
X02524Y01233D02*
Y01247D01*
X02534Y01233D02*
Y01247D01*
X02984Y00805D02*
Y0082D01*
X02972Y00812D02*
X03005D01*
X02994Y00794D02*
Y00831D01*
X02995Y00792D02*
X03005D01*
X02987Y00802D02*
X03005D01*
X02986Y00822D02*
X03005D01*
X02984Y00905D02*
Y0092D01*
Y01005D02*
Y0102D01*
X03004Y00765D02*
Y0086D01*
X02995Y00832D02*
X03005D01*
X02994Y00894D02*
Y00931D01*
Y00994D02*
Y01031D01*
X02987Y00902D02*
X03005D01*
X02972Y00912D02*
X03005D01*
X03004Y00865D02*
Y0096D01*
X02995Y00892D02*
X03005D01*
X02986Y00922D02*
X03005D01*
X02995Y00932D02*
X03005D01*
X02987Y01002D02*
X03005D01*
X02972Y01012D02*
X03005D01*
X03004Y00965D02*
Y0106D01*
X02995Y00992D02*
X03005D01*
X02986Y01022D02*
X03005D01*
X02995Y01032D02*
X03005D01*
X02544Y01233D02*
Y01247D01*
X02554Y01233D02*
Y01247D01*
X02564Y01233D02*
Y01247D01*
X02984Y01105D02*
Y0112D01*
Y01205D02*
Y0122D01*
X02574Y01233D02*
Y01247D01*
X02584Y01233D02*
Y01247D01*
X02594Y01233D02*
Y01247D01*
X02604Y01233D02*
Y01247D01*
X02614Y01233D02*
Y01247D01*
X02624Y01233D02*
Y01247D01*
X02634Y01233D02*
Y01247D01*
X02644Y01233D02*
Y01247D01*
X02654Y01233D02*
Y01247D01*
X02664Y01233D02*
Y01247D01*
X02987Y01102D02*
X03005D01*
X02972Y01112D02*
X03005D01*
X02986Y01122D02*
X03005D01*
X03004Y01065D02*
Y0116D01*
X02995Y01092D02*
X03005D01*
X02994Y01094D02*
Y01131D01*
X02995Y01132D02*
X03005D01*
X02987Y01202D02*
X03005D01*
X02972Y01212D02*
X03005D01*
X02994Y01194D02*
Y01231D01*
X02995Y01192D02*
X03005D01*
X02986Y01222D02*
X03005D01*
X02995Y01232D02*
X03005D01*
X02274Y01491D02*
Y01545D01*
X02284Y01491D02*
Y01545D01*
X02294Y01491D02*
Y01545D01*
X02304Y01491D02*
Y01545D01*
X02314Y01491D02*
Y01545D01*
X02324Y01491D02*
Y01545D01*
X02334Y01491D02*
Y01545D01*
X02344Y01491D02*
Y01545D01*
X02354Y01491D02*
Y01545D01*
X02364Y01491D02*
Y01545D01*
X02374Y01491D02*
Y01545D01*
X02384Y01491D02*
Y01545D01*
X02394Y01491D02*
Y01545D01*
X02404Y01491D02*
Y01545D01*
X02414Y01491D02*
Y01545D01*
X02674Y01233D02*
Y01247D01*
X02684Y01233D02*
Y01247D01*
X02694Y01233D02*
Y01247D01*
X02704Y01233D02*
Y01247D01*
X02714Y01233D02*
Y01247D01*
X02724Y01233D02*
Y01247D01*
X02734Y01233D02*
Y01247D01*
X01716D02*
X02796D01*
X01591Y01491D02*
X02802D01*
X02424D02*
Y01545D01*
X01588Y01492D02*
X02803D01*
X02434Y01491D02*
Y01545D01*
X02744Y01233D02*
Y01247D01*
X02444Y01491D02*
Y01545D01*
X02454Y01491D02*
Y01545D01*
X02464Y01491D02*
Y01545D01*
X02474Y01491D02*
Y01545D01*
X02484Y01491D02*
Y01545D01*
X02494Y01491D02*
Y01545D01*
X02504Y01491D02*
Y01545D01*
X02514Y01491D02*
Y01545D01*
X02524Y01491D02*
Y01545D01*
X02534Y01491D02*
Y01545D01*
X02544Y01491D02*
Y01545D01*
X02554Y01491D02*
Y01545D01*
X02564Y01491D02*
Y01545D01*
X02574Y01491D02*
Y01545D01*
X02584Y01491D02*
Y01545D01*
X02594Y01491D02*
Y01545D01*
X02604Y01491D02*
Y01545D01*
X02614Y01491D02*
Y01545D01*
X02624Y01491D02*
Y01545D01*
X0146Y01502D02*
X02811D01*
X01448Y01512D02*
X02825D01*
X02634Y01491D02*
Y01545D01*
X02644Y01491D02*
Y01545D01*
X02654Y01491D02*
Y01545D01*
X02664Y01491D02*
Y01545D01*
X02674Y01491D02*
Y01545D01*
X02684Y01491D02*
Y01545D01*
X02694Y01491D02*
Y01545D01*
X02704Y01491D02*
Y01545D01*
X02714Y01491D02*
Y01545D01*
X02724Y01491D02*
Y01545D01*
X02734Y01491D02*
Y01545D01*
X02744Y01491D02*
Y01545D01*
X02754Y01233D02*
Y01247D01*
X02764Y01233D02*
Y01247D01*
X02774Y01233D02*
Y01247D01*
X02784Y01233D02*
Y01247D01*
X03004Y01165D02*
Y0126D01*
X02794Y01233D02*
Y01247D01*
X02984Y01305D02*
Y0132D01*
Y01405D02*
Y0142D01*
X02994Y01294D02*
Y01331D01*
X03004Y01265D02*
Y0136D01*
X02994Y01394D02*
Y01431D01*
X02995Y01292D02*
X03005D01*
X02987Y01302D02*
X03005D01*
X02972Y01312D02*
X03005D01*
X02986Y01322D02*
X03005D01*
X02995Y01332D02*
X03005D01*
X02995Y01392D02*
X03005D01*
X02987Y01402D02*
X03005D01*
X02972Y01412D02*
X03005D01*
X03004Y01365D02*
Y0146D01*
X02986Y01422D02*
X03005D01*
X02995Y01432D02*
X03005D01*
X03004Y01465D02*
Y01545D01*
X02754Y01491D02*
Y01545D01*
X02764Y01491D02*
Y01545D01*
X02774Y01491D02*
Y01545D01*
X02784Y01491D02*
Y01545D01*
X02794Y01491D02*
Y01545D01*
X02804Y01494D02*
Y01545D01*
X02814Y01505D02*
Y01545D01*
X02824Y01512D02*
Y01545D01*
X02834Y01516D02*
Y01545D01*
X02844Y01517D02*
Y01545D01*
X02854Y01517D02*
Y01545D01*
X02884Y01505D02*
Y01545D01*
X02894Y01494D02*
Y01545D01*
X02864Y01516D02*
Y01545D01*
X02874Y01512D02*
Y01545D01*
X02904Y01494D02*
Y01545D01*
X02887Y01502D02*
X02911D01*
X02872Y01512D02*
X02925D01*
X02995Y01492D02*
X03005D01*
X02987Y01502D02*
X03005D01*
X02914Y01505D02*
Y01545D01*
X02972Y01512D02*
X03005D01*
X02924D02*
Y01545D01*
X02934Y01516D02*
Y01545D01*
X02944Y01517D02*
Y01545D01*
X02954Y01517D02*
Y01545D01*
X02984Y01505D02*
Y01545D01*
X02994Y01494D02*
Y01545D01*
X02964Y01516D02*
Y01545D01*
X02974Y01512D02*
Y01545D01*
X01484Y00788D02*
Y00944D01*
X01474Y00788D02*
X01619D01*
X01494D02*
Y00944D01*
X01504Y00788D02*
Y00944D01*
X01475Y00792D02*
X01619D01*
X0148Y00802D02*
X01619D01*
X0148Y00822D02*
X01619D01*
X01482Y00812D02*
X01619D01*
X01514Y00788D02*
Y00944D01*
X01524Y00788D02*
Y00944D01*
X01874Y00713D02*
Y00917D01*
X01854Y00733D02*
Y00937D01*
X01864Y00723D02*
Y00927D01*
X01624Y00818D02*
X01674D01*
X01619Y00788D02*
Y00868D01*
X01674Y00818D02*
Y00863D01*
X01729Y00788D02*
X01799D01*
X01674Y00818D02*
X01724D01*
X01729Y00788D02*
Y00868D01*
X01534Y00788D02*
Y00944D01*
X01544Y00788D02*
Y00944D01*
X01554Y00788D02*
Y00944D01*
X01564Y00788D02*
Y00944D01*
X01574Y00788D02*
Y00944D01*
X01584Y00788D02*
Y00944D01*
X01594Y00788D02*
Y00944D01*
X01604Y00788D02*
Y00944D01*
X01614Y00788D02*
Y00944D01*
X01734Y00788D02*
Y00944D01*
X01804Y00783D02*
Y00944D01*
X01814Y00773D02*
Y00944D01*
X01824Y00763D02*
Y00944D01*
X01834Y00753D02*
Y00944D01*
X01844Y00743D02*
Y00944D01*
X01744Y00788D02*
Y00944D01*
X01754Y00788D02*
Y00944D01*
X01764Y00788D02*
Y00944D01*
X01774Y00788D02*
Y00944D01*
X01784Y00788D02*
Y00944D01*
X01794Y00788D02*
Y00944D01*
X0192Y00666D02*
X02274D01*
X0192D02*
X02274D01*
X0192D02*
X02274D01*
X0192D02*
X02274D01*
X0192D02*
X02274D01*
X01884Y00702D02*
X02494D01*
X01874Y00712D02*
X01919D01*
X01914Y00672D02*
X02524D01*
X01894Y00692D02*
X02504D01*
X01904Y00682D02*
X02514D01*
X01924Y00666D02*
Y00712D01*
X01934Y00666D02*
Y00712D01*
X0192Y00666D02*
X02274D01*
X0192D02*
X02274D01*
X01944D02*
Y00712D01*
X01919D02*
X0195D01*
X01954Y00666D02*
Y00712D01*
X01964Y00666D02*
Y00712D01*
X01974Y00666D02*
Y00712D01*
X0195D02*
X01982D01*
X0195D02*
X01982D01*
X01834Y00752D02*
X01887D01*
X01824Y00762D02*
X01888D01*
X01854Y00732D02*
X01896D01*
X01799Y00788D02*
X0192Y00666D01*
X01844Y00742D02*
X0189D01*
X01729Y00792D02*
X01874D01*
X01729Y00802D02*
X01874D01*
X01729Y00812D02*
X01874D01*
X01814Y00772D02*
X01889D01*
X01729Y00822D02*
X01874D01*
X01804Y00782D02*
X01879D01*
X01894Y00693D02*
Y00735D01*
X01884Y00703D02*
Y00778D01*
X01914Y00673D02*
Y00722D01*
X01904Y00683D02*
Y00726D01*
X01919Y00712D02*
Y00721D01*
X01864Y00722D02*
X01912D01*
X01874Y00788D02*
X01892Y0077D01*
X01874Y00788D02*
Y00917D01*
X01985Y00712D02*
X02013D01*
X01985D02*
X02013D01*
X013Y00966D02*
Y00975D01*
Y00966D02*
Y00998D01*
X01319Y00962D02*
X01371D01*
X013Y00975D02*
Y00989D01*
Y00975D02*
Y00989D01*
Y00972D02*
X01362D01*
X013Y00982D02*
X01352D01*
X013Y00992D02*
X01342D01*
X01374Y0091D02*
Y00956D01*
X01364Y0092D02*
Y00971D01*
X01404Y0088D02*
Y00939D01*
X01384Y009D02*
Y00945D01*
X01394Y0089D02*
Y00941D01*
X01344Y0094D02*
Y00991D01*
X01354Y0093D02*
Y00981D01*
X01341Y00942D02*
X01389D01*
X01331Y00952D02*
X01376D01*
X013Y00989D02*
Y00998D01*
X01218Y01036D02*
Y01046D01*
X013Y01002D02*
X01332D01*
X013Y00998D02*
Y01013D01*
Y00998D02*
Y01013D01*
X01218Y01036D02*
Y01057D01*
X01209Y01042D02*
X01218D01*
Y01046D02*
Y01057D01*
Y01046D02*
Y01057D01*
X013Y00998D02*
Y01013D01*
X01314Y00964D02*
Y01021D01*
X01334Y0095D02*
Y01001D01*
X013Y01035D02*
X0136Y00974D01*
X01324Y0096D02*
Y01011D01*
X013Y01013D02*
Y01022D01*
Y01013D02*
Y01035D01*
Y01022D02*
Y01035D01*
Y01012D02*
X01322D01*
X013Y01022D02*
X01312D01*
X013D02*
Y01035D01*
X0141Y00874D02*
X01423Y00861D01*
X01414Y0087D02*
Y00941D01*
X01411Y00872D02*
X01874D01*
X01391Y00892D02*
X01874D01*
X01401Y00882D02*
X01874D01*
X01351Y00932D02*
X01859D01*
X01416Y00942D02*
X01849D01*
X01381Y00902D02*
X01874D01*
X01361Y00922D02*
X01869D01*
X01371Y00912D02*
X01874D01*
X01475Y00832D02*
X01619D01*
X01463Y00842D02*
X01619D01*
X01729Y00832D02*
X01874D01*
X01729Y00842D02*
X01874D01*
X01729Y00852D02*
X01874D01*
X01429Y00853D02*
X01441D01*
X01421Y00862D02*
X01619D01*
Y00868D02*
X01729D01*
Y00862D02*
X01874D01*
X01434Y00853D02*
Y00944D01*
X01444Y00845D02*
Y00944D01*
X01454Y00845D02*
Y00944D01*
X01464Y00842D02*
Y00944D01*
X01474Y00834D02*
Y00944D01*
X01327Y00957D02*
X0141Y00874D01*
X01327Y00957D02*
X0141Y00874D01*
X01424Y0086D02*
Y00944D01*
X01419D02*
X01847D01*
X01624Y00868D02*
Y00944D01*
X01634Y00868D02*
Y00944D01*
X01644Y00868D02*
Y00944D01*
X01654Y00868D02*
Y00944D01*
X01664Y00868D02*
Y00944D01*
X01674Y00868D02*
Y00944D01*
X01684Y00868D02*
Y00944D01*
X01694Y00868D02*
Y00944D01*
X01704Y00868D02*
Y00944D01*
X01714Y00868D02*
Y00944D01*
X01724Y00868D02*
Y00944D01*
X01847D02*
X01874Y00917D01*
X02534Y00472D02*
X02724D01*
X02674Y00333D02*
Y00522D01*
X02564Y00442D02*
X02754D01*
X02544Y00462D02*
X02734D01*
X02554Y00452D02*
X02744D01*
X02494Y00512D02*
X02684D01*
X02484Y00522D02*
X02674D01*
X02524Y00482D02*
X02714D01*
X02504Y00502D02*
X02694D01*
X02514Y00492D02*
X02704D01*
X02744Y00263D02*
Y00452D01*
X02734Y00273D02*
Y00462D01*
X02764Y00258D02*
Y00436D01*
X02754Y00258D02*
Y00442D01*
X02774Y00258D02*
Y00434D01*
X02704Y00303D02*
Y00492D01*
X02684Y00323D02*
Y00512D01*
X02694Y00313D02*
Y00502D01*
X02714Y00293D02*
Y00482D01*
X02724Y00283D02*
Y00472D01*
X02544Y00463D02*
Y00652D01*
X02534Y00473D02*
Y00662D01*
X02554Y00453D02*
Y00642D01*
X02344Y00663D02*
X02749Y00258D01*
X02459Y00738D02*
X02754Y00443D01*
X02494Y00513D02*
Y00702D01*
X02484Y00523D02*
Y00712D01*
X02524Y00483D02*
Y00672D01*
X02504Y00503D02*
Y00692D01*
X02514Y00493D02*
Y00682D01*
X02634Y00373D02*
Y00562D01*
X02624Y00383D02*
Y00572D01*
X02664Y00343D02*
Y00532D01*
X02644Y00363D02*
Y00552D01*
X02654Y00353D02*
Y00542D01*
X02584Y00423D02*
Y00612D01*
X02564Y00443D02*
Y00632D01*
X02574Y00433D02*
Y00622D01*
X02614Y00393D02*
Y00582D01*
X02594Y00413D02*
Y00602D01*
X02604Y00403D02*
Y00592D01*
X02749Y00258D02*
X02794D01*
X02744Y00262D02*
X02794D01*
X02734Y00272D02*
X02795D01*
X02724Y00282D02*
X02798D01*
X02714Y00292D02*
X02803D01*
X02674Y00332D02*
X02803D01*
X02704Y00302D02*
X02811D01*
X02684Y00322D02*
X02811D01*
X02694Y00312D02*
X02825D01*
X02799Y00263D02*
X02849D01*
X02804Y00294D02*
Y00331D01*
X02894Y00294D02*
Y00331D01*
X02887Y00302D02*
X02911D01*
X02814Y00305D02*
Y0032D01*
X02884Y00305D02*
Y0032D01*
X02872Y00312D02*
X02925D01*
X02886Y00322D02*
X02911D01*
X02914Y00305D02*
Y0032D01*
X02654Y00352D02*
X02795D01*
X02644Y00362D02*
X02794D01*
X02664Y00342D02*
X02798D01*
X02624Y00382D02*
X02798D01*
X02634Y00372D02*
X02795D01*
X02614Y00392D02*
X02803D01*
X02574Y00432D02*
X02803D01*
X02604Y00402D02*
X02811D01*
X02584Y00422D02*
X02811D01*
X02594Y00412D02*
X02825D01*
X02784Y00258D02*
Y00434D01*
X02794Y00258D02*
Y00434D01*
X02904Y00294D02*
Y00331D01*
X02814Y00405D02*
Y0042D01*
X02774Y00434D02*
X02802D01*
X02804Y00394D02*
Y00431D01*
X02895Y00332D02*
X02903D01*
X01994Y00666D02*
Y00712D01*
X02004Y00666D02*
Y00712D01*
X02024Y00666D02*
Y00712D01*
X02034Y00666D02*
Y00712D01*
X02044Y00666D02*
Y00712D01*
X02016D02*
X02048D01*
X02016D02*
X02048D01*
X02054Y00666D02*
Y00712D01*
X02048D02*
X02079D01*
X02064Y00666D02*
Y00712D01*
X02074Y00666D02*
Y00712D01*
X02124Y00666D02*
Y00712D01*
X02134Y00666D02*
Y00712D01*
X02144Y00666D02*
Y00712D01*
X02154Y00666D02*
Y00712D01*
X02079D02*
X02119D01*
X0215D01*
X02164Y00666D02*
Y00712D01*
X02174Y00666D02*
Y00712D01*
X0215D02*
X02182D01*
X0215D02*
X02182D01*
X02079D02*
Y0072D01*
X02084Y00666D02*
Y0072D01*
X02094Y00666D02*
Y00723D01*
X02104Y00666D02*
Y00723D01*
X02114Y00666D02*
Y00721D01*
X02092Y00722D02*
X02107D01*
X02185Y00712D02*
X02213D01*
X02119D02*
Y00721D01*
X02194Y00666D02*
Y00712D01*
X02204Y00666D02*
Y00712D01*
X02224Y00666D02*
Y00712D01*
X02234Y00666D02*
Y00712D01*
X02244Y00666D02*
Y00712D01*
X02185D02*
X02213D01*
X02216D02*
X02248D01*
X02216D02*
X02248D01*
X02254Y00666D02*
Y00712D01*
X02264Y00666D02*
Y00712D01*
X02274Y00666D02*
Y00712D01*
X02364Y00642D02*
X02554D01*
X02344Y00662D02*
X02534D01*
X02354Y00652D02*
X02544D01*
X02248Y00712D02*
X02279D01*
X02284Y00666D02*
Y0072D01*
X02274Y00666D02*
X02327D01*
X02279Y00712D02*
X02484D01*
X02294Y00666D02*
Y0072D01*
X02444Y00562D02*
X02634D01*
X02434Y00572D02*
X02624D01*
X02474Y00532D02*
X02664D01*
X02454Y00552D02*
X02644D01*
X02464Y00542D02*
X02654D01*
X02394Y00612D02*
X02584D01*
X02374Y00632D02*
X02564D01*
X02384Y00622D02*
X02574D01*
X02424Y00582D02*
X02614D01*
X02404Y00602D02*
X02594D01*
X02414Y00592D02*
X02604D01*
X02304Y00666D02*
Y00723D01*
X02314Y00666D02*
Y00731D01*
X02324Y00666D02*
Y00738D01*
X02354Y00653D02*
Y00738D01*
X02364Y00643D02*
Y00738D01*
X02279Y00712D02*
Y00721D01*
X02334Y00665D02*
Y00738D01*
X02302Y00722D02*
X02474D01*
X02315Y00732D02*
X02464D01*
X02319Y00738D02*
X02459D01*
X02434Y00573D02*
Y00738D01*
X02444Y00563D02*
Y00738D01*
X02474Y00533D02*
Y00722D01*
X02454Y00553D02*
Y00738D01*
X02464Y00543D02*
Y00732D01*
X02374Y00633D02*
Y00738D01*
X02384Y00623D02*
Y00738D01*
X02394Y00613D02*
Y00738D01*
X02404Y00603D02*
Y00738D01*
X02414Y00593D02*
Y00738D01*
X02424Y00583D02*
Y00738D01*
G54D11*
X02899Y01113D02*
X02949Y01163D01*
X02899Y01013D02*
X02949Y01063D01*
X02774Y00963D02*
X02849D01*
X02899Y00913D02*
X02949Y00963D01*
X02899Y00813D02*
X02949Y00863D01*
X02899Y00713D02*
X02949Y00763D01*
X02899Y00613D02*
X02949Y00663D01*
X02899Y00513D02*
X02949Y00563D01*
X01829Y003D02*
X01887D01*
X01949Y00238*
X02021*
X01829Y00274D02*
X01862D01*
X01899Y00238*
Y0014D02*
Y00238D01*
X02021Y00138D02*
Y00238D01*
X01719Y00233D02*
Y00274D01*
X01699Y00213D02*
X01719Y00233D01*
X01699Y0014D02*
Y00213D01*
X01696Y00138D02*
X01699Y0014D01*
X02899Y01313D02*
X02949Y01363D01*
X01621Y01345D02*
X01629Y01353D01*
X01724D02*
X01764Y01313D01*
X01629Y01353D02*
X01724D01*
X01764Y01313D02*
X02899D01*
X01724Y01423D02*
X01784Y01363D01*
X02849*
X01676Y01388D02*
X01724D01*
X01676Y01313D02*
X01724D01*
X01676Y01238D02*
X01724D01*
X02899Y01413D02*
X02949Y01463D01*
X01774Y01438D02*
X01799Y01413D01*
X02899*
X01574Y01463D02*
X02849D01*
X01434Y01488D02*
X01449Y01473D01*
Y01438D02*
Y01473D01*
X0144Y01428D02*
X01449Y01438D01*
X01415Y01428D02*
X0144D01*
X01719Y00483D02*
Y00493D01*
X00949Y00563D02*
X01174Y00338D01*
X01146Y0039D02*
X01165D01*
X00964Y00573D02*
X01146Y0039D01*
X00979Y00583D02*
X0114Y00422D01*
X01165*
X01133Y00453D02*
X01165D01*
X00994Y00593D02*
X01133Y00453D01*
X01009Y00603D02*
X01127Y00485D01*
X01165*
X01024Y00633D02*
X01119Y00538D01*
X01039Y00648D02*
X01121Y00565D01*
X01165*
X01054Y00658D02*
X01115Y00597D01*
X01165*
X01069Y00668D02*
X01108Y00628D01*
X01165*
X01084Y00703D02*
X01127Y0066D01*
X01165*
X01324Y00338D02*
X01346Y0036D01*
X01174Y00338D02*
X01324D01*
X01119Y00538D02*
X01346D01*
X02246Y00821D02*
Y0086D01*
X02215Y00821D02*
Y00877D01*
X02183Y00821D02*
Y00862D01*
X02152Y00821D02*
Y00875D01*
X02046Y00821D02*
Y0086D01*
X02015Y00821D02*
Y00882D01*
X01983Y00821D02*
Y00862D01*
X01952Y00821D02*
Y0088D01*
X01621Y01313D02*
Y01345D01*
X01574Y01438D02*
X01774D01*
X01549Y01378D02*
X01594Y01423D01*
X01549Y01358D02*
Y01378D01*
X01594Y01423D02*
X01724D01*
X01599Y01388D02*
X01621D01*
X01574Y01353D02*
Y01363D01*
X01599Y01388*
X02774Y01113D02*
X02899D01*
X02774Y01063D02*
X02849D01*
X02774Y01013D02*
X02899D01*
X02046Y00935D02*
X02054Y00928D01*
X01924Y00935D02*
X02046D01*
X02049Y00963D02*
X02069Y00943D01*
X01924Y00963D02*
X02049D01*
Y00988D02*
X02079Y00958D01*
X02049Y01013D02*
X02089Y00973D01*
X01919Y01013D02*
X02049D01*
Y01037D02*
X02098Y00988D01*
X02049Y01058D02*
X02104Y01003D01*
X01924Y01058D02*
X02049D01*
X02054Y01078D02*
X02114Y01018D01*
X02324Y00913D02*
X02774Y00463D01*
X02849*
X01919Y00913D02*
X02324D01*
X02359Y00928D02*
X02774Y00513D01*
X02054Y00928D02*
X02359D01*
X02774Y00513D02*
X02899D01*
X02394Y00943D02*
X02774Y00563D01*
X02849*
X02069Y00943D02*
X02394D01*
X02429Y00958D02*
X02774Y00613D01*
X02899*
X02079Y00958D02*
X02429D01*
X02464Y00973D02*
X02774Y00663D01*
X02849*
X02089Y00973D02*
X02464D01*
X02499Y00988D02*
X02774Y00713D01*
X02899*
X02098Y00988D02*
X02499D01*
X02534Y01003D02*
X02774Y00763D01*
X02849*
X02104Y01003D02*
X02534D01*
X02569Y01018D02*
X02774Y00813D01*
X02899*
X02114Y01018D02*
X02569D01*
X02594Y01043D02*
X02774Y00863D01*
X02849*
X02624Y01063D02*
X02774Y00913D01*
X02124Y01063D02*
X02624D01*
X02774Y00913D02*
X02899D01*
X02654Y01083D02*
X02774Y00963D01*
X02134Y01103D02*
X02684D01*
X02774Y01013*
X02714Y01123D02*
X02774Y01063D01*
X02744Y01143D02*
X02774Y01113D01*
X02144Y01143D02*
X02744D01*
X02154Y01163D02*
X02849D01*
X02183Y00754D02*
X02184Y00753D01*
X02899Y00013D02*
X02949Y00063D01*
X01232Y00628D02*
Y0066D01*
Y00628D02*
X01298D01*
X01299*
X01232Y00565D02*
Y00597D01*
Y00565D02*
X01296D01*
X01401Y00538D02*
Y00585D01*
X01232Y00453D02*
Y00485D01*
X01297*
X01232Y0039D02*
Y00422D01*
Y0039D02*
X01296D01*
X01401Y0034D02*
Y00388D01*
Y00813D02*
X01449D01*
X02849Y00363D02*
X02899Y00413D01*
X02999D02*
X03074Y00338D01*
X02899Y00413D02*
X02999D01*
X02994Y-00087D02*
X03074Y-00007D01*
X02249Y-00087D02*
X02994D01*
X02076Y00085D02*
X02249Y-00087D01*
X02076Y00085D02*
Y00138D01*
X03074Y-00007D02*
Y00338D01*
X02849Y00163D02*
X02949Y00263D01*
X02674Y00063D02*
X02849D01*
X02699Y00013D02*
X02899D01*
X01514Y00588D02*
X02124D01*
X01346Y0042D02*
X01514Y00588D01*
X02124D02*
X02699Y00013D01*
X01508Y00603D02*
X02133D01*
X01346Y00765D02*
X01508Y00603D01*
X02133D02*
X02674Y00063D01*
X01784Y00728D02*
X01874Y00638D01*
X02016Y00753D02*
X02079D01*
X0192Y00754D02*
X01983D01*
X02115D02*
X02183D01*
X02216Y00753D02*
X02289D01*
X00549Y00088D02*
X00674D01*
Y-00037D02*
X00799D01*
X00549D02*
X00674D01*
X00549Y00213D02*
X00674D01*
X00549Y00338D02*
X00674D01*
Y-00037D02*
Y00338D01*
X00799Y-00037D02*
Y00338D01*
X00674D02*
X00799D01*
X00674Y00213D02*
X00799D01*
X00674Y00088D02*
X00799D01*
X00549Y-00037D02*
Y00463D01*
X00799*
Y00338D02*
Y00463D01*
X00674Y00338D02*
Y00463D01*
X01865Y00994D02*
X01924Y00935D01*
X01877Y01009D02*
X01924Y00963D01*
X01886Y01024D02*
X01923Y00988D01*
X01892Y01039D02*
X01919Y01013D01*
X01901Y01054D02*
X01919Y01037D01*
X01912Y01069D02*
X01924Y01058D01*
X01927Y01084D02*
X01934Y01078D01*
X02057Y01099D02*
X02114Y01043D01*
X02072Y01114D02*
X02124Y01063D01*
X02082Y01129D02*
X02129Y01083D01*
X02092Y01144D02*
X02134Y01103D01*
X02102Y01159D02*
X02139Y01123D01*
X02112Y01174D02*
X02144Y01143D01*
X02127Y01189D02*
X02154Y01163D01*
X02891Y01204D02*
X02949Y01263D01*
X01288Y01488D02*
X01434D01*
X01285Y0146D02*
X01415D01*
X01443Y01397D02*
X01449Y01391D01*
X01415Y01397D02*
X01443D01*
X01375Y01365D02*
X01415D01*
X01161Y01423D02*
Y01469D01*
X01098Y01423D02*
X01161D01*
X01149Y01395D02*
X01195D01*
X01288Y01488*
X01149Y01372D02*
X01197D01*
X01285Y0146*
X01149Y01348D02*
X01198D01*
X01259Y01383D02*
X01357D01*
X01375Y01365*
X01259Y0136D02*
X01355D01*
X01369Y01346*
X01441D02*
X01449Y01354D01*
X01369Y01346D02*
X01441D01*
X01449Y01354D02*
Y01391D01*
X01522Y01331D02*
X01549Y01358D01*
X0135Y01336D02*
X01355Y01331D01*
X01259Y01336D02*
X0135D01*
X01355Y01331D02*
X01522D01*
X01534Y01313D02*
X01574Y01353D01*
X01259Y01313D02*
X01534D01*
X01539Y01289D02*
X01563Y01313D01*
X01259Y01289D02*
X01539D01*
X01563Y01313D02*
X01621D01*
X01575Y01215D02*
X01586Y01204D01*
X02891*
X01518Y01242D02*
X0157Y01189D01*
X02127*
X01259Y01242D02*
X01518D01*
X0153Y012D02*
X01556Y01174D01*
X02112*
X01482Y01218D02*
X01541Y01159D01*
X02102*
X01259Y01218D02*
X01482D01*
X02139Y01123D02*
X02714D01*
X0149Y01175D02*
X01521Y01144D01*
X02092*
X0144Y01195D02*
X01505Y01129D01*
X02082*
X01259Y01195D02*
X0144D01*
X02129Y01083D02*
X02654D01*
X01455Y0115D02*
X01491Y01114D01*
X02072*
X01404Y01171D02*
X01476Y01099D01*
X02057*
X01259Y01171D02*
X01404D01*
X02114Y01043D02*
X02594D01*
X01407Y01147D02*
X01469Y01084D01*
X01927*
X01259Y01147D02*
X01407D01*
X01934Y01078D02*
X02054D01*
X01425Y011D02*
X01456Y01069D01*
X01912*
X01371Y01124D02*
X0144Y01054D01*
X01901*
X01259Y01124D02*
X01371D01*
X01919Y01037D02*
X02049D01*
X0139Y01075D02*
X01426Y01039D01*
X01892*
X01335Y011D02*
X01411Y01024D01*
X01886*
X01259Y011D02*
X01335D01*
X01923Y00988D02*
X02049D01*
X01355Y0105D02*
X01396Y01009D01*
X01877*
X01259Y01076D02*
X01299D01*
X01381Y00994*
X01865*
X01074Y01324D02*
X01149D01*
X00949Y01199D02*
X01074Y01324D01*
X00949Y00563D02*
Y01199D01*
X01346Y0036D02*
Y0042D01*
X01149Y01277D02*
X01198D01*
X012Y01275*
X01198Y01183D02*
X012Y01185D01*
X01183Y01112D02*
X01185Y0111D01*
X01101Y01301D02*
X01149D01*
X011Y013D02*
X01101Y01301D01*
X01069Y01044D02*
X01113Y01088D01*
X01069Y00668D02*
Y01044D01*
X01113Y01088D02*
X01202D01*
X01084Y01034D02*
X01115Y01065D01*
X01084Y00703D02*
Y01034D01*
X01149Y01017D02*
X01193D01*
X01105Y01D02*
X0112D01*
X01126Y00994*
X01149*
X01259Y00864D02*
X01321D01*
X01346Y00839*
Y00765D02*
Y00839D01*
X01187Y00923D02*
X01199Y00911D01*
X01149Y00923D02*
X01187D01*
X01201Y00876D02*
X01212Y00887D01*
X0129Y00935D02*
X013Y00925D01*
X01219Y00946D02*
X0123Y00935D01*
X01149Y00946D02*
X01219D01*
X01204Y01006D02*
X01259D01*
X01193Y01017D02*
X01204Y01006D01*
X01207Y00982D02*
X01259D01*
X01195Y0097D02*
X01207Y00982D01*
X01149Y0097D02*
X01195D01*
X01203Y00958D02*
X01259D01*
X01149Y00852D02*
X01193D01*
X01149Y00899D02*
X01201D01*
X01205Y0084D02*
X01259D01*
X01192Y00817D02*
X01259D01*
X01149Y00828D02*
X01188D01*
X01149Y00805D02*
X01205D01*
X01112Y00777D02*
X01161D01*
X01111Y00876D02*
X01201D01*
X01199Y00911D02*
X013D01*
X01212Y00887D02*
X01348D01*
X013D02*
Y00925D01*
X0123Y00935D02*
X0129D01*
X01429Y00288D02*
X01449Y00308D01*
X01469Y00288*
X01859Y00972D02*
X01919Y00913D01*
X01115Y01065D02*
X01185D01*
X01403Y00972D02*
X01859D01*
X01149Y00994D02*
X01184D01*
X01204Y00831D02*
Y01006D01*
Y0083D02*
Y00831D01*
X01184Y00994D02*
X01203D01*
X01525Y01265D02*
X01552Y01238D01*
X01259Y01265D02*
X01525D01*
X01552Y01238D02*
X01621D01*
X0156Y01275D02*
X02855D01*
X01054Y01054D02*
X01112Y01112D01*
X01054Y00658D02*
Y01054D01*
X01112Y01112D02*
X01183D01*
X01039Y01064D02*
X0111Y01135D01*
X01039Y00648D02*
Y01064D01*
X0111Y01135D02*
X012D01*
X01109Y01159D02*
X01149D01*
X01024Y01074D02*
X01109Y01159D01*
X01024Y00633D02*
Y01074D01*
X01009Y01084D02*
X01108Y01183D01*
X01009Y00603D02*
Y01084D01*
X01108Y01183D02*
X01198D01*
X00994Y01094D02*
X01106Y01206D01*
X00994Y00593D02*
Y01094D01*
X01106Y01206D02*
X01181D01*
X00979Y01104D02*
X01105Y0123D01*
X00979Y00583D02*
Y01104D01*
X01105Y0123D02*
X012D01*
X00964Y00573D02*
Y01114D01*
X01105Y01255*
X01183*
X01367Y0034D02*
X01401D01*
X01342Y00315D02*
X01367Y0034D01*
X01165Y00315D02*
X01342D01*
X0092Y0056D02*
X01165Y00315D01*
X0092Y0056D02*
Y00662D01*
X02327Y00638D02*
X02342Y00622D01*
X01574Y00728D02*
X01784D01*
X01874Y00638D02*
X02327D01*
G54D12*
X02076Y00238D02*
Y0027D01*
X02049Y00298D02*
X02076Y0027D01*
X02049Y00298D02*
Y00358D01*
X01751Y00138D02*
X01846D01*
X01834Y00488D02*
X01924D01*
X01974Y00538*
X02099*
X02124Y00513*
Y00388D02*
Y00513D01*
X02094Y00358D02*
X02124Y00388D01*
X01912Y00326D02*
X01944Y00358D01*
X01829Y00326D02*
X01912D01*
X01944Y00358D02*
X02094D01*
X01887Y00351D02*
X01999Y00463D01*
X02059*
X01749Y00188D02*
X01774Y00213D01*
X01749Y0014D02*
Y00188D01*
X01549Y00365D02*
X0166D01*
X01674Y00351D02*
X01719D01*
X0166Y00365D02*
X01674Y00351D01*
X01719D02*
Y00483D01*
X01576Y00438D02*
Y00515D01*
X01624Y00563*
X02349Y00688D02*
X02774Y00263D01*
X01482Y01428D02*
Y0146D01*
Y01428D02*
X01523D01*
X01482Y01365D02*
Y01397D01*
Y01365D02*
X01521D01*
X01524Y01363*
X02849Y00263D02*
X02949Y00363D01*
X02774Y00263D02*
X02849D01*
X01774Y00348D02*
X01777Y00351D01*
X01754Y00563D02*
X01774Y00543D01*
X01624Y00563D02*
X01754D01*
X01774Y00213D02*
Y00543D01*
X01777Y00351D02*
X01887D01*
X02949Y00163D02*
X03024Y00088D01*
X01846Y00138D02*
X01849Y00135D01*
X02324Y00238D02*
X02599Y-00037D01*
X02076Y00238D02*
X02324D01*
X02949Y00463D02*
X03024D01*
X01849Y00038D02*
Y00135D01*
X01999Y-00112D02*
X03024D01*
X03124Y-00012*
Y00363*
X01849Y00038D02*
X01999Y-00112D01*
X03024Y00463D02*
X03124Y00363D01*
X02974Y-00037D02*
X03024Y00013D01*
X02599Y-00037D02*
X02974D01*
X03024Y00013D02*
Y00088D01*
X01924Y00688D02*
X02349D01*
X01149Y01041D02*
X01206D01*
X01218Y01053*
X01292D02*
X01375Y0097D01*
Y00931D02*
Y0097D01*
X01218Y01053D02*
X01292D01*
X01218Y01036D02*
X01226Y01029D01*
X01306*
X01259D02*
X0129D01*
X01304Y01015*
X01212Y01029D02*
X0124D01*
X012Y01041D02*
X01212Y01029D01*
X0117Y01041D02*
X012D01*
X01401Y00813D02*
Y00839D01*
X01305Y00935D02*
X01401Y00839D01*
X01259Y00935D02*
X01305D01*
X01374Y00853D02*
X0139Y00836D01*
Y00772D02*
Y00836D01*
G54D13*
X03525Y0004D02*
Y0D01*
Y0004D02*
X0354Y0D01*
X03555Y0004D02*
X0354Y0D01*
X03555Y0004D02*
Y0D01*
X03567Y0004D02*
Y0D01*
Y0004D02*
X03584D01*
X0359Y00038*
X03592Y00036*
X03594Y00032*
Y00029*
X03592Y00025*
X0359Y00023*
X03584Y00021*
X03567D02*
X03584D01*
X0359Y00019*
X03592Y00017*
X03594Y00013*
Y00008*
X03592Y00004*
X0359Y00002*
X03584Y0*
X03567*
X03625Y00034D02*
X03623Y00038D01*
X03618Y0004*
X03614*
X03608Y00038*
X03604Y00032*
X03603Y00023*
Y00013*
X03604Y00006*
X03608Y00002*
X03614Y0*
X03616*
X03622Y00002*
X03625Y00006*
X03627Y00011*
Y00013*
X03625Y00019*
X03622Y00023*
X03616Y00025*
X03614*
X03608Y00023*
X03604Y00019*
X03603Y00013*
X03661Y00027D02*
X03659Y00021D01*
X03655Y00017*
X03649Y00015*
X03647*
X03642Y00017*
X03638Y00021*
X03636Y00027*
Y00029*
X03638Y00034*
X03642Y00038*
X03647Y0004*
X03649*
X03655Y00038*
X03659Y00034*
X03661Y00027*
Y00017*
X03659Y00008*
X03655Y00002*
X03649Y0*
X03646*
X0364Y00002*
X03638Y00006*
X03691Y0004D02*
X03672Y00013D01*
X037*
X03691Y0004D02*
Y0D01*
X00524Y01263D02*
D01*
X00523Y01269*
X00523Y01276*
X00521Y01283*
X0052Y0129*
X00517Y01297*
X00515Y01303*
X00512Y01309*
X00508Y01315*
X00504Y01321*
X005Y01327*
X00495Y01332*
X0049Y01337*
X00485Y01341*
X00479Y01345*
X00474Y01349*
X00467Y01352*
X00461Y01355*
X00454Y01358*
X00448Y0136*
X00441Y01361*
X00434Y01362*
X00427Y01362*
X0042*
X00413Y01362*
X00406Y01361*
X00399Y0136*
X00393Y01358*
X00386Y01355*
X0038Y01352*
X00373Y01349*
X00368Y01345*
X00362Y01341*
X00357Y01337*
X00352Y01332*
X00347Y01327*
X00343Y01321*
X00339Y01315*
X00335Y01309*
X00332Y01303*
X0033Y01297*
X00327Y0129*
X00326Y01283*
X00324Y01276*
X00324Y01269*
X00324Y01263*
Y00138D02*
D01*
X00324Y00131*
X00324Y00124*
X00326Y00117*
X00327Y0011*
X0033Y00103*
X00332Y00097*
X00335Y00091*
X00339Y00085*
X00343Y00079*
X00347Y00073*
X00352Y00068*
X00357Y00063*
X00362Y00059*
X00368Y00055*
X00374Y00051*
X0038Y00048*
X00386Y00045*
X00393Y00042*
X00399Y0004*
X00406Y00039*
X00413Y00038*
X0042Y00038*
X00427*
X00434Y00038*
X00441Y00039*
X00448Y0004*
X00454Y00042*
X00461Y00045*
X00467Y00048*
X00474Y00051*
X00479Y00055*
X00485Y00059*
X0049Y00063*
X00495Y00068*
X005Y00073*
X00504Y00079*
X00508Y00085*
X00512Y00091*
X00515Y00097*
X00517Y00103*
X0052Y0011*
X00521Y00117*
X00523Y00124*
X00523Y00131*
X00524Y00138*
X-00086Y01573D02*
X03219D01*
X03218Y-00158D02*
X03219Y-00157D01*
Y01573*
X00324Y00138D02*
Y01263D01*
X00524Y00138D02*
Y01258D01*
X-00086Y-00158D02*
Y01573D01*
Y-00158D02*
X03218D01*
G54D14*
X00589Y00166D02*
X00639Y00147D01*
X00589Y00128*
X00606Y00135D02*
Y00159D01*
X00737Y0013D02*
X00739D01*
X00744Y00132*
X00747Y00135*
X00749Y0014*
Y00149*
X00747Y00154*
X00744Y00156*
X00739Y00159*
X00735*
X0073Y00156*
X00723Y00152*
X00699Y00128*
Y00161*
G54D15*
X02949Y00063D03*
Y00163D03*
Y00263D03*
Y00363D03*
X02849Y00063D03*
Y00163D03*
Y00263D03*
Y00363D03*
Y01463D03*
X02949Y01363D03*
Y01463D03*
X02849Y01363D03*
X02949Y00463D03*
Y00563D03*
Y00663D03*
Y00763D03*
Y00863D03*
Y00963D03*
Y01063D03*
Y01163D03*
Y01263D03*
X02849Y00463D03*
Y00563D03*
Y00663D03*
Y00763D03*
Y00863D03*
Y00963D03*
Y01063D03*
Y01163D03*
Y01263D03*
G54D16*
X0Y0D03*
D03*
Y01418D03*
G54D17*
X02424Y00438D03*
X02309Y00542D03*
X01579Y00642D03*
X01794Y00643D03*
X01684D03*
X00094Y00313D03*
Y00193D03*
X00214D03*
Y00313D03*
X00674Y00612D03*
X00569D03*
X00674Y00518D03*
X00574D03*
X01084Y01482D03*
Y01392D03*
X01264Y00742D03*
X01112Y00777D03*
X01159Y00702D03*
X01524Y01512D03*
X02274Y01518D03*
X02404D03*
X02524D03*
X00784Y01208D03*
X00874D03*
X00784Y01118D03*
X00874D03*
X01424Y00042D03*
Y-00082D03*
X01599Y00042D03*
Y-00078D03*
X01724Y01388D03*
Y01313D03*
Y01238D03*
X01574Y01463D03*
X02246Y0086D03*
X02214Y00878D03*
X02183Y00862D03*
X02152Y00875D03*
X02046Y0086D03*
Y00935D03*
X02015Y00882D03*
X02014Y00988D03*
X01983Y00862D03*
Y01037D03*
X01952Y0088D03*
Y01078D03*
X01524Y01428D03*
Y01363D03*
X01574Y01438D03*
Y01363D03*
X02246Y01043D03*
X02214Y01083D03*
X02184Y01123D03*
X02154Y01163D03*
X0192Y00754D03*
X02079Y00753D03*
X02115Y00754D03*
X02289Y00753D03*
X01299Y00628D03*
X01296Y00565D03*
X01401Y00585D03*
X01297Y00485D03*
X01296Y0039D03*
X01401Y0034D03*
X01449Y00813D03*
X01574Y00728D03*
X00089Y01162D03*
X00214D03*
X00094Y01038D03*
X00214D03*
X00869Y00782D03*
X00784Y00783D03*
X01459Y00712D03*
X01105Y01D03*
X02369Y00802D03*
X02104Y00863D03*
X02304D03*
X00869Y00712D03*
X00784Y00713D03*
X01198Y01348D03*
X01575Y01215D03*
X0153Y012D03*
X0149Y01175D03*
X01455Y0115D03*
X01425Y011D03*
X0139Y01075D03*
X01355Y0105D03*
X012Y01275D03*
X01183Y01255D03*
X012Y0123D03*
X01181Y01206D03*
X012Y01185D03*
Y01135D03*
X01185Y0111D03*
X011Y013D03*
X01202Y01088D03*
X01185Y01065D03*
X01111Y00876D03*
X01403Y00972D03*
X01599Y0092D03*
X0131Y00902D03*
X0156Y01275D03*
X01004Y01205D03*
X02735Y01242D03*
X02485D03*
X02055D03*
G54D18*
X01674Y00708D03*
Y00818D03*
X02049Y00468D03*
Y00358D03*
G54D19*
X01489Y00438D03*
X01609D03*
G54D20*
X01549Y00365D03*
G54D21*
X01549Y00273D03*
G54D22*
X01232Y00485D03*
Y0039D03*
Y00453D03*
X01165Y00485D03*
Y0039D03*
Y00453D03*
Y00422D03*
X01232D03*
Y00597D03*
X01165D03*
Y00628D03*
Y00565D03*
Y0066D03*
X01232Y00628D03*
Y00565D03*
Y0066D03*
X01482Y01397D03*
X01415D03*
Y01428D03*
Y01365D03*
Y0146D03*
X01482Y01428D03*
Y01365D03*
Y0146D03*
G54D23*
X02246Y00754D03*
X02152D03*
X02215D03*
X02246Y00821D03*
X02152D03*
X02215D03*
X02183D03*
Y00754D03*
X01983D03*
Y00821D03*
X02015D03*
X01952D03*
X02046D03*
X02015Y00754D03*
X01952D03*
X02046D03*
G54D24*
X01829Y00351D03*
Y003D03*
Y00326D03*
Y00274D03*
X01719D03*
Y003D03*
Y00326D03*
Y00351D03*
X01259Y01265D03*
Y01242D03*
Y01218D03*
Y01195D03*
Y01171D03*
Y01147D03*
Y01124D03*
Y011D03*
Y01076D03*
Y0136D03*
Y01383D03*
X01149Y01254D03*
Y0123D03*
Y01206D03*
Y01183D03*
Y01159D03*
Y01135D03*
Y01112D03*
Y01088D03*
Y01065D03*
Y01372D03*
X01259Y00864D03*
X01149Y00946D03*
X01259Y00958D03*
X01149Y01277D03*
X01259Y01289D03*
X01149Y01301D03*
X01259Y01313D03*
X01149Y01324D03*
X01259Y01336D03*
X01149Y01348D03*
Y01395D03*
Y01041D03*
Y01017D03*
Y00994D03*
Y0097D03*
X01259Y01053D03*
Y01029D03*
Y01006D03*
Y00982D03*
Y00935D03*
X01149Y00923D03*
X01259Y00911D03*
X01149Y00899D03*
X01259Y00887D03*
X01149Y00876D03*
Y00852D03*
X01259Y0084D03*
X01149Y00828D03*
X01259Y00817D03*
X01149Y00805D03*
G54D25*
X01621Y01238D03*
X01346Y00388D03*
Y00813D03*
X01751Y00138D03*
X01846D03*
X01621Y01313D03*
Y01388D03*
X02021Y00238D03*
Y00138D03*
X01676Y01313D03*
Y01388D03*
Y01238D03*
X01901Y00138D03*
X01696D03*
X02076D03*
X01401Y00813D03*
Y00388D03*
X02076Y00238D03*
X01401Y00538D03*
X01346D03*
G54D26*
X01714Y00488D03*
G54D27*
X01834Y00488D03*
G54D28*
X01161Y01423D03*
Y00777D03*
G54D29*
X00643Y01435D03*
X00596D03*
G54D30*
X01449Y00348D02*
X01489Y00388D01*
Y00438*
X01599Y00188D02*
X01649Y00238D01*
X01174Y00188D02*
X01599D01*
X01662Y00326D02*
X01719D01*
X00694Y00743D02*
X01149Y00288D01*
X01624D02*
X01662Y00326D01*
X01649Y00238D02*
Y00263D01*
X01684Y00298*
X01685*
X00596Y01526D02*
X00605Y01535D01*
X00675*
X00694Y01516*
X00596Y01404D02*
Y01526D01*
X00694Y00743D02*
Y01516D01*
X01449Y00288D02*
Y00348D01*
X01149Y00288D02*
X01624D01*
X00643Y00719D02*
Y01435D01*
Y00719D02*
X01174Y00188D01*
G54D31*
X01686Y003D02*
X01719D01*
M02*