%FSTAX23Y23*%
%MOIN*%
%SFA1B1*%

%IPPOS*%
%ADD13C,0.005000*%
%ADD36C,0.068000*%
%ADD37C,0.134000*%
%ADD38C,0.024000*%
%ADD39R,0.068000X0.058000*%
%ADD40R,0.058000X0.068000*%
%ADD41R,0.058000X0.038000*%
%ADD42R,0.087000X0.113000*%
%ADD43R,0.043000X0.024000*%
%ADD44R,0.024000X0.043000*%
%ADD45R,0.039000X0.020000*%
%ADD46R,0.038000X0.038000*%
%ADD47R,0.067000X0.087000*%
%ADD48R,0.067000X0.087000*%
%ADD49R,0.047000X0.024000*%
%ADD50R,0.028000X0.106000*%
%LNmb694-1*%
%LPD*%
G54D13*
X00524Y01263D02*
D01*
X00523Y01269*
X00523Y01276*
X00521Y01283*
X0052Y0129*
X00517Y01297*
X00515Y01303*
X00512Y01309*
X00508Y01315*
X00504Y01321*
X005Y01327*
X00495Y01332*
X0049Y01337*
X00485Y01341*
X00479Y01345*
X00474Y01349*
X00467Y01352*
X00461Y01355*
X00454Y01358*
X00448Y0136*
X00441Y01361*
X00434Y01362*
X00427Y01362*
X0042*
X00413Y01362*
X00406Y01361*
X00399Y0136*
X00393Y01358*
X00386Y01355*
X0038Y01352*
X00373Y01349*
X00368Y01345*
X00362Y01341*
X00357Y01337*
X00352Y01332*
X00347Y01327*
X00343Y01321*
X00339Y01315*
X00335Y01309*
X00332Y01303*
X0033Y01297*
X00327Y0129*
X00326Y01283*
X00324Y01276*
X00324Y01269*
X00324Y01263*
Y00138D02*
D01*
X00324Y00131*
X00324Y00124*
X00326Y00117*
X00327Y0011*
X0033Y00103*
X00332Y00097*
X00335Y00091*
X00339Y00085*
X00343Y00079*
X00347Y00073*
X00352Y00068*
X00357Y00063*
X00362Y00059*
X00368Y00055*
X00374Y00051*
X0038Y00048*
X00386Y00045*
X00393Y00042*
X00399Y0004*
X00406Y00039*
X00413Y00038*
X0042Y00038*
X00427*
X00434Y00038*
X00441Y00039*
X00448Y0004*
X00454Y00042*
X00461Y00045*
X00467Y00048*
X00474Y00051*
X00479Y00055*
X00485Y00059*
X0049Y00063*
X00495Y00068*
X005Y00073*
X00504Y00079*
X00508Y00085*
X00512Y00091*
X00515Y00097*
X00517Y00103*
X0052Y0011*
X00521Y00117*
X00523Y00124*
X00523Y00131*
X00524Y00138*
X-00086Y01573D02*
X03219D01*
X03218Y-00158D02*
X03219Y-00157D01*
Y01573*
X00324Y00138D02*
Y01263D01*
X00524Y00138D02*
Y01258D01*
X-00086Y-00158D02*
Y01573D01*
Y-00158D02*
X03218D01*
G54D36*
X02949Y00063D03*
Y00163D03*
Y00263D03*
Y00363D03*
X02849Y00063D03*
Y00163D03*
Y00263D03*
Y00363D03*
Y01463D03*
X02949Y01363D03*
Y01463D03*
X02849Y01363D03*
X02949Y00463D03*
Y00563D03*
Y00663D03*
Y00763D03*
Y00863D03*
Y00963D03*
Y01063D03*
Y01163D03*
Y01263D03*
X02849Y00463D03*
Y00563D03*
Y00663D03*
Y00763D03*
Y00863D03*
Y00963D03*
Y01063D03*
Y01163D03*
Y01263D03*
G54D37*
X0Y0D03*
D03*
Y01418D03*
G54D38*
X02424Y00438D03*
X02309Y00542D03*
X01579Y00642D03*
X01794Y00643D03*
X01684D03*
X00094Y00313D03*
Y00193D03*
X00214D03*
Y00313D03*
X00674Y00612D03*
X00569D03*
X00674Y00518D03*
X00574D03*
X01084Y01482D03*
Y01392D03*
X01264Y00742D03*
X01112Y00777D03*
X01159Y00702D03*
X01524Y01512D03*
X02274Y01518D03*
X02404D03*
X02524D03*
X00784Y01208D03*
X00874D03*
X00784Y01118D03*
X00874D03*
X01424Y00042D03*
Y-00082D03*
X01599Y00042D03*
Y-00078D03*
X01724Y01388D03*
Y01313D03*
Y01238D03*
X01574Y01463D03*
X02246Y0086D03*
X02214Y00878D03*
X02183Y00862D03*
X02152Y00875D03*
X02046Y0086D03*
Y00935D03*
X02015Y00882D03*
X02014Y00988D03*
X01983Y00862D03*
Y01037D03*
X01952Y0088D03*
Y01078D03*
X01524Y01428D03*
Y01363D03*
X01574Y01438D03*
Y01363D03*
X02246Y01043D03*
X02214Y01083D03*
X02184Y01123D03*
X02154Y01163D03*
X0192Y00754D03*
X02079Y00753D03*
X02115Y00754D03*
X02289Y00753D03*
X01299Y00628D03*
X01296Y00565D03*
X01401Y00585D03*
X01297Y00485D03*
X01296Y0039D03*
X01401Y0034D03*
X01449Y00813D03*
X01574Y00728D03*
X00089Y01162D03*
X00214D03*
X00094Y01038D03*
X00214D03*
X00869Y00782D03*
X00784Y00783D03*
X01459Y00712D03*
X01105Y01D03*
X02369Y00802D03*
X02104Y00863D03*
X02304D03*
X00869Y00712D03*
X00784Y00713D03*
X01198Y01348D03*
X01575Y01215D03*
X0153Y012D03*
X0149Y01175D03*
X01455Y0115D03*
X01425Y011D03*
X0139Y01075D03*
X01355Y0105D03*
X012Y01275D03*
X01183Y01255D03*
X012Y0123D03*
X01181Y01206D03*
X012Y01185D03*
Y01135D03*
X01185Y0111D03*
X011Y013D03*
X01202Y01088D03*
X01185Y01065D03*
X01111Y00876D03*
X01403Y00972D03*
X01599Y0092D03*
X0131Y00902D03*
X0156Y01275D03*
X01004Y01205D03*
X02735Y01242D03*
X02485D03*
X02055D03*
G54D39*
X01674Y00708D03*
Y00818D03*
X02049Y00468D03*
Y00358D03*
G54D40*
X01489Y00438D03*
X01609D03*
G54D41*
X01549Y00365D03*
G54D42*
X01549Y00273D03*
G54D43*
X01232Y00485D03*
Y0039D03*
Y00453D03*
X01165Y00485D03*
Y0039D03*
Y00453D03*
Y00422D03*
X01232D03*
Y00597D03*
X01165D03*
Y00628D03*
Y00565D03*
Y0066D03*
X01232Y00628D03*
Y00565D03*
Y0066D03*
X01482Y01397D03*
X01415D03*
Y01428D03*
Y01365D03*
Y0146D03*
X01482Y01428D03*
Y01365D03*
Y0146D03*
G54D44*
X02246Y00754D03*
X02152D03*
X02215D03*
X02246Y00821D03*
X02152D03*
X02215D03*
X02183D03*
Y00754D03*
X01983D03*
Y00821D03*
X02015D03*
X01952D03*
X02046D03*
X02015Y00754D03*
X01952D03*
X02046D03*
G54D45*
X01829Y00351D03*
Y003D03*
Y00326D03*
Y00274D03*
X01719D03*
Y003D03*
Y00326D03*
Y00351D03*
X01259Y01265D03*
Y01242D03*
Y01218D03*
Y01195D03*
Y01171D03*
Y01147D03*
Y01124D03*
Y011D03*
Y01076D03*
Y0136D03*
Y01383D03*
X01149Y01254D03*
Y0123D03*
Y01206D03*
Y01183D03*
Y01159D03*
Y01135D03*
Y01112D03*
Y01088D03*
Y01065D03*
Y01372D03*
X01259Y00864D03*
X01149Y00946D03*
X01259Y00958D03*
X01149Y01277D03*
X01259Y01289D03*
X01149Y01301D03*
X01259Y01313D03*
X01149Y01324D03*
X01259Y01336D03*
X01149Y01348D03*
Y01395D03*
Y01041D03*
Y01017D03*
Y00994D03*
Y0097D03*
X01259Y01053D03*
Y01029D03*
Y01006D03*
Y00982D03*
Y00935D03*
X01149Y00923D03*
X01259Y00911D03*
X01149Y00899D03*
X01259Y00887D03*
X01149Y00876D03*
Y00852D03*
X01259Y0084D03*
X01149Y00828D03*
X01259Y00817D03*
X01149Y00805D03*
G54D46*
X01621Y01238D03*
X01346Y00388D03*
Y00813D03*
X01751Y00138D03*
X01846D03*
X01621Y01313D03*
Y01388D03*
X02021Y00238D03*
Y00138D03*
X01676Y01313D03*
Y01388D03*
Y01238D03*
X01901Y00138D03*
X01696D03*
X02076D03*
X01401Y00813D03*
Y00388D03*
X02076Y00238D03*
X01401Y00538D03*
X01346D03*
G54D47*
X01714Y00488D03*
G54D48*
X01834Y00488D03*
G54D49*
X01161Y01423D03*
Y00777D03*
G54D50*
X00643Y01435D03*
X00596D03*
M02*