%FSTAX23Y23*%
%MOIN*%
%SFA1B1*%

%IPPOS*%
%ADD13C,0.005000*%
%ADD18R,0.060000X0.050000*%
%ADD19R,0.050000X0.060000*%
%ADD20R,0.050000X0.030000*%
%ADD21R,0.079000X0.105000*%
%ADD22R,0.035000X0.016000*%
%ADD23R,0.016000X0.035000*%
%ADD24R,0.031000X0.012000*%
%ADD25R,0.030000X0.030000*%
%ADD26R,0.059000X0.079000*%
%ADD27R,0.059000X0.079000*%
%ADD28R,0.039000X0.016000*%
%ADD29R,0.020000X0.098000*%
%LNmb694-1*%
%LPD*%
G54D13*
X00524Y01263D02*
D01*
X00523Y01269*
X00523Y01276*
X00521Y01283*
X0052Y0129*
X00517Y01297*
X00515Y01303*
X00512Y01309*
X00508Y01315*
X00504Y01321*
X005Y01327*
X00495Y01332*
X0049Y01337*
X00485Y01341*
X00479Y01345*
X00474Y01349*
X00467Y01352*
X00461Y01355*
X00454Y01358*
X00448Y0136*
X00441Y01361*
X00434Y01362*
X00427Y01362*
X0042*
X00413Y01362*
X00406Y01361*
X00399Y0136*
X00393Y01358*
X00386Y01355*
X0038Y01352*
X00373Y01349*
X00368Y01345*
X00362Y01341*
X00357Y01337*
X00352Y01332*
X00347Y01327*
X00343Y01321*
X00339Y01315*
X00335Y01309*
X00332Y01303*
X0033Y01297*
X00327Y0129*
X00326Y01283*
X00324Y01276*
X00324Y01269*
X00324Y01263*
Y00138D02*
D01*
X00324Y00131*
X00324Y00124*
X00326Y00117*
X00327Y0011*
X0033Y00103*
X00332Y00097*
X00335Y00091*
X00339Y00085*
X00343Y00079*
X00347Y00073*
X00352Y00068*
X00357Y00063*
X00362Y00059*
X00368Y00055*
X00374Y00051*
X0038Y00048*
X00386Y00045*
X00393Y00042*
X00399Y0004*
X00406Y00039*
X00413Y00038*
X0042Y00038*
X00427*
X00434Y00038*
X00441Y00039*
X00448Y0004*
X00454Y00042*
X00461Y00045*
X00467Y00048*
X00474Y00051*
X00479Y00055*
X00485Y00059*
X0049Y00063*
X00495Y00068*
X005Y00073*
X00504Y00079*
X00508Y00085*
X00512Y00091*
X00515Y00097*
X00517Y00103*
X0052Y0011*
X00521Y00117*
X00523Y00124*
X00523Y00131*
X00524Y00138*
X-00086Y01573D02*
X03219D01*
X03218Y-00158D02*
X03219Y-00157D01*
Y01573*
X00324Y00138D02*
Y01263D01*
X00524Y00138D02*
Y01258D01*
X-00086Y-00158D02*
Y01573D01*
Y-00158D02*
X03218D01*
G54D18*
X01674Y00708D03*
Y00818D03*
X02049Y00468D03*
Y00358D03*
G54D19*
X01489Y00438D03*
X01609D03*
G54D20*
X01549Y00365D03*
G54D21*
X01549Y00273D03*
G54D22*
X01232Y00485D03*
Y0039D03*
Y00453D03*
X01165Y00485D03*
Y0039D03*
Y00453D03*
Y00422D03*
X01232D03*
Y00597D03*
X01165D03*
Y00628D03*
Y00565D03*
Y0066D03*
X01232Y00628D03*
Y00565D03*
Y0066D03*
X01482Y01397D03*
X01415D03*
Y01428D03*
Y01365D03*
Y0146D03*
X01482Y01428D03*
Y01365D03*
Y0146D03*
G54D23*
X02246Y00754D03*
X02152D03*
X02215D03*
X02246Y00821D03*
X02152D03*
X02215D03*
X02183D03*
Y00754D03*
X01983D03*
Y00821D03*
X02015D03*
X01952D03*
X02046D03*
X02015Y00754D03*
X01952D03*
X02046D03*
G54D24*
X01829Y00351D03*
Y003D03*
Y00326D03*
Y00274D03*
X01719D03*
Y003D03*
Y00326D03*
Y00351D03*
X01259Y01265D03*
Y01242D03*
Y01218D03*
Y01195D03*
Y01171D03*
Y01147D03*
Y01124D03*
Y011D03*
Y01076D03*
Y0136D03*
Y01383D03*
X01149Y01254D03*
Y0123D03*
Y01206D03*
Y01183D03*
Y01159D03*
Y01135D03*
Y01112D03*
Y01088D03*
Y01065D03*
Y01372D03*
X01259Y00864D03*
X01149Y00946D03*
X01259Y00958D03*
X01149Y01277D03*
X01259Y01289D03*
X01149Y01301D03*
X01259Y01313D03*
X01149Y01324D03*
X01259Y01336D03*
X01149Y01348D03*
Y01395D03*
Y01041D03*
Y01017D03*
Y00994D03*
Y0097D03*
X01259Y01053D03*
Y01029D03*
Y01006D03*
Y00982D03*
Y00935D03*
X01149Y00923D03*
X01259Y00911D03*
X01149Y00899D03*
X01259Y00887D03*
X01149Y00876D03*
Y00852D03*
X01259Y0084D03*
X01149Y00828D03*
X01259Y00817D03*
X01149Y00805D03*
G54D25*
X01621Y01238D03*
X01346Y00388D03*
Y00813D03*
X01751Y00138D03*
X01846D03*
X01621Y01313D03*
Y01388D03*
X02021Y00238D03*
Y00138D03*
X01676Y01313D03*
Y01388D03*
Y01238D03*
X01901Y00138D03*
X01696D03*
X02076D03*
X01401Y00813D03*
Y00388D03*
X02076Y00238D03*
X01401Y00538D03*
X01346D03*
G54D26*
X01714Y00488D03*
G54D27*
X01834Y00488D03*
G54D28*
X01161Y01423D03*
Y00777D03*
G54D29*
X00643Y01435D03*
X00596D03*
M02*