M48
INCH,LZ
;TYPE=PLATED
T1F00S00C0.008
T2F00S00C0.040
;TYPE=NON_PLATED
T3F00S00C0.126
%
T01
X00094Y00193
Y00313
X00214
Y00193
X00574Y00518
X00569Y00612
X00674
X00674Y00518
X00784Y00713
Y00783
X00869Y00782
Y00712
X00874Y01118
Y01208
X00784
Y01118
X01004Y01205
X00214Y01162
X00214Y01038
X00094
X00089Y01162
X012Y01185
X01181Y01206
X012Y0123
X01183Y01255
X012Y01275
X01198Y01348
X011Y013
X01084Y01392
X012Y01135
X01185Y0111
X01202Y01088
X01185Y01065
X01105Y01
X01111Y00876
X01112Y00777
X01159Y00702
X01264Y00742
X01299Y00628
X01296Y00565
X01297Y00485
X01296Y0039
X01401Y0034
Y00585
X01459Y00712
X01449Y00813
X01403Y00972
X0139Y01075
X01425Y011
X01455Y0115
X0149Y01175
X0153Y012
X01575Y01215
X0156Y01275
X01574Y01363
X01524
X01724Y01388
Y01313
Y01238
X02055Y01242
X02154Y01163
X02184Y01123
X02214Y01083
X02246Y01043
Y0086
X02214Y00878
X02183Y00862
X02152Y00875
X02104Y00863
X02046Y0086
X02015Y00882
X01983Y00862
X01952Y0088
X02046Y00935
X02014Y00988
X01983Y01037
X01952Y01078
X0192Y00754
X02079Y00753
X02115Y00754
X02289Y00753
X02304Y00863
X02369Y00802
X02309Y00542
X02424Y00438
X01794Y00643
X01684
X01579Y00642
X01574Y00728
X01599Y0092
X0131Y00902
X01355Y0105
X01424Y00042
X01424Y-00082
X01599Y-00078
Y00042
X02485Y01242
X02735
X02524Y01518
X02404
X02274
X01574Y01463
Y01438
X01524Y01428
Y01512
X01084Y01482
T02
X02849Y00063
X02949
Y00163
Y00263
Y00363
X02849
Y00263
Y00163
Y00463
X02949
Y00563
Y00663
Y00763
Y00863
Y00963
Y01063
Y01163
Y01263
Y01363
X02849
Y01263
Y01163
Y01063
Y00963
Y00863
Y00763
Y00663
Y00563
Y01463
X02949
T03
X0Y0
Y01418
M30
