%FSTAX23Y23*%
%MOIN*%
%SFA1B1*%

%IPPOS*%
%ADD10C,0.010000*%
%ADD13C,0.005000*%
%ADD15C,0.006000*%
%ADD33C,0.001000*%
%LNmb694-1*%
%LPD*%
G54D10*
X-00234Y00138D02*
X00311D01*
X-00234Y01263D02*
X00311D01*
X-00224Y00138D02*
Y00519D01*
Y00849D02*
Y01263D01*
Y00138D02*
X-00204Y00198D01*
X-00244D02*
X-00224Y00138D01*
X-00244Y01203D02*
X-00224Y01263D01*
X-00204Y01203*
X-00234Y01263D02*
X00311D01*
X-00234Y01418D02*
X-00093D01*
X-00224Y01263D02*
Y0134D01*
Y01418*
Y01263D02*
X-00204Y01323D01*
X-00244D02*
X-00224Y01263D01*
X-00244Y01358D02*
X-00224Y01418D01*
X-00204Y01358*
X00585Y01424D02*
X0075D01*
X00424Y01263D02*
X00585Y01424D01*
X00438Y01305D02*
X00495Y01333D01*
X00466Y01277D02*
X00495Y01333D01*
X00324Y01275D02*
Y01685D01*
X0Y01511D02*
Y01685D01*
X00162Y01675D02*
X00324D01*
X0D02*
X00162D01*
X00264Y01695D02*
X00324Y01675D01*
X00264Y01655D02*
X00324Y01675D01*
X0D02*
X0006Y01655D01*
X0Y01675D02*
X0006Y01695D01*
X00524Y0015D02*
Y01685D01*
X00324Y0015D02*
Y01685D01*
X00224Y01675D02*
X00324D01*
X00524D02*
X00624D01*
X00264Y01695D02*
X00324Y01675D01*
X00264Y01655D02*
X00324Y01675D01*
X00524D02*
X00584Y01655D01*
X00524Y01675D02*
X00584Y01695D01*
X-00086Y01585D02*
Y01839D01*
X03219Y01585D02*
Y01839D01*
X-00086Y01829D02*
X01339D01*
X01689D02*
X03219D01*
X-00086D02*
X-00026Y01809D01*
X-00086Y01829D02*
X-00026Y01849D01*
X03159D02*
X03219Y01829D01*
X03159Y01809D02*
X03219Y01829D01*
X-00086Y01585D02*
Y01685D01*
X0Y01511D02*
Y01685D01*
Y01675D02*
X001D01*
X-00186D02*
X-00086D01*
X0D02*
X0006Y01655D01*
X0Y01675D02*
X0006Y01695D01*
X-00146D02*
X-00086Y01675D01*
X-00146Y01655D02*
X-00086Y01675D01*
X-00458Y-00158D02*
X-00099D01*
X-00458Y01573D02*
X-00099D01*
X-00448Y-00158D02*
Y00522D01*
Y00862D02*
Y01573D01*
Y-00158D02*
X-00428Y-00098D01*
X-00468D02*
X-00448Y-00158D01*
X-00468Y01513D02*
X-00448Y01573D01*
X-00428Y01513*
X-00375Y01573D02*
X-00099D01*
X-00375Y01418D02*
X-00093D01*
X-00365Y01318D02*
Y01418D01*
Y01573D02*
Y01673D01*
X-00385Y01358D02*
X-00365Y01418D01*
X-00345Y01358*
X-00365Y01573D02*
X-00345Y01633D01*
X-00385D02*
X-00365Y01573D01*
X-00377Y0D02*
X-00093D01*
X-00377Y01418D02*
X-00093D01*
X-00367Y0D02*
Y00528D01*
Y00858D02*
Y01418D01*
Y0D02*
X-00347Y0006D01*
X-00387D02*
X-00367Y0D01*
X-00387Y01358D02*
X-00367Y01418D01*
X-00347Y01358*
G54D13*
X00524Y01263D02*
D01*
X00523Y01269*
X00523Y01276*
X00521Y01283*
X0052Y0129*
X00517Y01297*
X00515Y01303*
X00512Y01309*
X00508Y01315*
X00504Y01321*
X005Y01327*
X00495Y01332*
X0049Y01337*
X00485Y01341*
X00479Y01345*
X00474Y01349*
X00467Y01352*
X00461Y01355*
X00454Y01358*
X00448Y0136*
X00441Y01361*
X00434Y01362*
X00427Y01362*
X0042*
X00413Y01362*
X00406Y01361*
X00399Y0136*
X00393Y01358*
X00386Y01355*
X0038Y01352*
X00373Y01349*
X00368Y01345*
X00362Y01341*
X00357Y01337*
X00352Y01332*
X00347Y01327*
X00343Y01321*
X00339Y01315*
X00335Y01309*
X00332Y01303*
X0033Y01297*
X00327Y0129*
X00326Y01283*
X00324Y01276*
X00324Y01269*
X00324Y01263*
Y00138D02*
D01*
X00324Y00131*
X00324Y00124*
X00326Y00117*
X00327Y0011*
X0033Y00103*
X00332Y00097*
X00335Y00091*
X00339Y00085*
X00343Y00079*
X00347Y00073*
X00352Y00068*
X00357Y00063*
X00362Y00059*
X00368Y00055*
X00374Y00051*
X0038Y00048*
X00386Y00045*
X00393Y00042*
X00399Y0004*
X00406Y00039*
X00413Y00038*
X0042Y00038*
X00427*
X00434Y00038*
X00441Y00039*
X00448Y0004*
X00454Y00042*
X00461Y00045*
X00467Y00048*
X00474Y00051*
X00479Y00055*
X00485Y00059*
X0049Y00063*
X00495Y00068*
X005Y00073*
X00504Y00079*
X00508Y00085*
X00512Y00091*
X00515Y00097*
X00517Y00103*
X0052Y0011*
X00521Y00117*
X00523Y00124*
X00523Y00131*
X00524Y00138*
X00228Y00293D02*
X00424Y00097D01*
Y00038D02*
Y00097D01*
Y00038D02*
X00444Y00098D01*
X00404D02*
X00424Y00038D01*
X-00086Y01573D02*
X03219D01*
X03218Y-00158D02*
X03219Y-00157D01*
Y01573*
X00324Y00138D02*
Y01263D01*
X00524Y00138D02*
Y01258D01*
X-00086Y-00158D02*
Y01573D01*
Y-00158D02*
X03218D01*
X0375Y0044D02*
X03763D01*
X03757*
Y0048*
X0375Y00473*
X03783D02*
X0379Y0048D01*
X03803*
X0381Y00473*
Y00447*
X03803Y0044*
X0379*
X03783Y00447*
Y00473*
X0385Y0048D02*
X03837Y00473D01*
X03823Y0046*
Y00447*
X0383Y0044*
X03843*
X0385Y00447*
Y00453*
X03843Y0046*
X03823*
X04065Y00473D02*
X04072Y0048D01*
X04085*
X04092Y00473*
Y00467*
X04085Y0046*
X04092Y00453*
Y00447*
X04085Y0044*
X04072*
X04065Y00447*
Y00453*
X04072Y0046*
X04065Y00467*
Y00473*
X04072Y0046D02*
X04085D01*
X04105Y0044D02*
Y00467D01*
X04112*
X04118Y0046*
Y0044*
Y0046*
X04125Y00467*
X04132Y0046*
Y0044*
X04145D02*
X04158D01*
X04152*
Y00467*
X04145*
X04178Y0044D02*
X04192D01*
X04185*
Y0048*
X04178*
X04515Y00473D02*
X04522Y0048D01*
X04535*
X04542Y00473*
Y00447*
X04535Y0044*
X04522*
X04515Y00447*
Y00473*
X04555Y0044D02*
Y00447D01*
X04562*
Y0044*
X04555*
X04615D02*
X04588D01*
X04615Y00467*
Y00473*
X04608Y0048*
X04595*
X04588Y00473*
X04628D02*
X04635Y0048D01*
X04648*
X04655Y00473*
Y00447*
X04648Y0044*
X04635*
X04628Y00447*
Y00473*
X04668D02*
X04675Y0048D01*
X04688*
X04695Y00473*
Y00467*
X04688Y0046*
X04682*
X04688*
X04695Y00453*
Y00447*
X04688Y0044*
X04675*
X04668Y00447*
X04735Y0044D02*
X04708D01*
X04735Y00467*
Y00473*
X04728Y0048*
X04715*
X04708Y00473*
X04748Y0044D02*
Y00467D01*
X04755*
X04762Y0046*
Y0044*
Y0046*
X04768Y00467*
X04775Y0046*
Y0044*
X04788D02*
Y00467D01*
X04795*
X04802Y0046*
Y0044*
Y0046*
X04808Y00467*
X04815Y0046*
Y0044*
X04965D02*
Y0048D01*
X04985*
X04992Y00473*
Y0046*
X04985Y00453*
X04965*
X05005Y0048D02*
X05032D01*
X05018*
Y0044*
X05045Y0048D02*
Y0044D01*
Y0046*
X05072*
Y0048*
Y0044*
X0375Y00393D02*
X03757Y004D01*
X0377*
X03777Y00393*
Y00387*
X0377Y0038*
X03763*
X0377*
X03777Y00373*
Y00367*
X0377Y0036*
X03757*
X0375Y00367*
X0379Y00393D02*
X03797Y004D01*
X0381*
X03817Y00393*
Y00367*
X0381Y0036*
X03797*
X0379Y00367*
Y00393*
X04085Y0036D02*
Y004D01*
X04065Y0038*
X04092*
X04105Y00393D02*
X04112Y004D01*
X04125*
X04132Y00393*
Y00367*
X04125Y0036*
X04112*
X04105Y00367*
Y00393*
X04145Y0036D02*
Y00387D01*
X04152*
X04158Y0038*
Y0036*
Y0038*
X04165Y00387*
X04172Y0038*
Y0036*
X04185D02*
X04198D01*
X04192*
Y00387*
X04185*
X04218Y0036D02*
X04232D01*
X04225*
Y004*
X04218*
X04515Y0036D02*
X04528D01*
X04522*
Y004*
X04515Y00393*
X04548Y0036D02*
Y00367D01*
X04555*
Y0036*
X04548*
X04582Y00393D02*
X04588Y004D01*
X04602*
X04608Y00393*
Y00367*
X04602Y0036*
X04588*
X04582Y00367*
Y00393*
X04622Y0036D02*
X04635D01*
X04628*
Y004*
X04622Y00393*
X04682Y004D02*
X04668Y00393D01*
X04655Y0038*
Y00367*
X04662Y0036*
X04675*
X04682Y00367*
Y00373*
X04675Y0038*
X04655*
X04695Y0036D02*
Y00387D01*
X04702*
X04708Y0038*
Y0036*
Y0038*
X04715Y00387*
X04722Y0038*
Y0036*
X04735D02*
Y00387D01*
X04742*
X04748Y0038*
Y0036*
Y0038*
X04755Y00387*
X04762Y0038*
Y0036*
X04965D02*
Y004D01*
X04985*
X04992Y00393*
Y0038*
X04985Y00373*
X04965*
X05005Y004D02*
X05032D01*
X05018*
Y0036*
X05045Y004D02*
Y0036D01*
Y0038*
X05072*
Y004*
Y0036*
X0375Y00313D02*
X03757Y0032D01*
X0377*
X03777Y00313*
Y00307*
X0377Y003*
X03763*
X0377*
X03777Y00293*
Y00287*
X0377Y0028*
X03757*
X0375Y00287*
X04065Y0028D02*
X04078D01*
X04072*
Y0032*
X04065Y00313*
X04125Y0028D02*
X04098D01*
X04125Y00307*
Y00313*
X04118Y0032*
X04105*
X04098Y00313*
X04165Y0032D02*
X04138D01*
Y003*
X04152Y00307*
X04158*
X04165Y003*
Y00287*
X04158Y0028*
X04145*
X04138Y00287*
X04178Y0028D02*
Y00287D01*
X04185*
Y0028*
X04178*
X04212Y00287D02*
X04218Y0028D01*
X04232*
X04238Y00287*
Y00313*
X04232Y0032*
X04218*
X04212Y00313*
Y00307*
X04218Y003*
X04238*
X04252Y00313D02*
X04258Y0032D01*
X04272*
X04278Y00313*
Y00307*
X04272Y003*
X04278Y00293*
Y00287*
X04272Y0028*
X04258*
X04252Y00287*
Y00293*
X04258Y003*
X04252Y00307*
Y00313*
X04258Y003D02*
X04272D01*
X04312Y0028D02*
Y0032D01*
X04292Y003*
X04318*
X04332Y0028D02*
Y00307D01*
X04338*
X04345Y003*
Y0028*
Y003*
X04352Y00307*
X04358Y003*
Y0028*
X04372D02*
X04385D01*
X04378*
Y00307*
X04372*
X04405Y0028D02*
X04418D01*
X04412*
Y0032*
X04405*
X04515Y00313D02*
X04522Y0032D01*
X04535*
X04542Y00313*
Y00307*
X04535Y003*
X04528*
X04535*
X04542Y00293*
Y00287*
X04535Y0028*
X04522*
X04515Y00287*
X04555Y0028D02*
Y00287D01*
X04562*
Y0028*
X04555*
X04588D02*
X04602D01*
X04595*
Y0032*
X04588Y00313*
X04622Y00287D02*
X04628Y0028D01*
X04642*
X04648Y00287*
Y00313*
X04642Y0032*
X04628*
X04622Y00313*
Y00307*
X04628Y003*
X04648*
X04662Y00287D02*
X04668Y0028D01*
X04682*
X04688Y00287*
Y00313*
X04682Y0032*
X04668*
X04662Y00313*
Y00307*
X04668Y003*
X04688*
X04702Y00287D02*
X04708Y0028D01*
X04722*
X04728Y00287*
Y00313*
X04722Y0032*
X04708*
X04702Y00313*
Y00307*
X04708Y003*
X04728*
X04742Y00287D02*
X04748Y0028D01*
X04762*
X04768Y00287*
Y00313*
X04762Y0032*
X04748*
X04742Y00313*
Y00307*
X04748Y003*
X04768*
X04782Y0028D02*
Y00307D01*
X04788*
X04795Y003*
Y0028*
Y003*
X04802Y00307*
X04808Y003*
Y0028*
X04822D02*
Y00307D01*
X04828*
X04835Y003*
Y0028*
Y003*
X04842Y00307*
X04848Y003*
Y0028*
X04965D02*
Y0032D01*
X04992Y0028*
Y0032*
X05005Y0028D02*
Y0032D01*
X05025*
X05032Y00313*
Y003*
X05025Y00293*
X05005*
X05045Y0032D02*
X05072D01*
X05058*
Y0028*
X05085Y0032D02*
Y0028D01*
Y003*
X05112*
Y0032*
Y0028*
X0375Y002D02*
X03763D01*
X03757*
Y0024*
X0375Y00233*
X03783D02*
X0379Y0024D01*
X03803*
X0381Y00233*
Y00227*
X03803Y0022*
X03797*
X03803*
X0381Y00213*
Y00207*
X03803Y002*
X0379*
X03783Y00207*
X03823D02*
X0383Y002D01*
X03843*
X0385Y00207*
Y00233*
X03843Y0024*
X0383*
X03823Y00233*
Y00227*
X0383Y0022*
X0385*
X04065Y0024D02*
X04092D01*
X04078*
Y002*
X04112D02*
X04125D01*
X04132Y00207*
Y0022*
X04125Y00227*
X04112*
X04105Y0022*
Y00207*
X04112Y002*
X04152Y00233D02*
Y00227D01*
X04145*
X04158*
X04152*
Y00207*
X04158Y002*
X04185Y00227D02*
X04198D01*
X04205Y0022*
Y002*
X04185*
X04178Y00207*
X04185Y00213*
X04205*
X04218Y002D02*
X04232D01*
X04225*
Y0024*
X04218*
G54D15*
X-00235Y00535D02*
X-00238Y00541D01*
X-00247Y00549*
X-00187*
X-00235Y00579D02*
X-00238Y00585D01*
X-00247Y00593*
X-00187*
X-00232Y00626D02*
X-00235D01*
X-00241Y00629*
X-00244Y00632*
X-00247Y00637*
Y00649*
X-00244Y00654*
X-00241Y00657*
X-00235Y0066*
X-00229*
X-00224Y00657*
X-00215Y00652*
X-00187Y00623*
Y00663*
X-00247Y00711D02*
Y00682D01*
X-00221Y00679*
X-00224Y00682*
X-00227Y00691*
Y00699*
X-00224Y00708*
X-00218Y00713*
X-00209Y00716*
X-00204*
X-00195Y00713*
X-00189Y00708*
X-00187Y00699*
Y00691*
X-00189Y00682*
X-00192Y00679*
X-00198Y00676*
X-00227Y0073D02*
X-00187D01*
X-00215D02*
X-00224Y00738D01*
X-00227Y00744*
Y00753*
X-00224Y00758*
X-00215Y00761*
X-00187*
X-00215D02*
X-00224Y0077D01*
X-00227Y00775*
Y00784*
X-00224Y0079*
X-00215Y00793*
X-00187*
X-00247Y00817D02*
X-00244Y0082D01*
X-00247Y00823*
X-00249Y0082*
X-00247Y00817*
X-00227Y0082D02*
X-00187D01*
X-00247Y00833D02*
X-00187D01*
X-00314Y01252D02*
X-00316Y01258D01*
X-00325Y01266*
X-00265*
X-00325Y0133D02*
Y01302D01*
X-00299Y01299*
X-00302Y01302*
X-00305Y0131*
Y01319*
X-00302Y01327*
X-00296Y01333*
X-00288Y01336*
X-00282*
X-00274Y01333*
X-00268Y01327*
X-00265Y01319*
Y0131*
X-00268Y01302*
X-00271Y01299*
X-00276Y01296*
X-00325Y01384D02*
Y01355D01*
X-00299Y01352*
X-00302Y01355*
X-00305Y01364*
Y01372*
X-00302Y01381*
X-00296Y01387*
X-00288Y01389*
X-00282*
X-00274Y01387*
X-00268Y01381*
X-00265Y01372*
Y01364*
X-00268Y01355*
X-00271Y01352*
X-00276Y01349*
X00061Y00494D02*
X00018Y00451D01*
X00061Y00494D02*
X00079Y00475D01*
X00083Y00467*
Y00463*
X00081Y00457*
X00077Y00453*
X00071Y00451*
X00067*
X00059Y00455*
X00041Y00473*
X00055Y00459D02*
X00047Y00423D01*
X00124Y00414D02*
X0013Y00412D01*
X00142*
X001Y0037*
X00175Y00379D02*
X00167Y00383D01*
X00157Y00381*
X00145Y00373*
X00139Y00367*
X00131Y00355*
X00129Y00345*
X00133Y00337*
X00137Y00333*
X00145Y00329*
X00155Y00331*
X00167Y00339*
X00173Y00345*
X00181Y00357*
X00183Y00367*
X00179Y00375*
X00175Y00379*
X00213Y00342D02*
X00205Y00346D01*
X00195Y00344*
X00183Y00335*
X00177Y00329*
X00168Y00317*
X00166Y00307*
X0017Y00299*
X00175Y00295*
X00183Y00291*
X00193Y00293*
X00205Y00301*
X00211Y00307*
X00219Y00319*
X00221Y00329*
X00217Y00337*
X00213Y00342*
X00781Y0147D02*
Y0141D01*
Y0147D02*
X00807D01*
X00816Y01467*
X00819Y01464*
X00821Y01459*
Y01453*
X00819Y01447*
X00816Y01445*
X00807Y01442*
X00781*
X00801D02*
X00821Y0141D01*
X00882Y01459D02*
X00888Y01462D01*
X00896Y0147*
Y0141*
X00943Y0147D02*
X00935Y01467D01*
X00929Y01459*
X00926Y01445*
Y01436*
X00929Y01422*
X00935Y01413*
X00943Y0141*
X00949*
X00957Y01413*
X00963Y01422*
X00966Y01436*
Y01445*
X00963Y01459*
X00957Y01467*
X00949Y0147*
X00943*
X00997D02*
X00988Y01467D01*
X00982Y01459*
X00979Y01445*
Y01436*
X00982Y01422*
X00988Y01413*
X00997Y0141*
X01002*
X01011Y01413*
X01017Y01422*
X01019Y01436*
Y01445*
X01017Y01459*
X01011Y01467*
X01002Y0147*
X00997*
X00088Y01772D02*
X00119D01*
X00102Y01749*
X00111*
X00116Y01746*
X00119Y01743*
X00122Y01735*
Y01729*
X00119Y01721*
X00113Y01715*
X00105Y01712*
X00096*
X00088Y01715*
X00085Y01718*
X00082Y01723*
X00138Y01758D02*
Y01761D01*
X00141Y01766*
X00144Y01769*
X0015Y01772*
X00161*
X00167Y01769*
X0017Y01766*
X00173Y01761*
Y01755*
X0017Y01749*
X00164Y01741*
X00135Y01712*
X00175*
X00217Y01772D02*
X00189Y01732D01*
X00232*
X00217Y01772D02*
Y01712D01*
X0035Y01763D02*
Y01766D01*
X00353Y01771*
X00356Y01774*
X00361Y01777*
X00373*
X00378Y01774*
X00381Y01771*
X00384Y01766*
Y0176*
X00381Y01754*
X00376Y01746*
X00347Y01717*
X00387*
X00418Y01777D02*
X00409Y01774D01*
X00403Y01766*
X004Y01751*
Y01743*
X00403Y01728*
X00409Y0172*
X00418Y01717*
X00423*
X00432Y0172*
X00438Y01728*
X0044Y01743*
Y01751*
X00438Y01766*
X00432Y01774*
X00423Y01777*
X00418*
X00471D02*
X00462Y01774D01*
X00457Y01766*
X00454Y01751*
Y01743*
X00457Y01728*
X00462Y0172*
X00471Y01717*
X00477*
X00485Y0172*
X00491Y01728*
X00494Y01743*
Y01751*
X00491Y01766*
X00485Y01774*
X00477Y01777*
X00471*
X01361Y01853D02*
X01393D01*
X01375Y0183*
X01384*
X0139Y01827*
X01393Y01824*
X01395Y01816*
Y0181*
X01393Y01802*
X01387Y01796*
X01378Y01793*
X0137*
X01361Y01796*
X01358Y01799*
X01355Y01804*
X01415Y01853D02*
X01446D01*
X01429Y0183*
X01437*
X01443Y01827*
X01446Y01824*
X01449Y01816*
Y0181*
X01446Y01802*
X0144Y01796*
X01432Y01793*
X01423*
X01415Y01796*
X01412Y01799*
X01409Y01804*
X01479Y01853D02*
X01471Y0185D01*
X01465Y01842*
X01462Y01827*
Y01819*
X01465Y01804*
X01471Y01796*
X01479Y01793*
X01485*
X01494Y01796*
X01499Y01804*
X01502Y01819*
Y01827*
X01499Y01842*
X01494Y0185*
X01485Y01853*
X01479*
X0155D02*
X01521D01*
X01519Y01827*
X01521Y0183*
X0153Y01833*
X01539*
X01547Y0183*
X01553Y01824*
X01556Y01816*
Y0181*
X01553Y01802*
X01547Y01796*
X01539Y01793*
X0153*
X01521Y01796*
X01519Y01799*
X01516Y01804*
X01569Y01833D02*
Y01793D01*
Y01822D02*
X01578Y0183D01*
X01583Y01833*
X01592*
X01598Y0183*
X01601Y01822*
Y01793*
Y01822D02*
X01609Y0183D01*
X01615Y01833*
X01623*
X01629Y0183*
X01632Y01822*
Y01793*
X01657Y01853D02*
X01659Y0185D01*
X01662Y01853*
X01659Y01856*
X01657Y01853*
X01659Y01833D02*
Y01793D01*
X01673Y01853D02*
Y01793D01*
X-00057Y01783D02*
X-00065Y0178D01*
X-00068Y01774*
Y01769*
X-00065Y01763*
X-0006Y0176*
X-00048Y01757*
X-0004Y01754*
X-00034Y01749*
X-00031Y01743*
Y01734*
X-00034Y01729*
X-00037Y01726*
X-00045Y01723*
X-00057*
X-00065Y01726*
X-00068Y01729*
X-00071Y01734*
Y01743*
X-00068Y01749*
X-00062Y01754*
X-00054Y01757*
X-00042Y0176*
X-00037Y01763*
X-00034Y01769*
Y01774*
X-00037Y0178*
X-00045Y01783*
X-00057*
X00017Y01774D02*
X00014Y0178D01*
X00005Y01783*
X0*
X-00009Y0178*
X-00015Y01772*
X-00018Y01757*
Y01743*
X-00015Y01732*
X-00009Y01726*
X0Y01723*
X00002*
X00011Y01726*
X00017Y01732*
X0002Y0174*
Y01743*
X00017Y01752*
X00011Y01757*
X00002Y0176*
X0*
X-00009Y01757*
X-00015Y01752*
X-00018Y01743*
X-00459Y00538D02*
X-00462Y00543D01*
X-00471Y00552*
X-00411*
X-00471Y00622D02*
X-00411Y00593D01*
X-00471Y00582D02*
Y00622D01*
Y00641D02*
Y00672D01*
X-00448Y00655*
Y00664*
X-00445Y00669*
X-00442Y00672*
X-00433Y00675*
X-00428*
X-00419Y00672*
X-00413Y00666*
X-00411Y00658*
Y00649*
X-00413Y00641*
X-00416Y00638*
X-00422Y00635*
X-00471Y00706D02*
X-00468Y00697D01*
X-00459Y00691*
X-00445Y00688*
X-00436*
X-00422Y00691*
X-00413Y00697*
X-00411Y00706*
Y00711*
X-00413Y0072*
X-00422Y00726*
X-00436Y00728*
X-00445*
X-00459Y00726*
X-00468Y0072*
X-00471Y00711*
Y00706*
X-00451Y00742D02*
X-00411D01*
X-00439D02*
X-00448Y0075D01*
X-00451Y00756*
Y00765*
X-00448Y0077*
X-00439Y00773*
X-00411*
X-00439D02*
X-00448Y00782D01*
X-00451Y00788*
Y00796*
X-00448Y00802*
X-00439Y00805*
X-00411*
X-00471Y00829D02*
X-00468Y00832D01*
X-00471Y00835*
X-00473Y00832*
X-00471Y00829*
X-00451Y00832D02*
X-00411D01*
X-00471Y00846D02*
X-00411D01*
X-0044Y01659D02*
X-00442Y01665D01*
X-00451Y01673*
X-00391*
X-00451Y01737D02*
Y01709D01*
X-00425Y01706*
X-00428Y01709*
X-00431Y01717*
Y01726*
X-00428Y01734*
X-00422Y0174*
X-00414Y01743*
X-00408*
X-004Y0174*
X-00394Y01734*
X-00391Y01726*
Y01717*
X-00394Y01709*
X-00397Y01706*
X-00402Y01703*
X-00451Y01791D02*
Y01762D01*
X-00425Y01759*
X-00428Y01762*
X-00431Y01771*
Y01779*
X-00428Y01788*
X-00422Y01794*
X-00414Y01796*
X-00408*
X-004Y01794*
X-00394Y01788*
X-00391Y01779*
Y01771*
X-00394Y01762*
X-00397Y01759*
X-00402Y01756*
X-00378Y00544D02*
X-00381Y00549D01*
X-0039Y00558*
X-0033*
X-0039Y00616D02*
X-0035Y00588D01*
Y0063*
X-0039Y00616D02*
X-0033D01*
X-00378Y00641D02*
X-00381Y00647D01*
X-0039Y00655*
X-0033*
X-0039Y00699D02*
X-00387Y00691D01*
X-00381Y00688*
X-00375*
X-0037Y00691*
X-00367Y00696*
X-00364Y00708*
X-00361Y00716*
X-00355Y00722*
X-0035Y00725*
X-00341*
X-00335Y00722*
X-00332Y00719*
X-0033Y00711*
Y00699*
X-00332Y00691*
X-00335Y00688*
X-00341Y00685*
X-0035*
X-00355Y00688*
X-00361Y00694*
X-00364Y00702*
X-00367Y00714*
X-0037Y00719*
X-00375Y00722*
X-00381*
X-00387Y00719*
X-0039Y00711*
Y00699*
X-0037Y00738D02*
X-0033D01*
X-00358D02*
X-00367Y00747D01*
X-0037Y00753*
Y00761*
X-00367Y00767*
X-00358Y0077*
X-0033*
X-00358D02*
X-00367Y00778D01*
X-0037Y00784*
Y00793*
X-00367Y00798*
X-00358Y00801*
X-0033*
X-0039Y00826D02*
X-00387Y00829D01*
X-0039Y00832*
X-00392Y00829*
X-0039Y00826*
X-0037Y00829D02*
X-0033D01*
X-0039Y00842D02*
X-0033D01*
G54D33*
X02949Y00063D02*
Y00096D01*
X02966Y00113*
X02982Y00096*
Y00063*
Y00088*
X02949*
Y00163D02*
Y00196D01*
X02966Y00213*
X02982Y00196*
Y00163*
Y00188*
X02949*
Y00263D02*
Y00296D01*
X02966Y00313*
X02982Y00296*
Y00263*
Y00288*
X02949*
Y00363D02*
Y00396D01*
X02966Y00413*
X02982Y00396*
Y00363*
Y00388*
X02949*
X02849Y00063D02*
Y00096D01*
X02866Y00113*
X02882Y00096*
Y00063*
Y00088*
X02849*
Y00163D02*
Y00196D01*
X02866Y00213*
X02882Y00196*
Y00163*
Y00188*
X02849*
Y00263D02*
Y00296D01*
X02866Y00313*
X02882Y00296*
Y00263*
Y00288*
X02849*
Y00363D02*
Y00396D01*
X02866Y00413*
X02882Y00396*
Y00363*
Y00388*
X02849*
X0Y0005D02*
Y0D01*
X00025*
X00033Y00008*
Y00017*
X00025Y00025*
X0*
X00025*
X00033Y00033*
Y00042*
X00025Y0005*
X0*
Y0*
X00025*
X00033Y00008*
Y00017*
X00025Y00025*
X0*
X00025*
X00033Y00033*
Y00042*
X00025Y0005*
X0*
Y01468D02*
Y01418D01*
X00025*
X00033Y01426*
Y01434*
X00025Y01443*
X0*
X00025*
X00033Y01451*
Y01459*
X00025Y01468*
X0*
X02849Y01463D02*
Y01496D01*
X02866Y01513*
X02882Y01496*
Y01463*
Y01488*
X02849*
X02949Y01363D02*
Y01396D01*
X02966Y01413*
X02982Y01396*
Y01363*
Y01388*
X02949*
Y01463D02*
Y01496D01*
X02966Y01513*
X02982Y01496*
Y01463*
Y01488*
X02949*
X02849Y01363D02*
Y01396D01*
X02866Y01413*
X02882Y01396*
Y01363*
Y01388*
X02849*
X02949Y00463D02*
Y00496D01*
X02966Y00513*
X02982Y00496*
Y00463*
Y00488*
X02949*
Y00563D02*
Y00596D01*
X02966Y00613*
X02982Y00596*
Y00563*
Y00588*
X02949*
Y00663D02*
Y00696D01*
X02966Y00713*
X02982Y00696*
Y00663*
Y00688*
X02949*
Y00763D02*
Y00796D01*
X02966Y00813*
X02982Y00796*
Y00763*
Y00788*
X02949*
Y00863D02*
Y00896D01*
X02966Y00913*
X02982Y00896*
Y00863*
Y00888*
X02949*
Y00963D02*
Y00996D01*
X02966Y01013*
X02982Y00996*
Y00963*
Y00988*
X02949*
Y01063D02*
Y01096D01*
X02966Y01113*
X02982Y01096*
Y01063*
Y01088*
X02949*
Y01163D02*
Y01196D01*
X02966Y01213*
X02982Y01196*
Y01163*
Y01188*
X02949*
Y01263D02*
Y01296D01*
X02966Y01313*
X02982Y01296*
Y01263*
Y01288*
X02949*
X02849Y00463D02*
Y00496D01*
X02866Y00513*
X02882Y00496*
Y00463*
Y00488*
X02849*
Y00563D02*
Y00596D01*
X02866Y00613*
X02882Y00596*
Y00563*
Y00588*
X02849*
Y00663D02*
Y00696D01*
X02866Y00713*
X02882Y00696*
Y00663*
Y00688*
X02849*
Y00763D02*
Y00796D01*
X02866Y00813*
X02882Y00796*
Y00763*
Y00788*
X02849*
Y00863D02*
Y00896D01*
X02866Y00913*
X02882Y00896*
Y00863*
Y00888*
X02849*
Y00963D02*
Y00996D01*
X02866Y01013*
X02882Y00996*
Y00963*
Y00988*
X02849*
Y01063D02*
Y01096D01*
X02866Y01113*
X02882Y01096*
Y01063*
Y01088*
X02849*
Y01163D02*
Y01196D01*
X02866Y01213*
X02882Y01196*
Y01163*
Y01188*
X02849*
Y01263D02*
Y01296D01*
X02866Y01313*
X02882Y01296*
Y01263*
Y01288*
X02849*
X02457Y00479D02*
X02449Y00488D01*
X02432*
X02424Y00479*
Y00446*
X02432Y00438*
X02449*
X02457Y00446*
X02342Y00584D02*
X02334Y00592D01*
X02317*
X02309Y00584*
Y00551*
X02317Y00542*
X02334*
X02342Y00551*
X01612Y00684D02*
X01604Y00692D01*
X01587*
X01579Y00684*
Y00651*
X01587Y00642*
X01604*
X01612Y00651*
X01827Y00684D02*
X01819Y00693D01*
X01802*
X01794Y00684*
Y00651*
X01802Y00643*
X01819*
X01827Y00651*
X01717Y00684D02*
X01709Y00693D01*
X01692*
X01684Y00684*
Y00651*
X01692Y00643*
X01709*
X01717Y00651*
X00127Y00354D02*
X00119Y00363D01*
X00102*
X00094Y00354*
Y00321*
X00102Y00313*
X00119*
X00127Y00321*
Y00234D02*
X00119Y00243D01*
X00102*
X00094Y00234*
Y00201*
X00102Y00193*
X00119*
X00127Y00201*
X00247Y00234D02*
X00239Y00243D01*
X00222*
X00214Y00234*
Y00201*
X00222Y00193*
X00239*
X00247Y00201*
Y00354D02*
X00239Y00363D01*
X00222*
X00214Y00354*
Y00321*
X00222Y00313*
X00239*
X00247Y00321*
X00707Y00654D02*
X00699Y00662D01*
X00682*
X00674Y00654*
Y00621*
X00682Y00612*
X00699*
X00707Y00621*
X00602Y00654D02*
X00594Y00662D01*
X00577*
X00569Y00654*
Y00621*
X00577Y00612*
X00594*
X00602Y00621*
X00707Y00559D02*
X00699Y00568D01*
X00682*
X00674Y00559*
Y00526*
X00682Y00518*
X00699*
X00707Y00526*
X00607Y00559D02*
X00599Y00568D01*
X00582*
X00574Y00559*
Y00526*
X00582Y00518*
X00599*
X00607Y00526*
X01117Y01524D02*
X01109Y01532D01*
X01092*
X01084Y01524*
Y01491*
X01092Y01482*
X01109*
X01117Y01491*
Y01434D02*
X01109Y01442D01*
X01092*
X01084Y01434*
Y01401*
X01092Y01392*
X01109*
X01117Y01401*
X01297Y00784D02*
X01289Y00792D01*
X01272*
X01264Y00784*
Y00751*
X01272Y00742*
X01289*
X01297Y00751*
X01146Y00819D02*
X01137Y00827D01*
X01121*
X01112Y00819*
Y00786*
X01121Y00777*
X01137*
X01146Y00786*
X01192Y00744D02*
X01184Y00752D01*
X01167*
X01159Y00744*
Y00711*
X01167Y00702*
X01184*
X01192Y00711*
X01557Y01554D02*
X01549Y01562D01*
X01532*
X01524Y01554*
Y01521*
X01532Y01512*
X01549*
X01557Y01521*
X02307Y01559D02*
X02299Y01568D01*
X02282*
X02274Y01559*
Y01526*
X02282Y01518*
X02299*
X02307Y01526*
X02437Y01559D02*
X02429Y01568D01*
X02412*
X02404Y01559*
Y01526*
X02412Y01518*
X02429*
X02437Y01526*
X02557Y01559D02*
X02549Y01568D01*
X02532*
X02524Y01559*
Y01526*
X02532Y01518*
X02549*
X02557Y01526*
X00817Y01249D02*
X00809Y01258D01*
X00792*
X00784Y01249*
Y01216*
X00792Y01208*
X00809*
X00817Y01216*
X00907Y01249D02*
X00899Y01258D01*
X00882*
X00874Y01249*
Y01216*
X00882Y01208*
X00899*
X00907Y01216*
X00817Y01159D02*
X00809Y01168D01*
X00792*
X00784Y01159*
Y01126*
X00792Y01118*
X00809*
X00817Y01126*
X00907Y01159D02*
X00899Y01168D01*
X00882*
X00874Y01159*
Y01126*
X00882Y01118*
X00899*
X00907Y01126*
X01457Y00084D02*
X01449Y00092D01*
X01432*
X01424Y00084*
Y00051*
X01432Y00042*
X01449*
X01457Y00051*
Y-00041D02*
X01449Y-00032D01*
X01432*
X01424Y-00041*
Y-00074*
X01432Y-00082*
X01449*
X01457Y-00074*
X01632Y00084D02*
X01624Y00092D01*
X01607*
X01599Y00084*
Y00051*
X01607Y00042*
X01624*
X01632Y00051*
Y-00036D02*
X01624Y-00028D01*
X01607*
X01599Y-00036*
Y-00069*
X01607Y-00078*
X01624*
X01632Y-00069*
X01757Y01429D02*
X01749Y01438D01*
X01732*
X01724Y01429*
Y01396*
X01732Y01388*
X01749*
X01757Y01396*
Y01354D02*
X01749Y01363D01*
X01732*
X01724Y01354*
Y01321*
X01732Y01313*
X01749*
X01757Y01321*
Y01279D02*
X01749Y01288D01*
X01732*
X01724Y01279*
Y01246*
X01732Y01238*
X01749*
X01757Y01246*
X01607Y01504D02*
X01599Y01513D01*
X01582*
X01574Y01504*
Y01471*
X01582Y01463*
X01599*
X01607Y01471*
X0228Y00902D02*
X02271Y0091D01*
X02255*
X02246Y00902*
Y00869*
X02255Y0086*
X02271*
X0228Y00869*
X02247Y00919D02*
X02239Y00928D01*
X02222*
X02214Y00919*
Y00886*
X02222Y00878*
X02239*
X02247Y00886*
X02217Y00904D02*
X02208Y00912D01*
X02192*
X02183Y00904*
Y0087*
X02192Y00862*
X02208*
X02217Y0087*
X02185Y00917D02*
X02177Y00925D01*
X0216*
X02152Y00917*
Y00884*
X0216Y00875*
X02177*
X02185Y00884*
X0208Y00902D02*
X02071Y0091D01*
X02055*
X02046Y00902*
Y00869*
X02055Y0086*
X02071*
X0208Y00869*
Y00977D02*
X02071Y00985D01*
X02055*
X02046Y00977*
Y00944*
X02055Y00935*
X02071*
X0208Y00944*
X02048Y00924D02*
X0204Y00932D01*
X02023*
X02015Y00924*
Y0089*
X02023Y00882*
X0204*
X02048Y0089*
X02047Y01029D02*
X02039Y01038D01*
X02022*
X02014Y01029*
Y00996*
X02022Y00988*
X02039*
X02047Y00996*
X02017Y00904D02*
X02008Y00912D01*
X01992*
X01983Y00904*
Y0087*
X01992Y00862*
X02008*
X02017Y0087*
Y01079D02*
X02008Y01087D01*
X01992*
X01983Y01079*
Y01045*
X01992Y01037*
X02008*
X02017Y01045*
X01985Y00922D02*
X01977Y0093D01*
X0196*
X01952Y00922*
Y00888*
X0196Y0088*
X01977*
X01985Y00888*
Y01119D02*
X01977Y01128D01*
X0196*
X01952Y01119*
Y01086*
X0196Y01078*
X01977*
X01985Y01086*
X01557Y01469D02*
X01549Y01478D01*
X01532*
X01524Y01469*
Y01436*
X01532Y01428*
X01549*
X01557Y01436*
Y01404D02*
X01549Y01413D01*
X01532*
X01524Y01404*
Y01371*
X01532Y01363*
X01549*
X01557Y01371*
X01607Y01479D02*
X01599Y01488D01*
X01582*
X01574Y01479*
Y01446*
X01582Y01438*
X01599*
X01607Y01446*
Y01404D02*
X01599Y01413D01*
X01582*
X01574Y01404*
Y01371*
X01582Y01363*
X01599*
X01607Y01371*
X0228Y01084D02*
X02271Y01093D01*
X02255*
X02246Y01084*
Y01051*
X02255Y01043*
X02271*
X0228Y01051*
X02247Y01124D02*
X02239Y01133D01*
X02222*
X02214Y01124*
Y01091*
X02222Y01083*
X02239*
X02247Y01091*
X02217Y01164D02*
X02209Y01173D01*
X02192*
X02184Y01164*
Y01131*
X02192Y01123*
X02209*
X02217Y01131*
X02187Y01204D02*
X02179Y01213D01*
X02162*
X02154Y01204*
Y01171*
X02162Y01163*
X02179*
X02187Y01171*
X01954Y00796D02*
X01945Y00804D01*
X01929*
X0192Y00796*
Y00763*
X01929Y00754*
X01945*
X01954Y00763*
X02112Y00794D02*
X02104Y00803D01*
X02087*
X02079Y00794*
Y00761*
X02087Y00753*
X02104*
X02112Y00761*
X02149Y00796D02*
X0214Y00804D01*
X02124*
X02115Y00796*
Y00763*
X02124Y00754*
X0214*
X02149Y00763*
X02322Y00794D02*
X02314Y00803D01*
X02297*
X02289Y00794*
Y00761*
X02297Y00753*
X02314*
X02322Y00761*
X01332Y00669D02*
X01324Y00678D01*
X01307*
X01299Y00669*
Y00636*
X01307Y00628*
X01324*
X01332Y00636*
X0133Y00607D02*
X01321Y00615D01*
X01305*
X01296Y00607*
Y00574*
X01305Y00565*
X01321*
X0133Y00574*
X01435Y00627D02*
X01426Y00635D01*
X0141*
X01401Y00627*
Y00594*
X0141Y00585*
X01426*
X01435Y00594*
X0133Y00527D02*
X01322Y00535D01*
X01305*
X01297Y00527*
Y00493*
X01305Y00485*
X01322*
X0133Y00493*
Y00432D02*
X01321Y0044D01*
X01305*
X01296Y00432*
Y00399*
X01305Y0039*
X01321*
X0133Y00399*
X01435Y00382D02*
X01426Y0039D01*
X0141*
X01401Y00382*
Y00349*
X0141Y0034*
X01426*
X01435Y00349*
X01482Y00854D02*
X01474Y00863D01*
X01457*
X01449Y00854*
Y00821*
X01457Y00813*
X01474*
X01482Y00821*
X01607Y00769D02*
X01599Y00778D01*
X01582*
X01574Y00769*
Y00736*
X01582Y00728*
X01599*
X01607Y00736*
X00122Y01204D02*
X00114Y01212D01*
X00097*
X00089Y01204*
Y01171*
X00097Y01162*
X00114*
X00122Y01171*
X00247Y01204D02*
X00239Y01212D01*
X00222*
X00214Y01204*
Y01171*
X00222Y01162*
X00239*
X00247Y01171*
X00127Y01079D02*
X00119Y01088D01*
X00102*
X00094Y01079*
Y01046*
X00102Y01038*
X00119*
X00127Y01046*
X00247Y01079D02*
X00239Y01088D01*
X00222*
X00214Y01079*
Y01046*
X00222Y01038*
X00239*
X00247Y01046*
X00902Y00824D02*
X00894Y00832D01*
X00877*
X00869Y00824*
Y00791*
X00877Y00782*
X00894*
X00902Y00791*
X00817Y00824D02*
X00809Y00833D01*
X00792*
X00784Y00824*
Y00791*
X00792Y00783*
X00809*
X00817Y00791*
X01492Y00754D02*
X01484Y00762D01*
X01467*
X01459Y00754*
Y00721*
X01467Y00712*
X01484*
X01492Y00721*
X01138Y01042D02*
X0113Y0105D01*
X01113*
X01105Y01042*
Y01008*
X01113Y01*
X0113*
X01138Y01008*
X02402Y00844D02*
X02394Y00852D01*
X02377*
X02369Y00844*
Y00811*
X02377Y00802*
X02394*
X02402Y00811*
X02137Y00904D02*
X02129Y00913D01*
X02112*
X02104Y00904*
Y00871*
X02112Y00863*
X02129*
X02137Y00871*
X02337Y00904D02*
X02329Y00913D01*
X02312*
X02304Y00904*
Y00871*
X02312Y00863*
X02329*
X02337Y00871*
X00902Y00754D02*
X00894Y00762D01*
X00877*
X00869Y00754*
Y00721*
X00877Y00712*
X00894*
X00902Y00721*
X00817Y00754D02*
X00809Y00763D01*
X00792*
X00784Y00754*
Y00721*
X00792Y00713*
X00809*
X00817Y00721*
X01231Y0139D02*
X01223Y01398D01*
X01206*
X01198Y0139*
Y01356*
X01206Y01348*
X01223*
X01231Y01356*
X01608Y01257D02*
X016Y01265D01*
X01583*
X01575Y01257*
Y01223*
X01583Y01215*
X016*
X01608Y01223*
X01563Y01242D02*
X01555Y0125D01*
X01538*
X0153Y01242*
Y01208*
X01538Y012*
X01555*
X01563Y01208*
X01523Y01217D02*
X01515Y01225D01*
X01498*
X0149Y01217*
Y01183*
X01498Y01175*
X01515*
X01523Y01183*
X01488Y01192D02*
X0148Y012D01*
X01463*
X01455Y01192*
Y01158*
X01463Y0115*
X0148*
X01488Y01158*
X01458Y01142D02*
X0145Y0115D01*
X01433*
X01425Y01142*
Y01108*
X01433Y011*
X0145*
X01458Y01108*
X01423Y01117D02*
X01415Y01125D01*
X01398*
X0139Y01117*
Y01083*
X01398Y01075*
X01415*
X01423Y01083*
X01388Y01092D02*
X0138Y011D01*
X01363*
X01355Y01092*
Y01058*
X01363Y0105*
X0138*
X01388Y01058*
X01233Y01317D02*
X01225Y01325D01*
X01208*
X012Y01317*
Y01283*
X01208Y01275*
X01225*
X01233Y01283*
X01216Y01297D02*
X01208Y01305D01*
X01191*
X01183Y01297*
Y01263*
X01191Y01255*
X01208*
X01216Y01263*
X01233Y01272D02*
X01225Y0128D01*
X01208*
X012Y01272*
Y01238*
X01208Y0123*
X01225*
X01233Y01238*
X01215Y01248D02*
X01206Y01256D01*
X0119*
X01181Y01248*
Y01215*
X0119Y01206*
X01206*
X01215Y01215*
X01233Y01227D02*
X01225Y01235D01*
X01208*
X012Y01227*
Y01193*
X01208Y01185*
X01225*
X01233Y01193*
Y01177D02*
X01225Y01185D01*
X01208*
X012Y01177*
Y01144*
X01208Y01135*
X01225*
X01233Y01144*
X01218Y01152D02*
X0121Y0116D01*
X01193*
X01185Y01152*
Y01118*
X01193Y0111*
X0121*
X01218Y01118*
X01133Y01342D02*
X01125Y0135D01*
X01108*
X011Y01342*
Y01308*
X01108Y013*
X01125*
X01133Y01308*
X01235Y0113D02*
X01227Y01138D01*
X0121*
X01202Y0113*
Y01097*
X0121Y01088*
X01227*
X01235Y01097*
X01218Y01106D02*
X0121Y01115D01*
X01193*
X01185Y01106*
Y01073*
X01193Y01065*
X0121*
X01218Y01073*
X01144Y00917D02*
X01136Y00926D01*
X01119*
X01111Y00917*
Y00884*
X01119Y00876*
X01136*
X01144Y00884*
X01436Y01014D02*
X01428Y01022D01*
X01411*
X01403Y01014*
Y00981*
X01411Y00972*
X01428*
X01436Y00981*
X01632Y00962D02*
X01624Y0097D01*
X01607*
X01599Y00962*
Y00928*
X01607Y0092*
X01624*
X01632Y00928*
X01343Y00944D02*
X01335Y00952D01*
X01318*
X0131Y00944*
Y00911*
X01318Y00902*
X01335*
X01343Y00911*
X01593Y01317D02*
X01585Y01325D01*
X01568*
X0156Y01317*
Y01283*
X01568Y01275*
X01585*
X01593Y01283*
X01037Y01247D02*
X01029Y01255D01*
X01012*
X01004Y01247*
Y01213*
X01012Y01205*
X01029*
X01037Y01213*
X02768Y01284D02*
X0276Y01292D01*
X02743*
X02735Y01284*
Y01251*
X02743Y01242*
X0276*
X02768Y01251*
X02518Y01284D02*
X0251Y01292D01*
X02493*
X02485Y01284*
Y01251*
X02493Y01242*
X0251*
X02518Y01251*
X02088Y01284D02*
X0208Y01292D01*
X02063*
X02055Y01284*
Y01251*
X02063Y01242*
X0208*
X02088Y01251*
X03558Y00482D02*
X0355Y0049D01*
X03533*
X03525Y00482*
Y00448*
X03533Y0044*
X0355*
X03558Y00448*
X03525Y0036D02*
Y00393D01*
X03542Y0041*
X03558Y00393*
Y0036*
Y00385*
X03525*
Y0033D02*
Y0028D01*
X0355*
X03558Y00288*
Y00297*
X0355Y00305*
X03525*
X0355*
X03558Y00313*
Y00322*
X0355Y0033*
X03525*
M02*