%FSTAX23Y23*%
%MOIN*%
%SFA1B1*%

%IPPOS*%
%ADD10C,0.010000*%
%ADD11C,0.007000*%
%ADD13C,0.005000*%
%ADD14C,0.008000*%
%ADD32C,0.001000*%
%LNmb694-1*%
%LPD*%
G54D10*
X0016Y00959D02*
X00166Y00962D01*
X00169Y0097*
Y00976*
X00166Y00984*
X00157Y0099*
X00143Y00993*
X00129*
X00117Y0099*
X00112Y00984*
X00109Y00976*
Y00973*
X00112Y00964*
X00117Y00959*
X00126Y00956*
X00129*
X00137Y00959*
X00143Y00964*
X00146Y00973*
Y00976*
X00143Y00984*
X00137Y0099*
X00129Y00993*
X00149Y00906D02*
X0014Y00908D01*
X00135Y00914*
X00132Y00923*
Y00926*
X00135Y00934*
X0014Y0094*
X00149Y00943*
X00152*
X0016Y0094*
X00166Y00934*
X00169Y00926*
Y00923*
X00166Y00914*
X0016Y00908*
X00149Y00906*
X00135*
X0012Y00908*
X00112Y00914*
X00109Y00923*
Y00928*
X00112Y00937*
X00117Y0094*
X00169Y00861D02*
X00129Y00889D01*
Y00846*
X00169Y00861D02*
X00109D01*
G54D11*
X00799Y-00037D02*
Y00463D01*
X00549Y-00037D02*
X00799D01*
X00549D02*
Y00463D01*
X00799*
X00549Y00338D02*
X00799D01*
X00549Y00213D02*
X00799D01*
X00549Y00088D02*
X00799D01*
X00549Y-00037D02*
X00799D01*
X00674D02*
Y00463D01*
G54D13*
X02799Y00013D02*
Y01513D01*
X02899Y01413D02*
Y01513D01*
X02799Y01413D02*
X02899D01*
X02799Y01513D02*
X02999D01*
X02799Y00013D02*
X02999D01*
Y01513*
X02856Y01543D02*
X02858Y01539D01*
X02864Y01533*
X02824*
X00109Y00599D02*
X00149Y00614D01*
X00109Y00629*
X00122Y00623D02*
Y00604D01*
X00524Y01263D02*
D01*
X00523Y01269*
X00523Y01276*
X00521Y01283*
X0052Y0129*
X00517Y01297*
X00515Y01303*
X00512Y01309*
X00508Y01315*
X00504Y01321*
X005Y01327*
X00495Y01332*
X0049Y01337*
X00485Y01341*
X00479Y01345*
X00474Y01349*
X00467Y01352*
X00461Y01355*
X00454Y01358*
X00448Y0136*
X00441Y01361*
X00434Y01362*
X00427Y01362*
X0042*
X00413Y01362*
X00406Y01361*
X00399Y0136*
X00393Y01358*
X00386Y01355*
X0038Y01352*
X00373Y01349*
X00368Y01345*
X00362Y01341*
X00357Y01337*
X00352Y01332*
X00347Y01327*
X00343Y01321*
X00339Y01315*
X00335Y01309*
X00332Y01303*
X0033Y01297*
X00327Y0129*
X00326Y01283*
X00324Y01276*
X00324Y01269*
X00324Y01263*
Y00138D02*
D01*
X00324Y00131*
X00324Y00124*
X00326Y00117*
X00327Y0011*
X0033Y00103*
X00332Y00097*
X00335Y00091*
X00339Y00085*
X00343Y00079*
X00347Y00073*
X00352Y00068*
X00357Y00063*
X00362Y00059*
X00368Y00055*
X00374Y00051*
X0038Y00048*
X00386Y00045*
X00393Y00042*
X00399Y0004*
X00406Y00039*
X00413Y00038*
X0042Y00038*
X00427*
X00434Y00038*
X00441Y00039*
X00448Y0004*
X00454Y00042*
X00461Y00045*
X00467Y00048*
X00474Y00051*
X00479Y00055*
X00485Y00059*
X0049Y00063*
X00495Y00068*
X005Y00073*
X00504Y00079*
X00508Y00085*
X00512Y00091*
X00515Y00097*
X00517Y00103*
X0052Y0011*
X00521Y00117*
X00523Y00124*
X00523Y00131*
X00524Y00138*
X-00086Y01573D02*
X03219D01*
X03218Y-00158D02*
X03219Y-00157D01*
Y01573*
X00324Y00138D02*
Y01263D01*
X00524Y00138D02*
Y01258D01*
X-00086Y-00158D02*
Y01573D01*
Y-00158D02*
X03218D01*
G54D14*
X00588Y00379D02*
X00638Y00398D01*
X00588Y00417*
X00605Y0041D02*
Y00386D01*
X00756Y00382D02*
X00761Y00387D01*
X00763Y00394*
Y00404*
X00761Y00411*
X00756Y00416*
X00751*
X00746Y00413*
X00744Y00411*
X00742Y00406*
X00737Y00392*
X00734Y00387*
X00732Y00385*
X00727Y00382*
X0072*
X00715Y00387*
X00713Y00394*
Y00404*
X00715Y00411*
X0072Y00416*
G54D32*
X00193Y01045D02*
Y01088D01*
Y01108D02*
Y01126D01*
Y01171D02*
Y01189D01*
X00192Y01041D02*
Y01088D01*
Y01108D02*
Y01126D01*
Y01171D02*
Y01189D01*
X00191Y01039D02*
Y01088D01*
Y01108D02*
Y01126D01*
Y0117D02*
Y01189D01*
X0019Y01037D02*
Y01088D01*
Y01108D02*
Y01127D01*
Y0117D02*
Y01189D01*
X00189Y01036D02*
Y01088D01*
Y01108D02*
Y01127D01*
Y0117D02*
Y01189D01*
X00188Y01034D02*
Y01088D01*
Y01108D02*
Y01127D01*
Y0117D02*
Y01189D01*
X00187Y01033D02*
Y01088D01*
Y01108D02*
Y01128D01*
Y01169D02*
Y01189D01*
X00186Y01032D02*
Y01088D01*
Y01108D02*
Y01128D01*
Y01169D02*
Y01189D01*
X00185Y01031D02*
Y01088D01*
Y01108D02*
Y01128D01*
Y01169D02*
Y01189D01*
X00184Y01031D02*
Y01088D01*
Y01108D02*
Y01129D01*
Y01168D02*
Y01189D01*
X00183Y0103D02*
Y01054D01*
Y01077D02*
Y01088D01*
Y01108D02*
Y01129D01*
Y01168D02*
Y01189D01*
X00182Y01029D02*
Y01046D01*
Y01077D02*
Y01088D01*
Y01108D02*
Y01129D01*
Y01168D02*
Y01189D01*
X00181Y01029D02*
Y01044D01*
Y01077D02*
Y01088D01*
Y01108D02*
Y0113D01*
Y01167D02*
Y01189D01*
X0018Y01028D02*
Y01042D01*
Y01077D02*
Y01088D01*
Y01108D02*
Y0113D01*
Y01167D02*
Y01189D01*
X00179Y01028D02*
Y01041D01*
Y01077D02*
Y01088D01*
Y01108D02*
Y0113D01*
Y01167D02*
Y01189D01*
X00178Y01028D02*
Y01041D01*
Y01077D02*
Y01088D01*
Y01108D02*
Y01131D01*
Y01166D02*
Y01189D01*
X00177Y01027D02*
Y0104D01*
Y01077D02*
Y01088D01*
Y01108D02*
Y01119D01*
Y0112D02*
Y01131D01*
Y01166D02*
Y01177D01*
Y01178D02*
Y01189D01*
X00176Y01027D02*
Y0104D01*
Y01077D02*
Y01088D01*
Y01108D02*
Y01119D01*
Y0112D02*
Y01131D01*
Y01166D02*
Y01177D01*
Y01178D02*
Y01189D01*
X00175Y01027D02*
Y01039D01*
Y01077D02*
Y01088D01*
Y01108D02*
Y01119D01*
Y0112D02*
Y01131D01*
Y01165D02*
Y01177D01*
Y01178D02*
Y01189D01*
X00174Y01027D02*
Y01039D01*
Y01077D02*
Y01088D01*
Y01108D02*
Y01119D01*
Y01121D02*
Y01132D01*
Y01165D02*
Y01176D01*
Y01178D02*
Y01189D01*
X00173Y01027D02*
Y01039D01*
Y01077D02*
Y01088D01*
Y01108D02*
Y01119D01*
Y01121D02*
Y01132D01*
Y01165D02*
Y01176D01*
Y01178D02*
Y01189D01*
X00172Y01027D02*
Y01038D01*
Y01077D02*
Y01088D01*
Y01108D02*
Y01119D01*
Y01121D02*
Y01132D01*
Y01164D02*
Y01176D01*
Y01178D02*
Y01189D01*
X00171Y01027D02*
Y01038D01*
Y01077D02*
Y01088D01*
Y01108D02*
Y01119D01*
Y01122D02*
Y01133D01*
Y01164D02*
Y01175D01*
Y01178D02*
Y01189D01*
X0017Y01027D02*
Y01038D01*
Y01077D02*
Y01088D01*
Y01108D02*
Y01119D01*
Y01122D02*
Y01133D01*
Y01164D02*
Y01175D01*
Y01178D02*
Y01189D01*
X00169Y01027D02*
Y01038D01*
Y01077D02*
Y01088D01*
Y01108D02*
Y01119D01*
Y01122D02*
Y01133D01*
Y01164D02*
Y01175D01*
Y01178D02*
Y01189D01*
X00168Y01027D02*
Y01039D01*
Y01077D02*
Y01088D01*
Y01108D02*
Y01119D01*
Y01123D02*
Y01134D01*
Y01163D02*
Y01174D01*
Y01178D02*
Y01189D01*
X00167Y01027D02*
Y01039D01*
Y01077D02*
Y01088D01*
Y01108D02*
Y01119D01*
Y01123D02*
Y01134D01*
Y01163D02*
Y01174D01*
Y01178D02*
Y01189D01*
X00166Y01027D02*
Y01039D01*
Y01077D02*
Y01088D01*
Y01108D02*
Y01119D01*
Y01123D02*
Y01134D01*
Y01163D02*
Y01174D01*
Y01178D02*
Y01189D01*
X00165Y01028D02*
Y01039D01*
Y01077D02*
Y01088D01*
Y01108D02*
Y01119D01*
Y01123D02*
Y01135D01*
Y01162D02*
Y01174D01*
Y01178D02*
Y01189D01*
X00164Y01028D02*
Y0104D01*
Y01077D02*
Y01088D01*
Y01108D02*
Y01119D01*
Y01124D02*
Y01135D01*
Y01162D02*
Y01173D01*
Y01178D02*
Y01189D01*
X00163Y01029D02*
Y01041D01*
Y01077D02*
Y01088D01*
Y01108D02*
Y01119D01*
Y01124D02*
Y01135D01*
Y01162D02*
Y01173D01*
Y01178D02*
Y01189D01*
X00162Y01029D02*
Y01041D01*
Y01077D02*
Y01088D01*
Y01108D02*
Y01119D01*
Y01124D02*
Y01136D01*
Y01161D02*
Y01173D01*
Y01178D02*
Y01189D01*
X00161Y0103D02*
Y01043D01*
Y01077D02*
Y01088D01*
Y01108D02*
Y01119D01*
Y01125D02*
Y01136D01*
Y01161D02*
Y01172D01*
Y01178D02*
Y01189D01*
X0016Y0103D02*
Y01044D01*
Y01077D02*
Y01088D01*
Y01108D02*
Y01119D01*
Y01125D02*
Y01136D01*
Y01161D02*
Y01172D01*
Y01178D02*
Y01189D01*
X00159Y01031D02*
Y01047D01*
Y01077D02*
Y01088D01*
Y01108D02*
Y01119D01*
Y01125D02*
Y01137D01*
Y0116D02*
Y01172D01*
Y01178D02*
Y01189D01*
X00158Y01032D02*
Y01053D01*
Y01077D02*
Y01088D01*
Y01108D02*
Y01119D01*
Y01126D02*
Y01137D01*
Y0116D02*
Y01171D01*
Y01178D02*
Y01189D01*
X00149Y00723D02*
Y00749D01*
X00157Y01033D02*
Y01088D01*
Y01108D02*
Y01119D01*
Y01126D02*
Y01137D01*
Y0116D02*
Y01171D01*
Y01178D02*
Y01189D01*
X00148Y00721D02*
Y00749D01*
X00156Y01034D02*
Y01088D01*
Y01108D02*
Y01119D01*
Y01126D02*
Y01138D01*
Y01159D02*
Y01171D01*
Y01178D02*
Y01189D01*
X00147Y00719D02*
Y00749D01*
X00155Y01036D02*
Y01088D01*
Y01108D02*
Y01119D01*
Y01127D02*
Y01138D01*
Y01159D02*
Y0117D01*
Y01178D02*
Y01189D01*
X00146Y00719D02*
Y00749D01*
X00154Y01037D02*
Y01088D01*
Y01108D02*
Y01119D01*
Y01127D02*
Y01138D01*
Y01159D02*
Y0117D01*
Y01178D02*
Y01189D01*
X00145Y00718D02*
Y00749D01*
X00153Y01036D02*
Y01088D01*
Y01108D02*
Y01119D01*
Y01127D02*
Y01139D01*
Y01158D02*
Y0117D01*
Y01178D02*
Y01189D01*
X00144Y00717D02*
Y00728D01*
Y00743D02*
Y00749D01*
X00152Y01034D02*
Y01088D01*
Y01108D02*
Y01119D01*
Y01128D02*
Y01139D01*
Y01158D02*
Y01169D01*
Y01178D02*
Y01189D01*
X00143Y00717D02*
Y00725D01*
Y00743D02*
Y00749D01*
X00151Y01033D02*
Y01088D01*
Y01108D02*
Y01119D01*
Y01128D02*
Y01139D01*
Y01158D02*
Y01169D01*
Y01178D02*
Y01189D01*
X00142Y00716D02*
Y00724D01*
Y00743D02*
Y00749D01*
X0015Y01031D02*
Y01088D01*
Y01108D02*
Y01119D01*
Y01128D02*
Y01139D01*
Y01157D02*
Y01169D01*
Y01178D02*
Y01189D01*
X00141Y00716D02*
Y00723D01*
Y00743D02*
Y00749D01*
X00149Y0103D02*
Y01088D01*
Y01108D02*
Y01119D01*
Y01129D02*
Y0114D01*
Y01157D02*
Y01168D01*
Y01178D02*
Y01189D01*
X0014Y00716D02*
Y00723D01*
Y00743D02*
Y00749D01*
X00148Y01029D02*
Y01088D01*
Y01108D02*
Y01119D01*
Y01129D02*
Y0114D01*
Y01157D02*
Y01168D01*
Y01178D02*
Y01189D01*
X00139Y00716D02*
Y00723D01*
Y00743D02*
Y00749D01*
X00147Y01028D02*
Y01052D01*
Y01077D02*
Y01088D01*
Y01108D02*
Y01119D01*
Y01129D02*
Y0114D01*
Y01157D02*
Y01168D01*
Y01178D02*
Y01189D01*
X00138Y00689D02*
Y007D01*
Y00716D02*
Y00722D01*
Y00743D02*
Y00749D01*
X00146Y01028D02*
Y01045D01*
Y01077D02*
Y01088D01*
Y01108D02*
Y01119D01*
Y0113D02*
Y01141D01*
Y01156D02*
Y01168D01*
Y01178D02*
Y01189D01*
X00137Y00648D02*
Y00654D01*
Y00671D02*
Y00677D01*
Y00687D02*
Y00702D01*
Y00716D02*
Y00722D01*
Y00743D02*
Y00749D01*
X00145Y01027D02*
Y01042D01*
Y01077D02*
Y01088D01*
Y01108D02*
Y01119D01*
Y0113D02*
Y01141D01*
Y01156D02*
Y01167D01*
Y01178D02*
Y01189D01*
X00136Y00648D02*
Y00654D01*
Y00671D02*
Y00677D01*
Y00685D02*
Y00703D01*
Y00716D02*
Y00723D01*
Y00743D02*
Y00749D01*
X00144Y01026D02*
Y01041D01*
Y01077D02*
Y01088D01*
Y01108D02*
Y01119D01*
Y0113D02*
Y01141D01*
Y01156D02*
Y01167D01*
Y01178D02*
Y01189D01*
X00135Y00649D02*
Y00655D01*
Y0067D02*
Y00676D01*
Y00684D02*
Y00705D01*
Y00716D02*
Y00723D01*
Y00743D02*
Y00749D01*
X00143Y01026D02*
Y01039D01*
Y01077D02*
Y01088D01*
Y01108D02*
Y01119D01*
Y0113D02*
Y01142D01*
Y01155D02*
Y01167D01*
Y01178D02*
Y01189D01*
X00134Y00649D02*
Y00655D01*
Y0067D02*
Y00676D01*
Y00683D02*
Y00705D01*
Y00716D02*
Y00723D01*
Y00743D02*
Y00749D01*
X00142Y01025D02*
Y01038D01*
Y01077D02*
Y01088D01*
Y01108D02*
Y01119D01*
Y01131D02*
Y01142D01*
Y01155D02*
Y01166D01*
Y01178D02*
Y01189D01*
X00133Y00649D02*
Y00655D01*
Y0067D02*
Y00676D01*
Y00683D02*
Y00693D01*
Y00696D02*
Y00706D01*
Y00716D02*
Y00724D01*
Y00743D02*
Y00749D01*
X00141Y01025D02*
Y01038D01*
Y01077D02*
Y01088D01*
Y01108D02*
Y01119D01*
Y01131D02*
Y01142D01*
Y01155D02*
Y01166D01*
Y01178D02*
Y01189D01*
X00132Y0065D02*
Y00656D01*
Y00669D02*
Y00675D01*
Y00682D02*
Y00689D01*
Y00699D02*
Y00707D01*
Y00717D02*
Y00725D01*
Y00743D02*
Y00749D01*
X0014Y01025D02*
Y01037D01*
Y01077D02*
Y01088D01*
Y01108D02*
Y01119D01*
Y01131D02*
Y01143D01*
Y01154D02*
Y01166D01*
Y01178D02*
Y01189D01*
X00131Y0065D02*
Y00656D01*
Y00669D02*
Y00675D01*
Y00681D02*
Y00688D01*
Y00701D02*
Y00708D01*
Y00717D02*
Y00729D01*
Y00743D02*
Y00749D01*
X00139Y01024D02*
Y01037D01*
Y01077D02*
Y01088D01*
Y01108D02*
Y01119D01*
Y01132D02*
Y01143D01*
Y01154D02*
Y01165D01*
Y01178D02*
Y01189D01*
X0013Y0065D02*
Y00657D01*
Y00668D02*
Y00675D01*
Y00681D02*
Y00687D01*
Y00702D02*
Y00708D01*
Y00718D02*
Y00749D01*
X00138Y01024D02*
Y01036D01*
Y01077D02*
Y01088D01*
Y01108D02*
Y01119D01*
Y01132D02*
Y01143D01*
Y01154D02*
Y01165D01*
Y01178D02*
Y01189D01*
X00129Y00651D02*
Y00657D01*
Y00668D02*
Y00674D01*
Y00681D02*
Y00686D01*
Y00703D02*
Y00708D01*
Y00719D02*
Y00749D01*
X00137Y01024D02*
Y01036D01*
Y01077D02*
Y01088D01*
Y01108D02*
Y01119D01*
Y01132D02*
Y01144D01*
Y01153D02*
Y01165D01*
Y01178D02*
Y01189D01*
X00128Y00651D02*
Y00657D01*
Y00668D02*
Y00674D01*
Y0068D02*
Y00686D01*
Y00703D02*
Y00709D01*
Y0072D02*
Y00749D01*
X00136Y01024D02*
Y01036D01*
Y01077D02*
Y01088D01*
Y01108D02*
Y01119D01*
Y01133D02*
Y01144D01*
Y01153D02*
Y01164D01*
Y01178D02*
Y01189D01*
X00127Y00652D02*
Y00658D01*
Y00667D02*
Y00673D01*
Y0068D02*
Y00686D01*
Y00703D02*
Y00709D01*
Y00721D02*
Y00749D01*
X00135Y01024D02*
Y01036D01*
Y01077D02*
Y01088D01*
Y01108D02*
Y01119D01*
Y01133D02*
Y01144D01*
Y01153D02*
Y01164D01*
Y01178D02*
Y01189D01*
X00126Y00652D02*
Y00658D01*
Y00667D02*
Y00673D01*
Y0068D02*
Y00685D01*
Y00704D02*
Y00709D01*
Y00724D02*
Y00749D01*
X00134Y01077D02*
Y01088D01*
Y01108D02*
Y01119D01*
Y01133D02*
Y01145D01*
Y01152D02*
Y01164D01*
Y01178D02*
Y01189D01*
X00125Y00652D02*
Y00658D01*
Y00666D02*
Y00673D01*
Y0068D02*
Y00709D01*
Y00726D02*
Y00735D01*
Y00743D02*
Y00749D01*
X00133Y01024D02*
Y01035D01*
Y01077D02*
Y01088D01*
Y01108D02*
Y01119D01*
Y01134D02*
Y01145D01*
Y01152D02*
Y01163D01*
Y01178D02*
Y01189D01*
X00124Y00653D02*
Y00659D01*
Y00666D02*
Y00672D01*
Y0068D02*
Y00709D01*
Y00724D02*
Y00732D01*
Y00743D02*
Y00749D01*
X00132Y01024D02*
Y01035D01*
Y01077D02*
Y01088D01*
Y01108D02*
Y01119D01*
Y01134D02*
Y01145D01*
Y01152D02*
Y01163D01*
Y01178D02*
Y01189D01*
X00123Y00653D02*
Y00659D01*
Y00666D02*
Y00672D01*
Y0068D02*
Y00709D01*
Y00723D02*
Y00731D01*
Y00743D02*
Y00749D01*
X00131Y01024D02*
Y01035D01*
Y01077D02*
Y01088D01*
Y01108D02*
Y01119D01*
Y01134D02*
Y01146D01*
Y01151D02*
Y01163D01*
Y01178D02*
Y01189D01*
X00122Y00654D02*
Y0066D01*
Y00665D02*
Y00671D01*
Y0068D02*
Y00709D01*
Y00722D02*
Y0073D01*
Y00743D02*
Y00749D01*
X0013Y01024D02*
Y01036D01*
Y01077D02*
Y01088D01*
Y01108D02*
Y01119D01*
Y01135D02*
Y01146D01*
Y01151D02*
Y01163D01*
Y01178D02*
Y01189D01*
X00121Y00654D02*
Y0066D01*
Y00665D02*
Y00671D01*
Y0068D02*
Y00709D01*
Y00721D02*
Y00729D01*
Y00743D02*
Y00749D01*
X00129Y01024D02*
Y01036D01*
Y01077D02*
Y01088D01*
Y01108D02*
Y01119D01*
Y01135D02*
Y01146D01*
Y01151D02*
Y01162D01*
Y01178D02*
Y01189D01*
X0012Y00654D02*
Y0066D01*
Y00665D02*
Y00671D01*
Y00704D02*
Y00709D01*
Y00721D02*
Y00728D01*
Y00743D02*
Y00749D01*
X00128Y01024D02*
Y01036D01*
Y01077D02*
Y01088D01*
Y01108D02*
Y01119D01*
Y01135D02*
Y01146D01*
Y01151D02*
Y01162D01*
Y01178D02*
Y01189D01*
X00119Y00655D02*
Y00661D01*
Y00664D02*
Y0067D01*
Y00703D02*
Y00709D01*
Y0072D02*
Y00728D01*
Y00743D02*
Y00749D01*
X00127Y01024D02*
Y01036D01*
Y01077D02*
Y01088D01*
Y01108D02*
Y01119D01*
Y01136D02*
Y01147D01*
Y0115D02*
Y01162D01*
Y01178D02*
Y01189D01*
X00118Y00655D02*
Y00661D01*
Y00664D02*
Y0067D01*
Y00703D02*
Y00709D01*
Y00719D02*
Y00727D01*
Y00743D02*
Y00749D01*
X00126Y01024D02*
Y01037D01*
Y01077D02*
Y01088D01*
Y01108D02*
Y01119D01*
Y01136D02*
Y01147D01*
Y0115D02*
Y01161D01*
Y01178D02*
Y01189D01*
X00117Y00655D02*
Y00662D01*
Y00663D02*
Y00669D01*
Y00703D02*
Y00709D01*
Y00719D02*
Y00726D01*
Y00743D02*
Y00749D01*
X00125Y01025D02*
Y01037D01*
Y01077D02*
Y01088D01*
Y01108D02*
Y01119D01*
Y01136D02*
Y01147D01*
Y0115D02*
Y01161D01*
Y01178D02*
Y01189D01*
X00116Y00656D02*
Y00662D01*
Y00663D02*
Y00669D01*
Y00681D02*
Y00686D01*
Y00703D02*
Y00709D01*
Y00718D02*
Y00726D01*
Y00743D02*
Y00749D01*
X00124Y01025D02*
Y01038D01*
Y01077D02*
Y01088D01*
Y01108D02*
Y01119D01*
Y01136D02*
Y01148D01*
Y01149D02*
Y01161D01*
Y01178D02*
Y01189D01*
X00115Y00656D02*
Y00662D01*
Y00663D02*
Y00669D01*
Y0068D02*
Y00686D01*
Y00702D02*
Y00708D01*
Y00717D02*
Y00725D01*
Y00743D02*
Y00749D01*
X00123Y01025D02*
Y01039D01*
Y01077D02*
Y01088D01*
Y01108D02*
Y01119D01*
Y01137D02*
Y01148D01*
Y01149D02*
Y0116D01*
Y01178D02*
Y01189D01*
X00114Y00657D02*
Y00668D01*
Y0068D02*
Y00687D01*
Y00701D02*
Y00708D01*
Y00717D02*
Y00725D01*
Y00743D02*
Y00749D01*
X00122Y01026D02*
Y01039D01*
Y01077D02*
Y01088D01*
Y01108D02*
Y01119D01*
Y01137D02*
Y01148D01*
Y01149D02*
Y0116D01*
Y01178D02*
Y01189D01*
X00113Y00657D02*
Y00668D01*
Y00681D02*
Y00688D01*
Y007D02*
Y00708D01*
Y00716D02*
Y00724D01*
Y00743D02*
Y00749D01*
X00121Y01026D02*
Y01041D01*
Y01077D02*
Y01088D01*
Y01108D02*
Y01119D01*
Y01137D02*
Y0116D01*
Y01178D02*
Y01189D01*
X00112Y00657D02*
Y00668D01*
Y00681D02*
Y00689D01*
Y00699D02*
Y00707D01*
Y00715D02*
Y00723D01*
Y00743D02*
Y00749D01*
X0012Y01027D02*
Y01042D01*
Y01077D02*
Y01088D01*
Y01108D02*
Y01119D01*
Y01138D02*
Y01159D01*
Y01178D02*
Y01189D01*
X00111Y00637D02*
Y00642D01*
Y00658D02*
Y00667D01*
Y00682D02*
Y00692D01*
Y00696D02*
Y00706D01*
Y00715D02*
Y00723D01*
Y00743D02*
Y00749D01*
X00119Y01027D02*
Y01045D01*
Y01077D02*
Y01088D01*
Y01108D02*
Y01119D01*
Y01138D02*
Y01159D01*
Y01178D02*
Y01189D01*
X0011Y00637D02*
Y00642D01*
Y00658D02*
Y00667D01*
Y00682D02*
Y00706D01*
Y00714D02*
Y00722D01*
Y00743D02*
Y00749D01*
X00118Y01028D02*
Y01051D01*
Y01077D02*
Y01088D01*
Y01108D02*
Y01119D01*
Y01138D02*
Y01159D01*
Y01178D02*
Y01189D01*
X00109Y00637D02*
Y00642D01*
Y00659D02*
Y00666D01*
Y00683D02*
Y00705D01*
Y00714D02*
Y00721D01*
Y00743D02*
Y00749D01*
X00117Y01029D02*
Y01088D01*
Y01108D02*
Y01119D01*
Y01139D02*
Y01158D01*
Y01178D02*
Y01189D01*
X00108Y00637D02*
Y00642D01*
Y00659D02*
Y00666D01*
Y00685D02*
Y00704D01*
Y00713D02*
Y00721D01*
Y00743D02*
Y00749D01*
X00116Y01029D02*
Y01088D01*
Y01108D02*
Y01119D01*
Y01139D02*
Y01158D01*
Y01178D02*
Y01189D01*
X00107Y00637D02*
Y00642D01*
Y00659D02*
Y00666D01*
Y00686D02*
Y00702D01*
Y00712D02*
Y0072D01*
Y00743D02*
Y00749D01*
X00115Y0103D02*
Y01088D01*
Y01108D02*
Y01119D01*
Y01139D02*
Y01158D01*
Y01178D02*
Y01189D01*
X00106Y00688D02*
Y007D01*
X00114Y01031D02*
Y01088D01*
Y01108D02*
Y01119D01*
Y0114D02*
Y01157D01*
Y01178D02*
Y01189D01*
X00113Y01032D02*
Y01088D01*
Y01108D02*
Y01119D01*
Y0114D02*
Y01157D01*
Y01178D02*
Y01189D01*
X00112Y01034D02*
Y01088D01*
Y01108D02*
Y01119D01*
Y0114D02*
Y01157D01*
Y01178D02*
Y01189D01*
X00111Y01035D02*
Y01088D01*
Y01108D02*
Y01119D01*
Y01141D02*
Y01157D01*
Y01178D02*
Y01189D01*
X0011Y01038D02*
Y01088D01*
Y01108D02*
Y01119D01*
Y01141D02*
Y01156D01*
Y01178D02*
Y01189D01*
X00109Y0104D02*
Y01088D01*
Y01108D02*
Y01119D01*
Y01141D02*
Y01156D01*
Y01178D02*
Y01189D01*
X00108Y01044D02*
Y01088D01*
Y01108D02*
Y01119D01*
Y01142D02*
Y01156D01*
Y01178D02*
Y01189D01*
X00134Y01024D02*
Y01035D01*
M02*