%FSTAX23Y23*%
%MOIN*%
%SFA1B1*%

%IPPOS*%
%ADD10C,0.010000*%
%ADD11C,0.007000*%
%ADD12C,0.012000*%
%ADD13C,0.005000*%
%ADD14C,0.008000*%
%ADD15C,0.060000*%
%ADD16C,0.126000*%
%ADD17C,0.016000*%
%LNmb694-1*%
%LPD*%
G54D10*
X-00059Y-00065D02*
D01*
X-00054Y-00068*
X-00049Y-00072*
X-00044Y-00075*
X-00038Y-00078*
X-00033Y-00081*
X-00027Y-00083*
X-00021Y-00085*
X-00015Y-00086*
X-00009Y-00087*
X-00003Y-00087*
X00002Y-00087*
X00008Y-00087*
X00014Y-00086*
X0002Y-00085*
X00026Y-00083*
X00032Y-00081*
X00038Y-00079*
X00043Y-00076*
X00048Y-00072*
X00053Y-00069*
X00058Y-00065*
X00062Y-00061*
X00067Y-00056*
X0007Y-00051*
X00074Y-00046*
X00077Y-00041*
X0008Y-00036*
X00082Y-0003*
X00084Y-00024*
X00085Y-00018*
X00086Y-00012*
X00087Y-00006*
X00087Y0*
X00088Y0*
X-00059Y-00065D02*
D01*
X-00054Y-00068*
X-00049Y-00072*
X-00044Y-00075*
X-00038Y-00078*
X-00033Y-00081*
X-00027Y-00083*
X-00021Y-00085*
X-00015Y-00086*
X-00009Y-00087*
X-00003Y-00087*
X00002Y-00087*
X00008Y-00087*
X00014Y-00086*
X0002Y-00085*
X00026Y-00083*
X00032Y-00081*
X00038Y-00079*
X00043Y-00076*
X00048Y-00072*
X00053Y-00069*
X00058Y-00065*
X00062Y-00061*
X00067Y-00056*
X0007Y-00051*
X00074Y-00046*
X00077Y-00041*
X0008Y-00036*
X00082Y-0003*
X00084Y-00024*
X00085Y-00018*
X00086Y-00012*
X00087Y-00006*
X00087Y0*
X00088Y0*
X00087Y00006*
X00087Y00012*
X00086Y00018*
X00084Y00024*
X00082Y0003*
X0008Y00035*
X00077Y00041*
X00074Y00046*
X00071Y00051*
X00067Y00056*
X00063Y00061*
X00058Y00065*
X00054Y00069*
X00049Y00072*
X00044Y00076*
X00038Y00079*
X00032Y00081*
X00027Y00083*
X00021Y00085*
X00015Y00086*
X00009Y00087*
X00003Y00087*
X-00003*
X-00009Y00087*
X-00015Y00086*
X-00021Y00085*
X-00027Y00083*
X-00032Y00081*
X-00038Y00079*
X-00044Y00076*
X-00049Y00072*
X-00054Y00069*
X-00058Y00065*
X-00059Y00065*
X00088Y0D02*
D01*
X00087Y00006*
X00087Y00012*
X00086Y00018*
X00084Y00024*
X00082Y0003*
X0008Y00035*
X00077Y00041*
X00074Y00046*
X00071Y00051*
X00067Y00056*
X00063Y00061*
X00058Y00065*
X00054Y00069*
X00049Y00072*
X00044Y00076*
X00038Y00079*
X00032Y00081*
X00027Y00083*
X00021Y00085*
X00015Y00086*
X00009Y00087*
X00003Y00087*
X-00003*
X-00009Y00087*
X-00015Y00086*
X-00021Y00085*
X-00027Y00083*
X-00032Y00081*
X-00038Y00079*
X-00044Y00076*
X-00049Y00072*
X-00054Y00069*
X-00058Y00065*
X-00059Y00065*
X00521Y-00037D02*
D01*
X00521Y-00038*
X00521Y-0004*
X00521Y-00042*
X00522Y-00044*
X00522Y-00046*
X00523Y-00047*
X00524Y-00049*
X00525Y-00051*
X00526Y-00052*
X00527Y-00054*
X00528Y-00055*
X00529Y-00057*
X00531Y-00058*
X00532Y-00059*
X00534Y-0006*
X00536Y-00061*
X00537Y-00062*
X00539Y-00062*
X00541Y-00063*
X00543Y-00063*
X00545Y-00063*
X00547Y-00063*
X00548*
X00549Y-00065*
X00296Y00138D02*
D01*
X00296Y00129*
X00297Y0012*
X00298Y00111*
X003Y00102*
X00303Y00094*
X00306Y00086*
X0031Y00078*
X00315Y0007*
X0032Y00063*
X00325Y00056*
X00331Y00049*
X00338Y00043*
X00344Y00037*
X00351Y00032*
X00359Y00028*
X00367Y00023*
X00375Y0002*
X00383Y00017*
X00392Y00014*
X004Y00012*
X00409Y00011*
X00418Y00011*
X00427*
X00436Y00011*
X00445Y00012*
X00453Y00014*
X00462Y00017*
X0047Y0002*
X00478Y00023*
X00486Y00028*
X00494Y00032*
X00501Y00037*
X00507Y00043*
X00514Y00049*
X0052Y00056*
X00521Y00056*
Y-00037D02*
D01*
X00521Y-00038*
X00521Y-0004*
X00521Y-00042*
X00522Y-00044*
X00522Y-00046*
X00523Y-00047*
X00524Y-00049*
X00525Y-00051*
X00526Y-00052*
X00527Y-00054*
X00528Y-00055*
X00529Y-00057*
X00531Y-00058*
X00532Y-00059*
X00534Y-0006*
X00536Y-00061*
X00537Y-00062*
X00539Y-00062*
X00541Y-00063*
X00543Y-00063*
X00545Y-00063*
X00547Y-00063*
X00548*
X00549Y-00065*
X00799D02*
D01*
X008Y-00064*
X00802Y-00064*
X00804Y-00064*
X00806Y-00063*
X00808Y-00063*
X00809Y-00062*
X00811Y-00061*
X00813Y-0006*
X00814Y-00059*
X00816Y-00058*
X00817Y-00057*
X00819Y-00056*
X0082Y-00054*
X00821Y-00053*
X00822Y-00051*
X00823Y-00049*
X00824Y-00048*
X00824Y-00046*
X00825Y-00044*
X00825Y-00042*
X00825Y-0004*
X00825Y-00038*
Y-00037*
X00826Y-00037*
X00799Y-00065D02*
D01*
X008Y-00064*
X00802Y-00064*
X00804Y-00064*
X00806Y-00063*
X00808Y-00063*
X00809Y-00062*
X00811Y-00061*
X00813Y-0006*
X00814Y-00059*
X00816Y-00058*
X00817Y-00057*
X00819Y-00056*
X0082Y-00054*
X00821Y-00053*
X00822Y-00051*
X00823Y-00049*
X00824Y-00048*
X00824Y-00046*
X00825Y-00044*
X00825Y-00042*
X00825Y-0004*
X00825Y-00038*
Y-00037*
X00826Y-00037*
Y00463D02*
D01*
X00825Y00464*
X00825Y00466*
X00825Y00468*
X00824Y0047*
X00824Y00472*
X00823Y00473*
X00822Y00475*
X00821Y00477*
X0082Y00478*
X00819Y0048*
X00818Y00481*
X00817Y00483*
X00815Y00484*
X00814Y00485*
X00812Y00486*
X0081Y00487*
X00809Y00488*
X00807Y00488*
X00805Y00489*
X00803Y00489*
X00801Y00489*
X00799Y00489*
X00799Y0049*
X00826Y00463D02*
D01*
X00825Y00464*
X00825Y00466*
X00825Y00468*
X00824Y0047*
X00824Y00472*
X00823Y00473*
X00822Y00475*
X00821Y00477*
X0082Y00478*
X00819Y0048*
X00818Y00481*
X00817Y00483*
X00815Y00484*
X00814Y00485*
X00812Y00486*
X0081Y00487*
X00809Y00488*
X00807Y00488*
X00805Y00489*
X00803Y00489*
X00801Y00489*
X00799Y00489*
X00799Y0049*
X01167Y01137D02*
D01*
X01165Y01135*
X01163Y01134*
X01161Y01132*
X0116Y0113*
X01158Y01129*
X01157Y01127*
X01156Y01125*
X01155Y01123*
X01154Y01121*
X01153Y01119*
X01153Y01116*
X01152Y01114*
X01152Y01112*
X01152Y0111*
X01152Y01107*
X01152Y01105*
X01153Y01103*
X01153Y01101*
X01154Y01099*
X01155Y01096*
X01156Y01094*
X01157Y01092*
X01158Y01091*
X0116Y01089*
X01161Y01088*
X01178Y0116D02*
D01*
X01176Y01158*
X01174Y01156*
X01173Y01154*
X01171Y01152*
X0117Y0115*
X01169Y01148*
X01168Y01146*
X01168Y01144*
X01167Y01142*
X01167Y0114*
X01166Y01137*
X01167Y01137*
X-00059Y01353D02*
D01*
X-00054Y01349*
X-00049Y01345*
X-00044Y01342*
X-00038Y01339*
X-00033Y01336*
X-00027Y01334*
X-00021Y01332*
X-00015Y01331*
X-00009Y0133*
X-00003Y0133*
X00002Y0133*
X00008Y0133*
X00014Y01331*
X0002Y01332*
X00026Y01334*
X00032Y01336*
X00038Y01338*
X00043Y01341*
X00048Y01345*
X00053Y01348*
X00058Y01352*
X00062Y01356*
X00067Y01361*
X0007Y01366*
X00074Y01371*
X00077Y01376*
X0008Y01381*
X00082Y01387*
X00084Y01393*
X00085Y01399*
X00086Y01405*
X00087Y01411*
X00087Y01417*
X00088Y01418*
X00551Y01263D02*
D01*
X0055Y01271*
X00549Y0128*
X00548Y01289*
X00546Y01298*
X00543Y01306*
X0054Y01314*
X00536Y01322*
X00531Y0133*
X00526Y01337*
X00521Y01344*
X00515Y01351*
X00508Y01357*
X00502Y01363*
X00495Y01368*
X00487Y01372*
X00479Y01377*
X00471Y0138*
X00463Y01383*
X00454Y01386*
X00446Y01388*
X00437Y01389*
X00428Y01389*
X00419*
X0041Y01389*
X00401Y01388*
X00393Y01386*
X00384Y01383*
X00376Y0138*
X00368Y01377*
X0036Y01372*
X00352Y01368*
X00345Y01363*
X00339Y01357*
X00332Y01351*
X00326Y01344*
X00321Y01337*
X00316Y0133*
X00311Y01322*
X00307Y01314*
X00304Y01306*
X00301Y01298*
X00299Y01289*
X00298Y0128*
X00297Y01271*
X00296Y01263*
X00088Y01418D02*
D01*
X00087Y01424*
X00087Y0143*
X00086Y01436*
X00084Y01442*
X00082Y01448*
X0008Y01453*
X00077Y01459*
X00074Y01464*
X00071Y01469*
X00067Y01474*
X00063Y01479*
X00058Y01483*
X00054Y01487*
X00049Y0149*
X00044Y01494*
X00038Y01497*
X00032Y01499*
X00027Y01501*
X00021Y01503*
X00015Y01504*
X00009Y01505*
X00003Y01505*
X-00003*
X-00009Y01505*
X-00015Y01504*
X-00021Y01503*
X-00027Y01501*
X-00032Y01499*
X-00038Y01497*
X-00044Y01494*
X-00049Y0149*
X-00054Y01487*
X-00058Y01483*
X-00059Y01483*
X0116Y01231D02*
D01*
X01158Y01229*
X01156Y01227*
X01155Y01225*
X01153Y01223*
X01152Y01221*
X01151Y01219*
X0115Y01217*
X0115Y01215*
X01149Y01213*
X01149Y01211*
X01148Y01208*
X01148Y01206*
X01148Y01204*
X01148Y01201*
X01149Y01199*
X01149Y01197*
X0115Y01194*
X01151Y01192*
X01152Y0119*
X01153Y01188*
X01154Y01186*
X01156Y01184*
X01157Y01183*
X01159Y01181*
X01161Y01179*
X01163Y01178*
X01165Y01177*
X01167Y01176*
X01168Y01176*
Y01285D02*
D01*
X01165Y01283*
X01163Y01282*
X01162Y01281*
X0116Y01279*
X01158Y01278*
X01157Y01276*
X01155Y01274*
X01154Y01273*
X01153Y01271*
X01151Y01268*
X01151Y01266*
X0115Y01264*
X01149Y01262*
X01149Y0126*
X01149Y01257*
X01148Y01255*
X01148Y01253*
X01149Y0125*
X01149Y01248*
X0115Y01246*
X0115Y01244*
X01151Y01242*
X01152Y01239*
X01153Y01237*
X01154Y01236*
X01156Y01234*
X01157Y01232*
X01159Y0123*
X0116Y01231*
X01371Y00964D02*
D01*
X01371Y00961*
X01372Y00959*
X01373Y00957*
X01374Y00955*
X01375Y00953*
X01377Y00951*
X01378Y00949*
X0138Y00948*
X01381Y00946*
X01383Y00945*
X01385Y00944*
X01387Y00942*
X01389Y00941*
X01391Y0094*
X01393Y0094*
X01396Y00939*
X01398Y00939*
X014Y00939*
X01403Y00939*
X01405Y00939*
X01407Y00939*
X01409Y00939*
X01412Y0094*
X01414Y00941*
X01416Y00941*
X01418Y00942*
X0142Y00944*
X01422Y00945*
X01424Y00946*
X01425Y00948*
X01427Y00949*
X01429Y00951*
X0143Y00953*
X01431Y00955*
X01432Y00957*
X01433Y00959*
X01434Y00961*
X01435Y00964*
X01435Y00966*
X01435Y00968*
X01435Y0097*
X01436Y00972*
X01435Y00974*
X01435Y00976*
X01435Y00978*
X01434Y00981*
X01434Y00983*
X01433Y00985*
X01432Y00987*
X0143Y00989*
X01429Y00991*
X01428Y00993*
X01426Y00994*
X01425Y00996*
X01423Y00998*
X01421Y00999*
X01419Y01*
X01417Y01001*
X01415Y01002*
X01413Y01003*
X01411Y01004*
X01383Y01032D02*
D01*
X01384Y01033*
X01385Y01036*
X01386Y01038*
X01386Y0104*
X01387Y01042*
X01161Y01088D02*
D01*
X01159Y01086*
X01158Y01084*
X01156Y01082*
X01155Y0108*
X01154Y01078*
X01153Y01076*
X01153Y01074*
X01152Y01071*
X01152Y01069*
X01151Y01067*
X01151Y01064*
X01151Y01062*
X01152Y0106*
X01152Y01057*
X01153Y01055*
X01153Y01053*
X01154Y01051*
X01155Y01049*
X01156Y01047*
X01158Y01045*
X01159Y01043*
X01161Y01041*
X01162Y0104*
X01164Y01038*
X01166Y01037*
X01168Y01036*
X0117Y01035*
X01172Y01034*
X01174Y01033*
X01177Y01032*
X01179Y01032*
X01181Y01031*
X01183Y01031*
X01186Y01031*
X01188Y01031*
X0119Y01032*
X01193Y01032*
X01195Y01033*
X01197Y01034*
X01199Y01035*
X01201Y01036*
X01168Y01176D02*
D01*
X01168Y01173*
X01169Y01171*
X0117Y01169*
X01171Y01167*
X01173Y01165*
X01174Y01163*
X01175Y01162*
X01177Y0116*
X01178Y0116*
X01217Y01304D02*
D01*
X01214Y01305*
X01212Y01306*
X0121Y01306*
X01208Y01307*
X01206Y01308*
X01203Y01308*
X01201Y01308*
X01199Y01308*
X01196Y01308*
X01194Y01308*
X01192Y01307*
X01189Y01307*
X01187Y01306*
X01185Y01305*
X01183Y01304*
X01181Y01302*
X01179Y01301*
X01177Y013*
X01175Y01298*
X01174Y01296*
X01172Y01294*
X01171Y01293*
X0117Y0129*
X01169Y01288*
X01168Y01286*
X01168Y01285*
X01387Y01042D02*
D01*
X01389Y01041*
X01391Y01041*
X01393Y01042*
X01396Y01042*
X01398Y01042*
X014Y01043*
X01402Y01044*
X01404Y01045*
X01406Y01046*
X01408Y01047*
X0141Y01049*
X01412Y0105*
X01414Y01052*
X01415Y01054*
X01417Y01055*
X01418Y01057*
X01419Y01059*
X0142Y01061*
X01421Y01064*
X01421Y01066*
X01422Y01067*
X01424Y01066*
X01426Y01066*
X01428Y01067*
X01431Y01067*
X01433Y01067*
X01435Y01068*
X01437Y01069*
X01439Y0107*
X01441Y01071*
X01443Y01072*
X01445Y01074*
X01447Y01075*
X01449Y01077*
X0145Y01079*
X01452Y0108*
X01453Y01082*
X01454Y01084*
X01455Y01086*
X01456Y01089*
X01456Y01091*
X01457Y01093*
X01457Y01095*
X01458Y01098*
X01458Y011*
X01453Y01117D02*
D01*
X01455Y01116*
X01457Y01117*
X01459Y01117*
X01462Y01117*
X01464Y01118*
X01466Y01119*
X01468Y01119*
X0147Y0112*
X01472Y01122*
X01474Y01123*
X01476Y01124*
X01478Y01126*
X01479Y01128*
X01481Y01129*
X01482Y01131*
X01483Y01133*
X01484Y01135*
X01485Y01137*
X01486Y0114*
X01487Y01142*
X0119Y0138D02*
D01*
X01187Y01379*
X01185Y01378*
X01183Y01377*
X01181Y01376*
X01179Y01375*
X01177Y01373*
X01175Y01372*
X01174Y0137*
X01172Y01369*
X01171Y01367*
X0117Y01365*
X01168Y01363*
X01167Y01361*
X01166Y01359*
X01166Y01357*
X01165Y01354*
X01165Y01352*
X01165Y0135*
X01165Y01347*
X01165Y01345*
X01165Y01343*
X01165Y01341*
X01166Y01338*
X01167Y01336*
X01167Y01334*
X01168Y01332*
X0117Y0133*
X01171Y01328*
X01172Y01326*
X01174Y01325*
X01175Y01323*
X01177Y01321*
X01179Y0132*
X01181Y01319*
X01183Y01318*
X01185Y01317*
X01187Y01316*
X0119Y01315*
X01192Y01315*
X01194Y01315*
X01196Y01315*
X01199Y01315*
X01201Y01315*
X01203Y01315*
X01206Y01316*
X01208Y01316*
X0121Y01317*
X01212Y01318*
X01214Y01319*
X01216Y0132*
X01218Y01322*
X0122Y01323*
X01221Y01325*
X01223Y01326*
X01224Y01328*
X01225Y0133*
X01227Y01332*
X01228Y01334*
X01229Y01336*
X01229Y01338*
X0123Y0134*
X01313Y01491D02*
D01*
X0131Y0149*
X01308Y0149*
X01306Y0149*
X01305Y01489*
X01303Y01489*
X01301Y01488*
X01299Y01487*
X01297Y01486*
X01295Y01485*
X01294Y01484*
X01293Y01483*
X01313Y01491D02*
D01*
X0131Y0149*
X01308Y0149*
X01306Y0149*
X01305Y01489*
X01303Y01489*
X01301Y01488*
X01299Y01487*
X01297Y01486*
X01295Y01485*
X01294Y01484*
X01293Y01483*
X01923Y00897D02*
D01*
X01921Y00894*
X0192Y00892*
X0192Y0089*
X01919Y00888*
X01918Y00886*
X01918Y00883*
X01918Y00881*
X01918Y00879*
X01918Y00876*
X01918Y00874*
X01919Y00872*
X01919Y00869*
X0192Y00867*
X01921Y00865*
X01922Y00863*
X01924Y00861*
X01925Y00859*
X01926Y00857*
X01928Y00855*
X0193Y00854*
X01932Y00852*
X01933Y00851*
X01936Y0085*
X01938Y00849*
X0194Y00848*
X01942Y00847*
X01944Y00847*
X01947Y00846*
X01949Y00846*
X01951Y00846*
X01954Y00847*
X01955Y00845*
X01956Y00843*
X01957Y00841*
X01959Y00839*
X0196Y00837*
X01962Y00836*
X01964Y00835*
X01966Y00833*
X01968Y00832*
X0197Y00831*
X01972Y00831*
X01974Y0083*
X01976Y00829*
X01979Y00829*
X01981Y00829*
X01983Y00829*
X01986Y00829*
X01988Y00829*
X0199Y0083*
X01992Y0083*
X01994Y00831*
X01996Y00832*
X01999Y00833*
X02Y00834*
X02002Y00836*
X02004Y00837*
X02006Y00839*
X02007Y0084*
X02009Y00842*
X0201Y00844*
X02011Y00846*
X02012Y00848*
X02014Y00849*
X02015D02*
D01*
X02015Y00846*
X02016Y00844*
X02017Y00842*
X02019Y0084*
X0202Y00839*
X02022Y00837*
X02023Y00835*
X02025Y00834*
X02027Y00832*
X02029Y00831*
X02031Y0083*
X02033Y00829*
X02035Y00828*
X02037Y00828*
X0204Y00827*
X02042Y00827*
X02044Y00827*
X02046Y00827*
X02049Y00827*
X02051Y00827*
X02053Y00828*
X02055Y00828*
X02058Y00829*
X0206Y0083*
X02062Y00831*
X02064Y00832*
X02066Y00833*
X02067Y00835*
X02069Y00836*
X02071Y00838*
X02072Y0084*
X02073Y00842*
X02074Y00844*
X02075Y00846*
X02076Y00848*
X02077Y0085*
X02078Y00852*
X02078Y00855*
X02078Y00857*
X02078Y00859*
X02079Y0086*
X02078Y00862*
X02078Y00864*
X02078Y00866*
X02077Y00869*
X02077Y00871*
X02076Y00873*
X02075Y00875*
X02075Y00877*
X02125Y00895D02*
D01*
X02123Y00893*
X02122Y00891*
X02121Y00889*
X0212Y00887*
X02119Y00884*
X02119Y00882*
X02118Y0088*
X02118Y00878*
X02118Y00875*
X02118Y00873*
X02118Y00871*
X02118Y00869*
X02119Y00866*
X02119Y00864*
X0212Y00862*
X02121Y0086*
X02122Y00858*
X02123Y00856*
X02125Y00854*
X02126Y00852*
X02128Y00851*
X0213Y00849*
X02131Y00848*
X02133Y00847*
X02135Y00845*
X02137Y00844*
X0214Y00844*
X02142Y00843*
X02144Y00842*
X02146Y00842*
X02148Y00842*
X02151Y00842*
X02153Y00842*
X02155Y00842*
X02156Y00843*
X02826Y00213D02*
D01*
X02822Y00211*
X02819Y00209*
X02816Y00207*
X02813Y00204*
X0281Y00202*
X02807Y00199*
X02805Y00196*
X02802Y00193*
X02801Y00189*
X02799Y00186*
X02797Y00182*
X02796Y00179*
X02795Y00175*
X02794Y00171*
X02794Y00168*
X02793Y00164*
X02794Y0016*
X02794Y00156*
X02794Y00152*
X02795Y00149*
X02796Y00145*
X02798Y00141*
X02799Y00138*
X02801Y00134*
X02803Y00131*
X02806Y00128*
X02808Y00125*
X02811Y00122*
X02814Y0012*
X02817Y00118*
X0282Y00115*
X02823Y00114*
X02826Y00113*
Y00313D02*
D01*
X02822Y00311*
X02819Y00309*
X02816Y00307*
X02813Y00304*
X0281Y00302*
X02807Y00299*
X02805Y00296*
X02802Y00293*
X02801Y00289*
X02799Y00286*
X02797Y00282*
X02796Y00279*
X02795Y00275*
X02794Y00271*
X02794Y00268*
X02793Y00264*
X02794Y0026*
X02794Y00256*
X02794Y00252*
X02795Y00249*
X02796Y00245*
X02798Y00241*
X02799Y00238*
X02801Y00234*
X02803Y00231*
X02806Y00228*
X02808Y00225*
X02811Y00222*
X02814Y0022*
X02817Y00218*
X0282Y00215*
X02823Y00214*
X02826Y00213*
X02217Y00845D02*
D01*
X02218Y00843*
X02219Y00841*
X0222Y00839*
X02222Y00837*
X02224Y00836*
X02226Y00834*
X02227Y00833*
X02229Y00832*
X02231Y00831*
X02234Y0083*
X02236Y00829*
X02238Y00828*
X0224Y00828*
X02243Y00828*
X02245Y00827*
X02247Y00827*
X02249Y00828*
X02252Y00828*
X02254Y00828*
X02256Y00829*
X02258Y0083*
X0226Y00831*
X02263Y00832*
X02264Y00833*
X02266Y00835*
X02268Y00836*
X0227Y00838*
X02271Y0084*
X02273Y00841*
X02274Y00843*
X02275Y00845*
X02276Y00847*
X02277Y0085*
X02277Y00852*
X02278Y00854*
X02278Y00856*
X02279Y00859*
X02279Y0086*
X02156Y00843D02*
D01*
X02157Y00841*
X02158Y00839*
X0216Y00837*
X02162Y00836*
X02164Y00834*
X02166Y00833*
X02168Y00832*
X0217Y00831*
X02172Y0083*
X02174Y0083*
X02176Y00829*
X02179Y00829*
X02181Y00829*
X02183Y00828*
X02185Y00829*
X02188Y00829*
X0219Y00829*
X02192Y0083*
X02194Y00831*
X02197Y00832*
X02199Y00833*
X02201Y00834*
X02202Y00835*
X02204Y00837*
X02206Y00838*
X02207Y0084*
X02209Y00842*
X0221Y00844*
X02211Y00845*
X02279Y0086D02*
D01*
X02278Y00862*
X02278Y00864*
X02278Y00866*
X02277Y00869*
X02277Y00871*
X02276Y00873*
X02275Y00875*
X02275Y00877*
X02826Y00413D02*
D01*
X02822Y00411*
X02819Y00409*
X02816Y00407*
X02813Y00404*
X0281Y00402*
X02807Y00399*
X02805Y00396*
X02802Y00393*
X02801Y00389*
X02799Y00386*
X02797Y00382*
X02796Y00379*
X02795Y00375*
X02794Y00371*
X02794Y00368*
X02793Y00364*
X02794Y0036*
X02794Y00356*
X02794Y00352*
X02795Y00349*
X02796Y00345*
X02798Y00341*
X02799Y00338*
X02801Y00334*
X02803Y00331*
X02806Y00328*
X02808Y00325*
X02811Y00322*
X02814Y0032*
X02817Y00318*
X0282Y00315*
X02823Y00314*
X02826Y00313*
Y00113D02*
D01*
X02822Y00111*
X02819Y00109*
X02816Y00107*
X02813Y00104*
X0281Y00102*
X02807Y00099*
X02805Y00096*
X02802Y00093*
X02801Y00089*
X02799Y00086*
X02797Y00082*
X02796Y00079*
X02795Y00075*
X02794Y00071*
X02794Y00068*
X02793Y00064*
X02794Y0006*
X02794Y00056*
X02794Y00052*
X02795Y00049*
X02796Y00045*
X02798Y00041*
X02799Y00038*
X02801Y00034*
X02803Y00031*
X02806Y00028*
X02808Y00025*
X02811Y00022*
X02814Y0002*
X02817Y00018*
X0282Y00015*
X02823Y00014*
X02827Y00012*
X0283Y00011*
X02834Y00009*
X02838Y00009*
X02842Y00008*
X02845Y00008*
X02849Y00007*
X02853Y00008*
X02857Y00008*
X02861Y00009*
X02864Y0001*
X02868Y00011*
X02872Y00013*
X02875Y00014*
X02878Y00016*
X02881Y00018*
X02884Y00021*
X02887Y00023*
X0289Y00026*
X02892Y00029*
X02895Y00032*
X02896Y00036*
X02898Y00039*
X02899Y0004*
X029Y00036*
X02902Y00033*
X02904Y0003*
X02907Y00027*
X02909Y00024*
X02912Y00021*
X02915Y00019*
X02918Y00016*
X02922Y00015*
X02925Y00013*
X02929Y00011*
X02932Y0001*
X02936Y00009*
X0294Y00008*
X02943Y00008*
X02947Y00007*
X02951Y00008*
X02955Y00008*
X02959Y00008*
X02962Y00009*
X02966Y0001*
X0297Y00012*
X02973Y00013*
X02977Y00015*
X0298Y00017*
X02983Y0002*
X02986Y00022*
X02989Y00025*
X02991Y00028*
X02993Y00031*
X02996Y00034*
X02997Y00037*
X02999Y00041*
X03Y00044*
X03002Y00048*
X03002Y00052*
X03003Y00056*
X03003Y00059*
X03004Y00063*
X03003Y00066*
X03003Y0007*
X03002Y00074*
X03001Y00078*
X03Y00081*
X02999Y00085*
X02997Y00088*
X02995Y00092*
X02993Y00095*
X02991Y00098*
X02988Y00101*
X02985Y00103*
X02982Y00106*
X02979Y00108*
X02976Y0011*
X02973Y00112*
X02972Y00113*
X02975Y00114*
X02978Y00116*
X02981Y00118*
X02984Y00121*
X02987Y00123*
X0299Y00126*
X02992Y00129*
X02995Y00132*
X02996Y00136*
X02998Y00139*
X03Y00143*
X03001Y00146*
X03002Y0015*
X03003Y00154*
X03003Y00157*
X03004Y00161*
X03004Y00163*
X03003Y00166*
X03003Y0017*
X03002Y00174*
X03001Y00178*
X03Y00181*
X02999Y00185*
X02997Y00188*
X02995Y00192*
X02993Y00195*
X02991Y00198*
X02988Y00201*
X02985Y00203*
X02982Y00206*
X02979Y00208*
X02976Y0021*
X02973Y00212*
X02972Y00213*
X02975Y00214*
X02978Y00216*
X02981Y00218*
X02984Y00221*
X02987Y00223*
X0299Y00226*
X02992Y00229*
X02995Y00232*
X02996Y00236*
X02998Y00239*
X03Y00243*
X03001Y00246*
X03002Y0025*
X03003Y00254*
X03003Y00257*
X03004Y00261*
X03004Y00263*
X03003Y00266*
X03003Y0027*
X03002Y00274*
X03001Y00278*
X03Y00281*
X02999Y00285*
X02997Y00288*
X02995Y00292*
X02993Y00295*
X02991Y00298*
X02988Y00301*
X02985Y00303*
X02982Y00306*
X02979Y00308*
X02976Y0031*
X02973Y00312*
X02972Y00313*
X02975Y00314*
X02978Y00316*
X02981Y00318*
X02984Y00321*
X02987Y00323*
X0299Y00326*
X02992Y00329*
X02995Y00332*
X02996Y00336*
X02998Y00339*
X03Y00343*
X03001Y00346*
X03002Y0035*
X03003Y00354*
X03003Y00357*
X03004Y00361*
X03004Y00363*
X03003Y00366*
X03003Y0037*
X03002Y00374*
X03001Y00378*
X03Y00381*
X02999Y00385*
X02997Y00388*
X02995Y00392*
X02993Y00395*
X02991Y00398*
X02988Y00401*
X02985Y00403*
X02982Y00406*
X02979Y00408*
X02976Y0041*
X02973Y00412*
X02972Y00413*
X02826Y00513D02*
D01*
X02822Y00511*
X02819Y00509*
X02816Y00507*
X02813Y00504*
X0281Y00502*
X02807Y00499*
X02805Y00496*
X02802Y00493*
X02801Y00489*
X02799Y00486*
X02797Y00482*
X02796Y00479*
X02795Y00475*
X02794Y00471*
X02794Y00468*
X02793Y00464*
X02794Y0046*
X02794Y00456*
X02794Y00452*
X02795Y00449*
X02796Y00445*
X02798Y00441*
X02799Y00438*
X02801Y00434*
X02803Y00431*
X02806Y00428*
X02808Y00425*
X02811Y00422*
X02814Y0042*
X02817Y00418*
X0282Y00415*
X02823Y00414*
X02826Y00413*
X02972D02*
D01*
X02975Y00414*
X02978Y00416*
X02981Y00418*
X02984Y00421*
X02987Y00423*
X0299Y00426*
X02992Y00429*
X02995Y00432*
X02996Y00436*
X02998Y00439*
X03Y00443*
X03001Y00446*
X03002Y0045*
X03003Y00454*
X03003Y00457*
X03004Y00461*
X03004Y00463*
X03003Y00466*
X03003Y0047*
X03002Y00474*
X03001Y00478*
X03Y00481*
X02999Y00485*
X02997Y00488*
X02995Y00492*
X02993Y00495*
X02991Y00498*
X02988Y00501*
X02985Y00503*
X02982Y00506*
X02979Y00508*
X02976Y0051*
X02973Y00512*
X02972Y00513*
X02826Y00613D02*
D01*
X02822Y00611*
X02819Y00609*
X02816Y00607*
X02813Y00604*
X0281Y00602*
X02807Y00599*
X02805Y00596*
X02802Y00593*
X02801Y00589*
X02799Y00586*
X02797Y00582*
X02796Y00579*
X02795Y00575*
X02794Y00571*
X02794Y00568*
X02793Y00564*
X02794Y0056*
X02794Y00556*
X02794Y00552*
X02795Y00549*
X02796Y00545*
X02798Y00541*
X02799Y00538*
X02801Y00534*
X02803Y00531*
X02806Y00528*
X02808Y00525*
X02811Y00522*
X02814Y0052*
X02817Y00518*
X0282Y00515*
X02823Y00514*
X02826Y00513*
Y00713D02*
D01*
X02822Y00711*
X02819Y00709*
X02816Y00707*
X02813Y00704*
X0281Y00702*
X02807Y00699*
X02805Y00696*
X02802Y00693*
X02801Y00689*
X02799Y00686*
X02797Y00682*
X02796Y00679*
X02795Y00675*
X02794Y00671*
X02794Y00668*
X02793Y00664*
X02794Y0066*
X02794Y00656*
X02794Y00652*
X02795Y00649*
X02796Y00645*
X02798Y00641*
X02799Y00638*
X02801Y00634*
X02803Y00631*
X02806Y00628*
X02808Y00625*
X02811Y00622*
X02814Y0062*
X02817Y00618*
X0282Y00615*
X02823Y00614*
X02826Y00613*
X02972Y00513D02*
D01*
X02975Y00514*
X02978Y00516*
X02981Y00518*
X02984Y00521*
X02987Y00523*
X0299Y00526*
X02992Y00529*
X02995Y00532*
X02996Y00536*
X02998Y00539*
X03Y00543*
X03001Y00546*
X03002Y0055*
X03003Y00554*
X03003Y00557*
X03004Y00561*
X03004Y00563*
X03003Y00566*
X03003Y0057*
X03002Y00574*
X03001Y00578*
X03Y00581*
X02999Y00585*
X02997Y00588*
X02995Y00592*
X02993Y00595*
X02991Y00598*
X02988Y00601*
X02985Y00603*
X02982Y00606*
X02979Y00608*
X02976Y0061*
X02973Y00612*
X02972Y00613*
X02975Y00614*
X02978Y00616*
X02981Y00618*
X02984Y00621*
X02987Y00623*
X0299Y00626*
X02992Y00629*
X02995Y00632*
X02996Y00636*
X02998Y00639*
X03Y00643*
X03001Y00646*
X03002Y0065*
X03003Y00654*
X03003Y00657*
X03004Y00661*
X03004Y00663*
X03003Y00666*
X03003Y0067*
X03002Y00674*
X03001Y00678*
X03Y00681*
X02999Y00685*
X02997Y00688*
X02995Y00692*
X02993Y00695*
X02991Y00698*
X02988Y00701*
X02985Y00703*
X02982Y00706*
X02979Y00708*
X02976Y0071*
X02973Y00712*
X02972Y00713*
X02826Y00813D02*
D01*
X02822Y00811*
X02819Y00809*
X02816Y00807*
X02813Y00804*
X0281Y00802*
X02807Y00799*
X02805Y00796*
X02802Y00793*
X02801Y00789*
X02799Y00786*
X02797Y00782*
X02796Y00779*
X02795Y00775*
X02794Y00771*
X02794Y00768*
X02793Y00764*
X02794Y0076*
X02794Y00756*
X02794Y00752*
X02795Y00749*
X02796Y00745*
X02798Y00741*
X02799Y00738*
X02801Y00734*
X02803Y00731*
X02806Y00728*
X02808Y00725*
X02811Y00722*
X02814Y0072*
X02817Y00718*
X0282Y00715*
X02823Y00714*
X02826Y00713*
X02972D02*
D01*
X02975Y00714*
X02978Y00716*
X02981Y00718*
X02984Y00721*
X02987Y00723*
X0299Y00726*
X02992Y00729*
X02995Y00732*
X02996Y00736*
X02998Y00739*
X03Y00743*
X03001Y00746*
X03002Y0075*
X03003Y00754*
X03003Y00757*
X03004Y00761*
X03004Y00763*
X03003Y00766*
X03003Y0077*
X03002Y00774*
X03001Y00778*
X03Y00781*
X02999Y00785*
X02997Y00788*
X02995Y00792*
X02993Y00795*
X02991Y00798*
X02988Y00801*
X02985Y00803*
X02982Y00806*
X02979Y00808*
X02976Y0081*
X02973Y00812*
X02972Y00813*
X02826Y00913D02*
D01*
X02822Y00911*
X02819Y00909*
X02816Y00907*
X02813Y00904*
X0281Y00902*
X02807Y00899*
X02805Y00896*
X02802Y00893*
X02801Y00889*
X02799Y00886*
X02797Y00882*
X02796Y00879*
X02795Y00875*
X02794Y00871*
X02794Y00868*
X02793Y00864*
X02794Y0086*
X02794Y00856*
X02794Y00852*
X02795Y00849*
X02796Y00845*
X02798Y00841*
X02799Y00838*
X02801Y00834*
X02803Y00831*
X02806Y00828*
X02808Y00825*
X02811Y00822*
X02814Y0082*
X02817Y00818*
X0282Y00815*
X02823Y00814*
X02826Y00813*
X02972D02*
D01*
X02975Y00814*
X02978Y00816*
X02981Y00818*
X02984Y00821*
X02987Y00823*
X0299Y00826*
X02992Y00829*
X02995Y00832*
X02996Y00836*
X02998Y00839*
X03Y00843*
X03001Y00846*
X03002Y0085*
X03003Y00854*
X03003Y00857*
X03004Y00861*
X03004Y00863*
X03003Y00866*
X03003Y0087*
X03002Y00874*
X03001Y00878*
X03Y00881*
X02999Y00885*
X02997Y00888*
X02995Y00892*
X02993Y00895*
X02991Y00898*
X02988Y00901*
X02985Y00903*
X02982Y00906*
X02979Y00908*
X02976Y0091*
X02973Y00912*
X02972Y00913*
X01568Y00931D02*
D01*
X01567Y00928*
X01566Y00926*
X01566Y00924*
X01566Y00922*
X01566Y00919*
X01566Y00917*
X01566Y00915*
X01566Y00912*
X01567Y0091*
X01568Y00908*
X01569Y00906*
X0157Y00904*
X01571Y00902*
X01572Y009*
X01573Y00898*
X01575Y00896*
X01577Y00895*
X01578Y00893*
X0158Y00892*
X01582Y00891*
X01584Y0089*
X01586Y00889*
X01589Y00888*
X01591Y00888*
X01593Y00887*
X01595Y00887*
X01598Y00887*
X016Y00887*
X01602Y00887*
X01604Y00887*
X01607Y00888*
X01609Y00888*
X01611Y00889*
X01613Y0089*
X01615Y00891*
X01617Y00892*
X01619Y00894*
X01621Y00895*
X01622Y00897*
X01624Y00899*
X01625Y009*
X01627Y00902*
X01628Y00904*
X01629Y00906*
X0163Y00909*
X0163Y00911*
X01631Y00913*
X01631Y00915*
X01631Y00917*
X01632Y0092*
X01631Y00922*
X01631Y00924*
X01631Y00926*
X0163Y00929*
X0163Y00931*
X01985Y01078D02*
D01*
X01984Y0108*
X01984Y01082*
X01984Y01084*
X01983Y01087*
X01983Y01089*
X01982Y01091*
X01981Y01093*
X01979Y01095*
X01978Y01097*
X01977Y01099*
X01975Y011*
X01974Y01102*
X01972Y01104*
X0197Y01105*
X01968Y01106*
X01966Y01107*
X01964Y01108*
X01962Y01109*
X01959Y0111*
X01957Y0111*
X01955Y0111*
X01953Y0111*
X0195*
X01948Y0111*
X01946Y0111*
X01944Y0111*
X01941Y01109*
X01939Y01108*
X01937Y01107*
X01935Y01106*
X01933Y01105*
X01931Y01104*
X01929Y01102*
X01928Y011*
X01926Y01099*
X01925Y01097*
X01924Y01095*
X01922Y01093*
X01921Y01091*
X0192Y01089*
X0192Y01087*
X01919Y01084*
X01919Y01082*
X01919Y0108*
X01919Y01078*
X01919Y01075*
X01919Y01073*
X01919Y01071*
X0192Y01068*
X0192Y01066*
X01921Y01064*
X01922Y01062*
X01923Y01061*
X01458Y011D02*
D01*
X01457Y01102*
X01457Y01104*
X01457Y01106*
X01456Y01109*
X01456Y01111*
X01455Y01113*
X01454Y01115*
X01453Y01117*
X01487Y01142D02*
D01*
X01489Y01141*
X01491Y01141*
X01493Y01142*
X01496Y01142*
X01498Y01142*
X015Y01143*
X01502Y01144*
X01504Y01145*
X01506Y01146*
X01508Y01147*
X0151Y01149*
X01512Y0115*
X01514Y01152*
X01515Y01154*
X01517Y01155*
X01518Y01157*
X01519Y01159*
X0152Y01161*
X01521Y01164*
X01521Y01166*
X01522Y01168*
X02075Y00919D02*
D01*
X02076Y00921*
X02077Y00923*
X02077Y00925*
X02078Y00927*
X02079Y00929*
X02079Y00932*
X02079Y00934*
X02079Y00935*
X02047Y00988D02*
D01*
X02046Y0099*
X02046Y00992*
X02046Y00994*
X02045Y00997*
X02045Y00999*
X02044Y01001*
X02043Y01003*
X02041Y01005*
X0204Y01007*
X02039Y01009*
X02037Y0101*
X02036Y01012*
X02034Y01014*
X02032Y01015*
X0203Y01016*
X02028Y01017*
X02026Y01018*
X02024Y01019*
X02021Y0102*
X02019Y0102*
X02017Y0102*
X02015Y0102*
X02012*
X02012Y01021*
X02079Y00935D02*
D01*
X02078Y00937*
X02078Y00939*
X02078Y00941*
X02077Y00944*
X02077Y00946*
X02076Y00948*
X02075Y0095*
X02073Y00952*
X02072Y00954*
X02071Y00956*
X02069Y00957*
X02068Y00959*
X02066Y00961*
X02064Y00962*
X02062Y00963*
X0206Y00964*
X02058Y00965*
X02056Y00966*
X02053Y00967*
X02051Y00967*
X02049Y00967*
X02047Y00967*
X02044*
X02043Y00968*
Y00972D02*
D01*
X02043Y00974*
X02044Y00976*
X02045Y00978*
X02046Y0098*
X02046Y00982*
X02046Y00985*
X02046Y00987*
X02047Y00988*
X02016Y01037D02*
D01*
X02015Y01039*
X02015Y01041*
X02015Y01043*
X02014Y01046*
X02014Y01048*
X02013Y0105*
X02012Y01052*
X0201Y01054*
X02009Y01056*
X02008Y01058*
X02006Y01059*
X02005Y01061*
X02003Y01063*
X02001Y01064*
X01999Y01065*
X01997Y01066*
X01995Y01067*
X01993Y01068*
X0199Y01069*
X01988Y01069*
X01986Y01069*
X01984Y01069*
X01984Y0107*
X02012Y01021D02*
D01*
X02013Y01023*
X02013Y01025*
X02014Y01027*
X02015Y01029*
X02015Y01031*
X02016Y01034*
X02016Y01036*
X02016Y01037*
X02279Y01043D02*
D01*
X02278Y01045*
X02278Y01047*
X02278Y01049*
X02277Y01052*
X02277Y01054*
X02276Y01056*
X02275Y01058*
X02273Y0106*
X02272Y01062*
X02271Y01064*
X02269Y01065*
X02268Y01067*
X02266Y01069*
X02264Y0107*
X02262Y01071*
X0226Y01072*
X02258Y01073*
X02256Y01074*
X02253Y01075*
X02251Y01075*
X02249Y01075*
X02247Y01075*
X02246Y01076*
X02275Y01026D02*
D01*
X02276Y01028*
X02277Y0103*
X02277Y01032*
X02278Y01034*
X02279Y01036*
X02279Y01039*
X02279Y01041*
X02279Y01043*
X02247Y01083D02*
D01*
X02246Y01085*
X02246Y01087*
X02246Y01089*
X02245Y01092*
X02245Y01094*
X02244Y01096*
X02243Y01098*
X02241Y011*
X0224Y01102*
X02239Y01104*
X02237Y01105*
X02236Y01107*
X02234Y01109*
X02232Y0111*
X0223Y01111*
X02228Y01112*
X02226Y01113*
X02224Y01114*
X02221Y01115*
X02219Y01115*
X02217Y01115*
X02216Y01116*
X02217Y01123D02*
D01*
X02216Y01125*
X02216Y01127*
X02216Y01129*
X02215Y01132*
X02215Y01134*
X02214Y01136*
X02213Y01138*
X02211Y0114*
X0221Y01142*
X02209Y01144*
X02207Y01145*
X02206Y01147*
X02204Y01149*
X02202Y0115*
X022Y01151*
X02198Y01152*
X02196Y01153*
X02194Y01154*
X02191Y01155*
X02189Y01155*
X02187Y01155*
X02186Y01156*
X01493Y01374D02*
D01*
X01492Y01371*
X01491Y01369*
X01491Y01367*
X01491Y01365*
X01491Y01362*
X01491Y0136*
X01491Y01358*
X01491Y01355*
X01492Y01353*
X01493Y01351*
X01494Y01349*
X01495Y01347*
X01496Y01345*
X01497Y01343*
X01498Y01341*
X015Y01339*
X01502Y01338*
X01503Y01336*
X01505Y01335*
X01507Y01334*
X01509Y01333*
X0151Y01333*
X01522Y01168D02*
D01*
X01524Y01167*
X01526Y01167*
X01528Y01167*
X01531Y01167*
X01533Y01167*
X01535Y01167*
X01537Y01167*
X0154Y01168*
X01542Y01169*
X01544Y0117*
X01546Y01171*
X01548Y01172*
X0155Y01173*
X01552Y01175*
X01553Y01177*
X01555Y01178*
X01556Y0118*
X01557Y01182*
X01559Y01184*
X0156Y01186*
X01562Y01185*
X01564Y01184*
X01566Y01183*
X01568Y01183*
X01594Y01337D02*
D01*
X01595Y01338*
X01597Y0134*
X01598Y01341*
X016Y01343*
X01601Y01345*
X01602Y01347*
X01603Y01349*
X01604Y01351*
X01605Y01353*
X01606Y01355*
X01606Y01358*
X01606Y0136*
X01606Y01362*
X01607Y01363*
X01606Y01365*
X01606Y01367*
X01606Y01369*
X01605Y01372*
X01605Y01374*
X01604Y01376*
X01603Y01378*
X01602Y01379*
X01492Y01434D02*
D01*
X01491Y01431*
X01491Y01429*
X01491Y01427*
X01491Y01424*
X01491Y01422*
X01491Y0142*
X01492Y01418*
X01493Y01416*
X01602Y01421D02*
D01*
X01603Y01423*
X01604Y01425*
X01604Y01427*
X01605Y01429*
X01606Y01431*
X01606Y01434*
X01606Y01436*
X01607Y01438*
X01606Y0144*
X01606Y01442*
X01606Y01444*
X01605Y01447*
X01605Y01449*
X01604Y0145*
X01604Y01452*
X01605Y01454*
X01606Y01456*
X01606Y01459*
X01606Y01461*
X01607Y01463*
X01606Y01465*
X01606Y01467*
X01606Y01469*
X01605Y01472*
X01605Y01474*
X01604Y01476*
X01603Y01478*
X01601Y0148*
X016Y01482*
X01599Y01484*
X01597Y01485*
X01596Y01487*
X01594Y01489*
X01592Y0149*
X0159Y01491*
X01588Y01492*
X01586Y01493*
X01584Y01494*
X01581Y01495*
X01579Y01495*
X01577Y01495*
X01575Y01495*
X01572*
X0157Y01495*
X01568Y01495*
X01566Y01495*
X01563Y01494*
X01561Y01493*
X01559Y01492*
X01557Y01491*
X01557Y01491*
X0163Y01288D02*
D01*
X01629Y0129*
X01629Y01292*
X01629Y01294*
X01628Y01296*
X01628Y01298*
X01627Y013*
X01626Y01302*
X01625Y01304*
X01624Y01306*
X01622Y01307*
X01621Y01309*
X01621Y0131*
X0163Y01288D02*
D01*
X01629Y0129*
X01629Y01292*
X01629Y01294*
X01628Y01296*
X01628Y01298*
X01627Y013*
X01626Y01302*
X01625Y01304*
X01624Y01306*
X01622Y01307*
X01621Y01309*
X01621Y0131*
X02187Y01163D02*
D01*
X02186Y01165*
X02186Y01167*
X02186Y01169*
X02185Y01172*
X02185Y01174*
X02184Y01176*
X02183Y01178*
X02181Y0118*
X0218Y01182*
X02179Y01184*
X02177Y01185*
X02176Y01187*
X02174Y01189*
X02172Y0119*
X0217Y01191*
X02168Y01192*
X02166Y01193*
X02164Y01194*
X02161Y01195*
X02159Y01195*
X02157Y01195*
X02155Y01195*
X02152*
X0215Y01195*
X02148Y01195*
X02146Y01195*
X02143Y01194*
X02141Y01193*
X02139Y01192*
X02137Y01191*
X02135Y0119*
X02133Y01189*
X02131Y01187*
X0213Y01185*
X02128Y01184*
X02127Y01182*
X02126Y0118*
X02124Y01178*
X02123Y01176*
X02122Y01174*
X02122Y01172*
X02121Y01169*
X02121Y01167*
X02121Y01165*
X02121Y01163*
X02121Y0116*
X02121Y01158*
X02121Y01156*
X02122Y01153*
X02122Y01151*
X02123Y01149*
X02124Y01147*
X02125Y01146*
X02826Y01013D02*
D01*
X02822Y01011*
X02819Y01009*
X02816Y01007*
X02813Y01004*
X0281Y01002*
X02807Y00999*
X02805Y00996*
X02802Y00993*
X02801Y00989*
X02799Y00986*
X02797Y00982*
X02796Y00979*
X02795Y00975*
X02794Y00971*
X02794Y00968*
X02793Y00964*
X02794Y0096*
X02794Y00956*
X02794Y00952*
X02795Y00949*
X02796Y00945*
X02798Y00941*
X02799Y00938*
X02801Y00934*
X02803Y00931*
X02806Y00928*
X02808Y00925*
X02811Y00922*
X02814Y0092*
X02817Y00918*
X0282Y00915*
X02823Y00914*
X02826Y00913*
X02972D02*
D01*
X02975Y00914*
X02978Y00916*
X02981Y00918*
X02984Y00921*
X02987Y00923*
X0299Y00926*
X02992Y00929*
X02995Y00932*
X02996Y00936*
X02998Y00939*
X03Y00943*
X03001Y00946*
X03002Y0095*
X03003Y00954*
X03003Y00957*
X03004Y00961*
X03004Y00963*
X02826Y01113D02*
D01*
X02822Y01111*
X02819Y01109*
X02816Y01107*
X02813Y01104*
X0281Y01102*
X02807Y01099*
X02805Y01096*
X02802Y01093*
X02801Y01089*
X02799Y01086*
X02797Y01082*
X02796Y01079*
X02795Y01075*
X02794Y01071*
X02794Y01068*
X02793Y01064*
X02794Y0106*
X02794Y01056*
X02794Y01052*
X02795Y01049*
X02796Y01045*
X02798Y01041*
X02799Y01038*
X02801Y01034*
X02803Y01031*
X02806Y01028*
X02808Y01025*
X02811Y01022*
X02814Y0102*
X02817Y01018*
X0282Y01015*
X02823Y01014*
X02826Y01013*
X03004Y00963D02*
D01*
X03003Y00966*
X03003Y0097*
X03002Y00974*
X03001Y00978*
X03Y00981*
X02999Y00985*
X02997Y00988*
X02995Y00992*
X02993Y00995*
X02991Y00998*
X02988Y01001*
X02985Y01003*
X02982Y01006*
X02979Y01008*
X02976Y0101*
X02973Y01012*
X02972Y01013*
X02975Y01014*
X02978Y01016*
X02981Y01018*
X02984Y01021*
X02987Y01023*
X0299Y01026*
X02992Y01029*
X02995Y01032*
X02996Y01036*
X02998Y01039*
X03Y01043*
X03001Y01046*
X03002Y0105*
X03003Y01054*
X03003Y01057*
X03004Y01061*
X03004Y01063*
X03003Y01066*
X03003Y0107*
X03002Y01074*
X03001Y01078*
X03Y01081*
X02999Y01085*
X02997Y01088*
X02995Y01092*
X02993Y01095*
X02991Y01098*
X02988Y01101*
X02985Y01103*
X02982Y01106*
X02979Y01108*
X02976Y0111*
X02973Y01112*
X02972Y01113*
X02826Y01213D02*
D01*
X02822Y01211*
X02819Y01209*
X02816Y01207*
X02813Y01204*
X0281Y01202*
X02807Y01199*
X02805Y01196*
X02802Y01193*
X02801Y01189*
X02799Y01186*
X02797Y01182*
X02796Y01179*
X02795Y01175*
X02794Y01171*
X02794Y01168*
X02793Y01164*
X02794Y0116*
X02794Y01156*
X02794Y01152*
X02795Y01149*
X02796Y01145*
X02798Y01141*
X02799Y01138*
X02801Y01134*
X02803Y01131*
X02806Y01128*
X02808Y01125*
X02811Y01122*
X02814Y0112*
X02817Y01118*
X0282Y01115*
X02823Y01114*
X02826Y01113*
X02972D02*
D01*
X02975Y01114*
X02978Y01116*
X02981Y01118*
X02984Y01121*
X02987Y01123*
X0299Y01126*
X02992Y01129*
X02995Y01132*
X02996Y01136*
X02998Y01139*
X03Y01143*
X03001Y01146*
X03002Y0115*
X03003Y01154*
X03003Y01157*
X03004Y01161*
X03004Y01163*
X03003Y01166*
X03003Y0117*
X03002Y01174*
X03001Y01178*
X03Y01181*
X02999Y01185*
X02997Y01188*
X02995Y01192*
X02993Y01195*
X02991Y01198*
X02988Y01201*
X02985Y01203*
X02982Y01206*
X02979Y01208*
X02976Y0121*
X02973Y01212*
X02972Y01213*
X02826Y01313D02*
D01*
X02822Y01311*
X02819Y01309*
X02816Y01307*
X02813Y01304*
X0281Y01302*
X02807Y01299*
X02805Y01296*
X02802Y01293*
X02801Y01289*
X02799Y01286*
X02797Y01282*
X02796Y01279*
X02795Y01275*
X02794Y01271*
X02794Y01268*
X02793Y01264*
X02794Y0126*
X02794Y01256*
X02794Y01252*
X02795Y01249*
X02796Y01245*
X02798Y01241*
X02799Y01238*
X02801Y01234*
X02803Y01231*
X02806Y01228*
X02808Y01225*
X02811Y01222*
X02814Y0122*
X02817Y01218*
X0282Y01215*
X02823Y01214*
X02826Y01213*
Y01413D02*
D01*
X02822Y01411*
X02819Y01409*
X02816Y01407*
X02813Y01404*
X0281Y01402*
X02807Y01399*
X02805Y01396*
X02802Y01393*
X02801Y01389*
X02799Y01386*
X02797Y01382*
X02796Y01379*
X02795Y01375*
X02794Y01371*
X02794Y01368*
X02793Y01364*
X02794Y0136*
X02794Y01356*
X02794Y01352*
X02795Y01349*
X02796Y01345*
X02798Y01341*
X02799Y01338*
X02801Y01334*
X02803Y01331*
X02806Y01328*
X02808Y01325*
X02811Y01322*
X02814Y0132*
X02817Y01318*
X0282Y01315*
X02823Y01314*
X02826Y01313*
X02899Y01486D02*
D01*
X02897Y01489*
X02895Y01492*
X02893Y01495*
X0289Y01498*
X02888Y01501*
X02885Y01504*
X02882Y01506*
X02879Y01509*
X02875Y0151*
X02872Y01512*
X02868Y01514*
X02865Y01515*
X02861Y01516*
X02857Y01517*
X02854Y01517*
X0285Y01518*
X02846Y01517*
X02842Y01517*
X02838Y01517*
X02835Y01516*
X02831Y01515*
X02827Y01513*
X02824Y01512*
X0282Y0151*
X02817Y01508*
X02814Y01505*
X02811Y01503*
X02808Y015*
X02806Y01497*
X02804Y01494*
X02801Y01491*
X028Y01488*
X02798Y01484*
X02797Y01481*
X02795Y01477*
X02795Y01473*
X02794Y01469*
X02794Y01466*
X02793Y01462*
X02794Y01458*
X02794Y01454*
X02795Y0145*
X02796Y01447*
X02797Y01443*
X02799Y01439*
X028Y01436*
X02802Y01433*
X02804Y0143*
X02807Y01427*
X02809Y01424*
X02812Y01421*
X02815Y01419*
X02818Y01416*
X02822Y01415*
X02825Y01413*
X02826Y01413*
X03004Y01463D02*
D01*
X03003Y01466*
X03003Y0147*
X03002Y01474*
X03001Y01478*
X03Y01481*
X02999Y01485*
X02997Y01488*
X02995Y01492*
X02993Y01495*
X02991Y01498*
X02988Y01501*
X02985Y01503*
X02982Y01506*
X02979Y01508*
X02976Y0151*
X02973Y01512*
X02969Y01513*
X02965Y01515*
X02962Y01516*
X02958Y01517*
X02954Y01517*
X0295Y01517*
X02947*
X02943Y01517*
X02939Y01517*
X02935Y01516*
X02932Y01515*
X02928Y01513*
X02924Y01512*
X02921Y0151*
X02918Y01508*
X02915Y01506*
X02912Y01503*
X02909Y01501*
X02906Y01498*
X02904Y01495*
X02902Y01492*
X029Y01488*
X02899Y01486*
X02972Y01213D02*
D01*
X02975Y01214*
X02978Y01216*
X02981Y01218*
X02984Y01221*
X02987Y01223*
X0299Y01226*
X02992Y01229*
X02995Y01232*
X02996Y01236*
X02998Y01239*
X03Y01243*
X03001Y01246*
X03002Y0125*
X03003Y01254*
X03003Y01257*
X03004Y01261*
X03004Y01263*
X03003Y01266*
X03003Y0127*
X03002Y01274*
X03001Y01278*
X03Y01281*
X02999Y01285*
X02997Y01288*
X02995Y01292*
X02993Y01295*
X02991Y01298*
X02988Y01301*
X02985Y01303*
X02982Y01306*
X02979Y01308*
X02976Y0131*
X02973Y01312*
X02972Y01313*
X02975Y01314*
X02978Y01316*
X02981Y01318*
X02984Y01321*
X02987Y01323*
X0299Y01326*
X02992Y01329*
X02995Y01332*
X02996Y01336*
X02998Y01339*
X03Y01343*
X03001Y01346*
X03002Y0135*
X03003Y01354*
X03003Y01357*
X03004Y01361*
X03004Y01363*
X03003Y01366*
X03003Y0137*
X03002Y01374*
X03001Y01378*
X03Y01381*
X02999Y01385*
X02997Y01388*
X02995Y01392*
X02993Y01395*
X02991Y01398*
X02988Y01401*
X02985Y01403*
X02982Y01406*
X02979Y01408*
X02976Y0141*
X02973Y01412*
X02972Y01413*
X02975Y01414*
X02978Y01416*
X02981Y01418*
X02984Y01421*
X02987Y01423*
X0299Y01426*
X02992Y01429*
X02995Y01432*
X02996Y01436*
X02998Y01439*
X03Y01443*
X03001Y01446*
X03002Y0145*
X03003Y01454*
X03003Y01457*
X03004Y01461*
X03004Y01463*
X-00016Y-0013D02*
Y-00087D01*
X-00059Y-00088D02*
X-00009D01*
X-00006Y-0013D02*
Y-00088D01*
X00004Y-0013D02*
Y-00088D01*
X00014Y-0013D02*
Y-00087D01*
X-00059Y-0013D02*
Y-00065D01*
X-00056Y-0013D02*
Y-00068D01*
X-00059Y-00078D02*
X-00042D01*
X-00046Y-0013D02*
Y-00075D01*
X-00036Y-0013D02*
Y-0008D01*
X-00026Y-0013D02*
Y-00084D01*
X00024Y-0013D02*
Y-00085D01*
X00034Y-0013D02*
Y-00081D01*
X00044Y-0013D02*
Y-00076D01*
X00054Y-0013D02*
Y-0007D01*
X00064Y-0013D02*
Y-00061D01*
X00067Y-00058D02*
X0053D01*
X00074Y-0013D02*
Y-00048D01*
X00084Y-0013D02*
Y-00027D01*
X00074Y-00048D02*
X00523D01*
X-00059Y00072D02*
X-0005D01*
X-00059Y00082D02*
X-00031D01*
X00031D02*
X00309D01*
X-00059Y00092D02*
X00305D01*
X-00059Y00112D02*
X00299D01*
X-00059Y00102D02*
X00301D01*
X-00059Y00122D02*
X00297D01*
X-00059Y00132D02*
X00297D01*
X-00059Y00142D02*
X00296D01*
X0008Y-00038D02*
X00521D01*
X00084Y-00028D02*
X00521D01*
X00086Y-00018D02*
X00521D01*
X00088Y-00008D02*
X00521D01*
X00088Y00002D02*
X00521D01*
X00071Y00052D02*
X00329D01*
X0005Y00072D02*
X00314D01*
X00062Y00062D02*
X00321D01*
X00085Y00022D02*
X00369D01*
X00077Y00042D02*
X00339D01*
X00082Y00032D02*
X00352D01*
X00364Y-0013D02*
Y00025D01*
X00374Y-0013D02*
Y0002D01*
X00384Y-0013D02*
Y00017D01*
X00394Y-0013D02*
Y00014D01*
X00404Y-0013D02*
Y00012D01*
X00304Y-0013D02*
Y00095D01*
X00314Y-0013D02*
Y00073D01*
X00324Y-0013D02*
Y00059D01*
X00334Y-0013D02*
Y00047D01*
X00344Y-0013D02*
Y00038D01*
X00354Y-0013D02*
Y00031D01*
X00414Y-0013D02*
Y00011D01*
X00424Y-0013D02*
Y0001D01*
X00434Y-0013D02*
Y00011D01*
X00444Y-0013D02*
Y00012D01*
X00454Y-0013D02*
Y00014D01*
X00464Y-0013D02*
Y00017D01*
X00474Y-0013D02*
Y0002D01*
X00484Y-0013D02*
Y00025D01*
X00494Y-0013D02*
Y00031D01*
X00504Y-0013D02*
Y00038D01*
X00514Y-0013D02*
Y00047D01*
X00087Y00012D02*
X004D01*
X00524Y-0013D02*
Y-00049D01*
X00534Y-0013D02*
Y-0006D01*
X00544Y-0013D02*
Y-00064D01*
X00448Y00012D02*
X00521D01*
X00478Y00022D02*
X00521D01*
Y-00037D02*
Y00056D01*
X00496Y00032D02*
X00521D01*
X00509Y00042D02*
X00521D01*
X00554Y-0013D02*
Y-00065D01*
X00549D02*
X00574D01*
X00564Y-0013D02*
Y-00065D01*
X00574Y-0013D02*
Y-00065D01*
X00584Y-0013D02*
Y-00065D01*
X00594Y-0013D02*
Y-00065D01*
X00604Y-0013D02*
Y-00065D01*
X00614Y-0013D02*
Y-00065D01*
X00624Y-0013D02*
Y-00065D01*
X00634Y-0013D02*
Y-00065D01*
X-00059Y00152D02*
X00296D01*
X-00059Y00162D02*
X00296D01*
X-00059Y00172D02*
X00296D01*
X-00059Y00182D02*
X00296D01*
X-00059Y00192D02*
X00296D01*
X-00059Y00065D02*
Y01353D01*
X-00056Y00068D02*
Y0135D01*
X-00046Y00075D02*
Y01343D01*
X-00036Y0008D02*
Y01337D01*
X-00026Y00084D02*
Y01334D01*
X-00016Y00087D02*
Y01331D01*
X-00059Y00202D02*
X00296D01*
X-00059Y00212D02*
X00296D01*
X-00059Y00222D02*
X00296D01*
X-00059Y00232D02*
X00296D01*
X-00059Y00242D02*
X00296D01*
X-00059Y00252D02*
X00296D01*
X-00059Y00262D02*
X00296D01*
X-00059Y00272D02*
X00296D01*
X-00059Y00282D02*
X00296D01*
X-00059Y00292D02*
X00296D01*
X-00059Y00302D02*
X00296D01*
X-00059Y00312D02*
X00296D01*
X-00059Y00322D02*
X00296D01*
X-00059Y00332D02*
X00296D01*
X-00059Y00342D02*
X00296D01*
X-00059Y00352D02*
X00296D01*
X-00059Y00362D02*
X00296D01*
X-00059Y00372D02*
X00296D01*
X-00059Y00382D02*
X00296D01*
X-00059Y00392D02*
X00296D01*
X-00059Y00402D02*
X00296D01*
X-00059Y00412D02*
X00296D01*
X-00059Y00422D02*
X00296D01*
X-00059Y00432D02*
X00296D01*
X-00059Y00442D02*
X00296D01*
X-00059Y00452D02*
X00296D01*
X-00059Y00462D02*
X00296D01*
X-00059Y00472D02*
X00296D01*
X-00059Y00482D02*
X00296D01*
X-00059Y00492D02*
X00296D01*
X-00059Y00502D02*
X00296D01*
X-00059Y00512D02*
X00296D01*
X-00059Y00522D02*
X00296D01*
X00094Y-0013D02*
Y01545D01*
X00084Y00027D02*
Y01391D01*
X00104Y-0013D02*
Y01545D01*
X00114Y-0013D02*
Y01545D01*
X00124Y-0013D02*
Y01545D01*
X00134Y-0013D02*
Y01545D01*
X00144Y-0013D02*
Y01545D01*
X00154Y-0013D02*
Y01545D01*
X00164Y-0013D02*
Y01545D01*
X00174Y-0013D02*
Y01545D01*
X00184Y-0013D02*
Y01545D01*
X00194Y-0013D02*
Y01545D01*
X00204Y-0013D02*
Y01545D01*
X00214Y-0013D02*
Y01545D01*
X00224Y-0013D02*
Y01545D01*
X00234Y-0013D02*
Y01545D01*
X00244Y-0013D02*
Y01545D01*
X00254Y-0013D02*
Y01545D01*
X00264Y-0013D02*
Y01545D01*
X00274Y-0013D02*
Y01545D01*
X00284Y-0013D02*
Y01545D01*
X00294Y-0013D02*
Y01545D01*
X-00006Y00088D02*
Y0133D01*
X00004Y00088D02*
Y0133D01*
X00014Y00087D02*
Y01331D01*
X00296Y00138D02*
Y01263D01*
X00551Y0049D02*
Y01263D01*
X00044Y00076D02*
Y01341D01*
X00024Y00085D02*
Y01333D01*
X00034Y00081D02*
Y01337D01*
X00074Y00048D02*
Y0137D01*
X00054Y0007D02*
Y01348D01*
X00064Y00061D02*
Y01357D01*
X00551Y0049D02*
X00564D01*
X00554D02*
Y01545D01*
X00551Y0049D02*
X00564D01*
X00574*
X00564D02*
Y01545D01*
X00574Y0049D02*
Y01545D01*
X00584Y0049D02*
Y01545D01*
X00594Y0049D02*
Y01545D01*
X00604Y0049D02*
Y01545D01*
X00614Y0049D02*
Y01545D01*
X00624Y0049D02*
Y01545D01*
X00634Y0049D02*
Y01545D01*
X00644Y-0013D02*
Y-00065D01*
X00654Y-0013D02*
Y-00065D01*
X00664Y-0013D02*
Y-00065D01*
X00674Y-0013D02*
Y-00065D01*
X00684Y-0013D02*
Y-00065D01*
X00694Y-0013D02*
Y-00065D01*
X00704Y-0013D02*
Y-00065D01*
X00714Y-0013D02*
Y-00065D01*
X00724Y-0013D02*
Y-00065D01*
X00734Y-0013D02*
Y-00065D01*
X00744Y-0013D02*
Y-00065D01*
X-00059Y-0013D02*
X03191D01*
X-00059Y-00128D02*
X03191D01*
X00754Y-0013D02*
Y-00065D01*
X00764Y-0013D02*
Y-00065D01*
X-00059Y-00118D02*
X03191D01*
X00774Y-0013D02*
Y-00065D01*
X00784Y-0013D02*
Y-00065D01*
X00794Y-0013D02*
Y-00065D01*
X00804Y-0013D02*
Y-00064D01*
X00814Y-0013D02*
Y-0006D01*
X00824Y-0013D02*
Y-00049D01*
X-00059Y-00108D02*
X03191D01*
X00574Y-00065D02*
X00674D01*
X00799*
X00826Y00012D02*
X02827D01*
X00825Y00472D02*
X02795D01*
X00826Y00022D02*
X02811D01*
X00826Y00032D02*
X02803D01*
X00826Y00052D02*
X02795D01*
X00826Y00042D02*
X02798D01*
X-00059Y-00098D02*
X03191D01*
X00009Y-00088D02*
X03191D01*
X00042Y-00078D02*
X03191D01*
X00056Y-00068D02*
X03191D01*
X00818Y-00058D02*
X03191D01*
X00824Y-00048D02*
X03191D01*
X00826Y-00038D02*
X03191D01*
X00826Y-00028D02*
X03191D01*
X00826Y-00018D02*
X03191D01*
X00826Y-00008D02*
X03191D01*
X00826Y00002D02*
X03191D01*
X00826Y00062D02*
X02794D01*
X00826Y00072D02*
X02795D01*
X00826Y-00037D02*
Y00088D01*
Y00082D02*
X02798D01*
X00826Y00142D02*
X02798D01*
X00826Y00152D02*
X02795D01*
X00826Y00162D02*
X02794D01*
X00826Y00172D02*
X02795D01*
X00826Y00088D02*
Y00213D01*
Y00338*
Y00182D02*
X02798D01*
X00826Y00092D02*
X02803D01*
X00826Y00102D02*
X02811D01*
X00826Y00112D02*
X02825D01*
X00826Y00132D02*
X02803D01*
X00826Y00122D02*
X02811D01*
X00826Y00192D02*
X02803D01*
X00826Y00202D02*
X02811D01*
X00826Y00212D02*
X02825D01*
X00826Y00222D02*
X02811D01*
X00826Y00242D02*
X02798D01*
X00826Y00232D02*
X02803D01*
X00826Y00252D02*
X02795D01*
X00826Y00262D02*
X02794D01*
X00826Y00272D02*
X02795D01*
X00826Y00282D02*
X02798D01*
X00826Y00342D02*
X02798D01*
X00826Y00352D02*
X02795D01*
X00826Y00362D02*
X02794D01*
X00826Y00372D02*
X02795D01*
X00826Y00338D02*
Y00463D01*
Y00452D02*
X02795D01*
X00826Y00462D02*
X02794D01*
X00826Y00292D02*
X02803D01*
X00826Y00302D02*
X02811D01*
X00826Y00312D02*
X02825D01*
X00826Y00322D02*
X02811D01*
X00826Y00382D02*
X02798D01*
X00826Y00332D02*
X02803D01*
X00826Y00392D02*
X02803D01*
X00826Y00402D02*
X02811D01*
X00826Y00412D02*
X02825D01*
X00826Y00422D02*
X02811D01*
X00826Y00442D02*
X02798D01*
X00826Y00432D02*
X02803D01*
X00834Y-0013D02*
Y01545D01*
X00814Y00486D02*
Y01545D01*
X00824Y00474D02*
Y01545D01*
X00844Y-0013D02*
Y01545D01*
X00854Y-0013D02*
Y01545D01*
X00864Y-0013D02*
Y01545D01*
X00874Y-0013D02*
Y01545D01*
X00884Y-0013D02*
Y01545D01*
X00894Y-0013D02*
Y01545D01*
X00904Y-0013D02*
Y01545D01*
X00818Y00482D02*
X02798D01*
X00914Y-0013D02*
Y01545D01*
X00924Y-0013D02*
Y01545D01*
X00934Y-0013D02*
Y01545D01*
X00944Y-0013D02*
Y01545D01*
X00954Y-0013D02*
Y01545D01*
X00964Y-0013D02*
Y01545D01*
X00974Y-0013D02*
Y01545D01*
X00984Y-0013D02*
Y01545D01*
X00994Y-0013D02*
Y01545D01*
X00574Y0049D02*
X00674D01*
X00644D02*
Y01545D01*
X00654Y0049D02*
Y01545D01*
X00664Y0049D02*
Y01545D01*
X00674Y0049D02*
Y01545D01*
X00684Y0049D02*
Y01545D01*
X00694Y0049D02*
Y01545D01*
X00704Y0049D02*
Y01545D01*
X00714Y0049D02*
Y01545D01*
X00724Y0049D02*
Y01545D01*
X00734Y0049D02*
Y01545D01*
X00551Y00492D02*
X02803D01*
X00551Y00502D02*
X02811D01*
X00674Y0049D02*
X00799D01*
X00744D02*
Y01545D01*
X00551Y00512D02*
X02825D01*
X00754Y0049D02*
Y01545D01*
X00764Y0049D02*
Y01545D01*
X00774Y0049D02*
Y01545D01*
X00784Y0049D02*
Y01545D01*
X00794Y0049D02*
Y01545D01*
X00804Y0049D02*
Y01545D01*
X01004Y-0013D02*
Y01545D01*
X01014Y-0013D02*
Y01545D01*
X01024Y-0013D02*
Y01545D01*
X01034Y-0013D02*
Y01545D01*
X01044Y-0013D02*
Y01545D01*
X01054Y-0013D02*
Y01545D01*
X01064Y-0013D02*
Y01545D01*
X01074Y-0013D02*
Y01545D01*
X01084Y-0013D02*
Y01545D01*
X01094Y-0013D02*
Y01545D01*
X01104Y-0013D02*
Y01545D01*
X01174Y-0013D02*
Y01033D01*
X01184Y-0013D02*
Y01032D01*
X01194Y-0013D02*
Y01033D01*
X01204Y-0013D02*
Y01036D01*
X01214Y-0013D02*
Y01036D01*
X01114Y-0013D02*
Y01545D01*
X01124Y-0013D02*
Y01545D01*
X01134Y-0013D02*
Y01545D01*
X01144Y-0013D02*
Y01545D01*
X01154Y-0013D02*
Y01053D01*
X01164Y-0013D02*
Y01039D01*
X01224Y-0013D02*
Y01036D01*
X01234Y-0013D02*
Y01036D01*
X01304Y-0013D02*
Y01031D01*
X01314Y-0013D02*
Y01021D01*
X01324Y-0013D02*
Y01011D01*
X01244Y-0013D02*
Y01036D01*
X01254Y-0013D02*
Y01036D01*
X01264Y-0013D02*
Y01036D01*
X01274Y-0013D02*
Y01036D01*
X01284Y-0013D02*
Y01036D01*
X01294Y-0013D02*
Y01036D01*
X01374Y-0013D02*
Y00956D01*
X01384Y-0013D02*
Y00945D01*
X01394Y-0013D02*
Y00941D01*
X01404Y-0013D02*
Y00939D01*
X01414Y-0013D02*
Y00941D01*
X01424Y-0013D02*
Y00947D01*
X01334Y-0013D02*
Y01001D01*
X01344Y-0013D02*
Y00991D01*
X01354Y-0013D02*
Y00981D01*
X01364Y-0013D02*
Y00971D01*
X01434Y-0013D02*
Y00962D01*
X01444Y-0013D02*
Y01073D01*
X-00059Y00532D02*
X00296D01*
X-00059Y00542D02*
X00296D01*
X-00059Y00552D02*
X00296D01*
X-00059Y00562D02*
X00296D01*
X-00059Y00572D02*
X00296D01*
X-00059Y00582D02*
X00296D01*
X-00059Y00592D02*
X00296D01*
X-00059Y00602D02*
X00296D01*
X-00059Y00612D02*
X00296D01*
X-00059Y00622D02*
X00296D01*
X-00059Y00632D02*
X00296D01*
X-00059Y00642D02*
X00296D01*
X-00059Y00652D02*
X00296D01*
X-00059Y00662D02*
X00296D01*
X-00059Y00672D02*
X00296D01*
X-00059Y00682D02*
X00296D01*
X-00059Y00692D02*
X00296D01*
X-00059Y00702D02*
X00296D01*
X-00059Y00712D02*
X00296D01*
X-00059Y00722D02*
X00296D01*
X-00059Y00732D02*
X00296D01*
X-00059Y00742D02*
X00296D01*
X-00059Y00752D02*
X00296D01*
X-00059Y00762D02*
X00296D01*
X-00059Y00772D02*
X00296D01*
X-00059Y00782D02*
X00296D01*
X-00059Y00792D02*
X00296D01*
X-00059Y00802D02*
X00296D01*
X-00059Y00812D02*
X00296D01*
X-00059Y00822D02*
X00296D01*
X-00059Y00832D02*
X00296D01*
X-00059Y00842D02*
X00296D01*
X-00059Y00852D02*
X00296D01*
X-00059Y00862D02*
X00296D01*
X-00059Y00872D02*
X00296D01*
X-00059Y00882D02*
X00296D01*
X-00059Y00892D02*
X00296D01*
X-00059Y00902D02*
X00296D01*
X-00059Y00912D02*
X00296D01*
X-00059Y00922D02*
X00296D01*
X-00059Y00932D02*
X00296D01*
X-00059Y00942D02*
X00296D01*
X-00059Y00952D02*
X00296D01*
X-00059Y00962D02*
X00296D01*
X-00059Y00972D02*
X00296D01*
X-00059Y00982D02*
X00296D01*
X-00059Y00992D02*
X00296D01*
X-00059Y01002D02*
X00296D01*
X-00059Y01012D02*
X00296D01*
X-00059Y01022D02*
X00296D01*
X-00059Y01032D02*
X00296D01*
X-00059Y01042D02*
X00296D01*
X-00059Y01052D02*
X00296D01*
X-00059Y01062D02*
X00296D01*
X-00059Y01072D02*
X00296D01*
X00551Y01032D02*
X01177D01*
X00551Y01042D02*
X0116D01*
X00551Y01052D02*
X01154D01*
X00551Y01062D02*
X01152D01*
X00551Y01072D02*
X01153D01*
X-00059Y01082D02*
X00296D01*
X-00059Y01092D02*
X00296D01*
X00551Y01082D02*
X01157D01*
X01154Y01077D02*
Y01099D01*
X00551Y01092D02*
X01157D01*
X-00059Y01102D02*
X00296D01*
X-00059Y01112D02*
X00296D01*
X00551Y01102D02*
X01153D01*
X-00059Y01122D02*
X00296D01*
X-00059Y01132D02*
X00296D01*
X-00059Y01142D02*
X00296D01*
X-00059Y01152D02*
X00296D01*
X-00059Y01162D02*
X00296D01*
X-00059Y01172D02*
X00296D01*
X-00059Y01182D02*
X00296D01*
X-00059Y01192D02*
X00296D01*
X00551Y01112D02*
X01152D01*
X00551Y01122D02*
X01154D01*
X00551Y01132D02*
X01161D01*
X00551Y01142D02*
X01167D01*
X00551Y01152D02*
X01171D01*
X01154Y01121D02*
Y01188D01*
X00551Y01182D02*
X01159D01*
X00551Y01172D02*
X01169D01*
X01164Y01135D02*
Y01178D01*
X01174Y01156D02*
Y01165D01*
X-00059Y01202D02*
X00296D01*
X-00059Y01212D02*
X00296D01*
X-00059Y01222D02*
X00296D01*
X-00059Y01232D02*
X00296D01*
X-00059Y01242D02*
X00296D01*
X-00059Y01252D02*
X00296D01*
X-00059Y01262D02*
X00296D01*
X-00059Y01272D02*
X00297D01*
X-00059Y01342D02*
X-00046D01*
X-00059Y01332D02*
X-00022D01*
X-00059Y01282D02*
X00298D01*
X-00059Y01292D02*
X003D01*
X-00059Y01302D02*
X00303D01*
X-00059Y01312D02*
X00307D01*
X-00059Y01322D02*
X00311D01*
X00022Y01332D02*
X00317D01*
X00046Y01342D02*
X00324D01*
X00059Y01352D02*
X00333D01*
X00304Y01306D02*
Y01545D01*
X00314Y01327D02*
Y01545D01*
X-00059Y01492D02*
X-00046D01*
X-00059Y01502D02*
X-00024D01*
X-00059Y01483D02*
Y01545D01*
X-00056Y01485D02*
Y01545D01*
X-00046Y01493D02*
Y01545D01*
X-00036Y01498D02*
Y01545D01*
X-00026Y01502D02*
Y01545D01*
X-00016Y01504D02*
Y01545D01*
X-00006Y01505D02*
Y01545D01*
X00004Y01506D02*
Y01545D01*
X00014Y01505D02*
Y01545D01*
X00024Y01502D02*
Y01545D01*
X00068Y01362D02*
X00344D01*
X00075Y01372D02*
X00359D01*
X00081Y01382D02*
X0038D01*
X00054Y01487D02*
Y01545D01*
X00034Y01499D02*
Y01545D01*
X00044Y01494D02*
Y01545D01*
X00084Y01444D02*
Y01545D01*
X00064Y01478D02*
Y01545D01*
X00074Y01466D02*
Y01545D01*
X00551Y01192D02*
X01151D01*
X00551Y01202D02*
X01149D01*
X00551Y01212D02*
X01149D01*
X00551Y01222D02*
X01153D01*
X01154Y01225D02*
Y01239D01*
X00544Y01306D02*
Y01545D01*
X00324Y01342D02*
Y01545D01*
X00534Y01327D02*
Y01545D01*
X00551Y01242D02*
X01152D01*
X00551Y01252D02*
X0115D01*
X00551Y01262D02*
X01151D01*
X00551Y01232D02*
X01159D01*
X0055Y01282D02*
X01165D01*
X00551Y01272D02*
X01155D01*
X00548Y01292D02*
X01172D01*
X00523Y01342D02*
X01166D01*
X00531Y01332D02*
X01169D01*
X01154Y01271D02*
Y01545D01*
X01164Y01282D02*
Y01545D01*
X01174Y01295D02*
Y01326D01*
X00334Y01353D02*
Y01545D01*
X00344Y01362D02*
Y01545D01*
X00354Y01369D02*
Y01545D01*
X00364Y01375D02*
Y01545D01*
X00374Y0138D02*
Y01545D01*
X00384Y01384D02*
Y01545D01*
X00394Y01387D02*
Y01545D01*
X00404Y01389D02*
Y01545D01*
X00414Y0139D02*
Y01545D01*
X00424Y0139D02*
Y01545D01*
X00434Y0139D02*
Y01545D01*
X00454Y01387D02*
Y01545D01*
X00444Y01389D02*
Y01545D01*
X00464Y01384D02*
Y01545D01*
X00515Y01352D02*
X01165D01*
X00474Y0138D02*
Y01545D01*
X00503Y01362D02*
X01168D01*
X00504D02*
Y01545D01*
X00484Y01375D02*
Y01545D01*
X00494Y01369D02*
Y01545D01*
X00524Y01342D02*
Y01545D01*
X00514Y01353D02*
Y01545D01*
X01174Y01371D02*
Y01545D01*
X00551Y00532D02*
X02803D01*
X00551Y00542D02*
X02798D01*
X00551Y00552D02*
X02795D01*
X00551Y00562D02*
X02794D01*
X00551Y00572D02*
X02795D01*
X00551Y00582D02*
X02798D01*
X00551Y00652D02*
X02795D01*
X00551Y00642D02*
X02798D01*
X00551Y00662D02*
X02794D01*
X00551Y00672D02*
X02795D01*
X00551Y00682D02*
X02798D01*
X00551Y00522D02*
X02811D01*
X00551Y00592D02*
X02803D01*
X00551Y00602D02*
X02811D01*
X00551Y00622D02*
X02811D01*
X00551Y00612D02*
X02825D01*
X00551Y00632D02*
X02803D01*
X00551Y00692D02*
X02803D01*
X00551Y00702D02*
X02811D01*
X00551Y00712D02*
X02825D01*
X00551Y00732D02*
X02803D01*
X00551Y00722D02*
X02811D01*
X00551Y00852D02*
X01933D01*
X00551Y00862D02*
X01924D01*
X00551Y00872D02*
X0192D01*
X00551Y00892D02*
X01581D01*
X00551Y00882D02*
X01919D01*
X00551Y00902D02*
X01571D01*
X00545Y01302D02*
X01182D01*
X00541Y01312D02*
X0153D01*
X00551Y00912D02*
X01567D01*
X00551Y00922D02*
X01566D01*
X00551Y00932D02*
X01568D01*
X00551Y00742D02*
X02798D01*
X00551Y00752D02*
X02795D01*
X00551Y00762D02*
X02794D01*
X00551Y00772D02*
X02795D01*
X00551Y00782D02*
X02798D01*
X00551Y00792D02*
X02803D01*
X00551Y00802D02*
X02811D01*
X00551Y00812D02*
X02825D01*
X00551Y00822D02*
X02811D01*
X00551Y00842D02*
X01957D01*
X00551Y00832D02*
X01968D01*
X00551Y00942D02*
X01389D01*
X00551Y00952D02*
X01376D01*
X00551Y00962D02*
X01371D01*
X00551Y00982D02*
X01352D01*
X00551Y00972D02*
X01362D01*
X00551Y00992D02*
X01342D01*
X00551Y01012D02*
X01322D01*
X00551Y01002D02*
X01332D01*
X01299Y01036D02*
X01371Y00964D01*
X01383Y01032D02*
X01411Y01004D01*
X01414Y01003D02*
Y01052D01*
X01416Y00942D02*
X01568D01*
X01429Y00952D02*
X01568D01*
X01434Y00962D02*
X01568D01*
X01436Y00972D02*
X01568D01*
X01424Y00998D02*
Y01067D01*
X01416Y01002D02*
X01568D01*
X01434Y00982D02*
X01568D01*
X01434Y00983D02*
Y01068D01*
X01429Y00992D02*
X01568D01*
X00551Y01022D02*
X01312D01*
X01192Y01032D02*
X01302D01*
X01394Y01021D02*
Y01042D01*
X01201Y01036D02*
X01299D01*
X00551Y01162D02*
X01176D01*
X01184Y01304D02*
Y01318D01*
X01214Y01305D02*
Y01319D01*
X01393Y01022D02*
X01568D01*
X01383Y01032D02*
X01568D01*
X01395Y01042D02*
X01568D01*
X01403Y01012D02*
X01568D01*
X01404Y01011D02*
Y01045D01*
X01414Y01052D02*
X01568D01*
X01217Y01304D02*
X01539D01*
X01421Y01062D02*
X01568D01*
X01443Y01072D02*
X01568D01*
X00537Y01322D02*
X01177D01*
X00489Y01372D02*
X01176D01*
X01224Y01304D02*
Y01328D01*
X01234Y01304D02*
Y01344D01*
X01244Y01304D02*
Y01354D01*
X00468Y01382D02*
X01192D01*
X00084Y01392D02*
X01202D01*
X01184Y01378D02*
Y01545D01*
X01194Y01384D02*
Y01545D01*
X01204Y01394D02*
Y01545D01*
X01219Y01322D02*
X0152D01*
X01227Y01332D02*
X0151D01*
X01254Y01304D02*
Y01364D01*
X01243Y01352D02*
X01493D01*
X01233Y01342D02*
X01498D01*
X0123Y0134D02*
X01325Y01434D01*
X0119Y0138D02*
X01293Y01483D01*
X01253Y01362D02*
X01491D01*
X01264Y01304D02*
Y01374D01*
X01263Y01372D02*
X01492D01*
X01273Y01382D02*
X01493D01*
X00087Y01402D02*
X01212D01*
X00084Y01442D02*
X01252D01*
X00088Y01412D02*
X01222D01*
X00088Y01422D02*
X01232D01*
X00087Y01432D02*
X01242D01*
X01214Y01404D02*
Y01545D01*
X01224Y01414D02*
Y01545D01*
X00081Y01452D02*
X01262D01*
X01234Y01424D02*
Y01545D01*
X01244Y01434D02*
Y01545D01*
X01254Y01444D02*
Y01545D01*
X00046Y01492D02*
X0156D01*
X00024Y01502D02*
X02811D01*
X00076Y01462D02*
X01272D01*
X00069Y01472D02*
X01282D01*
X0006Y01482D02*
X01292D01*
X-00059Y01512D02*
X02825D01*
X-00059Y01522D02*
X03191D01*
X-00059Y01532D02*
X03191D01*
X01264Y01454D02*
Y01545D01*
X-00059Y01542D02*
X03191D01*
X-00059Y01545D02*
X03191D01*
X01274Y01304D02*
Y01384D01*
X01284Y01304D02*
Y01394D01*
X01294Y01304D02*
Y01404D01*
X01304Y01304D02*
Y01414D01*
X01314Y01304D02*
Y01424D01*
X01324Y01304D02*
Y01434D01*
X01334Y01304D02*
Y01434D01*
X01344Y01304D02*
Y01434D01*
X01354Y01304D02*
Y01434D01*
X01364Y01304D02*
Y01434D01*
X01374Y01304D02*
Y01434D01*
X01283Y01392D02*
X01493D01*
X01293Y01402D02*
X01493D01*
X01384Y01304D02*
Y01434D01*
X01313Y01422D02*
X01491D01*
X01303Y01412D02*
X01493D01*
X01394Y01304D02*
Y01434D01*
X01404Y01304D02*
Y01434D01*
X01414Y01304D02*
Y01434D01*
X01424Y01304D02*
Y01434D01*
X01434Y01304D02*
Y01434D01*
X01444Y01304D02*
Y01434D01*
X01274Y01464D02*
Y01545D01*
X01284Y01474D02*
Y01545D01*
X01294Y01484D02*
Y01545D01*
X01304Y0149D02*
Y01545D01*
X01314Y01491D02*
Y01545D01*
X01324Y01491D02*
Y01545D01*
X01334Y01491D02*
Y01545D01*
X01344Y01491D02*
Y01545D01*
X01354Y01491D02*
Y01545D01*
X01323Y01432D02*
X01491D01*
X01325Y01434D02*
X01492D01*
X01313Y01491D02*
X01557D01*
X01364D02*
Y01545D01*
X01374Y01491D02*
Y01545D01*
X01384Y01491D02*
Y01545D01*
X01394Y01491D02*
Y01545D01*
X01404Y01491D02*
Y01545D01*
X01414Y01491D02*
Y01545D01*
X01424Y01491D02*
Y01545D01*
X01434Y01491D02*
Y01545D01*
X01444Y01491D02*
Y01545D01*
X01454Y-0013D02*
Y01084D01*
X01464Y-0013D02*
Y01118D01*
X01574Y-0013D02*
Y00899D01*
X01584Y-0013D02*
Y00891D01*
X01594Y-0013D02*
Y00887D01*
X01474Y-0013D02*
Y01123D01*
X01484Y-0013D02*
Y01134D01*
X01494Y-0013D02*
Y01142D01*
X01504Y-0013D02*
Y01145D01*
X01514Y-0013D02*
Y01152D01*
X01524Y-0013D02*
Y01168D01*
X01944Y-0013D02*
Y00848D01*
X01964Y-0013D02*
Y00835D01*
X01974Y-0013D02*
Y0083D01*
X01984Y-0013D02*
Y00829D01*
X01994Y-0013D02*
Y00831D01*
X01604Y-0013D02*
Y00887D01*
X01614Y-0013D02*
Y00891D01*
X01624Y-0013D02*
Y00898D01*
X01924Y-0013D02*
Y00862D01*
X01934Y-0013D02*
Y00852D01*
X01954Y-0013D02*
Y00847D01*
X02034Y-0013D02*
Y0083D01*
X01998Y00832D02*
X02029D01*
X02044Y-0013D02*
Y00828D01*
X02054Y-0013D02*
Y00828D01*
X02064Y-0013D02*
Y00833D01*
X02004Y-0013D02*
Y00836D01*
X02024Y-0013D02*
Y00836D01*
X0201Y00842D02*
X02019D01*
X02074Y-0013D02*
Y00843D01*
X02064Y00832D02*
X02168D01*
X02074Y00842D02*
X02157D01*
X02134Y-0013D02*
Y00848D01*
X02078Y00852D02*
X02128D01*
X02144Y-0013D02*
Y00843D01*
X02079Y00862D02*
X02121D01*
X02124Y-0013D02*
Y00858D01*
X02077Y00872D02*
X02119D01*
X02174Y-0013D02*
Y0083D01*
X02184Y-0013D02*
Y00829D01*
X02234Y-0013D02*
Y0083D01*
X02244Y-0013D02*
Y00828D01*
X02254Y-0013D02*
Y00828D01*
X02154Y-0013D02*
Y00843D01*
X02164Y-0013D02*
Y00835D01*
X02194Y-0013D02*
Y00831D01*
X02204Y-0013D02*
Y00836D01*
X02224Y-0013D02*
Y00836D01*
X02264Y-0013D02*
Y00833D01*
X02804Y-0013D02*
Y00031D01*
Y00094D02*
Y00131D01*
X02814Y-0013D02*
Y0002D01*
Y00105D02*
Y0012D01*
X02824Y-0013D02*
Y00014D01*
X02274Y-0013D02*
Y00843D01*
X02804Y00194D02*
Y00231D01*
Y00294D02*
Y00331D01*
X02814Y00205D02*
Y0022D01*
X02198Y00832D02*
X02229D01*
X0221Y00842D02*
X02219D01*
X02804Y00394D02*
Y00431D01*
X02274Y00842D02*
X02798D01*
X02804Y00494D02*
Y00531D01*
X02277Y00872D02*
X02795D01*
X02278Y00852D02*
X02795D01*
X02279Y00862D02*
X02794D01*
X02814Y00305D02*
Y0032D01*
Y00405D02*
Y0042D01*
Y00505D02*
Y0052D01*
Y00605D02*
Y0062D01*
X02804Y00594D02*
Y00631D01*
Y00694D02*
Y00731D01*
X02264Y00832D02*
X02803D01*
X02814Y00705D02*
Y0072D01*
X02804Y00794D02*
Y00831D01*
X02814Y00805D02*
Y0082D01*
X01534Y-0013D02*
Y01167D01*
X01544Y-0013D02*
Y0117D01*
X01554Y-0013D02*
Y01177D01*
X01564Y-0013D02*
Y01184D01*
X01634Y-0013D02*
Y01545D01*
X01644Y-0013D02*
Y01545D01*
X01654Y-0013D02*
Y01545D01*
X01664Y-0013D02*
Y01545D01*
X01674Y-0013D02*
Y01545D01*
X01684Y-0013D02*
Y01545D01*
X01694Y-0013D02*
Y01545D01*
X01704Y-0013D02*
Y01545D01*
X01714Y-0013D02*
Y01545D01*
X01724Y-0013D02*
Y01545D01*
X01734Y-0013D02*
Y01545D01*
X01744Y-0013D02*
Y01545D01*
X01754Y-0013D02*
Y01545D01*
X01764Y-0013D02*
Y01545D01*
X01774Y-0013D02*
Y01545D01*
X01784Y-0013D02*
Y01545D01*
X01794Y-0013D02*
Y01545D01*
X01804Y-0013D02*
Y01545D01*
X01814Y-0013D02*
Y01545D01*
X01824Y-0013D02*
Y01545D01*
X01834Y-0013D02*
Y01545D01*
X01844Y-0013D02*
Y01545D01*
X01854Y-0013D02*
Y01545D01*
X01864Y-0013D02*
Y01545D01*
X01874Y-0013D02*
Y01545D01*
X01884Y-0013D02*
Y01545D01*
X01894Y-0013D02*
Y01545D01*
X01904Y-0013D02*
Y01545D01*
X01914Y-0013D02*
Y01545D01*
X02084Y-0013D02*
Y01545D01*
X02094Y-0013D02*
Y01545D01*
X02104Y-0013D02*
Y01545D01*
X02114Y-0013D02*
Y01545D01*
X02284Y-0013D02*
Y01545D01*
X02294Y-0013D02*
Y01545D01*
X02304Y-0013D02*
Y01545D01*
X02314Y-0013D02*
Y01545D01*
X02324Y-0013D02*
Y01545D01*
X02334Y-0013D02*
Y01545D01*
X02344Y-0013D02*
Y01545D01*
X02354Y-0013D02*
Y01545D01*
X02364Y-0013D02*
Y01545D01*
X02374Y-0013D02*
Y01545D01*
X02384Y-0013D02*
Y01545D01*
X02394Y-0013D02*
Y01545D01*
X02404Y-0013D02*
Y01545D01*
X02414Y-0013D02*
Y01545D01*
X02424Y-0013D02*
Y01545D01*
X02434Y-0013D02*
Y01545D01*
X02444Y-0013D02*
Y01545D01*
X02454Y-0013D02*
Y01545D01*
X02464Y-0013D02*
Y01545D01*
X02474Y-0013D02*
Y01545D01*
X02484Y-0013D02*
Y01545D01*
X02494Y-0013D02*
Y01545D01*
X02504Y-0013D02*
Y01545D01*
X02514Y-0013D02*
Y01545D01*
X02524Y-0013D02*
Y01545D01*
X02534Y-0013D02*
Y01545D01*
X02544Y-0013D02*
Y01545D01*
X02554Y-0013D02*
Y01545D01*
X02564Y-0013D02*
Y01545D01*
X02574Y-0013D02*
Y01545D01*
X02584Y-0013D02*
Y01545D01*
X02594Y-0013D02*
Y01545D01*
X02604Y-0013D02*
Y01545D01*
X02614Y-0013D02*
Y01545D01*
X02624Y-0013D02*
Y01545D01*
X02634Y-0013D02*
Y01545D01*
X02644Y-0013D02*
Y01545D01*
X02654Y-0013D02*
Y01545D01*
X02664Y-0013D02*
Y01545D01*
X02674Y-0013D02*
Y01545D01*
X02684Y-0013D02*
Y01545D01*
X02694Y-0013D02*
Y01545D01*
X02704Y-0013D02*
Y01545D01*
X02714Y-0013D02*
Y01545D01*
X02724Y-0013D02*
Y01545D01*
X02734Y-0013D02*
Y01545D01*
X02744Y-0013D02*
Y01545D01*
X02754Y-0013D02*
Y01545D01*
X02764Y-0013D02*
Y01545D01*
X02774Y-0013D02*
Y01545D01*
X02784Y-0013D02*
Y01545D01*
X02794Y-0013D02*
Y01545D01*
X02834Y-0013D02*
Y0001D01*
X02844Y-0013D02*
Y00008D01*
X02854Y-0013D02*
Y00008D01*
X02864Y-0013D02*
Y0001D01*
X02874Y-0013D02*
Y00014D01*
X02884Y-0013D02*
Y0002D01*
X02886Y00022D02*
X02911D01*
X02894Y-0013D02*
Y00031D01*
X02904Y-0013D02*
Y00031D01*
X02914Y-0013D02*
Y0002D01*
X02934Y-0013D02*
Y0001D01*
X02871Y00012D02*
X02927D01*
X02944Y-0013D02*
Y00008D01*
X02954Y-0013D02*
Y00008D01*
X02964Y-0013D02*
Y0001D01*
X02924Y-0013D02*
Y00014D01*
X02971Y00012D02*
X03191D01*
X02974Y-0013D02*
Y00014D01*
X02984Y-0013D02*
Y0002D01*
X02986Y00022D02*
X03191D01*
X02895Y00032D02*
X02903D01*
X02799Y00163D02*
X02849D01*
X02984Y00105D02*
Y0012D01*
X02949Y00263D02*
X02999D01*
X02984Y00205D02*
Y0022D01*
Y00305D02*
Y0032D01*
Y00405D02*
Y0042D01*
X02972Y00112D02*
X03191D01*
X02972Y00212D02*
X03191D01*
X02987Y00102D02*
X03191D01*
X02986Y00122D02*
X03191D01*
X02987Y00202D02*
X03191D01*
X02972Y00312D02*
X03191D01*
X02986Y00222D02*
X03191D01*
X02972Y00412D02*
X03191D01*
X02994Y-0013D02*
Y00031D01*
X02995Y00032D02*
X03191D01*
X03004Y-0013D02*
Y0006D01*
X03Y00042D02*
X03191D01*
X03003Y00052D02*
X03191D01*
X03004Y00062D02*
X03191D01*
X02994Y00094D02*
Y00131D01*
Y00194D02*
Y00231D01*
X03004Y00065D02*
Y0016D01*
Y00165D02*
Y0026D01*
X03003Y00072D02*
X03191D01*
X02995Y00092D02*
X03191D01*
X02995Y00132D02*
X03191D01*
X03Y00082D02*
X03191D01*
X03Y00142D02*
X03191D01*
X03003Y00152D02*
X03191D01*
X03Y00182D02*
X03191D01*
X02995Y00192D02*
X03191D01*
X02995Y00232D02*
X03191D01*
X03004Y00162D02*
X03191D01*
X03003Y00172D02*
X03191D01*
X03Y00242D02*
X03191D01*
X03Y00282D02*
X03191D01*
X02995Y00292D02*
X03191D01*
X03003Y00252D02*
X03191D01*
X03004Y00262D02*
X03191D01*
X03003Y00272D02*
X03191D01*
X02994Y00294D02*
Y00331D01*
X02987Y00302D02*
X03191D01*
X02986Y00322D02*
X03191D01*
X03004Y00265D02*
Y0036D01*
X02994Y00394D02*
Y00431D01*
X03004Y00365D02*
Y0046D01*
X02995Y00332D02*
X03191D01*
X03Y00342D02*
X03191D01*
X03Y00382D02*
X03191D01*
X03003Y00352D02*
X03191D01*
X03004Y00362D02*
X03191D01*
X03003Y00372D02*
X03191D01*
X02987Y00402D02*
X03191D01*
X02986Y00422D02*
X03191D01*
X02995Y00432D02*
X03191D01*
X02995Y00392D02*
X03191D01*
X03Y00442D02*
X03191D01*
X03003Y00452D02*
X03191D01*
X02984Y00505D02*
Y0052D01*
X02994Y00494D02*
Y00531D01*
X02984Y00605D02*
Y0062D01*
X02994Y00594D02*
Y00631D01*
X02987Y00502D02*
X03191D01*
X02972Y00512D02*
X03191D01*
X03Y00482D02*
X03191D01*
X02995Y00492D02*
X03191D01*
X02986Y00522D02*
X03191D01*
X02987Y00602D02*
X03191D01*
X02972Y00612D02*
X03191D01*
X02995Y00532D02*
X03191D01*
X02995Y00592D02*
X03191D01*
X02986Y00622D02*
X03191D01*
X02994Y00694D02*
Y00731D01*
X02984Y00705D02*
Y0072D01*
X02994Y00794D02*
Y00831D01*
X02984Y00805D02*
Y0082D01*
X02987Y00702D02*
X03191D01*
X02972Y00712D02*
X03191D01*
X02995Y00632D02*
X03191D01*
X02995Y00692D02*
X03191D01*
X02986Y00722D02*
X03191D01*
X02987Y00802D02*
X03191D01*
X02972Y00812D02*
X03191D01*
X02986Y00822D02*
X03191D01*
X02995Y00732D02*
X03191D01*
X02995Y00792D02*
X03191D01*
X02995Y00832D02*
X03191D01*
X03014Y-0013D02*
Y01545D01*
X03004Y00465D02*
Y0056D01*
X03024Y-0013D02*
Y01545D01*
X03034Y-0013D02*
Y01545D01*
X03044Y-0013D02*
Y01545D01*
X03054Y-0013D02*
Y01545D01*
X03064Y-0013D02*
Y01545D01*
X03074Y-0013D02*
Y01545D01*
X03084Y-0013D02*
Y01545D01*
X03094Y-0013D02*
Y01545D01*
X03104Y-0013D02*
Y01545D01*
X03004Y00462D02*
X03191D01*
X03003Y00472D02*
X03191D01*
X03114Y-0013D02*
Y01545D01*
X03124Y-0013D02*
Y01545D01*
X03134Y-0013D02*
Y01545D01*
X03144Y-0013D02*
Y01545D01*
X03154Y-0013D02*
Y01545D01*
X03164Y-0013D02*
Y01545D01*
X03174Y-0013D02*
Y01545D01*
X03184Y-0013D02*
Y01545D01*
X03191Y-0013D02*
Y01545D01*
X03Y00542D02*
X03191D01*
X03Y00582D02*
X03191D01*
X03003Y00552D02*
X03191D01*
X03004Y00562D02*
X03191D01*
X03003Y00572D02*
X03191D01*
X03004Y00565D02*
Y0066D01*
X03Y00642D02*
X03191D01*
X03003Y00652D02*
X03191D01*
X03004Y00665D02*
Y0076D01*
Y00765D02*
Y0086D01*
Y00865D02*
Y0096D01*
Y00662D02*
X03191D01*
X03Y00682D02*
X03191D01*
X03Y00742D02*
X03191D01*
X03003Y00672D02*
X03191D01*
X03003Y00752D02*
X03191D01*
X03004Y00762D02*
X03191D01*
X03003Y00772D02*
X03191D01*
X03Y00782D02*
X03191D01*
X03Y00842D02*
X03191D01*
X03003Y00852D02*
X03191D01*
X03004Y00862D02*
X03191D01*
X03003Y00872D02*
X03191D01*
X01617Y00892D02*
X01921D01*
X01627Y00902D02*
X01923D01*
X01631Y00912D02*
X01923D01*
X01632Y00922D02*
X01923D01*
X0163Y00932D02*
X01923D01*
X0163Y00942D02*
X01923D01*
X0163Y00952D02*
X01923D01*
X0163Y01072D02*
X01919D01*
X0163Y01062D02*
X01922D01*
X0163Y00962D02*
X01923D01*
X0163Y00972D02*
X01923D01*
X0163Y00982D02*
X01923D01*
X0163Y00992D02*
X01923D01*
X0163Y01002D02*
X01923D01*
X0163Y01012D02*
X01923D01*
X0163Y01022D02*
X01923D01*
X0163Y01032D02*
X01923D01*
X0163Y01042D02*
X01923D01*
X0163Y01052D02*
X01923D01*
X01453Y01082D02*
X01568D01*
X01457Y01092D02*
X01568D01*
X01458Y01102D02*
X01568D01*
X01456Y01112D02*
X01568D01*
X01473Y01122D02*
X01568D01*
X01483Y01132D02*
X01568D01*
X01495Y01142D02*
X01568D01*
X01514Y01152D02*
X01568D01*
X01521Y01162D02*
X01568D01*
X0163Y01082D02*
X01919D01*
X0163Y01092D02*
X01922D01*
X0163Y01102D02*
X0193D01*
X0163Y01112D02*
X02125D01*
X0163Y01122D02*
X02125D01*
X0163Y01132D02*
X02125D01*
X01548Y01172D02*
X01568D01*
X0163Y01142D02*
X02125D01*
X0163Y01152D02*
X02123D01*
X0163Y01162D02*
X02121D01*
X0163Y01172D02*
X02122D01*
X02075Y00882D02*
X02119D01*
X02075Y00892D02*
X02123D01*
X02075Y00877D02*
Y00919D01*
Y00902D02*
X02125D01*
X01923Y00897D02*
Y01061D01*
X02124Y00893D02*
Y01149D01*
X02125Y00895D02*
Y01146D01*
X02075Y00912D02*
X02125D01*
X02074Y00952D02*
X02125D01*
X02076Y00922D02*
X02125D01*
X02079Y00932D02*
X02125D01*
X02078Y00942D02*
X02125D01*
X02275Y00952D02*
X02795D01*
X02065Y00962D02*
X02125D01*
X02047Y00982D02*
X02125D01*
X02275Y00877D02*
Y01026D01*
Y00962D02*
X02794D01*
X02275Y00972D02*
X02795D01*
X02013Y01022D02*
X02125D01*
X02016Y01032D02*
X02125D01*
X02047Y00992D02*
X02125D01*
X02043Y01002D02*
X02125D01*
X02036Y01012D02*
X02125D01*
X02004Y01062D02*
X02125D01*
X01984Y01082D02*
X02125D01*
X02016Y01042D02*
X02125D01*
X02012Y01052D02*
X02125D01*
X02261Y01072D02*
X02795D01*
X02278Y01052D02*
X02795D01*
X02273Y01062D02*
X02794D01*
X01981Y01092D02*
X02125D01*
X01974Y01102D02*
X02125D01*
X02185Y01172D02*
X02795D01*
X02198Y01152D02*
X02795D01*
X01494Y01304D02*
Y01349D01*
X01504Y01304D02*
Y01337D01*
X0151Y01333D02*
X01539Y01304D01*
X01514D02*
Y01329D01*
X01524Y01304D02*
Y01319D01*
X01454Y01304D02*
Y01434D01*
X01464Y01304D02*
Y01434D01*
X01474Y01304D02*
Y01434D01*
X01484Y01304D02*
Y01434D01*
X01493Y01374D02*
Y01416D01*
X01558Y01182D02*
X01568D01*
Y00931D02*
Y01183D01*
X01594Y01337D02*
X01621Y0131D01*
X01604Y01327D02*
Y01349D01*
X01605Y01352D02*
X02795D01*
X01604Y01377D02*
Y01424D01*
X01605Y01372D02*
X02795D01*
X01454Y01491D02*
Y01545D01*
X01464Y01491D02*
Y01545D01*
X01474Y01491D02*
Y01545D01*
X01484Y01491D02*
Y01545D01*
X01494Y01491D02*
Y01545D01*
X01504Y01491D02*
Y01545D01*
X01514Y01491D02*
Y01545D01*
X01524Y01491D02*
Y01545D01*
X01534Y01491D02*
Y01545D01*
X01544Y01491D02*
Y01545D01*
X01602Y01379D02*
Y01421D01*
X01605Y01452D02*
X02795D01*
X01554Y01491D02*
Y01545D01*
X01564Y01494D02*
Y01545D01*
X01594Y01489D02*
Y01545D01*
X01574Y01496D02*
Y01545D01*
X01584Y01494D02*
Y01545D01*
X0163Y00931D02*
Y01288D01*
X01924Y01095D02*
Y01545D01*
X01934Y01105D02*
Y01545D01*
X01944Y0111D02*
Y01545D01*
X01954Y01111D02*
Y01545D01*
X01984Y01085D02*
Y01545D01*
X01964Y01108D02*
Y01545D01*
X01974Y01102D02*
Y01545D01*
X02014Y01049D02*
Y01545D01*
X01994Y01068D02*
Y01545D01*
X02004Y01063D02*
Y01545D01*
X02034Y01014D02*
Y01545D01*
X02024Y01019D02*
Y01545D01*
X02064Y00963D02*
Y01545D01*
X02044Y01002D02*
Y01545D01*
X02054Y00968D02*
Y01545D01*
X02074Y00953D02*
Y01545D01*
X02234Y01109D02*
Y01545D01*
X02244Y01097D02*
Y01545D01*
X02274Y01061D02*
Y01545D01*
X02254Y01075D02*
Y01545D01*
X02264Y01071D02*
Y01545D01*
X01604Y01477D02*
Y01545D01*
X0163Y01182D02*
X02127D01*
X0163Y01192D02*
X0214D01*
X02124Y01176D02*
Y01545D01*
X01614Y01317D02*
Y01545D01*
X01624Y01306D02*
Y01545D01*
X02134Y01189D02*
Y01545D01*
X02144Y01194D02*
Y01545D01*
X02154Y01196D02*
Y01545D01*
X0163Y01252D02*
X02795D01*
X0163Y01262D02*
X02794D01*
X01607Y01362D02*
X02794D01*
X02164Y01194D02*
Y01545D01*
X0163Y01272D02*
X02795D01*
X02194Y01154D02*
Y01545D01*
X02174Y01189D02*
Y01545D01*
X02184Y01177D02*
Y01545D01*
X02224Y01114D02*
Y01545D01*
X02204Y01149D02*
Y01545D01*
X02214Y01137D02*
Y01545D01*
X02275Y00882D02*
X02798D01*
X02275Y00892D02*
X02803D01*
X02804Y00894D02*
Y00931D01*
X02275Y00902D02*
X02811D01*
X02814Y00905D02*
Y0092D01*
X02275Y00932D02*
X02803D01*
X02275Y00942D02*
X02798D01*
X02275Y00982D02*
X02798D01*
X02275Y00992D02*
X02803D01*
X02804Y00994D02*
Y01031D01*
X02275Y01002D02*
X02811D01*
X02275Y00912D02*
X02825D01*
X02275Y00922D02*
X02811D01*
X02972Y00912D02*
X03191D01*
X02814Y01005D02*
Y0102D01*
X02275Y01012D02*
X02825D01*
X02972D02*
X03191D01*
X02245Y01092D02*
X02803D01*
X02215Y01132D02*
X02803D01*
X02278Y01032D02*
X02803D01*
X02279Y01042D02*
X02798D01*
X02804Y01094D02*
Y01131D01*
X02168Y01192D02*
X02803D01*
X0163Y01242D02*
X02798D01*
X0163Y01232D02*
X02803D01*
X0221Y01142D02*
X02798D01*
X0218Y01182D02*
X02798D01*
X02804Y01194D02*
Y01231D01*
X0224Y01102D02*
X02811D01*
X02228Y01112D02*
X02825D01*
X02275Y01022D02*
X02811D01*
X02972Y01112D02*
X03191D01*
X0163Y01202D02*
X02811D01*
X0163Y01222D02*
X02811D01*
X0163Y01212D02*
X02825D01*
X02814Y01105D02*
Y0112D01*
Y01205D02*
Y0122D01*
X02987Y00902D02*
X03191D01*
X02984Y00905D02*
Y0092D01*
X03Y00882D02*
X03191D01*
X02995Y00892D02*
X03191D01*
X02986Y00922D02*
X03191D01*
X02994Y00894D02*
Y00931D01*
X02984Y01005D02*
Y0102D01*
X02995Y00932D02*
X03191D01*
X03Y00942D02*
X03191D01*
X02994Y00994D02*
Y01031D01*
X03004Y00965D02*
Y0106D01*
X03Y00982D02*
X03191D01*
X02995Y00992D02*
X03191D01*
X03003Y00952D02*
X03191D01*
X03004Y00962D02*
X03191D01*
X03003Y00972D02*
X03191D01*
X02987Y01002D02*
X03191D01*
X02986Y01022D02*
X03191D01*
X02995Y01032D02*
X03191D01*
X03Y01042D02*
X03191D01*
X03003Y01052D02*
X03191D01*
X03004Y01062D02*
X03191D01*
X02987Y01102D02*
X03191D01*
X02984Y01105D02*
Y0112D01*
X03003Y01072D02*
X03191D01*
X03Y01082D02*
X03191D01*
X02995Y01092D02*
X03191D01*
X02984Y01205D02*
Y0122D01*
X03004Y01065D02*
Y0116D01*
X02994Y01094D02*
Y01131D01*
Y01194D02*
Y01231D01*
X02986Y01122D02*
X03191D01*
X02995Y01132D02*
X03191D01*
X03Y01142D02*
X03191D01*
X03003Y01152D02*
X03191D01*
X03004Y01162D02*
X03191D01*
X03003Y01172D02*
X03191D01*
X02987Y01202D02*
X03191D01*
X02972Y01212D02*
X03191D01*
X02986Y01222D02*
X03191D01*
X03Y01182D02*
X03191D01*
X02995Y01192D02*
X03191D01*
X02995Y01232D02*
X03191D01*
X01598Y01332D02*
X02803D01*
X016Y01342D02*
X02798D01*
X0163Y01282D02*
X02798D01*
X0163Y01292D02*
X02803D01*
X02804Y01294D02*
Y01331D01*
X01602Y01382D02*
X02798D01*
X01602Y01392D02*
X02803D01*
X01607Y01432D02*
X02803D01*
X02804Y01394D02*
Y01431D01*
X01607Y01462D02*
X02794D01*
X01607Y01442D02*
X02798D01*
X01618Y01312D02*
X02825D01*
X01608Y01322D02*
X02811D01*
X01626Y01302D02*
X02811D01*
X02814Y01305D02*
Y0132D01*
X01602Y01402D02*
X02811D01*
X01603Y01422D02*
X02811D01*
X01602Y01412D02*
X02825D01*
X02814Y01405D02*
Y0142D01*
X016Y01482D02*
X02798D01*
X01588Y01492D02*
X02803D01*
X01605Y01472D02*
X02795D01*
X02804Y01494D02*
Y01545D01*
X02814Y01505D02*
Y01545D01*
X02824Y01512D02*
Y01545D01*
X02834Y01516D02*
Y01545D01*
X02844Y01517D02*
Y01545D01*
X02874Y01512D02*
Y01545D01*
X02854Y01517D02*
Y01545D01*
X02864Y01516D02*
Y01545D01*
X02884Y01505D02*
Y01545D01*
X02872Y01512D02*
X02925D01*
X02894Y01494D02*
Y01545D01*
X02887Y01502D02*
X02911D01*
X02904Y01494D02*
Y01545D01*
X02914Y01505D02*
Y01545D01*
X02924Y01512D02*
Y01545D01*
X02934Y01516D02*
Y01545D01*
X02944Y01517D02*
Y01545D01*
X02954Y01517D02*
Y01545D01*
X03004Y01165D02*
Y0126D01*
X03Y01242D02*
X03191D01*
X03003Y01252D02*
X03191D01*
X02984Y01305D02*
Y0132D01*
X03004Y01265D02*
Y0136D01*
X02994Y01294D02*
Y01331D01*
X03004Y01365D02*
Y0146D01*
X02995Y01292D02*
X03191D01*
X02987Y01302D02*
X03191D01*
X03004Y01262D02*
X03191D01*
X03003Y01272D02*
X03191D01*
X03Y01282D02*
X03191D01*
X02972Y01312D02*
X03191D01*
X02986Y01322D02*
X03191D01*
X02995Y01332D02*
X03191D01*
X03Y01342D02*
X03191D01*
X03003Y01352D02*
X03191D01*
X03004Y01362D02*
X03191D01*
X02994Y01394D02*
Y01431D01*
X02984Y01405D02*
Y0142D01*
X03003Y01372D02*
X03191D01*
X03Y01382D02*
X03191D01*
X02995Y01392D02*
X03191D01*
X02964Y01516D02*
Y01545D01*
X02974Y01512D02*
Y01545D01*
X03004Y01465D02*
Y01545D01*
X02984Y01505D02*
Y01545D01*
X02994Y01494D02*
Y01545D01*
X02987Y01402D02*
X03191D01*
X02972Y01412D02*
X03191D01*
X02986Y01422D02*
X03191D01*
X02995Y01432D02*
X03191D01*
X03Y01442D02*
X03191D01*
X03003Y01452D02*
X03191D01*
X02995Y01492D02*
X03191D01*
X02987Y01502D02*
X03191D01*
X02972Y01512D02*
X03191D01*
X03004Y01462D02*
X03191D01*
X03003Y01472D02*
X03191D01*
X03Y01482D02*
X03191D01*
G54D11*
X02046Y0086D02*
Y00935D01*
X02015Y00882D02*
Y00987D01*
X02014Y00988D02*
X02015Y00987D01*
X01983Y00862D02*
Y01037D01*
X01952Y0088D02*
Y01078D01*
X01574Y01363D02*
Y01438D01*
X02246Y0086D02*
Y01043D01*
X02214Y00878D02*
Y01083D01*
X02183Y01122D02*
X02184Y01123D01*
X02183Y00862D02*
Y01122D01*
X02154Y00878D02*
Y01163D01*
X02152Y00875D02*
X02154Y00878D01*
X01198Y01348D02*
X01313Y01463D01*
X01574*
X01535Y01255D02*
X01575Y01215D01*
X01183Y01255D02*
X01535D01*
X015Y0123D02*
X0153Y012D01*
X012Y0123D02*
X015D01*
X012D03*
X0146Y01205D02*
X0149Y01175D01*
X01183Y01205D02*
X0146D01*
X01181Y01206D02*
X01183Y01205D01*
X0142Y01185D02*
X01455Y0115D01*
X012Y01185D02*
X0142D01*
X0139Y01135D02*
X01425Y011D01*
X012Y01135D02*
X0139D01*
X012D03*
X01355Y0111D02*
X0139Y01075D01*
X01185Y0111D02*
X01355D01*
X01317Y01088D02*
X01355Y0105D01*
X01202Y01088D02*
X01317D01*
X0131Y01065D02*
X01403Y00972D01*
X01185Y01065D02*
X0131D01*
X012Y01275D02*
X0156D01*
G54D12*
X01524Y01363D02*
Y01428D01*
Y01363D02*
X01599Y01288D01*
Y0092D02*
Y01288D01*
G54D13*
X00799Y00338D02*
Y00463D01*
X00574D02*
X00799D01*
X00574Y-00037D02*
X00799D01*
Y00338*
X00574D02*
X00799D01*
X00674Y-00037D02*
Y00463D01*
X00549Y-00037D02*
X00574D01*
X00549D02*
Y00463D01*
X00564*
X00549D02*
X00574D01*
X00549Y00338D02*
X00574D01*
X00549Y00213D02*
X00799D01*
X00549Y00088D02*
X00799D01*
X03525Y0004D02*
Y0D01*
Y0004D02*
X0354Y0D01*
X03555Y0004D02*
X0354Y0D01*
X03555Y0004D02*
Y0D01*
X03567Y0004D02*
Y0D01*
Y0004D02*
X03584D01*
X0359Y00038*
X03592Y00036*
X03594Y00032*
Y00029*
X03592Y00025*
X0359Y00023*
X03584Y00021*
X03567D02*
X03584D01*
X0359Y00019*
X03592Y00017*
X03594Y00013*
Y00008*
X03592Y00004*
X0359Y00002*
X03584Y0*
X03567*
X03625Y00034D02*
X03623Y00038D01*
X03618Y0004*
X03614*
X03608Y00038*
X03604Y00032*
X03603Y00023*
Y00013*
X03604Y00006*
X03608Y00002*
X03614Y0*
X03616*
X03622Y00002*
X03625Y00006*
X03627Y00011*
Y00013*
X03625Y00019*
X03622Y00023*
X03616Y00025*
X03614*
X03608Y00023*
X03604Y00019*
X03603Y00013*
X03661Y00027D02*
X03659Y00021D01*
X03655Y00017*
X03649Y00015*
X03647*
X03642Y00017*
X03638Y00021*
X03636Y00027*
Y00029*
X03638Y00034*
X03642Y00038*
X03647Y0004*
X03649*
X03655Y00038*
X03659Y00034*
X03661Y00027*
Y00017*
X03659Y00008*
X03655Y00002*
X03649Y0*
X03646*
X0364Y00002*
X03638Y00006*
X03691Y0004D02*
X03672Y00013D01*
X037*
X03691Y0004D02*
Y0D01*
X00524Y01263D02*
D01*
X00523Y01269*
X00523Y01276*
X00521Y01283*
X0052Y0129*
X00517Y01297*
X00515Y01303*
X00512Y01309*
X00508Y01315*
X00504Y01321*
X005Y01327*
X00495Y01332*
X0049Y01337*
X00485Y01341*
X00479Y01345*
X00474Y01349*
X00467Y01352*
X00461Y01355*
X00454Y01358*
X00448Y0136*
X00441Y01361*
X00434Y01362*
X00427Y01362*
X0042*
X00413Y01362*
X00406Y01361*
X00399Y0136*
X00393Y01358*
X00386Y01355*
X0038Y01352*
X00373Y01349*
X00368Y01345*
X00362Y01341*
X00357Y01337*
X00352Y01332*
X00347Y01327*
X00343Y01321*
X00339Y01315*
X00335Y01309*
X00332Y01303*
X0033Y01297*
X00327Y0129*
X00326Y01283*
X00324Y01276*
X00324Y01269*
X00324Y01263*
Y00138D02*
D01*
X00324Y00131*
X00324Y00124*
X00326Y00117*
X00327Y0011*
X0033Y00103*
X00332Y00097*
X00335Y00091*
X00339Y00085*
X00343Y00079*
X00347Y00073*
X00352Y00068*
X00357Y00063*
X00362Y00059*
X00368Y00055*
X00374Y00051*
X0038Y00048*
X00386Y00045*
X00393Y00042*
X00399Y0004*
X00406Y00039*
X00413Y00038*
X0042Y00038*
X00427*
X00434Y00038*
X00441Y00039*
X00448Y0004*
X00454Y00042*
X00461Y00045*
X00467Y00048*
X00474Y00051*
X00479Y00055*
X00485Y00059*
X0049Y00063*
X00495Y00068*
X005Y00073*
X00504Y00079*
X00508Y00085*
X00512Y00091*
X00515Y00097*
X00517Y00103*
X0052Y0011*
X00521Y00117*
X00523Y00124*
X00523Y00131*
X00524Y00138*
X-00086Y01573D02*
X03219D01*
X03218Y-00158D02*
X03219Y-00157D01*
Y01573*
X00324Y00138D02*
Y01263D01*
X00524Y00138D02*
Y01258D01*
X-00086Y-00158D02*
Y01573D01*
Y-00158D02*
X03218D01*
G54D14*
X00589Y0026D02*
X00639Y00279D01*
X00589Y00298*
X00606Y00291D02*
Y00267D01*
X00739Y00288D02*
X00742Y00283D01*
X00749Y00276*
X00699*
G54D15*
X02949Y00063D03*
Y00163D03*
Y00263D03*
Y00363D03*
X02849Y00063D03*
Y00163D03*
Y00263D03*
Y00363D03*
Y01463D03*
X02949Y01363D03*
Y01463D03*
X02849Y01363D03*
X02949Y00463D03*
Y00563D03*
Y00663D03*
Y00763D03*
Y00863D03*
Y00963D03*
Y01063D03*
Y01163D03*
Y01263D03*
X02849Y00463D03*
Y00563D03*
Y00663D03*
Y00763D03*
Y00863D03*
Y00963D03*
Y01063D03*
Y01163D03*
Y01263D03*
G54D16*
X0Y0D03*
D03*
Y01418D03*
G54D17*
X02424Y00438D03*
X02309Y00542D03*
X01579Y00642D03*
X01794Y00643D03*
X01684D03*
X00094Y00313D03*
Y00193D03*
X00214D03*
Y00313D03*
X00674Y00612D03*
X00569D03*
X00674Y00518D03*
X00574D03*
X01084Y01482D03*
Y01392D03*
X01264Y00742D03*
X01112Y00777D03*
X01159Y00702D03*
X01524Y01512D03*
X02274Y01518D03*
X02404D03*
X02524D03*
X00784Y01208D03*
X00874D03*
X00784Y01118D03*
X00874D03*
X01424Y00042D03*
Y-00082D03*
X01599Y00042D03*
Y-00078D03*
X01724Y01388D03*
Y01313D03*
Y01238D03*
X01574Y01463D03*
X02246Y0086D03*
X02214Y00878D03*
X02183Y00862D03*
X02152Y00875D03*
X02046Y0086D03*
Y00935D03*
X02015Y00882D03*
X02014Y00988D03*
X01983Y00862D03*
Y01037D03*
X01952Y0088D03*
Y01078D03*
X01524Y01428D03*
Y01363D03*
X01574Y01438D03*
Y01363D03*
X02246Y01043D03*
X02214Y01083D03*
X02184Y01123D03*
X02154Y01163D03*
X0192Y00754D03*
X02079Y00753D03*
X02115Y00754D03*
X02289Y00753D03*
X01299Y00628D03*
X01296Y00565D03*
X01401Y00585D03*
X01297Y00485D03*
X01296Y0039D03*
X01401Y0034D03*
X01449Y00813D03*
X01574Y00728D03*
X00089Y01162D03*
X00214D03*
X00094Y01038D03*
X00214D03*
X00869Y00782D03*
X00784Y00783D03*
X01459Y00712D03*
X01105Y01D03*
X02369Y00802D03*
X02104Y00863D03*
X02304D03*
X00869Y00712D03*
X00784Y00713D03*
X01198Y01348D03*
X01575Y01215D03*
X0153Y012D03*
X0149Y01175D03*
X01455Y0115D03*
X01425Y011D03*
X0139Y01075D03*
X01355Y0105D03*
X012Y01275D03*
X01183Y01255D03*
X012Y0123D03*
X01181Y01206D03*
X012Y01185D03*
Y01135D03*
X01185Y0111D03*
X011Y013D03*
X01202Y01088D03*
X01185Y01065D03*
X01111Y00876D03*
X01403Y00972D03*
X01599Y0092D03*
X0131Y00902D03*
X0156Y01275D03*
X01004Y01205D03*
X02735Y01242D03*
X02485D03*
X02055D03*
M02*